<svg width="241" height="161" viewBox="0 0 241 161" fill="none" xmlns="http://www.w3.org/2000/svg">
<path fill-rule="evenodd" clip-rule="evenodd" d="M19.9269 69.7276C18.2696 69.0862 16.7329 68.7054 15.0955 68.7155C8.97843 68.7656 3.9762 73.6557 3.85573 79.7585C3.83418 80.9534 3.83824 82.1432 3.8423 83.3352V83.3353V83.3355V83.3356V83.3357V83.3359V83.336V83.3362V83.3363V83.3364C3.84398 83.8134 3.84566 84.2908 3.84566 84.7689V86.0014C3.71861 85.8679 3.61032 85.7577 3.51587 85.6616C3.3344 85.477 3.20469 85.3448 3.09234 85.1998C-3.49699 76.4416 0.972846 64.1058 11.4996 61.4503C14.0107 60.819 16.5319 60.8691 19.0531 61.4904C19.9772 61.721 19.9973 61.7509 19.9973 62.7029V68.8156C19.9909 68.9818 19.9763 69.1478 19.9588 69.3477C19.9489 69.4613 19.9378 69.5859 19.9269 69.7276ZM224.504 91.3626C224.134 90.4204 223.764 89.482 223.396 88.546C222.538 86.3658 221.686 84.1995 220.829 82.0332C220.423 81.0168 220.027 79.9961 219.628 78.9681V78.9673V78.9666C218.819 76.8834 217.999 74.7704 217.072 72.6035C216.75 74.1669 214.641 88.5368 214.862 91.042H211.899C211.951 90.8648 212.005 90.6941 212.06 90.5271C212.182 90.1463 212.298 89.7847 212.361 89.4086C212.592 88.0257 212.783 86.6428 212.964 85.2499C213.486 81.2817 214.008 77.3133 214.5 73.3451C214.532 73.0935 214.567 72.8417 214.604 72.5891L214.605 72.5872C214.776 71.3917 214.949 70.181 214.651 68.9159H219.583C220.15 71.3409 221.069 73.6101 221.986 75.8728C222.383 76.8544 222.78 77.835 223.148 78.8266C223.725 80.3884 224.335 81.9363 224.945 83.4861L224.946 83.4893L224.948 83.492L224.949 83.4939L224.951 83.4977L224.952 83.5009C225.232 84.2132 225.513 84.926 225.79 85.6408C225.873 85.8443 225.968 86.0434 226.087 86.2908V86.2935C226.144 86.4106 226.204 86.5386 226.273 86.6829C226.333 86.5687 226.389 86.4692 226.439 86.379C226.54 86.2001 226.621 86.0579 226.674 85.9113C228.391 81.2817 230.109 76.652 231.797 72.0123C232.035 71.3637 232.193 70.683 232.355 69.992C232.433 69.6584 232.512 69.3221 232.6 68.986C233.253 68.8156 236.236 68.7756 237.431 68.946C237.171 70.5391 237.409 72.0993 237.647 73.663C237.729 74.2041 237.812 74.7456 237.874 75.2891C238.275 78.7664 238.728 82.2436 239.21 85.7109C239.262 86.0899 239.303 86.4708 239.345 86.8525V86.8527V86.853V86.8533V86.8536C239.499 88.2573 239.655 89.6713 240.294 91.042H236.367C236.611 89.5075 236.393 88.0479 236.176 86.602C236.108 86.1406 236.039 85.6806 235.986 85.2198C235.68 82.6405 235.341 80.0667 235.002 77.4901V77.488V77.4876V77.4872V77.4869V77.4865V77.4862V77.4858C234.883 76.5904 234.766 75.6945 234.65 74.7981C234.591 74.3486 234.522 73.8991 234.451 73.4305L234.448 73.4089C234.422 73.2369 234.395 73.0623 234.369 72.8842C233.961 72.9898 233.877 73.2862 233.802 73.5547C233.784 73.6175 233.767 73.6789 233.746 73.736C232.671 76.5712 231.616 79.4166 230.563 82.262V82.2621L230.561 82.2622V82.2625V82.2627V82.2628V82.2629V82.2632V82.2634V82.2635V82.2636C230.343 82.8485 230.118 83.4315 229.893 84.0146C229.373 85.3598 228.853 86.7056 228.412 88.0758C227.79 89.9898 226.343 90.8115 224.504 91.3626ZM29.861 80.1693C29.3086 77.9447 28.264 75.9506 26.5865 74.0266C26.5725 74.2219 26.5585 74.3612 26.5476 74.4704V74.4707V74.4708L26.5474 74.471C26.5349 74.5965 26.5263 74.6824 26.5263 74.768C26.5263 75.2565 26.5307 75.7459 26.535 76.2355V76.2358V76.2359V76.236V76.2362V76.2363V76.2366V76.2367V76.2369V76.237V76.2372C26.5454 77.4145 26.5558 78.594 26.5062 79.7685C26.466 80.8207 26.3756 81.9129 26.0944 82.9251C24.447 88.9677 18.5207 92.0741 13.4483 91.1322C12.7923 91.0107 12.1455 90.8393 11.4833 90.6639L11.4828 90.6638C11.1614 90.5786 10.8365 90.4925 10.5052 90.4106C10.4944 90.4641 10.4786 90.519 10.4627 90.5742C10.4339 90.6738 10.4048 90.7748 10.4048 90.8717C10.3997 91.989 10.3997 93.1063 10.3997 94.2236C10.3997 95.3409 10.3997 96.4583 10.3947 97.5756C10.3846 98.0966 10.6257 98.3272 11.128 98.4574C13.3678 99.0486 15.6178 99.1689 17.8879 98.758C26.1346 97.275 32.0709 89.2082 29.861 80.1693ZM166.428 71.1949V71.1964C166.396 71.4606 166.367 71.7089 166.367 71.9622C166.357 77.3335 166.347 82.7146 166.377 88.0859C166.377 88.7552 166.456 89.4295 166.539 90.1263V90.1278C166.574 90.4214 166.609 90.7191 166.638 91.0219H162.66C163.074 89.5546 163.038 88.0989 163.002 86.6503C162.99 86.1995 162.979 85.7494 162.982 85.3C163.011 80.8308 163.002 76.3514 162.982 71.872C162.982 71.2167 162.919 70.5565 162.855 69.8655C162.825 69.5527 162.796 69.2336 162.771 68.9059C162.785 68.9027 162.802 68.8986 162.821 68.894C162.926 68.8685 163.105 68.8257 163.283 68.8257C163.697 68.8257 164.11 68.8254 164.524 68.8251C166.588 68.8237 168.649 68.8223 170.715 68.8558C171.439 68.8657 172.183 68.9961 172.886 69.1865C177.275 70.3489 177.938 74.3272 176.33 77.3835C175.698 78.586 174.724 79.4178 173.489 79.9589C173.249 80.0619 173.018 80.1586 172.718 80.2839L172.716 80.2846L172.713 80.2858L172.712 80.2862L172.464 80.3898L173.045 81.2282C174.142 82.812 175.204 84.3453 176.281 85.8712C176.532 86.2243 176.775 86.5831 177.022 86.9433C177.994 88.3714 178.979 89.8194 180.44 91.0119C179.144 91.1421 178.018 91.1522 176.914 90.9117C176.181 90.7514 175.719 90.2002 175.316 89.609C174.633 88.6019 173.95 87.5924 173.268 86.5827C172.585 85.573 171.902 84.5635 171.218 83.5564C170.969 83.1841 170.717 82.8133 170.465 82.4427V82.4419L170.464 82.44V82.4396L170.462 82.4386L170.461 82.4368C170.058 81.8421 169.655 81.2481 169.26 80.6503C169.157 80.4962 169.06 80.3354 168.955 80.1609V80.1602V80.16C168.875 80.0284 168.792 79.889 168.696 79.7385C168.86 79.695 169.014 79.6569 169.162 79.6201C169.425 79.5551 169.669 79.4946 169.912 79.4178C171.549 78.9066 172.895 78.065 173.489 76.3413C174.402 73.6859 173.027 71.371 170.263 70.9301C169.028 70.7497 167.792 70.7497 166.467 70.8499C166.455 70.9684 166.442 71.0825 166.428 71.1938V71.1942V71.1946V71.1949ZM203.782 68.8758H200.638C201.067 70.1026 201.047 71.3219 201.027 72.5205C201.025 72.7024 201.022 72.8837 201.02 73.0645C201.03 76.1709 201.03 79.2775 201.02 82.3839C201.02 83.0454 200.991 83.7167 200.91 84.3782C200.599 87.0637 199.071 88.8173 196.581 89.1981C195.607 89.3384 194.571 89.3083 193.588 89.168C191.579 88.8875 190.343 87.665 189.932 85.6908C189.761 84.8491 189.66 83.9772 189.67 83.1155C189.694 81.5319 189.674 79.9482 189.656 78.3654V78.365C189.617 75.2003 189.579 72.0386 189.881 68.8859H185.873C186.309 70.077 186.298 71.238 186.288 72.3949V72.3952V72.3955V72.3958V72.3961C186.287 72.5722 186.286 72.7481 186.286 72.9243C186.29 74.4239 186.287 75.9219 186.284 77.419V77.4201V77.4211V77.4222V77.4234V77.4243V77.4255C186.281 79.6677 186.277 81.9076 186.295 84.1476C186.325 88.3563 188.425 90.8416 192.583 91.513C194.28 91.7935 195.987 91.6834 197.665 91.2825C200.669 90.561 202.527 88.7272 203.08 85.6707C203.27 84.6286 203.371 83.5564 203.391 82.4942C203.414 80.8351 203.41 79.176 203.407 77.5167V77.5128C203.405 76.2671 203.402 75.0216 203.412 73.776C203.413 73.4271 203.406 73.0777 203.398 72.728V72.7269V72.7257V72.7246V72.7236V72.7225V72.7214C203.37 71.4458 203.342 70.1638 203.782 68.8758ZM151.983 77.7844V80.7405C150.303 80.3284 148.636 80.3597 146.947 80.3913C146.253 80.4042 145.555 80.4173 144.851 80.3998V88.657C144.927 88.6741 145.001 88.6969 145.077 88.7196C145.221 88.7637 145.365 88.8073 145.505 88.8073C145.989 88.8095 146.473 88.8138 146.957 88.818C148.65 88.8327 150.339 88.8474 152.033 88.7773C152.691 88.7501 153.349 88.5905 154.031 88.4251C154.36 88.3454 154.693 88.2643 155.036 88.196C155.021 88.3464 155.005 88.4993 154.99 88.6541C154.927 89.3048 154.858 89.9914 154.745 90.6712C154.716 90.8315 154.454 91.0019 154.262 91.072C154.138 91.1235 153.985 91.1157 153.834 91.1078H153.833L153.782 91.1052L153.74 91.1035L153.71 91.1025C153.696 91.1022 153.683 91.1021 153.671 91.1021H142.029C141.846 91.1021 141.664 91.0824 141.458 91.0602C141.337 91.0471 141.207 91.0331 141.064 91.0219C141.523 89.5246 141.488 88.0394 141.454 86.5707V86.5705V86.5704V86.5702V86.5701C141.444 86.142 141.433 85.7151 141.436 85.29C141.467 80.8508 141.456 76.4115 141.436 71.9723C141.429 71.2664 141.356 70.5656 141.282 69.8554C141.251 69.5674 141.221 69.278 141.195 68.986C141.787 68.8057 153.007 68.7656 154.223 68.986V71.2408C153.802 71.2244 153.382 71.2058 152.963 71.1873C151.835 71.1375 150.706 71.0876 149.572 71.0804C149.236 71.0783 148.902 71.0734 148.566 71.0685C147.334 71.0504 146.095 71.0323 144.832 71.1505V77.9047C145.876 78.1952 149.502 78.1351 151.983 77.7844ZM118.233 68.8758H113.592C114.717 70.0283 115.27 71.2808 115.772 72.5534C117.369 76.789 118.955 81.0296 120.542 85.2716L120.543 85.275L120.545 85.2789L120.549 85.2901L120.553 85.3013L120.557 85.3125C121.222 87.0885 121.887 88.8648 122.553 90.6411C122.641 90.8908 122.742 91.1361 122.848 91.392V91.3923C122.9 91.5162 122.951 91.6428 123.005 91.7735C124.762 91.2324 126.189 90.4708 126.872 88.6771C128.379 84.7311 129.905 80.7969 131.432 76.8621L131.436 76.8515L131.44 76.8431L131.443 76.8341C132.375 74.433 133.307 72.0316 134.234 69.6273C134.293 69.4781 134.321 69.3203 134.352 69.1596V69.1594C134.367 69.0722 134.384 68.984 134.405 68.8958H131.653C131.509 69.3538 131.377 69.8013 131.247 70.2402V70.2414L131.246 70.242V70.2425V70.2428V70.243C130.995 71.0902 130.755 71.9056 130.458 72.7038C129.182 76.0937 127.884 79.4777 126.585 82.8648L126.581 82.8754L126.575 82.8882L126.565 82.9131C126.163 83.9656 125.758 85.0184 125.355 86.0716C125.274 86.2732 125.18 86.4657 125.081 86.6673L125.08 86.6686C125.032 86.7673 124.983 86.8683 124.933 86.9736C124.878 86.9272 124.832 86.895 124.796 86.8695C124.745 86.8344 124.713 86.8121 124.702 86.7832C124.551 86.4524 124.401 86.1117 124.281 85.771C123.577 83.7832 122.83 81.8116 122.081 79.8376V79.8373C120.714 76.2292 119.343 72.6132 118.233 68.8758ZM99.5094 71.6315C99.0939 72.7155 98.6811 73.7759 98.2739 74.8214V74.8218C97.4134 77.033 96.5781 79.1782 95.7932 81.3418C95.4616 82.2513 95.0992 83.1511 94.7382 84.0522V84.0524L94.7368 84.0559V84.0569V84.057H94.7354V84.0571C93.8315 86.3115 92.922 88.5747 92.4491 91.0219H88.8126C90.0509 89.4696 90.7169 87.7017 91.3759 85.9488V85.9485C91.5942 85.3706 91.8097 84.7942 92.0476 84.2278C93.7546 80.1298 95.3916 76.0118 97.0287 71.8937V71.8921C97.2833 71.2582 97.4834 70.6018 97.6905 69.9264V69.9261V69.925L97.6919 69.9201L97.6933 69.9185C97.7954 69.5822 97.9004 69.2412 98.0137 68.8958H101.75C101.794 68.9898 101.842 69.0871 101.892 69.1875V69.1877C101.99 69.3869 102.095 69.5979 102.182 69.8177L103.763 73.6692V73.6718C105.578 78.0921 107.392 82.5158 109.213 86.9334C109.255 87.0336 109.295 87.134 109.337 87.2344C109.866 88.5184 110.394 89.8021 111.363 90.8616C110.58 91.1421 107.888 91.1823 106.933 90.9618C105.704 86.9557 104.146 83.0879 102.592 79.2237C101.708 77.0275 100.825 74.8324 100.002 72.6136C99.9474 72.4347 99.8536 72.2652 99.7193 72.0209C99.6591 71.9093 99.5892 71.7823 99.5094 71.6315ZM78.5061 89.5561V89.5568V89.5574C78.4813 90.0336 78.4563 90.5145 78.4365 91.0019C79.5716 91.1823 81.6207 91.1421 82.2033 90.9418C82.1822 90.5932 82.1576 90.2482 82.1331 89.9058L82.1329 89.9055V89.9053C82.0757 89.1059 82.0194 88.3203 82.0124 87.5347C81.9824 84.4382 81.9521 81.3318 82.0124 78.2253C82.0274 77.3031 82.0087 76.3793 81.9899 75.4551C81.9456 73.2661 81.9012 71.0762 82.3038 68.9059H78.2055C78.6414 70.0888 78.6309 71.2565 78.6205 72.4091C78.619 72.5845 78.6173 72.7595 78.6173 72.9342C78.6173 74.0763 78.618 75.219 78.6186 76.362C78.6205 79.7923 78.6224 83.2254 78.6074 86.6528C78.6074 87.6108 78.5573 88.5735 78.5061 89.5558V89.556V89.5561ZM15.1758 75.2591C17.8377 75.2591 19.9872 77.3836 19.9872 80.009C19.9872 82.6244 17.8277 84.7589 15.1758 84.7589C12.5041 84.7589 10.3947 82.6646 10.4048 79.999C10.3947 77.3335 12.494 75.2591 15.1758 75.2591ZM64.8965 70.7096C67.7191 72.4032 69.2759 74.9184 69.6677 78.1852C69.8685 79.8287 69.7882 81.4521 69.3262 83.0553C68.0806 87.1939 65.1476 89.5389 61.0896 90.601C59.9043 90.9117 58.6488 91.052 57.4233 91.0922C55.8551 91.1482 54.2818 91.1356 52.7106 91.123C52.0377 91.1175 51.3651 91.1122 50.6935 91.1122C50.5477 91.1122 50.4019 91.0922 50.2206 91.0674C50.1148 91.0528 49.9968 91.0367 49.8599 91.0219C50.2778 89.7443 50.2705 88.5217 50.2634 87.3122C50.2625 87.1557 50.2616 86.9995 50.2616 86.8432V72.6136C50.2616 72.5255 50.2617 72.4375 50.262 72.3494C50.2646 71.205 50.2673 70.0605 49.8196 68.9159C49.9062 68.9059 49.9851 68.8949 50.0588 68.8845C50.2074 68.8636 50.3349 68.8457 50.4625 68.8457C51.1226 68.8457 51.7833 68.8432 52.4444 68.8407C54.4288 68.8333 56.416 68.8257 58.3977 68.8859C60.6978 68.956 62.8976 69.5171 64.8965 70.7096ZM61.9635 87.4144C64.0326 86.2419 65.3686 84.5084 65.7603 82.1635C65.9512 81.0311 66.0115 79.8287 65.8909 78.6863C65.5394 75.1088 63.7615 72.3731 59.6632 71.4312C57.7648 70.9902 55.8162 71.0804 53.8776 71.2006C53.8443 71.2006 53.811 71.2314 53.7602 71.2785C53.7343 71.3024 53.704 71.3305 53.6666 71.3611V88.7371C56.6197 88.9176 59.4022 88.8574 61.9635 87.4144Z" fill="white"/>
</svg>
