<svg width="240" height="160" viewBox="0 0 240 160" fill="none" xmlns="http://www.w3.org/2000/svg">
<path d="M22.0603 74.0454L18.5576 81.7012L29.3917 88.3038H17.2949C15.6249 88.3038 15.1362 89.2355 14.3216 90.9773L12 96.0002H39.7371C40.7146 96.0002 41.6514 95.433 41.9774 94.7039L45.0321 88.0607L22.0603 74.0454Z" fill="white"/>
<path d="M45.9691 85.9546L49.4719 78.2989L38.6784 71.6963H50.816C52.4859 71.6963 52.9747 70.7646 53.7893 69.0229L56.0702 64H28.333C27.3555 64 26.4187 64.5671 26.0928 65.2962L23.0381 71.9393L45.9691 85.9546Z" fill="white" fill-opacity="0.64"/>
<path d="M151.5 80.1623H147.997V74.2482H151.582C153.088 74.2482 154.148 74.4508 154.718 74.8559C155.288 75.2609 155.614 75.99 155.614 77.0837C155.614 78.1774 155.328 78.9471 154.758 79.4331C154.188 79.9192 153.088 80.1623 151.5 80.1623ZM154.88 82.2686C157.284 81.5395 158.464 79.8382 158.464 77.1243C158.464 75.2609 157.936 73.8837 156.836 73.0331C155.736 72.1824 153.902 71.7368 151.378 71.7368H145.187V88.3041H147.997V82.7142H151.704L155.696 88.2636H159.28L154.88 82.2686Z" fill="white"/>
<path d="M67.2308 73.8834C66.4162 73.8834 65.7238 74.0454 65.235 74.3694C64.7055 74.6935 64.4611 75.2201 64.4611 75.8683C64.4611 76.5569 64.7055 77.0429 65.235 77.4075C65.7645 77.772 66.8642 78.1366 68.5749 78.5417C70.2855 78.9467 71.5481 79.5138 72.4443 80.2835C73.2996 81.0126 73.7476 82.1063 73.7476 83.5645C73.7476 85.0227 73.2181 86.1975 72.1184 87.0887C71.0187 87.9798 69.5931 88.4253 67.801 88.4253C65.1943 88.4253 62.8727 87.5342 60.877 85.7519L62.6283 83.6455C64.2983 85.1038 66.0496 85.8329 67.8824 85.8329C68.7786 85.8329 69.5117 85.6304 70.0411 85.2658C70.5707 84.8607 70.8557 84.3747 70.8557 83.7266C70.8557 83.0784 70.6114 82.5924 70.1226 82.2278C69.6339 81.8632 68.7786 81.5392 67.5566 81.2556C66.3348 80.9721 65.3979 80.6886 64.787 80.4455C64.1353 80.2024 63.6059 79.8784 63.0763 79.4734C62.0988 78.7443 61.6101 77.61 61.6101 76.0708C61.6101 74.5315 62.1803 73.3568 63.2799 72.5466C64.3797 71.7365 65.7645 71.291 67.4344 71.291C68.4934 71.291 69.5524 71.453 70.6114 71.8176C71.6703 72.1822 72.5665 72.6682 73.3403 73.2757L71.8333 75.3822C71.3445 74.9366 70.6929 74.572 69.8375 74.2885C68.86 74.0454 68.0454 73.8834 67.2308 73.8834Z" fill="white"/>
<path d="M80.7119 71.7368H83.5223V88.2636H80.7119V71.7368Z" fill="white"/>
<path d="M91.4639 88.2636V71.7368H94.2742V85.6307H101.891L100.709 88.2636H91.4639Z" fill="white"/>
<path d="M113.907 88.2636H110.73L104.05 71.7368H107.186L112.318 84.0914L117.45 71.7368H120.587L113.907 88.2636Z" fill="white"/>
<path d="M137.653 71.7368V74.3293H128.773V78.7445H136.716V81.2154H128.773V85.6307H137.937V88.2636H125.963V71.7368H137.653Z" fill="white"/>
<path d="M217.32 88.2636V71.7368H220.13V85.6307H227.706L226.566 88.2636H217.32Z" fill="white"/>
<path d="M195.611 81.9445H189.583L192.597 75.1393L195.611 81.9445ZM201.435 88.2635L194.104 71.6963H191.089L183.759 88.2635H186.773L188.443 84.4964H196.792L198.462 88.2635H201.435Z" fill="white"/>
<path d="M207.057 71.7368H209.867V88.2636H207.057V71.7368Z" fill="white"/>
<path d="M172.07 80.1623H168.567V74.2482H172.151C173.659 74.2482 174.717 74.4508 175.287 74.8559C175.857 75.2609 176.183 75.99 176.183 77.0837C176.183 78.1774 175.899 78.9471 175.329 79.4331C174.717 79.9192 173.659 80.1623 172.07 80.1623ZM175.451 82.2686C177.853 81.5395 179.035 79.8382 179.035 77.1243C179.035 75.2609 178.505 73.8837 177.405 73.0331C176.306 72.1824 174.473 71.7368 171.947 71.7368H165.757V88.3041H168.567V82.7142H172.273L176.265 88.2636H179.849L175.451 82.2686Z" fill="white"/>
</svg>
