<svg width="241" height="161" viewBox="0 0 241 161" fill="none" xmlns="http://www.w3.org/2000/svg">
<path d="M94.9141 68.2276L88.9807 72.6215C86.174 70.2222 82.5674 69.7597 80.5751 69.7597C78.5537 69.7597 76.4596 70.3379 76.1396 71.7688C75.8196 73.1563 77.1285 74.2403 79.3681 74.8473C81.9276 75.5266 84.2398 76.1337 87.8318 77.1455C93.1544 78.663 96.8046 80.9467 96.8046 86.2511C96.8046 93.5645 90.2749 97.366 81.5058 97.366C72.7512 97.366 66.7742 92.8274 65 90.7173L71.2679 86.0632C75.6743 89.8789 78.7282 90.4137 81.2877 90.4137C84.2252 90.4137 86.9738 89.7922 87.3229 88.1445C87.6137 86.8148 86.5085 85.7597 84.0071 85.1816C81.1714 84.5312 78.7863 84.0108 76.1251 83.317C68.8974 81.4381 66.8615 77.2611 66.8615 73.5176C66.8615 68.3577 71.7041 63.0533 80.546 63.0533C89.606 63.0678 94.9141 68.2276 94.9141 68.2276ZM132.71 63.5881H106.272V96.4123H133.19V88.8383H115.565V83.5483H127.708V76.3071H115.565V71.075H132.71V63.5881ZM99.4368 104H101.487V56H99.4368V104ZM136.666 104H138.717V56H136.666V104ZM143.486 96.4123H164.719C170.39 96.4123 175 93.0153 175 87.5664C175 83.317 172.208 80.4986 168.281 79.2556C168.281 79.2556 168.122 79.2123 167.903 79.2123C168.122 79.1978 168.281 79.14 168.281 79.14C170.521 78.2583 173.022 75.9025 173.022 71.8988C173.022 66.8112 168.499 63.5736 162.915 63.5736H143.486V96.4123ZM152.822 70.4102H160.24C161.941 70.4102 163.322 71.7542 163.322 73.2864C163.322 74.8329 161.941 76.1771 160.24 76.1771H152.822V70.4102ZM161.883 89.1274H152.808V83.1436H161.883C163.482 83.1436 164.791 84.43 164.791 86.1355C164.791 87.8265 163.497 89.1274 161.883 89.1274Z" fill="white"/>
</svg>
