<svg width="241" height="161" viewBox="0 0 241 161" fill="none" xmlns="http://www.w3.org/2000/svg">
<path d="M70.6608 79.2345C70.6608 85.643 65.4795 90.8243 59.071 90.8243C52.6624 90.8243 47.4811 85.643 47.4811 79.2345C47.4811 72.8259 52.6624 67.6445 59.071 67.6445C65.4795 67.6445 70.6608 72.8259 70.6608 79.2345ZM80.669 96.3057C80.669 96.3057 81.4326 95.433 80.56 94.6694L75.7331 90.4699C77.9147 87.252 79.1692 83.4068 79.1692 79.2345C79.1692 68.1354 70.1699 59.1635 59.0982 59.1635C47.9992 59.1635 39 68.1354 39 79.2345C39 90.3335 47.9992 99.3054 59.071 99.3054C63.1342 99.3054 66.8976 98.0782 70.0609 96.0329L75.3514 100.642C75.3514 100.642 76.224 101.405 76.9875 100.533L80.669 96.3057ZM94.1951 97.9146V60.527C94.1951 59.1635 92.8316 59.1635 92.8316 59.1635H86.8048C85.4413 59.1635 85.4413 60.527 85.4413 60.527V97.9146C85.4413 99.2781 86.8048 99.2781 86.8048 99.2781H92.8316C94.1951 99.3054 94.1951 97.9146 94.1951 97.9146ZM108.975 64.3176V60.4452C108.975 60.4452 108.975 59.1362 107.666 59.1362H101.885C101.885 59.1362 100.576 59.1362 100.576 60.4452V64.3176C100.576 64.3176 100.576 65.6265 101.885 65.6265H107.666C107.666 65.6538 108.975 65.6538 108.975 64.3176ZM109.221 97.9146V70.917C109.221 69.5535 107.858 69.5535 107.858 69.5535H101.967C100.604 69.5535 100.604 70.917 100.604 70.917V97.9146C100.604 99.2781 101.967 99.2781 101.967 99.2781H107.858C109.221 99.3054 109.221 97.9146 109.221 97.9146ZM134.528 81.3615C133.819 80.1888 134.773 79.2072 134.773 79.2072L143.091 70.5898C144.045 69.608 142.682 69.608 142.682 69.608H134.91C133.546 69.608 132.592 70.5898 132.592 70.5898L124.874 78.7709C123.947 79.7525 123.947 78.389 123.947 78.389V60.4997C123.947 59.1362 122.583 59.1362 122.583 59.1362H116.694C115.385 59.1362 115.385 60.4452 115.385 60.4452V97.8873C115.385 99.2509 116.748 99.2509 116.748 99.2509H122.583C123.892 99.2509 123.892 97.9419 123.892 97.9419V91.3698C123.892 90.0063 124.901 89.0791 124.901 89.0791L127.656 86.4884L134.583 98.1055C135.292 99.2781 136.655 99.2781 136.655 99.2781H143.991C145.354 99.2781 144.645 98.1055 144.645 98.1055L134.528 81.3615Z" fill="white"/>
<path d="M189.722 79.0434C189.722 86.87 183.396 93.1967 175.57 93.1967C167.743 93.1967 161.416 86.8428 161.416 79.0434C161.416 71.2168 167.743 64.8901 175.57 64.8901C183.368 64.8628 189.722 71.2168 189.722 79.0434ZM201.503 96.7419L195.04 91.3423C197.276 87.7972 198.585 83.5703 198.585 79.0434C198.585 66.3082 188.277 56 175.542 56C162.807 56 152.498 66.3082 152.498 79.0434C152.498 91.7786 162.807 102.087 175.542 102.087C180.477 102.087 185.059 100.533 188.796 97.8873L195.667 103.669C195.667 103.669 196.703 104.514 197.549 103.505L201.639 98.6235C201.667 98.6235 202.512 97.5873 201.503 96.7419Z" fill="white" fill-opacity="0.8"/>
<path d="M166.462 79.0434C166.462 74.0257 170.525 69.9624 175.542 69.9624C180.56 69.9624 184.624 74.0257 184.624 79.0434C184.624 84.0611 180.56 88.1244 175.542 88.1244C170.552 88.0971 166.462 84.0339 166.462 79.0434Z" fill="white"/>
<path d="M199.54 62.6538H200.222C200.631 62.6538 200.903 62.572 200.903 62.1084C200.903 61.6993 200.604 61.563 200.222 61.563H199.54V62.6538ZM199.54 64.3173H199.213V61.2357H200.331C200.849 61.2357 201.259 61.5084 201.259 62.0811C201.259 62.572 200.986 62.8992 200.522 62.9265L201.368 64.29H200.959L200.14 62.9265H199.513V64.3173H199.54ZM200.113 60.6085C198.913 60.6085 198.013 61.563 198.013 62.7901C198.013 64.0173 198.913 64.9718 200.113 64.9718C201.313 64.9718 202.212 64.0173 202.212 62.7901C202.212 61.5903 201.313 60.6085 200.113 60.6085ZM197.604 62.7901C197.604 61.3993 198.749 60.2812 200.113 60.2812C201.503 60.2812 202.622 61.4266 202.622 62.7901C202.622 64.1536 201.503 65.299 200.113 65.299C198.749 65.299 197.604 64.1536 197.604 62.7901Z" fill="white"/>
</svg>
