<svg width="241" height="161" viewBox="0 0 241 161" fill="none" xmlns="http://www.w3.org/2000/svg">
<path d="M46.5003 80.3833L47.1912 79.8466C47.1912 79.8466 46.8841 79.7699 46.5771 79.6166C46.5771 79.6166 46.27 79.5399 46.27 79.6166C46.1932 79.7699 46.27 80.1533 46.5003 80.3833Z" fill="white"/>
<path fill-rule="evenodd" clip-rule="evenodd" d="M28 57H74.0581V103H28V57ZM53.6388 65.9699C51.95 64.8199 50.1077 64.0533 48.1118 63.7466C48.0644 63.7466 48.0463 63.7758 48.0213 63.8163C48.0058 63.8413 47.9877 63.8706 47.9583 63.8999C48.0351 64.6666 48.1118 65.3566 48.1886 66.0466C47.9349 66.1099 47.6813 66.0163 47.471 65.9386C47.4267 65.9223 47.3843 65.9066 47.3442 65.8933C47.2674 65.8166 47.1139 65.8166 46.9604 65.8166C46.8069 65.8166 46.8069 65.9699 46.8069 66.1233C46.8836 66.9666 47.8048 67.6566 48.5724 67.8099C48.4957 67.8866 48.1886 67.8866 47.8048 67.7333C47.2284 67.4454 46.6519 68.0357 46.4564 68.236L46.4561 68.2363C46.4434 68.2492 46.4324 68.2605 46.423 68.2699C45.7394 68.8161 45.2722 69.4704 44.7966 70.1366C44.4712 70.5924 44.1418 71.0538 43.7363 71.4899L43.3525 71.8733L43.3519 71.8739L43.3519 71.8739C43.1986 72.027 43.0453 72.1801 42.9687 72.3333C42.8997 72.412 42.8295 72.4908 42.7589 72.5698C42.2799 73.1066 41.7876 73.6583 41.5869 74.3266V74.8633C41.6637 75.2466 41.9708 75.5533 42.2778 75.8599C42.3432 75.9253 42.4226 75.9071 42.504 75.8884C42.6137 75.8633 42.7271 75.8373 42.8152 76.0133C42.8152 76.0133 42.9687 76.1666 43.2757 76.0133C43.4855 75.9085 43.6912 75.7959 43.8966 75.6834L43.8967 75.6833C44.5934 75.3018 45.286 74.9224 46.116 74.8633C47.5745 74.9399 48.9562 74.3266 49.5703 72.9466H49.6471C49.5703 73.7899 48.8027 74.4033 48.0351 74.7866C47.4977 75.0166 47.421 75.3999 47.421 75.3999C47.2867 75.7083 47.1619 76.0027 47.041 76.2875C46.4711 77.6309 45.9914 78.7616 45.0413 80.1533C44.7342 80.6899 44.811 81.3033 45.0413 81.8399C45.1115 82.0152 45.1778 82.1906 45.2436 82.365C45.4658 82.9532 45.6839 83.5311 46.0392 84.0633H51.9729C51.8617 84.2152 51.7965 84.2933 51.7965 84.2933H52.2571L52.4413 84.0633H52.9481L53.3318 84.2166L53.4085 84.1399L53.3222 84.0633H54.4064C55.5579 82.2999 56.4023 80.3833 57.0164 78.3133C58.3214 74.0199 57.6305 68.8066 53.6388 65.9699ZM53.3222 84.0633H52.9481L52.5641 83.9099L52.4413 84.0633H51.9729C52.5757 83.24 54.531 80.2493 54.7903 75.7833C54.7903 75.7833 55.3276 71.0299 51.7197 68.1933C51.7197 68.1933 50.9521 67.5799 50.4915 67.3499C50.4915 67.3499 50.2612 67.2733 50.1077 67.0433C49.9542 66.8133 49.3401 66.3533 48.3421 66.3533L48.8795 64.5133L49.1098 64.5899L49.033 66.1233C49.033 66.1233 49.4936 66.1999 49.6471 66.2766L50.2612 64.8966L50.4915 64.9733L50.1077 66.4299L50.645 66.7366L51.4894 65.3566L51.7197 65.4333L51.1056 66.9666L51.5662 67.2733L52.7176 65.9699L52.8712 66.1233L52.0268 67.7333L52.4874 68.1933L53.9459 66.9666L54.0994 67.1199L52.8712 68.6533L53.255 69.1133L54.867 67.7333L55.0206 67.8866L53.562 69.2666C53.562 69.2666 53.8691 69.6499 54.0226 69.8799L55.865 69.1133L55.9417 69.2666L54.2529 70.3399C54.2529 70.3399 54.4832 70.7233 54.6367 71.0299L56.5558 70.5699L56.6326 70.7233L54.867 71.4899C54.867 71.4899 55.0973 72.0266 55.1741 72.3333L57.0164 72.1033V72.3333L55.3276 72.8699C55.3276 72.8699 55.4044 73.0233 55.4811 73.6366L57.1699 73.5599V73.7899L55.4811 74.1733V74.9399L57.1699 75.0933L57.0932 75.2466L55.4044 75.4766C55.4044 75.4766 55.4044 76.0133 55.3276 76.1666L57.0164 76.3966V76.6266L55.3276 76.7033L55.2508 77.3933L56.7861 77.9299V78.0833L55.0973 78.0066L54.867 78.6966L56.4023 79.1566L56.3255 79.3099L54.7135 79.2333L54.56 79.6933L55.9417 80.3833L55.865 80.5366L54.4064 80.2299C54.4064 80.2299 54.3297 80.6133 54.2529 80.7666L55.4044 81.4566L55.3276 81.6099L54.0226 81.2266C54.0226 81.2266 53.8691 81.6099 53.7923 81.6866L54.867 82.4533L54.7903 82.6066L53.6388 82.1466L53.3318 82.6066L54.1762 83.3733L54.0994 83.4499L53.0247 83.0666L52.7176 83.5266L53.3222 84.0633ZM47.1139 70.5699C47.1139 70.5699 46.8836 71.1066 46.2695 70.9533C45.6554 70.7999 46.0392 70.1099 46.0392 70.1099C46.0392 70.1099 46.423 70.1099 47.1139 70.4166H47.2674C47.2674 70.4166 47.0371 69.8033 46.0392 69.8799C46.0392 69.8799 45.7322 69.6499 45.8857 69.2666C45.8857 69.2666 46.6533 69.4966 46.8836 69.6499C47.1139 69.7266 47.5745 70.0333 47.728 70.5699H47.1139ZM48.0351 83.8333C47.9583 83.9866 47.4977 83.8333 47.2674 83.6799C47.2234 83.6505 47.1737 83.6212 47.1194 83.5892C46.8903 83.4539 46.5799 83.2706 46.2695 82.8366C45.9751 82.4248 45.8613 82.1034 45.755 81.803C45.7227 81.7118 45.6912 81.6225 45.6554 81.5333V81.3799C45.7322 81.3799 45.7322 81.3799 45.7322 81.4566C45.7322 81.5333 46.116 82.1466 46.5766 82.4533C46.5766 82.4533 47.0371 82.9133 47.4977 83.2199C47.9583 83.6033 48.1118 83.7566 48.0351 83.8333ZM54.7142 85.0601C54.7142 84.7534 54.4839 84.6001 54.1768 84.6001H46.347C46.0399 84.6001 45.8096 84.7534 45.8096 85.0601C45.8096 85.3667 46.0399 85.5201 46.347 85.5201H54.1001C54.4071 85.5201 54.7142 85.3667 54.7142 85.0601ZM52.9483 87.2832H51.7969V89.1999H52.9483V87.2832ZM53.3316 94.95C53.2549 94.4134 52.7943 93.7234 52.0267 93.0334C51.3358 92.42 51.3358 91.27 51.3358 90.9634H47.4209C47.3675 91.03 47.3165 91.1012 47.2621 91.177C47.0036 91.5378 46.6701 92.0033 45.6553 92.5734C44.0433 93.4167 43.5059 93.7234 43.1221 94.95H53.3316ZM59.2432 95.2567V94.95H59.5503C59.627 94.95 59.7038 95.0267 59.7038 95.1033C59.7038 95.18 59.627 95.2567 59.4735 95.2567H59.2432ZM59.0897 95.87H59.2432V95.41H59.32C59.4378 95.41 59.4652 95.4551 59.541 95.5801L59.5411 95.5803C59.564 95.6181 59.5914 95.6633 59.6271 95.7167L59.7038 95.87H59.9341L59.7806 95.64C59.7038 95.4867 59.627 95.41 59.5503 95.41C59.7038 95.41 59.8573 95.2567 59.8573 95.1033C59.8573 95.0267 59.7806 94.7967 59.4735 94.7967H59.0129L59.0897 95.87ZM60.3179 95.3333C60.3179 95.7933 59.9341 96.1767 59.4735 96.1767C59.0897 96.1 58.7059 95.7933 58.7059 95.3333C58.7059 94.8733 59.0897 94.49 59.5503 94.49C60.0109 94.49 60.3179 94.8733 60.3179 95.3333ZM60.4714 95.3333C60.4714 94.7967 60.0109 94.3367 59.4735 94.3367C58.9362 94.3367 58.4756 94.7967 58.4756 95.3333C58.4756 95.87 58.9362 96.33 59.4735 96.33C60.0876 96.2533 60.4714 95.87 60.4714 95.3333ZM54.3301 94.95C54.0998 94.4134 53.716 93.8767 52.6413 93.0334C51.7969 92.3434 51.7969 91.1934 51.7969 90.9634H53.1019L53.1214 90.9895C53.354 91.2999 53.748 91.8259 54.8674 92.4967L55.005 92.5791C56.4443 93.4407 57.1029 93.8349 57.4006 94.95H54.3301ZM47.498 87.2832H51.2594V89.1999H47.498V87.2832ZM47.3439 85.98H53.1779C53.485 85.98 53.7153 86.1333 53.7153 86.44C53.7153 86.67 53.485 86.9 53.1779 86.9H47.3439C47.0368 86.9 46.8066 86.67 46.8066 86.44C46.8066 86.21 47.0368 85.98 47.3439 85.98ZM53.1779 89.5835H47.3439C47.0368 89.5835 46.8066 89.8135 46.8066 90.0435C46.8066 90.2735 47.0368 90.5035 47.3439 90.5035H53.1779C53.485 90.5035 53.7153 90.2735 53.7153 90.0435C53.7153 89.8135 53.485 89.5835 53.1779 89.5835ZM57.4773 95.3335C57.7843 95.3335 58.0146 95.5635 58.0146 95.7935C58.0146 96.1001 57.7843 96.2535 57.4773 96.2535H42.969C42.6619 96.2535 42.4316 96.0235 42.4316 95.7935C42.4316 95.5635 42.6619 95.3335 42.969 95.3335H57.4773Z" fill="white" fill-opacity="0.64"/>
<path fill-rule="evenodd" clip-rule="evenodd" d="M74 57H213V103H74V57ZM108.678 83.9865C106.145 83.9865 104.533 82.0699 104.533 79.9999C104.533 77.8532 106.222 76.0132 108.678 76.0132C111.212 76.0132 112.824 77.8532 112.824 79.9999C112.824 82.1465 111.288 83.9865 108.678 83.9865ZM108.678 77.0865C106.99 77.0865 105.685 78.3132 105.685 79.9999C105.685 81.6865 106.99 82.9132 108.678 82.9132C110.367 82.9132 111.672 81.6865 111.672 79.9999C111.672 78.3132 110.367 77.0865 108.678 77.0865ZM97.0869 83.91V76.2434H98.1616V82.9901H101.693V83.91H97.0869ZM116.508 76.2432V83.9099H117.583V80.5365H118.044C118.581 80.5365 119.041 80.6899 120.116 82.2999L121.114 83.9099H122.419C122.224 83.6311 122.079 83.4232 121.955 83.2458L121.954 83.2438L121.954 83.2438C121.739 82.9344 121.588 82.7173 121.344 82.3765C121.216 82.1845 121.098 81.9993 120.985 81.822L120.985 81.822C120.556 81.1499 120.202 80.5939 119.656 80.2299C120.5 79.9232 120.961 79.2332 120.961 78.3132C120.961 77.0099 119.963 76.1665 118.427 76.1665H116.508V76.2432ZM117.583 77.1632H118.274C119.349 77.1632 119.809 77.6232 119.809 78.3132C119.809 78.9265 119.502 79.5399 118.274 79.5399H117.583V77.1632ZM128.56 83.9867H125.566V76.3201H128.56C131.4 76.3201 132.629 78.3134 132.629 80.1534C132.629 82.1467 131.093 83.9867 128.56 83.9867ZM128.33 77.2401H126.641V82.9134H128.407C130.863 82.9134 131.477 80.9967 131.477 80.0767C131.477 78.5434 130.479 77.2401 128.33 77.2401ZM142.224 77.9301L143.452 80.6901H141.073L142.224 77.9301ZM141.84 76.2434L138.539 83.9867H139.691L140.689 81.6867H143.99L144.988 83.9867H146.139L142.685 76.2434H141.84ZM151.589 80.5367H150.284V82.9901H151.666C152.894 82.9901 153.278 82.3767 153.278 81.7634C153.278 80.9967 152.741 80.5367 151.589 80.5367ZM151.82 83.9867H149.21H149.133V76.3201H151.359C153.048 76.3201 153.739 77.3167 153.739 78.3134C153.739 79.0801 153.355 79.6167 152.587 79.9234C153.739 80.1534 154.429 80.8434 154.429 81.9167C154.429 82.9134 153.739 83.9867 151.82 83.9867ZM151.282 77.2401H150.284H150.207V79.5401H150.975C152.05 79.5401 152.587 79.1567 152.587 78.3134C152.587 77.7001 152.28 77.2401 151.282 77.2401ZM158.959 80.5367H160.263C161.415 80.5367 161.952 80.9967 161.952 81.7634C161.952 82.3767 161.568 82.9901 160.34 82.9901H158.959V80.5367ZM157.807 83.9867H160.417C162.336 83.9867 163.027 82.9134 163.027 81.9167C163.027 80.8434 162.336 80.1534 161.185 79.9234C161.952 79.6167 162.336 79.0801 162.336 78.3134C162.336 77.3167 161.645 76.3201 159.956 76.3201H157.73V83.9867H157.807ZM158.959 77.2401H159.956C160.954 77.2401 161.338 77.7001 161.338 78.3134C161.338 79.1567 160.801 79.5401 159.726 79.5401H158.959V77.2401ZM166.405 83.91V76.2434H170.78V77.2401H167.556V79.5401H170.703V80.5367H167.556V82.9901H170.934V83.91H166.405ZM173.697 76.2434V77.2401H176.384V83.91H177.459V77.2401H180.145V76.2434H173.697ZM182.755 77.2401V76.2434H189.203V77.2401H186.517V83.91H185.442V77.2401H182.755ZM190.739 77.0865V76.7799H191.046C191.122 76.7799 191.199 76.8565 191.199 76.9332C191.199 77.0099 191.122 77.0865 190.969 77.0865H190.739ZM190.585 77.6999H190.739V77.2399H190.815C190.933 77.2399 190.96 77.2852 191.036 77.4106C191.059 77.4483 191.086 77.4933 191.122 77.5465L191.199 77.6999H191.429L191.276 77.4699C191.199 77.3165 191.122 77.2399 191.046 77.2399C191.199 77.2399 191.353 77.0865 191.353 76.9332C191.353 76.8565 191.276 76.6265 190.969 76.6265H190.508V77.6999H190.585ZM191.813 77.1632C191.813 77.6232 191.429 78.0065 190.969 78.0065C190.585 77.9299 190.201 77.6232 190.201 77.1632C190.201 76.7032 190.585 76.3199 191.046 76.3199C191.506 76.3199 191.813 76.7032 191.813 77.1632ZM191.967 77.1632C191.967 76.6265 191.506 76.1665 190.969 76.1665C190.432 76.1665 189.971 76.6265 189.971 77.1632C189.971 77.6999 190.432 78.1599 190.969 78.1599C191.583 78.0832 191.967 77.6999 191.967 77.1632Z" fill="white"/>
</svg>
