<svg width="241" height="161" viewBox="0 0 241 161" fill="none" xmlns="http://www.w3.org/2000/svg">
<path d="M90.127 62.0801V66.4899H100.791V97.7593H105.281V66.4899H115.945V62.0801H90.127Z" fill="white"/>
<path d="M80.9066 77.5546H66.3943H65.1916L65.833 76.1916C65.833 76.1916 69.9221 66.5702 76.8977 66.5702H80.8264L80.9066 77.5546ZM76.9778 62.0802C67.1159 62.0802 62.1448 73.5457 61.7439 74.4277C61.7439 74.5079 53.1648 92.9489 51 97.6792H55.9711L63.1871 82.1248H80.9868C80.9868 87.9779 80.9868 94.0714 80.9868 97.6792H85.4768V62L76.9778 62.0802Z" fill="white"/>
<path d="M160.524 66.2494H164.453C171.508 66.2494 175.517 75.8708 175.517 75.8708L176.159 77.2338H174.956H160.444L160.524 66.2494ZM156.194 62.0801V97.7593H160.684V82.1247H178.484L185.7 97.6791H190.671C188.506 92.9488 179.927 74.4276 179.927 74.4276C179.526 73.4654 174.635 62.0801 164.693 62.0801H156.194Z" fill="white"/>
<path fill-rule="evenodd" clip-rule="evenodd" d="M133.905 62.0801C123.882 62.0801 115.784 70.0979 115.784 80.0401C115.784 89.9822 123.882 97.9998 133.905 97.9998C138.876 97.9998 143.847 95.7551 147.294 91.9867C147.615 91.5858 147.856 91.0245 147.856 90.4633C147.856 89.2606 146.813 88.2183 145.53 88.2183C144.889 88.2183 144.248 88.4588 143.847 88.9399C141.201 91.7461 137.513 93.4299 133.905 93.4299C126.448 93.4299 120.354 87.4165 120.354 80.0401C120.354 72.6636 126.448 66.6503 133.905 66.6503C137.513 66.6503 141.201 68.334 143.847 71.1403C144.248 71.6213 144.889 71.8619 145.53 71.8619C146.813 71.8619 147.856 70.8997 147.856 69.6169C147.856 69.0556 147.695 68.4944 147.294 68.0935C143.847 64.4053 138.876 62.0801 133.905 62.0801ZM127.651 76.7527H145.691C147.054 76.7527 148.176 77.8752 148.176 79.1581C148.176 80.5211 147.054 81.5635 145.691 81.5635H145.611H127.731H127.651C126.288 81.5635 125.165 80.5211 125.165 79.1581C125.165 77.7951 126.288 76.7527 127.651 76.7527Z" fill="white" fill-opacity="0.8"/>
</svg>
