<svg width="241" height="161" viewBox="0 0 241 161" fill="none" xmlns="http://www.w3.org/2000/svg">
<g clip-path="url(#clip0_21_39869)">
<path d="M64.3186 58C60.2999 58 56.3716 59.201 53.0302 61.4513C49.6888 63.7015 47.0845 66.8998 45.5467 70.6418C44.0088 74.3838 43.6064 78.5014 44.3904 82.4738C45.1744 86.4463 47.1096 90.0952 49.9512 92.9592C52.7928 95.8232 56.4132 97.7736 60.3546 98.5638C64.296 99.354 68.3814 98.9484 72.0941 97.3984C75.8068 95.8484 78.9801 93.2236 81.2128 89.8559C83.4454 86.4882 84.637 82.5289 84.637 78.4786C84.6309 73.0492 82.4883 67.844 78.6791 64.0048C74.87 60.1657 69.7055 58.0061 64.3186 58V58ZM64.3186 95.2025C61.0367 95.2025 57.8286 94.2217 55.0999 92.3841C52.3711 90.5464 50.2443 87.9345 48.9884 84.8786C47.7325 81.8227 47.4039 78.4601 48.0441 75.216C48.6843 71.9719 50.2647 68.9919 52.5853 66.653C54.9058 64.3141 57.8625 62.7213 61.0812 62.076C64.3 61.4307 67.6363 61.7619 70.6683 63.0277C73.7003 64.2935 76.2918 66.437 78.1151 69.1873C79.9384 71.9375 80.9115 75.1709 80.9115 78.4786C80.9066 82.9125 79.1568 87.1633 76.0461 90.2986C72.9354 93.4338 68.7178 95.1974 64.3186 95.2025V95.2025Z" fill="white" fill-opacity="0.64"/>
<path d="M64.3186 65.4341C61.7588 65.4341 59.2565 66.1991 57.1281 67.6325C54.9997 69.0658 53.3408 71.1031 52.3612 73.4867C51.3816 75.8702 51.1253 78.4931 51.6247 81.0235C52.1241 83.5539 53.3567 85.8782 55.1668 87.7025C56.9768 89.5268 59.283 90.7692 61.7936 91.2725C64.3042 91.7759 66.9065 91.5175 69.2715 90.5302C71.6364 89.5429 73.6577 87.8709 75.0799 85.7258C76.502 83.5806 77.2611 81.0585 77.2611 78.4786C77.2572 75.0202 75.8924 71.7045 73.466 69.259C71.0397 66.8136 67.75 65.438 64.3186 65.4341V65.4341ZM64.3186 87.7683C62.4956 87.7684 60.7135 87.2236 59.1978 86.2028C57.682 85.182 56.5006 83.7312 55.8029 82.0337C55.1053 80.3362 54.9228 78.4683 55.2784 76.6663C55.634 74.8642 56.5119 73.2089 57.8009 71.9097C59.0899 70.6105 60.7323 69.7257 62.5202 69.3672C64.3082 69.0088 66.1615 69.1927 67.8457 69.8959C69.5299 70.599 70.9695 71.7897 71.9823 73.3174C72.995 74.8451 73.5356 76.6412 73.5356 78.4786C73.5328 80.9415 72.5609 83.3027 70.833 85.0443C69.105 86.7859 66.7623 87.7655 64.3186 87.7683V87.7683Z" fill="white" fill-opacity="0.64"/>
<path d="M64.3181 83.9989C67.3431 83.9989 69.7954 81.5273 69.7954 78.4784C69.7954 75.4296 67.3431 72.958 64.3181 72.958C61.2931 72.958 58.8408 75.4296 58.8408 78.4784C58.8408 81.5273 61.2931 83.9989 64.3181 83.9989Z" fill="white" fill-opacity="0.64"/>
<path d="M114.85 94.3059C104.062 99.6042 90.7597 92.1866 91.6283 79.9773C92.4055 67.6759 105.571 61.4561 115.902 67.9984L113.616 71.7302C92.9539 61.7786 89.9369 97.4851 113.113 89.929L114.85 94.3059Z" fill="white"/>
<path d="M132.814 79.931V90.3896C132.814 91.9562 132.357 92.9237 131.169 94.0293C129.934 95.2734 127.146 96.0106 124.129 96.0106C119.466 96.0106 115.489 94.2138 115.489 89.6985C115.489 84.262 119.969 81.1291 128.014 81.0828V80.5761C128.014 77.0286 127.969 75.9228 124.86 75.9228C122.621 75.9228 121.523 76.3373 121.386 78.4567H116.678C116.678 74.0799 119.192 72.4213 124.86 72.3291C130.529 72.4213 132.814 74.725 132.814 79.931ZM128.152 84.8607H127.466C125.594 84.8729 123.749 85.314 122.072 86.1508C120.655 86.842 119.969 87.9938 119.969 89.2837C119.969 91.0805 121.158 91.7256 124.357 91.7256C127.1 91.7256 128.152 91.311 128.152 90.3435L128.152 84.8607Z" fill="white"/>
<path d="M152.333 76.7982C153.202 78.6872 153.613 80.8526 153.613 83.4327C153.613 86.7959 153.019 89.7908 152.059 91.5414C150.414 94.4441 147.214 96.0106 142.78 96.0106C141.736 96.0015 140.695 95.8935 139.671 95.6881V102H134.917L134.963 77.8579C134.963 74.218 137.934 72.3291 143.602 72.3291C148.219 72.3291 150.871 73.6652 152.333 76.7982ZM149.042 84.4463C149.042 81.4517 148.859 80.0233 148.265 78.7793C147.397 77.1207 145.979 76.4756 143.145 76.4756C140.54 76.4756 139.58 76.9824 139.58 78.503V91.4954C140.128 91.6797 141.82 91.864 142.871 91.864C145.431 91.864 147.214 90.9887 148.219 89.33C148.722 88.4545 149.042 86.5196 149.042 84.4463V84.4463Z" fill="white"/>
<path d="M155.624 70.0254V65.4642L160.378 65.0034V69.5647L155.624 70.0254ZM160.378 95.5958V72.5593L155.624 73.02V95.5957L160.378 95.5958Z" fill="white"/>
<path d="M177.795 89.3299C177.795 91.5413 176.88 93.3381 175.052 94.5362C173.452 95.5035 171.349 96.0564 169.155 96.0564C166.961 96.0564 164.492 95.7799 162.344 94.7664L163.624 91.0805C165.407 91.956 167.463 92.2323 169.063 92.2323C171.623 92.2323 172.949 91.265 172.949 89.3299C172.903 88.1781 172.081 87.1645 170.389 86.335C168.743 85.4137 167.189 84.5384 165.589 83.7551C163.212 82.3728 162.709 80.8525 162.664 78.9173C162.664 76.752 163.532 75.0474 165.269 73.8955C166.686 72.928 168.469 72.4212 170.481 72.375C172.583 72.375 174.777 72.7437 176.515 73.573L175.372 77.2127C173.635 76.752 171.806 76.2452 170.481 76.2452C168.286 76.2452 167.189 77.0745 167.235 78.8253C167.235 79.7929 168.149 80.7142 169.886 81.4975C174.503 83.6168 174.823 83.8933 174.915 83.9854C176.835 85.2754 177.749 87.0723 177.795 89.3299Z" fill="white"/>
<path d="M197.267 80.0694V95.5959H192.558V80.6684C192.558 77.259 191.873 76.5219 188.673 76.5219C186.844 76.5219 185.61 76.7522 184.239 77.4433V95.596H179.53V64.1282L184.239 63.6675V73.2045C185.701 72.6057 187.21 72.4215 188.947 72.4215C194.432 72.4215 197.267 74.8632 197.267 80.0694Z" fill="white"/>
</g>
<defs>
<clipPath id="clip0_21_39869">
<rect width="153.267" height="44" fill="white" transform="translate(44 58)"/>
</clipPath>
</defs>
</svg>
