<svg width="241" height="161" viewBox="0 0 241 161" fill="none" xmlns="http://www.w3.org/2000/svg">
<path fill-rule="evenodd" clip-rule="evenodd" d="M144.065 79.9859C144.094 84.3565 146.86 88.6162 152.363 88.6162C157.897 88.6162 160.69 84.3565 160.69 79.9859C160.69 75.5043 157.925 71.3827 152.363 71.3827C146.805 71.3827 144.038 75.4217 144.065 79.9859ZM162.129 80.0136C162.101 85.1033 158.865 90 152.363 90C145.863 90 142.599 85.0761 142.599 79.9581C142.599 74.7577 145.836 70 152.363 70C158.892 70 162.156 74.7854 162.129 80.0136ZM1.11035 86.5339H4.01473V73.5876H1V70.268H7.63912V86.5339H10.3223V89.6322H1.11035V86.5339ZM48.5786 86.036H59.4497V81.6654H48.9662V78.2627H59.4497V73.8094H48.5786V70.268H63.0737V89.6322H48.5786V86.036ZM32.7206 86.036H21.8488V89.6322H36.3444V70.268H21.8488V73.8094H32.7206V78.2627H22.2364V81.6654H32.7206V86.036ZM76.0275 89.6316L83.9388 73.7534H74.5064V70.268H88.7248L88.9182 72.2045L80.2324 89.6316H76.0275ZM117.836 70.268H117.007L111.06 87.9718L105.084 70.268H103.507L110.285 89.6876H111.889L114.988 80.5583L117.422 72.9513L119.857 80.6143L122.927 89.6876H124.531L131.364 70.268H129.759L123.757 87.9718L117.836 70.268ZM183.497 80.8904H176.638V71.6513H183.663C186.872 71.6513 188.422 74.0024 188.395 76.2709C188.366 78.981 186.872 80.8904 183.497 80.8904ZM188.616 89.6316H190.58L183.747 82.2181C187.979 82.2181 190.054 79.4518 190.026 76.2985C189.998 73.2833 187.869 70.268 183.663 70.268H175.143V89.6316H176.638V82.3013H181.922L188.616 89.6316ZM238.262 74.0114C236.851 71.743 234.584 71.4109 232.399 71.3832C230.13 71.3832 226.534 72.213 226.534 75.3115C226.534 77.7734 229.188 78.3544 232.454 78.9631L232.664 79.0036C236.332 79.7082 240.06 80.4247 240.06 84.5234C240.033 88.894 235.634 89.9451 232.399 89.9451C229.382 89.9451 225.952 88.7 224.459 85.7403L225.786 85.0767C226.976 87.4278 230.019 88.5897 232.399 88.5897C234.777 88.5897 238.567 87.9256 238.567 84.4957C238.594 81.5907 235.385 80.9543 232.205 80.3463C228.664 79.6544 225.039 78.9353 225.039 75.3669C224.957 71.2729 229.217 70 232.399 70C235.164 70 237.57 70.443 239.48 73.2924L238.262 74.0114ZM213.374 70.4061L203.874 80.2443L214.26 89.5207V89.6316H212.378L202.407 80.7976V79.8014L211.576 70.268H213.374V70.4061Z" fill="white"/>
</svg>
