<svg width="241" height="161" viewBox="0 0 241 161" fill="none" xmlns="http://www.w3.org/2000/svg">
<path d="M192.326 71.2836C185.293 71.7951 179.666 77.5495 179.155 84.5826C178.643 92.8946 185.165 99.7998 193.349 99.7998C196.29 99.7998 200.254 98.2653 202.044 95.1963V99.4162H207.543V85.8614C207.799 76.9101 200.638 70.6442 192.326 71.2836ZM201.661 85.8614C201.405 90.5928 197.313 94.1733 192.454 93.5339C188.745 93.0224 185.804 90.0813 185.293 86.3729C184.781 81.3857 188.617 77.1659 193.477 77.1659C197.824 77.1659 201.405 80.6185 201.661 84.9663V85.8614Z" fill="white"/>
<path d="M162.147 71.2818C154.602 71.5375 148.208 77.2919 148.208 85.7317C148.208 93.4042 154.474 99.9259 162.531 99.9259C168.157 99.9259 173.656 96.6011 175.83 91.1025L170.331 89.4401C169.308 91.7418 166.878 93.66 164.193 94.1715C160.357 94.9387 156.776 92.5091 155.369 89.9516L176.725 84.0693C176.085 78.4428 171.226 71.026 162.147 71.2818ZM154.219 84.8366C154.219 81.8954 156.009 78.4428 159.845 77.0362C164.193 75.3738 168.029 77.5477 169.692 80.6167L154.219 84.8366Z" fill="white"/>
<path d="M115.217 77.0371V71.1548C109.846 71.1548 108.056 73.8402 107.161 75.2468V72.05H101.023V85.0933V99.2875H107.288C107.288 90.8477 107.288 90.9755 107.288 85.8605C107.288 79.7225 110.869 77.2929 115.217 77.0371Z" fill="white"/>
<path d="M58.8234 88.4175L40.1535 66.4229H33.7598V99.2869H40.4093V77.2923L59.3349 99.4148H65.0893V66.4229H58.8234V88.4175Z" fill="white"/>
<path d="M144.5 63.4824H138.618V74.2239C137.211 72.4337 132.864 70.8992 129.155 71.2828C122.122 71.7943 116.495 77.5487 115.984 84.5819C115.472 92.8938 121.994 99.799 130.178 99.799C133.247 99.799 137.467 98.3924 138.874 95.707V99.2875H144.372V85.7327C144.372 85.6049 144.372 85.6049 144.372 85.477C144.372 85.3491 144.372 85.3491 144.372 85.2212L144.5 63.4824ZM138.362 85.8606C138.106 90.592 134.014 94.1725 129.155 93.5331C125.447 93.0216 122.506 90.0805 121.994 86.3721C121.483 81.385 125.319 77.1651 130.178 77.1651C134.526 77.1651 138.106 80.6177 138.362 84.9655V85.8606Z" fill="white"/>
<path d="M83.1199 71.1548C75.1916 71.1548 68.7979 77.5486 68.7979 85.4769C68.7979 93.4052 75.1916 99.799 83.1199 99.799C91.0482 99.799 97.4421 93.4052 97.4421 85.4769C97.3142 77.5486 90.9203 71.1548 83.1199 71.1548ZM83.1199 93.6609C78.6443 93.6609 74.936 89.9525 74.936 85.4769C74.936 81.0013 78.6443 77.2929 83.1199 77.2929C87.5956 77.2929 91.3041 81.0013 91.3041 85.4769C91.3041 90.0804 87.5956 93.6609 83.1199 93.6609Z" fill="white"/>
</svg>
