<svg width="241" height="160" viewBox="0 0 241 160" fill="none" xmlns="http://www.w3.org/2000/svg">
<path d="M169.076 62.4061C168.582 61.9121 168.229 61.5592 168.081 61.4116C167.125 60.4557 165.977 59.6474 163.77 59.6409H163.723C161.523 59.6474 160.375 60.4557 159.419 61.4116C159.111 61.726 157.898 62.9321 156.403 64.427C160.849 63.8175 165.077 63.1374 169.074 62.4061H169.076ZM81.3925 64.5232C79.8528 62.9834 78.6018 61.7324 78.2811 61.4116C77.3251 60.4557 76.1767 59.6474 73.9697 59.6409H73.9325C71.7255 59.6474 70.5771 60.4557 69.6213 61.4116C69.4737 61.5656 69.1079 61.9249 68.6011 62.4317C72.6109 63.1888 76.8773 63.8944 81.3938 64.5232H81.3925ZM208.865 52V52.9431C205.195 54.2839 192.916 58.5375 174.978 62.1687C177.05 64.2409 181.592 68.7895 181.592 68.7895C181.592 68.7895 181.765 68.9307 181.765 69.1937C181.765 69.4632 181.592 69.6043 181.592 69.6043L179.34 71.8562C179.34 71.8562 179.199 72.023 178.93 72.023C178.667 72.023 178.525 71.8562 178.525 71.8562C178.525 71.8562 172.848 66.1784 169.832 63.1631C165.309 63.9971 160.479 64.7798 155.378 65.4534C152.427 68.4046 148.975 71.8562 148.975 71.8562C148.975 71.8562 148.834 72.023 148.571 72.023C148.302 72.023 148.161 71.8562 148.161 71.8562L145.909 69.6043C145.909 69.6043 145.736 69.4631 145.736 69.1937C145.736 68.9307 145.909 68.7895 145.909 68.7895L148.398 66.2939C142.021 66.9868 135.291 67.5 128.272 67.7566V81.4025C128.272 81.4025 128.291 81.6206 128.106 81.8131C127.92 81.9991 127.695 81.9799 127.695 81.9799H124.507C124.507 81.9799 124.288 81.999 124.102 81.8131C123.91 81.6271 123.929 81.4025 123.929 81.4025V70.9772C123.929 70.124 123.976 69.059 124.186 67.8785C122.235 67.9232 120.266 67.9427 118.277 67.9427C111.56 67.9427 105.132 67.6925 99.0432 67.2562V71.5161C99.0432 72.8698 99.2806 74.2556 100.833 75.8146L100.866 75.8467C102.425 77.3993 103.817 77.6431 105.164 77.6431H119.933C119.933 77.6431 120.157 77.624 120.343 77.8099C120.53 77.9959 120.517 78.2204 120.517 78.2204V81.4026C120.517 81.4026 120.531 81.6271 120.343 81.8131C120.157 81.9992 119.933 81.9799 119.933 81.9799H109.514C107.038 81.9799 102.887 81.6784 98.9475 77.7649L98.9242 77.7328C95.0107 73.8001 94.7027 69.6492 94.7027 67.1728V66.9097C92.9064 66.7558 91.1357 66.5825 89.4099 66.3965L91.7965 68.7895C91.7965 68.7895 91.9697 68.9306 91.9697 69.1937C91.9697 69.4632 91.7965 69.6043 91.7965 69.6043L89.5446 71.8561C89.5446 71.8561 89.4035 72.0229 89.134 72.0229C88.8709 72.0229 88.7299 71.8561 88.7299 71.8561C88.7299 71.8561 85.3554 68.4816 82.4298 65.5561C77.1691 64.8568 72.2868 64.0484 67.8344 63.2015C64.8127 66.2233 59.1798 71.8561 59.1798 71.8561C59.1798 71.8561 59.0388 72.0229 58.7757 72.0229C58.5062 72.0229 58.3651 71.8561 58.3651 71.8561L56.1132 69.6043C56.1132 69.6043 55.94 69.4631 55.94 69.1937C55.94 68.9306 56.1132 68.7895 56.1132 68.7895L62.7213 62.1751C59.6418 61.5207 56.8125 60.8663 54.2591 60.2311C43.2565 57.4917 35.5257 54.7202 32.0036 53.3665V52.4106C36.1352 54.0145 47.2405 57.9985 63.4911 61.4116C65.2426 59.6601 68.3926 56.9464 73.9357 56.9335H73.9729C79.5288 56.9466 82.6788 59.6666 84.4238 61.418C85.0654 62.0531 86.7848 63.7789 88.4079 65.3957C90.4609 65.6266 92.5652 65.8383 94.7016 66.0244V56.7475C94.7016 56.7475 94.683 56.523 94.8683 56.3369C95.0605 56.1509 95.2789 56.1701 95.2789 56.1701H98.4674C98.4674 56.1701 98.6857 56.151 98.8715 56.3434C99.0638 56.5294 99.0447 56.7476 99.0447 56.7476V66.3709C105.159 66.8136 111.581 67.0638 118.278 67.0638C120.331 67.0638 122.359 67.0382 124.373 66.9932C124.867 64.9659 125.926 62.6563 128.152 60.4173L128.185 60.3916C132.117 56.4717 136.268 56.1702 138.745 56.1702H149.17C149.17 56.1702 149.388 56.1511 149.581 56.337C149.767 56.5231 149.747 56.7476 149.747 56.7476V59.9298C149.747 59.9298 149.766 60.1543 149.574 60.3403C149.388 60.5264 149.17 60.5071 149.17 60.5071H134.395C133.048 60.5071 131.662 60.7509 130.103 62.3035L130.07 62.3356C128.518 63.8946 128.274 65.2868 128.274 66.6341V66.8779C135.665 66.6084 142.728 66.0503 149.394 65.2996C150.985 63.7086 152.653 62.0405 153.282 61.4182C155.027 59.6668 158.177 56.9466 163.726 56.9337H163.773C169.329 56.9468 172.472 59.6668 174.224 61.4182L174.229 61.4247C192.975 57.6652 205.626 53.2 208.866 52.0003L208.865 52ZM163.296 90.7375C162.103 89.5442 161.179 88.6203 160.916 88.3573C159.96 87.4014 158.812 86.593 156.605 86.5866H156.558C154.358 86.5931 153.203 87.4014 152.253 88.3573C151.984 88.6203 151.06 89.5442 149.867 90.7375H163.296ZM86.688 90.7375C85.4948 89.5442 84.5709 88.6203 84.3014 88.3573C83.3519 87.4014 82.1971 86.593 79.9966 86.5866H79.9501C77.7496 86.5931 76.5947 87.4014 75.6452 88.3573C75.3756 88.6203 74.452 89.5442 73.2586 90.7375H86.688ZM182.344 90.7375H208.866V91.6164H182.344V98.3976C182.344 99.7449 182.582 101.131 184.134 102.696L184.171 102.722C185.73 104.274 187.116 104.518 188.463 104.518H203.232C203.232 104.518 203.456 104.499 203.642 104.685C203.829 104.877 203.816 105.095 203.816 105.095V108.284C203.816 108.284 203.834 108.502 203.642 108.688C203.456 108.881 203.238 108.861 203.238 108.861H192.813C190.337 108.861 186.186 108.553 182.253 104.64L182.221 104.608C178.307 100.675 177.999 96.5242 177.999 94.0478V91.6161H170.313C172.315 93.6178 174.426 95.7285 174.426 95.7285C174.426 95.7285 174.599 95.876 174.599 96.1391C174.599 96.4021 174.426 96.5496 174.426 96.5496L172.174 98.8015C172.174 98.8015 172.026 98.9683 171.763 98.9683C171.5 98.9683 171.353 98.7951 171.353 98.7951L164.18 91.6161H148.988C145.908 94.7019 141.809 98.7951 141.809 98.7951C141.809 98.7951 141.668 98.9683 141.398 98.9683C141.135 98.9683 140.988 98.8015 140.988 98.8015L138.736 96.5496C138.736 96.5496 138.569 96.4021 138.569 96.1391C138.569 95.876 138.736 95.7285 138.736 95.7285C138.736 95.7285 140.846 93.6178 142.848 91.6161H93.7049C95.7065 93.6178 97.8173 95.7285 97.8173 95.7285C97.8173 95.7285 97.9839 95.876 97.9839 96.1391C97.9839 96.4021 97.8173 96.5496 97.8173 96.5496L95.5654 98.8015C95.5654 98.8015 95.4178 98.9683 95.1547 98.9683C94.8852 98.9683 94.7441 98.7951 94.7441 98.7951C94.7441 98.7951 90.6446 94.7019 87.5651 91.6161H72.3795C69.2937 94.7019 65.2005 98.7951 65.2005 98.7951C65.2005 98.7951 65.0529 98.9683 64.7899 98.9683C64.5268 98.9683 64.3793 98.8015 64.3793 98.8015L62.1274 96.5496C62.1274 96.5496 61.9608 96.4021 61.9608 96.1391C61.9608 95.876 62.1274 95.7285 62.1274 95.7285C62.1274 95.7285 64.2381 93.6178 66.2398 91.6161H50.342V98.3974C50.342 99.7446 50.5859 101.13 52.1383 102.696L52.1709 102.721C53.7363 104.274 55.1221 104.518 56.4694 104.518H71.238C71.238 104.518 71.4624 104.499 71.6486 104.685C71.8348 104.877 71.8153 105.095 71.8153 105.095V108.284C71.8153 108.284 71.8339 108.502 71.6486 108.688C71.4624 108.88 71.2446 108.861 71.2446 108.861H60.8128C58.3429 108.861 54.192 108.553 50.2528 104.64L50.2202 104.608C46.3067 100.675 46.0052 96.5239 46.0052 94.0475V91.616H32V90.7371H46.0052V83.6222C46.0052 83.6222 45.9866 83.4041 46.1719 83.2117C46.3581 83.0256 46.5825 83.0449 46.5825 83.0449H49.7711C49.7711 83.0449 49.9894 83.0318 50.1751 83.2181C50.3613 83.4041 50.3418 83.6286 50.3418 83.6286V90.7371H67.1185C68.1642 89.6978 69.0753 88.7868 69.4987 88.3569C71.2502 86.6055 74.4002 83.8917 79.9497 83.8725H79.9962C85.5457 83.8915 88.6957 86.6055 90.4472 88.3569C90.8708 88.7868 91.7817 89.6978 92.8274 90.7371H143.735C144.774 89.6978 145.685 88.7868 146.109 88.3569C147.86 86.6055 151.01 83.8917 156.56 83.8725H156.606C162.156 83.8915 165.306 86.6055 167.057 88.3569C167.481 88.7868 168.398 89.6978 169.437 90.7371H178.002V83.6222C178.002 83.6222 177.983 83.4041 178.169 83.2117C178.361 83.0256 178.579 83.0449 178.579 83.0449H181.768C181.768 83.0449 181.986 83.0318 182.178 83.2181C182.365 83.4041 182.345 83.6287 182.345 83.6287L182.344 90.7375ZM136.293 96.5885C136.293 96.8579 136.126 96.999 136.126 96.999C136.126 96.999 130.077 103.043 128.755 104.371C126.997 106.122 123.854 108.842 118.298 108.855H118.26C112.705 108.842 109.555 106.122 107.81 104.371C106.481 103.043 100.438 96.999 100.438 96.999C100.438 96.999 100.265 96.8579 100.265 96.5885C100.265 96.3254 100.438 96.1843 100.438 96.1843L102.69 93.9324C102.69 93.9324 102.831 93.7592 103.1 93.7592C103.364 93.7592 103.505 93.9324 103.505 93.9324C103.505 93.9324 112.993 103.415 113.949 104.377C114.905 105.326 116.053 106.141 118.26 106.148V106.141H118.298V106.148C120.505 106.141 121.653 105.326 122.609 104.377C123.571 103.415 133.053 93.9324 133.053 93.9324C133.053 93.9324 133.195 93.7592 133.458 93.7592C133.727 93.7592 133.868 93.9324 133.868 93.9324L136.126 96.1843C136.126 96.1843 136.293 96.3254 136.293 96.5885Z" fill="white"/>
</svg>
