<svg width="241" height="161" viewBox="0 0 241 161" fill="none" xmlns="http://www.w3.org/2000/svg">
<path fill-rule="evenodd" clip-rule="evenodd" d="M124.074 69V89.9596H126.042V73.2725L135.364 81.5392L144.771 73.2639V89.9596H146.736V69.0087L135.367 78.6851L124.074 69ZM51.9102 69.9515H53.876V88.7037H71.5059V90.7979H51.9102V69.9515ZM104.514 86.418C105.263 85.6371 105.723 84.5949 105.808 83.4827V69.9515H107.786V83.4827C107.712 85.1513 107.047 86.7285 105.926 87.8973C104.134 89.8175 101.304 90.7979 97.5164 90.7979C87.2735 90.7979 87.1562 84.5732 87.1562 84.3093V69.9515H89.1248V84.3093C89.1275 84.4833 89.3266 88.7037 97.5058 88.7037C100.748 88.7037 103.107 87.9351 104.514 86.418ZM165.075 69.9515H163.107V89.9596H165.075V69.9515ZM181.835 72.0456H189.154V89.9596H191.122V72.0456H198.282V69.9515H181.835V72.0456ZM233.231 78.6852C232.682 73.8139 229.126 69.9423 224.56 69.2451C219.995 68.5477 215.559 71.1987 213.743 75.7087C211.927 80.2187 213.184 85.4637 216.808 88.4979C218.592 90.0041 220.803 90.8223 223.08 90.8183C223.49 90.8181 223.9 90.792 224.307 90.74C226.991 90.4008 229.438 88.9409 231.11 86.6816C232.782 84.4223 233.54 81.5488 233.22 78.6939L233.231 78.6852ZM229.575 85.3768C227.272 88.4883 223.294 89.5672 219.872 88.0072C216.452 86.4472 214.442 82.6375 214.974 78.7184C215.504 74.7995 218.443 71.7485 222.139 71.28C224.306 70.9997 226.488 71.6524 228.2 73.0928C231.764 76.0849 232.375 81.5839 229.564 85.3768H229.575Z" fill="white" fill-opacity="0.96"/>
<path fill-rule="evenodd" clip-rule="evenodd" d="M10.0958 68C9.42833 68 8.88713 68.5683 8.88713 69.2692C8.88713 69.9701 9.42833 70.5384 10.0958 70.5384C10.7633 70.5384 11.3045 69.9701 11.3045 69.2692C11.3029 68.5689 10.7626 68.0016 10.0958 68ZM19.3718 69.8519C19.6783 69.8519 19.9267 69.5911 19.9267 69.2692C19.9267 68.9475 19.6783 68.6865 19.3718 68.6865C19.0654 68.6865 18.817 68.9475 18.817 69.2692C18.817 69.5911 19.0654 69.8519 19.3718 69.8519ZM28.7247 69.8519C29.0311 69.8519 29.2795 69.5911 29.2795 69.2692C29.2795 68.9475 29.0311 68.6865 28.7247 68.6865C28.4183 68.6865 28.1699 68.9475 28.1699 69.2692C28.1699 69.5911 28.4183 69.8519 28.7247 69.8519ZM29.2795 79.0107C29.2795 79.3324 29.0311 79.5933 28.7247 79.5933C28.4183 79.5933 28.1699 79.3324 28.1699 79.0107C28.1699 78.6888 28.4183 78.4279 28.7247 78.4279C29.0311 78.4279 29.2795 78.6888 29.2795 79.0107ZM19.3718 79.5933C19.6783 79.5933 19.9267 79.3324 19.9267 79.0107C19.9267 78.6888 19.6783 78.4279 19.3718 78.4279C19.0654 78.4279 18.817 78.6888 18.817 79.0107C18.817 79.3324 19.0654 79.5933 19.3718 79.5933ZM27.609 88.2643C27.7969 87.7901 28.2385 87.4816 28.7275 87.4828C29.3933 87.4859 29.9319 88.0528 29.9334 88.752C29.9334 89.2656 29.6386 89.7287 29.1866 89.9249C28.7347 90.1212 28.2146 90.012 27.8691 89.6484C27.5238 89.2848 27.421 88.7384 27.609 88.2643ZM19.3635 85.5039C17.6561 85.5069 16.2741 86.9627 16.2762 88.7557C16.2782 90.5488 17.6634 92.0011 19.3709 92C21.0783 91.9989 22.4619 90.5449 22.4619 88.7519C22.4613 87.8897 22.1345 87.0631 21.5534 86.454C20.9723 85.8448 20.1846 85.5031 19.3635 85.5039ZM7.23606 77.7691C7.71552 76.5551 8.84433 75.7641 10.0958 75.7653C11.8018 75.7669 13.1845 77.2188 13.1859 79.0105C13.187 80.3247 12.4339 81.5101 11.2779 82.0136C10.1219 82.5171 8.79086 82.2395 7.90592 81.3101C7.02112 80.3808 6.75659 78.9831 7.23606 77.7691ZM7.79673 88.7517C7.79673 87.4183 8.82606 86.3373 10.0958 86.3373C11.3649 86.3389 12.3934 87.4189 12.3949 88.7517C12.3949 90.0852 11.3655 91.1663 10.0958 91.1663C8.82606 91.1663 7.79673 90.0852 7.79673 88.7517Z" fill="white" fill-opacity="0.64"/>
</svg>
