<svg width="240" height="160" viewBox="0 0 240 160" fill="none" xmlns="http://www.w3.org/2000/svg">
<path fill-rule="evenodd" clip-rule="evenodd" d="M90.8254 58.9501L102.3 42.9751L113.625 58.9501V116.4H45.5254V58.9501L56.7754 42.9751L68.2504 58.9501V70.9501L79.5004 86.6251L90.8254 70.9501V58.9501ZM87.5256 94.2001C88.2756 92.2501 90.2256 90.9001 91.8006 90.9001C91.9763 90.9001 92.1263 90.9259 92.2506 90.9472C92.3385 90.9623 92.4135 90.9751 92.4756 90.9751V94.9501H91.7256C90.0756 94.9501 88.5756 96.3751 88.1256 98.4001C88.0506 98.8501 87.9756 99.5251 87.9756 100.275V110.475H84.0006V96.6001C84.0006 95.1001 83.9256 93.4501 83.8506 92.0251V91.2751H87.3006L87.5256 94.2001ZM59.5506 110.7C54.7506 110.7 51.9756 107.25 51.9756 101.175C51.9756 95.0251 54.8256 90.9751 59.1006 90.9751C62.8506 90.9751 65.1006 94.2751 65.1006 99.7501V99.7502C65.1006 100.65 65.1006 101.325 65.0256 101.85H55.8006V102C55.8756 105.825 57.3756 107.7 60.3006 107.7C61.7256 107.7 62.9256 107.4 63.6756 107.1L64.2006 109.875C63.0756 110.4 61.2756 110.7 59.5506 110.7ZM58.8006 93.8251C56.9256 93.8251 55.9506 96.4501 55.8756 99.0001V99.1501H61.5006V99.0001C61.5006 96.9001 61.0506 95.3251 60.2256 94.4251C59.7756 93.9751 59.3256 93.8251 58.8006 93.8251ZM80.6252 109.65C80.5502 108.225 80.4752 106.65 80.4752 104.925V91.2751H76.5002V103.8C76.5002 104.475 76.4252 105.075 76.2752 105.525C76.0502 106.425 75.2252 107.55 73.9502 107.55C71.7752 107.55 71.5502 104.775 71.5502 102.675V91.2751H67.5752V103.2C67.5752 108.375 69.1502 110.85 72.4502 110.85C74.4752 110.85 76.2752 109.575 77.0252 108.45L77.2502 110.475H80.6252V109.65ZM100.35 110.775C96.0754 110.775 93.5254 107.1 93.5254 100.875C93.5254 97.6501 94.2754 95.0251 95.7004 93.3001C96.9004 91.8001 98.6254 90.9751 100.5 90.9751C104.625 90.9751 107.25 94.7251 107.25 100.875C107.175 110.325 101.475 110.775 100.35 110.775ZM100.425 93.9001C97.8754 93.9001 97.5004 98.2501 97.5004 100.8C97.5004 105.375 98.5504 107.775 100.5 107.775C101.55 107.775 103.275 106.875 103.275 100.8C103.275 98.7751 102.975 93.9001 100.425 93.9001Z" fill="white" fill-opacity="0.64"/>
<path fill-rule="evenodd" clip-rule="evenodd" d="M130.276 110.475V94.0501H124.951V110.475H120.976V94.0501H118.426V91.2751H120.976V90.0001C120.976 88.8001 121.351 82.7251 128.776 82.7251C130.576 82.7251 132.001 83.1001 132.826 83.5501L132.151 86.6251C131.401 86.3251 130.276 85.9501 128.776 85.9501C126.151 85.9501 124.801 87.3751 124.801 90.3001V91.2751H134.251V110.475H130.276ZM145.875 90.9001C144 90.9001 141.975 91.8751 141 93.5251L140.775 91.2001H137.4C137.4 91.5751 137.4 91.9501 137.475 92.3251C137.55 93.6001 137.55 94.8751 137.55 96.5251V110.4H141.525V98.5501C141.525 97.8751 141.6 97.2001 141.75 96.7501C142.125 95.1751 143.1 94.2001 144.3 94.2001C145.95 94.2001 146.775 95.5501 146.775 98.2501V110.475H150.75V97.8001C150.675 93.3751 149.025 90.9001 145.875 90.9001ZM165.45 98.3251V106.2C165.45 108 165.525 109.35 165.6 110.475H162.075L161.85 108.45C160.95 109.95 159.15 110.775 157.5 110.775C154.8 110.775 152.775 108.375 152.775 105.15C152.775 102.9 153.675 101.1 155.4 99.8251C156.9 98.7001 159 98.1001 161.325 98.1001H161.475V97.4251C161.475 95.1001 160.425 93.8251 158.4 93.8251C157.125 93.8251 156 94.1251 154.875 94.8001L154.125 92.1751C154.95 91.7251 156.9 90.9001 159.3 90.9001C163.5 90.9001 165.45 93.2251 165.45 98.3251ZM161.475 105.525C161.55 105.225 161.55 104.925 161.55 104.475H161.625V100.65H161.475C159.675 100.65 156.6 101.25 156.6 104.7C156.6 106.875 157.725 107.85 158.85 107.85C160.125 107.85 161.1 106.95 161.475 105.525ZM177 90.9001C175.125 90.9001 173.1 91.8751 172.125 93.5251L171.9 91.2001H168.525C168.525 91.5751 168.525 91.9501 168.6 92.3251C168.675 93.6001 168.675 94.8751 168.675 96.5251V110.4H172.65V98.5501C172.65 97.8751 172.725 97.2001 172.875 96.7501C173.25 95.1751 174.225 94.2001 175.425 94.2001C177.075 94.2001 177.9 95.5501 177.9 98.2501V110.475H181.875V97.8001C181.8 93.3751 180.075 90.9001 177 90.9001ZM184.125 109.65C184.95 110.25 186.6 110.7 188.1 110.7C192 110.7 194.4 108.45 194.325 104.775C194.325 102.45 193.05 100.575 190.425 99.0002C188.55 97.8002 188.025 97.1252 188.025 96.0002C188.025 94.9502 188.775 93.8252 190.425 93.8252C191.25 93.8252 192.15 94.0502 192.975 94.5752L193.725 91.7252C192.6 91.1252 191.475 90.8252 190.2 90.8252C186.9 90.8252 184.425 93.2251 184.425 96.5252C184.425 98.6251 185.7 100.425 188.325 102C190.2 103.125 190.8 103.95 190.8 105.3C190.8 106.8 189.825 107.7 188.175 107.7C186.9 107.7 185.7 107.25 184.875 106.8L184.125 109.65Z" fill="white"/>
</svg>
