<svg width="241" height="160" viewBox="0 0 241 160" fill="none" xmlns="http://www.w3.org/2000/svg">
<path d="M68.6203 89.7098H70.4703V96.5298H68.6203V89.7098ZM84.9803 89.7098H86.7803V96.5298H84.7803L81.0603 91.7998V96.5598H79.2603V89.7098H81.4103L84.9903 94.4698V89.7098H84.9803ZM97.4103 91.0098H94.8803V89.7098H101.8V91.0098H99.2703V96.5298H97.4103V91.0298V91.0098ZM109.9 89.7098H116.28V91.0098H111.75V92.4198H116.06V93.7098H111.75V95.2798H116.31V96.5798H109.9V89.7098ZM124.79 89.7098H129.79C131.68 89.7098 132 90.8698 132 91.5598C132.033 91.9194 131.941 92.2794 131.739 92.5785C131.536 92.8776 131.236 93.0972 130.89 93.1998C131.7 93.3198 131.83 94.3598 131.83 95.0298C131.791 95.5474 131.914 96.0643 132.18 96.5098H130.18C130.004 96.0971 129.942 95.6447 130 95.1998C130 94.1998 129.59 94.0098 129 94.0098H126.7V96.5098H124.85V89.7098H124.79ZM126.64 92.7098H129.06C129.177 92.7185 129.295 92.7021 129.406 92.6617C129.516 92.6213 129.617 92.5579 129.701 92.4756C129.785 92.3933 129.851 92.2941 129.894 92.1845C129.937 92.0748 129.956 91.9574 129.95 91.8398C129.952 91.7144 129.926 91.59 129.874 91.4758C129.823 91.3615 129.746 91.2601 129.651 91.1788C129.555 91.0975 129.443 91.0385 129.321 91.0058C129.2 90.9731 129.073 90.9677 128.95 90.9898H126.59V92.7098H126.64ZM145.29 95.1098H142.16L141.61 96.5198H139.61L142.61 89.6998H144.85L147.85 96.5198H145.85L145.29 95.1098ZM143.72 91.1598L142.65 93.8598H144.79L143.72 91.1598ZM161.58 92.2698C161.497 91.8256 161.251 91.4284 160.89 91.1564C160.529 90.8844 160.08 90.7572 159.63 90.7998C159.332 90.7859 159.034 90.8373 158.758 90.9504C158.481 91.0635 158.233 91.2356 158.03 91.4547C157.827 91.6737 157.675 91.9344 157.583 92.2186C157.492 92.5028 157.463 92.8035 157.5 93.0998C157.463 93.3961 157.492 93.6968 157.583 93.981C157.675 94.2652 157.827 94.5259 158.03 94.745C158.233 94.964 158.481 95.1361 158.758 95.2492C159.034 95.3623 159.332 95.4137 159.63 95.3998C160.086 95.4412 160.54 95.3085 160.902 95.0283C161.264 94.7482 161.506 94.3414 161.58 93.8898H163.58C163.35 95.8898 161.72 96.6998 159.58 96.6998C157.09 96.6998 155.58 95.6298 155.58 93.0998C155.58 90.5698 157.13 89.4998 159.58 89.4998C161.22 89.4998 163.32 89.9198 163.58 92.2698H161.58ZM173.82 90.9898H171.29V89.7098H178.21V91.0098H175.68V96.5298H173.83V91.0298L173.82 90.9898ZM186.3 89.7098H188.15V96.5298H186.3V89.7098ZM196.06 89.7098H198.06L200.06 94.9098L202.06 89.7098H204.06L201.06 96.5298H199.06L196.06 89.7098ZM211.98 89.7098H218.36V91.0098H213.84V92.4198H218.13V93.7098H213.84V95.2798H218.4V96.5798H211.99V89.7098H211.98ZM68.4703 68.7898H74.7003V70.4598H74.7503C75.9103 69.1198 77.6803 68.3998 80.5403 68.3998C84.7103 68.3998 88.5403 70.6898 88.5403 75.9098C88.5403 81.1298 84.7103 83.4198 80.5403 83.4198C77.9203 83.4198 76.0603 82.7798 74.9603 81.4198H74.9103V87.9098H68.4703V68.7898ZM78.4703 79.1098C80.7903 79.1098 81.9703 77.7198 81.9703 75.9198C81.9703 74.1198 80.9303 72.7098 78.4303 72.7098C75.9303 72.7098 74.9003 73.8898 74.9003 75.8998C74.9003 77.9098 75.9603 79.1098 78.4603 79.1098H78.4703ZM91.3403 73.1098C91.4169 72.2798 91.7079 71.4839 92.1847 70.8002C92.6615 70.1165 93.3079 69.5685 94.0603 69.2098C95.6303 68.4898 97.9703 68.2098 101.37 68.2098C107.93 68.2098 110.53 69.6798 110.53 73.8698V80.7098C110.493 81.4835 110.7 82.2493 111.12 82.8998H104.58C104.445 82.448 104.368 81.981 104.35 81.5098C102.91 82.8498 100.72 83.5098 97.3003 83.5098C92.9803 83.5098 90.2503 82.3498 90.2503 78.7498C90.2503 76.1798 92.0803 74.5298 96.8403 74.3198L102.27 74.0598C103.56 73.9798 103.99 73.6698 103.99 72.8998C103.99 71.9698 102.83 71.5398 100.99 71.5398C99.5203 71.5398 98.0603 71.7698 97.7503 73.1398H91.3303L91.3403 73.1098ZM104.16 76.5098C103.08 76.7398 101.25 76.8998 98.9603 77.0998C97.7803 77.1998 97.2103 77.5898 97.2103 78.4898C97.2103 79.3898 98.0103 80.0898 99.6003 80.0898C101.76 80.0898 104.16 79.5498 104.16 77.0898V76.4598V76.5098ZM113.99 68.8398H120.22V71.5398H120.27C120.948 70.5805 121.848 69.7988 122.892 69.2609C123.936 68.7231 125.095 68.4448 126.27 68.4498C126.976 68.4486 127.681 68.4987 128.38 68.5998V74.3598C127.333 74.0524 126.251 73.881 125.16 73.8498C122.87 73.8498 120.42 74.5998 120.42 77.6298V82.9098H113.97V68.7898L113.99 68.8398ZM130.67 73.1098C130.759 72.2806 131.062 71.4888 131.549 70.8121C132.037 70.1354 132.692 69.597 133.45 69.2498C135.02 68.5298 137.36 68.2498 140.76 68.2498C147.32 68.2498 149.92 69.7198 149.92 73.9098V80.7098C149.883 81.4836 150.089 82.2496 150.51 82.8998H143.92C143.785 82.448 143.708 81.981 143.69 81.5098C142.25 82.8498 140.06 83.5098 136.64 83.5098C132.32 83.5098 129.59 82.3498 129.59 78.7498C129.59 76.1798 131.42 74.5298 136.18 74.3198L141.61 74.0598C142.9 73.9798 143.33 73.6698 143.33 72.8998C143.33 71.9698 142.17 71.5398 140.33 71.5398C138.86 71.5398 137.4 71.7698 137.09 73.1398H130.66L130.67 73.1098ZM143.49 76.5098C142.41 76.7398 140.58 76.8998 138.29 77.0998C137.11 77.1998 136.54 77.5898 136.54 78.4898C136.54 79.3898 137.34 80.0898 138.93 80.0898C141.09 80.0898 143.49 79.5498 143.49 77.0898V76.4598V76.5098ZM166.39 81.4298H166.34C165.18 82.7698 163.41 83.4898 160.55 83.4898C156.38 83.4898 152.55 81.1998 152.55 75.9798C152.55 70.7598 156.38 68.4698 160.55 68.4698C163.17 68.4698 165.03 69.1098 166.13 70.4698H166.18V63.8498H172.61V82.8498H166.38V81.3798L166.39 81.4298ZM162.61 72.7098C160.29 72.7098 159.11 74.0998 159.11 75.8998C159.11 77.6998 160.11 79.0898 162.64 79.0898C165.17 79.0898 166.17 77.9098 166.17 75.8998C166.17 73.8898 165.06 72.7098 162.61 72.7098ZM185.69 68.2098C192.95 68.2098 196.11 70.6298 196.11 75.7998C196.11 80.9698 192.94 83.4198 185.69 83.4198C178.44 83.4198 175.27 80.9998 175.27 75.7998C175.27 70.5998 178.44 68.2298 185.69 68.2298V68.2098ZM185.69 79.2098C188.29 79.2098 189.37 78.0298 189.37 75.7598C189.37 73.4898 188.29 72.3398 185.69 72.3398C183.09 72.3398 182.06 73.6098 182.06 75.8198C182.06 78.0298 183.12 79.2698 185.69 79.2698V79.2098ZM196.99 82.8098L203.48 75.4498L197.54 68.7298H205.41L207.96 72.5098L210.51 68.7298H218.38L212.38 75.4498L218.97 82.8098H210.79L208.01 78.8098L205.23 82.8098H197.05H196.99ZM60.5503 81.7098C60.2803 80.3698 61.6703 79.2098 61.0103 77.8398C60.3503 76.4698 57.1703 76.5598 57.1203 74.9998C57.0503 73.1898 59.6903 74.1098 60.8003 74.1498C60.8003 71.2498 59.6603 68.7598 56.5303 70.7198C56.2574 70.7514 55.9809 70.7161 55.7248 70.6167C55.4686 70.5174 55.2405 70.3571 55.0603 70.1498C54.0603 68.4398 56.9703 68.0698 57.0603 66.7098C57.0603 65.9098 56.1203 65.3998 55.8203 64.7098C55.716 64.2321 55.716 63.7375 55.8203 63.2598C55.8203 63.0698 55.5903 63.0598 55.4403 63.0198C54.8503 62.8698 54.3003 63.2098 53.6903 63.0798C53.1068 62.8111 52.5564 62.4755 52.0503 62.0798C51.9192 62.3752 51.7246 62.6381 51.4803 62.8498C51.0403 63.4598 49.4803 65.6298 48.4803 64.6898C48.3293 64.4724 48.2293 64.2237 48.1878 63.9622C48.1462 63.7008 48.1642 63.4333 48.2403 63.1798C48.7703 59.3898 47.4003 58.9798 44.0603 58.4498C43.2603 58.3198 41.2203 57.8398 40.2903 58.1198C40.2903 58.7598 41.1003 63.2498 39.6603 63.0098C37.9503 63.0098 38.8803 58.5598 36.4003 58.0098C35.9415 58.0792 35.5154 58.2888 35.1803 58.6098C34.8303 59.1198 35.5303 60.6898 35.6803 61.2998C35.8874 62.0959 35.8491 62.9359 35.5703 63.7098V63.8698C32.7503 63.8698 33.0603 57.6398 28.6603 60.7098C28.6603 62.3798 32.6603 64.4898 31.2703 66.3198C31.0258 66.6438 30.6692 66.8649 30.2703 66.9398C28.1403 67.1998 27.2703 62.5998 24.9203 63.0098C24.7348 63.0571 24.5617 63.1442 24.4132 63.2651C24.2647 63.386 24.1443 63.5377 24.0603 63.7098C23.4503 64.7698 26.0603 66.3598 26.4703 67.4398C26.5974 68.0027 26.5732 68.5892 26.4003 69.1398C24.4003 69.1398 22.0403 66.2698 20.1703 68.0898C19.9955 68.2157 19.8571 68.3857 19.7693 68.5824C19.6815 68.7791 19.6473 68.9956 19.6703 69.2098C19.8603 69.9698 21.2203 69.8398 21.6703 70.5598V70.6498C22.3803 72.2598 20.7503 73.4398 20.7303 74.8998C20.7303 75.6298 21.2803 76.0398 21.0503 76.8298C20.2503 79.5498 17.6703 76.5198 16.4403 77.6798C15.2103 78.8398 16.5903 80.8898 16.6803 82.1198C16.584 82.859 16.437 83.5908 16.2403 84.3098C16.338 84.9701 16.5549 85.6071 16.8803 86.1898C17.1203 87.0598 16.8803 88.0198 17.3503 88.7698C18.7403 90.9098 21.0603 85.0698 22.1603 87.5298C23.0103 89.5298 18.7103 89.4098 18.6003 90.9198C18.4903 92.4298 21.0603 93.7698 22.0603 94.7098C22.9976 95.5367 23.6078 96.6719 23.7803 97.9098C23.7591 99.1207 23.5151 100.318 23.0603 101.44C23.4642 101.527 23.8798 101.548 24.2903 101.5C26.4703 100.85 27.7503 97.3698 27.3903 95.2098C27.0603 93.3898 26.0603 91.8298 25.9303 89.9298C25.8003 88.0298 27.6303 84.9298 25.9303 83.5898L25.7003 83.4498C25.6288 83.5489 25.5309 83.6259 25.4177 83.6719C25.3045 83.7179 25.1806 83.731 25.0603 83.7098C24.697 83.732 24.339 83.6139 24.0603 83.3798C23.9607 83.3231 23.8735 83.2468 23.8041 83.1556C23.7347 83.0643 23.6845 82.96 23.6564 82.8488C23.6284 82.7376 23.6232 82.6219 23.641 82.5087C23.6589 82.3954 23.6994 82.287 23.7603 82.1898C24.1803 81.5698 25.3703 81.6898 25.5103 80.8598C25.8103 79.0198 21.9603 78.6598 24.2903 76.3898C24.5172 76.1534 24.7935 75.9698 25.0994 75.8523C25.4054 75.7348 25.7334 75.6861 26.0603 75.7098C27.1403 75.7898 29.7503 76.5698 29.6003 77.9498C29.5303 78.5798 29.0003 79.1698 29.2303 79.8698C29.4603 80.5698 30.5303 80.5198 30.8203 81.1998C31.2003 82.1298 30.4203 82.8198 30.5003 83.6898C30.5076 83.7791 30.5371 83.8651 30.586 83.9402C30.6348 84.0153 30.7016 84.077 30.7803 84.1198C31.2184 84.2833 31.6122 84.547 31.9303 84.8898C32.4203 85.9698 31.1103 87.2898 32.8503 87.8898C32.8503 87.1198 32.6803 86.0898 33.3503 85.6898C33.4763 85.9234 33.6421 86.1332 33.8403 86.3098C34.3903 87.1698 34.6203 87.9798 35.7403 88.3098C35.7129 87.2314 35.41 86.178 34.8603 85.2498C35.6603 85.2498 36.1603 86.3098 37.0703 86.0698C37.9803 85.8298 37.1603 84.9198 36.9703 84.5298C36.4203 83.4198 37.2103 82.5298 36.8803 81.5298C36.5503 80.5298 33.5703 79.5498 32.6703 78.7098C32.4895 78.5675 32.3505 78.379 32.2678 78.1643C32.1851 77.9497 32.1618 77.7166 32.2003 77.4898C32.7503 75.7898 34.7503 76.7998 36.2003 76.3998C36.8372 76.1704 37.398 75.7689 37.8203 75.2398C38.1809 74.8707 38.4353 74.4111 38.5568 73.9096C38.6782 73.408 38.6621 72.883 38.5103 72.3898C38.1524 71.8796 37.9572 71.273 37.9503 70.6498C38.3703 67.5898 43.3203 67.7598 45.4803 68.8698C46.5803 69.4298 47.6303 70.7298 47.0503 72.0498C46.5303 73.2098 45.1303 72.5398 44.1503 72.9698C43.1034 73.7199 42.3028 74.764 41.8503 75.9698C41.4103 77.2098 42.6403 78.1498 42.7203 79.3598C42.8903 81.9998 41.6403 84.4298 41.1203 86.8198C41.0203 87.2598 41.4103 87.8198 41.1703 88.2498C40.7903 88.8898 40.0003 88.6598 39.3603 88.8898C38.946 89.1248 38.5602 89.4066 38.2103 89.7298C37.2903 90.2998 36.2103 90.5798 36.1003 91.8398C36.6803 91.8398 37.1003 91.5298 37.7303 91.4698C37.7472 91.4666 37.7646 91.4674 37.7812 91.4721C37.7977 91.4768 37.8129 91.4854 37.8256 91.497C37.8382 91.5087 37.8479 91.5232 37.854 91.5393C37.86 91.5554 37.8622 91.5727 37.8603 91.5898C37.8603 91.5898 37.8603 91.6698 37.8603 91.7098C37.7203 92.8098 36.8603 93.7098 37.3703 94.8898C38.1503 94.8898 38.3703 93.0698 39.6303 93.5498C39.7803 93.5498 39.7603 93.5498 39.8003 93.6898C39.9725 94.4934 40.2517 95.2703 40.6303 95.9998C40.7513 95.9806 40.8613 95.9185 40.9402 95.8249C41.0192 95.7312 41.0618 95.6123 41.0603 95.4898C40.9453 94.6167 40.9825 93.7302 41.1703 92.8698C41.5503 91.8698 42.2303 92.0098 42.0603 90.6698C42.2938 90.5522 42.5149 90.4115 42.7203 90.2498C44.3103 89.6998 44.5703 88.7798 46.5803 88.8398C47.0521 88.8214 47.5224 88.9032 47.9603 89.0798C48.3103 89.0798 48.1803 88.5298 48.0503 88.0798C47.3403 85.7398 46.4503 83.4298 46.4503 80.7298H46.8303C47.2363 81.5361 47.7114 82.3056 48.2503 83.0298C48.5503 83.5098 49.5203 85.7298 50.3803 85.2498C50.7803 85.0098 51.0203 82.2498 51.2503 81.5998C52.1003 79.3098 54.5003 78.8098 55.9203 81.0198C57.3403 83.2298 56.4303 87.5398 54.7203 89.1598C54.0503 89.7898 53.0903 89.7898 52.4503 90.3798C51.8103 90.9698 52.3803 92.1498 52.2703 92.9598C52.1106 93.7323 51.7075 94.4332 51.1203 94.9598C49.9203 96.1698 48.2903 96.7098 47.0603 97.8198C46.5303 98.2898 46.4103 99.0698 45.7603 99.3598C45.1103 99.6498 44.3303 99.2798 43.6603 99.4798L42.1903 100.4C41.2903 100.87 39.8303 101.66 39.3503 101.81C39.3503 103.73 43.9403 102.71 44.8803 102.2C45.5503 101.84 45.7503 100.96 46.4103 100.67C47.0703 100.38 47.7403 101.08 48.5003 100.82C49.2127 100.485 49.8839 100.069 50.5003 99.5798C51.7317 98.823 52.9202 97.9984 54.0603 97.1098C54.524 96.7821 54.9126 96.3594 55.2003 95.8698C55.4903 95.0598 54.2003 93.0598 56.4803 93.3898C58.2403 93.6198 60.0003 90.0798 60.3303 88.8298C60.5303 87.8298 60.7203 86.8898 60.9103 85.9098L61.6403 84.1498C62.0603 82.7098 60.7603 82.7098 60.5503 81.7098ZM20.6303 85.4198C20.3179 85.473 19.9969 85.4372 19.7039 85.3167C19.4109 85.1962 19.1577 84.9957 18.9731 84.7381C18.7886 84.4806 18.6801 84.1764 18.6602 83.8602C18.6402 83.544 18.7096 83.2285 18.8603 82.9498C19.133 82.511 19.5297 82.163 20.0003 81.9498C20.5147 81.941 21.0187 82.095 21.4403 82.3898C21.7056 82.5947 21.9044 82.8734 22.0117 83.1909C22.1191 83.5084 22.1301 83.8506 22.0436 84.1744C21.957 84.4981 21.7767 84.7891 21.5252 85.0107C21.2738 85.2323 20.9624 85.3747 20.6303 85.4198ZM30.0603 75.1298C29.8828 75.1504 29.7035 75.1117 29.5503 75.0198C27.7603 74.2598 28.5003 73.0998 29.1803 71.8298C30.5403 72.3798 30.8503 74.7098 30.0603 75.1298ZM32.5703 80.3898C33.1689 80.6278 33.6892 81.0281 34.0726 81.5458C34.4559 82.0634 34.6872 82.6778 34.7403 83.3198C34.7195 83.4701 34.6648 83.6138 34.5803 83.7398C34.2918 83.8381 33.9788 83.8381 33.6903 83.7398C32.3503 83.1698 32.5503 81.7098 32.5503 80.3898H32.5703ZM45.7703 86.2498C45.6944 86.7365 45.4416 87.178 45.0603 87.4898C44.7596 87.5126 44.4594 87.4398 44.2025 87.2818C43.9457 87.1237 43.7454 86.8885 43.6303 86.6098C43.5201 86.0519 43.5201 85.4778 43.6303 84.9198C43.6866 83.0155 43.9891 81.1265 44.5303 79.2998C45.1503 80.6598 44.9303 82.2998 45.2303 83.8098C45.5389 84.5888 45.7179 85.413 45.7603 86.2498H45.7703ZM54.7703 78.1898C53.9367 78.2492 53.0993 78.2257 52.2703 78.1198C49.1303 77.4998 51.8403 73.9698 52.5103 72.5598C53.7903 73.7098 55.2103 76.3498 54.7703 78.1898ZM224.13 88.9098C224.551 88.9098 224.963 89.0347 225.313 89.2688C225.664 89.5028 225.937 89.8355 226.098 90.2247C226.259 90.6139 226.301 91.0422 226.219 91.4554C226.137 91.8685 225.934 92.2481 225.636 92.5459C225.338 92.8438 224.959 93.0467 224.546 93.1289C224.132 93.2111 223.704 93.1689 223.315 93.0077C222.926 92.8465 222.593 92.5735 222.359 92.2232C222.125 91.8729 222 91.4611 222 91.0398C222 90.4749 222.224 89.9331 222.624 89.5337C223.023 89.1342 223.565 88.9098 224.13 88.9098ZM225.74 91.0398C225.728 90.7242 225.624 90.419 225.44 90.1623C225.256 89.9055 225.001 89.7085 224.706 89.5958C224.411 89.4831 224.089 89.4597 223.781 89.5284C223.472 89.5971 223.191 89.755 222.972 89.9824C222.753 90.2098 222.605 90.4966 222.548 90.8071C222.491 91.1177 222.526 91.4383 222.649 91.729C222.773 92.0197 222.979 92.2677 223.242 92.4421C223.505 92.6165 223.814 92.7096 224.13 92.7098C224.346 92.7059 224.56 92.6593 224.758 92.5726C224.956 92.486 225.135 92.3609 225.285 92.2048C225.434 92.0487 225.551 91.8645 225.63 91.6628C225.708 91.4611 225.745 91.246 225.74 91.0298V91.0398ZM224.01 91.2298H223.66V92.2298H223.24V89.8398H224.17C224.76 89.8398 225.06 90.0398 225.06 90.5298C225.066 90.6989 225.005 90.8635 224.891 90.9886C224.777 91.1137 224.619 91.1895 224.45 91.1998L225.1 92.1998H224.62L224.01 91.2298ZM224.08 90.8798C224.38 90.8798 224.65 90.8798 224.65 90.5098C224.65 90.1398 224.35 90.1798 224.11 90.1798H223.64V90.8698H224.06L224.08 90.8798Z" fill="white"/>
</svg>
