<svg width="240" height="160" viewBox="0 0 240 160" fill="none" xmlns="http://www.w3.org/2000/svg">
<path d="M193.94 74.297C193.94 79.1927 188.054 95.9298 187.097 98.4512C186.463 100.103 185.254 100.323 183.676 100.323C180.83 100.323 178.676 99.6598 177.63 98.8341C177.41 98.657 177.144 98.2884 177.321 97.757C178.399 94.5998 182.469 83.217 182.469 80.7684C182.469 79.4255 182.054 78.4084 180.697 78.4084C172.483 78.4084 157.369 95.7798 154.569 98.8912C153.64 99.8941 152.297 100.116 150.719 100.116C148.787 100.116 146.707 99.1012 146.516 98.9955C145.896 98.6712 145.867 98.3312 146.044 97.5955L146.559 95.5155C147.519 91.7112 152.416 77.6441 155.806 70.0184C155.953 69.6941 156.086 69.4284 156.823 69.3112C157.161 69.2684 158.283 69.0012 159.86 69.0012C160.997 69.0012 163.224 69.0898 164.346 69.6798C164.346 69.6798 164.36 69.6655 164.36 71.5227C164.36 72.3184 164.446 75.047 167.043 75.047C171.407 75.047 179.357 67.6141 186.376 67.6141C192.556 67.6141 193.941 71.3712 193.941 74.2927L193.94 74.297ZM106.597 80.447C106.597 81.4641 105.401 84.2512 105.226 84.6641C104.163 87.2884 101.346 87.717 99.3541 87.717C96.377 87.717 95.3598 86.6555 95.3598 84.9884C95.3598 83.6912 96.4513 81.4641 96.5984 81.1398C97.9384 78.1027 100.341 77.777 102.703 77.777C104.709 77.777 106.596 78.6027 106.596 80.4455L106.597 80.447ZM81.1584 74.0327C81.1584 72.1012 81.0584 69.3284 79.5384 69.3284C74.567 69.3284 65.8241 76.8498 64.9527 77.7198C64.3056 78.3684 64.7913 78.3098 65.647 78.3098H76.8398C80.7913 78.3098 81.1613 77.6455 81.1613 74.0327H81.1584ZM93.0898 75.0498C93.0898 84.517 87.2041 86.4927 80.6727 86.4927H76.0727C71.487 86.4927 62.2541 86.2127 62.2541 86.2127C61.5027 86.1984 60.957 86.0484 60.957 86.4912C60.957 89.5727 64.4798 94.2341 69.8627 94.2341C74.0956 94.2341 76.8384 91.6227 77.427 90.9884C77.427 90.9884 82.2913 90.4427 85.4184 90.4427C88.4556 90.4427 92.9241 90.9141 92.9241 92.6284C92.9241 95.9741 81.967 101.239 72.7813 101.239C58.9327 101.239 46.4727 93.7912 46.4727 84.8241C46.4727 69.7984 75.787 58.4741 84.3413 58.4741C92.0384 58.4741 93.0841 70.6098 93.0841 75.0498H93.0898ZM129.823 74.7255C128.776 74.7255 127.227 74.8884 126.52 75.847C123.896 79.4612 122.156 88.4698 122.156 90.9755C122.156 92.687 123.35 92.5841 124.956 92.5841C125.901 92.5841 127.406 92.5984 128.26 91.727C130.56 89.3384 132.567 78.5441 132.567 76.5984C132.567 75.2127 132.464 74.7241 129.824 74.7241L129.823 74.7255ZM147.209 74.2398C147.209 78.3541 143.109 87.3927 141.783 89.8998C136.269 100.4 128.909 100.326 120.591 100.326C116.52 100.326 107.453 100.383 107.453 92.8484C107.453 89.4712 110.431 83.3055 112.864 77.4527C113.897 74.9598 118.307 66.5998 133.333 66.5998C139.526 66.5998 147.21 67.557 147.21 74.2384L147.209 74.2398Z" fill="white"/>
</svg>
