<svg width="241" height="161" viewBox="0 0 241 161" fill="none" xmlns="http://www.w3.org/2000/svg">
<path d="M54.2175 78.9709H44.8802C43.6113 78.9715 42.3547 78.7279 41.1823 78.2538C40.0098 77.7798 38.9444 77.0847 38.0472 76.2083C37.1499 75.3319 36.4382 74.2913 35.9529 73.1461C35.4676 72.0009 35.2182 70.7735 35.2188 69.5341V60.4141H44.556C47.1162 60.4128 49.5722 61.4047 51.3839 63.1716C53.1956 64.9385 54.2148 67.3358 54.2175 69.8365V78.9709ZM38.6587 63.7741V69.5341C38.6574 71.1436 39.3105 72.6879 40.4744 73.8273C41.6382 74.9668 43.2177 75.6083 44.8656 75.6109H50.7627V69.8509C50.764 68.2413 50.1109 66.6971 48.947 65.5576C47.7832 64.4181 46.2038 63.7766 44.556 63.7741H38.6587Z" fill="white"/>
<path d="M65.8693 78.9709H56.5322V69.8509C56.5308 67.3502 57.5463 64.9513 59.3553 63.1817C61.1643 61.4121 63.6187 60.4166 66.1789 60.4141H75.516V69.5341C75.5173 72.0348 74.5019 74.4336 72.6929 76.2032C70.8839 77.9728 68.4295 78.9683 65.8693 78.9709ZM59.9722 75.6109H65.8693C67.5172 75.6083 69.0966 74.9668 70.2605 73.8273C71.4243 72.6879 72.0773 71.1436 72.076 69.5341V63.7741H66.1789C64.531 63.7728 62.95 64.4107 61.7834 65.5474C60.6168 66.6842 59.96 68.2269 59.9574 69.8365L59.9722 75.6109Z" fill="white"/>
<path d="M44.556 99.7746H35.2188V90.6546C35.2188 88.1543 36.2347 85.7562 38.0434 83.9869C39.8521 82.2175 42.3057 81.2216 44.8656 81.2178H54.2026V90.3378C54.2026 92.8381 53.1867 95.2362 51.378 97.0055C49.5693 98.7749 47.1158 99.7708 44.556 99.7746ZM38.6587 96.4146H44.556C46.2038 96.4159 47.7848 95.778 48.9514 94.6412C50.1181 93.5045 50.7748 91.9618 50.7774 90.3522V84.5922H44.8802C43.2323 84.5909 41.6513 85.2288 40.4847 86.3656C39.3181 87.5023 38.6613 89.045 38.6587 90.6546V96.4146Z" fill="white"/>
<path d="M75.5162 99.7738H66.1791C63.6193 99.7738 61.164 98.7815 59.3526 97.0149C57.5411 95.2483 56.5215 92.8517 56.5176 90.3514V81.2314H65.8547C68.4146 81.2314 70.8698 82.2236 72.6812 83.9902C74.4927 85.7569 75.5123 88.1535 75.5162 90.6538V99.7738ZM59.9576 84.577V90.337C59.957 91.1352 60.1174 91.9256 60.4299 92.6632C60.7423 93.4008 61.2005 94.0709 61.7784 94.6353C62.3562 95.1997 63.0423 95.6473 63.7975 95.9525C64.5526 96.2576 65.3619 96.4144 66.1791 96.4138H72.0762V90.6538C72.0775 89.0442 71.4245 87.5 70.2607 86.3605C69.0968 85.221 67.5174 84.5795 65.8695 84.577H59.9576Z" fill="white"/>
<path fill-rule="evenodd" clip-rule="evenodd" d="M151.633 86.7567C151.005 87.5041 150.213 88.1045 149.316 88.514C148.418 88.9235 147.439 89.1316 146.449 89.1231C143.828 89.1231 141.898 88.3903 140.66 86.9247C139.421 85.4591 138.804 83.3791 138.807 80.6847C138.798 79.4449 138.911 78.2072 139.146 76.9887C139.351 75.916 139.741 74.8852 140.301 73.9407C140.841 73.0419 141.618 72.301 142.552 71.7951C143.647 71.2325 144.873 70.9579 146.109 70.9983C147.112 71.0035 148.108 71.1656 149.058 71.4783C149.959 71.7482 150.753 72.285 151.328 73.0143H151.402V64.9167C151.402 64.7676 151.417 64.6452 151.428 64.5495V64.5493C151.435 64.488 151.441 64.4377 151.441 64.3983C151.475 64.1377 151.449 63.8729 151.364 63.6236C151.279 63.3744 151.137 63.147 150.95 62.9583C150.622 62.6991 149.879 62.5695 148.719 62.5695V61.2207H156.479V84.3183C156.479 85.6239 156.629 86.4623 156.931 86.8335C157.232 87.2047 157.989 87.3903 159.201 87.3903V88.8303C158.647 88.8047 158.017 88.7919 157.309 88.7919C156.601 88.7919 155.971 88.7727 155.417 88.7343C154.863 88.7599 154.233 88.7727 153.525 88.7727C152.817 88.7727 152.187 88.7855 151.633 88.8111V86.7567ZM151.368 77.2959C151.365 76.762 151.308 76.2297 151.196 75.7071C151.088 75.1817 150.895 74.6763 150.626 74.2095C150.374 73.7689 150.017 73.3948 149.584 73.1199C149.118 72.8383 148.578 72.6965 148.031 72.7119C147.33 72.6756 146.637 72.8719 146.065 73.2687C145.571 73.6407 145.192 74.1391 144.969 74.7087C144.73 75.3139 144.577 75.9489 144.517 76.5951C144.455 77.2351 144.424 77.9807 144.424 78.8319V80.8287C144.424 81.6927 144.448 82.4447 144.498 83.0847C144.551 83.738 144.685 84.3827 144.896 85.0047C145.091 85.616 145.451 86.1647 145.937 86.5935C146.464 87.0294 147.14 87.2541 147.829 87.2223C148.348 87.2543 148.867 87.1517 149.332 86.9249C149.797 86.6982 150.193 86.3553 150.478 85.9311C151.077 85.0031 151.38 83.9221 151.348 82.8255L151.368 77.2959ZM95.5165 71.6026C94.4773 72.067 93.5293 72.7055 92.7154 73.489V71.3098C92.165 71.329 91.536 71.3402 90.8283 71.3434C90.1206 71.3466 89.49 71.3594 88.9363 71.3818C88.3826 71.3562 87.752 71.3434 87.0443 71.3434C86.3366 71.3434 85.706 71.3306 85.1523 71.305V72.745C86.335 72.745 87.0721 72.9306 87.3637 73.3018C87.6553 73.673 87.8011 74.5114 87.8011 75.817V84.3178C87.8142 85.6202 87.6766 86.457 87.3883 86.8282C87.1 87.1994 86.3629 87.385 85.1769 87.385V88.825L87.7864 88.7866C88.7201 88.7866 89.5784 88.7738 90.3614 88.7482C90.866 88.7738 91.6359 88.7866 92.6712 88.7866C93.7556 88.7866 94.5124 88.7994 94.9416 88.825V87.385C94.057 87.385 93.4951 87.1818 93.256 86.7754C93.0168 86.369 92.8972 85.5498 92.8972 84.3178V76.6666C92.8746 76.2592 92.9424 75.8518 93.0959 75.4724C93.2494 75.093 93.4851 74.7504 93.7867 74.4682C94.4545 73.9131 95.3141 73.6281 96.1898 73.6714C97.1989 73.6714 97.8803 73.9738 98.2341 74.5786C98.6309 75.3768 98.8136 76.2605 98.7649 77.1466V84.3226C98.7649 85.5546 98.6453 86.3738 98.4061 86.7802C98.167 87.1866 97.5805 87.3898 96.6468 87.3898V88.8298C97.3381 88.801 98.1129 88.7866 98.9713 88.7866C99.8296 88.7866 100.6 88.7738 101.281 88.7482C101.963 88.7738 102.733 88.7866 103.591 88.7866L105.862 88.825V87.385C104.977 87.385 104.415 87.1818 104.176 86.7754C103.937 86.369 103.817 85.5498 103.817 84.3178V76.6666C103.795 76.2592 103.862 75.8518 104.016 75.4724C104.169 75.093 104.405 74.7504 104.707 74.4682C105.375 73.9131 106.234 73.6281 107.11 73.6714C108.119 73.6714 108.8 73.9738 109.154 74.5786C109.551 75.3768 109.734 76.2605 109.685 77.1466V84.3034C109.685 85.5354 109.565 86.3546 109.326 86.761C109.087 87.1674 108.501 87.3706 107.567 87.3706V88.8106C108.048 88.785 108.818 88.7722 109.877 88.7722C110.935 88.7722 111.716 88.7594 112.221 88.7338C112.997 88.7722 113.864 88.7914 114.82 88.7914C115.777 88.7914 116.647 88.8042 117.43 88.8298V87.3898C116.244 87.3898 115.5 87.2042 115.199 86.833C114.897 86.4618 114.747 85.6234 114.747 84.3178V76.561C114.747 74.6122 114.349 73.201 113.552 72.3274C112.756 71.4538 111.362 71.017 109.37 71.017C108.338 71.0212 107.317 71.2218 106.363 71.6074C105.424 71.9699 104.584 72.5381 103.906 73.2682L103.527 73.6378C103.149 72.7775 102.477 72.0719 101.625 71.641C100.725 71.21 99.7327 70.9944 98.7305 71.0122C97.6291 70.9917 96.5351 71.1927 95.5165 71.6026ZM136.261 80.4735C136.261 77.1487 135.586 74.7407 134.237 73.2495C132.887 71.7583 130.585 71.0127 127.332 71.0127C124.079 71.0127 121.771 71.7583 120.408 73.2495C119.045 74.7407 118.363 77.1487 118.363 80.4735C118.367 83.5519 119.092 85.7631 120.541 87.1071C121.989 88.4511 124.252 89.1231 127.332 89.1231C130.408 89.1199 132.666 88.4479 134.104 87.1071C135.542 85.7663 136.261 83.5551 136.261 80.4735ZM124.452 74.5071C124.646 73.9263 125.008 73.4127 125.494 73.0287C126.039 72.6788 126.677 72.4923 127.33 72.4923C127.982 72.4923 128.62 72.6788 129.165 73.0287C129.655 73.4179 130.017 73.9385 130.207 74.5263C130.447 75.2323 130.599 75.964 130.659 76.7055C130.734 77.5183 130.772 78.5167 130.772 79.7007C130.772 80.9583 130.734 82.0431 130.659 82.9551C130.6 83.7816 130.448 84.5993 130.207 85.3935C130.024 86.0363 129.664 86.6175 129.165 87.0735C128.639 87.4694 127.994 87.684 127.33 87.684C126.666 87.684 126.02 87.4694 125.494 87.0735C124.995 86.6177 124.635 86.0364 124.452 85.3935C124.211 84.5993 124.059 83.7816 124 82.9551C123.925 82.0431 123.887 80.9583 123.887 79.7007C123.887 78.5167 123.925 77.5119 124 76.6863C124.058 75.9444 124.21 75.2124 124.452 74.5071ZM169.01 85.5756V84.3564L169.015 71.3868H161.255V72.8268C162.441 72.8268 163.185 72.9868 163.486 73.3068C163.788 73.6268 163.939 74.3164 163.939 75.3756V85.0236C163.978 85.2732 163.978 85.446 163.978 85.542C164.012 85.8027 163.985 86.0675 163.9 86.3167C163.815 86.566 163.674 86.7934 163.486 86.982C163.159 87.2412 162.415 87.3708 161.255 87.3708V88.8108C162.038 88.7852 162.908 88.7724 163.865 88.7724C164.821 88.7724 165.691 88.7596 166.474 88.734C167.27 88.782 168.147 88.806 169.103 88.806C170.06 88.806 170.93 88.8188 171.713 88.8444V87.4044C170.566 87.4044 169.829 87.2748 169.502 87.0156C169.317 86.8254 169.177 86.5979 169.092 86.349C169.007 86.1002 168.979 85.8362 169.01 85.5756ZM163.973 65.0988C163.937 65.8337 164.175 66.5565 164.641 67.134C165.168 67.6205 165.865 67.8915 166.59 67.8915C167.315 67.8915 168.012 67.6205 168.538 67.134C169.001 66.5549 169.235 65.8325 169.197 65.0988C169.235 64.3541 169 63.6204 168.533 63.03C168.013 62.5325 167.313 62.2539 166.585 62.2539C165.856 62.2539 165.157 62.5325 164.636 63.03C164.17 63.6204 163.935 64.3541 163.973 65.0988ZM175.934 73.0815H173.438V71.3823H175.934V66.4671L181.006 64.8399V71.3823H184.716V73.0815H181.006V82.2879C180.949 83.5484 181.102 84.8095 181.458 86.0223C181.759 86.8351 182.428 87.2415 183.463 87.2415C184.005 87.2656 184.546 87.1773 185.05 86.9823V88.3887C183.635 88.8272 182.165 89.0743 180.682 89.1231C178.991 89.1231 177.774 88.7727 177.03 88.0719C176.287 87.3711 175.915 86.1951 175.915 84.5439L175.934 73.0815ZM189.065 74.5592C189.088 74.6328 189.164 74.8056 189.291 75.0776L194.515 88.7336H196.368L195.272 91.5368C194.952 92.4087 194.526 93.2401 194.004 94.0136C193.815 94.3275 193.555 94.5951 193.244 94.7964C192.934 94.9977 192.58 95.1272 192.21 95.1752C191.931 95.1831 191.655 95.1132 191.414 94.9736C191.134 94.798 190.88 94.5865 190.657 94.3448C190.43 94.1136 190.176 93.909 189.901 93.7352C189.66 93.5956 189.384 93.5257 189.105 93.5336H188.839C188.37 93.5725 187.933 93.7793 187.611 94.1144C187.275 94.4853 187.099 94.9685 187.119 95.4632C187.114 95.803 187.185 96.1399 187.329 96.4494C187.472 96.759 187.684 97.0337 187.95 97.2536C188.477 97.7236 189.167 97.9809 189.881 97.9736C190.754 97.9818 191.617 97.7859 192.397 97.4024C193.135 97.0406 193.801 96.5529 194.363 95.9624C194.894 95.4025 195.364 94.7895 195.763 94.1336C196.125 93.5401 196.429 92.915 196.673 92.2664L203.13 75.7832C203.608 74.4392 204.037 73.6072 204.418 73.2872C204.804 72.9507 205.301 72.7601 205.818 72.7496C206.049 72.7335 206.277 72.6966 206.501 72.6392V71.3096C205.947 71.332 205.33 71.3448 204.648 71.348C203.967 71.3512 203.349 71.364 202.796 71.3864C202.268 71.3608 201.651 71.348 200.943 71.348C200.235 71.348 199.605 71.3352 199.051 71.3096V72.6344L199.43 72.6728C199.905 72.6798 200.377 72.7542 200.83 72.8936C200.993 72.946 201.134 73.051 201.228 73.1913C201.323 73.3316 201.366 73.4991 201.351 73.6664C201.268 74.1327 201.141 74.5906 200.973 75.0344L198.171 84.3848L194.731 75.0728L194.658 74.8904C194.553 74.5288 194.491 74.1569 194.471 73.7816V73.5608C194.51 73.4267 194.582 73.3042 194.682 73.2044C194.781 73.1047 194.905 73.0308 195.041 72.9896C195.372 72.8725 195.714 72.792 196.063 72.7496L196.746 72.6392V71.3096C195.99 71.332 195.131 71.3448 194.171 71.348C193.211 71.3512 192.341 71.364 191.562 71.3864C190.779 71.3608 189.909 71.348 188.952 71.348C187.996 71.348 187.126 71.3352 186.343 71.3096V72.62C186.896 72.6936 187.306 72.7608 187.571 72.8216C187.8 72.8686 188.019 72.9564 188.215 73.0808C188.389 73.204 188.526 73.3695 188.613 73.5608C188.711 73.7592 188.862 74.092 189.065 74.5592Z" fill="white"/>
</svg>
