<svg width="241" height="161" viewBox="0 0 241 161" fill="none" xmlns="http://www.w3.org/2000/svg">
<path fill-rule="evenodd" clip-rule="evenodd" d="M120.16 50.498L129.01 73.2267L105.396 75.419L120.16 50.498Z" fill="white" fill-opacity="0.64"/>
<path fill-rule="evenodd" clip-rule="evenodd" d="M128.964 73.2267L134.969 75.419L120.16 50.498L128.919 72.9582L128.964 73.2267Z" fill="white"/>
<path fill-rule="evenodd" clip-rule="evenodd" d="M70.766 101.369C70.766 102.309 70.3597 103.203 69.3212 103.203V103.74C71.6239 103.74 73.8814 103.606 76.2292 103.606C78.5318 103.606 83.0468 103.606 84.0853 103.875L84.8528 100.206L84.3562 100.072C83.5435 101.772 82.5953 102.577 80.2475 102.577H73.2493C73.2493 100.206 73.0687 96.6262 73.0687 93.718C73.0687 90.8993 73.2493 86.2461 73.2493 84.7697C73.2493 83.8301 73.6556 82.9353 74.6941 82.9353V82.3984C73.9265 82.3984 72.9784 82.5326 71.9399 82.5326C70.9918 82.5326 70.0888 82.3984 68.96 82.3984V82.9353C70.6306 83.159 70.766 83.4274 70.766 93.718V101.369Z" fill="white"/>
<path fill-rule="evenodd" clip-rule="evenodd" d="M85.0332 94.6125C85.0332 99.9367 89.0516 104.008 94.5147 104.008C99.9778 104.008 103.996 99.9367 103.996 94.6125C103.996 89.2883 99.9778 85.2168 94.5147 85.2168C89.0516 85.2168 85.0332 89.2883 85.0332 94.6125ZM87.5616 94.6125C87.5616 89.8252 89.6385 86.0222 94.5598 86.0222C99.4812 86.0222 101.558 89.8252 101.558 94.6125C101.558 99.3998 99.4812 103.202 94.5598 103.202C89.6385 103.158 87.5616 99.3551 87.5616 94.6125Z" fill="white"/>
<path fill-rule="evenodd" clip-rule="evenodd" d="M106.931 94.6125C106.931 99.9367 110.95 104.008 116.413 104.008C121.876 104.008 125.894 99.9367 125.894 94.6125C125.894 89.2883 121.876 85.2168 116.413 85.2168C110.95 85.2168 106.931 89.2883 106.931 94.6125ZM109.414 94.6125C109.414 89.8252 111.491 86.0222 116.413 86.0222C121.334 86.0222 123.411 89.8252 123.411 94.6125C123.411 99.3998 121.334 103.202 116.413 103.202C111.491 103.158 109.414 99.3551 109.414 94.6125Z" fill="white"/>
<path fill-rule="evenodd" clip-rule="evenodd" d="M131.132 85.2168H130.68L129.687 100.205C129.551 102.487 129.326 102.934 127.926 103.247V103.695C128.693 103.695 129.416 103.605 130.183 103.605C130.951 103.605 131.718 103.695 132.486 103.695V103.247C131.583 103.158 130.861 102.531 130.861 100.697C130.861 100.026 130.861 98.8182 130.906 98.1471L131.402 89.9594H131.538L139.123 103.158L145.625 90.0041H145.715L146.257 99.2656C146.302 99.6683 146.347 100.518 146.347 101.502C146.347 102.442 146.121 103.202 145.038 103.292V103.739C145.715 103.739 146.483 103.65 147.25 103.65C148.153 103.65 148.966 103.739 149.733 103.739V103.292C148.559 103.113 148.424 102.889 148.334 100.786L147.566 85.3063H147.115L139.755 100.25L131.132 85.2168Z" fill="white"/>
<path fill-rule="evenodd" clip-rule="evenodd" d="M157.048 85.5303C156.28 85.5303 155.467 85.6198 154.564 85.6198C153.797 85.6198 152.984 85.5303 152.171 85.5303V85.9778C153.21 85.9778 153.481 86.7384 153.481 87.5437L153.616 101.682C153.616 102.488 153.21 103.248 152.442 103.248V103.696C152.984 103.696 153.752 103.606 154.564 103.606C155.467 103.606 156.235 103.696 156.777 103.696V103.248C156.009 103.248 155.558 102.488 155.558 101.682L155.693 87.5437C155.693 86.7384 155.964 85.9778 157.002 85.9778V85.5303H157.048Z" fill="white"/>
<path fill-rule="evenodd" clip-rule="evenodd" d="M170.367 88.4829L170.277 85.5747C168.922 85.6195 167.613 85.2168 166.213 85.2168C162.782 85.2168 159.757 86.738 159.757 90.541C159.757 97.2523 169.057 94.3888 169.057 99.892C169.057 102.173 167.251 103.202 165.175 103.202C163.414 103.202 161.292 102.442 160.705 100.563H160.253L160.344 103.292C161.969 103.739 163.594 104.053 165.22 104.053C168.471 104.053 170.909 102.263 170.909 98.9077C170.909 92.6886 161.608 95.1494 161.608 89.5567C161.608 87.1854 163.639 86.1116 165.807 86.1116C167.477 86.1116 169.374 86.8722 169.915 88.5724H170.367V88.4829Z" fill="white"/>
<path fill-rule="evenodd" clip-rule="evenodd" d="M105.351 75.3742L128.919 73.2266L134.924 75.4189C134.924 75.4189 113.794 77.2086 113.207 77.2981C112.575 77.3428 105.351 75.3742 105.351 75.3742Z" fill="white" fill-opacity="0.32"/>
</svg>
