<svg width="240" height="160" viewBox="0 0 240 160" fill="none" xmlns="http://www.w3.org/2000/svg">
<path fill-rule="evenodd" clip-rule="evenodd" d="M141.974 80.0376C141.999 84.0346 144.529 87.9301 149.563 87.9301C154.623 87.9301 157.178 84.0346 157.178 80.0376C157.178 75.9392 154.648 72.1699 149.563 72.1699C144.478 72.1699 141.949 75.8637 141.974 80.0376ZM158.493 80.0629C158.468 84.7174 155.508 89.1955 149.563 89.1955C143.618 89.1955 140.634 84.6926 140.634 80.0122C140.634 75.2563 143.593 70.9055 149.563 70.9055C155.533 70.9055 158.518 75.2817 158.493 80.0629ZM11.2409 86.0257H13.8969V74.1864H11.14V71.1507H17.2115V86.0257H19.6652V88.8592H11.2409V86.0257ZM54.6508 85.5705H64.5925V81.5735H55.0052V78.4617H64.5925V74.3892H54.6508V71.1507H67.9066V88.8592H54.6508V85.5705ZM40.1485 85.5705H30.2063V88.8592H43.4626V71.1507H30.2063V74.3892H40.1485V78.4617H30.5606V81.5735H40.1485V85.5705ZM79.7529 88.8587L86.9878 74.338H78.3617V71.1507H91.3645L91.5415 72.9215L83.5982 88.8587H79.7529ZM117.988 71.1507H117.229L111.79 87.3408L106.326 71.1507H104.884L111.082 88.9099H112.549L115.383 80.5611L117.608 73.6044L119.835 80.6123L122.643 88.9099H124.11L130.358 71.1507H128.891L123.402 87.3408L117.988 71.1507ZM178.035 80.8648H171.761V72.4156H178.186C181.121 72.4156 182.538 74.5656 182.512 76.6402C182.487 79.1187 181.121 80.8648 178.035 80.8648ZM182.715 88.8587H184.511L178.262 82.079C182.133 82.079 184.03 79.5492 184.005 76.6655C183.98 73.9081 182.032 71.1507 178.186 71.1507H170.395V88.8587H171.761V82.155H176.593L182.715 88.8587ZM228.117 74.574C226.827 72.4994 224.753 72.1958 222.754 72.1704C220.68 72.1704 217.391 72.9294 217.391 75.7628C217.391 78.0143 219.82 78.5456 222.805 79.1022L222.997 79.1392C226.352 79.7837 229.762 80.4388 229.762 84.1872C229.736 88.1841 225.714 89.1454 222.754 89.1454C219.997 89.1454 216.86 88.0067 215.494 85.3L216.708 84.6931C217.796 86.8432 220.579 87.9058 222.754 87.9058C224.93 87.9058 228.396 87.2985 228.396 84.1618C228.421 81.5053 225.487 80.9233 222.578 80.3671C219.339 79.7344 216.025 79.0769 216.025 75.8135C215.949 72.0695 219.845 70.9055 222.754 70.9055C225.284 70.9055 227.485 71.3106 229.231 73.9164L228.117 74.574ZM205.357 71.2769L196.668 80.274L206.166 88.7573V88.8587H204.446L195.327 80.7799V79.8689L203.713 71.1507H205.357V71.2769Z" fill="#282522"/>
</svg>
