<svg width="240" height="160" viewBox="0 0 240 160" fill="none" xmlns="http://www.w3.org/2000/svg">
<path d="M90.9783 63.0758V67.2434H101.056V96.7956H105.3V67.2434H115.378V63.0758H90.9783Z" fill="#656F75"/>
<path d="M82.264 77.7003H68.5488H67.4121L68.0183 76.4121C68.0183 76.4121 71.8829 67.3192 78.4753 67.3192H82.1882L82.264 77.7003ZM78.5511 63.0758C69.2307 63.0758 64.5327 73.9116 64.1538 74.7451C64.1538 74.8209 56.0459 92.2491 54 96.7198H58.698L65.5178 82.0195H82.3398C82.3398 87.5511 82.3398 93.3099 82.3398 96.7198H86.5832V63L78.5511 63.0758Z" fill="#656F75"/>
<path d="M157.508 67.0161H161.221C167.89 67.0161 171.678 76.1091 171.678 76.1091L172.284 77.3973H171.148H157.433L157.508 67.0161ZM153.417 63.0758V96.7956H157.66V82.0195H174.482L181.302 96.7198H186C183.954 92.2491 175.846 74.7451 175.846 74.7451C175.467 73.8358 170.845 63.0758 161.449 63.0758H153.417V63.0758Z" fill="#656F75"/>
<path fill-rule="evenodd" clip-rule="evenodd" d="M132.351 63.0758C122.879 63.0758 115.226 70.6533 115.226 80.0494C115.226 89.4455 122.879 97.0229 132.351 97.0229C137.049 97.0229 141.747 94.9012 145.006 91.3398C145.309 90.961 145.536 90.4305 145.536 89.9001C145.536 88.7635 144.551 87.7784 143.339 87.7784C142.732 87.7784 142.126 88.0057 141.747 88.4604C139.247 91.1125 135.761 92.7038 132.351 92.7038C125.304 92.7038 119.545 87.0207 119.545 80.0494C119.545 73.0781 125.304 67.395 132.351 67.395C135.761 67.395 139.247 68.9862 141.747 71.6384C142.126 72.093 142.732 72.3203 143.339 72.3203C144.551 72.3203 145.536 71.411 145.536 70.1986C145.536 69.6682 145.384 69.1378 145.006 68.7589C141.747 65.2733 137.049 63.0758 132.351 63.0758ZM126.441 76.9427H143.49C144.778 76.9427 145.839 78.0035 145.839 79.2159C145.839 80.5041 144.778 81.4892 143.49 81.4892H143.414H126.517H126.441C125.153 81.4892 124.092 80.5041 124.092 79.2159C124.092 77.9277 125.153 76.9427 126.441 76.9427Z" fill="#63B91B"/>
</svg>
