<svg width="240" height="160" viewBox="0 0 240 160" fill="none" xmlns="http://www.w3.org/2000/svg">
<path d="M70 36H170V124.56H70V36Z" fill="#002C4D"/>
<path d="M104.06 74.4899L93.9794 76.6199C85.8094 78.3699 77.4895 82.3199 77.2595 95.3399H120.45V90.2099H144.1V95.3399H156.38V90.2099H162.72V82.0099H156.38V61.4999H138.71L119.01 81.6599V86.8299H91.8695C92.7095 85.5899 94.2694 84.8099 97.2294 84.2499L109.57 82.0099C114.47 81.0699 121.18 78.4999 121.18 72.0699C121.18 62.5899 110.64 60.6499 99.4295 60.6499C90.7395 60.6499 79.4594 62.2099 78.4194 73.8699H93.1994C93.5794 69.4699 97.3595 69.1299 101.11 69.1299C104.3 69.1299 106.71 69.9199 106.71 71.8599C106.72 73.2699 105.79 74.1299 104.06 74.4899ZM144.1 69.7299V82.0199H131.63L144.1 69.7299ZM133.79 110.27H143.11V105.61H133.79V103.18H144.13V98.1799H122.06L118.88 110.07H118.82L115.59 98.1799H94.4395V109.48C93.5995 107.36 91.3994 106.43 89.1994 105.82C86.4194 105.08 83.5795 104.77 83.4695 103.36C83.4695 102.28 84.8495 102.05 85.6795 102.05C86.2595 102.05 86.9695 102.17 87.4695 102.51C87.9595 102.87 88.2695 103.36 88.1895 104.11H93.9494C93.7594 99.3299 89.9794 97.7299 85.6994 97.7299C81.6194 97.7299 77.7394 99.6699 77.7394 104.19C77.7394 108.14 81.2994 108.99 84.4194 109.83C87.8194 110.82 88.6895 111.09 88.6895 112.1C88.6895 113.59 87.1895 113.9 86.1795 113.9C85.0395 113.9 83.7094 113.63 83.2694 112.45C83.1294 112.1 83.0395 111.67 83.0395 111.16H76.9395C77.0195 117.44 83.3995 118.22 85.6395 118.22C89.3195 118.22 93.2595 117.06 94.4295 113.69V117.77H111.1V112.74H100.55V110.29H109.85V105.63H100.55V103.18H110.81V102.68L115.35 117.75H122.14L127.7 100.1V117.76H144.13V112.73H133.79V110.27ZM157.1 98.1799V108.68H157.05L151.28 98.1799H145.06V117.76H150.82V107.06H150.88L156.94 117.75H162.85V98.1799H157.1Z" fill="#F7A600"/>
<path d="M95.6902 46.8798H99.8602V58.1698H104.59V46.8798H108.91V42.9598H95.6902V46.8798ZM77.4502 58.1598H82.1902V52.3598H88.3402V48.7698H82.1902V46.8798H89.3302V42.9598H77.4502V58.1598ZM158.73 48.9298C156.52 48.2998 154.37 48.0698 154.27 46.9898C154.27 46.1398 155.34 45.9298 155.97 45.9298C156.46 45.9298 156.97 46.0698 157.39 46.3298C157.77 46.5898 158.01 46.9898 157.95 47.5298H162.4C162.28 43.8598 159.32 42.5698 156.01 42.5698C153.07 42.5698 150.25 43.9098 149.86 46.8898C149.41 43.7098 146.62 42.5698 143.49 42.5698C140.33 42.5698 137.3 44.1198 137.3 47.5998C137.3 50.6898 140.09 51.3598 142.53 52.0098C145.15 52.7898 145.82 52.9698 145.82 53.7998C145.82 54.9098 144.62 55.1498 143.87 55.1498C143.01 55.1498 141.94 54.9398 141.59 54.0598C141.49 53.7998 141.41 53.4498 141.41 53.0598H136.68C136.69 53.4998 136.73 53.8998 136.81 54.2698H129.14V52.3598H136.4V48.7698H129.14V46.8798H136.93V42.9598H124.41V58.1598H137.36V55.7098C138.79 58.1498 142.09 58.5498 143.45 58.5498C146.01 58.5498 148.72 57.8198 149.91 55.7698C151.35 58.1498 154.6 58.5498 155.94 58.5498C159.38 58.5498 163.05 57.2598 163.05 53.2798C163.05 50.5098 160.91 49.4998 158.73 48.9298ZM156.38 55.1498C155.49 55.1498 154.44 54.9398 154.09 54.0598C153.97 53.7998 153.93 53.4498 153.93 53.0598H150.51C150.4 50.4598 148.32 49.4898 146.22 48.9298C144.06 48.2998 141.84 48.0698 141.77 46.9898C141.77 46.1398 142.84 45.9298 143.44 45.9298C143.94 45.9298 144.47 46.0698 144.85 46.3298C145.23 46.5898 145.52 46.9898 145.43 47.5298H149.8V47.5998C149.8 50.6898 152.55 51.3598 155.01 52.0098C157.65 52.7898 158.29 52.9698 158.29 53.7998C158.3 54.8998 157.13 55.1498 156.38 55.1498ZM119.13 51.0898H119.07L114.6 42.9698H109.76V58.1698H114.22V49.8498H114.27L118.98 58.1698H123.58V42.9698H119.13V51.0898ZM90.1702 42.9598H94.8902V58.1598H90.1702V42.9598Z" fill="white"/>
</svg>
