<svg width="241" height="161" viewBox="0 0 241 161" fill="none" xmlns="http://www.w3.org/2000/svg">
<path d="M213 57H28V103H213V57Z" fill="#222222"/>
<path d="M46.5003 80.3833L47.1912 79.8466C47.1912 79.8466 46.8841 79.7699 46.5771 79.6166C46.5771 79.6166 46.27 79.5399 46.27 79.6166C46.1932 79.7699 46.27 80.1533 46.5003 80.3833Z" fill="white"/>
<path d="M74.0581 57H28V103H74.0581V57Z" fill="#A39161"/>
<path d="M59.2432 95.2569V94.9502H59.5503C59.627 94.9502 59.7038 95.0269 59.7038 95.1035C59.7038 95.1802 59.627 95.2569 59.4735 95.2569H59.2432ZM59.0897 95.8702H59.2432V95.4102H59.32C59.4735 95.4102 59.4735 95.4869 59.6271 95.7169L59.7038 95.8702H59.9341L59.7806 95.6402C59.7038 95.4869 59.627 95.4102 59.5503 95.4102C59.7038 95.4102 59.8573 95.2569 59.8573 95.1035C59.8573 95.0269 59.7806 94.7969 59.4735 94.7969H59.0129L59.0897 95.8702ZM60.3179 95.3335C60.3179 95.7935 59.9341 96.1769 59.4735 96.1769C59.0897 96.1002 58.7059 95.7935 58.7059 95.3335C58.7059 94.8735 59.0897 94.4902 59.5503 94.4902C60.0109 94.4902 60.3179 94.8735 60.3179 95.3335ZM60.4714 95.3335C60.4714 94.7969 60.0109 94.3369 59.4735 94.3369C58.9362 94.3369 58.4756 94.7969 58.4756 95.3335C58.4756 95.8702 58.9362 96.3302 59.4735 96.3302C60.0876 96.2535 60.4714 95.8702 60.4714 95.3335Z" fill="white"/>
<path d="M53.3316 94.95C53.2549 94.4134 52.7943 93.7234 52.0267 93.0334C51.3358 92.42 51.3358 91.27 51.3358 90.9634H47.4209C47.1138 91.3467 46.8835 91.8834 45.6553 92.5734C44.0433 93.4167 43.5059 93.7234 43.1221 94.95H53.3316Z" fill="white"/>
<path d="M52.6413 93.0334C53.716 93.8767 54.0998 94.4134 54.3301 94.95H57.4006C57.0936 93.8 56.4027 93.4167 54.8674 92.4967C53.716 91.8067 53.3321 91.27 53.1019 90.9634H51.7969C51.7969 91.1934 51.7969 92.3434 52.6413 93.0334Z" fill="white"/>
<path d="M52.9483 87.2832H51.7969V89.1999H52.9483V87.2832Z" fill="white"/>
<path d="M51.2594 87.2832H47.498V89.1999H51.2594V87.2832Z" fill="white"/>
<path d="M54.7142 85.0601C54.7142 84.7534 54.4839 84.6001 54.1768 84.6001H46.347C46.0399 84.6001 45.8096 84.7534 45.8096 85.0601C45.8096 85.3667 46.0399 85.5201 46.347 85.5201H54.1001C54.4071 85.5201 54.7142 85.3667 54.7142 85.0601Z" fill="white"/>
<path d="M53.1779 85.98H47.3439C47.0368 85.98 46.8066 86.21 46.8066 86.44C46.8066 86.67 47.0368 86.9 47.3439 86.9H53.1779C53.485 86.9 53.7153 86.67 53.7153 86.44C53.7153 86.1333 53.485 85.98 53.1779 85.98Z" fill="white"/>
<path d="M53.1779 89.5835H47.3439C47.0368 89.5835 46.8066 89.8135 46.8066 90.0435C46.8066 90.2735 47.0368 90.5035 47.3439 90.5035H53.1779C53.485 90.5035 53.7153 90.2735 53.7153 90.0435C53.7153 89.8135 53.485 89.5835 53.1779 89.5835Z" fill="white"/>
<path d="M58.0146 95.7935C58.0146 95.5635 57.7843 95.3335 57.4773 95.3335H42.969C42.6619 95.3335 42.4316 95.5635 42.4316 95.7935C42.4316 96.0235 42.6619 96.2535 42.969 96.2535H57.4773C57.7843 96.2535 58.0146 96.1001 58.0146 95.7935Z" fill="white"/>
<path d="M53.6388 65.9699C51.95 64.8199 50.1077 64.0533 48.1118 63.7466C48.0351 63.7466 48.0351 63.8233 47.9583 63.8999C48.0351 64.6666 48.1118 65.3566 48.1886 66.0466C47.8815 66.1233 47.5745 65.9699 47.3442 65.8933C47.2674 65.8166 47.1139 65.8166 46.9604 65.8166C46.8069 65.8166 46.8069 65.9699 46.8069 66.1233C46.8836 66.9666 47.8048 67.6566 48.5724 67.8099C48.4957 67.8866 48.1886 67.8866 47.8048 67.7333C47.1907 67.4266 46.5766 68.1166 46.423 68.2699C45.2716 69.1899 44.7342 70.4166 43.7363 71.4899C43.5828 71.6433 43.506 71.7199 43.3525 71.8733C43.199 72.0266 43.0454 72.1799 42.9687 72.3333C42.4313 72.9466 41.8172 73.5599 41.5869 74.3266C41.5869 74.4799 41.5869 74.6333 41.5869 74.8633C41.6637 75.2466 41.9708 75.5533 42.2778 75.8599C42.4313 76.0133 42.6616 75.7066 42.8152 76.0133C42.8152 76.0133 42.9687 76.1666 43.2757 76.0133C44.1969 75.5533 45.0413 74.9399 46.116 74.8633C47.5745 74.9399 48.9562 74.3266 49.5703 72.9466H49.6471C49.5703 73.7899 48.8027 74.4033 48.0351 74.7866C47.4977 75.0166 47.421 75.3999 47.421 75.3999C46.6533 77.1633 46.1928 78.4666 45.0413 80.1533C44.7342 80.6899 44.811 81.3033 45.0413 81.8399C45.3484 82.6066 45.5786 83.3733 46.0392 84.0633H54.4064C55.5579 82.2999 56.4023 80.3833 57.0164 78.3133C58.3214 74.0199 57.6305 68.8066 53.6388 65.9699ZM47.1139 70.5699C47.1139 70.5699 46.8836 71.1066 46.2695 70.9533C45.6554 70.7999 46.0392 70.1099 46.0392 70.1099C46.0392 70.1099 46.423 70.1099 47.1139 70.4166H47.2674C47.2674 70.4166 47.0371 69.8033 46.0392 69.8799C46.0392 69.8799 45.7322 69.6499 45.8857 69.2666C45.8857 69.2666 46.6533 69.4966 46.8836 69.6499C47.1139 69.7266 47.5745 70.0333 47.728 70.5699H47.1139ZM48.0351 83.8333C47.9583 83.9866 47.4977 83.8333 47.2674 83.6799C47.0372 83.5266 46.6533 83.3733 46.2695 82.8366C45.8857 82.2999 45.8089 81.9166 45.6554 81.5333C45.6554 81.5333 45.6554 81.4566 45.6554 81.3799C45.7322 81.3799 45.7322 81.3799 45.7322 81.4566C45.7322 81.5333 46.116 82.1466 46.5766 82.4533C46.5766 82.4533 47.0371 82.9133 47.4977 83.2199C47.9583 83.6033 48.1118 83.7566 48.0351 83.8333ZM57.0932 75.2466L55.4044 75.4766C55.4044 75.4766 55.4044 76.0133 55.3276 76.1666L57.0164 76.3966V76.6266L55.3276 76.7033L55.2508 77.3933L56.7861 77.9299V78.0833L55.0973 78.0066L54.867 78.6966L56.4023 79.1566L56.3255 79.3099L54.7135 79.2333L54.56 79.6933L55.9417 80.3833L55.865 80.5366L54.4064 80.2299C54.4064 80.2299 54.3297 80.6133 54.2529 80.7666L55.4044 81.4566L55.3276 81.6099L54.0226 81.2266C54.0226 81.2266 53.8691 81.6099 53.7923 81.6866L54.867 82.4533L54.7903 82.6066L53.6388 82.1466L53.3318 82.6066L54.1762 83.3733L54.0994 83.4499L53.0247 83.0666L52.7176 83.5266L53.4085 84.1399L53.3318 84.2166L52.5641 83.9099L52.2571 84.2933H51.7965C51.7965 84.2933 54.4832 81.0733 54.7903 75.7833C54.7903 75.7833 55.3276 71.0299 51.7197 68.1933C51.7197 68.1933 50.9521 67.5799 50.4915 67.3499C50.4915 67.3499 50.2612 67.2733 50.1077 67.0433C49.9542 66.8133 49.3401 66.3533 48.3421 66.3533L48.8795 64.5133L49.1098 64.5899L49.033 66.1233C49.033 66.1233 49.4936 66.1999 49.6471 66.2766L50.2612 64.8966L50.4915 64.9733L50.1077 66.4299L50.645 66.7366L51.4894 65.3566L51.7197 65.4333L51.1056 66.9666L51.5662 67.2733L52.7176 65.9699L52.8712 66.1233L52.0268 67.7333L52.4874 68.1933L53.9459 66.9666L54.0994 67.1199L52.8712 68.6533L53.255 69.1133L54.867 67.7333L55.0206 67.8866L53.562 69.2666C53.562 69.2666 53.8691 69.6499 54.0226 69.8799L55.865 69.1133L55.9417 69.2666L54.2529 70.3399C54.2529 70.3399 54.4832 70.7233 54.6367 71.0299L56.5558 70.5699L56.6326 70.7233L54.867 71.4899C54.867 71.4899 55.0973 72.0266 55.1741 72.3333L57.0164 72.1033V72.3333L55.3276 72.8699C55.3276 72.8699 55.4044 73.0233 55.4811 73.6366L57.1699 73.5599V73.7899L55.4811 74.1733C55.4811 74.1733 55.4811 74.7099 55.4811 74.9399L57.1699 75.0933L57.0932 75.2466Z" fill="white"/>
<path d="M97.0869 76.2432V83.9098H101.693V82.9899H98.1616V76.2432H97.0869Z" fill="white"/>
<path d="M104.533 79.9999C104.533 82.0699 106.145 83.9865 108.678 83.9865C111.288 83.9865 112.824 82.1465 112.824 79.9999C112.824 77.8532 111.212 76.0132 108.678 76.0132C106.222 76.0132 104.533 77.8532 104.533 79.9999ZM105.685 79.9999C105.685 78.3132 106.99 77.0865 108.678 77.0865C110.367 77.0865 111.672 78.3132 111.672 79.9999C111.672 81.6865 110.367 82.9132 108.678 82.9132C106.99 82.9132 105.685 81.6865 105.685 79.9999Z" fill="white"/>
<path d="M116.508 76.2432V83.9099H117.583V80.5365H118.044C118.581 80.5365 119.041 80.6899 120.116 82.2999L121.114 83.9099H122.419C121.882 83.1432 121.728 82.9132 121.344 82.3765C120.73 81.4565 120.346 80.6899 119.656 80.2299C120.5 79.9232 120.961 79.2332 120.961 78.3132C120.961 77.0099 119.963 76.1665 118.427 76.1665H116.508V76.2432ZM117.583 77.1632H118.274C119.349 77.1632 119.809 77.6232 119.809 78.3132C119.809 78.9265 119.502 79.5399 118.274 79.5399H117.583V77.1632Z" fill="white"/>
<path d="M125.566 83.9869H128.56C131.093 83.9869 132.629 82.1469 132.629 80.1536C132.629 78.3136 131.4 76.3203 128.56 76.3203H125.566V83.9869ZM126.641 77.2403H128.33C130.479 77.2403 131.477 78.5436 131.477 80.0769C131.477 80.9969 130.863 82.9136 128.407 82.9136H126.641V77.2403Z" fill="white"/>
<path d="M142.224 77.9299L143.452 80.6899H141.073L142.224 77.9299ZM141.84 76.2432L138.539 83.9865H139.691L140.689 81.6865H143.99L144.988 83.9865H146.139L142.685 76.2432H141.84Z" fill="white"/>
<path d="M150.284 80.5369H151.589C152.741 80.5369 153.278 80.9969 153.278 81.7636C153.278 82.3769 152.894 82.9903 151.666 82.9903H150.284V80.5369ZM149.21 83.9869H151.82C153.739 83.9869 154.429 82.9136 154.429 81.9169C154.429 80.8436 153.739 80.1536 152.587 79.9236C153.355 79.6169 153.739 79.0803 153.739 78.3136C153.739 77.3169 153.048 76.3203 151.359 76.3203H149.133V83.9869H149.21ZM150.284 77.2403H151.282C152.28 77.2403 152.587 77.7003 152.587 78.3136C152.587 79.1569 152.05 79.5403 150.975 79.5403H150.207V77.2403H150.284Z" fill="white"/>
<path d="M158.959 80.5369H160.263C161.415 80.5369 161.952 80.9969 161.952 81.7636C161.952 82.3769 161.568 82.9903 160.34 82.9903H158.959V80.5369ZM157.807 83.9869H160.417C162.336 83.9869 163.027 82.9136 163.027 81.9169C163.027 80.8436 162.336 80.1536 161.185 79.9236C161.952 79.6169 162.336 79.0803 162.336 78.3136C162.336 77.3169 161.645 76.3203 159.956 76.3203H157.73V83.9869H157.807ZM158.959 77.2403H159.956C160.954 77.2403 161.338 77.7003 161.338 78.3136C161.338 79.1569 160.801 79.5403 159.726 79.5403H158.959V77.2403Z" fill="white"/>
<path d="M166.405 76.2432V83.9098H170.934V82.9899H167.556V80.5365H170.703V79.5399H167.556V77.2399H170.78V76.2432H166.405Z" fill="white"/>
<path d="M173.697 76.2432V77.2399H176.384V83.9098H177.459V77.2399H180.145V76.2432H173.697Z" fill="white"/>
<path d="M182.755 76.2432V77.2399H185.442V83.9098H186.517V77.2399H189.203V76.2432H182.755Z" fill="white"/>
<path d="M190.739 77.0865V76.7799H191.046C191.122 76.7799 191.199 76.8565 191.199 76.9332C191.199 77.0099 191.122 77.0865 190.969 77.0865H190.739ZM190.585 77.6999H190.739V77.2399H190.815C190.969 77.2399 190.969 77.3165 191.122 77.5465L191.199 77.6999H191.429L191.276 77.4699C191.199 77.3165 191.122 77.2399 191.046 77.2399C191.199 77.2399 191.353 77.0865 191.353 76.9332C191.353 76.8565 191.276 76.6265 190.969 76.6265H190.508V77.6999H190.585ZM191.813 77.1632C191.813 77.6232 191.429 78.0065 190.969 78.0065C190.585 77.9299 190.201 77.6232 190.201 77.1632C190.201 76.7032 190.585 76.3199 191.046 76.3199C191.506 76.3199 191.813 76.7032 191.813 77.1632ZM191.967 77.1632C191.967 76.6265 191.506 76.1665 190.969 76.1665C190.432 76.1665 189.971 76.6265 189.971 77.1632C189.971 77.6999 190.432 78.1599 190.969 78.1599C191.583 78.0832 191.967 77.6999 191.967 77.1632Z" fill="white"/>
</svg>
