<svg width="241" height="161" viewBox="0 0 241 161" fill="none" xmlns="http://www.w3.org/2000/svg">
<path d="M184.86 41.5947H56.8604V118.594H184.86V41.5947Z" fill="black"/>
<path fill-rule="evenodd" clip-rule="evenodd" d="M120.16 50.498L129.01 73.2267L105.396 75.419L120.16 50.498Z" fill="#FE2637"/>
<path fill-rule="evenodd" clip-rule="evenodd" d="M128.964 73.2267L134.969 75.419L120.16 50.498L128.919 72.9582L128.964 73.2267Z" fill="white"/>
<path fill-rule="evenodd" clip-rule="evenodd" d="M70.766 101.369C70.766 102.309 70.3597 103.203 69.3212 103.203V103.74C71.6239 103.74 73.8814 103.606 76.2292 103.606C78.5318 103.606 83.0468 103.606 84.0853 103.875L84.8528 100.206L84.3562 100.072C83.5435 101.772 82.5953 102.577 80.2475 102.577H73.2493C73.2493 100.206 73.0687 96.6267 73.0687 93.7185C73.0687 90.8998 73.2493 86.2466 73.2493 84.7702C73.2493 83.8306 73.6556 82.9358 74.6941 82.9358V82.3989C73.9265 82.3989 72.9784 82.5331 71.9399 82.5331C70.9918 82.5331 70.0888 82.3989 68.96 82.3989V82.9358C70.6306 83.1595 70.766 83.4279 70.766 93.7185V101.369Z" fill="white"/>
<path fill-rule="evenodd" clip-rule="evenodd" d="M85.0332 94.613C85.0332 99.9372 89.0516 104.009 94.5147 104.009C99.9778 104.009 103.996 99.9372 103.996 94.613C103.996 89.2888 99.9778 85.2173 94.5147 85.2173C89.0516 85.2173 85.0332 89.2888 85.0332 94.613ZM87.5616 94.613C87.5616 89.8257 89.6385 86.0227 94.5598 86.0227C99.4812 86.0227 101.558 89.8257 101.558 94.613C101.558 99.4003 99.4812 103.203 94.5598 103.203C89.6385 103.159 87.5616 99.3556 87.5616 94.613Z" fill="white"/>
<path fill-rule="evenodd" clip-rule="evenodd" d="M106.931 94.613C106.931 99.9372 110.95 104.009 116.413 104.009C121.876 104.009 125.894 99.9372 125.894 94.613C125.894 89.2888 121.876 85.2173 116.413 85.2173C110.95 85.2173 106.931 89.2888 106.931 94.613ZM109.414 94.613C109.414 89.8257 111.491 86.0227 116.413 86.0227C121.334 86.0227 123.411 89.8257 123.411 94.613C123.411 99.4003 121.334 103.203 116.413 103.203C111.491 103.159 109.414 99.3556 109.414 94.613Z" fill="white"/>
<path fill-rule="evenodd" clip-rule="evenodd" d="M131.132 85.2173H130.68L129.687 100.206C129.551 102.488 129.326 102.935 127.926 103.248V103.696C128.693 103.696 129.416 103.606 130.183 103.606C130.951 103.606 131.718 103.696 132.486 103.696V103.248C131.583 103.159 130.861 102.532 130.861 100.698C130.861 100.027 130.861 98.8187 130.906 98.1476L131.402 89.9599H131.538L139.123 103.159L145.625 90.0046H145.715L146.257 99.2661C146.302 99.6688 146.347 100.519 146.347 101.503C146.347 102.443 146.121 103.203 145.038 103.293V103.74C145.715 103.74 146.483 103.651 147.25 103.651C148.153 103.651 148.966 103.74 149.733 103.74V103.293C148.559 103.114 148.424 102.89 148.334 100.787L147.566 85.3068H147.115L139.755 100.251L131.132 85.2173Z" fill="white"/>
<path fill-rule="evenodd" clip-rule="evenodd" d="M157.048 85.5308C156.28 85.5308 155.467 85.6203 154.564 85.6203C153.797 85.6203 152.984 85.5308 152.171 85.5308V85.9783C153.21 85.9783 153.481 86.7389 153.481 87.5442L153.616 101.682C153.616 102.488 153.21 103.248 152.442 103.248V103.696C152.984 103.696 153.752 103.606 154.564 103.606C155.467 103.606 156.235 103.696 156.777 103.696V103.248C156.009 103.248 155.558 102.488 155.558 101.682L155.693 87.5442C155.693 86.7389 155.964 85.9783 157.002 85.9783V85.5308H157.048Z" fill="white"/>
<path fill-rule="evenodd" clip-rule="evenodd" d="M170.367 88.4834L170.277 85.5752C168.922 85.62 167.613 85.2173 166.213 85.2173C162.782 85.2173 159.757 86.7385 159.757 90.5415C159.757 97.2528 169.057 94.3893 169.057 99.8925C169.057 102.174 167.251 103.203 165.175 103.203C163.414 103.203 161.292 102.443 160.705 100.564H160.253L160.344 103.293C161.969 103.74 163.594 104.054 165.22 104.054C168.471 104.054 170.909 102.264 170.909 98.9082C170.909 92.6891 161.608 95.1499 161.608 89.5572C161.608 87.1859 163.639 86.1121 165.807 86.1121C167.477 86.1121 169.374 86.8727 169.915 88.5729H170.367V88.4834Z" fill="white"/>
<path fill-rule="evenodd" clip-rule="evenodd" d="M105.351 75.3742L128.919 73.2266L134.924 75.4189C134.924 75.4189 113.794 77.2086 113.207 77.2981C112.575 77.3428 105.351 75.3742 105.351 75.3742Z" fill="#5F6062"/>
</svg>
