<svg width="241" height="161" viewBox="0 0 241 161" fill="none" xmlns="http://www.w3.org/2000/svg">
<path d="M66.9544 64.4902L63.0021 85.6631L53.1211 95.6982L56.1952 75.4075L66.9544 64.4902Z" fill="url(#paint0_linear_22_40126)"/>
<path d="M44.0082 87.5378L66.954 64.4902C67.6127 60.8511 64.3191 58.425 62.4527 58.0942C61.5744 57.9839 60.9156 58.5353 60.9156 58.5353L38.0796 81.4727C38.0796 81.4727 36.9818 82.5754 39.946 85.5529C42.9103 88.6406 44.0082 87.5378 44.0082 87.5378Z" fill="url(#paint1_linear_22_40126)"/>
<path d="M70.3577 74.5254L72.2241 76.4001L53.1209 95.6983C52.4622 99.3374 55.7558 101.764 57.6222 102.094C58.5005 102.315 59.0495 101.764 59.0495 101.764L78.2624 82.4653L80.1288 84.3399V74.5254H70.3577Z" fill="url(#paint2_linear_22_40126)"/>
<path d="M100.44 84.5606V73.2022C100.44 70.6659 99.1226 69.5631 96.5974 69.5631C95.1702 69.5631 93.4136 70.2248 92.6451 71.5481V84.5606H89.9004V67.3576L91.8765 67.2473L92.3157 69.0117H92.4255C93.6332 67.6884 95.4996 66.9165 97.366 66.9165C100.989 66.9165 103.185 69.0117 103.185 73.0919V84.5606H100.44Z" fill="black"/>
<path d="M114.163 84.8911C109.003 84.8911 106.697 82.3548 106.697 75.9588C106.697 69.5628 109.003 67.0264 114.163 67.0264C119.323 67.0264 121.519 69.5628 121.519 75.9588C121.519 82.3548 119.323 84.8911 114.163 84.8911ZM114.163 82.5753C117.457 82.5753 118.774 80.9212 118.774 75.9588C118.774 70.9964 117.457 69.3422 114.163 69.3422C110.759 69.3422 109.552 70.9964 109.552 75.9588C109.442 80.9212 110.759 82.5753 114.163 82.5753Z" fill="black"/>
<path d="M136.668 67.3574L139.743 80.1494L140.292 82.4652H140.401L140.84 80.1494L143.585 67.3574H146.22L142.048 84.5605H138.645L135.79 72.4301L135.351 70.1143H135.241L134.692 72.4301L131.728 84.5605H128.434L124.043 67.3574H126.788L129.642 80.0391L130.081 82.3549H130.191L130.63 80.0391L133.704 67.3574H136.668Z" fill="black"/>
<path d="M159.067 82.465C157.969 83.8986 156.103 84.7808 153.907 84.7808C150.723 84.7808 148.637 83.1267 148.637 79.267C148.637 76.069 150.723 74.0841 154.786 74.0841C156.213 74.0841 157.64 74.4149 158.738 74.7457V73.0916C158.738 70.3347 157.53 69.4525 154.786 69.4525C153.029 69.4525 151.492 69.7833 149.955 70.445L149.735 68.1292C151.382 67.3573 153.249 67.0264 155.225 67.0264C159.726 67.0264 161.483 68.9011 161.483 73.4224V84.5603H159.397L159.067 82.465ZM158.738 76.7307C158.299 76.5101 157.091 76.069 155.335 76.069C152.48 76.069 151.272 77.1718 151.272 79.267C151.272 81.6931 152.7 82.5753 154.676 82.5753C156.762 82.5753 158.738 81.1417 158.738 79.7081V76.7307Z" fill="black"/>
<path d="M170.373 84.8911C168.288 84.8911 166.421 84.45 165.104 83.4575L165.433 81.1417C166.75 82.1342 168.727 82.6856 170.264 82.6856C172.789 82.6856 173.777 81.4725 173.777 79.8184C173.777 75.9587 164.994 77.7232 164.994 71.9888C164.994 69.1216 167.08 67.1367 170.922 67.1367C172.569 67.1367 174.216 67.4675 175.534 68.1292L175.314 70.445C173.887 69.8936 172.24 69.5627 170.813 69.5627C168.727 69.5627 167.519 70.445 167.519 71.8785C167.519 75.5176 176.192 73.643 176.192 79.5978C176.412 82.6856 174.655 84.8911 170.373 84.8911Z" fill="black"/>
<path d="M183.439 69.4524V80.0389C183.439 81.8033 184.427 82.5753 185.964 82.5753C186.404 82.5753 187.062 82.465 187.392 82.3547L187.611 84.4499C187.062 84.6705 186.184 84.891 185.196 84.891C182.232 84.891 180.695 83.2369 180.695 80.1492V69.4524H178.279V67.3572H180.804L181.353 63.0565L183.439 62.8359V67.3572H187.611V69.4524H183.439Z" fill="black"/>
<path d="M189.697 75.5176C189.697 70.1141 192.003 67.1367 196.724 67.1367C200.786 67.1367 203.421 69.5627 203.421 75.0765C203.421 75.5176 203.421 76.069 203.311 76.3998H192.332C192.442 80.9211 194.089 82.465 197.822 82.465C199.578 82.465 201.005 82.1342 202.433 81.3622L202.762 83.678C201.335 84.45 199.578 85.0013 197.492 85.0013C192.003 84.8911 189.697 81.9136 189.697 75.5176ZM201.005 74.4149C200.896 70.7758 199.249 69.3422 196.834 69.3422C193.979 69.3422 192.662 70.9963 192.442 74.4149H201.005Z" fill="black"/>
<path d="M93.961 96.6907V97.3524H89.7891V90.0742H90.4478V96.6907H93.961Z" fill="black"/>
<path d="M102.416 97.4627C100.33 97.4627 99.5605 96.3599 99.5605 93.7133C99.5605 91.0667 100.33 89.9639 102.416 89.9639C104.502 89.9639 105.27 90.9564 105.27 93.7133C105.27 96.3599 104.502 97.4627 102.416 97.4627ZM102.416 90.6256C100.878 90.6256 100.22 91.2872 100.22 93.7133C100.22 96.1394 100.878 96.801 102.416 96.801C103.953 96.801 104.611 96.1394 104.611 93.7133C104.611 91.2872 103.953 90.6256 102.416 90.6256Z" fill="black"/>
<path d="M116.578 97.0216C116.029 97.2421 115.261 97.4627 114.492 97.4627C112.296 97.4627 111.418 96.3599 111.418 93.7133C111.418 91.0667 112.406 89.9639 114.602 89.9639C115.261 89.9639 116.029 90.0742 116.468 90.2948L116.359 90.8461C115.919 90.6256 115.261 90.5153 114.602 90.5153C112.845 90.5153 112.077 91.2872 112.077 93.7133C112.077 96.0291 112.845 96.801 114.492 96.801C115.041 96.801 115.59 96.6908 116.029 96.5805V93.4928H116.578V97.0216Z" fill="black"/>
<path d="M123.166 90.0742H123.824V97.2421H123.166V90.0742Z" fill="black"/>
<path d="M132.389 97.4628C131.62 97.4628 130.852 97.2423 130.303 96.9114L130.413 96.3601C130.961 96.6909 131.62 96.9114 132.389 96.9114C133.487 96.9114 134.145 96.3601 134.145 95.4779C134.145 93.4929 130.413 94.3751 130.413 92.0593C130.413 90.9565 131.071 90.1846 132.608 90.1846C133.267 90.1846 133.926 90.2949 134.475 90.5154L134.365 91.0668C133.816 90.8463 133.267 90.736 132.718 90.736C131.51 90.736 131.071 91.2874 131.071 92.0593C131.071 93.934 134.804 93.0518 134.804 95.4779C134.694 96.5806 133.926 97.4628 132.389 97.4628Z" fill="black"/>
<path d="M142.926 90.7358V97.3524H142.268V90.7358H140.072V90.0742H145.232V90.7358H142.926Z" fill="black"/>
<path d="M151.271 90.0742H151.93V97.2421H151.271V90.0742Z" fill="black"/>
<path d="M163.13 90.9564C162.69 90.7358 162.141 90.6255 161.592 90.6255C159.946 90.6255 159.177 91.3975 159.177 93.7133C159.177 96.1393 159.946 96.9113 161.592 96.9113C162.141 96.9113 162.69 96.801 163.13 96.5804L163.239 97.1318C162.8 97.3524 162.141 97.5729 161.483 97.5729C159.397 97.5729 158.518 96.3599 158.518 93.7133C158.518 91.1769 159.506 90.0742 161.592 90.0742C162.141 90.0742 162.91 90.1844 163.239 90.405L163.13 90.9564Z" fill="black"/>
<path d="M171.143 97.4628C170.265 97.4628 169.606 97.2423 169.057 96.9114L169.167 96.3601C169.716 96.6909 170.375 96.9114 171.143 96.9114C172.241 96.9114 172.9 96.3601 172.9 95.4779C172.9 93.4929 169.167 94.3751 169.167 92.0593C169.167 90.9565 169.826 90.1846 171.363 90.1846C172.021 90.1846 172.68 90.2949 173.229 90.5154L173.119 91.0668C172.57 90.8463 172.021 90.736 171.472 90.736C170.265 90.736 169.826 91.2874 169.826 92.0593C169.826 93.934 173.558 93.0518 173.558 95.4779C173.449 96.5806 172.68 97.4628 171.143 97.4628Z" fill="black"/>
<path d="M191.565 95.3674H188.161L187.503 97.2421H186.844L189.588 90.0742H190.357L193.102 97.2421H192.443L191.565 95.3674ZM189.588 91.2872L188.271 94.816H191.345L190.137 91.2872L189.918 90.5153L189.588 91.2872Z" fill="black"/>
<path d="M201.664 97.2421H199.029V90.0742H201.554C202.872 90.0742 203.531 90.6255 203.531 91.8386C203.531 92.8311 203.091 93.2722 202.433 93.4927C203.311 93.7133 203.75 94.2646 203.75 95.2571C203.86 96.5804 203.201 97.2421 201.664 97.2421ZM201.664 93.8235H199.688V96.6907H201.774C202.762 96.6907 203.311 96.2496 203.311 95.1468C203.201 94.2646 202.652 93.8235 201.664 93.8235ZM201.445 90.6255H199.578V93.2722H201.554C202.433 93.2722 202.872 92.8311 202.872 91.9488C202.872 91.0666 202.433 90.6255 201.445 90.6255Z" fill="black"/>
<defs>
<linearGradient id="paint0_linear_22_40126" x1="56.0995" y1="74.6969" x2="71.1366" y2="95.2162" gradientUnits="userSpaceOnUse">
<stop offset="0.00321807" stop-color="#6A931D"/>
<stop offset="0.0487377" stop-color="#81AB1F"/>
<stop offset="0.1009" stop-color="#95BE20"/>
<stop offset="0.1618" stop-color="#A4CC21"/>
<stop offset="0.2391" stop-color="#ADD421"/>
<stop offset="0.3871" stop-color="#B0D621"/>
<stop offset="0.6007" stop-color="#78A619"/>
<stop offset="0.7624" stop-color="#598913"/>
</linearGradient>
<linearGradient id="paint1_linear_22_40126" x1="56.5969" y1="68.7803" x2="37.6351" y2="88.2158" gradientUnits="userSpaceOnUse">
<stop offset="0.3792" stop-color="#B0D621"/>
<stop offset="0.5149" stop-color="#A3CD1F"/>
<stop offset="0.7224" stop-color="#82B41B"/>
<stop offset="0.871" stop-color="#679E16"/>
</linearGradient>
<linearGradient id="paint2_linear_22_40126" x1="60.1205" y1="95.1816" x2="79.0656" y2="75.6205" gradientUnits="userSpaceOnUse">
<stop offset="0.2049" stop-color="#B0D621"/>
<stop offset="1" stop-color="#679E16"/>
</linearGradient>
</defs>
</svg>
