<svg width="240" height="160" viewBox="0 0 240 160" fill="none" xmlns="http://www.w3.org/2000/svg">
<path fill-rule="evenodd" clip-rule="evenodd" d="M99.1976 66.8349C101.578 66.7777 103.899 67.5856 105.73 69.1088H105.729C107.541 70.6995 108.498 72.9479 108.498 75.618C108.498 78.288 107.545 80.5375 105.742 82.1261C103.909 83.6529 101.583 84.4613 99.1976 84.4011H95.0581V93.1282H89.168V66.8349H99.1976ZM98.6731 71.9938H95.0591V79.2422H98.6731C101.15 79.2422 102.575 77.9225 102.575 75.618C102.575 73.3502 101.117 71.9938 98.6731 71.9938Z" fill="#001C24"/>
<path d="M115.088 77.2422L114.833 74.8267H109.741V93.1281H115.424V82.8124C116.621 81.3094 117.916 80.6373 119.599 80.6373H120.285V74.9886H120.019C118.115 74.9457 116.295 75.7762 115.079 77.2432" fill="#001C24"/>
<path d="M125.089 66.4053C123.762 66.4036 122.565 67.2014 122.056 68.4266C121.546 69.6517 121.826 71.063 122.763 72.0021C123.7 72.9413 125.11 73.2234 126.337 72.7169C127.563 72.2105 128.363 71.0151 128.365 69.6884C128.426 67.9393 127.059 66.4713 125.31 66.4083C125.237 66.4083 125.165 66.4083 125.093 66.4083" fill="#001C24"/>
<path d="M127.908 74.8257H122.228V93.1281H127.908V74.8257Z" fill="#001C24"/>
<path d="M144.902 87.3236C144.902 84.5568 143.014 82.7523 139.131 81.8073C136.58 81.2055 136.149 80.8796 136.149 80.2096C136.149 79.9285 136.149 79.0741 138.196 79.0741C139.678 79.0804 141.115 79.5915 142.269 80.5232L142.519 80.7269L144.695 76.6118L144.536 76.4733C143.126 75.2442 140.699 74.4805 138.198 74.4805C133.433 74.4805 130.474 76.8114 130.474 80.565C130.474 83.3613 132.185 84.9183 136.387 85.9407C138.774 86.5029 139.192 86.9499 139.192 87.679C139.192 88.7055 137.97 88.9224 136.938 88.9224C135.217 88.9247 133.553 88.3134 132.242 87.1984L131.989 86.9754L129.771 91.1363L129.933 91.2748C131.509 92.6332 134.18 93.4774 136.902 93.4774C141.767 93.4774 144.908 91.064 144.908 87.3257" fill="#001C24"/>
<path d="M146.928 94.228C146.928 95.6424 146.063 96.5202 144.673 96.5202C143.658 96.4585 142.721 95.9559 142.108 95.1445L141.919 94.9225L138.21 98.7524L138.388 98.9378C140.053 100.672 142.376 101.619 144.779 101.544C149.316 101.544 152.61 98.3064 152.61 93.8471V74.8247H146.928V94.228Z" fill="#001C24"/>
<path d="M149.553 66.4053C148.226 66.404 147.029 67.2022 146.521 68.4275C146.012 69.6528 146.291 71.064 147.229 72.0029C148.166 72.9417 149.577 73.2234 150.803 72.7166C152.029 72.2097 152.829 71.0141 152.83 69.6874C152.891 67.9383 151.524 66.4703 149.775 66.4073C149.703 66.4073 149.629 66.4073 149.557 66.4073" fill="#001C24"/>
<path fill-rule="evenodd" clip-rule="evenodd" d="M162.66 74.4746C165.33 74.4746 166.856 75.5541 167.665 76.4421L167.893 74.825H173.011V93.1284H167.892L167.665 91.5347C166.513 92.7771 164.726 93.4787 162.66 93.4787C157.839 93.4787 154.479 89.5785 154.479 83.994C154.479 78.3891 157.842 74.4746 162.66 74.4746ZM160.192 83.993C160.192 86.7068 161.657 88.4584 163.921 88.4584C165.359 88.4584 166.435 87.8178 167.294 86.441V81.5459C166.423 80.1447 165.346 79.493 163.921 79.493C161.657 79.493 160.192 81.2588 160.192 83.993Z" fill="#001C24"/>
<path d="M193.051 74.8259H186.215L180.668 83.3432V66.5693H174.987V93.1274H179.45L183.667 87.3555L187.007 93.1274H193.466L187.407 82.4369L193.051 74.8259Z" fill="#001C24"/>
<path d="M205.476 87.6661L205.19 87.828C204.53 88.174 203.791 88.3434 203.046 88.3198C201.677 88.3198 200.861 87.5143 200.861 86.1681V79.7048H205.938V74.826H200.861V68.938H195.18V74.826H195.135L191.533 79.7048H195.179V86.2384C195.179 90.772 197.936 93.4797 202.554 93.4797C204.03 93.501 205.483 93.1133 206.753 92.3596L206.934 92.2506L205.476 87.6661Z" fill="#001C24"/>
<path d="M57.9834 55.0508C71.7625 55.0406 82.9407 66.2015 82.9508 79.9805C82.961 93.7596 71.7981 104.939 58.0211 104.949C44.2441 104.959 33.0629 93.7983 33.0527 80.0192V79.9999C33.0476 66.226 44.2095 55.0569 57.9834 55.0508Z" fill="#FF3366"/>
<path d="M57.976 66.8125C65.2573 66.8075 71.1642 72.706 71.1694 79.9873C71.1747 87.2687 65.2763 93.1757 57.995 93.1812C50.7136 93.1866 44.8064 87.2884 44.8008 80.007V79.9979C44.7995 76.5022 46.1868 73.1493 48.6576 70.6765C51.1284 68.2038 54.4803 66.8139 57.976 66.8125Z" fill="#00ADDB"/>
<path fill-rule="evenodd" clip-rule="evenodd" d="M73.2651 69.1211C75.5286 72.2963 76.7424 76.0999 76.7366 79.9993C76.7429 83.8853 75.5372 87.6765 73.2875 90.8451L75.7417 93.3013C74.483 94.9799 72.9942 96.4729 71.319 97.7361L68.8679 95.283C62.36 99.9236 53.6256 99.9276 47.1133 95.2932L44.6612 97.7473C42.9857 96.4858 41.4959 94.995 40.2355 93.3186L42.6897 90.8614C38.0709 84.3428 38.0795 75.6163 42.7111 69.1068L40.2467 66.6404C41.5077 64.9641 42.9986 63.4739 44.6755 62.2137L47.147 64.6832C53.6459 60.0806 62.3432 60.0851 68.8374 64.6944L71.3038 62.23C72.9789 63.4904 74.4684 64.9802 75.7284 66.6557L73.2651 69.1211ZM57.9939 66.8369C50.7191 66.8315 44.8167 72.7231 44.8089 79.9978L44.8129 79.9989C44.8094 83.4945 46.1953 86.8483 48.6654 89.3219C51.1355 91.7954 54.4873 93.1859 57.983 93.1872C65.2577 93.1878 71.1562 87.2922 71.1592 80.0175C71.1622 72.7428 65.2686 66.8424 57.9939 66.8369Z" fill="#FFD066"/>
<path d="M57.9753 73.7432C61.4318 73.7398 64.2367 76.5391 64.24 79.9957C64.2434 83.4523 61.444 86.2571 57.9875 86.2605C54.5309 86.2638 51.7261 83.4645 51.7227 80.0079V80.0018C51.7219 78.3427 52.3802 76.7513 53.5528 75.5775C54.7254 74.4038 56.3162 73.744 57.9753 73.7432Z" fill="#FFD066"/>
</svg>
