<svg width="241" height="161" viewBox="0 0 241 161" fill="none" xmlns="http://www.w3.org/2000/svg">
<path fill-rule="evenodd" clip-rule="evenodd" d="M49.9098 73.0769C48.7253 72.6188 47.627 72.3468 46.4568 72.354C42.0849 72.3898 38.5098 75.8828 38.4237 80.242C38.4083 81.0955 38.4112 81.9454 38.4141 82.7968V82.7969V82.797V82.7971V82.7972V82.7973V82.7974V82.7975V82.7976V82.7977C38.4153 83.1384 38.4165 83.4794 38.4165 83.8209V84.7013C38.3257 84.6059 38.2483 84.5272 38.1808 84.4586C38.0511 84.3267 37.9584 84.2323 37.8781 84.1287C33.1687 77.8727 36.3633 69.0613 43.8868 67.1645C45.6815 66.7135 47.4834 66.7493 49.2853 67.1931C49.9457 67.3578 49.9601 67.3792 49.9601 68.0592V72.4255C49.9555 72.5442 49.9451 72.6628 49.9326 72.8056C49.9255 72.8867 49.9176 72.9757 49.9098 73.0769ZM196.121 88.5308C195.856 87.8578 195.592 87.1875 195.329 86.5189C194.716 84.9616 194.107 83.4142 193.494 81.8668C193.204 81.1408 192.921 80.4117 192.636 79.6774V79.6768V79.6763C192.058 78.1883 191.472 76.679 190.809 75.1312C190.579 76.2479 189.072 86.5123 189.23 88.3018H187.112C187.149 88.1752 187.188 88.0533 187.227 87.934C187.314 87.662 187.397 87.4037 187.442 87.135C187.607 86.1472 187.744 85.1594 187.873 84.1645C188.246 81.33 188.619 78.4954 188.971 75.6609C188.994 75.4812 189.019 75.3013 189.045 75.1209L189.046 75.1195C189.168 74.2656 189.292 73.4008 189.079 72.4971H192.604C193.009 74.2293 193.666 75.8502 194.321 77.4664C194.605 78.1676 194.889 78.868 195.152 79.5763C195.564 80.6919 196 81.7976 196.436 82.9046L196.437 82.9069L196.438 82.9088L196.439 82.9102L196.44 82.9129L196.441 82.9152C196.641 83.424 196.842 83.9331 197.04 84.4437C197.099 84.5891 197.167 84.7313 197.252 84.908V84.9099C197.293 84.9936 197.336 85.085 197.385 85.1881C197.428 85.1065 197.468 85.0354 197.504 84.971C197.576 84.8432 197.634 84.7416 197.672 84.6369C198.899 81.33 200.127 78.023 201.333 74.7089C201.503 74.2456 201.616 73.7594 201.732 73.2658C201.788 73.0275 201.844 72.7873 201.907 72.5472C202.374 72.4255 204.506 72.3969 205.36 72.5186C205.174 73.6566 205.344 74.771 205.514 75.888C205.573 76.2745 205.632 76.6613 205.676 77.0495C205.963 79.5333 206.287 82.0171 206.631 84.4938C206.668 84.7645 206.698 85.0366 206.728 85.3092V85.3094V85.3096V85.3098V85.31C206.838 86.3127 206.949 87.3227 207.406 88.3018H204.599C204.774 87.2057 204.618 86.1631 204.463 85.1303C204.414 84.8007 204.365 84.4721 204.327 84.143C204.108 82.3006 203.866 80.4621 203.624 78.6217V78.6202V78.6199V78.6196V78.6194V78.6191V78.6189V78.6186C203.539 77.979 203.455 77.3391 203.372 76.6988C203.33 76.3777 203.281 76.0566 203.23 75.7219L203.228 75.7065C203.209 75.5836 203.19 75.4589 203.171 75.3317C202.88 75.4071 202.82 75.6188 202.766 75.8106C202.753 75.8555 202.741 75.8993 202.726 75.9401C201.958 77.9653 201.204 79.9978 200.451 82.0302V82.0303L200.45 82.0304V82.0306V82.0307V82.0308V82.0309V82.0311V82.0312V82.0313V82.0314C200.294 82.4492 200.133 82.8656 199.972 83.2821C199.601 84.243 199.229 85.2043 198.914 86.183C198.469 87.5502 197.435 88.1371 196.121 88.5308ZM57.0097 80.5354C56.6149 78.9464 55.8683 77.522 54.6694 76.1477C54.6594 76.2872 54.6494 76.3867 54.6416 76.4647V76.4649V76.465L54.6415 76.4651C54.6325 76.5548 54.6264 76.6161 54.6264 76.6773C54.6264 77.0262 54.6295 77.3758 54.6326 77.7255V77.7257V77.7258V77.7259V77.726V77.7261V77.7263V77.7264V77.7265V77.7266V77.7267C54.64 78.5677 54.6475 79.4102 54.612 80.2491C54.5833 81.0007 54.5187 81.7809 54.3177 82.5039C53.1403 86.8201 48.9048 89.039 45.2795 88.3662C44.8107 88.2794 44.3484 88.157 43.8751 88.0317L43.8748 88.0316C43.6451 87.9708 43.4129 87.9093 43.1761 87.8508C43.1684 87.889 43.1571 87.9282 43.1457 87.9676C43.1251 88.0388 43.1043 88.1109 43.1043 88.1801C43.1007 88.9782 43.1007 89.7763 43.1007 90.5744C43.1007 91.3725 43.1007 92.1706 43.0971 92.9687C43.0899 93.3409 43.2622 93.5056 43.6212 93.5986C45.222 94.0209 46.8301 94.1068 48.4525 93.8133C54.3464 92.754 58.5891 86.9919 57.0097 80.5354ZM154.614 74.125V74.1261C154.591 74.3148 154.57 74.4922 154.57 74.6731C154.563 78.5098 154.556 82.3535 154.577 86.1902C154.577 86.6683 154.634 87.15 154.693 87.6477V87.6488C154.718 87.8585 154.743 88.0711 154.764 88.2874H151.921C152.217 87.2393 152.191 86.1995 152.165 85.1648C152.157 84.8428 152.149 84.5213 152.151 84.2003C152.172 81.0079 152.165 77.8083 152.151 74.6087C152.151 74.1406 152.106 73.669 152.06 73.1754C152.039 72.952 152.018 72.7241 152 72.49C152.01 72.4877 152.022 72.4848 152.036 72.4815C152.111 72.4633 152.239 72.4327 152.366 72.4327C152.662 72.4327 152.957 72.4325 153.253 72.4323C154.728 72.4313 156.201 72.4303 157.678 72.4542C158.195 72.4613 158.727 72.5544 159.229 72.6904C162.366 73.5207 162.84 76.3624 161.691 78.5455C161.239 79.4045 160.543 79.9986 159.66 80.3851C159.489 80.4587 159.324 80.5278 159.109 80.6173L159.108 80.6178L159.106 80.6186L159.105 80.6189L158.928 80.6929L159.343 81.2918C160.127 82.4231 160.886 83.5183 161.656 84.6083C161.835 84.8605 162.009 85.1168 162.185 85.3741C162.88 86.3942 163.584 87.4285 164.628 88.2803C163.702 88.3733 162.897 88.3805 162.108 88.2087C161.584 88.0942 161.254 87.7005 160.966 87.2782C160.478 86.5588 159.99 85.8377 159.502 85.1165C159.014 84.3953 158.526 83.6742 158.037 82.9548C157.859 82.6889 157.679 82.424 157.499 82.1593V82.1587L157.498 82.1574V82.1571L157.497 82.1564L157.496 82.1551C157.208 81.7303 156.92 81.306 156.638 80.879C156.564 80.7689 156.495 80.6541 156.42 80.5294V80.5289V80.5288C156.363 80.4348 156.303 80.3352 156.235 80.2277C156.352 80.1966 156.462 80.1694 156.568 80.1431C156.756 80.0967 156.93 80.0535 157.104 79.9986C158.274 79.6335 159.236 79.0323 159.66 77.8011C160.313 75.9043 159.33 74.2508 157.355 73.9359C156.472 73.807 155.589 73.807 154.642 73.8786C154.633 73.9632 154.624 74.0447 154.614 74.1242V74.1245V74.1248V74.125ZM181.311 72.4685H179.064C179.37 73.3448 179.356 74.2157 179.342 75.0719C179.34 75.2018 179.338 75.3313 179.337 75.4605C179.344 77.6794 179.344 79.8984 179.337 82.1173C179.337 82.5898 179.316 83.0693 179.258 83.5418C179.036 85.4601 177.944 86.7127 176.164 86.9847C175.468 87.0849 174.728 87.0634 174.025 86.9632C172.589 86.7628 171.706 85.8896 171.412 84.4794C171.29 83.8782 171.218 83.2554 171.225 82.6399C171.242 81.5087 171.228 80.3775 171.215 79.2469V79.2466C171.187 76.9861 171.16 74.7277 171.376 72.4757H168.511C168.823 73.3265 168.815 74.1558 168.808 74.9822V74.9824V74.9826V74.9828V74.983C168.807 75.1088 168.806 75.2345 168.806 75.3603C168.809 76.4315 168.807 77.5015 168.805 78.5709V78.5717V78.5724V78.5732V78.574V78.5747V78.5755C168.803 80.1771 168.8 81.7771 168.813 83.3771C168.834 86.3834 170.335 88.1586 173.307 88.6382C174.52 88.8386 175.74 88.7599 176.939 88.4736C179.086 87.9582 180.414 86.6483 180.809 84.4651C180.945 83.7207 181.017 82.9548 181.031 82.1961C181.048 81.011 181.045 79.8259 181.043 78.6407V78.6379C181.041 77.7481 181.039 76.8584 181.046 75.9687C181.047 75.7195 181.042 75.4699 181.036 75.2201V75.2193V75.2185V75.2177V75.217V75.2162V75.2154C181.016 74.3042 180.996 73.3885 181.311 72.4685ZM144.29 78.8319V80.9434C143.089 80.6491 141.898 80.6714 140.691 80.694C140.195 80.7032 139.696 80.7126 139.193 80.7001V86.5982C139.247 86.6104 139.3 86.6267 139.354 86.6429C139.457 86.6744 139.56 86.7055 139.66 86.7055C140.006 86.7071 140.352 86.7102 140.698 86.7132C141.908 86.7237 143.115 86.7342 144.326 86.6841C144.796 86.6647 145.266 86.5507 145.754 86.4325C145.989 86.3756 146.227 86.3177 146.472 86.2689C146.461 86.3763 146.45 86.4855 146.439 86.5961C146.394 87.0609 146.345 87.5513 146.264 88.0369C146.243 88.1514 146.056 88.2731 145.919 88.3232C145.83 88.36 145.721 88.3544 145.613 88.3488H145.612L145.576 88.3469L145.546 88.3457L145.524 88.345C145.514 88.3448 145.505 88.3447 145.496 88.3447H137.176C137.045 88.3447 136.915 88.3306 136.768 88.3148C136.681 88.3054 136.588 88.2954 136.486 88.2874C136.814 87.2179 136.789 86.157 136.765 85.1079V85.1078V85.1077V85.1076V85.1075C136.758 84.8017 136.75 84.4968 136.752 84.1931C136.774 81.0222 136.766 77.8512 136.752 74.6803C136.747 74.1761 136.695 73.6755 136.642 73.1682C136.62 72.9625 136.598 72.7558 136.58 72.5472C137.003 72.4184 145.022 72.3898 145.891 72.5472V74.1578C145.59 74.1461 145.29 74.1328 144.99 74.1196C144.184 74.084 143.377 74.0484 142.567 74.0432C142.327 74.0417 142.088 74.0382 141.848 74.0347C140.967 74.0218 140.082 74.0089 139.179 74.0933V78.9178C139.925 79.1253 142.517 79.0824 144.29 78.8319ZM120.169 72.4685H116.852C117.656 73.2917 118.051 74.1864 118.41 75.0954C119.551 78.1209 120.685 81.1499 121.819 84.18L121.82 84.1824L121.821 84.1852L121.824 84.1932L121.827 84.2012L121.83 84.2092C122.305 85.4778 122.78 86.7466 123.256 88.0154C123.319 88.1938 123.391 88.369 123.467 88.5518V88.552C123.504 88.6405 123.541 88.7309 123.579 88.8243C124.835 88.4378 125.855 87.8938 126.343 86.6125C127.42 83.7939 128.511 80.9837 129.602 78.1731L129.605 78.1655L129.608 78.1595L129.61 78.1531C130.276 76.438 130.942 74.7227 131.605 73.0053C131.647 72.8987 131.667 72.786 131.689 72.6712V72.6711C131.7 72.6088 131.712 72.5458 131.727 72.4828H129.76C129.657 72.8099 129.563 73.1296 129.47 73.4431V73.4439L129.469 73.4444V73.4447V73.4449V73.4451C129.29 74.0502 129.118 74.6327 128.906 75.2028C127.994 77.6242 127.066 80.0414 126.138 82.4608L126.135 82.4684L126.131 82.4775L126.124 82.4953C125.836 83.2471 125.547 83.9991 125.259 84.7514C125.201 84.8954 125.134 85.0329 125.063 85.1769L125.062 85.1779C125.028 85.2484 124.993 85.3205 124.957 85.3957C124.918 85.3626 124.885 85.3396 124.859 85.3214C124.823 85.2963 124.8 85.2804 124.792 85.2597C124.684 85.0234 124.577 84.7801 124.491 84.5367C123.988 83.1168 123.454 81.7085 122.919 80.2985V80.2983C121.942 77.721 120.962 75.1381 120.169 72.4685ZM106.787 74.4369C106.49 75.2112 106.195 75.9686 105.904 76.7154V76.7157C105.289 78.2952 104.692 79.8275 104.131 81.3729C103.894 82.0226 103.635 82.6653 103.377 83.309V83.3091L103.376 83.3116V83.3123V83.3124H103.375V83.3125C102.729 84.9228 102.079 86.5394 101.741 88.2874H99.1425C100.027 87.1786 100.503 85.9158 100.974 84.6637V84.6635C101.13 84.2507 101.284 83.839 101.454 83.4344C102.674 80.5072 103.844 77.5657 105.014 74.6242V74.623C105.196 74.1702 105.339 73.7014 105.487 73.2189V73.2187V73.2179L105.488 73.2144L105.489 73.2133C105.562 72.9731 105.637 72.7295 105.718 72.4828H108.388C108.42 72.5499 108.454 72.6194 108.49 72.6911V72.6913C108.56 72.8336 108.635 72.9843 108.697 73.1413L109.827 75.8924V75.8943C111.124 79.0517 112.421 82.2115 113.722 85.367C113.752 85.4386 113.781 85.5103 113.811 85.582C114.189 86.4992 114.566 87.4161 115.259 88.1729C114.699 88.3733 112.775 88.402 112.093 88.2445C111.214 85.3829 110.101 82.6202 108.99 79.86C108.358 78.2912 107.727 76.7233 107.139 75.1384C107.1 75.0106 107.033 74.8895 106.937 74.715C106.894 74.6353 106.844 74.5446 106.787 74.4369ZM91.7764 87.2404V87.2409V87.2413C91.7587 87.5815 91.7408 87.925 91.7267 88.2731C92.5379 88.402 94.0024 88.3733 94.4188 88.2302C94.4037 87.9812 94.3861 87.7348 94.3686 87.4902L94.3685 87.49V87.4898C94.3276 86.9188 94.2874 86.3577 94.2824 85.7965C94.2609 83.5847 94.2393 81.3658 94.2824 79.1468C94.2931 78.4881 94.2797 77.8282 94.2663 77.1681C94.2346 75.6045 94.2029 74.0402 94.4906 72.49H91.5616C91.8731 73.3349 91.8656 74.169 91.8582 74.9923C91.8571 75.1176 91.8559 75.2426 91.8559 75.3674C91.8559 76.1832 91.8564 76.9994 91.8568 77.8159C91.8582 80.2661 91.8595 82.7184 91.8488 85.1666C91.8488 85.8509 91.813 86.5385 91.7764 87.2402V87.2403V87.2404ZM46.5142 77.0281C48.4166 77.0281 49.9529 78.5456 49.9529 80.4209C49.9529 82.2891 48.4095 83.8138 46.5142 83.8138C44.6047 83.8138 43.0971 82.3178 43.1043 80.4138C43.0971 78.5098 44.5975 77.0281 46.5142 77.0281ZM82.0496 73.7784C84.0669 74.9881 85.1796 76.7847 85.4596 79.1182C85.6031 80.2921 85.5457 81.4517 85.2155 82.5969C84.3253 85.5531 82.2291 87.2281 79.3288 87.9868C78.4817 88.2087 77.5844 88.3089 76.7085 88.3376C75.5877 88.3776 74.4633 88.3686 73.3403 88.3596C72.8594 88.3557 72.3787 88.3519 71.8987 88.3519C71.7945 88.3519 71.6903 88.3376 71.5607 88.3199C71.4851 88.3095 71.4008 88.298 71.3029 88.2874C71.6016 87.3748 71.5964 86.5015 71.5913 85.6376C71.5907 85.5258 71.59 85.4142 71.59 85.3026V75.1384C71.59 75.0755 71.5901 75.0126 71.5903 74.9497C71.5922 74.1322 71.5941 73.3147 71.2741 72.4971C71.336 72.49 71.3924 72.4821 71.4451 72.4747C71.5513 72.4598 71.6424 72.447 71.7336 72.447C72.2054 72.447 72.6776 72.4452 73.1501 72.4434C74.5683 72.4381 75.9886 72.4327 77.4049 72.4757C79.0488 72.5258 80.621 72.9266 82.0496 73.7784ZM79.9534 85.7106C81.4322 84.8731 82.387 83.6348 82.667 81.9599C82.8034 81.151 82.8465 80.2921 82.7603 79.4761C82.5091 76.9207 81.2384 74.9666 78.3094 74.2938C76.9526 73.9788 75.5599 74.0432 74.1744 74.1291C74.1506 74.1291 74.1268 74.1511 74.0905 74.1847C74.072 74.2018 74.0503 74.2219 74.0236 74.2437V86.6554C76.1342 86.7843 78.1228 86.7413 79.9534 85.7106Z" fill="#E35F0E"/>
</svg>
