<svg width="241" height="161" viewBox="0 0 241 161" fill="none" xmlns="http://www.w3.org/2000/svg">
<path fill-rule="evenodd" clip-rule="evenodd" d="M167.75 61.1925L159.421 74.6895H176.052L167.75 61.1925ZM190.099 61.1375L206.207 85.1627C206.564 85.6849 206.344 86.4271 205.575 86.4546H184.931C183.584 86.4546 183.144 86.2072 182.567 85.2726L178.993 79.4725H156.48L152.769 85.4925C152.329 86.2072 152.109 86.4546 151.23 86.4546H144.88C144.055 86.4546 143.918 85.7949 144.275 85.2451L160.768 60.5603C160.827 60.4731 160.886 60.3854 160.945 60.2971C162.656 57.7414 164.634 54.7876 173.111 54.7876H176.547C185.068 54.7876 186.635 56.0796 190.099 61.1375ZM58.6474 73.5898C58.6474 73.5898 54.689 73.5623 54.6065 73.5623V59.8455H58.6749C63.6778 59.8455 69.0381 61.2749 69.0381 66.8551C69.0381 72.4353 63.7053 73.5898 58.6474 73.5898ZM60.819 54.9525H48.5865C39.1854 54.9525 34.9521 58.1137 34.9521 66.3053V85.4374C34.9521 85.9872 35.447 86.4545 36.0518 86.4545H53.5345C54.1392 86.4545 54.6065 86.0147 54.6065 85.4374V78.4828H60.7915C79.0441 78.4828 89.5996 76.0913 89.5996 66.7451C89.5996 57.344 79.0441 54.9525 60.819 54.9525ZM113.488 54.9525C104.279 54.9525 99.9353 58.1961 99.9353 66.2503V85.4374C99.9353 85.9872 100.43 86.4545 101.008 86.4545H118.82C119.453 86.4545 119.892 86.0147 119.892 85.4374V75.8439H140.894C141.499 75.8439 141.966 75.3766 141.966 74.8268V71.4182C141.966 70.8684 141.471 70.4011 140.894 70.4011H119.892V60.6426H144.385C144.99 60.6426 145.457 60.1753 145.457 59.6255V55.9695C145.457 55.3648 145.017 54.9525 144.357 54.9525H113.488Z" fill="#A4293D"/>
<path fill-rule="evenodd" clip-rule="evenodd" d="M167.558 99.9515C167.558 102.783 169.894 103.195 171.296 103.195C172.671 103.195 175.007 102.783 175.007 99.9515C175.007 97.1202 172.698 96.7079 171.296 96.7079C169.922 96.7079 167.558 97.1202 167.558 99.9515ZM165.194 99.924C165.194 97.0102 167.475 95.251 171.296 95.251C175.117 95.251 177.399 97.0102 177.399 99.924C177.399 102.838 175.117 104.597 171.296 104.597C167.475 104.597 165.194 102.838 165.194 99.924ZM117.199 97.8898C117.199 99.8587 119.266 100.25 121.29 100.633L121.322 100.639L122.064 100.776C123.191 100.996 123.878 101.271 123.878 101.848C123.878 102.783 122.174 103.113 120.717 103.113C119.618 103.113 117.171 102.755 117.171 102.755V104.295C117.171 104.295 119.233 104.569 120.745 104.569C125.445 104.569 126.16 102.755 126.16 101.656C126.16 99.8415 124.016 99.4291 122.119 99.0993L121.212 98.9343C120.085 98.6869 119.37 98.412 119.37 97.8073C119.37 97.0376 120.855 96.7627 122.229 96.7627C123.026 96.7627 125.198 97.0376 125.198 97.0376V95.5807C125.198 95.5807 123.054 95.2783 122.009 95.2783C118.958 95.2783 117.199 96.2404 117.199 97.8898ZM61.7811 95.4434V104.432H70.1102V103.003H64.0352V100.529H68.5984V99.1269H64.0352V96.8454H70.0277V95.4434H61.7811ZM96.5818 95.4434L96.6918 102.288L90.9192 95.4434H88.1703V104.432H90.2594L90.1496 97.5326L95.9221 104.432H98.671V95.4434H96.5818ZM204.365 102.288L204.255 95.4434H206.372V104.432H203.596L197.823 97.5326L197.933 104.432H195.844V95.4434H198.593L204.365 102.288ZM144.385 95.4158H146.694V104.404H144.385V95.4158ZM38.9655 99.8416H37.2337V96.8454H39.0205C40.6698 96.8454 41.6869 97.0928 41.6869 98.2748C41.6594 99.3743 40.8622 99.8416 38.9655 99.8416ZM39.1029 95.4434H34.9521V104.432H37.2337V101.243H39.1029C43.3637 101.243 43.9959 99.3743 43.9959 98.2473C43.9959 96.3506 42.4016 95.4434 39.1029 95.4434Z" fill="#000100"/>
</svg>
