<svg width="241" height="161" viewBox="0 0 241 161" fill="none" xmlns="http://www.w3.org/2000/svg">
<path fill-rule="evenodd" clip-rule="evenodd" d="M122.666 71.8447V87.5644H124.142V75.0491L131.134 81.2491L138.189 75.0426V87.5644H139.663V71.8512L131.136 79.1085L122.666 71.8447ZM68.543 72.5583H70.0174V86.6225H83.2398V88.1931H68.543V72.5583ZM107.996 84.9082C108.558 84.3225 108.903 83.5409 108.967 82.7067V72.5583H110.45V82.7067C110.395 83.9582 109.896 85.1411 109.055 86.0177C107.711 87.4578 105.589 88.1931 102.748 88.1931C95.0655 88.1931 94.9775 83.5246 94.9775 83.3267V72.5583H96.454V83.3267C96.456 83.4572 96.6053 86.6225 102.74 86.6225C105.172 86.6225 106.941 86.046 107.996 84.9082ZM153.417 72.5583H151.941V87.5644H153.417V72.5583ZM165.987 74.1289H171.476V87.5644H172.952V74.1289H178.322V72.5583H165.987V74.1289ZM204.534 79.1086C204.122 75.4551 201.455 72.5514 198.031 72.0285C194.607 71.5055 191.28 73.4937 189.918 76.8762C188.556 80.2587 189.499 84.1925 192.217 86.4681C193.555 87.5978 195.213 88.2114 196.921 88.2084C197.228 88.2083 197.536 88.1887 197.841 88.1497C199.854 87.8953 201.689 86.8004 202.943 85.1059C204.197 83.4114 204.766 81.2563 204.526 79.1151L204.534 79.1086ZM201.792 84.1273C200.065 86.4609 197.081 87.2701 194.515 86.1001C191.95 84.9301 190.442 82.0728 190.841 79.1335C191.239 76.1943 193.443 73.9061 196.215 73.5547C197.84 73.3445 199.477 73.834 200.761 74.9143C203.434 77.1584 203.892 81.2826 201.784 84.1273H201.792Z" fill="black" fill-opacity="0.96"/>
<path fill-rule="evenodd" clip-rule="evenodd" d="M37.1822 71.0947C36.6816 71.0947 36.2757 71.5209 36.2757 72.0466C36.2757 72.5723 36.6816 72.9985 37.1822 72.9985C37.6828 72.9985 38.0887 72.5723 38.0887 72.0466C38.0875 71.5214 37.6823 71.0959 37.1822 71.0947ZM44.1392 72.4836C44.3691 72.4836 44.5554 72.288 44.5554 72.0466C44.5554 71.8053 44.3691 71.6096 44.1392 71.6096C43.9094 71.6096 43.7231 71.8053 43.7231 72.0466C43.7231 72.288 43.9094 72.4836 44.1392 72.4836ZM51.1539 72.4836C51.3837 72.4836 51.57 72.288 51.57 72.0466C51.57 71.8053 51.3837 71.6096 51.1539 71.6096C50.9241 71.6096 50.7378 71.8053 50.7378 72.0466C50.7378 72.288 50.9241 72.4836 51.1539 72.4836ZM51.57 79.3527C51.57 79.594 51.3837 79.7897 51.1539 79.7897C50.9241 79.7897 50.7378 79.594 50.7378 79.3527C50.7378 79.1113 50.9241 78.9156 51.1539 78.9156C51.3837 78.9156 51.57 79.1113 51.57 79.3527ZM44.1392 79.7897C44.3691 79.7897 44.5554 79.594 44.5554 79.3527C44.5554 79.1113 44.3691 78.9156 44.1392 78.9156C43.9094 78.9156 43.7231 79.1113 43.7231 79.3527C43.7231 79.594 43.9094 79.7897 44.1392 79.7897ZM50.3171 86.2929C50.458 85.9373 50.7892 85.7059 51.156 85.7068C51.6553 85.7091 52.0593 86.1343 52.0604 86.6587C52.0604 87.0439 51.8393 87.3912 51.5003 87.5384C51.1614 87.6856 50.7713 87.6037 50.5122 87.331C50.2532 87.0583 50.1761 86.6485 50.3171 86.2929ZM44.133 84.2226C42.8524 84.2249 41.8159 85.3167 41.8175 86.6615C41.819 88.0063 42.8579 89.0955 44.1385 89.0947C45.4191 89.0939 46.4568 88.0034 46.4568 86.6586C46.4563 86.012 46.2112 85.392 45.7754 84.9352C45.3396 84.4783 44.7488 84.222 44.133 84.2226ZM35.0374 78.4215C35.397 77.511 36.2436 76.9178 37.1822 76.9187C38.4617 76.9199 39.4987 78.0088 39.4998 79.3526C39.5006 80.3382 38.9358 81.2273 38.0688 81.6049C37.2018 81.9825 36.2035 81.7743 35.5398 81.0773C34.8762 80.3803 34.6778 79.332 35.0374 78.4215ZM35.4579 86.6585C35.4579 85.6584 36.2299 84.8477 37.1822 84.8477C38.134 84.8489 38.9054 85.6589 38.9065 86.6585C38.9065 87.6586 38.1345 88.4694 37.1822 88.4694C36.2299 88.4694 35.4579 87.6586 35.4579 86.6585Z" fill="#1E73BE"/>
</svg>
