<svg width="241" height="161" viewBox="0 0 241 161" fill="none" xmlns="http://www.w3.org/2000/svg">
<g clip-path="url(#clip0_22_40164)">
<path d="M63.4789 95.9232C73.1134 95.9232 80.9237 88.1129 80.9237 78.4785C80.9237 68.844 73.1134 61.0337 63.4789 61.0337C53.8445 61.0337 46.0342 68.844 46.0342 78.4785C46.0342 88.1129 53.8445 95.9232 63.4789 95.9232Z" fill="white"/>
<path d="M63.4787 58C59.4284 58 55.4691 59.201 52.1014 61.4513C48.7337 63.7015 46.1088 66.8998 44.5589 70.6418C43.0089 74.3838 42.6033 78.5013 43.3935 82.4738C44.1837 86.4463 46.1341 90.0952 48.9981 92.9592C51.8621 95.8232 55.511 97.7736 59.4835 98.5638C63.456 99.354 67.5735 98.9484 71.3155 97.3984C75.0575 95.8484 78.2558 93.2236 80.506 89.8559C82.7563 86.4882 83.9573 82.5289 83.9573 78.4786C83.9512 73.0492 81.7916 67.844 77.9525 64.0048C74.1133 60.1657 68.9081 58.0061 63.4787 58V58ZM63.4787 95.2025C60.171 95.2025 56.9376 94.2217 54.1874 92.384C51.4371 90.5464 49.2935 87.9345 48.0277 84.8786C46.7619 81.8227 46.4307 78.4601 47.076 75.216C47.7213 71.9719 49.3141 68.9919 51.6529 66.653C53.9918 64.3141 56.9717 62.7213 60.2158 62.076C63.46 61.4307 66.8226 61.7619 69.8785 63.0277C72.9344 64.2935 75.5463 66.437 77.384 69.1873C79.2216 71.9375 80.2025 75.1709 80.2025 78.4786C80.1974 82.9125 78.4339 87.1633 75.2987 90.2986C72.1634 93.4338 67.9126 95.1974 63.4787 95.2025V95.2025Z" fill="#FE5700"/>
<path d="M63.4782 65.4341C60.8982 65.4341 58.3762 66.1991 56.231 67.6325C54.0859 69.0658 52.4139 71.1031 51.4266 73.4867C50.4392 75.8702 50.1809 78.4931 50.6842 81.0235C51.1876 83.5539 52.4299 85.8782 54.2543 87.7025C56.0786 89.5268 58.4029 90.7692 60.9333 91.2725C63.4637 91.7759 66.0865 91.5175 68.4701 90.5302C70.8537 89.5429 72.891 87.8709 74.3243 85.7258C75.7577 83.5806 76.5227 81.0585 76.5227 78.4786C76.5188 75.0202 75.1432 71.7045 72.6977 69.259C70.2523 66.8136 66.9366 65.438 63.4782 65.4341V65.4341ZM63.4782 87.7683C61.6409 87.7684 59.8448 87.2236 58.317 86.2028C56.7893 85.182 55.5986 83.7312 54.8955 82.0337C54.1923 80.3362 54.0083 78.4683 54.3668 76.6663C54.7252 74.8642 55.61 73.2089 56.9092 71.9097C58.2084 70.6105 59.8636 69.7257 61.6657 69.3672C63.4677 69.0088 65.3356 69.1927 67.0331 69.8959C68.7306 70.599 70.1815 71.7897 71.2023 73.3174C72.2231 74.8451 72.7679 76.6412 72.7679 78.4786C72.7651 80.9415 71.7855 83.3027 70.0439 85.0443C68.3024 86.7859 65.9411 87.7655 63.4782 87.7683V87.7683Z" fill="#FE5700"/>
<path d="M63.4784 83.9989C66.5273 83.9989 68.9989 81.5273 68.9989 78.4784C68.9989 75.4296 66.5273 72.958 63.4784 72.958C60.4296 72.958 57.958 75.4296 57.958 78.4784C57.958 81.5273 60.4296 83.9989 63.4784 83.9989Z" fill="#FE5700"/>
<path d="M114.409 94.3059C103.535 99.6042 90.1282 92.1866 91.0036 79.9773C91.7869 67.6759 105.056 61.4561 115.468 67.9984L113.165 71.7302C92.3397 61.7786 89.2989 97.4851 112.658 89.929L114.409 94.3059Z" fill="black"/>
<path d="M132.514 79.931V90.3896C132.514 91.9562 132.054 92.9237 130.856 94.0293C129.612 95.2734 126.801 96.0106 123.76 96.0106C119.061 96.0106 115.053 94.2138 115.053 89.6985C115.053 84.262 119.568 81.1291 127.677 81.0828V80.5761C127.677 77.0286 127.631 75.9228 124.498 75.9228C122.24 75.9228 121.134 76.3373 120.996 78.4567H116.251C116.251 74.0799 118.785 72.4213 124.498 72.3291C130.211 72.4213 132.514 74.725 132.514 79.931ZM127.815 84.8607H127.124C125.237 84.8729 123.378 85.314 121.687 86.1508C120.259 86.842 119.568 87.9938 119.568 89.2837C119.568 91.0805 120.766 91.7256 123.991 91.7256C126.755 91.7256 127.815 91.311 127.815 90.3435L127.815 84.8607Z" fill="black"/>
<path d="M152.187 76.7982C153.063 78.6872 153.478 80.8526 153.478 83.4327C153.478 86.7959 152.879 89.7908 151.911 91.5414C150.253 94.4441 147.027 96.0106 142.558 96.0106C141.506 96.0015 140.457 95.8935 139.425 95.6881V102H134.634L134.68 77.8579C134.68 74.218 137.674 72.3291 143.388 72.3291C148.041 72.3291 150.713 73.6652 152.187 76.7982ZM148.87 84.4463C148.87 81.4517 148.686 80.0233 148.087 78.7793C147.212 77.1207 145.783 76.4756 142.927 76.4756C140.301 76.4756 139.333 76.9824 139.333 78.503V91.4954C139.886 91.6797 141.591 91.864 142.65 91.864C145.231 91.864 147.027 90.9887 148.041 89.33C148.548 88.4545 148.87 86.5196 148.87 84.4463V84.4463Z" fill="black"/>
<path d="M155.503 70.0254V65.4642L160.295 65.0034V69.5647L155.503 70.0254ZM160.295 95.5958V72.5593L155.503 73.02V95.5957L160.295 95.5958Z" fill="black"/>
<path d="M177.849 89.3299C177.849 91.5413 176.927 93.3381 175.085 94.5362C173.472 95.5035 171.353 96.0564 169.141 96.0564C166.93 96.0564 164.442 95.7799 162.276 94.7664L163.566 91.0805C165.363 91.956 167.436 92.2323 169.049 92.2323C171.629 92.2323 172.965 91.265 172.965 89.3299C172.919 88.1781 172.09 87.1645 170.385 86.335C168.726 85.4137 167.16 84.5384 165.548 83.7551C163.152 82.3728 162.645 80.8524 162.599 78.9173C162.599 76.752 163.474 75.0474 165.225 73.8955C166.653 72.928 168.45 72.4212 170.477 72.375C172.597 72.375 174.808 72.7437 176.559 73.573L175.407 77.2127C173.656 76.752 171.813 76.2452 170.477 76.2452C168.266 76.2452 167.16 77.0745 167.206 78.8253C167.206 79.7929 168.127 80.7142 169.878 81.4975C174.532 83.6168 174.854 83.8933 174.946 83.9854C176.881 85.2754 177.803 87.0723 177.849 89.3299Z" fill="black"/>
<path d="M197.475 80.0694V95.5959H192.729V80.6684C192.729 77.259 192.038 76.5219 188.813 76.5219C186.97 76.5219 185.726 76.7522 184.344 77.4433V95.596H179.599V64.1282L184.344 63.6675V73.2045C185.818 72.6057 187.339 72.4215 189.09 72.4215C194.618 72.4215 197.475 74.8632 197.475 80.0694Z" fill="black"/>
</g>
<defs>
<clipPath id="clip0_22_40164">
<rect width="154.475" height="44" fill="white" transform="translate(43 58)"/>
</clipPath>
</defs>
</svg>
