<svg width="240" height="160" viewBox="0 0 240 160" fill="none" xmlns="http://www.w3.org/2000/svg">
<path d="M183.222 82.1006H57V106.552H183.222V82.1006Z" fill="#ED1C24"/>
<path d="M92.1857 93.0439H94.6182C95.8344 93.0439 97.0494 92.7739 97.0494 91.7639C97.0494 90.7839 95.7682 90.4852 94.6182 90.4852H92.1857V93.0439ZM92.1857 98.0652H94.8832C96.0544 98.0652 97.2032 97.6864 97.2032 96.7389C97.2032 95.6664 96.2319 95.4114 94.8832 95.4114H92.1857V98.0652ZM87.4082 88.3052H95.5682C99.3507 88.3052 101.826 89.4439 101.826 91.4339C101.826 92.8539 100.233 93.7064 98.4857 94.0702V94.1014C100.588 94.4164 102.245 95.4114 102.245 97.0389C102.245 98.5714 101.031 100.245 96.1657 100.245H87.4082V88.3052Z" fill="white"/>
<path d="M109.012 95.5065H112.573L110.892 91.6065H110.847L109.012 95.5065ZM108.747 88.3052H113.898L119.626 100.245H114.651L113.656 97.9715H107.951L106.867 100.245H103.086L108.747 88.3052Z" fill="white"/>
<path d="M121.704 88.3057H126.148L132.097 94.6382H132.139V88.3057H135.81V100.245H132.229L125.419 93.4857H125.374V100.245H121.704V88.3057Z" fill="white"/>
<path d="M139.061 88.3057H143.836V93.0907H143.881L148.768 88.3057H153.321L149.209 92.2544L154.408 100.245H149.299L146.004 95.1444L143.836 97.2119V100.245H139.061V88.3057Z" fill="white"/>
<path d="M57.001 76.327H59.686V54.7644H57.001V53.4194H71.4235V54.7644H68.7398V76.327H71.4235V77.7407H57.001V76.327Z" fill="#ED1C24"/>
<path d="M170.214 77.425C171.861 77.425 172.759 76.1288 172.759 73.185V58.1863C172.759 55.2438 171.861 53.9813 170.214 53.9813C168.565 53.9813 167.704 55.2763 167.704 58.1863V73.185C167.704 76.095 168.565 77.425 170.214 77.425ZM160.577 56.82C162.996 54.3313 166.322 53 170.214 53C178.065 53 183.427 58.6425 183.427 65.6863C183.427 72.73 178.065 78.4075 170.214 78.4075C166.816 78.4075 163.801 77.3563 161.521 75.4625C158.755 73.185 157.036 69.4363 157.036 65.6863C157.036 62.3913 158.404 59.0275 160.577 56.82Z" fill="#ED1C24"/>
<path d="M149.185 53.4189V54.7652H149.31C151.973 54.7652 152.341 55.3964 152.341 57.4977V66.3914L142.948 53.4189H130.962V54.7652H131.088C131.643 54.7652 132.585 54.8864 132.997 55.4564C133.147 55.6664 133.447 56.0802 133.788 56.5514V73.6302C133.788 75.7327 133.662 76.3277 131.033 76.3277H130.962V77.7414H138.476V76.3277C138.421 76.3277 138.37 76.3277 138.32 76.3277C135.723 76.3277 135.498 75.7389 135.498 73.6302V58.6664L149.278 77.7414H153.985V57.4977C153.985 55.3964 154.35 54.7652 156.977 54.7652H157.191V53.4189H149.185Z" fill="#ED1C24"/>
<path d="M109.608 68.3689L112.527 60.0676L115.538 68.3689H109.608ZM128.233 76.3264L119.895 53.4189H113.261L106.083 73.5614C105.63 74.8401 104.94 75.6714 103.958 76.0739C103.651 76.2001 103.223 76.3264 102.803 76.3264H101.74L92.3464 60.0251C92.3464 60.0251 95.4439 56.9264 95.7639 56.6064C96.7739 55.5939 98.3889 54.9839 99.5501 54.8576C100.06 54.8051 100.723 54.7651 101.303 54.7651V53.4189H90.1951V54.7651H91.3414C91.8939 54.7651 93.0051 54.7451 93.4314 55.4801C93.7176 55.9726 93.5489 56.7676 92.9076 57.4089L85.0989 65.2401V54.7651H87.3951V53.4189H73.4326V54.7651H75.8714V76.3264H73.4326V77.7414H87.3839V76.3264H85.0989V65.2764L91.4601 76.3264H88.8464V77.7414H109.798V76.3226H109.45C109.277 76.3226 108.843 76.2851 108.755 76.2626C107.036 75.8189 107.445 74.5189 107.791 73.5376L109.043 69.9726H116.131L118.42 76.3264H116.316V77.7414H129.833V76.3264H128.233Z" fill="#ED1C24"/>
</svg>
