<svg width="241" height="160" viewBox="0 0 241 160" fill="none" xmlns="http://www.w3.org/2000/svg">
<path d="M21 84.391C21 78.0609 25.3567 72.8853 31.9886 72.8853C35.5564 72.8853 38.1918 74.2511 39.6708 75.9967C41.0471 77.6214 41.6429 79.543 41.8251 80.824L36.561 80.9989C36.4047 79.9854 35.9931 79.1403 35.3714 78.5198C34.6119 77.76 33.2558 77.3366 31.9539 77.3366C28.8373 77.3366 26.5181 79.9381 26.5181 84.391C26.5181 88.8439 28.9427 91.3707 32.054 91.3707C33.3108 91.3707 34.6661 90.9578 35.4457 90.227C36.1631 89.554 36.639 88.6092 36.7602 87.4296L42.019 87.6401C41.9362 88.6092 41.6595 89.6292 41.1808 90.6035C39.8925 93.3351 36.7598 95.8941 31.9837 95.8941C25.3171 95.8941 21 90.7199 21 84.391Z" fill="#54B6E7"/>
<path d="M44.4023 65.0049H49.9855V95.2726H44.4023V65.0049Z" fill="#54B6E7"/>
<path d="M67.0332 92.919H66.8659C66.4446 94.3332 63.7465 95.8897 60.1278 95.8897C56.4885 95.8897 52.5176 93.939 52.5176 89.278C52.5176 84.2899 56.7919 82.811 60.2147 82.2648C62.1113 81.9607 64.4547 81.7651 65.2218 81.6237C66.039 81.4767 66.5096 81.2008 66.7294 80.6276C66.7952 80.4559 66.8401 80.2163 66.8401 79.9651C66.8401 78.2353 65.7623 76.9798 62.9733 76.9798C60.7386 76.9798 58.6412 78.039 58.6392 80.3585L53.7957 80.1125C54.2631 75.162 58.1714 72.8901 63.2185 72.8901C68.5109 72.8901 72.681 75.263 72.681 80.0693V95.2724H67.0332C67.0336 95.2712 67.0332 92.919 67.0332 92.919ZM60.3662 86.1239C59.3995 86.4689 57.9404 86.8361 57.9404 88.8971C57.9404 90.7715 59.593 91.6953 61.732 91.6953C65.3507 91.6953 67.0542 89.543 67.0542 87.3871V84.4066C66.5387 84.7028 65.6472 84.9851 64.8562 85.1487C64.0652 85.3139 61.3332 85.7785 60.3662 86.1239Z" fill="#54B6E7"/>
<path d="M76.0436 92.1139C75.2902 90.9525 75.0442 89.6033 75.0361 88.1042H79.8889C79.9689 88.7675 80.1349 89.4142 80.4185 89.9422C81.0947 91.2123 82.448 91.9006 84.8419 91.9006C86.7534 91.9006 88.8569 91.0127 88.8569 89.1181C88.8569 87.245 86.059 86.8095 83.1428 86.2767C78.8067 85.4926 75.5107 84.1445 75.5107 79.7151C75.5107 75.808 78.8717 72.8901 84.1725 72.8901C88.53 72.8901 91.1918 74.9209 92.2788 76.6454C92.7357 77.3677 93.2245 78.828 93.239 80.092H88.3563C88.3438 79.5503 88.2566 78.9678 88.0303 78.5004C87.401 77.2041 85.7613 76.7399 84.137 76.7399C82.1495 76.7399 80.4637 77.549 80.4637 79.1403C80.4637 80.0746 80.8576 80.6204 81.6566 80.9577C82.8507 81.4622 84.3288 81.6755 86.1919 81.9434C90.0437 82.5012 93.9844 84.0003 93.9844 88.4831C93.9844 93.0156 90.5886 95.8995 84.5922 95.8995C80.5187 95.8995 77.5596 94.4521 76.0436 92.1139Z" fill="#54B6E7"/>
<path d="M103.444 84.386C103.444 76.972 108.244 72.8823 113.97 72.8823C119.695 72.8823 124.45 76.9826 124.45 84.386C124.45 91.791 119.768 95.8949 113.97 95.8949C108.172 95.8949 103.444 91.8019 103.444 84.386ZM113.97 77.1898C110.8 77.1898 108.897 79.3962 108.897 84.386C108.897 89.3777 110.891 91.5486 113.97 91.5486C117.043 91.5486 119.003 89.4448 119.003 84.386C119.003 79.3276 117.134 77.1898 113.97 77.1898Z" fill="#54B6E7"/>
<path d="M140.129 95.2726V81.9406C140.129 79.823 139.395 77.7608 136.634 77.7608C134.979 77.7608 133.888 78.6382 133.277 79.6703C132.783 80.5053 132.414 82.12 132.414 83.4971V95.2726H126.832V65H132.414V76.0763H132.494C133.5 74.2213 135.725 72.887 138.492 72.887C140.714 72.887 142.236 73.5168 143.533 74.727C145.104 76.191 145.712 78.3381 145.712 81.4575V95.2726H140.129Z" fill="#54B6E7"/>
<path d="M149.406 65H154.987V95.2726H149.406V65Z" fill="#54B6E7"/>
<path d="M158.595 92.0164C157.874 90.8748 157.636 89.5648 157.629 88.1024H162.482C162.561 88.7463 162.721 89.3814 162.992 89.9025C163.666 91.1976 165.024 91.8989 167.436 91.8989C169.346 91.8989 171.45 91.0106 171.45 89.1176C171.45 87.2404 168.653 86.8073 165.736 86.2729C161.4 85.4892 158.104 84.1424 158.104 79.7101C158.104 75.803 161.466 72.8872 166.764 72.8872C171.143 72.8872 173.803 74.934 174.89 76.6771C175.334 77.3905 175.82 78.8379 175.832 80.087H170.949C170.942 79.5994 170.886 79.0512 170.693 78.6097C170.095 77.231 168.416 76.7349 166.73 76.7349C164.743 76.7349 163.056 77.544 163.056 79.1361C163.056 80.106 163.482 80.6598 164.344 81.0036C165.537 81.4811 166.983 81.6855 168.784 81.9396C172.636 82.4978 176.579 83.997 176.579 88.4805C176.579 93.0138 173.182 95.8993 167.186 95.8993C163.06 95.8993 160.103 94.399 158.595 92.0164Z" fill="#54B6E7"/>
<path d="M215.017 95.2728V81.9408C215.017 79.8232 214.283 77.761 211.522 77.761C209.866 77.761 208.776 78.6384 208.166 79.6705C207.671 80.5055 207.302 82.1202 207.302 83.4973V95.2728H201.72V73.5929H207.09V76.0765H207.17C208.176 74.2215 210.612 72.8872 213.38 72.8872C215.602 72.8872 217.124 73.517 218.421 74.7272C219.992 76.1912 220.6 78.3383 220.6 81.4577V95.2728H215.017Z" fill="#54B6E7"/>
<path d="M178.153 84.386C178.153 76.972 182.983 72.8823 188.709 72.8823C194.434 72.8823 199.221 76.9826 199.221 84.386C199.221 91.791 194.506 95.8949 188.709 95.8949C182.911 95.8949 178.153 91.8019 178.153 84.386ZM188.709 77.1898C185.539 77.1898 183.605 79.3962 183.605 84.386C183.605 89.3777 185.632 91.5486 188.709 91.5486C191.783 91.5486 193.773 89.4448 193.773 84.386C193.773 79.3276 191.874 77.1898 188.709 77.1898Z" fill="#54B6E7"/>
</svg>
