<svg width="241" height="161" viewBox="0 0 241 161" fill="none" xmlns="http://www.w3.org/2000/svg">
<path d="M162.592 92.4351C156.677 92.4351 153.002 89.0091 153.002 83.487C153.002 77.7558 156.394 74.1902 161.854 74.1902H162.312C162.997 74.1902 163.941 74.2125 165.229 74.3734V67.4556H169.086V91.8116C169.086 91.8116 165.421 92.4351 162.592 92.4351ZM162.557 77.2273C158.821 77.2273 157.004 79.2442 157.004 83.3909C157.004 87.114 159.196 89.4282 162.718 89.4282C163.395 89.4282 164.171 89.3835 165.228 89.293V77.4753C164.172 77.3055 163.32 77.2273 162.557 77.2273ZM109.756 91.8764L99.3361 73.6929L99.3328 91.8764H95.7012V68.8568H100.785L111.205 86.8783L111.2 68.8568H114.88V91.8764H109.756ZM142.946 92.2306C141.191 92.2306 139.362 92.0339 137.184 91.6149L136.949 91.5702V88.3543L137.293 88.4281C139.214 88.8382 140.872 89.1879 142.531 89.1879C143.871 89.1879 146.992 88.9779 146.992 87.0056C146.992 85.3519 144.835 84.9362 143.103 84.6044L142.994 84.582C142.67 84.5217 142.365 84.4602 142.108 84.3954C139.567 83.7361 136.856 82.745 136.856 79.3403C136.856 76.0194 139.484 74.1164 144.068 74.1164C146.268 74.1164 147.864 74.3511 149.148 74.5433L149.772 74.6349V77.7558L149.44 77.6955C147.987 77.4284 146.284 77.1535 144.648 77.1535C142.827 77.1535 140.667 77.4943 140.667 79.1134C140.667 80.4577 142.435 80.8421 144.482 81.2879C147.345 81.9069 150.894 82.6847 150.894 86.5911C150.894 90.1746 148 92.2306 142.946 92.2306ZM179.915 92.2306C175.922 92.2306 172.225 91.5266 172.225 86.4291C172.225 80.8812 177.943 80.8812 181.361 80.8812C181.7 80.8812 183.307 80.956 183.8 80.9773C183.796 77.8653 183.757 77.1234 179.243 77.1234C177.454 77.1234 175.468 77.4765 173.713 77.7916L173.378 77.8519V74.7791L173.604 74.731C175.637 74.3176 177.599 74.1164 179.598 74.1164C183.971 74.1164 187.676 74.5567 187.676 79.9828V91.8161L187.41 91.8462C184.381 92.1859 181.976 92.2306 179.916 92.2306H179.915ZM181.265 83.6266C177.968 83.6266 175.926 84.1116 175.926 86.5252C175.926 89.3187 178.532 89.55 180.976 89.55C181.888 89.55 183.53 89.4326 184.031 89.3969V83.7227C183.325 83.6926 181.487 83.6266 181.265 83.6266ZM125.791 92.2306C121.793 92.2306 118.097 91.5266 118.097 86.4291C118.097 80.8812 123.815 80.8812 127.232 80.8812C127.573 80.8812 129.183 80.956 129.677 80.9773C129.672 77.8653 129.629 77.1234 125.115 77.1234C123.325 77.1234 121.339 77.4765 119.584 77.7916L119.249 77.8519V74.7791L119.48 74.731C121.451 74.3236 123.457 74.1177 125.47 74.1164C129.842 74.1164 133.548 74.5567 133.548 79.9828V91.8161L133.281 91.8462C130.253 92.1859 127.847 92.2306 125.791 92.2306ZM127.136 83.6266C123.84 83.6266 121.802 84.1116 121.802 86.5252C121.802 89.3187 124.404 89.55 126.848 89.55C127.765 89.55 129.406 89.4326 129.908 89.3969V83.7227C129.196 83.6926 127.359 83.6266 127.137 83.6266" fill="#231F20"/>
<mask id="mask0_22_40111" style="mask-type:alpha" maskUnits="userSpaceOnUse" x="190" y="73" width="17" height="27">
<path d="M190.195 73.0732H206.986V99.8908H190.195V73.0732Z" fill="white"/>
</mask>
<g mask="url(#mask0_22_40111)">
<path d="M203.038 99.6991V92.1477C201.533 92.3577 200.734 92.3577 200.088 92.3577C198.559 92.3577 196.862 92.0259 195.548 91.4716C192.606 90.2481 190.852 87.1417 190.852 83.1559C190.852 81.167 191.337 77.5298 194.579 75.5699C196.207 74.5978 198.128 74.1821 201.018 74.1821C202.051 74.1821 203.448 74.2603 204.797 74.3385L206.988 74.4525V97.9492L203.038 99.6991ZM200.729 77.2203C196.81 77.2192 194.823 79.2193 194.823 83.1559C194.823 88.2245 197.786 89.2894 200.278 89.2894C200.885 89.2894 201.566 89.2894 203.076 89.0972V77.3298C201.894 77.2516 201.347 77.2203 200.728 77.2203H200.729Z" fill="#231F20"/>
</g>
<mask id="mask1_22_40111" style="mask-type:alpha" maskUnits="userSpaceOnUse" x="62" y="55" width="31" height="38">
<path d="M62.8125 55.2124H92.9823V92.0687H62.8125V55.2124Z" fill="white"/>
</mask>
<g mask="url(#mask1_22_40111)">
<path d="M78.4702 55.2129L65.7118 90.2657C65.554 90.6973 65.2779 91.0758 64.9151 91.3578C64.5523 91.6398 64.1174 91.8139 63.6602 91.8602V91.877H77.1472C78.2032 91.877 79.1072 91.2054 79.4435 90.2668L92.2064 55.2129H78.4702Z" fill="#0996C7"/>
<path d="M62.5583 91.3448C63.3405 91.3448 64.0254 90.956 64.4444 90.3671C64.488 90.3056 64.6411 90.0911 64.7495 89.7995L69.4292 76.936L66.6915 69.4237C66.5321 69.0433 66.2738 68.7124 65.9434 68.4654C65.6131 68.2184 65.2227 68.0642 64.8127 68.0189C64.4027 67.9735 63.9881 68.0386 63.6117 68.2074C63.2354 68.3762 62.911 68.6426 62.6722 68.9789C62.6276 69.0404 62.4454 69.3142 62.3672 69.5466L57.6875 82.4056L60.4374 89.9481C60.6158 90.3626 60.9118 90.7159 61.2887 90.9641C61.6656 91.2123 62.107 91.3447 62.5583 91.3448Z" fill="#0996C7"/>
</g>
<mask id="mask2_22_40111" style="mask-type:alpha" maskUnits="userSpaceOnUse" x="33" y="66" width="31" height="39">
<path d="M33.7598 66.3691H63.9296V104.134H33.7598V66.3691Z" fill="white"/>
</mask>
<g mask="url(#mask2_22_40111)">
<path d="M63.5581 67.4683H49.9225C48.8666 67.4683 47.9626 68.1365 47.6218 69.0796L34.8633 104.133H48.5995L61.3591 69.0807C61.5246 68.6247 61.8221 68.2283 62.2138 67.9419C62.6054 67.6555 63.0734 67.4922 63.5581 67.4728V67.4683Z" fill="#0996C7"/>
</g>
</svg>
