<svg width="241" height="161" viewBox="0 0 241 161" fill="none" xmlns="http://www.w3.org/2000/svg">
<path d="M82.5596 57.7441V63.2441H95.8596V102.244H101.46V63.2441H114.76V57.7441H82.5596Z" fill="#656F75"/>
<path d="M71.0598 77.0445H52.9598H51.4598L52.2598 75.3445C52.2598 75.3445 57.3598 63.3445 66.0598 63.3445H70.9598L71.0598 77.0445ZM66.1598 57.7445C53.8598 57.7445 47.6598 72.0445 47.1598 73.1445C47.1598 73.2445 36.4598 96.2445 33.7598 102.144H39.9598L48.9598 82.7445H71.1598C71.1598 90.0445 71.1598 97.6445 71.1598 102.144H76.7598V57.6445L66.1598 57.7445Z" fill="#656F75"/>
<path d="M170.36 62.9441H175.26C184.06 62.9441 189.06 74.9441 189.06 74.9441L189.86 76.6441H188.36H170.26L170.36 62.9441ZM164.96 57.7441V102.244H170.56V82.7441H192.76L201.76 102.144H207.96C205.26 96.2441 194.56 73.1441 194.56 73.1441C194.06 71.9441 187.96 57.7441 175.56 57.7441H164.96Z" fill="#656F75"/>
<path fill-rule="evenodd" clip-rule="evenodd" d="M137.16 57.7441C124.66 57.7441 114.56 67.7441 114.56 80.1441C114.56 92.5441 124.66 102.544 137.16 102.544C143.36 102.544 149.56 99.7441 153.86 95.0441C154.26 94.5441 154.56 93.8441 154.56 93.1441C154.56 91.6441 153.26 90.3441 151.66 90.3441C150.86 90.3441 150.06 90.6441 149.56 91.2441C146.26 94.7441 141.66 96.8441 137.16 96.8441C127.86 96.8441 120.26 89.3441 120.26 80.1441C120.26 70.9441 127.86 63.4441 137.16 63.4441C141.66 63.4441 146.26 65.5441 149.56 69.0441C150.06 69.6441 150.86 69.9441 151.66 69.9441C153.26 69.9441 154.56 68.7441 154.56 67.1441C154.56 66.4441 154.36 65.7441 153.86 65.2441C149.56 60.6441 143.36 57.7441 137.16 57.7441ZM129.36 76.0441H151.86C153.56 76.0441 154.96 77.4441 154.96 79.0441C154.96 80.7441 153.56 82.0441 151.86 82.0441H151.76H129.46H129.36C127.66 82.0441 126.26 80.7441 126.26 79.0441C126.26 77.3441 127.66 76.0441 129.36 76.0441Z" fill="#63B91B"/>
</svg>
