<svg width="241" height="161" viewBox="0 0 241 161" fill="none" xmlns="http://www.w3.org/2000/svg">
<path fill-rule="evenodd" clip-rule="evenodd" d="M137.991 80.1345C138.012 83.3189 140.027 86.4225 144.037 86.4225C148.069 86.4225 150.104 83.3189 150.104 80.1345C150.104 76.8693 148.089 73.8663 144.037 73.8663C139.987 73.8663 137.971 76.8091 137.991 80.1345ZM151.152 80.1547C151.132 83.863 148.774 87.4307 144.037 87.4307C139.301 87.4307 136.923 83.8432 136.923 80.1143C136.923 76.3253 139.281 72.8589 144.037 72.8589C148.794 72.8589 151.172 76.3455 151.152 80.1547ZM33.8353 84.9053H35.9514V75.4728H33.7549V73.0542H38.5921V84.9053H40.547V87.1627H33.8353V84.9053ZM68.4202 84.5426H76.3408V81.3582H68.7026V78.879H76.3408V75.6344H68.4202V73.0542H78.9812V87.1627H68.4202V84.5426ZM56.8662 84.5426H48.9451V87.1627H59.5065V73.0542H48.9451V75.6344H56.8662V78.879H49.2275V81.3582H56.8662V84.5426ZM88.4192 87.1623L94.1833 75.5936H87.3109V73.0542H97.6703L97.8112 74.4651L91.4828 87.1623H88.4192ZM118.881 73.0542H118.277L113.944 85.953L109.59 73.0542H108.441L113.379 87.2031H114.548L116.806 80.5516L118.579 75.0092L120.353 80.5924L122.59 87.2031H123.759L128.737 73.0542H127.568L123.195 85.953L118.881 73.0542ZM166.721 80.7935H161.723V74.062H166.842C169.18 74.062 170.309 75.775 170.289 77.4278C170.268 79.4024 169.18 80.7935 166.721 80.7935ZM170.45 87.1623H171.881L166.903 81.7609C169.986 81.7609 171.498 79.7454 171.478 77.4479C171.457 75.2511 169.906 73.0542 166.842 73.0542H160.634V87.1623H161.723V81.8215H165.573L170.45 87.1623ZM206.622 75.7816C205.594 74.1288 203.942 73.8869 202.35 73.8667C200.697 73.8667 198.077 74.4713 198.077 76.7288C198.077 78.5225 200.011 78.9458 202.39 79.3893L202.543 79.4188C205.216 79.9322 207.932 80.4542 207.932 83.4405C207.912 86.6249 204.707 87.3907 202.35 87.3907C200.152 87.3907 197.653 86.4835 196.565 84.3271L197.532 83.8436C198.399 85.5566 200.616 86.4032 202.35 86.4032C204.083 86.4032 206.844 85.9193 206.844 83.4203C206.864 81.3038 204.526 80.8401 202.209 80.3971C199.629 79.893 196.988 79.3691 196.988 76.7692C196.928 73.7863 200.032 72.8589 202.35 72.8589C204.365 72.8589 206.118 73.1817 207.509 75.2577L206.622 75.7816ZM188.489 73.1548L181.567 80.3228L189.134 87.0815V87.1623H187.763L180.498 80.7259V80.0001L187.179 73.0542H188.489V73.1548Z" fill="#282522"/>
</svg>
