<svg width="241" height="161" viewBox="0 0 241 161" fill="none" xmlns="http://www.w3.org/2000/svg">
<path d="M69.0222 78.8059C69.0222 85.4301 63.6665 90.7857 57.0423 90.7857C50.4181 90.7857 45.0624 85.4301 45.0624 78.8059C45.0624 72.1817 50.4181 66.8258 57.0423 66.8258C63.6665 66.8258 69.0222 72.1817 69.0222 78.8059ZM79.3672 96.4515C79.3672 96.4515 80.1565 95.5496 79.2545 94.7603L74.2652 90.4194C76.5202 87.0932 77.8169 83.1186 77.8169 78.8059C77.8169 67.3333 68.5148 58.0595 57.0705 58.0595C45.5979 58.0595 36.2959 67.3333 36.2959 78.8059C36.2959 90.2784 45.5979 99.5522 57.0423 99.5522C61.2423 99.5522 65.1323 98.2838 68.4021 96.1697L73.8706 100.934C73.8706 100.934 74.7726 101.723 75.5618 100.821L79.3672 96.4515ZM93.3485 98.1147V59.4689C93.3485 58.0595 91.9391 58.0595 91.9391 58.0595H85.7095C84.3001 58.0595 84.3001 59.4689 84.3001 59.4689V98.1147C84.3001 99.5241 85.7095 99.5241 85.7095 99.5241H91.9391C93.3485 99.5523 93.3485 98.1147 93.3485 98.1147ZM108.626 63.387V59.3843C108.626 59.3843 108.626 58.0312 107.273 58.0312H101.297C101.297 58.0312 99.9445 58.0313 99.9445 59.3843V63.387C99.9445 63.387 99.9445 64.7399 101.297 64.7399H107.273C107.273 64.7681 108.626 64.7682 108.626 63.387ZM108.88 98.1147V70.2085C108.88 68.7991 107.471 68.7991 107.471 68.7991H101.382C99.9727 68.7991 99.9727 70.2085 99.9727 70.2085V98.1147C99.9727 99.5241 101.382 99.5241 101.382 99.5241H107.471C108.88 99.5523 108.88 98.1147 108.88 98.1147ZM135.039 81.0045C134.306 79.7924 135.292 78.7777 135.292 78.7777L143.89 69.8703C144.876 68.8555 143.467 68.8554 143.467 68.8554H135.433C134.024 68.8554 133.037 69.8703 133.037 69.8703L125.06 78.3266C124.102 79.3413 124.102 77.9319 124.102 77.9319V59.4407C124.102 58.0313 122.692 58.0312 122.692 58.0312H116.604C115.251 58.0312 115.251 59.3843 115.251 59.3843V98.0865C115.251 99.4959 116.66 99.4959 116.66 99.4959H122.692C124.045 99.4959 124.045 98.1428 124.045 98.1428V91.3496C124.045 89.9402 125.088 88.9818 125.088 88.9818L127.935 86.3039L135.095 98.312C135.828 99.5241 137.237 99.5241 137.237 99.5241H144.82C146.229 99.5241 145.496 98.312 145.496 98.312L135.039 81.0045Z" fill="#54565B"/>
<path d="M192.091 78.6089C192.091 86.6989 185.552 93.2385 177.462 93.2385C169.372 93.2385 162.832 86.6707 162.832 78.6089C162.832 70.5189 169.372 63.9793 177.462 63.9793C185.523 63.9511 192.091 70.5189 192.091 78.6089ZM204.268 96.903L197.588 91.3217C199.899 87.6573 201.252 83.2881 201.252 78.6089C201.252 65.4451 190.597 54.79 177.433 54.79C164.27 54.79 153.614 65.4451 153.614 78.6089C153.614 91.7727 164.27 102.428 177.433 102.428C182.535 102.428 187.271 100.821 191.133 98.0869L198.236 104.063C198.236 104.063 199.307 104.936 200.181 103.893L204.409 98.8479C204.438 98.8479 205.311 97.7768 204.268 96.903Z" fill="#009C4D"/>
<path d="M168.047 78.6088C168.047 73.4222 172.247 69.2222 177.433 69.2222C182.62 69.2222 186.82 73.4222 186.82 78.6088C186.82 83.7954 182.62 87.9954 177.433 87.9954C172.275 87.9672 168.047 83.7672 168.047 78.6088Z" fill="#54565B"/>
<path d="M202.239 61.6677H202.944C203.366 61.6677 203.648 61.5831 203.648 61.1039C203.648 60.6811 203.338 60.5402 202.944 60.5402H202.239V61.6677ZM202.239 63.3872H201.901V60.2019H203.056C203.592 60.2019 204.015 60.4838 204.015 61.0757C204.015 61.5831 203.733 61.9214 203.254 61.9496L204.128 63.359H203.705L202.859 61.9496H202.211V63.3872H202.239ZM202.831 59.5536C201.591 59.5536 200.66 60.5402 200.66 61.8086C200.66 63.0771 201.591 64.0637 202.831 64.0637C204.071 64.0637 205.001 63.0771 205.001 61.8086C205.001 60.5684 204.071 59.5536 202.831 59.5536ZM200.238 61.8086C200.238 60.371 201.421 59.2153 202.831 59.2153C204.268 59.2153 205.424 60.3992 205.424 61.8086C205.424 63.218 204.268 64.4019 202.831 64.4019C201.421 64.4019 200.238 63.218 200.238 61.8086Z" fill="#4A4D4D"/>
</svg>
