<svg width="240" height="161" viewBox="0 0 240 161" fill="none" xmlns="http://www.w3.org/2000/svg">
<path d="M69.2439 105.209C69.1054 105.487 68.8283 105.904 68.1357 106.6C67.443 107.435 67.0273 107.852 66.7502 107.852C66.6117 107.852 66.4733 107.713 66.4733 107.435C66.4733 106.739 66.7503 106.183 67.1659 105.487C67.5815 104.652 68.1357 104.235 68.6898 104.235C68.9669 104.235 69.1054 104.374 69.3825 104.513L69.2439 105.209ZM70.6292 102.843H68.9669C67.8586 102.843 66.8889 103.4 65.7806 104.652C64.8109 105.765 64.2568 106.878 64.1182 107.991C64.1182 108.409 64.1182 108.826 64.3953 109.243C64.6724 109.661 64.9493 109.8 65.3649 109.8C65.919 109.8 66.6118 109.383 67.3045 108.826C67.8586 108.27 68.2742 107.574 68.6898 106.878H68.8283L67.8586 109.661H70.0751L72.0146 102.843C71.7375 102.843 71.3219 102.983 70.6292 102.843ZM85.0365 105.209C84.898 105.487 84.6209 105.904 83.9282 106.739C83.2356 107.435 82.82 107.852 82.5429 107.852C82.4044 107.852 82.4045 107.713 82.4045 107.435C82.4045 106.878 82.6814 106.183 83.097 105.487C83.5126 104.652 84.0668 104.374 84.4824 104.374C84.7594 104.374 84.8981 104.374 85.1751 104.513L85.0365 105.209ZM86.2834 102.843H84.7594C83.6512 102.843 82.6815 103.4 81.5733 104.513C80.6036 105.626 80.0494 106.6 79.9109 107.852C79.9109 108.27 79.9109 108.687 80.188 109.104C80.465 109.383 80.7421 109.661 81.2962 109.661C82.4045 109.661 83.3742 108.687 84.3439 106.878H84.621C84.4825 107.435 84.3438 107.852 84.2053 108.409C83.9282 109.104 83.7898 109.661 83.5127 110.078C83.0971 110.635 82.6815 110.774 82.2659 110.774C81.4347 110.774 80.6036 110.496 79.4953 109.939L79.6338 111.887C80.188 112.026 80.8806 112.026 81.7118 112.026C84.0668 112.026 85.5906 111.052 86.1447 109.104L87.9458 102.843C87.5302 102.843 86.976 102.983 86.2834 102.843ZM90.5779 106.043C90.7164 105.626 90.8549 105.348 91.132 104.93C91.4091 104.513 91.8247 104.374 92.1017 104.374C92.3788 104.374 92.5173 104.513 92.5173 104.93C92.3788 105.626 91.6861 106.043 90.5779 106.043ZM91.2705 108.409C90.5779 108.409 90.1623 108.13 90.1623 107.435C91.132 107.435 91.9632 107.156 92.7944 106.6C93.7641 106.043 94.3182 105.209 94.4568 104.374C94.4568 103.956 94.3181 103.539 94.0411 103.261C93.764 102.983 93.3484 102.843 92.9328 102.843C91.686 102.843 90.5779 103.261 89.6081 104.235C88.6384 105.209 88.0843 106.322 87.9458 107.574C87.9458 108.27 88.0843 108.826 88.6384 109.243C89.054 109.661 89.7467 109.8 90.4393 109.8C91.4091 109.8 92.5173 109.522 93.9026 109.104L94.3181 107.435C93.0713 108.13 92.1017 108.409 91.2705 108.409ZM101.384 103.122L100.968 104.513C100.414 104.374 99.9981 104.235 99.5825 104.235C99.0283 104.235 98.6127 104.374 98.6127 104.791C98.6127 104.93 98.7512 105.209 99.0282 105.487C99.5824 105.904 99.8595 106.183 99.8595 106.322C100.137 106.739 100.275 107.156 100.275 107.574C100.137 108.409 99.8595 108.965 99.1669 109.243C98.6127 109.522 97.92 109.661 97.0888 109.661C96.3961 109.661 95.7036 109.522 94.7338 109.243L95.1493 107.713C95.9805 108.13 96.6732 108.27 97.0888 108.27C97.2273 108.27 97.5044 108.27 97.6429 108.13C97.7814 107.991 97.92 107.852 97.92 107.713C97.92 107.435 97.7815 107.156 97.5045 106.878L96.6733 106.043C96.3962 105.626 96.2576 105.209 96.2576 104.93C96.3961 104.235 96.6732 103.678 97.3658 103.261C97.92 102.983 98.6127 102.843 99.3054 102.843C99.721 102.843 100.275 102.983 101.384 103.122ZM112.882 100.339L112.466 101.73C111.912 101.452 111.496 101.313 111.081 101.313C110.665 101.313 110.388 101.452 110.111 101.87C109.973 102.009 109.834 102.426 109.696 102.983H111.358L110.942 104.235H109.28L107.34 111.191H104.985L107.34 103.122C107.618 102.287 108.172 101.452 108.864 101.035C109.557 100.478 110.388 100.2 111.219 100.2C111.912 100.061 112.328 100.2 112.882 100.339ZM115.652 107.296C115.237 107.991 114.683 108.409 114.129 108.409C113.851 108.409 113.574 108.27 113.436 107.991C113.297 107.713 113.297 107.435 113.297 107.156C113.297 106.461 113.574 105.904 113.851 105.348C114.267 104.652 114.683 104.235 115.375 104.235C115.652 104.235 115.929 104.374 116.068 104.652C116.207 104.93 116.207 105.209 116.207 105.487C116.068 106.183 115.929 106.739 115.652 107.296ZM117.869 103.4C117.453 102.983 116.761 102.843 116.068 102.843C114.821 102.843 113.713 103.261 112.743 104.235C111.773 105.209 111.219 106.322 111.081 107.574C111.081 108.27 111.219 108.826 111.773 109.243C112.189 109.661 112.882 109.8 113.574 109.8C114.821 109.8 115.929 109.383 116.899 108.409C117.869 107.435 118.423 106.322 118.562 105.07C118.562 104.374 118.284 103.817 117.869 103.4ZM125.765 102.983L125.073 105.07C124.934 104.93 124.518 104.93 124.38 104.93C123.964 104.93 123.41 105.209 122.718 106.043C122.025 106.739 121.609 107.296 121.471 107.713L120.917 109.8H118.7L120.64 103.122H122.856L121.886 106.043H122.025C122.44 105.348 122.856 104.652 123.41 104.096C124.103 103.4 124.795 102.983 125.35 102.983C125.488 102.843 125.627 102.843 125.765 102.983ZM134.631 103.122L134.216 104.374H133.107C132.969 104.93 132.692 105.487 132.553 106.043C132.415 106.739 132.276 107.296 132.138 107.713C132.138 108.13 132.276 108.409 132.553 108.409C132.692 108.409 132.969 108.27 133.246 108.13L132.83 109.522C132.138 109.661 131.584 109.8 131.168 109.8C130.752 109.8 130.337 109.661 130.06 109.522C129.783 109.243 129.644 108.965 129.644 108.409C129.644 107.852 129.921 107.156 130.06 106.322C130.337 105.626 131.445 102.009 131.445 102.009L133.8 101.73L133.384 103.122H134.631ZM145.298 106.043C145.437 105.626 145.575 105.348 145.852 104.93C146.129 104.513 146.545 104.374 146.822 104.374C147.099 104.374 147.238 104.513 147.238 104.93C147.099 105.626 146.545 106.043 145.298 106.043ZM146.129 108.409C145.437 108.409 145.021 108.13 145.021 107.435C145.991 107.435 146.822 107.156 147.653 106.6C148.623 106.043 149.177 105.209 149.316 104.374C149.316 103.956 149.177 103.539 148.9 103.261C148.623 102.983 148.207 102.843 147.792 102.843C146.545 102.843 145.437 103.261 144.467 104.235C143.497 105.209 142.943 106.322 142.805 107.574C142.805 108.27 142.943 108.826 143.497 109.243C143.913 109.661 144.606 109.8 145.298 109.8C146.268 109.8 147.376 109.522 148.762 109.104L149.177 107.435C147.93 108.13 146.961 108.409 146.129 108.409ZM167.325 106.043C167.463 105.626 167.602 105.348 167.879 104.93C168.156 104.513 168.572 104.374 168.849 104.374C169.126 104.374 169.264 104.513 169.264 104.93C169.126 105.626 168.572 106.043 167.325 106.043ZM168.156 108.409C167.463 108.409 167.048 108.13 167.048 107.435C168.018 107.435 168.849 107.156 169.68 106.6C170.65 106.043 171.204 105.209 171.342 104.374C171.342 103.956 171.204 103.539 170.927 103.261C170.65 102.983 170.234 102.843 169.818 102.843C168.572 102.843 167.463 103.261 166.494 104.235C165.524 105.209 164.97 106.322 164.831 107.574C164.831 108.27 164.97 108.826 165.524 109.243C165.94 109.661 166.632 109.8 167.325 109.8C168.295 109.8 169.403 109.522 170.788 109.104L171.065 107.435C169.957 108.13 168.849 108.409 168.156 108.409ZM177.022 102.983L176.607 104.235H175.498C175.36 104.791 175.083 105.487 174.944 106.043C174.806 106.739 174.667 107.296 174.529 107.713C174.529 108.13 174.667 108.409 174.944 108.409C175.083 108.409 175.36 108.27 175.637 108.13L175.221 109.522C174.529 109.661 173.974 109.8 173.559 109.8C173.143 109.8 172.728 109.661 172.451 109.522C172.173 109.243 172.035 108.965 172.035 108.409C172.035 107.852 172.312 107.156 172.451 106.322C172.728 105.626 173.836 102.009 173.836 102.009L176.191 101.73L175.775 102.983H177.022ZM181.871 102.983L181.455 104.235H180.347C180.208 104.791 179.931 105.487 179.793 106.043C179.654 106.739 179.516 107.296 179.377 107.713C179.377 108.13 179.516 108.409 179.793 108.409C179.931 108.409 180.208 108.27 180.485 108.13L180.07 109.522C179.377 109.661 178.823 109.8 178.407 109.8C177.992 109.8 177.576 109.661 177.299 109.522C177.022 109.243 176.884 108.965 176.884 108.409C176.884 107.852 177.022 107.156 177.299 106.322C177.438 105.626 178.684 102.009 178.684 102.009L181.04 101.73L180.762 102.983H181.871ZM184.226 106.043C184.364 105.626 184.503 105.348 184.78 104.93C185.057 104.513 185.473 104.374 185.75 104.374C186.027 104.374 186.165 104.513 186.165 104.93C186.165 105.626 185.473 106.043 184.226 106.043ZM185.057 108.409C184.226 108.409 183.949 108.13 183.949 107.435C184.918 107.435 185.75 107.156 186.581 106.6C187.551 106.043 188.105 105.209 188.243 104.374C188.243 103.956 188.105 103.539 187.828 103.261C187.551 102.983 187.135 102.843 186.719 102.843C185.473 102.843 184.364 103.261 183.395 104.235C182.425 105.209 181.871 106.322 181.732 107.574C181.594 108.27 181.871 108.826 182.425 109.243C182.84 109.661 183.533 109.8 184.226 109.8C185.196 109.8 186.304 109.522 187.689 109.104L188.105 107.435C186.858 108.13 185.888 108.409 185.057 108.409ZM45.1393 106.043C44.8623 108.687 46.5247 110.217 49.5724 110.217C51.2347 110.217 52.8971 109.939 54.421 109.661C54.421 109.522 54.8366 108.409 54.9751 107.991C54.8366 107.991 54.698 108.13 54.698 108.13C53.4513 108.409 52.0659 108.826 50.9577 108.826C49.1568 108.826 48.0485 107.574 48.187 105.765C48.4641 102.983 50.6806 100.061 53.4513 100.061C54.5595 100.061 55.6678 100.339 56.776 100.756C57.0531 100.478 57.3302 99.226 57.4687 98.9477C56.3604 98.6694 55.1136 98.5303 54.0054 98.5303C48.6026 98.5303 45.4164 102.843 45.1393 106.043ZM158.459 104.93C159.706 104.93 161.091 105.209 160.952 106.739C160.814 108.13 159.567 108.548 158.459 108.548C158.043 108.548 157.766 108.548 157.351 108.409L158.459 104.93ZM159.983 100.2C160.26 100.061 160.537 100.061 160.814 100.061C161.507 100.061 162.338 100.2 162.338 101.035C162.199 102.565 160.675 103.261 160.121 103.261H159.29L159.983 100.2ZM154.303 109.8H159.706C160.952 109.8 163.584 108.965 163.723 106.6C163.862 105.209 162.615 104.374 161.368 103.956C162.892 103.539 164.693 102.426 164.831 100.756C164.97 98.5303 162.615 98.6694 160.952 98.6694H157.489L154.303 109.8ZM195.724 103.122L194.893 105.209C194.754 105.07 194.339 105.07 194.2 105.07C193.784 105.07 193.23 105.348 192.538 106.183C191.845 106.878 191.429 107.435 191.291 107.852L190.737 109.939H188.52L190.46 103.261H192.676L191.707 106.183H191.845C192.261 105.487 192.676 104.791 193.23 104.235C193.923 103.539 194.616 103.122 195.17 103.122C195.447 102.843 195.585 102.983 195.724 103.122ZM78.11 109.661H75.8935C75.8935 109.661 77.0017 105.904 77.1403 105.209C77.1403 105.209 77.1403 104.93 77.0017 105.07C76.8632 105.07 76.309 105.626 75.7548 106.322C75.2007 107.017 74.7852 107.435 74.7852 107.713L74.0924 109.661H71.8759L73.8154 102.843H76.0319L75.0623 105.765H75.2007C75.6163 105.07 76.0319 104.374 76.586 103.817C77.2787 103.122 77.9714 102.704 78.5256 102.704C78.9412 102.704 79.2182 102.843 79.3568 103.122C79.4953 103.261 79.7724 103.678 79.4953 104.513L78.11 109.661ZM59.9623 109.661C59.9623 109.661 61.0705 105.904 61.2091 105.209C61.2091 105.209 61.3476 104.93 61.0705 105.07C60.932 105.209 60.3779 105.626 59.8237 106.322C59.2696 107.017 58.854 107.435 58.854 107.713L58.2999 109.8H56.0834L58.854 100.339H61.0705C60.5164 102.148 59.9623 104.096 59.2696 105.904H59.4081C59.8237 105.209 60.2393 104.513 60.7935 103.956C61.4861 103.261 62.1788 102.843 62.7329 102.843C63.1485 102.843 63.4256 102.983 63.5641 103.261C63.7026 103.4 63.9797 103.817 63.7026 104.652L62.3173 109.661H59.9623ZM138.51 109.661C138.51 109.661 139.618 105.904 139.757 105.209C139.757 105.209 139.896 104.93 139.618 105.07C139.48 105.209 138.926 105.626 138.372 106.322C137.818 107.017 137.402 107.435 137.402 107.713L136.848 109.8H134.631L137.402 100.339H139.618C139.064 102.148 138.51 104.096 137.818 105.904C138.233 105.209 138.649 104.513 139.203 103.956C139.896 103.261 140.588 102.843 141.142 102.843C141.558 102.843 141.835 102.983 141.973 103.261C142.112 103.4 142.389 103.817 142.112 104.652L140.727 109.661H138.51Z" fill="#666666"/>
<path d="M61.7624 92.8261H45L53.4505 78.2174H70.2128L61.7624 92.8261ZM78.6633 92.8261H95.4257L86.9752 78.2174H70.2128L78.6633 92.8261ZM78.6633 63.6087L70.2128 49L61.7624 63.6087L70.2128 78.2174L78.6633 63.6087Z" fill="#FF0000"/>
<path fill-rule="evenodd" clip-rule="evenodd" d="M109.696 86.5651H102.908V90.3216H110.665V92.826H100.137V78.6347H110.527V81.139H102.908V84.1999H109.696V86.5651ZM105.678 76.4086L102.769 65.8347V76.4086H100.137V62.2173H104.154L107.063 72.0955L110.111 62.2173H114.129V76.4086H111.496V65.8347L108.449 76.4086H105.678ZM167.463 62.2173H164.693V76.4086H167.463V62.2173ZM169.818 92.826V78.6347H167.048V92.826H169.818ZM195.447 62.2173H192.676V76.4086H195.447V62.2173ZM118.008 62.2173H115.237V76.4086H118.008V62.2173ZM183.118 67.7825H188.797V62.2173H191.568V76.4086H188.797V70.1477H183.118V76.4086H180.347V62.2173H183.118V67.7825ZM125.211 76.4086H122.302V64.7216H118.839V62.2173H128.536V64.7216H125.211V76.4086ZM150.978 92.826H148.069V81.139H144.744V78.6347H154.441V81.139H150.978V92.826ZM151.809 71.8173C151.809 75.0173 149.731 76.6868 146.13 76.6868C142.805 76.6868 140.588 75.2955 140.727 71.9564V62.2173H143.497V72.0955C143.497 73.0694 144.19 74.3216 146.268 74.3216C148.069 74.3216 149.039 73.3477 149.039 72.0955V62.0781H151.809V71.8173ZM131.445 86.5651H124.796V90.3216H132.553V92.826H121.886V78.6347H132.276V81.139H124.796V84.1999H131.445V86.5651ZM159.706 76.4086H155.688H152.641V62.2173H159.013C161.922 62.2173 163.446 63.6086 163.446 65.6955C163.446 67.3651 162.476 68.6173 161.23 68.8955C162.753 69.3129 164 70.8434 164 72.6521C164 74.8781 162.338 76.4086 159.706 76.4086ZM155.688 74.1825H159.013C160.121 74.1825 161.091 73.3477 161.23 72.2347C161.23 70.8434 160.26 70.1477 159.013 70.1477H155.688V74.1825ZM160.814 66.1129C160.814 65.139 159.983 64.4434 159.152 64.4434H155.688V67.9216H159.013C160.26 67.9216 160.814 66.9477 160.814 66.1129ZM166.078 82.5303C166.078 84.6173 164.831 85.5912 163.585 86.0086C164.693 86.426 165.663 87.1216 165.663 89.0694C165.674 89.1731 165.685 89.2777 165.697 89.383C165.825 90.55 165.963 91.8051 166.217 92.826H163.307C163.168 92.3352 163.134 91.6677 163.099 90.9837C163.065 90.3106 163.029 89.6216 162.892 89.0694C162.615 87.9564 161.922 87.2608 160.398 87.2608H158.043V92.826H155.134V78.6347H161.507C164.416 78.6347 166.078 80.026 166.078 82.5303ZM158.043 81.139V85.0347H161.507C162.615 85.0347 163.307 83.9216 163.307 83.0868C163.307 81.9738 162.476 81.139 161.368 81.139H158.043ZM111.635 78.6347H114.406V90.3216H121.055V92.826H111.635V78.6347ZM136.986 72.6521C136.986 71.2607 135.74 70.8434 133.385 70.426C130.475 69.8694 128.813 68.4781 128.813 66.2521C128.813 63.4694 131.445 61.939 134.077 61.939C137.818 61.939 139.48 64.3042 139.48 66.5303H136.709C136.709 65.139 135.878 64.3042 134.216 64.3042C132.692 64.3042 131.722 64.8607 131.722 65.9738C131.722 67.3692 132.883 67.5983 134.721 67.9609C135.082 68.0321 135.469 68.1085 135.878 68.1999C138.51 68.7564 139.896 70.1477 139.896 72.3738C139.896 74.739 138.095 76.826 134.216 76.826C130.06 76.826 128.536 74.5999 128.536 72.0955H131.307C131.307 73.3477 132.415 74.4607 134.216 74.4607C136.017 74.4607 136.986 73.626 136.986 72.6521ZM176.607 72.6521C176.607 71.2607 175.221 70.8434 173.005 70.426C170.234 69.8694 168.433 68.4781 168.433 66.2521C168.433 63.4694 171.065 61.939 173.697 61.939C177.438 61.939 179.1 64.3042 179.1 66.5303H176.33C176.33 65.139 175.498 64.3042 173.836 64.3042C172.312 64.3042 171.342 64.8607 171.342 65.9738C171.342 67.3692 172.504 67.5983 174.341 67.9609C174.702 68.0321 175.089 68.1085 175.498 68.1999C178.13 68.7564 179.516 70.1477 179.516 72.3738C179.516 74.739 177.715 76.826 173.836 76.826C169.68 76.826 168.156 74.5999 168.156 72.0955H170.927C170.927 73.3477 171.896 74.4607 173.836 74.4607C175.637 74.4607 176.607 73.626 176.607 72.6521ZM135.324 85.5912C135.324 88.3738 136.571 90.5999 138.926 90.5999C140.727 90.5999 141.558 89.626 141.974 87.8173H144.883C144.467 90.8781 142.112 92.826 138.787 92.826C134.493 92.826 132.276 89.4868 132.276 85.4521C132.276 81.4173 134.493 78.0781 138.787 78.0781C142.251 78.0781 144.467 80.1651 144.883 82.9477H141.974C141.558 81.6955 140.727 80.5825 138.926 80.5825C136.571 80.5825 135.324 82.9477 135.324 85.5912ZM173.42 85.5912C173.42 88.3738 174.667 90.5999 177.022 90.5999C178.823 90.5999 179.654 89.626 180.07 87.8173H182.979C182.563 90.8781 180.208 92.826 176.884 92.826C172.589 92.826 170.373 89.4868 170.373 85.4521C170.373 81.4173 172.589 78.0781 176.884 78.0781C180.347 78.0781 182.563 80.1651 182.979 82.9477H180.07C179.654 81.6955 178.823 80.5825 177.022 80.5825C174.667 80.5825 173.42 82.9477 173.42 85.5912Z" fill="black"/>
</svg>
