<svg width="240" height="160" viewBox="0 0 240 160" fill="none" xmlns="http://www.w3.org/2000/svg">
<path d="M101.12 41.04L88.8801 58.08V70.88L76.8001 87.6L64.8001 70.88V58.08L52.5601 41.04L40.5601 58.08V119.36H113.2V58.08L101.12 41.04Z" fill="#00629B"/>
<path d="M55.5199 113.28C50.3999 113.28 47.4399 109.6 47.4399 103.12C47.4399 96.56 50.4799 92.24 55.0399 92.24C59.0399 92.24 61.4399 95.76 61.4399 101.6C61.4399 102.56 61.4399 103.28 61.3599 103.84H51.5199V104C51.5999 108.08 53.1999 110.08 56.3199 110.08C57.8399 110.08 59.1199 109.76 59.9199 109.44L60.4799 112.4C59.2799 112.96 57.3599 113.28 55.5199 113.28ZM54.7199 95.28C52.7199 95.28 51.6799 98.08 51.5999 100.8V100.96H57.5999V100.8C57.5999 98.56 57.1199 96.88 56.2399 95.92C55.7599 95.44 55.2799 95.28 54.7199 95.28Z" fill="white"/>
<path d="M78.0001 112.16C77.9201 110.64 77.8401 108.96 77.8401 107.12V92.5601H73.6001V105.92C73.6001 106.64 73.5201 107.28 73.3601 107.76C73.1201 108.72 72.2401 109.92 70.8801 109.92C68.5601 109.92 68.3201 106.96 68.3201 104.72V92.5601H64.0801V105.28C64.0801 110.8 65.7601 113.44 69.2801 113.44C71.4401 113.44 73.3601 112.08 74.1601 110.88L74.4001 113.04H78.0001V112.16Z" fill="white"/>
<path d="M89.9199 92.16C88.2399 92.16 86.1599 93.6 85.3599 95.68L85.1199 92.56H81.4399V93.36C81.5199 94.88 81.5999 96.64 81.5999 98.24V113.04H85.8399V102.16C85.8399 101.36 85.9199 100.64 85.9999 100.16C86.4799 98 88.0799 96.48 89.8399 96.48C90.1599 96.48 90.3999 96.48 90.6399 96.48V92.24C90.4799 92.24 90.2399 92.16 89.9199 92.16Z" fill="white"/>
<path d="M99.04 113.36C94.48 113.36 91.76 109.44 91.76 102.8C91.76 99.36 92.56 96.56 94.08 94.72C95.36 93.12 97.2 92.24 99.2 92.24C103.6 92.24 106.4 96.24 106.4 102.8C106.32 112.88 100.24 113.36 99.04 113.36ZM99.12 95.36C96.4 95.36 96 100 96 102.72C96 107.6 97.12 110.16 99.2 110.16C100.32 110.16 102.16 109.2 102.16 102.72C102.16 100.56 101.84 95.36 99.12 95.36Z" fill="white"/>
<path d="M130.96 113.04V95.5201H125.28V113.04H121.04V95.5201H118.32V92.5601H121.04V91.2001C121.04 89.9201 121.44 83.4401 129.36 83.4401C131.28 83.4401 132.8 83.8401 133.68 84.3201L132.96 87.6001C132.16 87.2801 130.96 86.8801 129.36 86.8801C126.56 86.8801 125.12 88.4001 125.12 91.5201V92.5601H135.2V113.04H130.96V113.04Z" fill="#1D1D1B"/>
<path d="M147.6 92.16C145.6 92.16 143.44 93.2 142.4 94.96L142.16 92.48H138.56C138.56 92.88 138.56 93.28 138.64 93.68C138.72 95.04 138.72 96.4 138.72 98.16V112.96H142.96V100.32C142.96 99.6 143.04 98.88 143.2 98.4C143.6 96.72 144.64 95.68 145.92 95.68C147.68 95.68 148.56 97.12 148.56 100V113.04H152.8V99.52C152.72 94.8 150.96 92.16 147.6 92.16Z" fill="#1D1D1B"/>
<path d="M168.48 108.48V100.08C168.48 94.64 166.4 92.16 161.92 92.16C159.36 92.16 157.28 93.04 156.4 93.52L157.2 96.32C158.4 95.6 159.6 95.28 160.96 95.28C163.12 95.28 164.24 96.64 164.24 99.12V99.84H164.08C161.6 99.84 159.36 100.48 157.76 101.68C155.92 103.04 154.96 104.96 154.96 107.36C154.96 110.8 157.12 113.36 160 113.36C161.76 113.36 163.68 112.48 164.64 110.88L164.88 113.04H168.64C168.56 111.84 168.48 110.4 168.48 108.48ZM164.32 106.64C164.32 107.12 164.32 107.44 164.24 107.76C163.84 109.28 162.8 110.24 161.44 110.24C160.24 110.24 159.04 109.2 159.04 106.88C159.04 103.2 162.32 102.56 164.24 102.56H164.4V106.64H164.32Z" fill="#1D1D1B"/>
<path d="M180.8 92.16C178.8 92.16 176.64 93.2 175.6 94.96L175.36 92.48H171.76C171.76 92.88 171.76 93.28 171.84 93.68C171.92 95.04 171.92 96.4 171.92 98.16V112.96H176.16V100.32C176.16 99.6 176.24 98.88 176.4 98.4C176.8 96.72 177.84 95.68 179.12 95.68C180.88 95.68 181.76 97.12 181.76 100V113.04H186V99.52C185.92 94.8 184.08 92.16 180.8 92.16Z" fill="#1D1D1B"/>
<path d="M192.64 113.28C191.04 113.28 189.28 112.8 188.4 112.16L189.2 109.12C190.08 109.6 191.36 110.08 192.72 110.08C194.48 110.08 195.52 109.12 195.52 107.52C195.52 106.08 194.88 105.2 192.88 104C190.08 102.32 188.72 100.4 188.72 98.1601C188.72 94.6401 191.36 92.0801 194.88 92.0801C196.24 92.0801 197.44 92.4001 198.64 93.0401L197.84 96.0801C196.96 95.5201 196 95.2801 195.12 95.2801C193.36 95.2801 192.56 96.4801 192.56 97.6001C192.56 98.8001 193.12 99.5201 195.12 100.8C197.92 102.48 199.28 104.48 199.28 106.96C199.36 110.88 196.8 113.28 192.64 113.28Z" fill="#1D1D1B"/>
</svg>
