<svg width="240" height="160" viewBox="0 0 240 160" fill="none" xmlns="http://www.w3.org/2000/svg">
<g clip-path="url(#clip0_128_86605)">
<path d="M37.189 48.9055H45.9677C45.9643 52.353 45.9946 55.8005 45.9531 59.2479C45.9229 62.7915 45.9475 66.3351 45.9397 69.8787C43.0198 69.8867 40.0989 69.8731 37.1779 69.8855C37.1208 67.7569 37.1689 65.626 37.1532 63.4973C37.1588 62.58 37.1342 61.6639 37.1734 60.7477C37.2081 56.8003 37.179 52.8529 37.189 48.9055Z" fill="#87D1CE"/>
<path d="M51.6855 54.036C54.602 54.0383 57.5185 54.0349 60.435 54.0383C60.4305 59.3554 60.4451 64.6736 60.4283 69.9919C60.3869 72.6499 60.4283 75.309 60.407 77.9681C57.5006 77.9737 54.593 77.9839 51.6866 77.9624C51.6821 71.7246 51.6866 65.4857 51.6855 59.2479C51.6855 57.5106 51.6844 55.7733 51.6855 54.036Z" fill="#7FBC3D"/>
<path d="M25.6842 57.6995C27.6237 57.6961 29.5621 57.6973 31.5016 57.6984C31.5004 58.9889 31.5206 60.2806 31.4613 61.57C31.468 66.3691 31.4478 71.1693 31.4725 75.9684C29.5408 75.9661 27.6091 75.9695 25.6775 75.9673C25.6976 73.9823 25.6842 71.9972 25.6842 70.0122C25.6831 65.9076 25.6831 61.803 25.6842 57.6995Z" fill="#40C8F4"/>
<path d="M45.9532 59.2479C47.8635 59.2491 49.7739 59.2479 51.6855 59.2479C51.6866 65.4857 51.6821 71.7246 51.6866 77.9624L51.6877 78.0077C51.6821 80.8014 51.6888 83.594 51.6832 86.3866C49.7706 86.3933 47.8568 86.3956 45.9442 86.3866C45.9431 80.884 45.9498 75.3814 45.9397 69.8787C45.9476 66.3351 45.9229 62.7915 45.9532 59.2479Z" fill="#00AA4F"/>
<path d="M31.4959 60.7421C33.3884 60.7477 35.2809 60.7375 37.1734 60.7477C37.1342 61.6639 37.1588 62.58 37.1532 63.4973C37.1689 65.626 37.1208 67.7569 37.1779 69.8855C37.2182 73.4178 37.1969 76.9501 37.1891 80.4824H37.1711C36.2948 80.5073 35.4186 80.3965 34.5434 80.461C33.5429 80.5232 32.5401 80.4734 31.5396 80.4485C31.4814 83.6562 31.5295 86.865 31.5138 90.0738C31.4982 92.3473 31.5463 94.6218 31.4881 96.8941H31.4456C31.4847 93.3007 31.4512 89.7074 31.4623 86.114C31.4556 82.7321 31.4791 79.3503 31.4724 75.9684C31.4937 70.8933 31.4467 65.8171 31.4959 60.7421Z" fill="#3AC0BE"/>
<path d="M66.1483 66.1293C68.0666 66.1237 69.9848 66.1282 71.9041 66.1282C71.9075 70.0925 71.9041 74.058 71.9052 78.0235C69.9848 78.036 68.0654 78.0258 66.145 78.0292C66.0834 76.9954 66.1271 75.9605 66.1147 74.9256C66.1248 73.2787 66.0924 71.6308 66.1338 69.984C66.1651 68.7002 66.1382 67.4142 66.1483 66.1293Z" fill="#C1DFA4"/>
<path d="M37.1779 69.8856C40.0988 69.8731 43.0198 69.8867 45.9397 69.8788C45.9498 75.3814 45.9431 80.884 45.9442 86.3866C45.9341 93.6763 45.952 100.967 45.9352 108.257C43.0187 108.259 40.1022 108.258 37.1868 108.259C37.189 99.0002 37.1801 89.7413 37.189 80.4825C37.1969 76.9502 37.2181 73.4179 37.1779 69.8856Z" fill="#00908F"/>
<path d="M60.4284 69.9918C62.3298 69.9884 64.2312 70.002 66.1338 69.9839C66.0924 71.6307 66.1248 73.2787 66.1148 74.9255C66.1271 75.9604 66.0834 76.9953 66.145 78.0291C66.1898 79.6952 66.1965 81.3669 66.1405 83.0329C64.2301 83.0239 62.3208 83.0295 60.4104 83.0295C60.4104 81.3556 60.4116 79.6816 60.4104 78.0076C57.5029 78.0065 54.5953 78.0054 51.6878 78.0076L51.6866 77.9624C54.5931 77.9839 57.5006 77.9737 60.4071 77.968C60.4284 75.3089 60.3869 72.6498 60.4284 69.9918Z" fill="#ACD36A"/>
<path d="M20 70.0382C21.8936 69.9715 23.7895 70.0258 25.6842 70.0122C25.6842 71.9972 25.6976 73.9822 25.6775 75.9672C25.654 79.4747 25.6965 82.9821 25.6562 86.4895C23.7704 86.4872 21.8858 86.4895 20 86.4884V70.0382Z" fill="#8DD8F8"/>
<path d="M85.4335 70.2758C85.4895 70.2384 85.6036 70.1638 85.6596 70.1265C89.4065 70.1333 93.1523 70.1231 96.8993 70.1321C97.3223 70.1242 97.2507 70.6705 97.2563 70.9589C97.2059 71.8072 97.3548 72.6736 97.1567 73.5049C94.6274 73.5457 92.097 73.5015 89.5666 73.5276C89.5274 75.2603 89.5464 76.9943 89.5576 78.727C91.6683 78.744 93.7802 78.7293 95.892 78.7338C95.9569 78.7678 96.0856 78.8334 96.1506 78.8673C96.1707 79.8671 96.1584 80.8681 96.1573 81.8703C95.9928 81.9166 95.8271 81.972 95.6559 81.9698C93.6235 81.9754 91.5911 81.9573 89.5587 81.9788C89.5319 83.8722 89.5543 85.7656 89.5475 87.6601C89.7893 87.702 90.0355 87.7348 90.2839 87.7303C92.5223 87.711 94.7606 87.7314 97 87.7257C97.169 87.7427 97.4062 87.6907 97.4768 87.9011C97.5081 88.8907 97.4924 89.8838 97.4857 90.8746C97.5058 91.0782 97.2876 91.1834 97.1153 91.1608C93.346 91.1642 89.5755 91.1642 85.8073 91.1608C85.5634 91.2071 85.3742 90.999 85.4201 90.7593C85.4279 83.931 85.4022 77.1028 85.4335 70.2758Z" fill="#008D7F"/>
<path d="M100.842 70.6162C100.828 70.4363 100.914 70.2791 100.989 70.1241C102.195 70.1388 103.404 70.1174 104.61 70.1332C104.929 70.1094 104.956 70.4883 104.964 70.7225C104.966 75.2501 104.967 79.7789 104.963 84.3076C104.995 85.1152 104.841 85.9839 105.241 86.727C105.465 87.2088 105.913 87.5187 106.377 87.7347C107.291 88.0152 108.256 88.022 109.201 87.953C109.909 87.8705 110.686 87.6725 111.142 87.0708C111.611 86.4883 111.658 85.7034 111.691 84.9863C111.69 81.592 111.69 78.1988 111.69 74.8045C111.707 73.29 111.658 71.771 111.714 70.2587C111.754 70.2305 111.834 70.1728 111.876 70.1445C113.108 70.1083 114.344 70.1332 115.577 70.1343C115.615 70.1943 115.691 70.313 115.729 70.3718C115.73 75.7704 115.73 81.1689 115.73 86.5686C115.708 87.6443 115.299 88.7176 114.544 89.4856C113.549 90.5137 112.15 91.0035 110.781 91.2625C109.035 91.5611 107.241 91.5385 105.496 91.2614C104.179 91.0239 102.811 90.5714 101.893 89.5354C101.151 88.7007 100.84 87.5606 100.844 86.4555C100.84 81.1757 100.843 75.8959 100.842 70.6162Z" fill="#008D7F"/>
<path d="M155.921 71.4124C155.929 70.9826 155.861 70.5325 156.045 70.1275C157.908 70.1242 159.77 70.14 161.632 70.1196C161.985 70.5664 162.098 71.1387 162.298 71.6624C163.916 76.2217 165.541 80.7799 167.16 85.3403C167.21 85.5213 167.328 85.6457 167.534 85.6185C167.642 85.467 167.639 85.2781 167.642 85.1005C167.634 80.3116 167.643 75.5216 167.638 70.7327C167.639 70.5754 167.639 70.416 167.68 70.2644C167.827 70.0721 168.08 70.1411 168.289 70.1253C169.109 70.1332 169.931 70.1264 170.752 70.1264C170.929 70.1219 171.1 70.1773 171.272 70.2248C171.285 76.5022 171.274 82.7807 171.277 89.0581C171.269 89.7503 171.301 90.4425 171.249 91.1324C169.52 91.1958 167.788 91.1528 166.057 91.1573C165.808 91.1845 165.697 90.9277 165.623 90.7354C164.573 87.8388 163.512 84.9456 162.45 82.0523C161.698 79.961 160.922 77.8776 160.168 75.7862C160.077 75.5216 159.949 75.2739 159.804 75.0375C159.732 75.0533 159.588 75.0827 159.515 75.0986C159.489 80.3512 159.517 85.605 159.501 90.8587C159.531 91.0748 159.3 91.1845 159.118 91.1596C158.088 91.1641 157.058 91.1709 156.029 91.1517C155.865 90.7377 155.929 90.2864 155.921 89.8521C155.921 83.7059 155.922 77.5586 155.921 71.4124Z" fill="#008D7F"/>
<path d="M175.074 70.2735C175.129 70.2373 175.238 70.1627 175.292 70.1265C179.042 70.1344 182.792 70.1219 186.542 70.1321C186.8 70.1016 186.903 70.4013 186.895 70.6128C186.903 71.4815 186.895 72.3524 186.895 73.2222C186.865 73.2912 186.803 73.4303 186.772 73.4993C184.251 73.5524 181.73 73.497 179.21 73.5276C179.174 75.2603 179.191 76.9954 179.201 78.7293C181.313 78.7417 183.426 78.7316 185.537 78.7338C185.601 78.7678 185.729 78.8356 185.793 78.8684C185.814 79.8558 185.81 80.8444 185.795 81.8318C185.737 81.8669 185.622 81.937 185.564 81.972C183.443 81.9698 181.322 81.9619 179.201 81.9766C179.182 83.8666 179.193 85.7577 179.195 87.6488C179.32 87.6748 179.447 87.7009 179.576 87.728C181.261 87.7348 182.949 87.7178 184.632 87.7065C185.265 87.7212 185.904 87.7699 186.537 87.6816C186.688 87.7099 186.846 87.7291 187 87.7721C187.159 87.8818 187.115 88.0911 187.129 88.2585C187.124 89.143 187.122 90.0275 187.128 90.9119C187.094 90.9708 187.027 91.0884 186.993 91.1472C183.182 91.1834 179.37 91.1517 175.558 91.1642C175.349 91.1845 175.031 91.1359 175.068 90.8543C175.067 83.9944 175.053 77.1334 175.074 70.2735Z" fill="#008D7F"/>
<path d="M189.655 70.132C190.928 70.1287 192.203 70.1241 193.478 70.132C193.822 70.1139 194.014 70.4465 194.167 70.7055C195.191 72.4858 196.239 74.2514 197.259 76.0339C197.299 76.0305 197.377 76.0249 197.416 76.0226C198.404 74.2548 199.42 72.5039 200.409 70.736C200.531 70.4996 200.7 70.2915 200.901 70.1162C202.19 70.1467 203.481 70.1162 204.771 70.1332C204.818 70.1976 204.913 70.3289 204.961 70.3945C203.209 73.5908 201.335 76.7193 199.563 79.9044C199.83 80.5265 200.224 81.0864 200.549 81.6813C202.28 84.6854 204.016 87.6872 205.747 90.6913C205.86 90.8474 205.88 91.1358 205.628 91.1483C204.374 91.1811 203.116 91.155 201.861 91.1618C201.632 91.1878 201.428 91.0612 201.314 90.8678C199.912 88.5355 198.59 86.1512 197.165 83.8337C195.86 86.1806 194.577 88.5423 193.266 90.8859C193.096 91.2455 192.665 91.1517 192.349 91.1652C191.223 91.1403 190.093 91.2014 188.971 91.1369C188.936 91.0985 188.867 91.0227 188.831 90.9854C189.101 90.2683 189.56 89.6417 189.899 88.9574C191.562 85.942 193.261 82.9436 194.898 79.9146C193.152 76.7137 191.26 73.5874 189.492 70.3967C189.534 70.33 189.614 70.1976 189.655 70.132Z" fill="#008D7F"/>
<path d="M206.659 70.7349C206.661 70.5031 206.645 70.0993 206.984 70.1343C211.244 70.1185 215.507 70.1355 219.769 70.1264C220.179 70.1208 220.595 70.1072 221 70.2056V73.5026C219.307 73.549 217.611 73.4959 215.918 73.5309C215.898 79.2733 215.918 85.0168 215.908 90.7592C215.945 90.9933 215.756 91.2026 215.518 91.1573C214.303 91.1653 213.086 91.1754 211.872 91.1449C211.705 90.1959 211.822 89.2266 211.789 88.2686C211.779 83.3542 211.81 78.4397 211.774 73.5264C210.088 73.5049 208.402 73.5422 206.716 73.506C206.614 72.5854 206.678 71.6579 206.659 70.7349Z" fill="#008D7F"/>
<path fill-rule="evenodd" clip-rule="evenodd" d="M119.784 70.1265C119.728 70.1638 119.617 70.2362 119.561 70.2735C119.53 70.7706 119.534 71.2686 119.537 71.7667C119.539 72.0257 119.54 72.2847 119.537 72.5435C119.537 75.1301 119.537 77.7169 119.537 80.3037C119.537 83.7528 119.538 87.2019 119.536 90.6507C119.526 90.8143 119.587 90.9674 119.647 91.117L119.662 91.1551C120.002 91.1557 120.342 91.1583 120.681 91.1608C121.633 91.168 122.586 91.1751 123.537 91.1393C123.557 91.0965 123.589 91.0266 123.618 90.9647C123.634 90.9302 123.649 90.8981 123.66 90.8746C123.664 89.8907 123.662 88.9068 123.661 87.9229C123.658 86.3621 123.655 84.8014 123.675 83.2411C124.321 83.2168 124.967 83.2211 125.614 83.2254C125.839 83.2269 126.064 83.2284 126.289 83.2287C126.416 83.4017 126.538 83.5793 126.641 83.7704C127.252 84.9771 127.856 86.1873 128.46 87.3976C129.083 88.6457 129.707 89.8938 130.337 91.1382C131.859 91.1755 133.387 91.1857 134.91 91.1325C134.796 90.7468 134.597 90.3962 134.4 90.0501C133.89 89.1056 133.383 88.1596 132.876 87.2137C132.076 85.7206 131.276 84.2277 130.464 82.7412C130.303 82.4403 130.13 81.9607 130.484 81.73C131.153 81.29 131.821 80.8105 132.282 80.1375C133.061 79.0245 133.26 77.6141 133.233 76.2806C133.253 75.3327 133.236 74.3611 132.897 73.4642C132.526 72.3094 131.637 71.3537 130.539 70.8718C128.979 70.1525 127.219 70.1185 125.535 70.1287C124.838 70.1283 124.141 70.1285 123.444 70.1287C122.224 70.129 121.004 70.1293 119.784 70.1265ZM124.636 73.1633C124.316 73.1701 123.996 73.177 123.678 73.1735C123.65 75.5827 123.646 77.9941 123.681 80.4033C124.484 80.4304 125.289 80.427 126.093 80.4033C126.887 80.3625 127.742 80.1352 128.277 79.5007C128.821 78.8243 128.963 77.9149 128.971 77.0667C128.971 76.9813 128.972 76.8955 128.973 76.8093C128.983 75.9557 128.992 75.069 128.594 74.2944C128.313 73.7255 127.71 73.4054 127.114 73.29C126.298 73.1275 125.466 73.1454 124.636 73.1633Z" fill="#008D7F"/>
<path fill-rule="evenodd" clip-rule="evenodd" d="M142.88 69.8889C141.501 69.976 140.058 70.2768 138.974 71.1952C138.132 71.8807 137.64 72.8896 137.287 73.9007C136.725 75.5374 136.477 77.2702 136.404 78.9962C136.253 80.5762 136.376 82.1688 136.507 83.7455C136.725 85.5597 137.087 87.4146 138.024 89.0038C138.772 90.266 140.146 91.0261 141.556 91.2602C143.218 91.5407 144.92 91.5226 146.595 91.3745C148.026 91.2354 149.525 90.7716 150.49 89.6326C151.404 88.5479 151.877 87.15 152.157 85.7712L152.201 85.6898C152.699 83.0736 152.763 80.3885 152.523 77.7395C152.258 75.6935 151.905 73.5309 150.638 71.8456C149.733 70.6331 148.234 70.0992 146.791 69.9307C146.558 69.9063 146.324 69.8961 146.091 69.8859C145.804 69.8733 145.518 69.8608 145.233 69.8221C144.708 69.7775 144.184 69.8122 143.66 69.8469C143.4 69.8641 143.14 69.8813 142.88 69.8889ZM144.002 73.2651C143.138 73.2605 142.042 73.2922 141.532 74.1247C141.018 75.0979 140.895 76.2074 140.775 77.2926C140.758 77.4422 140.742 77.5913 140.724 77.7395C140.711 78.0624 140.693 78.3854 140.676 78.7085C140.614 79.8551 140.552 81.0031 140.662 82.1484L140.663 82.1796C140.732 83.7579 140.803 85.384 141.377 86.8728C141.579 87.4508 142.115 87.8297 142.699 87.9315C143.941 88.1091 145.218 88.1306 146.453 87.8965C147.127 87.772 147.581 87.1794 147.758 86.5426C148.193 85.0892 148.3 83.5588 148.347 82.0489C148.467 80.2335 148.342 78.4114 148.158 76.6051C148.118 76.4152 148.084 76.2193 148.05 76.0213C147.909 75.2028 147.763 74.3503 147.166 73.7537C146.476 73.2352 145.615 73.2514 144.78 73.2671C144.516 73.2721 144.255 73.277 144.002 73.2651Z" fill="#008D7F"/>
<path d="M25.6775 75.9673C27.6091 75.9695 29.5408 75.9662 31.4724 75.9684C31.4791 79.3503 31.4556 82.7322 31.4624 86.114C31.4512 89.7074 31.4847 93.3008 31.4456 96.8941C29.5273 96.893 27.608 96.8885 25.6886 96.8964C25.5834 95.8694 25.6517 94.8356 25.6349 93.8052C25.6495 91.3667 25.6058 88.927 25.6562 86.4895C25.6965 82.9821 25.6539 79.4747 25.6775 75.9673Z" fill="#00AEEF"/>
<path d="M66.1449 78.0292C68.0654 78.0258 69.9847 78.036 71.9052 78.0236C71.9063 82.6349 71.9052 87.2462 71.9052 91.8587C69.9881 91.8587 68.071 91.8575 66.1539 91.8587C66.0811 90.7751 66.1337 89.6882 66.118 88.6035C66.1326 86.7463 66.0901 84.8891 66.1404 83.033C66.1964 81.367 66.1897 79.6953 66.1449 78.0292Z" fill="#73C15B"/>
<path d="M51.6878 78.0077C54.5953 78.0054 57.5029 78.0065 60.4104 78.0077C60.4116 79.6816 60.4104 81.3556 60.4104 83.0296C60.4228 87.6511 60.3869 92.2726 60.4284 96.8941C60.444 99.2784 60.4317 101.664 60.4351 104.049C57.5253 104.049 54.6155 104.049 51.7057 104.049C51.6553 101.426 51.6956 98.8022 51.6833 96.1793C51.6866 92.915 51.6799 89.6508 51.6833 86.3865C51.6889 83.594 51.6822 80.8014 51.6878 78.0077Z" fill="#008172"/>
<path d="M31.5396 80.4484C32.5401 80.4733 33.5428 80.5231 34.5434 80.4609C35.4185 80.3964 36.2948 80.5073 37.1711 80.4824C37.179 88.1566 37.17 95.8297 37.1756 103.503C35.2764 103.503 33.3772 103.505 31.478 103.502C31.4847 101.3 31.4635 99.0962 31.4881 96.894C31.5463 94.6217 31.4982 92.3472 31.5138 90.0738C31.5295 86.8649 31.4814 83.6561 31.5396 80.4484Z" fill="#00A8A7"/>
<path d="M60.4105 83.0296C62.3209 83.0296 64.2301 83.0239 66.1405 83.033C66.0902 84.889 66.1327 86.7462 66.1181 88.6034C66.1338 89.6881 66.0812 90.7751 66.154 91.8586C66.1965 93.536 66.1607 95.2145 66.1719 96.893C64.257 96.893 62.3432 96.8907 60.4284 96.8941C60.387 92.2726 60.4228 87.6511 60.4105 83.0296Z" fill="#00A34C"/>
<path d="M45.9443 86.3866C47.8569 86.3956 49.7706 86.3934 51.6833 86.3866C51.6799 89.6508 51.6866 92.9151 51.6833 96.1793C51.6956 98.8022 51.6553 101.426 51.7057 104.049C51.7146 106.668 51.7068 109.286 51.709 111.906H45.9398C45.9375 110.69 45.9454 109.473 45.9353 108.257C45.9521 100.967 45.9342 93.6763 45.9443 86.3866Z" fill="#006864"/>
<path d="M20 86.4884C21.8858 86.4895 23.7704 86.4873 25.6562 86.4895C25.6058 88.927 25.6495 91.3667 25.6349 93.8052C25.6517 94.8356 25.5835 95.8694 25.6887 96.8964C25.7424 97.8001 25.7166 98.7072 25.6998 99.6121C23.8006 99.6087 21.9003 99.611 20 99.6098V86.4884Z" fill="#2AC4F4"/>
</g>
<defs>
<clipPath id="clip0_128_86605">
<rect width="201" height="63" fill="white" transform="translate(20 48.9055)"/>
</clipPath>
</defs>
</svg>
