<svg width="240" height="160" viewBox="0 0 240 160" fill="none" xmlns="http://www.w3.org/2000/svg">
<path d="M184 41.5H56V118.5H184V41.5Z" fill="black"/>
<path fill-rule="evenodd" clip-rule="evenodd" d="M119.3 50.4036L128.15 73.1322L104.536 75.3245L119.3 50.4036Z" fill="#FE2637"/>
<path fill-rule="evenodd" clip-rule="evenodd" d="M128.104 73.1322L134.109 75.3245L119.3 50.4036L128.059 72.8638L128.104 73.1322Z" fill="white"/>
<path fill-rule="evenodd" clip-rule="evenodd" d="M68.4613 103.109C69.4997 103.109 69.9061 102.214 69.9061 101.275V93.6238C69.9061 83.3333 69.7706 83.0648 68.1001 82.8411V82.3042C68.6891 82.3042 69.2166 82.3407 69.7211 82.3757C70.1835 82.4077 70.6266 82.4384 71.08 82.4384C71.6384 82.4384 72.1707 82.3996 72.6628 82.3637C73.0859 82.3329 73.4793 82.3042 73.8341 82.3042V82.8411C72.7957 82.8411 72.3893 83.7359 72.3893 84.6755C72.3893 85.2954 72.3575 86.4753 72.3206 87.8444L72.3206 87.8444L72.3206 87.8445L72.3206 87.8446L72.3206 87.8446C72.2695 89.7362 72.2087 91.9886 72.2087 93.6238C72.2087 95.152 72.2586 96.8655 72.3059 98.4917L72.3059 98.4917L72.3059 98.4918L72.3059 98.4918C72.3487 99.9602 72.3893 101.357 72.3893 102.483H79.3876C81.7354 102.483 82.6835 101.677 83.4962 99.9771L83.9929 100.111L83.2253 103.78C82.1869 103.512 77.672 103.512 75.3693 103.512H75.3692C74.1896 103.512 73.0328 103.546 71.8817 103.579C70.7416 103.613 69.607 103.646 68.4613 103.646V103.109ZM93.6549 103.914C88.1918 103.914 84.1735 99.8429 84.1735 94.5186C84.1735 89.1944 88.1918 85.1229 93.6549 85.1229C99.1181 85.1229 103.136 89.1944 103.136 94.5186C103.136 99.8429 99.1181 103.914 93.6549 103.914ZM93.7001 85.9283C88.7788 85.9283 86.7019 89.7313 86.7019 94.5186C86.7019 99.2612 88.7788 103.064 93.7001 103.109C98.6214 103.109 100.698 99.306 100.698 94.5186C100.698 89.7313 98.6214 85.9283 93.7001 85.9283ZM106.071 94.5186C106.071 99.8429 110.09 103.914 115.553 103.914C121.016 103.914 125.034 99.8429 125.034 94.5186C125.034 89.1944 121.016 85.1229 115.553 85.1229C110.09 85.1229 106.071 89.1944 106.071 94.5186ZM108.554 94.5186C108.554 89.7313 110.631 85.9283 115.553 85.9283C120.474 85.9283 122.551 89.7313 122.551 94.5186C122.551 99.306 120.474 103.109 115.553 103.109C110.631 103.064 108.554 99.2612 108.554 94.5186ZM129.82 85.1229H130.272L138.895 100.156L146.255 85.2124H146.706L147.474 100.693C147.564 102.796 147.699 103.019 148.873 103.198V103.646C148.505 103.646 148.127 103.625 147.733 103.604L147.732 103.604C147.305 103.581 146.86 103.556 146.39 103.556C145.994 103.556 145.598 103.58 145.215 103.603C144.855 103.625 144.506 103.646 144.178 103.646V103.198C145.261 103.109 145.487 102.348 145.487 101.409C145.487 100.424 145.442 99.5744 145.397 99.1717L144.855 89.9103H144.765L138.263 103.064L130.678 89.8655H130.542L130.046 98.0532C130.001 98.7243 130.001 99.9323 130.001 100.603C130.001 102.438 130.723 103.064 131.626 103.154V103.601C131.242 103.601 130.859 103.579 130.475 103.556L130.475 103.556L130.475 103.556C130.091 103.534 129.707 103.512 129.323 103.512C128.94 103.512 128.567 103.534 128.195 103.556L128.195 103.556L128.195 103.556C127.822 103.579 127.45 103.601 127.066 103.601V103.154C128.466 102.841 128.691 102.393 128.827 100.111L129.82 85.1229ZM156.142 85.436C155.788 85.4377 155.425 85.4575 155.047 85.4781C154.62 85.5013 154.174 85.5255 153.704 85.5255C153.326 85.5255 152.937 85.5038 152.542 85.4817C152.136 85.4591 151.724 85.436 151.311 85.436V85.8834C152.35 85.8834 152.621 86.6441 152.621 87.4494L152.756 101.588C152.756 102.393 152.35 103.154 151.582 103.154V103.601C151.826 103.601 152.115 103.583 152.433 103.563C152.823 103.539 153.257 103.512 153.704 103.512C154.213 103.512 154.679 103.54 155.086 103.565C155.401 103.584 155.68 103.601 155.917 103.601V103.154C155.149 103.154 154.698 102.393 154.698 101.588L154.833 87.4494C154.833 86.6441 155.104 85.8834 156.142 85.8834V85.436ZM169.416 85.4809L169.507 88.3891V88.4785H169.055C168.513 86.7784 166.617 86.0178 164.947 86.0178C162.779 86.0178 160.748 87.0915 160.748 89.4628C160.748 92.185 162.951 92.9992 165.213 93.835C167.598 94.7164 170.049 95.6218 170.049 98.8138C170.049 102.169 167.61 103.959 164.36 103.959C162.734 103.959 161.109 103.646 159.483 103.198L159.393 100.469H159.845C160.432 102.348 162.554 103.109 164.315 103.109C166.391 103.109 168.197 102.08 168.197 99.7981C168.197 97.1829 166.097 96.4572 163.892 95.6954C161.458 94.8542 158.897 93.9691 158.897 90.4472C158.897 86.6441 161.922 85.1229 165.353 85.1229C166.022 85.1229 166.67 85.2149 167.313 85.3061C168.015 85.4056 168.709 85.5042 169.416 85.4809Z" fill="white"/>
<path fill-rule="evenodd" clip-rule="evenodd" d="M104.491 75.2798L128.059 73.1322L134.064 75.3245C134.064 75.3245 112.934 77.1142 112.347 77.2037C111.715 77.2484 104.491 75.2798 104.491 75.2798Z" fill="#5F6062"/>
</svg>
