<svg width="240" height="160" viewBox="0 0 240 160" fill="none" xmlns="http://www.w3.org/2000/svg">
<path d="M67.1 127C68.4 127 69.3 126.1 69.3 124.9V107.8C69.3 106.1 68.5 105.3 67.2 104.9V104.2C68.5 104.2 69.7 104.3 71 104.3C72.3 104.3 73.6 104.2 74.8 104.2V104.9C73.4 105.3 73 106.1 73 107.9C73 108.9 72.9 111.1 72.9 114.1V125.8C73.6 125.9 74.3 126 76.5 126C82.3 126 83.3 125 84.2 122.8L85.4 123.4L84 128.2C82.9 127.8 81.8 127.7 80.8 127.7H69.6C68.8 127.7 67.9 127.8 67 127.8V127H67.1Z" fill="#000080"/>
<path d="M88.3999 108.9C89.3999 108.9 90.2999 109 91.2999 109C92.2999 109 93.2999 108.9 94.1999 108.9V109.5C92.9999 109.7 92.6999 110.5 92.6999 112.2C92.6999 114.8 92.6999 117.3 92.6999 119.9C92.6999 123.5 94.3999 126.1 98.3999 126.1C100.6 126.1 103.4 124.8 103.4 121.8V118.6C103.4 115.4 103.2 112.2 103.2 110.9C103.2 110.1 102.5 109.6 101.8 109.6V109C102.8 109 103.7 109.1 104.7 109.1C105.7 109.1 106.7 109 107.6 109V109.6C106.7 109.6 106.3 110.7 106.3 111.6C106.3 112.6 106.2 115.4 106.2 119V124.9C106.2 126.4 106.5 127.2 107.7 127.3V127.9C106.9 127.9 106.2 127.8 105.4 127.8C104.6 127.8 103.9 127.9 103.1 127.9C103.2 127 103.2 126.1 103.3 125.3C101.3 127.1 99.6999 128.2 96.8999 128.2C92.8999 128.2 89.7999 125.9 89.7999 121.9V117.4C89.7999 115.3 89.6999 113.4 89.6999 111.8C89.6999 110.7 89.4999 109.9 88.3999 109.7V108.9Z" fill="#000080"/>
<path d="M113.3 127.1C114.4 126.8 115 126 115 124.5L115.1 108.5H116.2L129.4 123V113.7C129.4 110.4 128.7 109.6 127.4 109.4V108.8C128.3 108.8 129.2 108.9 130.1 108.9C131 108.9 131.9 108.8 132.8 108.8V109.4C131.6 109.6 131 110.6 131 112.7L130.9 127.9H130L116.6 113.3L116.7 123.6C116.7 125.7 117.4 126.7 118.7 127V127.6C117.8 127.6 116.9 127.5 116 127.5C115.1 127.5 114.2 127.6 113.4 127.6V127.1H113.3Z" fill="#000080"/>
<path d="M138.1 127.1C139.2 126.8 139.5 126.3 139.5 125.2V117.4C139.5 115 139.2 112.9 139.2 111.6C139.2 110.5 138.8 109.7 137.8 109.4V108.9C139.1 108.9 140.3 109 141.6 109C142.8 109 144.1 108.9 145.4 108.9C152.8 108.9 157.2 112.1 157.2 118.2C157.2 124.4 153.7 127.7 146.1 127.7C144.8 127.7 143.4 127.6 142.1 127.6C140.8 127.6 139.4 127.7 138.1 127.7V127.1ZM142.4 126.4C143.7 126.6 144.7 126.6 145.7 126.6C150.9 126.6 153.4 123.4 153.4 118.3C153.4 113.4 150 110 145.2 110C144.3 110 143.5 110.1 142.4 110.1C142.4 112.5 142.3 114.6 142.3 116.9V126.4H142.4Z" fill="#000080"/>
<path d="M161.9 124.1H162.9C163.6 126.1 165.3 127 167.3 127C169.1 127 170.8 125.5 170.8 123.6C170.8 117.9 161.6 121.4 161.6 114.1C161.6 110.6 164.6 108.6 167.8 108.6C169.6 108.6 171.7 109.2 172.6 109.8L172.9 112.7H171.9C171.5 110.9 169.6 109.7 167.8 109.7C165.8 109.7 164.2 111 164.2 113.1C164.2 117.8 173.4 115.1 173.4 122.1C173.4 125.7 170.5 128 167.1 128C165.3 128 163.5 127.8 161.8 126.9V124.1H161.9Z" fill="#000080"/>
<path d="M113.2 82V85.4C113.2 85.6 114 85.9 114 85.9H111.6C111.6 85.9 112.3 85.6 112.3 85.5V82.6L111.5 82.7V82.6L113.2 82Z" fill="#9C6114"/>
<path d="M128.9 82.1C127.8 82.3 127.2 83 127.1 83.8C127.4 83.7 127.6 83.6 127.9 83.6C128.7 83.6 129.2 84.1 129.2 84.7C129.2 85.4 128.6 86 127.6 86C126.6 86 125.9 85.4 125.9 84.4C126 83.2 127.1 82 128.9 82.1ZM127.6 83.8C127.3 83.8 127.1 83.9 127 84C127 84.1 127 84.3 127 84.6C127 85 127.1 85.7 127.6 85.7C128.2 85.7 128.2 85.2 128.2 84.7C128.2 84.4 128.2 83.8 127.6 83.8Z" fill="#9C6114"/>
<path d="M123.7 82.1C122.6 82.3 122 83 121.9 83.8C122.2 83.7 122.4 83.6 122.7 83.6C123.5 83.6 124 84.1 124 84.7C124 85.4 123.4 86 122.4 86C121.4 86 120.7 85.4 120.7 84.4C120.8 83.2 122 82 123.7 82.1ZM122.5 83.8C122.2 83.8 122 83.9 121.9 84C121.9 84.1 121.9 84.3 121.9 84.6C121.9 85 122 85.7 122.5 85.7C123.1 85.7 123.1 85.2 123.1 84.7C123.1 84.4 123 83.8 122.5 83.8Z" fill="#9C6114"/>
<path d="M118.6 82.1C117.5 82.3 116.9 83 116.8 83.8C117.1 83.7 117.3 83.6 117.6 83.6C118.4 83.6 118.9 84.1 118.9 84.7C118.9 85.4 118.3 86 117.3 86C116.3 86 115.6 85.4 115.6 84.4C115.7 83.2 116.8 82 118.6 82.1ZM117.3 83.8C117 83.8 116.8 83.9 116.7 84C116.7 84.1 116.7 84.3 116.7 84.6C116.7 85 116.8 85.7 117.3 85.7C117.9 85.7 117.9 85.2 117.9 84.7C117.9 84.4 117.9 83.8 117.3 83.8Z" fill="#9C6114"/>
<path d="M84.9 49.5C85.3 49.6 85.8001 49.8999 86.1001 50.0999C86.0001 50.1999 86.0001 50.3 86.0001 50.5C85.9001 50.8 86 51.2 85.9 51.7C85.7 53.1 84.5 54.1 83.2 53.9C81.9 53.7 81.1001 52.2999 81.3001 50.7999C81.4001 50.0999 81.8001 49.6 81.8001 49.5C81.8001 49.4 81.8001 49.2 81.8001 49.2L83.0001 49.2999C83.0001 49.2999 81.7001 50.0999 81.6001 50.7999C81.4001 51.7999 82.1 52.5999 83.2 52.7999C84.3 52.9999 85.3001 52.3999 85.5001 51.2999C85.8001 50.6999 84.9 49.5 84.9 49.5Z" fill="#9C6114"/>
<path d="M96.5001 31.1L93.9001 33.9C93.9001 33.9 94.1001 33.1 93.8001 32.8L91.7001 30.8C91.4001 30.5 90.6001 30.8 90.6001 30.8L92.3001 29.1C92.3001 29.1 92.1001 29.9 92.4001 30.2L94.5001 32.2C94.7001 32.4 94.8001 32.4 95.0001 32.2L95.6001 31.5C95.9001 31.2 95.9001 29.9 95.9001 29.9L96.5001 31.1Z" fill="#9C6114"/>
<path d="M94.3003 27.1L96.1003 25.7C96.1003 25.7 95.9003 26.5 96.1003 26.7L97.9003 28.9C98.1003 29.2 98.9003 29.1 98.9003 29.1L97.1003 30.5C97.1003 30.5 97.3003 29.8 97.1003 29.5L95.3003 27.2999C95.1003 26.9999 94.3003 27.1 94.3003 27.1Z" fill="#9C6114"/>
<path d="M100.3 27.1C100.5 27.5 101.3 27.5 101.3 27.5L99.8 28.4C99.8 28.4 100.1 27.7 99.9 27.5L98.2 24.7C98 24.7 97.5 24.6 97.5 24.6L98.8 23.8L102.9 24.9L101.7 23C101.4 22.6 100.6 22.6 100.6 22.6L102.2 21.6C102.2 21.6 101.8 22.3 102 22.5L104 25.8L103.6 26L98.8 24.7L100.3 27.1Z" fill="#9C6114"/>
<path d="M126.2 21C126.2 21 126.9 22.2 127.4 22.4C127.9 22.5 128.3 22.3 128.4 21.9C128.6 20.9 126.4 20.4 126.7 19C126.8 18.3 127.5 18 128.4 18.2C128.9 18.3 129.3 18.6 129.4 18.6C129.4 18.6 129.5 18.6 129.6 18.6H129.7L129.6 19.8C129.6 19.8 128.9 18.7 128.4 18.6C128 18.5 127.7 18.7 127.6 18.9C127.5 19.5 128.6 19.9 129.2 20.9C129.4 21.2 129.5 21.6 129.4 21.9C129.2 22.6 128.5 23.1 127.6 22.9C127 22.8 126.6 22.5 126.5 22.4C126.4 22.4 126.4 22.4 126.3 22.5H126.1L126.2 21Z" fill="#9C6114"/>
<path d="M131.9 19.3L134.1 20C134.1 20 133.3 20.2 133.2 20.6L132.3 23.3C132.2 23.6 132.7 24.3 132.7 24.3L130.6 23.6C130.6 23.6 131.3 23.4 131.4 23.1L132.3 20.4C132.4 19.9 131.9 19.3 131.9 19.3Z" fill="#9C6114"/>
<path d="M138.4 25.3L137.9 26.2C137.3 26.2 136.6 26 136 25.8C134.4 25 134.1 23.7 134.7 22.5C135.3 21.3 136.7 21 138 21.6C138.7 21.9 139.1 22.4 139.3 22.5C139.4 22.5 139.5 22.5 139.5 22.5L139.7 22.6L139.1 23.8L138.8 23.7C139.1 23 138.8 22.3 138.1 22C137.2 21.5 136.2 21.9 135.7 23C135.2 24 135.4 25.2 136.3 25.6C136.5 25.7 136.8 25.8 137.1 25.8L137.5 24.9C137.7 24.6 137 23.9 137 23.9L139.1 25C139.2 24.9 138.6 25 138.4 25.3Z" fill="#9C6114"/>
<path d="M141.7 23.9L143.6 25.2C143.6 25.2 142.8 25.2 142.6 25.5L141 27.8C140.8 28.1 141.1 28.8 141.1 28.8L139.2 27.5C139.2 27.5 140 27.5 140.1 27.2L141.7 24.9C142 24.6 141.7 23.9 141.7 23.9Z" fill="#9C6114"/>
<path d="M148.4 36.3L146 33.3C146 33.3 146.8 33.6 147.1 33.4L149.3 31.6C149.6 31.3 149.5 30.6 149.5 30.6L151 32.5C151 32.5 150.2 32.2 149.9 32.4L147.6 34.2C147.4 34.4 147.4 34.5 147.6 34.7L148.2 35.4C148.5 35.8 149.7 35.9 149.7 35.9L148.4 36.3Z" fill="#9C6114"/>
<path d="M145.2 32.5L142.4 29.9C142.4 29.9 143.2 30.1 143.5 29.8L145.4 27.7C145.7 27.4 145.4 26.6 145.4 26.6L147.2 28.2C147.2 28.2 146.4 28 146.1 28.3L144.1 30.5C143.9 30.7 143.9 30.8 144.1 31L144.8 31.6C145.2 31.9 146.4 31.9 146.4 31.9L145.2 32.5Z" fill="#9C6114"/>
<path d="M152.1 35.4C152.4 34.9 152.4 34.3 152.4 34.3L153.7 36.4C153.7 36.4 152.9 35.9 152.6 36.3L151.2 38.4001L153.9 38.2001C154.2 38.2001 154.2 37.2001 154.2 37.2001L155.1 38.8C155.1 38.8 154.4 38.5 153.8 38.6L149.6 38.9001L152.1 35.4Z" fill="#9C6114"/>
<path d="M155.2 41.2L152.8 41.9C152.3 42 152.1 42.8 152.1 42.8L151.6 41.3C151.6 41.3 152.2 41.7 152.8 41.5L155.3 40.8C155.6 40.7 155.9 40.1 155.9 40.1L156.4 41.5L154 43.8L157.1 44L157.6 45.4C157.6 45.4 157.1 45 156.7 45.2L154.3 46.2C153.7 46.4 153.6 47.1 153.6 47.1L152.8 45C152.8 45 153.3 45.5 153.7 45.4C153.8 45.4 153.9 45.3 154 45.3L156.3 44.3L152.4 44L152.3 43.8L155.2 41.2Z" fill="#9C6114"/>
<path d="M155.6 57.1C155.2 57.1 154.7 57.8 154.7 57.8L154.8 56.1C154.8 56.1 155.2 56.7 155.5 56.7L158.8 56.8C158.9 56.6 159.3 56.2 159.3 56.2L159.2 57.7L156 60.5L158.2 60.6C158.7 60.6 159.1 59.9 159.1 59.9L159 61.7C159 61.7 158.7 61 158.4 61L154.6 60.8V60.4L158.3 57.1H155.6Z" fill="#9C6114"/>
<path d="M158.7 63.2001L158.3 65.4001C158.3 65.4001 158 64.7 157.6 64.6L154.8 64C154.5 63.9 153.9 64.5 153.9 64.5L154.3 62.3C154.3 62.3 154.6 63 154.9 63.1L157.7 63.7001C158.1 63.7001 158.7 63.2001 158.7 63.2001Z" fill="#9C6114"/>
<path d="M154.1 75.2L154.8 73.8L153.4 73.1L152.9 74.1C152.7 74.4 153 75.1 153 75.1L151.7 74.5C151.7 74.5 152.3 74.4 152.6 73.9L153.1 73L152 72.4C151.7 72.3 151.6 72.3 151.6 72.5L151.1 73.6C150.9 74 151.3 74.9 151.3 74.9L150.3 74.3L152.3 70.5C152.3 70.5 152.3 71.5 152.6 71.6L155.1 72.9C155.4 73.1 156.1 72.6 156.1 72.6L154.1 76L153.1 75.6C153.2 75.6 153.9 75.5 154.1 75.2Z" fill="#9C6114"/>
<path d="M146.7 80.8C146.7 80.8 145.3 80.7 144.9 81.1C144.6 81.4 144.5 81.9 144.8 82.2C145.6 82.9 147.1 81.3 148.1 82.3C148.6 82.8 148.5 83.5 147.9 84.1C147.5 84.5 147.1 84.7 147 84.7L146.8 85L145.9 84.3C145.9 84.3 147.2 84.3 147.6 83.9C147.9 83.6 147.9 83.3 147.7 83.1C147.2 82.6 146.3 83.4 145.2 83.4C144.8 83.4 144.5 83.3 144.2 83C143.7 82.5 143.7 81.6 144.3 81C144.7 80.6 145.2 80.4 145.3 80.3C145.3 80.3 145.4 80.2 145.3 80.1L145.4 80L146.7 80.8Z" fill="#9C6114"/>
<path d="M145.2 86.5L143.4 87.9C143.4 87.9 143.7 87.1 143.4 86.9L141.7 84.7C141.5 84.4 140.7 84.5 140.7 84.5L142.5 83.1C142.5 83.1 142.3 83.8 142.5 84.1L144.3 86.3C144.5 86.5 145.2 86.5 145.2 86.5Z" fill="#9C6114"/>
<path d="M125.7 95.3L123.4 95.5C123.4 95.5 124 95 124 94.6L123.7 91.8C123.7 91.5 123 91.1 123 91.1L125.3 90.9C125.3 90.9 124.7 91.4 124.8 91.7L125.1 94.5C125.1 94.9 125.7 95.3 125.7 95.3Z" fill="#9C6114"/>
<path d="M121.2 92.4C121.2 92.4 120.3 91.3 119.7 91.3C119.2 91.3 118.9 91.6 118.9 92C118.9 93.1 121.2 93.1 121.2 94.5C121.2 95.2 120.6 95.7 119.7 95.6C119.2 95.6 118.7 95.4 118.6 95.4L118.3 95.5L118.2 94.3C118.2 94.3 119.1 95.3 119.6 95.3C120 95.3 120.3 95.1 120.3 94.8C120.3 94.1 119.1 94 118.3 93.2C118 92.9 117.9 92.6 117.9 92.3C117.9 91.6 118.6 91 119.4 91C120 91 120.5 91.2 120.6 91.2C120.7 91.2 120.9 91.1 120.9 91.1L121.2 92.4Z" fill="#9C6114"/>
<path d="M108.9 90.8001L109.2 89.8001C109.8 89.7001 110.5 89.7001 111.1 89.9001C112.8 90.4001 113.4 91.6001 113.1 92.9001C112.8 94.2001 111.5 94.8001 110 94.4001C109.3 94.2001 108.8 93.8001 108.6 93.8001C108.5 93.8001 108.2 93.8001 108.2 93.8001L108.5 92.5001C108.5 92.5001 109.2 93.9001 109.9 94.1001C110.9 94.4001 111.8 93.8001 112.1 92.7001C112.4 91.6001 111.9 90.5001 111 90.3001C110.7 90.2001 110.4 90.2001 110.2 90.3001L109.9 91.2001C109.7 91.8001 110.6 92.1001 110.6 92.1001L108.3 91.5001C108.2 91.4001 108.8 91.1001 108.9 90.8001Z" fill="#9C6114"/>
<path d="M94.8001 81.4L93.9001 82.3L95.6001 83.9L96.5001 83C96.8001 82.7 96.6001 82 96.6001 82L98.3001 83.6C98.3001 83.6 97.5001 83.5 97.3001 83.7L95.3001 85.8C95.1001 86.1 95.2001 86.8 95.2001 86.8L93.5001 85.2C93.5001 85.2 94.2001 85.4 94.5001 85.1L95.3001 84.3L93.6001 82.7L92.8001 83.5C92.5001 83.8 92.7001 84.5 92.7001 84.5L91.1001 82.9C91.1001 82.9 91.9001 83.1 92.1001 82.8L94.0001 80.8C94.3001 80.5 94.1001 79.8 94.1001 79.8L95.8001 81.4C95.8001 81.3 95.1001 81.1 94.8001 81.4Z" fill="#9C6114"/>
<path d="M82.6001 63.7999L85.1001 63.5999C85.6001 63.5999 86.0001 62.9 86.0001 62.9L86.2001 64.5C86.2001 64.5 85.7001 64 85.1001 64L82.5001 64.2C82.1001 64.2 81.8001 64.7999 81.8001 64.7999L81.6001 63.2999L84.4001 61.5L81.3001 60.5999L81.1001 59.0999C81.1001 59.0999 81.5001 59.6 82.0001 59.5L84.6001 59C85.2001 58.9 85.5001 58.2 85.5001 58.2L85.8001 60.4C85.8001 60.4 85.4001 59.7999 85.0001 59.7999C84.9001 59.7999 84.8001 59.8 84.7001 59.9L82.2001 60.4L86.0001 61.5V61.7L82.6001 63.7999Z" fill="#9C6114"/>
<path d="M158 51C158.5 50.7 158.8 50.1 158.8 50.1L159 52.6C159 52.6 158.5 51.8 158.1 52.1L156.2 53.2L158.5 54.3C158.8 54.4 159.1 53.6 159.1 53.6L159.3 55.4C159.3 55.4 158.8 54.8 158.2 54.6L154.5 53L158 51Z" fill="#9C6114"/>
<path d="M156.9 67.1C157.5 67 158 66.6 158 66.6L157.3 69C157.3 69 157.1 68.1 156.6 68.1L154.4 68.4L156.2 70.3C156.4 70.5 157 69.9 157 69.9L156.5 71.6C156.5 71.6 156.2 70.9 155.8 70.5L153 67.6L156.9 67.1Z" fill="#9C6114"/>
<path d="M84.2004 69.9C83.8004 70.3 83.6004 70.9 83.6004 70.9L82.8004 68.6C82.8004 68.6 83.5004 69.2 83.8004 68.9L85.4004 67.4L82.9004 66.9C82.6004 66.9 82.5004 67.7 82.5004 67.7L81.9004 66C81.9004 66 82.5004 66.4 83.2004 66.5L87.1004 67.2L84.2004 69.9Z" fill="#9C6114"/>
<path d="M99.9004 85.6C100.1 85.3 99.7004 84.5 99.7004 84.5L101.8 86C101.8 86 100.9 85.9 100.7 86.2L98.7004 89.1L99.4004 89.6C99.9004 89.9 100.8 89.5 100.8 89.5L100.1 90.3L96.4004 87.7L96.9004 86.7C96.9004 86.7 96.8004 87.7 97.3004 88L98.0004 88.5L99.9004 85.6Z" fill="#9C6114"/>
<path d="M128 91.1C127.9 90.7 127 90.5 127 90.5L129.5 89.9C129.5 89.9 128.8 90.5 128.9 90.9L129.7 94.2L130.5 94C131 93.9 131.3 92.9 131.3 92.9L131.5 94L127.1 95L126.8 94C126.8 94 127.5 94.7 128 94.6L128.8 94.4L128 91.1Z" fill="#9C6114"/>
<path d="M137.9 87.2C137.7 86.9 136.8 86.9 136.8 86.9L139 85.6C139 85.6 138.5 86.4 138.7 86.7L140.5 89.7L141.2 89.3C141.7 89 141.7 88 141.7 88L142.2 89L138.3 91.3L137.6 90.4C137.6 90.4 138.5 90.9 138.9 90.6L139.6 90.2L137.9 87.2Z" fill="#9C6114"/>
<path d="M155.6 48.9C155.6 48.5 155.9 48.2 156.3 48.2C156.7 48.2 157 48.5 157 48.9C157 49.3 156.7 49.5999 156.3 49.5999C155.9 49.5999 155.6 49.3 155.6 48.9Z" fill="#9C6114"/>
<path d="M114.8 92.9C114.8 92.5 115.1 92.2 115.5 92.2C115.9 92.2 116.2 92.5 116.2 92.9C116.2 93.3 115.9 93.6 115.5 93.6C115.1 93.6 114.8 93.3 114.8 92.9Z" fill="#9C6114"/>
<path d="M82.6001 56.4C82.6001 56 82.9001 55.7 83.3001 55.7C83.7001 55.7 84.0001 56 84.0001 56.4C84.0001 56.8 83.7001 57.0999 83.3001 57.0999C82.9001 57.0999 82.6001 56.7 82.6001 56.4Z" fill="#9C6114"/>
<path d="M88.9002 36.3C88.0002 35.7 87.8002 34.8 88.3002 34C88.9002 33.1 90.1002 33.3 91.1002 34C91.9002 34.6 92.3002 35.5 91.7002 36.3C91.2002 37.1 90.0002 37.1 88.9002 36.3ZM88.6002 37.4C89.6002 38.1 91.0002 37.9 91.9002 36.6C92.9002 35.2 92.6002 33.8 91.5002 33C90.4002 32.2 89.0002 32.5 88.2002 33.7C87.3002 35 87.4002 36.6 88.6002 37.4Z" fill="#9C6114"/>
<path d="M107.1 22.6L105.7 23L105.8 20.9L107.1 22.6ZM108 22.1L109.2 21.6C109.7 21.4 110.4 21.6 110.4 21.6L109.4 20.5C109.4 20.5 109.3 21.1 109 21.3L107.7 21.8L106.5 20.4L108.4 19.8C108.7 19.7 109.5 20 109.5 20L108.7 19.2L104.7 20.6C104.7 20.6 105.2 20.7 105.1 21.4L105 24.4C104.9 24.9 104.6 25.5 104.6 25.5L106.1 24.9C106.1 24.9 105.4 24.6 105.5 24.3L105.6 23.4L107.3 22.9L108.2 24.1L111.9 22.7L111.1 21.8C111.1 21.8 111.4 22.4 110.9 22.6L108.9 23.4L108 22.1Z" fill="#9C6114"/>
<path d="M88 41.8C88.3 42 89.1 41.4 89.1 41.4L88 43.7C88 43.7 88 42.9 87.6 42.7L85 41.5C84.7 41.4 84 41.8 84 41.8C84.1 41.5 84.2 41.2 84.3 40.9C84.4 40.5 84.6 40.1 84.7 39.8C85.1 38.9 85.5 38.4 86 38.2C86.3 38.1 86.6 38.1 86.9 38.2C87.4 38.4 87.6 39 87.5 39.6C88.1 39.3 88.7 39.4 89.3 39.1C89.7 39 90.3 38.5 90.3 38.5C90.2 38.6 90.2 38.7 90.1 38.9C89.7 39.7 89.5 40 89 40.1C88.5 40.3 87.7 40.3 87.1 40.6L86.9 41.1L88 41.8ZM86.7 41.2L86.8 40.9C87.2 40.1 87.1 39.6 86.4 39.2C85.7 38.9 85.2 39.3 84.9 39.9L84.7 40.2L86.7 41.2Z" fill="#9C6114"/>
<path d="M85.4004 47.3L86.0004 47.8C86.3004 48 86.9004 47.3 86.9004 47.3L86.3004 49.2C86.3004 49.2 86.1004 48.5 85.8004 48.2L82.4004 45.3L86.9004 44.6C87.3004 44.5 87.9004 44.1 87.9004 44.1L87.1004 46.4C87.1004 46.4 86.9004 45.5 86.6004 45.6L85.8004 45.7L85.4004 47.3ZM83.9004 46L85.1004 47L85.5004 45.8L83.9004 46Z" fill="#9C6114"/>
<path d="M88.7004 73C89.0004 72.8 89.0004 71.9 89.0004 71.9L90.2004 74.1C90.2004 74.1 89.5004 73.6 89.2004 73.8L86.7004 75.1C86.4004 75.3 86.3004 76.1 86.3004 76.1C86.1004 75.8 86.0004 75.6 85.8004 75.3C85.6004 75 85.3004 74.5 85.2004 74.3C84.7004 73.4 84.6004 72.8 84.7004 72.3C84.8004 72 85.0004 71.8 85.3004 71.6C85.8004 71.3 86.3004 71.5 86.8004 72C86.9004 71.4 87.3004 70.9 87.5004 70.2C87.6004 69.8 87.7004 69 87.7004 69C87.8004 69.1 87.8004 69.2 87.9004 69.4C88.3004 70.2 88.4004 70.6 88.2004 71C88.1004 71.5 87.6004 72.2 87.5004 72.8L87.8004 73.3L88.7004 73ZM87.5004 73.6L87.4004 73.4C87.0004 72.6 86.5004 72.3 85.9004 72.7C85.2004 73.1 85.3004 73.7 85.6004 74.3L85.8004 74.6L87.5004 73.6Z" fill="#9C6114"/>
<path d="M88.4 79.6C87.5 78.4 87.6 77 88.7 76.2C89.7 75.4 91.2 75.6 92.2 76.9C93.2 78.2 92.9 79.6 91.9 80.3C90.8 81.2 89.3 80.8 88.4 79.6ZM91.9 77C91.3 76.2 90.3 76.3 89.6 76.9C88.7 77.6 88.2 78.7 88.8 79.5C89.3 80.2 90.3 80.3 91.1 79.6C92.1 78.9 92.5 77.8 91.9 77Z" fill="#9C6114"/>
<path d="M103.6 92.1C102.2 91.5 101.7 90.2 102.2 89C102.7 87.8 104.1 87.2 105.6 87.9C107.1 88.6 107.5 89.9 107 91C106.5 92.3 105.1 92.7 103.6 92.1ZM105.4 88.1C104.5 87.7 103.7 88.3 103.3 89.2C102.8 90.2 102.9 91.5 103.9 91.9C104.7 92.3 105.6 91.9 106 90.9C106.6 89.7 106.3 88.5 105.4 88.1Z" fill="#9C6114"/>
<path d="M149 77C148.7 76.8 147.9 77.1 147.9 77.1L149.4 75.1C149.4 75.1 149.3 75.9 149.6 76.2L151.9 77.9C152.2 78.1 153 77.8 153 77.8C152.8 78.1 152.7 78.3 152.5 78.6C152.3 78.9 152 79.4 151.8 79.6C151.2 80.4 150.7 80.8 150.2 80.9C149.9 80.9 149.6 80.9 149.3 80.7C148.9 80.4 148.8 79.8 149 79.2C148.4 79.3 147.8 79.2 147.1 79.3C146.7 79.4 146 79.6 146 79.6C146.1 79.5 146.1 79.4 146.3 79.2C146.8 78.5 147.2 78.3 147.6 78.2C148.1 78.1 148.9 78.2 149.5 78.1L149.8 77.6L149 77ZM150.1 77.9L149.9 78.1C149.4 78.8 149.3 79.3 149.9 79.8C150.5 80.3 151.1 80 151.5 79.4L151.7 79.1L150.1 77.9Z" fill="#9C6114"/>
<path d="M134.7 89.5V88.7C134.7 88.4 133.8 88.3 133.8 88.3L135.6 87.6C135.6 87.6 135.1 88.2 135.1 88.7L134.9 93.2L131.7 90C131.4 89.7 130.7 89.5 130.7 89.5L132.9 88.6C132.9 88.6 132.3 89.3 132.6 89.5L133.2 90L134.7 89.5ZM134.7 91.4V89.8L133.5 90.3L134.7 91.4Z" fill="#9C6114"/>
<path d="M120.6 27.7001C120.4 27.2001 119.9 26.8 119.9 26.8L122.3 27C122.3 27 121.5 27.4 121.6 27.8L122.4 29.8L123.8 27.7001C123.9 27.5001 123.3 27 123.3 27L125.1 27.1C125.1 27.1 124.5 27.5 124.2 28L122.1 31.3L120.6 27.7001Z" fill="#9C6114"/>
<path d="M100.9 35C100.4 34.8 99.8003 34.8 99.8003 34.8L101.7 33.3C101.7 33.3 101.4 34.2 101.8 34.4L103.7 35.4L103.3 32.9C103.2 32.7 102.4 32.7 102.4 32.7L103.8 31.6C103.8 31.6 103.6 32.3 103.8 32.9L104.4 36.7L100.9 35Z" fill="#9C6114"/>
<path d="M137.9 33.7C138.1 33.2 137.9 32.6 137.9 32.6L139.7 34.2C139.7 34.2 138.8 34 138.7 34.4L138 36.6L140.4 35.7C140.6 35.6 140.4 34.8 140.4 34.8L141.7 36C141.7 36 140.9 35.9 140.4 36.2L136.7 37.5L137.9 33.7Z" fill="#9C6114"/>
<path d="M108.5 33.2C108.7 33.5 109.5 33.6 109.5 33.6L107.2 34.7C107.2 34.7 107.7 34 107.6 33.7L106.1 30.6L105.4 30.9C104.9 31.1 104.8 32.1 104.8 32.1L104.4 31.1L108.4 29.2L109 30.1C109 30.1 108.2 29.5999 107.7 29.7999L107 30.1L108.5 33.2Z" fill="#9C6114"/>
<path d="M126.6 28.4L125.7 30.7001C125.5 31.1001 126 31.8 126 31.8L124.5 31.4C124.5 31.4 125.2 31.1 125.4 30.6L126.3 28.2001C126.4 27.9001 126.1 27.3 126.1 27.3L127.5 27.7001L128 30.9L130.1 28.5L131.5 28.9C131.5 28.9 130.9 29 130.8 29.5L130.1 32C130 32.6 130.4 33.1 130.4 33.1L128.3 32.5C128.3 32.5 129 32.4 129.1 32C129.1 31.9 129.2 31.8001 129.2 31.7001L129.8 29.3L127.3 32.2001H127.1L126.6 28.4Z" fill="#9C6114"/>
<path d="M143.6 38.9L142.7 37.7L141.5 38.7L142.2 39.5999C142.4 39.8999 143.1 39.9 143.1 39.9L142 40.7C142 40.7 142.2 40.1 141.8 39.7L141.2 38.9L140.2 39.7C140 39.9 140 39.9999 140.1 40.0999L140.8 41C141.1 41.4 142 41.4 142 41.4L141.1 42L138.5 38.7C138.5 38.7 139.3 39.1 139.6 38.9L141.8 37.2C142.1 37 142 36.2 142 36.2L144.3 39.2L143.6 39.9C143.6 39.9 143.8 39.2 143.6 38.9Z" fill="#9C6114"/>
<path d="M116.6 30.6C116.6 31 117.4 31.3 117.4 31.3L115 31.6C115 31.6 115.7 31.2 115.6 30.8L115.4 28C115.4 27.7 114.6 27.3 114.6 27.3C114.9 27.2 115.2 27.2 115.5 27.2C115.9 27.1 116.4 27.1 116.6 27C117.6 26.9 118.2 27 118.6 27.3C118.9 27.5 119 27.8 119 28.1C119.1 28.6 118.7 29.1 118.1 29.3C118.6 29.6 118.9 30.1 119.4 30.6C119.7 30.9 120.4 31.2 120.4 31.2C120.2 31.2 120.2 31.2 120 31.3C119.1 31.4 118.8 31.3 118.4 31C118 30.7 117.5 30 117.1 29.7L116.6 29.8V30.6ZM116.5 29.3H116.8C117.6 29.2 118.1 28.9 118 28.2C117.9 27.5 117.3 27.3 116.7 27.3H116.3L116.5 29.3Z" fill="#9C6114"/>
<path d="M94.5 41.3C94.7 41 94.9 40.6 95.1 40.4C95.3 40.1 95.4 39.9 95.6 39.6C96.4 38.5 96.9 38 97.6 37.9C98.1 37.8 98.6 37.9 99.1 38.3C99.6 38.7 99.9 39.2 100 39.7C100.1 40.2 100 40.9 99.2 42L97.9 43.8C97.9 43.8 98 43.1 97.7 42.8L95.5 41.3C95.2 41 94.5 41.3 94.5 41.3ZM98.3 42C98.7 42.3 98.8 42.2 99.1 41.8C100 40.5 99.4 39.6 98.7 39.1C98.2 38.8 97.7 38.6 97.3 38.7C96.8 38.8 96.4 39.1 96 39.6C95.9 39.8 95.8 39.9 95.7 40.1L98.3 42Z" fill="#9C6114"/>
<path d="M95.0003 47.2L95.5003 47.7C95.7003 47.9 96.4003 47.4 96.4003 47.4L95.7003 49.2C95.7003 49.2 95.6003 48.5 95.3003 48.2L92.3003 45.1L96.7003 44.9C97.1003 44.9 97.7003 44.5 97.7003 44.5L96.8003 46.6C96.8003 46.6 96.7003 45.8 96.4003 45.8H95.6003L95.0003 47.2ZM93.8003 45.8L94.9003 46.9L95.4003 45.7L93.8003 45.8Z" fill="#9C6114"/>
<path d="M135.2 30.7C136.5 31.4 136.9 32.7 136.3 33.8C135.7 34.9 134.3 35.4 132.9 34.6C131.5 33.8 131.2 32.5 131.7 31.5C132.4 30.2 133.9 29.9 135.2 30.7ZM133.2 34.4C134 34.9 134.8 34.3 135.3 33.5C135.8 32.5 135.8 31.3 134.9 30.8C134.1 30.4 133.3 30.7 132.8 31.6C132.2 32.8 132.3 33.9 133.2 34.4Z" fill="#9C6114"/>
<path d="M135.3 37.8C133.8 36.6 134.3 36.8 133.9 35.5C133.5 34.2 133.8 32.5 133.5 32.3C133.2 32.1 134.1 32 134.4 34.7C134.8 37.4 135.3 37.8 135.3 37.8Z" fill="#9C6114"/>
<path d="M99.1002 92.4C86.8002 85.2 78.6002 71.8 78.6002 56.6C78.6002 33.7 97.3002 15 120.2 15C143.1 15 161.8 33.7 161.8 56.6C161.8 79.5 143.1 98.2 120.2 98.2C112.6 98.2 105.5 96.2 99.4002 92.6L98.7002 92.2L98.2002 92.9L98.9002 93.3C105.2 96.9 112.4 99 120.2 99C143.6 99 162.7 79.9 162.7 56.5C162.7 33.1 143.6 14 120.2 14C96.8002 14 77.7002 33.1 77.7002 56.5C77.7002 72.1 86.1002 85.7 98.6002 93.1L99.1002 93.4L99.5002 92.7L99.1002 92.4Z" fill="#9C6114"/>
<path d="M103.5 83.5C94.5002 77.9 88.4002 67.9 88.4002 56.5C88.4002 41.8 98.6002 29.3 112.2 25.8L112.4 25.1C98.2002 28.6 87.7002 41.4 87.7002 56.6C87.7002 68.2 93.9002 78.4 103.1 84.2L103.6 84.5L103.9 84L103.5 83.5Z" fill="#9C6114"/>
<path d="M103.5 84.3C108.4 87.2 114.1 88.9 120.2 88.9C138.1 88.9 152.6 74.4 152.6 56.5C152.6 38.6 138.1 24.1 120.2 24.1C118.1 24.1 116.1 24.3 114.1 24.7L114 25.4C116 25 118.1 24.8 120.2 24.8C137.7 24.8 151.9 39.1 151.9 56.5C151.9 73.9 137.7 88.2 120.2 88.2C114.2 88.2 108.6 86.5 103.8 83.6L103.3 83.3L102.8 83.7L103.5 84.3Z" fill="#9C6114"/>
<path d="M119.9 21.7C119.6 21.7 119.3 21.6 119.1 21.4C118.8 21.3 118.6 21.1 118.5 20.8" fill="#9C6114"/>
<path d="M120.3 19.1L121.4 18.1C121.6 18.3 121.8 18.5 121.9 18.8C122.1 19 122.1 19.3 122.1 19.6L120.6 19.7L121.9 20.4C121.8 20.7 121.6 20.9 121.4 21.1C121.2 21.3 120.9 21.4 120.7 21.5L120.1 20.1L119.8 21.6C119.5 21.6 119.2 21.5 119 21.3C118.7 21.2 118.5 21 118.4 20.7L119.5 19.7L118.1 20C118 19.7 118 19.4 118.1 19.1C118.2 18.8 118.3 18.6 118.5 18.3L119.8 19.1L119.1 17.8C119.3 17.6 119.6 17.5 119.9 17.5C120.2 17.5 120.5 17.5 120.7 17.6L120.3 19.1Z" fill="#9C6114"/>
<path d="M135.8 47.7C135.5 47.7 135.1 47.4 135 47.1C134.9 46.8 135.2 46.5 135.2 46.5C135.3 46.5 135.4 46.5 135.4 46.5C135.6 46.5 135.6 46.4 135.6 46.2C135.6 46 135.4 45.9 135.2 45.9C135 45.9 134.8 46 134.6 45.9C134.5 45.9 134.5 45.7 134.6 45.6C134.6 45.5 134.7 45.4 134.7 45.3C134.7 45.2 134.5 45.1 134.4 45.1C134.3 45.1 134.1 45.2 134.1 45.3C134.1 45.5 134.2 45.5 134.3 45.6C134.4 45.7 134.4 45.8 134.3 45.9L133.9 46.1H133.8C133.6 46.1 133.5 46.2 133.5 46.4C133.5 46.6 133.6 46.7 133.8 46.7C133.9 46.7 134 46.6 134.1 46.5C134.1 46.5 134.4 46.7 134.4 47C134.4 47.3 134.3 47.5 133.8 47.7C133.4 47.8 133.1 47.6 133.1 47.6C133.1 47.6 133 48 132.6 47.9C132 47.8 131.9 47.1 131.9 47.1C131.9 47.1 132.1 47.1 132.3 46.8C132.4 46.5 132.2 46.4 131.9 46.3C131.7 46.3 131.5 46.5 131.3 46.4C131.1 46.3 131.4 45.8 131.1 45.6C130.8 45.4 130.6 45.8 130.6 45.8C130.6 45.8 131 46.3 131.6 47.1C132.1 47.8 132.7 48.6 132.7 48.6L132.4 48.8C132.4 48.8 131.9 48.1 131.2 47.1C130.6 46.3 130.1 45.8 130.1 45.8C130.1 45.8 130.1 45.7 130.3 45.6C130.5 45.4 130.8 45.1 131.2 45.2C131.6 45.4 131.4 46 131.4 46C131.4 46 131.6 45.8 132 45.8C132.4 45.9 132.7 46.2 132.7 46.5C132.6 47 132.3 47.1 132.3 47.1C132.3 47.1 132.3 47.3 132.6 47.2C132.8 47.2 133 46.8 133 46.8C133 46.8 133.6 47.3 133.8 46.9C133.8 46.9 133.8 46.8 133.9 46.8H133.8C133.4 46.8 133.1 46.5 133.1 46.1C133.1 45.7 133.4 45.4 133.8 45.4C133.9 45.4 133.8 45.4 134 45.4C133.9 45.3 133.7 45.2 133.7 44.9C133.7 44.6 134 44.3 134.3 44.3C134.6 44.3 135 44.6 135 44.9C135 45.1 134.9 45.3 134.8 45.3C134.9 45.2 135 45.2 135.2 45.2C135.6 45.2 135.9 45.5 135.9 45.9C135.9 46.3 135.6 46.6 135.2 46.6H135.1C135.2 46.7 135.4 46.8 135.5 46.8C136 46.9 136 46.5 136 46.5C136 46.5 136.2 46.7 136.4 46.6C136.8 46.5 136.7 46.3 136.7 46.3C136.7 46.3 136.4 46.3 136.1 45.9C135.9 45.6 135.9 45.3 136.3 45.1C136.6 44.9 137 45 137 45C137 45 136.6 44.6 136.9 44.2C137.2 43.9 137.6 44 137.9 44.1C138.1 44.2 138.3 44.3 138.3 44.3C138.3 44.3 138 44.8 137.8 45.8C137.5 47.1 137.3 47.8 137.3 47.8L136.9 47.7C136.9 47.7 137.1 46.6 137.3 45.7C137.5 44.8 137.7 44.5 137.7 44.5C137.7 44.5 137.3 44.2 137.1 44.5C136.9 44.8 137.4 45 137.2 45.2C137 45.4 136.7 45.2 136.5 45.3C136.3 45.5 136.3 45.6 136.4 45.8C136.5 46 136.8 45.9 136.8 45.9C136.8 45.9 137 46.6 136.5 46.9C136.2 47.1 135.9 46.8 135.9 46.8C135.9 46.8 136.4 47.8 135.8 47.7Z" fill="#9C6114"/>
<path d="M132.7 48.9999C132.7 48.5999 133.8 48.1999 135.1 48.0999C136.5 47.8999 137.7 48.0999 137.7 48.4999C137.7 48.8999 136.6 49.2999 135.3 49.3999C133.9 49.4999 132.7 49.3999 132.7 48.9999ZM135 48.9999C135.8 48.8999 136.4 48.7999 136.4 48.4999C136.4 48.3999 135.7 48.2999 134.8 48.3999C134 48.4999 133.3 48.6999 133.3 48.7999C133.3 48.9999 134.2 49.0999 135 48.9999Z" fill="#9C6114"/>
<path d="M144.5 46.5C144.2 46.5 143.8 46.2 143.7 45.9C143.6 45.6 143.9 45.3 143.9 45.3C144 45.3 144.1 45.3 144.1 45.3C144.3 45.3 144.3 45.2 144.3 45C144.3 44.8 144.1 44.7 143.9 44.7C143.7 44.7 143.5 44.8 143.3 44.7C143.2 44.7 143.2 44.5 143.3 44.4C143.3 44.3 143.4 44.2 143.4 44.1C143.4 44 143.2 43.9 143.1 43.9C143 43.9 142.8 44 142.8 44.1C142.8 44.3 142.9 44.3 143 44.4C143.1 44.5 143.1 44.6 143 44.7L142.6 44.9H142.5C142.3 44.9 142.2 45 142.2 45.2C142.2 45.4 142.3 45.5 142.5 45.5C142.6 45.5 142.7 45.4 142.8 45.3C142.8 45.3 143.1 45.5 143.1 45.8C143.1 46.1 143 46.3 142.5 46.5C142.1 46.6 141.8 46.4 141.8 46.4C141.8 46.4 141.7 46.8 141.3 46.7C140.7 46.6 140.6 45.9 140.6 45.9C140.6 45.9 140.8 45.9 141 45.6C141.1 45.3 140.9 45.2 140.6 45.1C140.4 45.1 140.2 45.3 140 45.2C139.8 45.1 140.1 44.6 139.8 44.4C139.5 44.2 139.3 44.6 139.3 44.6C139.3 44.6 139.7 45.1 140.3 45.9C140.8 46.6 141.4 47.4 141.4 47.4L141.1 47.6C141.1 47.6 140.6 46.9 139.9 45.9C139.3 45.1 138.8 44.6 138.8 44.6C138.8 44.6 138.8 44.5 139 44.4C139.2 44.2 139.5 43.9 139.9 44C140.3 44.2 140.1 44.8 140.1 44.8C140.1 44.8 140.3 44.6 140.7 44.6C141.1 44.7 141.4 45 141.4 45.3C141.3 45.8 141 45.9 141 45.9C141 45.9 141 46.1 141.3 46C141.5 46 141.7 45.6 141.7 45.6C141.7 45.6 142.3 46.1 142.5 45.7C142.5 45.7 142.5 45.6 142.6 45.6H142.5C142.1 45.6 141.8 45.3 141.8 44.9C141.8 44.5 142.1 44.2 142.5 44.2C142.6 44.2 142.5 44.2 142.7 44.2C142.6 44.1 142.4 44 142.4 43.7C142.4 43.4 142.7 43.1 143 43.1C143.3 43.1 143.7 43.4 143.7 43.7C143.7 43.9 143.6 44.1 143.5 44.1C143.6 44 143.7 44 143.9 44C144.3 44 144.6 44.3 144.6 44.7C144.6 45.1 144.3 45.4 143.9 45.4H143.8C143.9 45.5 144.1 45.6 144.2 45.6C144.7 45.7 144.7 45.3 144.7 45.3C144.7 45.3 144.9 45.5 145.1 45.4C145.5 45.3 145.4 45.1 145.4 45.1C145.4 45.1 145.1 45.1 144.8 44.7C144.6 44.4 144.6 44.1 145 43.9C145.3 43.7 145.7 43.8 145.7 43.8C145.7 43.8 145.3 43.4 145.6 43C145.9 42.7 146.3 42.8 146.6 42.9C146.8 43 147 43.1 147 43.1C147 43.1 146.7 43.6 146.5 44.6C146.2 45.9 146 46.6 146 46.6L145.6 46.5C145.6 46.5 145.8 45.4 146 44.5C146.2 43.6 146.4 43.3 146.4 43.3C146.4 43.3 146 43 145.8 43.3C145.6 43.6 146.1 43.8 145.9 44C145.7 44.2 145.4 44 145.2 44.1C145 44.3 145 44.4 145.1 44.6C145.2 44.8 145.5 44.7 145.5 44.7C145.5 44.7 145.7 45.4 145.2 45.7C144.9 45.9 144.6 45.6 144.6 45.6C144.6 45.6 145.1 46.5 144.5 46.5Z" fill="#9C6114"/>
<path d="M141.3 47.7C141.3 47.3 142.4 46.9 143.7 46.8C145.1 46.6 146.3 46.8 146.3 47.2C146.3 47.6 145.2 48 143.9 48.1C142.5 48.3 141.4 48.1 141.3 47.7ZM143.7 47.8C144.5 47.7 145.1 47.6 145.1 47.3C145.1 47.2 144.4 47.1 143.5 47.2C142.7 47.3 142 47.5 142 47.6C142 47.8 142.8 47.9 143.7 47.8Z" fill="#9C6114"/>
<path d="M140.9 52.4001C140.6 52.4001 140.2 52.1001 140.1 51.8001C140 51.5001 140.3 51.2001 140.3 51.2001C140.4 51.2001 140.5 51.2001 140.5 51.2001C140.7 51.2001 140.7 51.1001 140.7 50.9001C140.7 50.7001 140.5 50.6001 140.3 50.6001C140.1 50.6001 139.9 50.7001 139.7 50.6001C139.6 50.6001 139.6 50.4001 139.7 50.3001C139.7 50.2001 139.8 50.1001 139.8 50.0001C139.8 49.9001 139.6 49.8001 139.5 49.8001C139.4 49.8001 139.2 49.9001 139.2 50.0001C139.2 50.2001 139.3 50.2001 139.4 50.3001C139.5 50.4001 139.5 50.5001 139.4 50.6001L139 50.8001H138.9C138.7 50.8001 138.6 50.9001 138.6 51.1001C138.6 51.3001 138.7 51.4001 138.9 51.4001C139 51.4001 139.1 51.3001 139.2 51.2001C139.2 51.2001 139.5 51.4001 139.5 51.7001C139.5 52.0001 139.4 52.2001 138.9 52.4001C138.5 52.5001 138.2 52.3001 138.2 52.3001C138.2 52.3001 138.1 52.7001 137.7 52.6001C137.1 52.5001 137 51.8001 137 51.8001C137 51.8001 137.2 51.8001 137.4 51.5001C137.5 51.2001 137.3 51.1001 137 51.0001C136.8 51.0001 136.6 51.2001 136.4 51.1001C136.2 51.0001 136.5 50.5001 136.2 50.3001C135.9 50.1001 135.7 50.5001 135.7 50.5001C135.7 50.5001 136.1 51.0001 136.7 51.8001C137.2 52.5001 137.8 53.3001 137.8 53.3001L137.5 53.5001C137.5 53.5001 137 52.8001 136.3 51.8001C135.7 51.0001 135.2 50.5001 135.2 50.5001C135.2 50.5001 135.2 50.4001 135.4 50.3001C135.6 50.1001 135.9 49.8001 136.3 49.9001C136.7 50.1001 136.5 50.7001 136.5 50.7001C136.5 50.7001 136.7 50.5001 137.1 50.5001C137.5 50.6001 137.8 50.9001 137.8 51.2001C137.7 51.7001 137.4 51.8001 137.4 51.8001C137.4 51.8001 137.4 52.0001 137.7 51.9001C137.9 51.9001 138.1 51.5001 138.1 51.5001C138.1 51.5001 138.7 52.0001 138.9 51.6001C138.9 51.6001 138.9 51.5001 139 51.5001H138.9C138.5 51.5001 138.2 51.2001 138.2 50.8001C138.2 50.4001 138.5 50.1001 138.9 50.1001C139 50.1001 138.9 50.1001 139.1 50.1001C139 50.0001 138.8 49.9001 138.8 49.6001C138.8 49.3001 139.1 49.0001 139.4 49.0001C139.7 49.0001 140.1 49.3001 140.1 49.6001C140.1 49.8001 140 50.0001 139.9 50.0001C140 49.9001 140.1 49.9001 140.3 49.9001C140.7 49.9001 141 50.2001 141 50.6001C141 51.0001 140.7 51.3001 140.3 51.3001H140.2C140.3 51.4001 140.5 51.5001 140.6 51.5001C141.1 51.6001 141.1 51.2001 141.1 51.2001C141.1 51.2001 141.3 51.4001 141.5 51.3001C141.9 51.2001 141.8 51.0001 141.8 51.0001C141.8 51.0001 141.5 51.0001 141.2 50.6001C141 50.3001 141 50.0001 141.4 49.8001C141.7 49.6001 142.1 49.7001 142.1 49.7001C142.1 49.7001 141.7 49.3001 142 48.9001C142.3 48.6001 142.7 48.7001 143 48.8001C143.2 48.9001 143.4 49.0001 143.4 49.0001C143.4 49.0001 143.1 49.5001 142.9 50.5001C142.6 51.8001 142.4 52.5001 142.4 52.5001L142 52.4001C142 52.4001 142.2 51.3001 142.4 50.4001C142.6 49.5001 142.8 49.2001 142.8 49.2001C142.8 49.2001 142.4 48.9001 142.2 49.2001C142 49.5001 142.5 49.7001 142.3 49.9001C142.1 50.1001 141.8 49.9001 141.6 50.0001C141.4 50.2001 141.4 50.3001 141.5 50.5001C141.6 50.7001 141.9 50.6001 141.9 50.6001C141.9 50.6001 142.1 51.3001 141.6 51.6001C141.3 51.8001 141 51.5001 141 51.5001C141 51.5001 141.5 52.4001 140.9 52.4001Z" fill="#9C6114"/>
<path d="M137.7 53.7C137.7 53.3 138.8 52.9 140.1 52.8C141.5 52.6 142.7 52.8 142.7 53.2C142.7 53.6 141.6 54 140.3 54.1C139 54.2 137.8 54 137.7 53.7ZM140.1 53.7C140.9 53.6 141.5 53.5 141.5 53.2C141.5 53.1 140.8 53 139.9 53.1C139.1 53.2 138.4 53.4 138.4 53.5C138.4 53.7 139.2 53.8 140.1 53.7Z" fill="#9C6114"/>
<path d="M123.1 44.8C122 46.1 122.7 47.9001 122.5 49.4001C122.1 50.7001 120.7 51.5 120.3 52.8C120.2 53.6 120.1 54.6001 120.6 55.2001C120.6 55.1001 120.5 55 120.5 55C120.3 53.4 120.8 52.3 122.1 51C124.2 48.7 121.7 46.8 123.7 45L123.1 44.8Z" fill="#9C6114"/>
<path d="M127.9 59.5C128.8 59.5 129.5 59.4 130.4 59.1C131.3 58.8 132 58.6 132.9 58.3C134.7 57.7 135.7 57.3 137.6 57.3H137.8C138.3 57.3 138.8 57.4 139.3 57.5C139.5 57.6 139.9 57.8 140.1 57.9C141.3 59 141.4 59.5 142.9 60.5C143.6 60.8 144.2 61.5 144.8 61.6C144.6 61.4 144.3 61.3 143.8 60.8C143.1 60.2 141.8 58.6 140.5 57.5C139.8 57.1 139 56.8 138.1 56.7C136.4 56.4 134.5 56.9 133.1 57.5C131.6 58 131 58.1 129.4 58.4C128.8 58.5 128.4 58.5 127.9 58.3C127.7 56.6 127.1 57 127.3 55C127.9 52.7 127.7 50.7 126.9 48.9C127.1 48.3 127.1 47.3 126.6 46.8C126.1 46.4 124.9 46.2 124.7 47.1C124.8 47.7 125.7 47.3 126.1 47.6C126.6 47.7 126.5 48.3 126.5 48.6C126.4 49.5 125.3 50 124.6 50.2C124.9 50.8 126 50.4 126.3 50.1C126.7 51 126.9 51.1 127.1 52.2C127.2 54.1 126.6 54 125.9 55.2C125.6 55.8 125.6 56.7 126.1 58C126 56 126.2 55.9 126.8 55C126.8 55 126.6 55.8 126.6 56.6C126.6 57.5 127.1 57.8 127.1 58.6C126.9 59.3 126.9 59.6 126.5 60.2C125.6 61.3 124.1 61.2 123.5 64.1C124.6 62.4 124.9 62 125.9 61.4C127.3 60.8 127.6 60.4 127.9 59.5Z" fill="#9C6114"/>
<path d="M117.3 50C117.8 50.4 117.9 50.8 118.4 51.2C118.2 51.1 117 50.2 116.3 50.5C115.4 50.6 114.1 51.4 113.3 50.6C112.7 50.4 112.4 49.4 112.3 48.8C112.8 49.7 113.8 50.6001 114.9 50.4001C115.5 50.3001 115.9 50.2 116.4 50.2C116.7 50.2 117.1 50.2 117.5 50.5C117.1 50.1 116.6 49.8 116 49.8C114.6 49.8 113.2 50.4 112.3 48.8C113.1 49.4 114.8 49.5 116.1 49.5C116.5 49.5 117 49.7 117.3 50ZM115.2 47.7C115.1 47.9 114.9 48.2001 115 48.4001L115.4 47.9001C115.3 47.8001 115.2 47.8 115.2 47.7ZM116 48.2C116.1 48.4 116.2 48.5 116.3 48.7C116.5 48.7 116.5 48.4001 116.7 48.4001L116 48.2ZM116.3 49.3C116.2 48.9 116.1 48.5001 115.6 48.4001C115.2 48.2001 114.8 49.2001 114.6 48.4001C114.4 47.9001 115 47.5 114.5 47.1C114 46.4 114.7 46.3 114.5 45.5C114.5 45 114.4 44.3 115.1 44.2C116.2 43.9 117.4 43.9 118.5 44.3C118.8 44 118.9 43.9 119 43.7C119 43.7 119.5 43.6 119.8 43.8C120.1 43.9 120.5 44.1 120.5 44.1C120.2 44.1 119.6 44.2 119.7 44.7C119.9 45.2 120.4 44.5001 121.8 45.4001C121.9 45.5001 122.1 45.6001 122.1 45.9001C121.5 45.6001 121.1 45.7 120.6 45.5C120.2 45.4 120.1 45.3001 119.6 45.4001C119.4 45.4001 118.8 45.9 118.8 45.6C118.8 45.6 118.8 45.4 118.7 45.1C118.6 44.8 118.4 44.8 118.2 44.7C116.8 44.4 116.1 44.5 115.4 44.6C115.1 44.6 114.9 45 115.1 45.3C115.4 45.8 115.5 45.7 115.7 45.7C115.9 45.6 116.1 45.2 116.5 45.2C116.8 45.2 117 45.2 117.1 45.5V45.7C117 45.5 116.7 45.6 116.5 45.6C116.4 45.7 116.4 45.7 116.4 45.8C116.5 46 116.6 45.9001 116.8 45.9001C116.7 46.1001 116 46.2 115.6 46.2C115.4 46.2 115.4 46.4 115.3 46.5C115.1 46.7 115.2 46.9 115.3 47.1C116 47.9 117.1 48 117.9 48.5C118.1 48.6 118.3 49 118.4 49.2C118 49 117.9 49.6 117.9 49.8L118.1 49.7C118.2 49.7 118.6 49.5 118.6 49.5C118.8 49.7 118.7 50.1 118.8 50.3C118.9 50.1 118.8 49.8 119 49.5C119.3 50.5 119.9 52.3 118.4 54.7C117.6 56.3 117.7 56.6 117.8 58.7C116.8 56.5 117.5 55.4 117.8 54C117.8 53.9 117.8 53.7 117.7 53.6C117.8 54.2 117.6 54.6 117.2 55.2C116.5 56.1 116.4 57.3 116.8 58.1C117.1 59.1 117.4 59.5 117.3 60.5C117.1 61.5 116.9 62.1001 117.2 63.4001C116.4 61.8001 116.7 61.3001 116.7 60.4001C116.7 59.6001 116.6 58.9 116.1 58.3L116.4 58.5C116.1 60.3 113.7 60.5001 114.6 62.9001C114.9 63.5001 115.6 64.5 115.7 65C115.2 64.1 114.5 64 114.1 63.1C112.9 62.9 112 63.7 110.8 64.1C110.1 64.3 109.5 64.6 108.3 63.6C110.4 64.4 111.8 63 113.2 62.5C114 62.2 113.6 61.6 113.7 61.1C113.9 59.7 115.3 59.7001 115.7 58.4001C115.7 57.2001 115.6 56.5 115.9 55.8C116.3 55 116.8 55.2 116.9 54.3C117.2 53.2 115.6 53.1 115.9 51.7C116.1 52 116.5 52.1 116.8 52.3C117.4 52.6 118 53 118.4 53.5C118.4 53.3 117.9 52.6001 117.7 52.4001L117 52C117.1 51.8 117.3 51.7 117.5 51.5C117.4 52.1 118.2 52.4 118.5 52.8C118.7 51.9 118.5 51 118.2 50.2C118.2 50.2 117.9 50.2001 117.7 50.4001C117.4 49.8001 117.6 49.5 117.7 49C117.7 48.8 117.5 48.9001 117.4 48.9001C117.2 49.0001 117.1 49.1 117.1 49.1L116.8 48.6C116.7 48.7 116.4 49 116.3 49.3Z" fill="#9C6114"/>
<path d="M125.9 48.3C126 48.6 125.8 48.9 125.7 49.1C125.6 49.3 125.4 49.3001 125.3 49.4001C125.3 49.2001 125.8 48.9 125.5 48.6L124.9 48.2001C125.2 47.9001 125.8 47.9 125.9 48.3Z" fill="#9C6114"/>
<path d="M116.9 51.8C116.8 51.8 116.6 51.8 116.5 51.7C116 51.5 116.6 51.3 116.6 51C116.7 51.2 116.7 51.6 116.9 51.8Z" fill="#9C6114"/>
<path d="M118.9 57.5C118.9 58.5 118.8 59.2 118.6 59.8C118.4 60.4 118.3 60.6 117.9 61.4C118.3 60.5 118.4 59.7 118.6 58.7C118.7 57.7 118.7 56.3 119.1 55.5L119.4 54.6C119 56.1 119 56.8 118.9 57.5Z" fill="#9C6114"/>
<path d="M106.5 68.2C106.8 67.9 106.9 68 107 67.9C107.2 68.1 107.1 68.3 107.4 68.4C107.8 68.6 108.3 68.2 108.6 68C108.6 68 109.4 68.5 109.8 68.5C110.2 68.5 110.4 68.0999 110.8 68.0999C111.2 68.0999 111.4 68.5999 111.4 68.5999C111.4 68.5999 111.8 68.6 113.9 68.2C116 67.9 115.5 69.1999 115.5 69.1999C115.5 69.1999 116.3 69.4 117.1 68.5C117.7 67.8 118.4 66.9 118.6 66C118.8 65.1 118.8 61.7 118.8 61.7C118.8 61.7 118.2 63.1999 118.2 64.0999C118.1 64.9999 118 66 117.2 67.2C117 67.4 116.4 67.7 116.4 67.7C116.5 67.7 116.2 67.2 115.9 67C115.5 66.7 115.2 66.7 115.2 66.7C115.2 66.7 113.7 67.7 113.1 67.7C112.5 67.7 113.1 66.7 113.1 66.7C113.1 66.7 111.4 67.2999 110.5 67.5999C109.6 67.8999 109.4 67.4 109.4 67.4C109 67.6 108.1 67.8999 107.5 67.7999C107 67.4999 106.8 67.3 106.6 67.5L106.1 68C105.6 66.9 106.9 66.4999 107.3 66.0999L106.5 66C106.2 65.9 106 65.5 106.1 65.2C105.6 65.2 105.2 65.4 104.8 65.5C104.9 64.6 106 65 106.4 64.4C106.5 64.2 106.8 64.0999 107.2 64.2999C107.2 64.2999 106.2 63.6 106.2 63.4C106.5 62.4 108.1 63.8999 108.5 64.0999C108.4 63.8999 108.2 63.7999 108.1 63.5999C107.4 62.0999 105.6 62.3999 105 63.5999C105.1 63.6999 105.7 63.3 105.7 63.7C105.8 63.9 106 64.1 106 64.2C105.6 64.4 105.2 64.3999 105 64.5999C103.9 64.9999 103.9 66.4 103.9 66.4C103.9 66.4 105 66.1999 105.3 66.0999C105.3 66.0999 105.4 66.1 105.4 66C105.6 66.6 106.1 66.2 105.5 67.2C105.2 67.8 105.8 68.7999 105.8 68.7999C105.8 68.7999 106.3 68.6 106.5 68.2Z" fill="#9C6114"/>
<path d="M121 60.2C120.7 60.6 119.8 62.4 119.7 64C119.4 62.6 119.7 61.4 120.9 59.5C122.5 57.1 121.7 54.8 121.8 54.1C123 58.3 121.5 59.4 121 60.2Z" fill="#9C6114"/>
<path d="M115.8 62.7C115.9 63 116 63.4999 116.4 64.0999C116.6 64.4999 116.9 65.2 116.6 66.7C116.3 64.7 116.1 64.6 115.7 63.9C115.4 63.3 115.2 62.4 115.3 61.7C115.3 61.5 115.7 60.9 115.9 60.7C115.6 61.1 115.6 62.1 115.8 62.7Z" fill="#9C6114"/>
<path d="M120.3 65.4C119.7 66.2 119.3 66.8 119 67C119.3 64.7 120.7 64.3 121.4 61.5C121.3 62.6 120.8 64.7 120.3 65.4Z" fill="#9C6114"/>
<path d="M130 68.6C130.3 68.7 130.6 68.8 130.8 68.9C130.4 68.8 129.7 68.6 129.4 68.6C129.2 68.6 129.1 68.6 128.9 68.6C127.8 68.5 126.6 68.2 125.8 68.5C124.5 69.1 123 70.2 122.7 70.9C122 72.4 120.2 71.2 119 72.6C118.7 72.3 119.1 71.7 119.8 71.3C120.3 71 121.5 71.4 122 70.9C122.3 70.6 121.6 69.9 120.8 70.2C119.7 70.6 119.7 71.1 119.1 71.5C119.1 70.8 119.8 69.8 120.9 69.7C121.4 69.6 121.9 69.9 122.5 69.8C123.1 69.4 123.5 69.2 124.4 68.7C124.9 68.4 125.4 68.3 126.1 68.2C127.5 68.1 128.7 68.5 130 68.6Z" fill="#9C6114"/>
<path d="M117.3 52.1C117.3 52.1 117.2 52.1 116.9 52C116.6 51.9 116.2 51.7 116.2 51.7C116 51.7 116 51.6 116 51.6C116 51.6 116.1 51.5 116.2 51.5C116.3 51.5 116.7 51.6 117 51.7C117.3 51.9 117.5 52 117.5 52L117.3 52.1Z" fill="#9C6114"/>
<path d="M126.4 46C126.4 46 126.4 46.1 126.5 46.4C126.6 46.7 126.7 46.9 126.7 46.9C126.7 46.9 125.4 46.9 125.5 46.8C125.6 46.6 125.7 46.5 125.6 46.3C125.5 46.2 125.4 46 125.4 46H126.4Z" fill="#9C6114"/>
<path d="M119 49.5C118.9 49.1 118.7 48.9 117.9 48.4C117.1 48 116.4 47.9 116.1 47.7C115.8 47.6 115.3 47.4 115.4 47.5C115.5 47.5 117.1 48.5 117.4 48.6C117.7 48.7 118.2 48.9 118.3 49.1C118.5 49.3 118.5 49.3 118.6 49.5C118.7 49.7 118.6 50 118.7 50.3C118.8 50.6 119 50.6 119 50.6C119 50.6 119.2 50.1 119 49.5Z" fill="#9C6114"/>
<path d="M116.8 46.6C117.3 46.6 117.5 46.6 117.9 46.8C118.3 46.9 118.4 47.5 118.6 47.8C118.6 47.8 117.7 46.9 117 46.9C116.9 46.8 116.6 46.6 116.8 46.6Z" fill="#9C6114"/>
<path d="M116.3 47.1C116.6 47 116.7 47.1 117 47.2C117.2 47.3 117.3 47.5 117.6 47.8L117.4 47.7C117.4 47.7 117.4 47.7 117.1 47.5C116.8 47.3 116.7 47.3 116.5 47.3C116.4 47.2 116.2 47.1 116.3 47.1Z" fill="#9C6114"/>
<path d="M124.1 46C124.1 46 123.5 46.5 123.5 47.4C123.4 48.3 123.6 49.3 123.8 50.3C123.9 51.3 123.8 52 123.4 52.7C123.1 53.2 122.8 54 122.8 54.8C122.8 55.8 123.6 56.7 123.6 56.7C123.6 56.7 123 55.5 123.2 54.3C123.4 53.2 124.1 52.5 124.2 51.6C124.3 50.8 124.2 50 123.9 49C123.6 47.7 123.6 46.8 124.1 46Z" fill="#9C6114"/>
<path d="M123 60.3C123 60.3 123.6 59.3001 123.6 58.4001C123.6 57.5001 123 56.6 122.9 55.6C122.7 54.7 122.7 54.5 122.9 53.8C123.1 53.1 123.7 52.8 123.7 52.8C123.7 52.8 123.2 53.7 123.2 54.3C123.2 54.9 123.1 55.2 123.5 56.3C123.9 57.4 124.2 58.4001 124 59.2001C123.8 60.0001 123.4 60.4001 123.1 60.7001C122.8 61.0001 122.7 61 123 60.3Z" fill="#9C6114"/>
<path d="M121.3 67.2C121.2 67.3 121 67.4 120.8 67.5C120.6 67.6 120.4 67.6 120.4 67.6C120.4 67.6 120.6 67.3 121.2 66.6C122.1 65.3 122 63.9 122.3 62.5C122.5 61.5 123.4 60.3 123.7 59.8C124 59.3 123.8 57.6 123.8 57.6C123.7 60.5 122.2 60.4 121.8 62.7C121.7 64 121.2 65.3 120.2 66.6C119.4 67.7 118 68.8 116.6 69.4C118.2 69.7 119.3 69.3 120.7 69.2C121 69.2 121.7 69.2 122.1 69.3C122.4 69.4 122.5 69.1 123.4 68.6C124 68.3 124.5 68.1 125.1 67.9C125.9 67.7 126.5 67.6 127 67.6C126.9 67.5 129.3 67.5 128.9 67.3C128.8 66.8 127.9 67.2 128.2 66.9C127.3 67.3 127.2 67 126.2 67.2C126.2 67.2 125.4 67.3 124.7 67.3C124.7 67.3 124.3 67.3 124 67.2C123.4 66.9 123.5 66.4 123.5 66.4C123.5 66.1 123.5 65.9 123.5 65.5C123.5 65.1 123.4 64.5 123.4 64.5C123.4 64.5 122.6 66.4 121.3 67.2Z" fill="#9C6114"/>
<path d="M140.6 61C140.6 61 139.4 59.6 138 59.2C136.7 58.9 134.2 59.3 132.7 60C131.2 60.8 130.6 61.9 129.8 63.3C129.8 63.3 129.4 63.8 129.2 64.4C128.9 65.2 128.9 65.5 129.4 65.7C129.6 65.8 130.7 65.3 130.7 65.3C130.5 65 129.6 65.1 129.6 65.1C129.6 65.1 130 64.5 130.5 64.3C130.9 64.1 131.5 64.2 131.5 64.2L131 63.8C131 63.8 131 63.4 131.5 62.3C132 61.2 132.5 60.3 134.4 59.8C136.3 59.3 137.3 59.2 138.5 59.7C139.7 60.4 140.6 61 140.6 61Z" fill="#9C6114"/>
<path d="M139.3 68.6C139.3 68.6 138.7 68.2001 137.9 67.9001C137.2 67.6001 136.3 67.4001 136.3 67.4001C136.3 67.4001 138.4 67 139.6 66.8C140.3 66.6 140.7 66.5 141.1 66.3C141.6 66.1 141.7 65.8 141.7 65.8C141.7 65.8 142 65.7001 142.3 64.7001C142.6 63.9001 142.2 62.4001 142.4 62.2001C142.8 61.7001 145.1 62.3001 146.1 63.9001C146.8 65.0001 146.2 66.9001 146.2 66.9001C146.2 66.9001 146.9 66.6001 146.9 64.9001C147 62.9001 144.7 61.8 144.7 61.8C144.7 61.8 146.1 62.1 147 63.5C147.9 65 147.3 66.7 146.1 68.3C144.9 69.9 142.2 69.8 141 69.6C141 69.6 141.5 70.2 141.7 70.7C142 71.8 141.6 72.4 141.2 72.6C140.8 72.8 138.9 72.9 138.2 73C137.6 73 137.3 73 136.4 73.1C135.5 73.2 134.5 73 134 73C133.8 73 133.6 73.1 133 73.2C132.1 73.4 132.1 73.2 132.1 73.2C132.1 73.2 132.3 72.7001 131.1 72.9001C130.3 73.0001 129.6 73 129.6 73C129.6 73 129 73.4 127.8 73.2C126.6 73 126.5 72.3001 126.5 72.3001C126.5 72.3001 127.4 72.7 128.3 72.7C129.2 72.7 129.7 72.1 129.7 72.1C129.7 72.1 129.9 72.5 130.9 72.2C131.4 72 131.7 71.8001 131.7 71.8001C131.7 71.8001 133.6 71.9001 133.7 71.9001C134.7 71.9001 136.1 72 136.1 72C136.1 72 136.3 72 137.4 72.1C138.2 72.2 138.8 72.2 138.9 72C138.9 71.8 138.3 71.6 138.3 71.6C138.3 71.6 139.4 71.7001 140 71.8001C140.4 71.8001 140.7 71.7 141 71.6C141.2 71.5 141.3 70.8 141 70.6C140.7 70.3 140.8 70.3 140.4 70.1C139.4 69.6 139.5 69.4001 139.5 69.4001C139.5 69.4001 139.2 69.0001 139.9 69.3001C140.2 69.4001 139.8 68.9001 139.8 68.9001C139.8 68.9001 139.6 68.7 139.3 68.6ZM143.6 63C143.6 63 143.7 65.1 143.1 66.1C142.5 67.1 141 68.3 141 68.3C142.6 68.9 145.5 68.1 146 66.5C146.5 65 145.8 63.6001 145.1 63.2001C144.3 62.7001 143.6 63 143.6 63Z" fill="#9C6114"/>
<path d="M134.9 66.8C134.9 66.8 135.1 66.9 135.4 67C135.7 67.1 136.8 67.5 136.8 67.5C136.8 67.5 137.3 67.6 137.5 67.3C137.9 66.9 136.5 67.3 136.6 66.9C136.6 66.8 136.4 66.6 136.4 66.6C136.4 66.6 136 66.5 135.7 66.5C135 66.5 134.9 66.8 134.9 66.8Z" fill="#9C6114"/>
<path d="M124.9 67.3C124.9 67.3 126 67.3 127.2 66.9C128.3 66.6 128.6 66.3 129.1 66.2C129.5 66.1 130.2 66.1 130.2 66.1C130.2 66.1 130 66.2 129.9 66.5C129.8 66.8 130 67.1 130 67.1C130 67.1 130.4 66.9 130.7 67C131 67.1 131.1 67.3 131.1 67.3C131.1 67.3 130.8 67.8 131.2 67.9C131.6 68 132.2 68 133.1 68.3C134 68.6 134.5 68.7 135.2 68.8C135.9 68.9 136.6 69.2 136.6 69.2C136.6 69.2 136.7 69.3 136.5 69.4C136.2 69.5 137.2 69.8 137.2 69.8C137.2 69.8 137.3 69.9 136.6 69.8C136.1 69.8 136 69.8 135.3 69.6C134.2 69.4 133.9 69.4 133.9 69.4C133.9 69.4 133.5 69.3 132.9 69.3C132.6 69.3 131.6 69.2 130.6 69.1C129.6 69 128.8 68.8 128.2 68.6C127.6 68.4 126.9 68.6 126.9 68.6C126.9 68.6 126.6 68.3 126.1 68.5C125.6 68.7 125.3 69.3 125.3 69.3C125.3 69.3 125.6 69.2 125.8 69.2C126.1 69.2 126.3 69.3 126.3 69.3C126.3 69.3 126.5 69.6 126.2 69.8C125.9 70 125.5 70.2 125.5 70.2C125.5 70.2 125.5 70.1 124.4 70.1C123.3 70.1 123.2 69.9 122.8 70.5C122.4 71 122.6 69.6 122.6 69.6C122.6 69.6 122.9 69.2 124.3 68.5C125.8 67.8 126.9 67.9 127.5 67.9C128.1 67.9 128.8 67.9 129.5 68.1C129.9 68.2 131.1 68.6 131.1 68.6C131.1 68.6 130.6 68.1 129.6 67.8C128.7 67.5 126.4 67.5 125.3 67.8C124.2 68.1 123.7 67.8 123.8 67.6C124 67.4 124.9 67.3 124.9 67.3Z" fill="#9C6114"/>
<path d="M125.5 69.4C125.5 69.4 126 69.2 126.4 69.3C126.5 69.4 126.6 69.4 126.7 69.5C126.8 69.6 127 69.8 127 69.8C127 69.8 125.8 69.9 126 70.5C126.3 71.1 126.9 71 126.9 71C126.9 71 126.5 71.2 126.4 71.5C126.3 71.9 126.7 72.1 126.7 72.1L127.7 72.5L127.1 72.7C127.1 72.7 126.7 72.5 126.6 72.8C126.5 73.1 126.5 73.3 126.5 73.3C126.5 73.3 126.1 72.9 126 72.3C125.9 71.7 126.4 71.3 126.4 71.3C126.4 71.3 126.1 71 125.8 71.3C125.5 71.6 125.5 71.9 125.5 71.9C125.5 71.9 125.1 71.5 125 71C124.9 70.4 125.4 70.1 125.4 70.1L125.5 69.4Z" fill="#9C6114"/>
<path d="M116.5 56.1C116.2 58.3 115.4 59.2 115.2 60C115.2 60 115 59.6 114.6 59.3C114.2 59 113.5 59.5 113.5 59.5C113.5 59.5 112.9 58.7 111.4 58C110.2 57.5 110.3 58.5 110.3 58.5C110.3 58.5 109.3 57.4 108.9 57C108.4 56.4 107.9 56.7 107.4 56.8C106.9 56.9 105.5 56.7 105.5 56.7C105.5 56.7 104.4 56.6 104.4 55.6C104.4 54.9 105.2 54.6 105.2 54.6C105.2 54.6 104.6 54.2 104.6 53.5C104.7 52.8 105.5 52.8 105.5 52.8C105.5 52.8 104.9 52.3 104.9 51.9C104.9 51.5 105.5 50.9 106 50.8C106.4 50.7 108 51.6 108.7 51.8C109.4 52 109.1 52.8 110.2 53.3C110.7 53.5 111.6 53.7 112.7 53.7C113.8 53.7 114.2 54.1 115.4 54.4C116.6 54.7 116.8 54.2 116.8 54.2C116.8 54.2 116.6 55.3 116.5 56.1ZM106.6 51.3C106.2 51.1 105.9 51.2 105.6 51.5C105.5 51.7 105.5 52.2 105.8 52.3C106.6 52.4 106.5 51.8 107.4 51.9C107 51.6 106.8 51.5 106.6 51.3ZM105.7 54.8C105.4 54.9 104.9 55.3 105 55.8C105.2 56.2 105.3 56.3 105.8 56.4C106.1 56.3 106.2 56.3 106.3 56.1C106.3 56.1 106.2 56 106.3 55.9C106.6 55.6 106.9 55.7 107.2 55.7C106.8 55.3 106.6 55.3 106.4 55.2C105.9 54.7 106.2 54.5 106.5 54.3C106.7 54.2 107.2 54.3 107.5 54.4L106.6 53.4C106.2 53.1 105.5 53.1 105.3 53.6C105.3 53.7 105.2 54.2 105.4 54.3C105.6 54.5 105.7 54.6 105.7 54.8ZM115.5 57.7C115.5 57.7 115.3 56.9 115.6 56.2C115.9 55.5 116.4 55 116.4 55C115.8 55.3 115.5 55 113.9 54.6C112.3 54.1 111.5 54.3 110.9 54.2C110.3 54.2 108.8 53.3 108.6 53.1C108.4 52.9 108.4 52.7 108.3 52.3C108.2 52 107.8 51.8 107.5 51.9C107.2 52 107.1 52.2 107.1 52.2C107.1 52.2 106.9 52.2 106.6 52.3C106.3 52.4 106.1 52.8 106.1 52.8C106.1 52.8 106.4 52.7 106.6 52.7C106.9 52.7 107 52.9 107 52.9C107 53.6 106.9 53.6 107.2 54.1C107.6 54.7 108.3 55.4 108.3 55.4C109.1 55.9 110.1 56.3 110.3 56.4C110.4 56.5 111 56.8 111.6 57C112.2 57.2 112.7 57.9 112.7 57.9C112.7 57.9 112.7 57.2 113.6 57.5C114.7 57.7 115.5 57.7 115.5 57.7Z" fill="#9C6114"/>
<path d="M125.3 50.4C125.3 50.4 125.5 51.6 125.3 52.1C124.9 53.1 124.3 53.3 124.2 54.3C124 55.5 124.4 56.8 124.6 57.4C124.8 58.1 125 58.9 124.8 59.4C124.6 60 124.1 60.5 123.8 61.2C123.5 61.9 123.3 62.7 123.3 62.7C123.3 62.7 123.8 61.6 124.1 61.2C124.5 60.6 125.1 59.9 125.3 59.3C125.8 57.8 125 56.9 124.9 56C124.7 55 125 54.1 125.5 53.4C126.1 52.7 126.2 52.2 126.3 51.5C126.4 50.7 126.4 50 126.4 50L125.3 50.4Z" fill="#9C6114"/>
<path d="M101.2 80.7C101.2 80.7 124.7 80.1 130.8 79.6C132.4 79.5 135.3 79.4 137.1 79.2C138.9 79 141.5 78.9 141.5 78.9C141.5 78.9 140.7 79.3 138.7 79.5C136.4 79.7 132.1 80.2 130.2 80.2C127.8 80.2 119.7 80.8 117.3 80.9C107.3 81.3 101.2 80.7 101.2 80.7Z" fill="#9C6114"/>
<path d="M114.9 23.1L108.9 50C108.9 50 108.9 50.3 109 50.4C109.2 50.5 109.3 50.5 109.5 50.6C109.7 50.7 109.9 50.9 109.9 50.9C109.9 50.9 109.4 50.9 108.9 50.7C108.4 50.5 108.3 50.2 108.3 50.2L114.4 23.1C114.6 21.9 115 19.5 115.1 18.9C115.2 18.3 115 18.4 114.8 18.7C114.6 19 113.8 20.9 113.5 22.5C113.5 22.5 107.6 47.2 107.5 47.9C107.4 48.6 107.5 48.9 107.1 49.5C106.8 50.1 106.5 50.2 106.1 50.1C105.8 50.1 105.4 50.1 105.3 50.3C105.2 50.5 105.5 50.6 105.8 50.6C106.1 50.6 106.6 50.6 106.9 50.5C107.3 50.4 107.5 50.3 107.5 50.3C107.5 50.3 107.6 50.5 107.7 50.6C107.9 50.8 108.1 51 108.3 51.1C108.5 51.2 109.1 51.4 109.5 51.3C109.9 51.3 110 51.5 110 51.7C110.1 51.9 110.4 52 110.7 51.8C111 51.7 111 51.2 110.7 51C110.4 50.7 110 51 109.9 50.9C109.8 50.8 110.2 50.4 110.8 50.6C111.3 50.8 111.6 51.2 111.4 51.9C111.2 52.6 110.5 52.6 110.1 52.5C109.7 52.4 109.5 52.1 109.4 52.1C109.3 52.1 109 52 109 52C109 52 106.4 51 106.2 50.9C106 50.9 105.4 51 105.2 51C105 51 104.9 51.3 104.4 51.2C104.1 51.2 103.2 50.8 103.5 50C103.7 49.4 104.1 49.2 104.7 49.3C105 49.4 105 49.7 105.3 49.7C105.7 49.8 105.9 49.7 106.1 49.3C106.2 48.9 112.5 23.7 112.5 23.7C113.4 20.7 114.1 18.9 114.7 18.1C115.3 17.3 115.6 16.7 115.5 18.4C115.5 20.2 115.3 21.4 114.9 23.1ZM104.5 50.6C104.7 50.6 104.8 50.5 104.8 50.3C104.8 50.1 104.6 50 104.5 50C104.3 50 104.2 50.1 104.2 50.3C104.2 50.4 104.4 50.6 104.5 50.6Z" fill="#9C6114"/>
<path d="M118.1 64.5C118.1 64.5 118.2 62.6 119 60.3C119.3 59.4 120 58.3 120.1 57.3C120.3 56.2 120 54.9 120 54.2C120.1 53.6 120.1 52.9 120.1 52.9H120.5C120.5 52.9 120.3 54.4 120.4 55C120.5 55.6 120.7 56.8 120.5 57.6C120.1 58.9 119.5 59.7 119.2 60.8C118.9 62.1 118.6 63.6 118.6 64.9L118.1 64.5Z" fill="#9C6114"/>
<path d="M103.3 50.4C103.5 50.4 103.7 50.2 103.7 50C103.7 49.8 103.5 49.6 103.3 49.6C103.1 49.6 102.9 49.8 102.9 50C102.9 50.2 103.1 50.4 103.3 50.4Z" fill="#9C6114"/>
<path d="M106.2 59.1C106.5 59.1 106.7 58.9 106.7 58.6C106.7 58.3 106.5 58.1 106.2 58.1C105.9 58.1 105.7 58.3 105.7 58.6C105.7 58.9 105.9 59.1 106.2 59.1Z" fill="#9C6114"/>
<path d="M105.6 56.6C105.4 56.9 105.1 57.2 105.2 57.6C105.3 58 105.6 58.5 106.2 58.5C106.8 58.6 107.4 58.3 107.5 57.7C107.6 57.1 107.4 56.9 107.3 56.7C107.1 56.5 106.5 56.8 106.5 56.8C106.8 57 106.9 57.3 106.9 57.6C106.9 57.9 106.6 58 106.4 58C106.1 58 105.9 57.8 106 57.4C106.1 57 106.5 56.8 106.5 56.8C106.5 56.8 106.5 56.6 106.6 56.5C106.7 56.4 105.6 56.6 105.6 56.6Z" fill="#9C6114"/>
<path d="M111.9 52.5C112.2 52.5 112.4 52.3 112.4 52C112.4 51.7 112.2 51.5 111.9 51.5C111.6 51.5 111.4 51.7 111.4 52C111.4 52.2 111.6 52.5 111.9 52.5Z" fill="#9C6114"/>
<path d="M109.3 68.6C109.3 68.6 109.9 70 110.6 70.8C111.2 71.6 111.7 72.3 112.1 72.9C112.5 73.6 113.7 75.4 114.6 76.7C115.5 78 117.2 79.8 117.2 79.8C117.2 79.8 115 76.4 114.3 75.4C113.6 74.5 113 73.4 112.4 72.6C111.7 71.9 109.7 69 109.3 68.6Z" fill="#9C6114"/>
<path d="M114.8 68.6C114.8 68.6 117.4 71.7 118.7 73.3C120 74.9 120.7 76.1 121.3 76.8C121.9 77.5 123.8 79.7 123.8 79.7C123.8 79.7 122.9 77.7 121.8 76.5C120.8 75.4 120 74.1 119.1 73.1C118.3 72.1 117 70.4 116.5 70C115.9 69.4 115.1 68.5 114.8 68.6Z" fill="#9C6114"/>
<path d="M123.1 71.1C123.1 71.1 126.3 75.1 126.9 75.7C127.5 76.3 129.2 78.7 129.2 78.7C129.2 78.7 131.1 80.6 129.8 78.8C129.5 78.4 127.9 76.3 127.2 75.4C126.5 74.5 125.7 73.6 125 72.8C124.3 71.9 123.2 71.2 123.1 71.1Z" fill="#9C6114"/>
<path d="M131 72.9C131 72.9 131.5 73.9 132.1 74.4C132.7 74.9 133.7 76.1 134.1 76.6C134.5 77 136.5 78.8 136.5 78.8C136.5 78.8 135.7 77.6 135.1 77C134.5 76.4 133.9 75.8 133.4 75.2C132.9 74.7 131.3 73.1 131 72.9Z" fill="#9C6114"/>
<path d="M136.8 72.7C136.8 72.7 138.4 74.4 139.2 75.3C140 76.2 141.8 77.7 141.8 77.7C141.8 77.7 141.4 76.8 140.8 76.3C140.2 75.8 139.1 74.6 138.7 74C138.2 73.4 137.6 72.7 137.6 72.7H136.8Z" fill="#9C6114"/>
<path d="M110.7 76.8C110.7 76.8 113.2 76.5 114.4 76.5C115.5 76.4 119.5 76.4 121 76.4C122.5 76.4 128.4 75.9 130.4 75.9C132.4 75.8 135.8 75.4 136.6 75.4C137.4 75.4 144.3 75.2 144.3 75.2C144.3 75.2 143.2 75.5 141.1 75.7C140.6 75.7 136.2 76.1 135.5 76.1C134.8 76.1 132.8 76.1 132.8 76.1C132.8 76.1 130.8 76.3 129.9 76.2C128.9 76.1 127 76.4 127 76.4C127 76.4 126.1 76.4 124.9 76.5C123.7 76.6 121.5 76.5 121.3 76.6C121.1 76.7 119.4 76.8 117.9 76.9C116.4 76.9 115.1 76.9 115 76.8C114.8 76.7 113.7 76.9 113 76.9C112.3 76.9 110.7 76.8 110.7 76.8Z" fill="#9C6114"/>
<path d="M125.3 72.3C125.3 72.3 122.1 72.3 121.4 72.3C120.7 72.3 118.4 72.5 118.4 72.5C118.4 72.5 116.3 72.4 115.3 72.4C114.2 72.4 109.5 72.7 109.5 72.7C109.5 72.7 111 72.9 115.3 72.8C116.3 72.8 118.4 72.8 118.9 72.8C119.4 72.8 121.3 72.8 121.9 72.7C125.2 72.5 125.3 72.3 125.3 72.3Z" fill="#9C6114"/>
<path d="M117.7 69.4C117.7 69.4 114.5 69.4 113.2 69.5C111.9 69.6 109.4 69.6 109.4 69.6C109.4 69.6 110.2 69.4 111.4 69.3C112.6 69.2 113.8 69.3 114.5 69.2C115.6 69.1 117.7 69.4 117.7 69.4Z" fill="#9C6114"/>
<path d="M96.9002 58.2C96.8002 58.2 96.8002 58.2 96.7002 58.2H96.6002C96.6002 58.2 96.6002 58.1999 96.5002 58.2999C96.4002 58.4999 96.3002 58.7 96.5002 58.9C96.6002 59.1 96.9002 59 96.9002 59.4V59.2999C96.9002 59.3999 96.8002 59.4 96.8002 59.5V59.5999C96.8002 59.6999 96.8002 59.6999 96.8002 59.7999C96.9002 60.0999 97.2002 60.1999 97.5002 60.2999C97.4002 60.3999 97.3002 60.5999 97.3002 60.7999V60.9C97.3002 61 97.3002 61 97.3002 61C97.4002 61.2 97.6002 61.3 97.8002 61.4C97.8002 61.4 97.8002 61.4999 97.8002 61.5999C97.7002 61.8999 97.8002 62.0999 98.0002 62.2999C98.1002 62.3999 98.3002 62.4999 98.4002 62.5999C98.5002 62.7999 98.3002 63.0999 98.3002 63.2999C98.3002 63.5999 98.6002 63.9 99.0002 63.9C99.0002 63.9 99.1002 63.9 99.1002 64C99.1002 64.2 98.9002 64.2999 98.9002 64.5999C98.9002 64.8999 99.2002 65 99.5002 65.2C99.5002 65.3 99.5002 65.4 99.4002 65.5C99.3002 65.9 99.6002 66.3 100 66.4C100 66.4 100.1 66.5 100.2 66.5H100.3V66.4C100.3 66.2 100.1 66 100.1 65.7C100.3 65.3 100.2 64.8 99.7002 64.7V64.5999C99.8002 64.2999 99.9002 64.0999 99.8002 63.7999C99.7002 63.5999 99.5002 63.5 99.2002 63.5V63.4C99.2002 63.2 99.3002 62.9 99.3002 62.7C99.2002 62.4 99.0002 62.2 98.7002 62C98.7002 62 98.7002 62 98.6002 62C98.8002 61.6 98.7002 60.9999 98.2002 60.7999L98.1002 60.7C98.2002 60.4 98.3002 60.1 98.0002 59.9C97.8002 59.8 97.6002 59.7999 97.5002 59.5999L97.4002 59.5L97.5002 59.4V59.2999V59.2C97.5002 58.9 97.2002 58.6999 96.9002 58.5999C96.8002 58.5999 96.8002 58.5 96.8002 58.4V58.2999H96.9002C96.8002 58.2999 96.9002 58.3 96.9002 58.2C97.0002 58.2 97.0002 58.3 96.9002 58.2C97.0002 58.2 97.0002 58.2 96.9002 58.2Z" fill="#9C6114"/>
<path d="M99.6 57.7C99.5 57.7 99.5 57.7 99.6 57.7L99.4 57.7999C99.4 57.7999 99.4 57.8 99.3 57.9C99.2 58.1 99.1 58.3 99.3 58.5C99.4 58.7 99.7 58.6 99.7 58.9V58.7999C99.7 58.8999 99.6 58.9 99.6 59V59.0999C99.6 59.1999 99.6 59.1999 99.6 59.2999C99.7 59.5999 100 59.6999 100.3 59.7999C100.2 59.8999 100.1 60.0999 100.1 60.2999V60.4C100.1 60.5 100.1 60.5 100.1 60.5C100.2 60.7 100.4 60.8 100.6 60.9C100.6 60.9 100.6 60.9999 100.6 61.0999C100.5 61.3999 100.6 61.5999 100.8 61.7999C100.9 61.8999 101.1 61.9999 101.2 62.0999C101.3 62.2999 101.1 62.5999 101.1 62.7999C101.1 63.0999 101.4 63.4 101.8 63.4C101.8 63.4 101.9 63.4 101.9 63.5C101.9 63.7 101.7 63.7999 101.7 64.0999C101.7 64.3999 102 64.5 102.3 64.7C102.3 64.8 102.3 64.9 102.2 65C102.1 65.4 102.4 65.8 102.8 65.9C102.8 65.9 102.9 66 103 66H103.1V65.9C102.9 65.7 102.7 65.4999 102.7 65.2999C102.9 64.8999 102.8 64.3999 102.3 64.2999V64.2C102.4 63.9 102.5 63.7 102.4 63.4C102.3 63.2 102.1 63.0999 101.8 63.0999V63C101.8 62.8 101.9 62.4999 101.9 62.2999C101.8 61.9999 101.6 61.7999 101.3 61.5999C101.3 61.5999 101.3 61.5999 101.2 61.5999C101.4 61.1999 101.3 60.6 100.8 60.4L100.7 60.2999C100.8 59.9999 100.9 59.7 100.6 59.5C100.4 59.4 100.2 59.4 100.1 59.2L100 59H100.1V58.9V58.7999C100.1 58.4999 99.9 58.2999 99.6 58.2999C99.5 58.2999 99.5 58.1999 99.5 58.0999V58H99.6C99.5 57.9 99.6 57.9 99.7 57.9C99.7 57.8 99.7 57.8 99.6 57.7Z" fill="#9C6114"/>
<path d="M102 57.4C101.7 57.7 101.9 58.3 102.3 58.5C102.5 58.7 102.3 58.7 102.2 58.9V59C102.3 59.2 102.4 59.4 102.6 59.5H102.7L102.6 59.4C102.7 59.5 102.9 59.5999 102.8 59.7999C102.6 60.1999 102.8 60.6999 103.2 60.7999C103.3 60.7999 103.3 60.9 103.3 60.9C103.3 61 103.3 61.1 103.2 61.2C103 61.6 103.4 61.9 103.7 62.2C103.8 62.2 103.8 62.3 103.8 62.4C103.7 62.7 103.6 63.1 103.9 63.4C104.1 63.6 104.3 63.7 104.4 64C104.4 64.1 104.5 64.0999 104.5 64.0999C104.6 64.0999 104.6 64 104.6 64C104.7 63.8 104.7 63.4999 104.5 63.2999C104.4 63.1999 104.3 63.1 104.1 63L104 62.7999C104.1 62.4999 104.1 62.1 103.9 61.9C103.8 61.8 103.6 61.6999 103.5 61.5999C103.3 61.2999 103.6 61.0999 103.5 60.7999C103.5 60.6999 103.5 60.6999 103.4 60.5999L103.3 60.5L103.2 60.4C103.3 60.3 103.1 60.2 103.1 60C103 59.7 103.3 59.5 103.1 59.2V59.0999L103 59H102.9C102.8 58.9 102.7 59 102.7 58.9L102.6 58.7999C102.5 58.7999 102.5 58.8 102.5 58.7C102.6 58.4 102.6 58.1 102.2 57.9C102 57.8 102.1 57.6 102.1 57.4C102.1 57.3 102.1 57.3 102 57.2C102.1 57.3 102 57.3 102 57.4Z" fill="#9C6114"/>
<path d="M94.5004 58.7C94.2004 59 94.4004 59.6 94.8004 59.8C95.0004 60 94.8004 60.2 94.7004 60.4V60.5C94.8004 60.7 94.9004 60.9 95.1004 61H95.2004L95.1004 60.9C95.2004 61 95.4004 61.1 95.3004 61.3C95.1004 61.7 95.3004 62.2 95.7004 62.3C95.8004 62.3 95.8004 62.4 95.8004 62.4C95.8004 62.5 95.8004 62.6 95.7004 62.7C95.5004 63.1 95.9004 63.4 96.2004 63.7C96.3004 63.7 96.3004 63.8 96.3004 63.9C96.2004 64.2 96.1004 64.6 96.4004 64.9C96.6004 65.1 96.8004 65.2 96.9004 65.5C96.9004 65.6 97.0004 65.6 97.0004 65.6C97.1004 65.6 97.1004 65.5 97.1004 65.5C97.2004 65.3 97.2004 65 97.0004 64.8C96.9004 64.7 96.8004 64.6 96.6004 64.5L96.5004 64.3C96.6004 64 96.6004 63.6 96.4004 63.4C96.3004 63.3 96.1004 63.2 96.0004 63.1C95.8004 62.8 96.1004 62.6 96.0004 62.3C96.0004 62.2 96.0004 62.2 95.9004 62.1L95.8004 62L95.7004 61.9C95.5004 61.8 95.4004 61.7 95.3004 61.5C95.2004 61.2 95.5004 61 95.3004 60.7V60.6L95.2004 60.5H95.1004C95.0004 60.4 94.9004 60.5 94.9004 60.4L95.1004 60.3C95.0004 60.3 95.0004 60.3 95.0004 60.2C95.1004 59.9 95.0004 59.4 94.7004 59.3C94.5004 59.2 94.6004 59 94.6004 58.8C94.6004 58.7 94.6004 58.7 94.5004 58.6C94.6004 58.6 94.5004 58.6 94.5004 58.7Z" fill="#9C6114"/>
<path d="M97.0002 65.3C96.9002 65.5 97.0002 65.8001 97.2002 65.9001C97.3002 66.0001 97.3002 66.1001 97.3002 66.2001C97.3002 66.2001 97.3002 66.1 97.2002 66.1V66.2001V66.3V66.4001V66.5C97.3002 66.8 97.6002 66.9 97.8002 67.1C97.9002 67.2 98.0002 67.2 98.1002 67.1C98.2002 67 98.2002 66.9 98.1002 66.8C98.0002 66.7 97.8002 66.6 97.7002 66.5L97.6002 66.4001C97.8002 66.1001 97.6002 65.6 97.2002 65.6C97.2002 65.6 97.1002 65.7 97.0002 65.6C97.1002 65.5 97.1002 65.4 97.0002 65.3C97.1002 65.3 97.1002 65.3 97.0002 65.3Z" fill="#9C6114"/>
<path d="M98.9004 68.7C98.8004 68.6 98.8004 68.6 98.8004 68.6L98.7004 68.7C98.4004 69 98.7004 69.4 98.8004 69.7C98.8004 69.7 98.7004 69.8 98.7004 69.9C98.5004 70.1 98.4004 70.4 98.7004 70.6C98.8004 70.7 99.1004 70.9 99.0004 71.1C98.9004 71.3 98.6004 71.5 98.6004 71.8C98.6004 72 98.8004 72.2 98.9004 72.3C99.1004 72.6 98.7004 72.8 98.6004 73.1C98.5004 73.3 98.6004 73.6 98.9004 73.7C99.0004 74 98.6004 74.2 98.6004 74.4V74.5V74.6C98.6004 74.7 98.7004 74.8 98.7004 74.8C98.8004 74.9 99.0004 75 98.9004 75.1C98.9004 75.4 98.7004 75.5 98.5004 75.7C98.4004 75.8 98.4004 75.9 98.4004 76C98.5004 76.1 98.6004 76.1 98.7004 76.1C99.1004 75.9 99.3004 75.6 99.4004 75.2C99.4004 75 99.3004 74.7 99.1004 74.6V74.5C99.2004 74.3 99.4004 74 99.4004 73.8C99.4004 73.5 99.2004 73.3 99.1004 73.1C99.3004 72.8 99.4004 72.5 99.4004 72.2C99.4004 71.9 99.1004 71.8 99.1004 71.6C99.1004 71.4 99.3004 71.3 99.3004 71.1C99.4004 70.7 99.2004 70.4 99.1004 70.1C99.2004 69.9 99.3004 69.7 99.2004 69.5C99.1004 69.3 98.8004 69.1 98.9004 68.8V68.7H98.8004C98.9004 68.8 98.9004 68.8 98.9004 68.7C98.9004 68.6 98.8004 68.6 98.8004 68.7H98.9004Z" fill="#9C6114"/>
<path d="M101.4 68.5C101.3 68.5 101.2 68.5 101.1 68.6C100.8 69 100.9 69.4 101.2 69.8C101.2 69.8 101.2 69.9 101.2 70C101 70.3 100.8 70.7 101 71C101.1 71.2 101.2 71.3 101.3 71.5C101.3 71.6 101.3 71.6 101.3 71.7C100.9 72.1 100.9 72.7 101.3 73C101.4 73.2 101.3 73.4 101.2 73.5L101.1 73.4V73.5V73.6C101 73.9 101.2 74.2 101.4 74.5C101.4 74.5 101.4 74.6 101.4 74.7C101.1 75 100.9 75.2 101 75.6C101 75.7 101.1 75.8 101.2 75.8C101.3 75.8 101.4 75.7 101.4 75.5C101.4 75.4 101.4 75.3 101.4 75.3C101.5 75.1 101.8 74.9 101.8 74.6C101.9 74.3 101.7 74.1 101.5 73.9C101.5 73.8 101.5 73.7 101.5 73.7V73.6C101.8 73.4 101.8 73.1 101.7 72.8C101.6 72.6 101.5 72.5 101.4 72.3C101.3 72 101.5 71.7 101.6 71.5C101.6 71.4 101.6 71.4 101.6 71.3C101.5 71.1 101.4 70.8 101.5 70.6C101.5 70.4 101.7 70.2 101.8 69.9C101.9 69.5 101.6 69.3 101.4 69C101.3 68.9 101.3 68.7 101.4 68.5C101.5 68.5 101.5 68.5 101.4 68.5Z" fill="#9C6114"/>
<path d="M103.9 68.2C103.8 68.2 103.7 68.2 103.6 68.3C103.2 68.8 103.6 69.3 103.8 69.8C103.7 69.9 103.7 70 103.7 70C103.3 70.4 103.5 71.1 103.8 71.4C103.8 71.5 103.9 71.5 103.9 71.6C103.8 71.9 103.6 72.1 103.6 72.4C103.6 72.6 103.7 72.8 103.8 73C103.9 73.1 104 73.3 103.9 73.4C103.4 73.8 103.8 74.4 104 74.8C104 75.1 103.9 75.3 103.7 75.5C103.6 75.5 103.6 75.6 103.7 75.7C103.7 75.8 103.8 75.8 103.9 75.7C104 75.7 104.2 75.6 104.3 75.5C104.6 75.1 104.6 74.6 104.2 74.2C103.9 73.9 104.2 73.6 104.2 73.3C104.2 73 104.1 72.8 103.9 72.5C103.8 72.4 103.8 72.2 103.9 72.1C104 71.8 104.3 71.5 104.2 71.2C104.2 71.1 104.1 71.1 104.1 71.1C104.1 70.9 103.9 70.7 104 70.5C104 70.5 104 70.5 103.9 70.6C104.2 70.4 104.5 69.9 104.3 69.5C104.1 69.1 103.6 68.7 103.9 68.2Z" fill="#9C6114"/>
<path d="M106.7 68.9C106.4 68.9 106.3 69.2 106.3 69.4C106.3 69.6 106.4 69.8 106.5 70C106.5 70 106.6 70.1 106.5 70.2C106.4 70.4 106.2 70.6 106.2 70.8C106.2 71.1 106.4 71.4 106.6 71.7H106.7L106.6 71.6C106.6 71.9 106.3 72.1 106.2 72.3C106.1 72.6 106.4 72.9 106.5 73.2V73.3C106.3 73.5 106.1 73.7 106.2 74C106.2 74.3 106.5 74.5 106.7 74.8C106.7 75.2 106.6 75.5 106.2 75.7V75.8H106.3C106.5 75.7 106.8 75.6 106.9 75.4C107.1 75.1 107.2 74.8 107 74.5C106.9 74.3 106.7 74.2 106.6 74C106.6 74 106.6 73.9 106.6 73.8C106.7 73.6 106.8 73.4 106.9 73.2C106.9 72.9 106.7 72.8 106.6 72.5C106.6 72.4 106.5 72.4 106.6 72.3C106.8 72 107.1 71.7 107 71.3C107 71.2 106.9 71.2 106.9 71.2C106.8 71.1 106.8 70.9 106.7 70.9C106.9 70.6 107.2 70.4 107.1 70C107 69.7 106.9 69.5 106.7 69.4C106.6 69.3 106.7 69.1 106.7 68.9C106.8 68.9 106.8 68.9 106.7 68.9Z" fill="#9C6114"/>
<path d="M95.3003 77C95.3003 77 97.3003 76.9 98.4003 76.7C99.6003 76.6 102 76.7 104 76.6C106.3 76.5 109.2 76.2 109.2 76.2C109.2 76.2 109.5 74 109.2 72.6C109 71.2 109.1 68.1 109.1 68.1C109.1 68.1 109.6 69.9 109.7 71.1C109.8 72.2 109.9 73.7 110 74.4C110.1 75.1 110 75.1 110.2 75.8C110.3 76.5 110.3 77.5 110.3 77.5C110.3 77.5 109 78.1 108.1 78C107.2 77.9 104.9 77.8 103.8 78C102.7 78.2 102 78.3 100.5 78.2C99.0003 78.1 97.6003 78.2 97.4003 78.4C97.2003 78.6 96.6003 77.8 96.6003 77.8C96.6003 77.8 98.7003 77.5 99.9003 77.6C101.1 77.7 103.8 77.5 104.6 77.4C105.4 77.3 106.8 77.6 107.4 77.5C109 77.3 109.2 76.9 109.2 76.9C109.2 76.9 107.9 76.8 106.2 76.9C104.5 77 103.1 77.1 101.8 77.1C100.5 77.1 98.5003 77.1 97.7003 77.2C96.9003 77.3 95.8003 77.4 95.8003 77.4L95.3003 77Z" fill="#9C6114"/>
<path d="M101.4 78.2C101.4 78.2 101.5 78.8 101.6 79.3C101.8 80.5 103.2 81.5 103.2 81.5L103.9 81.7L103.7 81.2C103.7 81.2 102.4 80.1 102.2 79.3C102.1 78.9 102.2 78.1 102.2 78.1H101.4V78.2Z" fill="#9C6114"/>
<path d="M107.9 77.8C107.9 77.8 108 78.4 108.2 79.3C108.4 80.2 109.9 81.5 109.8 81.3C110 81.6 110.5 81.8 110.5 81.8H110.9L110.7 81.3C110.7 81.3 109.2 80.1 109 79.5C108.4 78.1 108.9 78.1 108.7 77.8C108.6 77.5 107.9 77.8 107.9 77.8Z" fill="#9C6114"/>
<path d="M91.1001 58.1L91.2001 58.4C91.2001 58.4 93.3001 57.9 94.6001 57.7C95.9001 57.5 96.4001 57.5 98.5001 57.1C100.6 56.7 103.3 56.4 103.3 56.4C103.3 56.4 104.4 58.5 104.8 59.5C105.3 60.5 106.6 62.9 106.6 62.9C106.6 62.9 106.3 61.1 106 60.6C105.6 60 104.8 58.4 104.5 57.8C104.2 57.1 103.6 55.6 103.6 55.6C103.6 55.6 102 56 101.9 56C101.8 56 101.8 55.9 101.8 55.9C101.8 55.9 101.8 55.1 101.7 54.7C101.6 54.3 100.1 52 100.1 52L99.5001 51.6L99.7001 52.4C99.7001 52.4 100.6 53.7 100.8 54.3C101.1 54.9 101.1 56 101.1 56L95.3001 57.1C95.3001 57.1 94.9001 55.7 94.3001 54.7C94.1001 54.4 93.0001 53.9 92.9001 53.7C92.8001 53.5 92.6001 53.3 92.6001 53.3L92.3001 53.1C92.3001 53.1 92.1001 53.8 92.3001 54.1C92.7001 54.7 93.3001 54.6 93.7001 55.2C94.4001 56.2 94.5001 57.3 94.5001 57.3L91.6001 57.9L91.1001 58.1Z" fill="#9C6114"/>
<path d="M103 57L103.2 56.7C103.2 56.7 102 56.8 101.5 56.9C101 56.9 99.1001 57.3 98.1001 57.5C97.1001 57.7 95.3001 57.8 94.2001 58C93.1001 58.2 91.1001 58.7999 91.1001 58.7999C91.1001 58.7999 92.4001 61.2999 92.7001 62.5999C93.1001 63.7999 93.3001 65.8999 93.9001 67.0999C94.6001 68.4999 96.0001 68.7 96.0001 68.7C96.0001 68.7 97.2001 68.2 98.7001 68C100.2 67.9 101.6 67.3 103 67.2C104.4 67.1 105.5 66.5999 105.5 66.5999C105.5 66.5999 104.8 66.0999 103.9 66.2999C103 66.4999 100.7 67.1999 100.2 67.2999C99.6001 67.3999 98.3001 67.6 97.7001 67.7C97.3001 67.8 96.3001 68 96.3001 68C96.3001 68 95.2001 67.7999 94.6001 66.0999C94.0001 64.5999 94.0001 64 93.3001 62.4C92.7001 61.2 91.9001 59 91.9001 59C91.9001 59 93.1001 58.7 93.8001 58.5C94.6001 58.3 94.7001 58.5 96.8001 58C98.9001 57.6 100.9 57.1999 101.8 57.0999C102.1 57.0999 103 57 103 57Z" fill="#9C6114"/>
<path d="M96.2 68.5C96.2 68.5 96 69.8 96.1 70.6C96.2 72.4 96.9 73.5 96.7 74.6C96.5 75.8 95.9 77 95.9 77L95.5 76.8C95.5 76.8 96.1 75.2 96 74.3C95.9 73.4 95.5 71.7 95.5 70.7C95.5 69.8 95.8 68.6 95.8 68.6L96.2 68.5Z" fill="#9C6114"/>
<path d="M124.8 40.6C125.1 40.4 125.3 40.1 125.3 39.8C125.3 39.3 124.9 38.9 124.4 38.9C123.9 38.9 123.5 39.3 123.5 39.8C123.5 39.9 123.5 40 123.5 40.1C123.3 40 123 39.9 122.6 40.1C122.2 40.2 121.8 40.5 121.8 41.1C121.8 41.7 122.1 42.1 122.7 42.1C122.6 42.1 122.8 42.1 122.7 42.1C122.6 42.3 122.3 42.7 121.8 42.5C121 42.3 121.1 41.6 121.1 41.6C121.1 41.6 120.4 42.1 119.9 41.8C119.3 41.4 119.6 41.2 119.6 41.2C120.3 41.3 120.9 40.4 120.7 39.8C120.5 39.2 119.7 38.9 119.2 39.2C119.2 39.2 119.3 38.5 118.2 38.4C117.4 38.3 116.9 39.3 117.1 39.8C117.2 40.1 117.3 40.1 118 41.3C118.7 42.5 118.9 43.2 118.9 43.2C118.9 43.2 118.9 43.3 118.9 43.4C118.9 43.6 118.9 43.7 118.9 43.7C118.9 43.7 119.9 43.8 122.3 44.6C124.7 45.4 126.3 46.3 126.3 46.3C126.3 46.3 126.3 46.2 126.3 46.1V46C126.3 45.8 126.8 45.3 127.3 45C128.9 44 129.5 43.8 130.3 43.3C130.8 43 130.6 42 130.1 41.8C129.1 41.3 128.8 41.9 128.8 41.9C128.5 41.4 127.6 41.4 127.1 41.8C126.6 42.2 126.6 43.1 127.3 43.4C127.3 43.4 127.3 43.6 126.7 43.8C126.3 44 126.1 43.1 126.1 43.1C126.1 43.1 125.6 43.6 124.7 43.4C124.4 43.3 124.1 43 124.2 42.5C124.4 42.8 124.6 42.8 124.9 42.7C125.4 42.7 125.8 42.3 125.8 41.7C125.8 41.2 125.5 40.8 125 40.6M125.2 40.6C125.1 40.6 125 40.5 124.9 40.5ZM118.8 41.8C118.6 41.3 117.8 40 117.6 39.7C117.5 39.4 117.9 38.9 118.3 39C118.7 39.1 118.8 39.9 118.8 39.9C118.8 39.9 119.2 39.3 119.9 39.7C120.3 39.9 120.2 40.3 120 40.6C119.7 40.9 119.1 40.7 119.1 40.7C119.1 40.7 118.6 41.5 119.7 42.2C120.5 42.8 121 42.2 121 42.2C121 42.2 121 42.8 121.7 42.9C122 43 122.7 43.4 123.3 42.3C123.4 42 123.5 41.6 123.4 41.6C123.3 41.6 123.2 41.6 123.1 41.6C122.8 41.6 122.6 41.4 122.6 41.1C122.6 40.8 122.8 40.6 123.1 40.6C123.2 40.6 123.4 40.7 123.5 40.7C123.5 40.7 123.8 41.1 124.2 40.7C124.3 40.5 124.2 40.1 124.2 40.1C124.2 40.1 124.2 40 124.2 39.9C124.2 39.7 124.4 39.5 124.7 39.5C124.9 39.5 125.2 39.7 125.2 39.9C125.2 40.1 125.1 40.2 124.9 40.3C124.8 40.4 124.7 40.5 124.7 40.7C124.6 41.1 125.3 41.2 125.3 41.2C125.6 41.2 125.8 41.4 125.8 41.7C125.8 42 125.6 42.2 125.3 42.2C124.9 42.2 124.8 41.8 124.6 41.8C124.6 41.8 123.5 43.2 124.9 43.8C125.7 44.2 126.3 43.8 126.3 43.8C126.3 43.8 126.6 44.4 127.3 44.4C128.3 44.4 128.8 43.4 128.8 43.4C128.8 43.4 128.1 43.3 128 42.9C127.9 42.6 128.1 42.3 128.5 42.3C129.2 42.3 129.4 43 129.4 43C129.4 43 129.6 42.6 130 42.5C130.4 42.4 130.7 43 130.4 43.2C130.1 43.4 128.8 44.1 128.1 44.6C127.3 45.1 127.2 45.2 126.9 45.5C126.7 45.7 126.6 45.9 126.5 45.9L126.1 45.7C126.1 45.7 126.1 45.7 125.4 45.4C124.2 45 124.1 44.9 124.1 44.9C124.1 44.9 123.7 44.7 122.8 44.4C121.9 44.1 121.2 43.9 121.2 43.9C121.2 43.9 121.3 44 120.5 43.7C119.7 43.4 119.8 43.5 119.8 43.5L119.4 43.4C119.4 43.4 119.4 43.4 119.4 43.3C119.3 43.3 119.1 42.5 118.8 41.8Z" fill="#9C6114"/>
<path d="M120.1 45.2C120.2 45.2 120.7 45.6 121 45.9C121.3 46.2 121.5 46.6 121.5 46.6C121.5 46.6 120.9 46.4 120.2 46.6C119.5 46.8 119.3 46.6 119.2 46.4C119.2 46.1 119.4 45.9 119.4 45.9C119.4 45.9 119.2 46.2 119.6 46.3C120 46.4 120.2 46.3 120.2 46.3C120.2 46.3 119.8 46.2 119.8 46C119.8 45.8 119.9 45.6 120.1 45.6C120.1 45.6 119.9 45.5 119.5 45.6C119.1 45.7 119.1 46 119.1 46.1C119 46.2 119 46.1 119 45.9C118.9 45.4 118.7 44.8 120.1 45.2Z" fill="#9C6114"/>
<path d="M123.6 37.5C123.9 37.5 124.2 37.2 124.2 36.9C124.2 36.6 123.9 36.3 123.6 36.3C123.3 36.3 123 36.6 123 36.9C122.9 37.3 123.2 37.5 123.6 37.5Z" fill="#9C6114"/>
<path d="M119.2 37.9C119.2 37.4 119.6 37 120.1 37C120.6 37 121 37.4 121 37.9C121 38.4 120.6 38.8 120.1 38.8C119.6 38.8 119.2 38.4 119.2 37.9ZM120.2 38.3C120.4 38.3 120.6 38.1 120.6 37.9C120.6 37.7 120.4 37.5 120.2 37.5C120 37.5 119.8 37.7 119.8 37.9C119.7 38.1 119.9 38.3 120.2 38.3Z" fill="#9C6114"/>
<path d="M121.2 37.2C121.2 36.8 121.5 36.4 122 36.4C122.4 36.4 122.8 36.7 122.8 37.2C122.8 37.6 122.5 38 122 38C121.6 38 121.2 37.6 121.2 37.2ZM122 37.5C122.2 37.5 122.3 37.4 122.3 37.2C122.3 37 122.2 36.9 122 36.9C121.8 36.9 121.7 37 121.7 37.2C121.7 37.4 121.8 37.5 122 37.5Z" fill="#9C6114"/>
<path d="M124.7 33.8C124.7 33.8 124.5 34 124.4 34.2C124.3 34.5 124.3 34.9 124.3 34.9C124.3 34.9 125.4 34.7 125.5 35C125.6 35.3 125.4 35.4 125.4 35.4L126.1 35.6C126.1 35.6 126.1 35.1 126.2 35.1C126.4 35.1 127.1 35.8 127.1 35.8C127.1 35.8 127.3 35.8 127.5 35.3C127.7 34.9 127.5 34.6 127.5 34.6C127.5 34.6 126.4 34.8 126.4 34.5C126.4 34.2 127.2 33.5 127.2 33.5C127.2 33.5 127 33.2 126.6 33.1C126.1 33 126 33.1 126 33.1C126 33.1 126 34.4 125.8 34.4C125.6 34.4 124.7 33.8 124.7 33.8Z" fill="#9C6114"/>
<path d="M119.6 39.1C119.6 39.1 120.3 38.4 121.7 37.9C123.1 37.4 123.8 37.4 124.3 37.3C124.7 37.2 125.1 37.1 125.1 37.1C125.1 37.1 125.5 37.8 125.2 37.9C124.9 38 124.5 37.8 123.8 37.9C123 38 122.4 38.3 121.5 38.6C120.7 39 120.3 39.6 120.3 39.6L119.6 39.1Z" fill="#9C6114"/>
<path d="M126.4 38.4C126.1 38.2 126 37.7999 126.2 37.5999C126.4 37.2999 126.8 37.2 127 37.4C127.3 37.6 127.4 38 127.2 38.2C127.1 38.4 126.7 38.5 126.4 38.4Z" fill="#9C6114"/>
<path d="M128.8 42.3C128.8 42.3 128.5 40.9 127.6 39.8C126.7 38.6 126.1 38.2001 125.8 37.9001C125.5 37.6001 125.2 37.3 125.2 37.3C125.2 37.3 124.5 37.7001 124.7 37.9001C124.9 38.1001 125.3 38.2001 125.9 38.7001C126.5 39.2001 126.9 39.8 127.4 40.6C127.9 41.4 127.9 42.3 127.9 42.3H128.8Z" fill="#9C6114"/>
<path d="M128.6 41.4C128.2 41.1 128 40.6 128.3 40.1C128.6 39.7 129.1 39.5 129.6 39.8C130 40.1 130.2 40.6 129.9 41.1C129.6 41.5 129 41.6 128.6 41.4ZM129 41C129.2 41 129.4 40.8 129.4 40.6C129.4 40.4 129.2 40.2 129 40.2C128.8 40.2 128.6 40.4 128.6 40.6C128.6 40.8 128.8 41 129 41Z" fill="#9C6114"/>
<path d="M124.4 36.4C124.4 35.8 124.9 35.4 125.4 35.4C126 35.4 126.4 35.9 126.4 36.4C126.4 37 125.9 37.4 125.4 37.4C124.9 37.5 124.4 37 124.4 36.4ZM125.4 37C125.7 37 125.9 36.8 125.9 36.5C125.9 36.2 125.7 36 125.4 36C125.1 36 124.9 36.2 124.9 36.5C124.9 36.7 125.1 37 125.4 37Z" fill="#9C6114"/>
<path d="M127.5 39.6C127.1 39.4 127 38.9 127.2 38.6C127.4 38.2 127.9 38.1 128.3 38.3C128.7 38.5 128.8 39 128.6 39.3C128.4 39.7 127.9 39.8 127.5 39.6ZM127.9 39.2C128.1 39.2 128.2 39.1 128.2 38.9C128.2 38.7 128.1 38.6 127.9 38.6C127.7 38.6 127.6 38.7 127.6 38.9C127.6 39.1 127.8 39.2 127.9 39.2Z" fill="#9C6114"/>
<path d="M123 44.1C123.2 44.1 123.3 43.9 123.3 43.7C123.3 43.5 123.1 43.4 122.9 43.4C122.7 43.4 122.5 43.6 122.5 43.7C122.5 43.9 122.8 44.1 123 44.1Z" fill="#9C6114"/>
<path d="M67 134.9C67.5 134.9 68 135 68.5 135C69 135 69.5 134.9 70 134.9V135.2C69.4 135.3 69.2 135.7 69.2 136.6C69.2 137.9 69.2 139.3 69.2 140.6C69.2 142.5 70.1 143.8 72.2 143.8C73.3 143.8 74.8 143.1 74.8 141.6V139.9C74.8 138.2 74.7 136.6 74.7 135.9C74.7 135.5 74.3 135.2 74 135.2V134.9C74.5 134.9 75 135 75.5 135C76 135 76.5 134.9 77 134.9V135.2C76.5 135.2 76.3 135.8 76.3 136.2C76.3 136.7 76.3 138.2 76.3 140V143C76.3 143.8 76.5 144.2 77.1 144.2V144.5C76.7 144.5 76.3 144.4 75.9 144.4C75.5 144.4 75.1 144.5 74.7 144.5C74.7 144 74.8 143.6 74.8 143.2C73.8 144.2 72.9 144.7 71.5 144.7C69.4 144.7 67.8 143.5 67.8 141.4V139.1C67.8 138 67.7 137 67.7 136.2C67.7 135.7 67.6 135.2 67 135.1V134.9Z" fill="#000080"/>
<path d="M79.8999 144.4C80.3999 144.3 80.7999 143.8 80.7999 143.1V134.8H81.3999L88.1999 142.3V137.5C88.1999 135.8 87.7999 135.4 87.1999 135.3V135C87.6999 135 88.0999 135.1 88.5999 135.1C89.0999 135.1 89.4999 135 89.9999 135V135.3C89.3999 135.4 89.0999 135.9 89.0999 137V144.9H88.5999L81.5999 137.3L81.6999 142.6C81.6999 143.7 81.9999 144.2 82.6999 144.4V144.7C82.1999 144.7 81.7999 144.6 81.2999 144.6C80.7999 144.6 80.3999 144.7 79.8999 144.7V144.4Z" fill="#000080"/>
<path d="M96.0002 135.2C95.5002 135.3 95.4002 135.6 95.4002 136.1C95.4002 137.5 95.3002 139.1 95.3002 140.6V143.3C95.3002 143.8 95.5002 144.3 96.0002 144.3V144.6C95.5002 144.6 95.0002 144.5 94.6002 144.5C94.1002 144.5 93.6002 144.6 93.2002 144.6V144.3C93.6002 144.3 93.9002 143.9 93.9002 143.3V141.3C93.9002 139.6 93.8002 137.2 93.8002 136.3C93.8002 135.7 93.7002 135.3 93.2002 135.2V134.9C93.7002 134.9 94.2002 135 94.6002 135C95.1002 135 95.6002 134.9 96.0002 134.9V135.2Z" fill="#000080"/>
<path d="M102.9 144.9L99 136.4C98.8 136.1 98.5 135.5 98 135.3V135C98.5 135 99.1 135.1 99.6 135.1C100.1 135.1 100.6 135 101.2 135V135.3C100.9 135.4 100.7 135.5 100.7 135.8C100.7 135.9 100.7 136.2 101 136.7L103.6 142.8L105.8 137.1C106 136.7 106 136.4 106 136.2C106 135.7 105.8 135.4 105.3 135.3V135C105.8 135 106.3 135.1 106.7 135.1C107.2 135.1 107.7 135 108.1 135V135.3C107.5 135.4 107.2 135.9 106.9 136.6L103.6 145H102.9V144.9Z" fill="#000080"/>
<path d="M109.9 144.3C110.4 144.2 110.7 143.9 110.7 143.4V141C110.7 139.1 110.6 137.1 110.6 135.9C110.6 135.6 110.3 135.3 109.9 135.2V135H115.4C115.8 135 116.3 134.9 116.5 134.8C116.5 135.2 116.4 135.5 116.4 135.8C116.4 136.1 116.5 136.5 116.5 136.8H116C115.8 136.1 115.4 135.6 114.7 135.6H112.3V139.3H114.4C115.2 139.3 115.5 139.2 115.8 138.5H116.2C116.2 138.9 116.1 139.3 116.1 139.7C116.1 140.1 116.2 140.5 116.2 140.9H115.7C115.4 139.9 115.1 139.9 114.3 139.9H112.2V143.8H114.6C115.6 143.8 116 143.6 116.6 142.8L117 143L116.5 144.7C116.1 144.5 115.6 144.5 115.2 144.5H109.8V144.3H109.9Z" fill="#000080"/>
<path d="M120.1 144.4C120.6 144.3 120.8 144.1 120.8 143.6V140C120.8 138.8 120.7 137.6 120.7 136.4C120.7 135.7 120.6 135.4 119.9 135.3V135C120.3 135 120.8 135.1 121.3 135.1C121.7 135.1 122.1 135 123.2 135C125.7 135 126.9 136.3 126.9 137.8C126.9 139.2 125.6 140.1 124.4 140.4L127.2 143.7C127.4 144 127.9 144.4 128.3 144.5V144.8C127.8 144.8 127.4 144.7 126.9 144.7C126.4 144.7 126 144.8 125.5 144.8V144.5C125.6 144.5 125.6 144.4 125.7 144.3C125.7 144.2 125.7 144 125.5 143.9L123.2 141.2C123 141 122.7 140.6 122.4 140.6V143.4C122.4 144 122.5 144.4 123.2 144.6V144.9C122.7 144.9 122.2 144.8 121.7 144.8C121.2 144.8 120.7 144.9 120.2 144.9V144.4H120.1ZM122.3 140C122.5 140 122.7 140 122.8 140C124.1 140 125.2 139.1 125.2 137.8C125.2 136.5 124.6 135.4 123.1 135.4C122.7 135.4 122.3 135.4 122.3 135.8V140Z" fill="#000080"/>
<path d="M130.3 142.8H130.8C131.2 143.9 132 144.3 133.1 144.3C134.1 144.3 134.9 143.5 134.9 142.6C134.9 139.6 130.1 141.5 130.1 137.7C130.1 135.9 131.7 134.9 133.3 134.9C134.2 134.9 135.3 135.2 135.8 135.5L135.9 137H135.4C135.2 136.1 134.2 135.4 133.3 135.4C132.3 135.4 131.4 136.1 131.4 137.2C131.4 139.7 136.2 138.2 136.2 141.9C136.2 143.8 134.7 144.9 132.9 144.9C132 144.9 131 144.8 130.2 144.4V142.8H130.3Z" fill="#000080"/>
<path d="M142.5 135.2C142 135.3 141.9 135.6 141.9 136.1C141.9 137.5 141.8 139.1 141.8 140.6V143.3C141.8 143.8 142 144.3 142.5 144.3V144.6C142 144.6 141.5 144.5 141.1 144.5C140.6 144.5 140.1 144.6 139.7 144.6V144.3C140.1 144.3 140.4 143.9 140.4 143.3V141.3C140.4 139.6 140.3 137.2 140.3 136.3C140.3 135.7 140.2 135.3 139.7 135.2V134.9C140.2 134.9 140.7 135 141.1 135C141.6 135 142.1 134.9 142.5 134.9V135.2Z" fill="#000080"/>
<path d="M153.6 136.7H153.1C153 135.9 152.5 135.6 151.7 135.6H149.9C149.9 136.8 149.8 138.3 149.8 140V143C149.8 143.9 150.1 144.1 150.7 144.3V144.6C150.2 144.6 149.6 144.5 149.1 144.5C148.6 144.5 148 144.6 147.5 144.6V144.3C148.1 144.1 148.3 143.8 148.3 143V140.8C148.3 138.8 148.2 136.8 148.2 135.6H146.3C145.5 135.6 145.1 135.9 144.9 136.7H144.4V134.7C144.9 134.8 145.5 134.9 146 134.9H152.2C152.6 134.9 153.2 134.8 153.5 134.7V136.7H153.6Z" fill="#000080"/>
<path d="M155.4 144.3C155.9 144.2 156.2 143.9 156.2 143.4V141C156.2 139.1 156.1 137.1 156.1 135.9C156.1 135.6 155.8 135.3 155.4 135.2V135H160.9C161.3 135 161.8 134.9 162 134.8C162 135.2 161.9 135.5 161.9 135.8C161.9 136.1 162 136.5 162 136.8H161.5C161.3 136.1 160.9 135.6 160.2 135.6H157.8V139.3H159.9C160.7 139.3 161 139.2 161.3 138.5H161.7C161.7 138.9 161.6 139.3 161.6 139.7C161.6 140.1 161.7 140.5 161.7 140.9H161.2C160.9 139.9 160.6 139.9 159.8 139.9H157.7V143.8H160.1C161.1 143.8 161.5 143.6 162.1 142.8L162.5 143L162 144.7C161.6 144.5 161.1 144.5 160.7 144.5H155.3V144.3H155.4Z" fill="#000080"/>
<path d="M173.4 136.7H172.9C172.8 135.9 172.3 135.6 171.5 135.6H169.7C169.7 136.8 169.6 138.3 169.6 140V143C169.6 143.9 169.9 144.1 170.5 144.3V144.6C170 144.6 169.4 144.5 168.9 144.5C168.4 144.5 167.8 144.6 167.3 144.6V144.3C167.9 144.1 168.1 143.8 168.1 143V140.8C168.1 138.8 168 136.8 168 135.6H166.1C165.3 135.6 164.9 135.9 164.7 136.7H164.2V134.7C164.7 134.8 165.3 134.9 165.8 134.9H172C172.4 134.9 173 134.8 173.3 134.7V136.7H173.4Z" fill="#000080"/>
</svg>
