<svg width="240" height="160" viewBox="0 0 240 160" fill="none" xmlns="http://www.w3.org/2000/svg">
<path fill-rule="evenodd" clip-rule="evenodd" d="M122.461 69.9166V89.1296H124.265V73.8331L132.81 81.4109L141.433 73.8252V89.1296H143.235V69.9246L132.813 78.7946L122.461 69.9166ZM56.3108 70.7888H58.1128V87.9784H74.2735V89.8981H56.3108V70.7888ZM104.53 85.8832C105.217 85.1673 105.639 84.212 105.718 83.1924V70.7888H107.53V83.1924C107.463 84.722 106.854 86.1679 105.825 87.2392C104.183 88.9994 101.589 89.8981 98.1172 89.8981C88.7272 89.8981 88.6197 84.1922 88.6197 83.9502V70.7888H90.4242V83.9502C90.4267 84.1097 90.6092 87.9784 98.1072 87.9784C101.079 87.9784 103.241 87.2738 104.53 85.8832ZM160.046 70.7888H158.241V89.1297H160.046V70.7888ZM175.409 72.7085H182.117V89.1297H183.922V72.7085H190.485V70.7888H175.409V72.7085ZM222.522 78.7947C222.018 74.3294 218.758 70.7804 214.573 70.1413C210.389 69.5021 206.322 71.9321 204.658 76.0662C202.993 80.2004 204.146 85.0084 207.468 87.7897C209.103 89.1705 211.129 89.9204 213.217 89.9168C213.592 89.9166 213.968 89.8927 214.341 89.845C216.801 89.5341 219.045 88.1959 220.577 86.1248C222.11 84.0538 222.805 81.4198 222.512 78.8027L222.522 78.7947ZM219.17 84.9286C217.06 87.7809 213.412 88.7699 210.277 87.3399C207.141 85.9099 205.299 82.4176 205.786 78.8252C206.272 75.2328 208.967 72.4361 212.354 72.0066C214.341 71.7497 216.341 72.348 217.91 73.6684C221.178 76.4112 221.737 81.4518 219.16 84.9286H219.17Z" fill="black" fill-opacity="0.96"/>
<path fill-rule="evenodd" clip-rule="evenodd" d="M17.98 69C17.3681 69 16.8721 69.5209 16.8721 70.1635C16.8721 70.806 17.3681 71.3269 17.98 71.3269C18.5919 71.3269 19.0879 70.806 19.0879 70.1635C19.0865 69.5215 18.5913 69.0015 17.98 69ZM26.4833 70.6976C26.7642 70.6976 26.9919 70.4584 26.9919 70.1634C26.9919 69.8685 26.7642 69.6293 26.4833 69.6293C26.2024 69.6293 25.9746 69.8685 25.9746 70.1634C25.9746 70.4584 26.2024 70.6976 26.4833 70.6976ZM35.0567 70.6976C35.3376 70.6976 35.5653 70.4584 35.5653 70.1634C35.5653 69.8685 35.3376 69.6293 35.0567 69.6293C34.7758 69.6293 34.5481 69.8685 34.5481 70.1634C34.5481 70.4584 34.7758 70.6976 35.0567 70.6976ZM35.5653 79.093C35.5653 79.388 35.3376 79.6272 35.0567 79.6272C34.7758 79.6272 34.5481 79.388 34.5481 79.093C34.5481 78.798 34.7758 78.5589 35.0567 78.5589C35.3376 78.5589 35.5653 78.798 35.5653 79.093ZM26.4833 79.6272C26.7642 79.6272 26.9919 79.388 26.9919 79.093C26.9919 78.798 26.7642 78.5589 26.4833 78.5589C26.2024 78.5589 25.9746 78.798 25.9746 79.093C25.9746 79.388 26.2024 79.6272 26.4833 79.6272ZM34.034 87.5756C34.2063 87.1409 34.611 86.8581 35.0594 86.8592C35.6697 86.8621 36.1634 87.3817 36.1647 88.0227C36.1647 88.4935 35.8945 88.9179 35.4802 89.0978C35.0659 89.2777 34.5892 89.1777 34.2726 88.8444C33.9559 88.5111 33.8617 88.0103 34.034 87.5756ZM26.4755 85.0453C24.9103 85.0482 23.6435 86.3825 23.6454 88.0262C23.6472 89.6699 24.9171 91.001 26.4822 91.0001C28.0474 90.9991 29.3157 89.6663 29.3157 88.0227C29.3151 87.2323 29.0155 86.4746 28.4828 85.9162C27.9502 85.3578 27.2281 85.0445 26.4755 85.0453ZM15.3587 77.955C15.7982 76.8422 16.8329 76.1171 17.9801 76.1182C19.544 76.1197 20.8114 77.4506 20.8128 79.093C20.8138 80.2977 20.1234 81.3843 19.0637 81.8459C18.0041 82.3074 16.784 82.0528 15.9728 81.2009C15.1616 80.3491 14.9192 79.0678 15.3587 77.955ZM15.8725 88.0225C15.8725 86.8002 16.8161 85.8093 17.98 85.8093C19.1434 85.8107 20.0861 86.8008 20.0875 88.0225C20.0875 89.2448 19.1439 90.2357 17.98 90.2357C16.8161 90.2357 15.8725 89.2448 15.8725 88.0225Z" fill="#1E73BE"/>
</svg>
