<svg width="240" height="160" viewBox="0 0 240 160" fill="none" xmlns="http://www.w3.org/2000/svg">
<path d="M69.2431 105.114C69.1046 105.392 68.8275 105.81 68.1349 106.505C67.4422 107.34 67.0266 107.758 66.7495 107.758C66.611 107.758 66.4725 107.619 66.4725 107.34C66.4725 106.645 66.7495 106.088 67.1651 105.392C67.5807 104.558 68.1349 104.14 68.689 104.14C68.9661 104.14 69.1046 104.279 69.3817 104.419L69.2431 105.114ZM70.6284 102.749H68.9661C67.8578 102.749 66.8881 103.305 65.7798 104.558C64.8101 105.671 64.256 106.784 64.1174 107.897C64.1174 108.314 64.1174 108.732 64.3945 109.149C64.6716 109.566 64.9486 109.705 65.3642 109.705C65.9184 109.705 66.611 109.288 67.3037 108.732C67.8578 108.175 68.2734 107.479 68.689 106.784H68.8275L67.8578 109.566H70.0743L72.0138 102.749C71.7367 102.749 71.3211 102.888 70.6284 102.749ZM85.0358 105.114C84.8973 105.392 84.6202 105.81 83.9275 106.645C83.2349 107.34 82.8193 107.758 82.5422 107.758C82.4037 107.758 82.4037 107.619 82.4037 107.34C82.4037 106.784 82.6807 106.088 83.0963 105.392C83.5119 104.558 84.0661 104.279 84.4817 104.279C84.7587 104.279 84.8973 104.279 85.1743 104.419L85.0358 105.114ZM86.2826 102.749H84.7587C83.6505 102.749 82.6807 103.305 81.5725 104.419C80.6028 105.532 80.0486 106.505 79.9101 107.758C79.9101 108.175 79.9101 108.592 80.1872 109.01C80.4642 109.288 80.7413 109.566 81.2954 109.566C82.4037 109.566 83.3734 108.592 84.3431 106.784H84.6202C84.4817 107.34 84.3431 107.758 84.2046 108.314C83.9275 109.01 83.789 109.566 83.5119 109.984C83.0963 110.54 82.6807 110.679 82.2651 110.679C81.4339 110.679 80.6028 110.401 79.4945 109.845L79.633 111.792C80.1872 111.932 80.8798 111.932 81.711 111.932C84.0661 111.932 85.5899 110.958 86.144 109.01L87.945 102.749C87.5294 102.749 86.9752 102.888 86.2826 102.749ZM90.5771 105.949C90.7156 105.532 90.8541 105.253 91.1312 104.836C91.4083 104.419 91.8239 104.279 92.1009 104.279C92.378 104.279 92.5165 104.419 92.5165 104.836C92.378 105.532 91.6853 105.949 90.5771 105.949ZM91.2697 108.314C90.5771 108.314 90.1615 108.036 90.1615 107.34C91.1312 107.34 91.9624 107.062 92.7936 106.505C93.7633 105.949 94.3174 105.114 94.456 104.279C94.456 103.862 94.3174 103.445 94.0404 103.166C93.7633 102.888 93.3477 102.749 92.9321 102.749C91.6853 102.749 90.5771 103.166 89.6073 104.14C88.6376 105.114 88.0835 106.227 87.945 107.479C87.945 108.175 88.0835 108.732 88.6376 109.149C89.0532 109.566 89.7459 109.705 90.4385 109.705C91.4083 109.705 92.5165 109.427 93.9018 109.01L94.3174 107.34C93.0706 108.036 92.1009 108.314 91.2697 108.314ZM101.383 103.027L100.967 104.419C100.413 104.279 99.9973 104.14 99.5817 104.14C99.0275 104.14 98.6119 104.279 98.6119 104.697C98.6119 104.836 98.7505 105.114 99.0275 105.392C99.5817 105.81 99.8587 106.088 99.8587 106.227C100.136 106.645 100.274 107.062 100.274 107.479C100.136 108.314 99.8587 108.871 99.1661 109.149C98.6119 109.427 97.9193 109.566 97.0881 109.566C96.3954 109.566 95.7028 109.427 94.733 109.149L95.1486 107.619C95.9798 108.036 96.6725 108.175 97.0881 108.175C97.2266 108.175 97.5037 108.175 97.6422 108.036C97.7807 107.897 97.9193 107.758 97.9193 107.619C97.9193 107.34 97.7807 107.062 97.5037 106.784L96.6725 105.949C96.3954 105.532 96.2569 105.114 96.2569 104.836C96.3954 104.14 96.6725 103.584 97.3651 103.166C97.9193 102.888 98.6119 102.749 99.3046 102.749C99.7202 102.749 100.274 102.888 101.383 103.027ZM112.881 100.245L112.465 101.636C111.911 101.358 111.495 101.219 111.08 101.219C110.664 101.219 110.387 101.358 110.11 101.775C109.972 101.914 109.833 102.332 109.695 102.888H111.357L110.941 104.14H109.279L107.339 111.097H104.984L107.339 103.027C107.617 102.192 108.171 101.358 108.863 100.94C109.556 100.384 110.387 100.105 111.218 100.105C111.911 99.9663 112.327 100.105 112.881 100.245ZM115.651 107.201C115.236 107.897 114.682 108.314 114.128 108.314C113.85 108.314 113.573 108.175 113.435 107.897C113.296 107.619 113.296 107.34 113.296 107.062C113.296 106.366 113.573 105.81 113.85 105.253C114.266 104.558 114.682 104.14 115.374 104.14C115.651 104.14 115.928 104.279 116.067 104.558C116.206 104.836 116.206 105.114 116.206 105.392C116.067 106.088 115.928 106.645 115.651 107.201ZM117.868 103.305C117.452 102.888 116.76 102.749 116.067 102.749C114.82 102.749 113.712 103.166 112.742 104.14C111.772 105.114 111.218 106.227 111.08 107.479C111.08 108.175 111.218 108.732 111.772 109.149C112.188 109.566 112.881 109.705 113.573 109.705C114.82 109.705 115.928 109.288 116.898 108.314C117.868 107.34 118.422 106.227 118.561 104.975C118.561 104.279 118.283 103.723 117.868 103.305ZM125.764 102.888L125.072 104.975C124.933 104.836 124.517 104.836 124.379 104.836C123.963 104.836 123.409 105.114 122.717 105.949C122.024 106.645 121.608 107.201 121.47 107.619L120.916 109.705H118.699L120.639 103.027H122.855L121.885 105.949H122.024C122.439 105.253 122.855 104.558 123.409 104.001C124.102 103.305 124.795 102.888 125.349 102.888C125.487 102.749 125.626 102.749 125.764 102.888ZM134.63 103.027L134.215 104.279H133.106C132.968 104.836 132.691 105.392 132.552 105.949C132.414 106.645 132.275 107.201 132.137 107.619C132.137 108.036 132.275 108.314 132.552 108.314C132.691 108.314 132.968 108.175 133.245 108.036L132.829 109.427C132.137 109.566 131.583 109.705 131.167 109.705C130.751 109.705 130.336 109.566 130.059 109.427C129.782 109.149 129.643 108.871 129.643 108.314C129.643 107.758 129.92 107.062 130.059 106.227C130.336 105.532 131.444 101.914 131.444 101.914L133.799 101.636L133.383 103.027H134.63ZM145.297 105.949C145.436 105.532 145.574 105.253 145.851 104.836C146.128 104.419 146.544 104.279 146.821 104.279C147.098 104.279 147.237 104.419 147.237 104.836C147.098 105.532 146.544 105.949 145.297 105.949ZM146.128 108.314C145.436 108.314 145.02 108.036 145.02 107.34C145.99 107.34 146.821 107.062 147.652 106.505C148.622 105.949 149.176 105.114 149.315 104.279C149.315 103.862 149.176 103.445 148.899 103.166C148.622 102.888 148.206 102.749 147.791 102.749C146.544 102.749 145.436 103.166 144.466 104.14C143.496 105.114 142.942 106.227 142.804 107.479C142.804 108.175 142.942 108.732 143.496 109.149C143.912 109.566 144.605 109.705 145.297 109.705C146.267 109.705 147.375 109.427 148.761 109.01L149.176 107.34C147.929 108.036 146.96 108.314 146.128 108.314ZM167.324 105.949C167.462 105.532 167.601 105.253 167.878 104.836C168.155 104.419 168.571 104.279 168.848 104.279C169.125 104.279 169.263 104.419 169.263 104.836C169.125 105.532 168.571 105.949 167.324 105.949ZM168.155 108.314C167.462 108.314 167.047 108.036 167.047 107.34C168.017 107.34 168.848 107.062 169.679 106.505C170.649 105.949 171.203 105.114 171.341 104.279C171.341 103.862 171.203 103.445 170.926 103.166C170.649 102.888 170.233 102.749 169.817 102.749C168.571 102.749 167.462 103.166 166.493 104.14C165.523 105.114 164.969 106.227 164.83 107.479C164.83 108.175 164.969 108.732 165.523 109.149C165.939 109.566 166.631 109.705 167.324 109.705C168.294 109.705 169.402 109.427 170.787 109.01L171.064 107.34C169.956 108.036 168.848 108.314 168.155 108.314ZM177.021 102.888L176.606 104.14H175.497C175.359 104.697 175.082 105.392 174.943 105.949C174.805 106.645 174.666 107.201 174.528 107.619C174.528 108.036 174.666 108.314 174.943 108.314C175.082 108.314 175.359 108.175 175.636 108.036L175.22 109.427C174.528 109.566 173.973 109.705 173.558 109.705C173.142 109.705 172.727 109.566 172.45 109.427C172.172 109.149 172.034 108.871 172.034 108.314C172.034 107.758 172.311 107.062 172.45 106.227C172.727 105.532 173.835 101.914 173.835 101.914L176.19 101.636L175.774 102.888H177.021ZM181.87 102.888L181.454 104.14H180.346C180.207 104.697 179.93 105.392 179.792 105.949C179.653 106.645 179.515 107.201 179.376 107.619C179.376 108.036 179.515 108.314 179.792 108.314C179.93 108.314 180.207 108.175 180.484 108.036L180.069 109.427C179.376 109.566 178.822 109.705 178.406 109.705C177.991 109.705 177.575 109.566 177.298 109.427C177.021 109.149 176.883 108.871 176.883 108.314C176.883 107.758 177.021 107.062 177.298 106.227C177.437 105.532 178.683 101.914 178.683 101.914L181.039 101.636L180.761 102.888H181.87ZM184.225 105.949C184.363 105.532 184.502 105.253 184.779 104.836C185.056 104.419 185.472 104.279 185.749 104.279C186.026 104.279 186.164 104.419 186.164 104.836C186.164 105.532 185.472 105.949 184.225 105.949ZM185.056 108.314C184.225 108.314 183.948 108.036 183.948 107.34C184.917 107.34 185.749 107.062 186.58 106.505C187.55 105.949 188.104 105.114 188.242 104.279C188.242 103.862 188.104 103.445 187.827 103.166C187.55 102.888 187.134 102.749 186.718 102.749C185.472 102.749 184.363 103.166 183.394 104.14C182.424 105.114 181.87 106.227 181.731 107.479C181.593 108.175 181.87 108.732 182.424 109.149C182.839 109.566 183.532 109.705 184.225 109.705C185.195 109.705 186.303 109.427 187.688 109.01L188.104 107.34C186.857 108.036 185.887 108.314 185.056 108.314ZM45.1385 105.949C44.8615 108.592 46.5239 110.123 49.5716 110.123C51.2339 110.123 52.8963 109.845 54.4202 109.566C54.4202 109.427 54.8358 108.314 54.9743 107.897C54.8358 107.897 54.6972 108.036 54.6972 108.036C53.4505 108.314 52.0651 108.732 50.9569 108.732C49.156 108.732 48.0477 107.479 48.1862 105.671C48.4633 102.888 50.6798 99.9663 53.4505 99.9663C54.5587 99.9663 55.667 100.245 56.7752 100.662C57.0523 100.384 57.3294 99.1316 57.4679 98.8533C56.3596 98.575 55.1128 98.4359 54.0046 98.4359C48.6018 98.4359 45.4156 102.749 45.1385 105.949ZM158.458 104.836C159.705 104.836 161.09 105.114 160.951 106.645C160.813 108.036 159.566 108.453 158.458 108.453C158.042 108.453 157.765 108.453 157.35 108.314L158.458 104.836ZM159.982 100.105C160.259 99.9663 160.536 99.9663 160.813 99.9663C161.506 99.9663 162.337 100.105 162.337 100.94C162.198 102.471 160.674 103.166 160.12 103.166H159.289L159.982 100.105ZM154.302 109.705H159.705C160.951 109.705 163.583 108.871 163.722 106.505C163.861 105.114 162.614 104.279 161.367 103.862C162.891 103.445 164.692 102.332 164.83 100.662C164.969 98.4359 162.614 98.575 160.951 98.575H157.488L154.302 109.705ZM195.723 103.027L194.892 105.114C194.753 104.975 194.338 104.975 194.199 104.975C193.783 104.975 193.229 105.253 192.537 106.088C191.844 106.784 191.428 107.34 191.29 107.758L190.736 109.845H188.519L190.459 103.166H192.675L191.706 106.088H191.844C192.26 105.392 192.675 104.697 193.229 104.14C193.922 103.445 194.615 103.027 195.169 103.027C195.446 102.749 195.584 102.888 195.723 103.027ZM78.1092 109.566H75.8927C75.8927 109.566 77.0009 105.81 77.1395 105.114C77.1395 105.114 77.1395 104.836 77.0009 104.975C76.8624 104.975 76.3083 105.532 75.7541 106.227C75.2 106.923 74.7844 107.34 74.7844 107.619L74.0917 109.566H71.8752L73.8147 102.749H76.0312L75.0615 105.671H75.2C75.6156 104.975 76.0312 104.279 76.5853 103.723C77.278 103.027 77.9706 102.61 78.5248 102.61C78.9404 102.61 79.2174 102.749 79.356 103.027C79.4945 103.166 79.7716 103.584 79.4945 104.419L78.1092 109.566ZM59.9615 109.566C59.9615 109.566 61.0697 105.81 61.2083 105.114C61.2083 105.114 61.3468 104.836 61.0697 104.975C60.9312 105.114 60.3771 105.532 59.8229 106.227C59.2688 106.923 58.8532 107.34 58.8532 107.619L58.2991 109.705H56.0826L58.8532 100.245H61.0697C60.5156 102.053 59.9615 104.001 59.2688 105.81H59.4073C59.8229 105.114 60.2385 104.419 60.7927 103.862C61.4853 103.166 62.178 102.749 62.7321 102.749C63.1477 102.749 63.4248 102.888 63.5633 103.166C63.7018 103.305 63.9789 103.723 63.7018 104.558L62.3165 109.566H59.9615ZM138.509 109.566C138.509 109.566 139.617 105.81 139.756 105.114C139.756 105.114 139.895 104.836 139.617 104.975C139.479 105.114 138.925 105.532 138.371 106.227C137.817 106.923 137.401 107.34 137.401 107.619L136.847 109.705H134.63L137.401 100.245H139.617C139.063 102.053 138.509 104.001 137.817 105.81C138.232 105.114 138.648 104.419 139.202 103.862C139.895 103.166 140.587 102.749 141.141 102.749C141.557 102.749 141.834 102.888 141.972 103.166C142.111 103.305 142.388 103.723 142.111 104.558L140.726 109.566H138.509Z" fill="#666666"/>
<path d="M61.7624 92.7316H45L53.4505 78.1229H70.2128L61.7624 92.7316ZM78.6633 92.7316H95.4257L86.9752 78.1229H70.2128L78.6633 92.7316ZM78.6633 63.5142L70.2128 48.9055L61.7624 63.5142L70.2128 78.1229L78.6633 63.5142Z" fill="#FF0000"/>
<path fill-rule="evenodd" clip-rule="evenodd" d="M109.694 86.4708H102.906V90.2273H110.664V92.7317H100.136V78.5404H110.526V81.0447H102.906V84.1056H109.694V86.4708ZM105.677 76.3143L102.768 65.7404V76.3143H100.136V62.123H104.153L107.062 72.0012L110.11 62.123H114.127V76.3143H111.495V65.7404L108.448 76.3143H105.677ZM167.462 62.123H164.692V76.3143H167.462V62.123ZM169.817 92.7317V78.5404H167.047V92.7317H169.817ZM195.446 62.123H192.675V76.3143H195.446V62.123ZM118.006 62.123H115.236V76.3143H118.006V62.123ZM183.116 67.6882H188.796V62.123H191.567V76.3143H188.796V70.0534H183.116V76.3143H180.346V62.123H183.116V67.6882ZM125.21 76.3143H122.301V64.6273H118.838V62.123H128.535V64.6273H125.21V76.3143ZM150.977 92.7317H148.068V81.0447H144.743V78.5404H154.44V81.0447H150.977V92.7317ZM151.808 71.723C151.808 74.923 149.73 76.5926 146.128 76.5926C142.804 76.5926 140.587 75.2013 140.726 71.8621V62.123H143.496V72.0012C143.496 72.9752 144.189 74.2273 146.267 74.2273C148.068 74.2273 149.038 73.2534 149.038 72.0012V61.9839H151.808V71.723ZM131.444 86.4708H124.794V90.2273H132.552V92.7317H121.885V78.5404H132.275V81.0447H124.794V84.1056H131.444V86.4708ZM159.705 76.3143H155.687H152.639V62.123H159.012C161.921 62.123 163.445 63.5143 163.445 65.6012C163.445 67.2708 162.475 68.523 161.228 68.8012C162.752 69.2186 163.999 70.7491 163.999 72.5578C163.999 74.7839 162.337 76.3143 159.705 76.3143ZM155.687 74.0882H159.012C160.12 74.0882 161.09 73.2534 161.228 72.1404C161.228 70.7491 160.259 70.0534 159.012 70.0534H155.687V74.0882ZM160.813 66.0186C160.813 65.0447 159.982 64.3491 159.15 64.3491H155.687V67.8273H159.012C160.259 67.8273 160.813 66.8534 160.813 66.0186ZM166.077 82.436C166.077 84.523 164.83 85.4969 163.583 85.9143C164.692 86.3317 165.661 87.0273 165.661 88.9752C165.673 89.0788 165.684 89.1834 165.696 89.2887C165.824 90.4557 165.961 91.7108 166.216 92.7317H163.306C163.167 92.2409 163.133 91.5734 163.098 90.8895C163.063 90.2163 163.028 89.5273 162.891 88.9752C162.614 87.8621 161.921 87.1665 160.397 87.1665H158.042V92.7317H155.133V78.5404H161.505C164.415 78.5404 166.077 79.9317 166.077 82.436ZM158.042 81.0447V84.9404H161.505C162.614 84.9404 163.306 83.8273 163.306 82.9926C163.306 81.8795 162.475 81.0447 161.367 81.0447H158.042ZM111.634 78.5404H114.405V90.2273H121.054V92.7317H111.634V78.5404ZM136.985 72.5578C136.985 71.1665 135.738 70.7491 133.383 70.3317C130.474 69.7752 128.812 68.3839 128.812 66.1578C128.812 63.3752 131.444 61.8447 134.076 61.8447C137.816 61.8447 139.479 64.2099 139.479 66.436H136.708C136.708 65.0447 135.877 64.2099 134.215 64.2099C132.691 64.2099 131.721 64.7665 131.721 65.8795C131.721 67.2749 132.882 67.5041 134.719 67.8666C135.08 67.9378 135.468 68.0142 135.877 68.1056C138.509 68.6621 139.894 70.0534 139.894 72.2795C139.894 74.6447 138.094 76.7317 134.215 76.7317C130.059 76.7317 128.535 74.5056 128.535 72.0012H131.305C131.305 73.2534 132.414 74.3665 134.215 74.3665C136.016 74.3665 136.985 73.5317 136.985 72.5578ZM176.605 72.5578C176.605 71.1665 175.22 70.7491 173.004 70.3317C170.233 69.7752 168.432 68.3839 168.432 66.1578C168.432 63.3752 171.064 61.8447 173.696 61.8447C177.437 61.8447 179.099 64.2099 179.099 66.436H176.328C176.328 65.0447 175.497 64.2099 173.835 64.2099C172.311 64.2099 171.341 64.7665 171.341 65.8795C171.341 67.2749 172.502 67.5041 174.34 67.8666C174.701 67.9378 175.088 68.0142 175.497 68.1056C178.129 68.6621 179.515 70.0534 179.515 72.2795C179.515 74.6447 177.714 76.7317 173.835 76.7317C169.679 76.7317 168.155 74.5056 168.155 72.0012H170.926C170.926 73.2534 171.895 74.3665 173.835 74.3665C175.636 74.3665 176.605 73.5317 176.605 72.5578ZM135.323 85.4969C135.323 88.2795 136.57 90.5056 138.925 90.5056C140.726 90.5056 141.557 89.5317 141.972 87.723H144.882C144.466 90.7839 142.111 92.7317 138.786 92.7317C134.492 92.7317 132.275 89.3926 132.275 85.3578C132.275 81.323 134.492 77.9839 138.786 77.9839C142.249 77.9839 144.466 80.0708 144.882 82.8534H141.972C141.557 81.6012 140.726 80.4882 138.925 80.4882C136.57 80.4882 135.323 82.8534 135.323 85.4969ZM173.419 85.4969C173.419 88.2795 174.666 90.5056 177.021 90.5056C178.822 90.5056 179.653 89.5317 180.069 87.723H182.978C182.562 90.7839 180.207 92.7317 176.882 92.7317C172.588 92.7317 170.371 89.3926 170.371 85.3578C170.371 81.323 172.588 77.9839 176.882 77.9839C180.346 77.9839 182.562 80.0708 182.978 82.8534H180.069C179.653 81.6012 178.822 80.4882 177.021 80.4882C174.666 80.4882 173.419 82.8534 173.419 85.4969Z" fill="black"/>
</svg>
