<svg width="240" height="160" viewBox="0 0 240 160" fill="none" xmlns="http://www.w3.org/2000/svg">
<path d="M36.7136 78.1622H25.0592C23.4754 78.1629 21.9069 77.8588 20.4434 77.2672C18.98 76.6755 17.6502 75.8079 16.5303 74.714C15.4103 73.6201 14.5221 72.3213 13.9163 70.8918C13.3106 69.4624 12.9992 67.9304 13 66.3834V55H24.6544C27.85 54.9984 30.9155 56.2364 33.1769 58.4418C35.4382 60.6472 36.7104 63.6395 36.7136 66.7608V78.1622ZM17.2937 59.1939V66.3834C17.2921 68.3924 18.1072 70.3198 19.5599 71.7421C21.0126 73.1644 22.984 73.9651 25.0408 73.9683H32.4015V66.7788C32.4031 64.7698 31.588 62.8423 30.1353 61.42C28.6827 59.9978 26.7113 59.197 24.6544 59.1939H17.2937Z" fill="#FFC20E"/>
<path d="M51.2569 78.1622H39.6025V66.7788C39.6009 63.6575 40.8684 60.6633 43.1263 58.4545C45.3842 56.2457 48.4478 55.0032 51.6434 55H63.2978V66.3834C63.2994 69.5047 62.0319 72.4989 59.774 74.7076C57.5161 76.9164 54.4526 78.159 51.2569 78.1622ZM43.8963 73.9683H51.2569C53.3138 73.9651 55.2852 73.1644 56.7379 71.7421C58.1906 70.3198 59.0057 68.3924 59.0041 66.3834V59.1939H51.6434C49.5865 59.1923 47.6132 59.9884 46.157 61.4073C44.7009 62.8262 43.8811 64.7518 43.8779 66.7608L43.8963 73.9683Z" fill="#00C0F3"/>
<path d="M24.6544 104.129H13V92.7455C13 89.6246 14.268 86.6314 16.5256 84.4229C18.7831 82.2145 21.8457 80.9714 25.0408 80.9667H36.6952V92.35C36.6952 95.4709 35.4272 98.4641 33.1697 100.673C30.9121 102.881 27.8495 104.124 24.6544 104.129V104.129ZM17.2937 99.935H24.6544C26.7113 99.9365 28.6846 99.1404 30.1407 97.7215C31.5969 96.3026 32.4167 94.377 32.4199 92.368V85.1785H25.0592C23.0024 85.1769 21.029 85.9731 19.5729 87.392C18.1168 88.8109 17.297 90.7364 17.2937 92.7455V99.935Z" fill="#0089CF"/>
<path d="M63.2981 104.128H51.6437C48.4486 104.128 45.3841 102.889 43.123 100.684C40.862 98.4793 39.5893 95.4879 39.5845 92.3671V80.9838H51.2389C54.434 80.9838 57.4985 82.2223 59.7595 84.4273C62.0206 86.6324 63.2932 89.6238 63.2981 92.7446V104.128ZM43.8782 85.1597V92.3492C43.8774 93.3454 44.0777 94.3321 44.4677 95.2527C44.8576 96.1733 45.4296 97.0098 46.1509 97.7143C46.8721 98.4187 47.7285 98.9774 48.671 99.3583C49.6135 99.7392 50.6237 99.9349 51.6437 99.9341H59.0044V92.7446C59.006 90.7356 58.1909 88.8081 56.7382 87.3858C55.2855 85.9636 53.3141 85.1628 51.2573 85.1597H43.8782Z" fill="#8DC63F"/>
<path fill-rule="evenodd" clip-rule="evenodd" d="M158.306 87.8803C157.521 88.8132 156.533 89.5626 155.413 90.0737C154.293 90.5848 153.07 90.8446 151.834 90.834C148.563 90.834 146.154 89.9193 144.609 88.09C143.063 86.2607 142.292 83.6645 142.296 80.3014C142.285 78.7539 142.427 77.209 142.719 75.6881C142.975 74.3492 143.462 73.0626 144.161 71.8837C144.835 70.7618 145.805 69.837 146.97 69.2056C148.337 68.5034 149.867 68.1606 151.411 68.2111C152.663 68.2176 153.905 68.4198 155.091 68.8102C156.217 69.1471 157.207 69.817 157.925 70.7274H158.017V60.6202C158.017 60.4342 158.035 60.2815 158.05 60.1622V60.1621L158.05 60.162L158.05 60.1618L158.05 60.1617C158.059 60.0851 158.066 60.0222 158.066 59.9731C158.109 59.6478 158.075 59.3173 157.969 59.0062C157.863 58.695 157.687 58.4112 157.453 58.1757C157.044 57.8522 156.116 57.6904 154.668 57.6904V56.0069H164.354V84.8368C164.354 86.4664 164.542 87.5129 164.918 87.9762C165.294 88.4395 166.239 88.6712 167.752 88.6712V90.4685C167.061 90.4366 166.273 90.4206 165.39 90.4206C164.507 90.4206 163.72 90.3966 163.029 90.3487C162.338 90.3807 161.55 90.3966 160.667 90.3966C159.784 90.3966 158.997 90.4126 158.306 90.4446V87.8803ZM157.974 76.0716C157.971 75.4052 157.899 74.7408 157.76 74.0885C157.625 73.4326 157.385 72.8018 157.048 72.2192C156.735 71.6692 156.288 71.2023 155.748 70.8592C155.167 70.5077 154.493 70.3306 153.809 70.3499C152.935 70.3046 152.07 70.5496 151.356 71.0449C150.739 71.5093 150.265 72.1314 149.988 72.8423C149.689 73.5977 149.499 74.3902 149.424 75.1969C149.346 75.9957 149.307 76.9263 149.307 77.9888V80.4811C149.307 81.5596 149.338 82.4982 149.399 83.297C149.466 84.1124 149.632 84.9171 149.896 85.6935C150.14 86.4565 150.589 87.1414 151.196 87.6766C151.854 88.2207 152.697 88.5011 153.558 88.4615C154.206 88.5014 154.852 88.3733 155.433 88.0903C156.014 87.8073 156.507 87.3793 156.864 86.8498C157.612 85.6915 157.99 84.3422 157.95 82.9735L157.974 76.0716ZM88.263 68.9653C86.9659 69.545 85.7826 70.3419 84.7666 71.3199V68.5999C84.0797 68.6238 83.2945 68.6378 82.4112 68.6418C81.528 68.6458 80.7408 68.6618 80.0497 68.6897C79.3586 68.6578 78.5714 68.6418 77.6881 68.6418C76.8049 68.6418 76.0177 68.6258 75.3266 68.5939V70.3913C76.8028 70.3913 77.7229 70.6229 78.0868 71.0862C78.4508 71.5496 78.6328 72.596 78.6328 74.2257V84.8361C78.6491 86.4618 78.4774 87.5062 78.1175 87.9696C77.7577 88.4329 76.8376 88.6646 75.3573 88.6646V90.4619L78.6144 90.414C79.7798 90.414 80.8512 90.398 81.8285 90.3661C82.4583 90.398 83.4192 90.414 84.7114 90.414C86.065 90.414 87.0096 90.43 87.5453 90.4619V88.6646C86.4412 88.6646 85.7399 88.4109 85.4414 87.9037C85.1429 87.3964 84.9936 86.3739 84.9936 84.8361V75.2861C84.9654 74.7776 85.05 74.2692 85.2416 73.7956C85.4332 73.322 85.7273 72.8944 86.1038 72.5421C86.9374 71.8493 88.0103 71.4936 89.1033 71.5476C90.3628 71.5476 91.2134 71.925 91.655 72.6799C92.1503 73.6763 92.3783 74.7792 92.3175 75.8852V84.8421C92.3175 86.3799 92.1682 87.4024 91.8697 87.9097C91.5712 88.4169 90.8392 88.6705 89.6738 88.6705V90.4679C90.5366 90.432 91.5037 90.414 92.5751 90.414C93.6465 90.414 94.6075 90.398 95.458 90.3661C96.3086 90.398 97.2696 90.414 98.341 90.414L101.175 90.4619V88.6646C100.071 88.6646 99.3694 88.4109 99.0709 87.9037C98.7724 87.3964 98.6231 86.3739 98.6231 84.8361V75.2861C98.5949 74.7776 98.6795 74.2692 98.8711 73.7956C99.0627 73.322 99.3569 72.8944 99.7333 72.5421C100.567 71.8493 101.64 71.4936 102.733 71.5476C103.992 71.5476 104.843 71.925 105.285 72.6799C105.78 73.6763 106.008 74.7792 105.947 75.8852V84.8182C105.947 86.3559 105.798 87.3784 105.499 87.8857C105.201 88.393 104.469 88.6466 103.303 88.6466V90.444C103.904 90.412 104.865 90.396 106.186 90.396C107.507 90.396 108.482 90.38 109.112 90.3481C110.081 90.396 111.163 90.42 112.357 90.42C113.551 90.42 114.637 90.436 115.614 90.4679V88.6705C114.134 88.6705 113.205 88.4389 112.829 87.9756C112.453 87.5122 112.265 86.4658 112.265 84.8361V75.1543C112.265 72.7218 111.768 70.9604 110.774 69.87C109.781 68.7796 108.041 68.2344 105.554 68.2344C104.266 68.2397 102.991 68.49 101.8 68.9713C100.629 69.4238 99.5799 70.1331 98.7335 71.0443L98.2612 71.5056C97.7886 70.4318 96.9498 69.5511 95.8874 69.0133C94.764 68.4753 93.5255 68.2062 92.2745 68.2284C90.8998 68.2028 89.5343 68.4537 88.263 68.9653ZM139.119 80.0378C139.119 75.8878 138.277 72.8822 136.592 71.021C134.907 69.1597 132.035 68.229 127.974 68.229C123.913 68.229 121.032 69.1597 119.331 71.021C117.63 72.8822 116.78 75.8878 116.78 80.0378C116.784 83.8802 117.689 86.6401 119.497 88.3177C121.304 89.9952 124.13 90.834 127.974 90.834C131.814 90.83 134.631 89.9912 136.426 88.3177C138.222 86.6441 139.119 83.8842 139.119 80.0378ZM124.38 72.5907C124.621 71.8657 125.073 71.2247 125.68 70.7454C126.36 70.3085 127.157 70.0758 127.971 70.0758C128.785 70.0758 129.582 70.3085 130.262 70.7454C130.873 71.2311 131.325 71.8809 131.562 72.6146C131.862 73.4958 132.051 74.4091 132.127 75.3347C132.221 76.3492 132.268 77.5954 132.268 79.0732C132.268 80.6429 132.221 81.9969 132.127 83.1353C132.053 84.1668 131.864 85.1874 131.562 86.1788C131.334 86.9811 130.884 87.7066 130.262 88.2757C129.605 88.7698 128.8 89.0378 127.971 89.0378C127.142 89.0378 126.336 88.7698 125.68 88.2757C125.057 87.7068 124.607 86.9813 124.38 86.1788C124.078 85.1874 123.889 84.1668 123.815 83.1353C123.721 81.9969 123.674 80.6429 123.674 79.0732C123.674 77.5954 123.721 76.3412 123.815 75.3107C123.887 74.3847 124.077 73.471 124.38 72.5907ZM179.995 86.4061V84.8844L180.001 68.696H170.316V70.4934C171.796 70.4934 172.724 70.6931 173.101 71.0925C173.477 71.4919 173.665 72.3527 173.665 73.6747V85.7171C173.714 86.0287 173.714 86.2444 173.714 86.3642C173.756 86.6895 173.723 87.02 173.617 87.3311C173.511 87.6423 173.334 87.9261 173.101 88.1616C172.692 88.4851 171.763 88.6469 170.316 88.6469V90.4442C171.293 90.4123 172.379 90.3963 173.573 90.3963C174.767 90.3963 175.853 90.3803 176.83 90.3484C177.824 90.4083 178.918 90.4382 180.112 90.4382C181.306 90.4382 182.391 90.4542 183.369 90.4862V88.6888C181.937 88.6888 181.017 88.527 180.608 88.2035C180.378 87.9661 180.203 87.682 180.097 87.3715C179.991 87.0609 179.956 86.7313 179.995 86.4061ZM173.708 60.8475C173.663 61.7648 173.96 62.6669 174.542 63.3878C175.199 63.9949 176.069 64.3333 176.974 64.3333C177.879 64.3333 178.749 63.9949 179.406 63.3878C179.984 62.6649 180.275 61.7632 180.228 60.8475C180.276 59.9179 179.982 59.0021 179.4 58.2652C178.75 57.6443 177.877 57.2965 176.968 57.2965C176.059 57.2965 175.186 57.6443 174.536 58.2652C173.954 59.0021 173.66 59.9179 173.708 60.8475ZM188.638 70.8112H185.522V68.6903H188.638V62.5552L194.968 60.5242V68.6903H199.6V70.8112H194.968V82.3024C194.897 83.8757 195.088 85.4499 195.533 86.9636C195.909 87.9781 196.743 88.4854 198.035 88.4854C198.712 88.5155 199.387 88.4052 200.017 88.1618V89.9173C198.25 90.4647 196.416 90.7731 194.564 90.8339C192.454 90.8339 190.934 90.3966 190.006 89.5219C189.078 88.6471 188.614 87.1793 188.614 85.1183L188.638 70.8112ZM205.027 72.6556C205.056 72.7475 205.15 72.9632 205.31 73.3027L211.83 90.3478H214.142L212.775 93.8466C212.375 94.9349 211.843 95.9727 211.192 96.9381C210.956 97.3299 210.632 97.664 210.244 97.9152C209.856 98.1664 209.414 98.3281 208.953 98.388C208.604 98.3979 208.259 98.3106 207.959 98.1364C207.61 97.9172 207.292 97.6532 207.015 97.3515C206.731 97.063 206.414 96.8076 206.07 96.5906C205.77 96.4164 205.425 96.3291 205.076 96.339H204.745C204.16 96.3876 203.614 96.6458 203.212 97.0639C202.793 97.5269 202.573 98.1301 202.598 98.7475C202.591 99.1717 202.681 99.5921 202.86 99.9785C203.039 100.365 203.304 100.708 203.635 100.982C204.293 101.569 205.155 101.89 206.046 101.881C207.136 101.891 208.212 101.647 209.186 101.168C210.107 100.716 210.938 100.108 211.64 99.3706C212.303 98.6717 212.889 97.9066 213.388 97.0879C213.839 96.3471 214.219 95.5669 214.523 94.7573L222.583 74.1834C223.18 72.5058 223.715 71.4674 224.19 71.0679C224.672 70.648 225.292 70.41 225.938 70.3969C226.226 70.3769 226.511 70.3307 226.79 70.2591V68.5995C226.099 68.6275 225.329 68.6435 224.478 68.6475C223.627 68.6515 222.857 68.6674 222.166 68.6954C221.507 68.6635 220.736 68.6475 219.853 68.6475C218.97 68.6475 218.183 68.6315 217.492 68.5995V70.2531L217.964 70.3011C218.557 70.3099 219.146 70.4027 219.712 70.5767C219.916 70.6421 220.091 70.7731 220.209 70.9482C220.327 71.1234 220.381 71.3324 220.362 71.5412C220.258 72.1232 220.1 72.6948 219.89 73.2487L216.394 84.9197L212.1 73.2967L212.008 73.069C211.877 72.6177 211.799 72.1534 211.775 71.685V71.4094C211.823 71.2421 211.913 71.0892 212.038 70.9646C212.162 70.8401 212.316 70.7479 212.486 70.6965C212.899 70.5503 213.327 70.4498 213.762 70.3969L214.615 70.2591V68.5995C213.67 68.6275 212.599 68.6435 211.401 68.6475C210.202 68.6515 209.117 68.6674 208.143 68.6954C207.166 68.6635 206.08 68.6475 204.886 68.6475C203.692 68.6475 202.607 68.6315 201.629 68.5995V70.2352C202.32 70.327 202.831 70.4109 203.163 70.4868C203.449 70.5454 203.721 70.6551 203.966 70.8103C204.183 70.964 204.354 71.1707 204.463 71.4094C204.586 71.6571 204.774 72.0725 205.027 72.6556Z" fill="#0C141E"/>
</svg>
