<svg width="240" height="160" viewBox="0 0 240 160" fill="none" xmlns="http://www.w3.org/2000/svg">
<path d="M191.466 71.189C184.433 71.7005 178.806 77.4549 178.295 84.4881C177.783 92.8 184.305 99.7052 192.489 99.7052C195.43 99.7052 199.394 98.1707 201.184 95.1017V99.3216H206.683V85.7668C206.939 76.8155 199.778 70.5496 191.466 71.189ZM200.801 85.7668C200.545 90.4982 196.453 94.0787 191.594 93.4393C187.885 92.9278 184.944 89.9867 184.433 86.2783C183.921 81.2912 187.757 77.0713 192.617 77.0713C196.964 77.0713 200.545 80.5239 200.801 84.8717V85.7668Z" fill="#0000A0"/>
<path d="M161.287 71.1875C153.742 71.4432 147.349 77.1976 147.349 85.6374C147.349 93.3099 153.615 99.8316 161.671 99.8316C167.297 99.8316 172.796 96.5068 174.97 91.0082L169.471 89.3458C168.448 91.6476 166.018 93.5657 163.333 94.0772C159.497 94.8445 155.916 92.4148 154.51 89.8573L175.865 83.975C175.226 78.3485 170.366 70.9317 161.287 71.1875ZM153.359 84.7423C153.359 81.8011 155.149 78.3485 158.985 76.9419C163.333 75.2795 167.169 77.4534 168.832 80.5224L153.359 84.7423Z" fill="#0000A0"/>
<path d="M114.357 76.9428V71.0605C108.986 71.0605 107.196 73.7459 106.301 75.1526V71.9557H100.163V84.999V99.1932H106.429C106.429 90.7534 106.429 90.8813 106.429 85.7662C106.429 79.6282 110.009 77.1986 114.357 76.9428Z" fill="#0000A0"/>
<path d="M57.9635 88.3231L39.2937 66.3285H32.8999V99.1925H39.5494V77.1979L58.475 99.3204H64.2294V66.3285H57.9635V88.3231Z" fill="#0000A0"/>
<path d="M143.64 63.3877H137.758V74.1292C136.351 72.339 132.004 70.8045 128.295 71.1881C121.262 71.6996 115.636 77.454 115.124 84.4872C114.613 92.7991 121.134 99.7044 129.318 99.7044C132.387 99.7044 136.607 98.2977 138.014 95.6123V99.1929H143.512V85.638C143.512 85.5102 143.512 85.5102 143.512 85.3823C143.512 85.2544 143.512 85.2544 143.512 85.1265L143.64 63.3877ZM137.502 85.7659C137.247 90.4973 133.155 94.0778 128.295 93.4385C124.587 92.927 121.646 89.9858 121.134 86.2774C120.623 81.2903 124.459 77.0704 129.318 77.0704C133.666 77.0704 137.247 80.523 137.502 84.8708V85.7659Z" fill="#0000A0"/>
<path d="M82.2596 71.0605C74.3313 71.0605 67.9375 77.4543 67.9375 85.3826C67.9375 93.3109 74.3313 99.7047 82.2596 99.7047C90.1879 99.7047 96.5816 93.3109 96.5816 85.3826C96.4538 77.4543 90.06 71.0605 82.2596 71.0605ZM82.2596 93.5667C77.7839 93.5667 74.0755 89.8583 74.0755 85.3826C74.0755 80.907 77.7839 77.1986 82.2596 77.1986C86.7352 77.1986 90.4436 80.907 90.4436 85.3826C90.4436 89.9861 86.7352 93.5667 82.2596 93.5667Z" fill="#0000A0"/>
</svg>
