<svg width="240" height="160" viewBox="0 0 240 160" fill="none" xmlns="http://www.w3.org/2000/svg">
<g clip-path="url(#clip0_72_1191)">
<path d="M66.0938 64.396L62.1414 85.5689L52.2605 95.604L55.3346 75.3133L66.0938 64.396Z" fill="url(#paint0_linear_72_1191)"/>
<path d="M43.1484 87.4435L66.0941 64.3959C66.7529 60.7568 63.4592 58.3308 61.5928 57.9999C60.7145 57.8897 60.0558 58.441 60.0558 58.441L37.2198 81.3784C37.2198 81.3784 36.1219 82.4811 39.0862 85.4586C42.0505 88.5463 43.1484 87.4435 43.1484 87.4435Z" fill="url(#paint1_linear_72_1191)"/>
<path d="M69.4973 74.431L71.3637 76.3057L52.2606 95.604C51.6018 99.2431 54.8955 101.669 56.7619 102C57.6402 102.221 58.1891 101.669 58.1891 101.669L77.4021 82.3709L79.2685 84.2456V74.431H69.4973Z" fill="url(#paint2_linear_72_1191)"/>
<path d="M99.5794 84.4661V73.1077C99.5794 70.5714 98.2619 69.4686 95.7368 69.4686C94.3095 69.4686 92.5529 70.1303 91.7844 71.4536V84.4661H89.0397V67.2631L91.0159 67.1528L91.455 68.9173H91.5648C92.7725 67.594 94.6389 66.822 96.5053 66.822C100.128 66.822 102.324 68.9173 102.324 72.9975V84.4661H99.5794Z" fill="black"/>
<path d="M113.303 84.7969C108.143 84.7969 105.837 82.2606 105.837 75.8646C105.837 69.4686 108.143 66.9323 113.303 66.9323C118.463 66.9323 120.659 69.4686 120.659 75.8646C120.659 82.2606 118.463 84.7969 113.303 84.7969ZM113.303 82.4811C116.597 82.4811 117.914 80.827 117.914 75.8646C117.914 70.9022 116.597 69.248 113.303 69.248C109.899 69.248 108.692 70.9022 108.692 75.8646C108.582 80.827 109.899 82.4811 113.303 82.4811Z" fill="black"/>
<path d="M135.81 67.2631L138.884 80.055L139.433 82.3708H139.542L139.981 80.055L142.726 67.2631H145.361L141.189 84.4661H137.786L134.931 72.3357L134.492 70.02H134.382L133.833 72.3357L130.869 84.4661H127.575L123.184 67.2631H125.929L128.783 79.9448L129.222 82.2606H129.332L129.771 79.9448L132.845 67.2631H135.81Z" fill="black"/>
<path d="M158.206 82.3708C157.109 83.8044 155.242 84.6866 153.046 84.6866C149.862 84.6866 147.776 83.0325 147.776 79.1729C147.776 75.9749 149.862 73.9899 153.925 73.9899C155.352 73.9899 156.779 74.3207 157.877 74.6515V72.9974C157.877 70.2405 156.669 69.3583 153.925 69.3583C152.168 69.3583 150.631 69.6891 149.094 70.3508L148.874 68.035C150.521 67.2631 152.388 66.9323 154.364 66.9323C158.865 66.9323 160.622 68.8069 160.622 73.3282V84.4661H158.536L158.206 82.3708ZM157.877 76.6365C157.438 76.416 156.23 75.9749 154.474 75.9749C151.619 75.9749 150.411 77.0776 150.411 79.1729C150.411 81.5989 151.839 82.4811 153.815 82.4811C155.901 82.4811 157.877 81.0475 157.877 79.614V76.6365Z" fill="black"/>
<path d="M169.515 84.797C167.429 84.797 165.562 84.3559 164.245 83.3634L164.574 81.0476C165.891 82.0401 167.868 82.5915 169.405 82.5915C171.93 82.5915 172.918 81.3784 172.918 79.7243C172.918 75.8647 164.135 77.6291 164.135 71.8947C164.135 69.0276 166.221 67.0426 170.063 67.0426C171.71 67.0426 173.357 67.3734 174.675 68.0351L174.455 70.3509C173.028 69.7995 171.381 69.4687 169.954 69.4687C167.868 69.4687 166.66 70.3509 166.66 71.7845C166.66 75.4236 175.333 73.5489 175.333 79.5038C175.553 82.5915 173.796 84.797 169.515 84.797Z" fill="black"/>
<path d="M182.579 69.3584V79.9448C182.579 81.7092 183.567 82.4812 185.104 82.4812C185.544 82.4812 186.202 82.3709 186.532 82.2606L186.751 84.3559C186.202 84.5764 185.324 84.797 184.336 84.797C181.372 84.797 179.835 83.1428 179.835 80.0551V69.3584H177.419V67.2631H179.944L180.493 62.9624L182.579 62.7418V67.2631H186.751V69.3584H182.579Z" fill="black"/>
<path d="M188.837 75.4236C188.837 70.02 191.143 67.0426 195.864 67.0426C199.926 67.0426 202.561 69.4687 202.561 74.9825C202.561 75.4236 202.561 75.9749 202.451 76.3058H191.472C191.582 80.8271 193.229 82.3709 196.962 82.3709C198.718 82.3709 200.145 82.0401 201.573 81.2682L201.902 83.584C200.475 84.3559 198.718 84.9073 196.632 84.9073C191.143 84.797 188.837 81.8195 188.837 75.4236ZM200.145 74.3208C200.036 70.6817 198.389 69.2481 195.974 69.2481C193.119 69.2481 191.802 70.9023 191.582 74.3208H200.145Z" fill="black"/>
<path d="M93.1019 96.5965V97.2582H88.9299V89.98H89.5887V96.5965H93.1019Z" fill="black"/>
<path d="M101.556 97.3685C99.4696 97.3685 98.701 96.2657 98.701 93.6191C98.701 90.9725 99.4696 89.8698 101.556 89.8698C103.642 89.8698 104.41 90.8622 104.41 93.6191C104.41 96.2657 103.642 97.3685 101.556 97.3685ZM101.556 90.5314C100.019 90.5314 99.3598 91.1931 99.3598 93.6191C99.3598 96.0452 100.019 96.7068 101.556 96.7068C103.093 96.7068 103.751 96.0452 103.751 93.6191C103.751 91.1931 103.093 90.5314 101.556 90.5314Z" fill="black"/>
<path d="M115.718 96.9274C115.169 97.1479 114.401 97.3685 113.632 97.3685C111.437 97.3685 110.558 96.2657 110.558 93.6191C110.558 90.9725 111.546 89.8698 113.742 89.8698C114.401 89.8698 115.169 89.98 115.608 90.2006L115.499 90.752C115.06 90.5314 114.401 90.4211 113.742 90.4211C111.985 90.4211 111.217 91.1931 111.217 93.6191C111.217 95.9349 111.985 96.7068 113.632 96.7068C114.181 96.7068 114.73 96.5966 115.169 96.4863V93.3986H115.718V96.9274Z" fill="black"/>
<path d="M122.306 89.98H122.964V97.1479H122.306V89.98Z" fill="black"/>
<path d="M131.528 97.3685C130.759 97.3685 129.991 97.148 129.442 96.8172L129.552 96.2658C130.101 96.5966 130.759 96.8172 131.528 96.8172C132.626 96.8172 133.284 96.2658 133.284 95.3836C133.284 93.3986 129.552 94.2808 129.552 91.965C129.552 90.8623 130.21 90.0903 131.747 90.0903C132.406 90.0903 133.065 90.2006 133.614 90.4212L133.504 90.9725C132.955 90.752 132.406 90.6417 131.857 90.6417C130.649 90.6417 130.21 91.1931 130.21 91.965C130.21 93.8397 133.943 92.9575 133.943 95.3836C133.833 96.4863 133.065 97.3685 131.528 97.3685Z" fill="black"/>
<path d="M142.068 90.6416V97.2582H141.409V90.6416H139.213V89.98H144.373V90.6416H142.068Z" fill="black"/>
<path d="M150.411 89.98H151.07V97.1479H150.411V89.98Z" fill="black"/>
<path d="M162.269 90.8622C161.829 90.6416 161.28 90.5314 160.732 90.5314C159.085 90.5314 158.316 91.3033 158.316 93.6191C158.316 96.0451 159.085 96.8171 160.732 96.8171C161.28 96.8171 161.829 96.7068 162.269 96.4862L162.378 97.0376C161.939 97.2582 161.28 97.4787 160.622 97.4787C158.536 97.4787 157.657 96.2657 157.657 93.6191C157.657 91.0827 158.646 89.98 160.732 89.98C161.28 89.98 162.049 90.0903 162.378 90.3108L162.269 90.8622Z" fill="black"/>
<path d="M170.283 97.3685C169.405 97.3685 168.746 97.148 168.197 96.8172L168.307 96.2658C168.856 96.5966 169.515 96.8172 170.283 96.8172C171.381 96.8172 172.04 96.2658 172.04 95.3836C172.04 93.3986 168.307 94.2808 168.307 91.965C168.307 90.8623 168.966 90.0903 170.503 90.0903C171.161 90.0903 171.82 90.2006 172.369 90.4212L172.259 90.9725C171.71 90.752 171.161 90.6417 170.612 90.6417C169.405 90.6417 168.966 91.1931 168.966 91.965C168.966 93.8397 172.698 92.9575 172.698 95.3836C172.589 96.4863 171.82 97.3685 170.283 97.3685Z" fill="black"/>
<path d="M190.704 95.2732H187.3L186.642 97.1479H185.983L188.727 89.98H189.496L192.241 97.1479H191.582L190.704 95.2732ZM188.727 91.193L187.41 94.7218H190.484L189.276 91.193L189.057 90.4211L188.727 91.193Z" fill="black"/>
<path d="M200.804 97.1479H198.169V89.98H200.694C202.012 89.98 202.671 90.5314 202.671 91.7444C202.671 92.7369 202.231 93.178 201.573 93.3985C202.451 93.6191 202.89 94.1705 202.89 95.1629C203 96.4862 202.341 97.1479 200.804 97.1479ZM200.804 93.7294H198.828V96.5965H200.914C201.902 96.5965 202.451 96.1554 202.451 95.0527C202.341 94.1705 201.792 93.7294 200.804 93.7294ZM200.585 90.5314H198.718V93.178H200.694C201.573 93.178 202.012 92.7369 202.012 91.8547C202.012 90.9725 201.573 90.5314 200.585 90.5314Z" fill="black"/>
</g>
<defs>
<linearGradient id="paint0_linear_72_1191" x1="55.2389" y1="74.6028" x2="70.276" y2="95.122" gradientUnits="userSpaceOnUse">
<stop offset="0.00321807" stop-color="#6A931D"/>
<stop offset="0.0487377" stop-color="#81AB1F"/>
<stop offset="0.1009" stop-color="#95BE20"/>
<stop offset="0.1618" stop-color="#A4CC21"/>
<stop offset="0.2391" stop-color="#ADD421"/>
<stop offset="0.3871" stop-color="#B0D621"/>
<stop offset="0.6007" stop-color="#78A619"/>
<stop offset="0.7624" stop-color="#598913"/>
</linearGradient>
<linearGradient id="paint1_linear_72_1191" x1="55.737" y1="68.686" x2="36.7753" y2="88.1215" gradientUnits="userSpaceOnUse">
<stop offset="0.3792" stop-color="#B0D621"/>
<stop offset="0.5149" stop-color="#A3CD1F"/>
<stop offset="0.7224" stop-color="#82B41B"/>
<stop offset="0.871" stop-color="#679E16"/>
</linearGradient>
<linearGradient id="paint2_linear_72_1191" x1="59.2601" y1="95.0872" x2="78.2053" y2="75.5261" gradientUnits="userSpaceOnUse">
<stop offset="0.2049" stop-color="#B0D621"/>
<stop offset="1" stop-color="#679E16"/>
</linearGradient>
<clipPath id="clip0_72_1191">
<rect width="166" height="44" fill="white" transform="translate(37 58)"/>
</clipPath>
</defs>
</svg>
