<svg width="240" height="160" viewBox="0 0 240 160" fill="none" xmlns="http://www.w3.org/2000/svg">
<path fill-rule="evenodd" clip-rule="evenodd" d="M97.2497 65.7818C99.8483 65.72 102.381 66.5925 104.38 68.2376H104.378C106.356 69.9555 107.4 72.3838 107.4 75.2675C107.4 78.1512 106.36 80.5806 104.393 82.2963C102.392 83.9452 99.8531 84.8183 97.2497 84.7532H92.7318V94.1785H86.3032V65.7818H97.2497ZM96.6773 71.3533H92.7329V79.1817H96.6773C99.3804 79.1817 100.936 77.7563 100.936 75.2675C100.936 72.8183 99.3448 71.3533 96.6773 71.3533Z" fill="#001C24"/>
<path d="M114.592 77.0217L114.314 74.413H108.757V94.1785H114.959V83.0376C116.266 81.4143 117.679 80.6884 119.516 80.6884H120.265V74.5878H119.975C117.896 74.5415 115.91 75.4385 114.583 77.0228" fill="#001C24"/>
<path d="M125.508 65.3176C124.06 65.3159 122.753 66.1775 122.198 67.5006C121.642 68.8238 121.946 70.3479 122.969 71.3622C123.992 72.3765 125.532 72.6812 126.87 72.1342C128.208 71.5872 129.082 70.2963 129.083 68.8634V68.8634C129.15 66.9744 127.658 65.389 125.749 65.3209C125.67 65.3209 125.591 65.3209 125.512 65.3209" fill="#001C24"/>
<rect x="122.386" y="74.4119" width="6.19958" height="19.7666" fill="#001C24"/>
<path d="M147.133 87.9097C147.133 84.9215 145.072 82.9727 140.834 81.9521C138.05 81.3021 137.579 80.9502 137.579 80.2265C137.579 79.923 137.579 79.0002 139.813 79.0002C141.432 79.007 143 79.559 144.259 80.5653L144.532 80.7852L146.906 76.3409L146.733 76.1914C145.195 74.8639 142.545 74.0391 139.815 74.0391C134.615 74.0391 131.385 76.5565 131.385 80.6103C131.385 83.6304 133.253 85.312 137.839 86.4162C140.444 87.0233 140.901 87.5061 140.901 88.2935C140.901 89.4021 139.567 89.6364 138.44 89.6364C136.563 89.6388 134.746 88.9787 133.316 87.7744L133.039 87.5336L130.618 92.0273L130.795 92.1769C132.515 93.644 135.431 94.5558 138.402 94.5558C143.711 94.5558 147.14 91.9492 147.14 87.9119" fill="#001C24"/>
<path d="M149.344 95.3663C149.344 96.8939 148.4 97.8419 146.883 97.8419C145.775 97.7753 144.752 97.2324 144.083 96.3561L143.876 96.1163L139.829 100.253L140.023 100.453C141.841 102.326 144.376 103.348 146.998 103.267C151.95 103.267 155.545 99.771 155.545 94.955V74.4108H149.344V95.3663Z" fill="#001C24"/>
<path d="M152.209 65.3176C150.761 65.3163 149.455 66.1783 148.899 67.5016C148.344 68.825 148.649 70.349 149.672 71.363C150.695 72.377 152.235 72.6812 153.573 72.1338C154.911 71.5864 155.785 70.2952 155.785 68.8623V68.8623C155.852 66.9733 154.36 65.3879 152.451 65.3198C152.372 65.3198 152.292 65.3198 152.213 65.3198" fill="#001C24"/>
<path fill-rule="evenodd" clip-rule="evenodd" d="M166.514 74.0325C169.428 74.0325 171.094 75.1983 171.977 76.1573L172.226 74.4108H177.812V94.1785H172.225L171.977 92.4574C170.72 93.7991 168.769 94.5569 166.514 94.5569C161.253 94.5569 157.585 90.3447 157.585 84.3134C157.585 78.2601 161.256 74.0325 166.514 74.0325ZM163.821 84.3123C163.821 87.2432 165.419 89.1349 167.89 89.1349C169.461 89.1349 170.634 88.4431 171.572 86.9562V81.6695C170.621 80.1561 169.446 79.4523 167.89 79.4523C165.419 79.4523 163.821 81.3593 163.821 84.3123Z" fill="#001C24"/>
<path d="M199.684 74.4119H192.223L186.169 83.6106V65.4948H179.968V94.1774H184.84L189.442 87.9438L193.088 94.1774H200.137L193.524 82.6318L199.684 74.4119V74.4119Z" fill="#001C24"/>
<path d="M213.245 88.2792L212.933 88.4541C212.212 88.8278 211.406 89.0108 210.593 88.9853C209.099 88.9853 208.208 88.1153 208.208 86.6614V79.681H213.749V74.4119H208.208V68.0529H202.008V74.4119H201.959L198.027 79.681H202.007V86.7373C202.007 91.6336 205.016 94.5579 210.056 94.5579C211.667 94.5809 213.253 94.1622 214.638 93.3482L214.836 93.2305L213.245 88.2792Z" fill="#001C24"/>
<path d="M52.2678 53.0549C67.3066 53.0439 79.5068 65.0977 79.5179 79.9791C79.529 94.8604 67.3455 106.934 52.3089 106.945C37.2723 106.956 25.0687 94.9022 25.0576 80.0208V80C25.0521 65.1241 37.2345 53.0615 52.2678 53.0549" fill="#FF3366"/>
<path d="M52.2586 65.7576C60.2057 65.7521 66.6527 72.1225 66.6584 79.9864C66.6641 87.8502 60.2265 94.2298 52.2794 94.2357C44.3323 94.2416 37.885 87.8715 37.8789 80.0076V79.9977C37.8774 76.2225 39.3916 72.6012 42.0883 69.9307C44.7851 67.2601 48.4434 65.759 52.2586 65.7576" fill="#00ADDB"/>
<path fill-rule="evenodd" clip-rule="evenodd" d="M68.946 68.2508C71.4165 71.68 72.7413 75.7879 72.7349 79.9993C72.7418 84.1962 71.4259 88.2907 68.9704 91.7128L71.649 94.3655C70.2753 96.1784 68.6504 97.7908 66.822 99.1551L64.1468 96.5057C57.0439 101.518 47.5109 101.522 40.4033 96.5167L37.7269 99.1672C35.8982 97.8047 34.2722 96.1946 32.8966 94.3842L35.5752 91.7304C30.5341 84.6903 30.5435 75.2656 35.5985 68.2354L32.9089 65.5717C34.2851 63.7613 35.9123 62.1519 37.7425 60.7909L40.4399 63.4579C47.5331 58.4871 57.0255 58.492 64.1135 63.47L66.8054 60.8085C68.6337 62.1697 70.2593 63.7787 71.6346 65.5882L68.946 68.2508ZM52.2785 65.784C44.3387 65.7781 37.8967 72.141 37.8881 79.9977L37.8925 79.9988C37.8887 83.7742 39.4012 87.3962 42.0972 90.0677C44.7931 92.7391 48.4514 94.2408 52.2667 94.2423C60.2065 94.2429 66.6443 87.8757 66.6475 80.019C66.6508 72.1623 60.2184 65.7898 52.2785 65.784Z" fill="#FFD066"/>
<path d="M52.2588 73.2428C56.0314 73.2392 59.0926 76.2625 59.0963 79.9955C59.1 83.7286 56.0447 86.7578 52.2721 86.7615C48.4995 86.7651 45.4383 83.7418 45.4346 80.0087V80.0021C45.4337 78.2103 46.1522 76.4916 47.432 75.2239C48.7117 73.9563 50.448 73.2437 52.2588 73.2428V73.2428" fill="#FFD066"/>
</svg>
