<svg width="240" height="160" viewBox="0 0 240 160" fill="none" xmlns="http://www.w3.org/2000/svg">
<path d="M80.2409 79.3256C80.2409 84.4063 76.1331 88.5141 71.0524 88.5141C65.9717 88.5141 61.8639 84.4063 61.8639 79.3256C61.8639 74.245 65.9717 70.1372 71.0524 70.1372C76.1331 70.1372 80.2409 74.245 80.2409 79.3256ZM88.1754 92.8598C88.1754 92.8598 88.7808 92.1679 88.0889 91.5626L84.2622 88.2331C85.9918 85.6819 86.9863 82.6335 86.9863 79.3256C86.9863 70.5263 79.8517 63.4133 71.074 63.4133C62.2747 63.4133 55.1401 70.5263 55.1401 79.3256C55.1401 88.125 62.2747 95.2379 71.0524 95.2379C74.2738 95.2379 77.2573 94.265 79.7652 92.6436L83.9595 96.2973C83.9595 96.2973 84.6513 96.9027 85.2567 96.2108L88.1754 92.8598ZM98.8989 94.1353V64.4943C98.8989 63.4133 97.8179 63.4133 97.8179 63.4133H93.0399C91.9589 63.4133 91.9589 64.4943 91.9589 64.4943V94.1353C91.9589 95.2163 93.0399 95.2163 93.0399 95.2163H97.8179C98.8989 95.2379 98.8989 94.1353 98.8989 94.1353ZM110.617 67.4995V64.4295C110.617 64.4295 110.617 63.3917 109.579 63.3917H104.996C104.996 63.3917 103.958 63.3917 103.958 64.4295V67.4995C103.958 67.4995 103.958 68.5373 104.996 68.5373H109.579C109.579 68.5589 110.617 68.5589 110.617 67.4995ZM110.812 94.1353V72.7316C110.812 71.6506 109.731 71.6506 109.731 71.6506H105.061C103.98 71.6506 103.98 72.7316 103.98 72.7316V94.1353C103.98 95.2163 105.061 95.2163 105.061 95.2163H109.731C110.812 95.2379 110.812 94.1353 110.812 94.1353ZM130.875 81.012C130.313 80.0823 131.069 79.304 131.069 79.304L137.664 72.4721C138.42 71.6938 137.339 71.6938 137.339 71.6938H131.178C130.097 71.6938 129.34 72.4721 129.34 72.4721L123.221 78.9581C122.486 79.7364 122.486 78.6554 122.486 78.6554V64.4727C122.486 63.3917 121.405 63.3917 121.405 63.3917H116.735C115.698 63.3917 115.698 64.4295 115.698 64.4295V94.1137C115.698 95.1947 116.779 95.1947 116.779 95.1947H121.405C122.443 95.1947 122.443 94.1569 122.443 94.1569V88.9465C122.443 87.8655 123.243 87.1305 123.243 87.1305L125.427 85.0766L130.918 94.2867C131.48 95.2163 132.561 95.2163 132.561 95.2163H138.377C139.458 95.2163 138.896 94.2867 138.896 94.2867L130.875 81.012Z" fill="#54565B"/>
<path d="M174.634 79.1744C174.634 85.3793 169.618 90.3952 163.413 90.3952C157.208 90.3952 152.192 85.3577 152.192 79.1744C152.192 72.9695 157.208 67.9536 163.413 67.9536C169.596 67.932 174.634 72.9695 174.634 79.1744ZM183.974 93.2058L178.85 88.925C180.622 86.1144 181.66 82.7633 181.66 79.1744C181.66 69.0779 173.488 60.9055 163.391 60.9055C153.295 60.9055 145.122 69.0779 145.122 79.1744C145.122 89.2709 153.295 97.4433 163.391 97.4433C167.304 97.4433 170.937 96.2109 173.899 94.1138L179.347 98.6972C179.347 98.6972 180.168 99.3675 180.839 98.5675L184.082 94.6975C184.103 94.6975 184.773 93.876 183.974 93.2058Z" fill="#009C4D"/>
<path d="M156.192 79.1744C156.192 75.1963 159.413 71.975 163.391 71.975C167.369 71.975 170.591 75.1963 170.591 79.1744C170.591 83.1525 167.369 86.3739 163.391 86.3739C159.435 86.3523 156.192 83.1309 156.192 79.1744Z" fill="#54565B"/>
<path d="M182.417 66.1807H182.957C183.282 66.1807 183.498 66.1159 183.498 65.7483C183.498 65.424 183.26 65.3159 182.957 65.3159H182.417V66.1807ZM182.417 67.4996H182.157V65.0565H183.044C183.455 65.0565 183.779 65.2727 183.779 65.7267C183.779 66.1159 183.563 66.3753 183.195 66.3969L183.865 67.4779H183.541L182.893 66.3969H182.395V67.4996H182.417ZM182.871 64.5592C181.92 64.5592 181.206 65.3159 181.206 66.2888C181.206 67.2617 181.92 68.0184 182.871 68.0184C183.822 68.0184 184.536 67.2617 184.536 66.2888C184.536 65.3376 183.822 64.5592 182.871 64.5592ZM180.882 66.2888C180.882 65.1862 181.79 64.2998 182.871 64.2998C183.974 64.2998 184.86 65.2078 184.86 66.2888C184.86 67.3698 183.974 68.2779 182.871 68.2779C181.79 68.2779 180.882 67.3698 180.882 66.2888Z" fill="#4A4D4D"/>
</svg>
