<svg width="240" height="160" viewBox="0 0 240 160" fill="none" xmlns="http://www.w3.org/2000/svg">
<g clip-path="url(#clip0_128_86844)">
<path d="M57.3375 100.931C66.7438 100.931 72.3823 96.354 72.3823 88.982C72.3823 83.5285 68.3667 79.774 60.6105 77.6912L56.8424 76.6772C51.259 75.1974 49.5262 73.3064 49.5262 70.6755C49.5262 67.2773 52.6617 65.4686 56.7323 65.4686C61.1879 65.4686 63.8008 67.7158 63.9934 71.3606H71.3096C71.2271 64.0435 65.2311 59.3024 56.7323 59.3024C48.6185 59.3024 42.2101 63.6872 42.2101 70.9768C42.2101 76.4304 45.6206 80.4316 52.4417 82.2128L56.2372 83.1994C62.6732 84.8711 65.0385 86.7347 65.0385 89.5026C65.0385 93.0652 61.6005 94.7643 57.3373 94.7643C52.3041 94.7643 48.5911 92.1609 48.316 87.7762H41C41.3025 95.9429 47.766 100.931 57.3375 100.931Z" fill="black"/>
<path d="M192.344 87.9407L199 56.699L190.859 55L184.203 86.2142L192.344 87.9407Z" fill="#FF620F"/>
<path d="M191.601 104C194.599 104 197.074 101.725 197.074 98.656C197.074 95.5866 194.626 93.2847 191.601 93.2847C188.576 93.2847 186.155 95.5867 186.155 98.656C186.155 101.725 188.603 104 191.601 104Z" fill="#FF620F"/>
<path d="M170.368 79.7467V78.8149C175.126 77.6912 177.409 74.5124 177.409 70.2919C177.409 64.537 173.311 60.0699 163.107 60.0699H148.337V100.163H164.51C175.347 100.163 179.28 95.2578 179.28 89.2836C179.28 84.1314 176.282 80.8429 170.368 79.7467ZM155.406 66.236H163.575C167.92 66.236 170.286 67.8804 170.286 71.3333C170.286 74.7862 167.92 76.5951 163.575 76.5951H155.406V66.236ZM164.812 93.9973H155.406V82.7064H164.812C169.708 82.7064 172.156 84.8441 172.156 88.297C172.156 91.7499 169.708 93.9973 164.812 93.9973Z" fill="black"/>
<path d="M98.5768 79.7467V78.8149C103.335 77.6912 105.618 74.5124 105.618 70.2919C105.618 64.537 101.52 60.0699 91.3157 60.0699H76.5459V100.163H92.7184C103.555 100.163 107.488 95.2578 107.488 89.2836C107.488 84.1314 104.49 80.8429 98.5768 79.7467ZM83.7796 66.236H91.9482C96.2939 66.236 98.6592 67.8804 98.6592 71.3333C98.6592 74.7862 96.2938 76.5951 91.9482 76.5951H83.7796V66.236ZM93.1859 93.9973H83.7796V82.7064H93.1859C98.0816 82.7064 100.53 84.8441 100.53 88.297C100.53 91.7499 98.0817 93.9973 93.1859 93.9973Z" fill="black"/>
<path d="M137.991 100.163H145.912L131.362 60.0699H122.286L107.626 100.163H115.162L118.78 89.9139H134.419L137.991 100.163ZM120.84 84.0767L126.054 69.3055H127.236L132.384 84.0767H120.84Z" fill="black"/>
</g>
<defs>
<clipPath id="clip0_128_86844">
<rect width="158" height="49" fill="white" transform="translate(41 55)"/>
</clipPath>
</defs>
</svg>
