<svg width="240" height="160" viewBox="0 0 240 160" fill="none" xmlns="http://www.w3.org/2000/svg">
<path d="M87.8836 65.4286L80.4056 70.9663C76.8682 67.9425 72.3228 67.3595 69.8118 67.3595C67.2642 67.3595 64.6249 68.0882 64.2217 69.8916C63.8184 71.6403 65.468 73.0065 68.2906 73.7716C71.5164 74.6278 74.4306 75.3928 78.9577 76.668C85.6659 78.5807 90.2663 81.4588 90.2663 88.1441C90.2663 97.3615 82.0369 102.152 70.9848 102.152C59.9512 102.152 52.4182 96.4324 50.1821 93.7729L58.0817 87.9073C63.6352 92.7164 67.4841 93.3903 70.7099 93.3903C74.4122 93.3903 77.8763 92.6071 78.3162 90.5304C78.6828 88.8545 77.2898 87.5248 74.1373 86.7961C70.5633 85.9764 67.5574 85.3206 64.2033 84.4462C55.0941 82.0782 52.5282 76.8137 52.5282 72.0957C52.5282 65.5926 58.6315 58.9073 69.7752 58.9073C81.1937 58.9255 87.8836 65.4286 87.8836 65.4286ZM135.519 59.5813H102.198V100.95H136.124V91.4048H113.91V84.7377H129.214V75.6114H113.91V69.0172H135.519V59.5813ZM93.5837 110.513H96.168V50.0178H93.5837V110.513ZM140.504 110.513H143.089V50.0178H140.504V110.513ZM149.1 100.95H175.86C183.008 100.95 188.818 96.6692 188.818 89.8018C188.818 84.4462 185.299 80.8941 180.35 79.3275C180.35 79.3275 180.149 79.2729 179.874 79.2729C180.149 79.2547 180.35 79.1818 180.35 79.1818C183.173 78.0706 186.325 75.1014 186.325 70.0555C186.325 63.6435 180.625 59.5631 173.587 59.5631H149.1V100.95ZM160.867 68.1793H170.215C172.359 68.1793 174.1 69.8734 174.1 71.8043C174.1 73.7534 172.359 75.4475 170.215 75.4475H160.867V68.1793ZM172.286 91.7691H160.849V84.2276H172.286C174.302 84.2276 175.951 85.8489 175.951 87.9984C175.951 90.1297 174.32 91.7691 172.286 91.7691Z" fill="black"/>
</svg>
