<svg width="240" height="160" viewBox="0 0 240 160" fill="none" xmlns="http://www.w3.org/2000/svg">
<path fill-rule="evenodd" clip-rule="evenodd" d="M40.2493 90.5492C39.3866 90.5609 38.5259 90.462 37.6883 90.255C37.0062 90.0839 36.3777 89.7451 35.8598 89.2694C35.3159 88.746 34.9018 88.1027 34.6506 87.3909C34.3564 86.5965 34.199 85.5536 34.199 84.2929V62.5671H39.4256V68.4513H44.8346V72.7379H39.4256V83.2499C39.4256 85.1108 40.4023 86.1361 42.1749 86.1361C43.055 86.1385 43.9277 85.9758 44.7478 85.6565V89.4886C43.364 90.222 41.815 90.5872 40.2493 90.5492ZM72.7387 97.4327C71.2778 97.4516 69.8245 97.2177 68.4433 96.7413C67.2539 96.3295 66.1629 95.6754 65.2394 94.8201C64.3765 94.004 63.6922 93.0177 63.2299 91.9237C62.7493 90.7579 62.5096 89.5069 62.5253 88.2461V88.1593C62.5253 86.8589 62.7372 85.7453 63.1564 84.848C63.5479 83.9872 64.118 83.2194 64.829 82.5958C65.5416 81.9843 66.3542 81.5001 67.2312 81.1645C68.1577 80.8084 69.1177 80.5467 70.0967 80.3834L71.3765 80.1701L63.0005 72.2132V68.162H82.0504V72.5751H69.3333L77.346 80.5982L76.5237 83.9418H74.2848C72.3092 83.9418 70.7337 84.3066 69.6025 85.026C68.3786 85.8042 67.7578 86.9383 67.7578 88.3917V88.477C67.7578 89.7833 68.2329 90.8425 69.1715 91.6236C70.0747 92.3753 71.2471 92.7563 72.6549 92.7563C74.3039 92.7563 75.7588 92.4194 76.9783 91.753C78.0805 91.1357 79.0801 90.3505 79.9409 89.4258L83.567 92.8872C82.3773 94.1911 80.9576 95.2648 79.379 96.0543C77.5755 96.9708 75.341 97.4327 72.7387 97.4327ZM88.9892 90.2555C89.8268 90.4625 90.6875 90.5613 91.5502 90.5497V90.5526C93.1181 90.5907 94.6693 90.2244 96.0546 89.4891V85.657C95.2345 85.9763 94.3618 86.139 93.4817 86.1366C91.7091 86.1366 90.7323 85.1112 90.7323 83.2504V72.7384H96.1428V68.4518H90.7338V62.5676H85.5013V84.2933C85.5013 85.554 85.6587 86.597 85.9529 87.3914C86.2041 88.1029 86.6176 88.7461 87.1607 89.2699C87.6786 89.7455 88.3071 90.0843 88.9892 90.2555ZM105.625 90.5497C104.762 90.5613 103.902 90.4625 103.064 90.2555C102.382 90.0843 101.754 89.7455 101.236 89.2699C100.693 88.7461 100.279 88.1029 100.028 87.3914C99.7337 86.597 99.5763 85.554 99.5763 84.2934V62.5676H104.809V68.4518H110.218V72.7384H104.807V83.2504C104.807 85.1112 105.784 86.1366 107.557 86.1366C108.435 86.1373 109.306 85.9736 110.124 85.6541V89.4861C109.546 89.7875 108.939 90.0304 108.313 90.2113C107.437 90.4493 106.532 90.5632 105.625 90.5497ZM119.868 89.7967C121.361 90.3916 122.955 90.6913 124.562 90.6793C126.184 90.6999 127.795 90.3989 129.3 89.7937C130.693 89.2262 131.964 88.3979 133.045 87.3533C134.097 86.3276 134.939 85.1064 135.523 83.7581C136.12 82.3692 136.423 80.8715 136.413 79.3597V79.2729C136.423 77.761 136.12 76.2634 135.523 74.8745C134.945 73.5348 134.111 72.321 133.067 71.3013C131.995 70.2684 130.731 69.4545 129.347 68.905C127.855 68.3098 126.261 68.0101 124.655 68.0224C123.034 68.0053 121.425 68.3093 119.922 68.9168C118.53 69.4852 117.259 70.314 116.177 71.3587C115.125 72.3836 114.283 73.6044 113.7 74.9524C113.102 76.3417 112.798 77.8398 112.808 79.3523V79.4376C112.798 80.9501 113.102 82.4483 113.7 83.8375C114.277 85.1769 115.111 86.3903 116.155 87.4092C117.226 88.4382 118.487 89.2491 119.868 89.7967ZM121.786 72.8989C122.662 72.521 123.608 72.3335 124.562 72.3487V72.3502C125.497 72.3424 126.423 72.5387 127.274 72.9254C128.897 73.6682 130.159 75.024 130.784 76.6956C131.1 77.5426 131.259 78.4397 131.255 79.3435V79.4288C131.262 80.3303 131.113 81.2261 130.814 82.0767C130.526 82.8904 130.082 83.64 129.506 84.2832C128.925 84.9258 128.216 85.4395 127.424 85.791C126.551 86.17 125.607 86.3585 124.655 86.3441C123.709 86.357 122.772 86.16 121.911 85.7675C120.302 85.0144 119.051 83.6618 118.426 81.9987C118.11 81.1518 117.95 80.2547 117.954 79.3508V79.264C117.947 78.3625 118.096 77.4666 118.395 76.6162C118.683 75.8024 119.127 75.0528 119.703 74.4096C120.285 73.7664 120.994 73.2519 121.786 72.8989ZM172.299 97.4324C169.696 97.4324 167.463 96.969 165.658 96.054C164.081 95.2648 162.661 94.1922 161.472 92.8898L165.099 89.4284C165.96 90.3534 166.961 91.1385 168.063 91.7556C169.281 92.4205 170.736 92.7574 172.385 92.7574C173.793 92.7574 174.964 92.3764 175.867 91.6247C176.806 90.8436 177.281 89.7859 177.281 88.4781V88.3928C177.281 86.938 176.66 85.8053 175.436 85.0271C174.304 84.3078 172.73 83.9429 170.754 83.9429H168.514L167.691 80.5993L175.704 72.5762H162.987V68.1631H182.038V72.2173L173.661 80.1742L174.941 80.3874C175.92 80.5507 176.881 80.8124 177.808 81.1686C178.685 81.5039 179.497 81.9881 180.21 82.5999C180.921 83.2235 181.492 83.9911 181.884 84.852C182.302 85.7494 182.513 86.863 182.513 88.1619V88.2487C182.529 89.5095 182.29 90.7606 181.809 91.9263C181.346 93.0204 180.661 94.0067 179.798 94.8227C178.875 95.6777 177.784 96.3319 176.595 96.7439C175.214 97.2194 173.76 97.4523 172.299 97.4324ZM200.032 72.5781L186.595 96.9164H192.583L205.801 72.3309V68.162H185.46V72.5781H200.032ZM149.695 68.0071H139.839V90.1639H145.071V73.4191H149.842C151.063 73.4191 152.163 73.8412 152.86 74.5782C154.312 76.114 154.312 79.593 154.312 82.31V90.1624H159.55V77.8631C159.55 69.2884 153.372 68.0071 149.695 68.0071ZM48.2681 68.0195H54.748L60.2717 73.552H53.5005V90.163H48.2681V68.0195Z" fill="#80C565"/>
</svg>
