<svg width="307" height="161" viewBox="0 0 307 161" fill="none" xmlns="http://www.w3.org/2000/svg">
<path fill-rule="evenodd" clip-rule="evenodd" d="M178.065 79.9859C178.094 84.3565 180.86 88.6162 186.363 88.6162C191.897 88.6162 194.69 84.3565 194.69 79.9859C194.69 75.5043 191.925 71.3827 186.363 71.3827C180.805 71.3827 178.038 75.4217 178.065 79.9859ZM196.129 80.0136C196.101 85.1033 192.865 90 186.363 90C179.863 90 176.599 85.0761 176.599 79.9581C176.599 74.7577 179.836 70 186.363 70C192.892 70 196.156 74.7854 196.129 80.0136ZM35.1104 86.5339H38.0147V73.5876H35V70.268H41.6391V86.5339H44.3223V89.6322H35.1104V86.5339ZM82.5786 86.036H93.4497V81.6654H82.9662V78.2627H93.4497V73.8094H82.5786V70.268H97.0737V89.6322H82.5786V86.036ZM66.7206 86.036H55.8488V89.6322H70.3444V70.268H55.8488V73.8094H66.7206V78.2627H56.2364V81.6654H66.7206V86.036ZM110.027 89.6316L117.939 73.7534H108.506V70.268H122.725L122.918 72.2045L114.232 89.6316H110.027ZM151.836 70.268H151.007L145.06 87.9718L139.084 70.268H137.507L144.285 89.6876H145.889L148.988 80.5583L151.422 72.9513L153.857 80.6143L156.927 89.6876H158.531L165.364 70.268H163.759L157.757 87.9718L151.836 70.268ZM217.497 80.8904H210.638V71.6513H217.663C220.872 71.6513 222.422 74.0024 222.395 76.2709C222.366 78.981 220.872 80.8904 217.497 80.8904ZM222.616 89.6316H224.58L217.747 82.2181C221.979 82.2181 224.054 79.4518 224.026 76.2985C223.998 73.2833 221.869 70.268 217.663 70.268H209.143V89.6316H210.638V82.3013H215.922L222.616 89.6316ZM272.262 74.0114C270.851 71.743 268.584 71.4109 266.399 71.3832C264.13 71.3832 260.534 72.213 260.534 75.3115C260.534 77.7734 263.188 78.3544 266.454 78.9631L266.664 79.0036C270.332 79.7082 274.06 80.4247 274.06 84.5234C274.033 88.894 269.634 89.9451 266.399 89.9451C263.382 89.9451 259.952 88.7 258.459 85.7403L259.786 85.0767C260.976 87.4278 264.019 88.5897 266.399 88.5897C268.777 88.5897 272.567 87.9256 272.567 84.4957C272.594 81.5907 269.385 80.9543 266.205 80.3463C262.664 79.6544 259.039 78.9353 259.039 75.3669C258.957 71.2729 263.217 70 266.399 70C269.164 70 271.57 70.443 273.48 73.2924L272.262 74.0114ZM247.374 70.4061L237.874 80.2443L248.26 89.5207V89.6316H246.378L236.407 80.7976V79.8014L245.576 70.268H247.374V70.4061Z" fill="white"/>
</svg>
