<svg width="240" height="160" viewBox="0 0 240 160" fill="none" xmlns="http://www.w3.org/2000/svg">
<path d="M168.216 62.4061C167.722 61.9121 167.369 61.5592 167.221 61.4116C166.266 60.4557 165.117 59.6474 162.91 59.6409H162.864C160.663 59.6474 159.515 60.4557 158.559 61.4116C158.251 61.726 157.038 62.9321 155.543 64.427C159.989 63.8175 164.217 63.1374 168.214 62.4061H168.216ZM80.5327 64.5232C78.9929 62.9834 77.742 61.7324 77.4212 61.4116C76.4653 60.4557 75.3168 59.6474 73.1099 59.6409H73.0726C70.8657 59.6474 69.7173 60.4557 68.7614 61.4116C68.6138 61.5656 68.2481 61.9249 67.7413 62.4317C71.751 63.1888 76.0174 63.8944 80.534 64.5232H80.5327ZM208.005 52V52.9431C204.335 54.2839 192.056 58.5375 174.118 62.1687C176.19 64.2409 180.732 68.7895 180.732 68.7895C180.732 68.7895 180.905 68.9307 180.905 69.1937C180.905 69.4632 180.732 69.6043 180.732 69.6043L178.48 71.8562C178.48 71.8562 178.339 72.023 178.07 72.023C177.807 72.023 177.666 71.8562 177.666 71.8562C177.666 71.8562 171.988 66.1784 168.973 63.1631C164.45 63.9971 159.619 64.7798 154.518 65.4534C151.567 68.4046 148.116 71.8562 148.116 71.8562C148.116 71.8562 147.974 72.023 147.711 72.023C147.442 72.023 147.301 71.8562 147.301 71.8562L145.049 69.6043C145.049 69.6043 144.876 69.4631 144.876 69.1937C144.876 68.9307 145.049 68.7895 145.049 68.7895L147.538 66.2939C141.161 66.9868 134.431 67.5 127.413 67.7566V81.4025C127.413 81.4025 127.431 81.6206 127.246 81.8131C127.06 81.9991 126.835 81.9799 126.835 81.9799H123.647C123.647 81.9799 123.428 81.999 123.243 81.8131C123.05 81.6271 123.069 81.4025 123.069 81.4025V70.9772C123.069 70.124 123.116 69.059 123.326 67.8785C121.376 67.9232 119.406 67.9427 117.417 67.9427C110.7 67.9427 104.272 67.6925 98.1833 67.2562V71.5161C98.1833 72.8698 98.4208 74.2556 99.9733 75.8146L100.006 75.8467C101.565 77.3993 102.957 77.6431 104.304 77.6431H119.073C119.073 77.6431 119.297 77.624 119.484 77.8099C119.67 77.9959 119.657 78.2204 119.657 78.2204V81.4026C119.657 81.4026 119.671 81.6271 119.484 81.8131C119.297 81.9992 119.073 81.9799 119.073 81.9799H108.654C106.178 81.9799 102.027 81.6784 98.0876 77.7649L98.0643 77.7328C94.1508 73.8001 93.8429 69.6492 93.8429 67.1728V66.9097C92.0465 66.7558 90.2759 66.5825 88.5501 66.3965L90.9366 68.7895C90.9366 68.7895 91.1098 68.9306 91.1098 69.1937C91.1098 69.4632 90.9366 69.6043 90.9366 69.6043L88.6848 71.8561C88.6848 71.8561 88.5437 72.0229 88.2741 72.0229C88.0111 72.0229 87.87 71.8561 87.87 71.8561C87.87 71.8561 84.4955 68.4816 81.57 65.5561C76.3092 64.8568 71.427 64.0484 66.9746 63.2015C63.9529 66.2233 58.3199 71.8561 58.3199 71.8561C58.3199 71.8561 58.1789 72.0229 57.9159 72.0229C57.6463 72.0229 57.5052 71.8561 57.5052 71.8561L55.2534 69.6043C55.2534 69.6043 55.0802 69.4631 55.0802 69.1937C55.0802 68.9306 55.2534 68.7895 55.2534 68.7895L61.8614 62.1751C58.7819 61.5207 55.9527 60.8663 53.3993 60.2311C42.3966 57.4917 34.6658 54.7202 31.1437 53.3665V52.4106C35.2753 54.0145 46.3807 57.9985 62.6313 61.4116C64.3827 59.6601 67.5328 56.9464 73.0758 56.9335H73.1131C78.6689 56.9466 81.819 59.6666 83.564 61.418C84.2055 62.0531 85.9249 63.7789 87.5481 65.3957C89.601 65.6266 91.7053 65.8383 93.8417 66.0244V56.7475C93.8417 56.7475 93.8231 56.523 94.0084 56.3369C94.2007 56.1509 94.419 56.1701 94.419 56.1701H97.6076C97.6076 56.1701 97.8259 56.151 98.0116 56.3434C98.2039 56.5294 98.1848 56.7476 98.1848 56.7476V66.3709C104.299 66.8136 110.721 67.0638 117.419 67.0638C119.472 67.0638 121.499 67.0382 123.513 66.9932C124.007 64.9659 125.066 62.6563 127.292 60.4173L127.325 60.3916C131.258 56.4717 135.408 56.1702 137.885 56.1702H148.31C148.31 56.1702 148.528 56.1511 148.721 56.337C148.907 56.5231 148.887 56.7476 148.887 56.7476V59.9298C148.887 59.9298 148.906 60.1543 148.714 60.3403C148.528 60.5264 148.31 60.5071 148.31 60.5071H133.535C132.188 60.5071 130.802 60.7509 129.243 62.3035L129.211 62.3356C127.658 63.8946 127.414 65.2868 127.414 66.6341V66.8779C134.805 66.6084 141.868 66.0503 148.534 65.2996C150.125 63.7086 151.793 62.0405 152.422 61.4182C154.167 59.6668 157.317 56.9466 162.867 56.9337H162.913C168.469 56.9468 171.613 59.6668 173.364 61.4182L173.369 61.4247C192.115 57.6652 204.766 53.2 208.006 52.0003L208.005 52ZM162.436 90.7375C161.243 89.5442 160.319 88.6203 160.056 88.3573C159.1 87.4014 157.952 86.593 155.745 86.5866H155.698C153.498 86.5931 152.343 87.4014 151.394 88.3573C151.124 88.6203 150.2 89.5442 149.007 90.7375H162.436ZM85.8282 90.7375C84.6349 89.5442 83.711 88.6203 83.4416 88.3573C82.4921 87.4014 81.3373 86.593 79.1368 86.5866H79.0902C76.8897 86.5931 75.7348 87.4014 74.7853 88.3573C74.5158 88.6203 73.5921 89.5442 72.3988 90.7375H85.8282ZM181.484 90.7375H208.006V91.6164H181.484V98.3976C181.484 99.7449 181.722 101.131 183.274 102.696L183.311 102.722C184.87 104.274 186.256 104.518 187.603 104.518H202.372C202.372 104.518 202.596 104.499 202.783 104.685C202.969 104.877 202.956 105.095 202.956 105.095V108.284C202.956 108.284 202.974 108.502 202.783 108.688C202.596 108.881 202.379 108.861 202.379 108.861H191.953C189.477 108.861 185.326 108.553 181.393 104.64L181.361 104.608C177.447 100.675 177.139 96.5242 177.139 94.0478V91.6161H169.453C171.455 93.6178 173.566 95.7285 173.566 95.7285C173.566 95.7285 173.739 95.876 173.739 96.1391C173.739 96.4021 173.566 96.5496 173.566 96.5496L171.314 98.8015C171.314 98.8015 171.166 98.9683 170.903 98.9683C170.64 98.9683 170.493 98.7951 170.493 98.7951L163.32 91.6161H148.128C145.048 94.7019 140.949 98.7951 140.949 98.7951C140.949 98.7951 140.808 98.9683 140.538 98.9683C140.275 98.9683 140.128 98.8015 140.128 98.8015L137.876 96.5496C137.876 96.5496 137.709 96.4021 137.709 96.1391C137.709 95.876 137.876 95.7285 137.876 95.7285C137.876 95.7285 139.987 93.6178 141.988 91.6161H92.845C94.8467 93.6178 96.9574 95.7285 96.9574 95.7285C96.9574 95.7285 97.1241 95.876 97.1241 96.1391C97.1241 96.4021 96.9574 96.5496 96.9574 96.5496L94.7056 98.8015C94.7056 98.8015 94.5579 98.9683 94.2949 98.9683C94.0253 98.9683 93.8843 98.7951 93.8843 98.7951C93.8843 98.7951 89.7848 94.7019 86.7053 91.6161H71.5197C68.4338 94.7019 64.3407 98.7951 64.3407 98.7951C64.3407 98.7951 64.193 98.9683 63.93 98.9683C63.667 98.9683 63.5194 98.8015 63.5194 98.8015L61.2675 96.5496C61.2675 96.5496 61.1009 96.4021 61.1009 96.1391C61.1009 95.876 61.2675 95.7285 61.2675 95.7285C61.2675 95.7285 63.3782 93.6178 65.3799 91.6161H49.4821V98.3974C49.4821 99.7446 49.7261 101.13 51.2785 102.696L51.3111 102.721C52.8765 104.274 54.2623 104.518 55.6095 104.518H70.3782C70.3782 104.518 70.6025 104.499 70.7888 104.685C70.975 104.877 70.9554 105.095 70.9554 105.095V108.284C70.9554 108.284 70.9741 108.502 70.7888 108.688C70.6025 108.88 70.3847 108.861 70.3847 108.861H59.953C57.483 108.861 53.3321 108.553 49.393 104.64L49.3604 104.608C45.4469 100.675 45.1454 96.5239 45.1454 94.0475V91.616H31.1401V90.7371H45.1454V83.6222C45.1454 83.6222 45.1267 83.4041 45.312 83.2117C45.4982 83.0256 45.7226 83.0449 45.7226 83.0449H48.9112C48.9112 83.0449 49.1295 83.0318 49.3153 83.2181C49.5015 83.4041 49.482 83.6286 49.482 83.6286V90.7371H66.2586C67.3044 89.6978 68.2154 88.7868 68.6389 88.3569C70.3903 86.6055 73.5404 83.8917 79.0898 83.8725H79.1363C84.6858 83.8915 87.8359 86.6055 89.5873 88.3569C90.011 88.7868 90.9218 89.6978 91.9675 90.7371H142.875C143.914 89.6978 144.825 88.7868 145.249 88.3569C147 86.6055 150.15 83.8917 155.7 83.8725H155.746C161.296 83.8915 164.446 86.6055 166.197 88.3569C166.621 88.7868 167.538 89.6978 168.577 90.7371H177.142V83.6222C177.142 83.6222 177.124 83.4041 177.309 83.2117C177.501 83.0256 177.719 83.0449 177.719 83.0449H180.908C180.908 83.0449 181.126 83.0318 181.319 83.2181C181.505 83.4041 181.485 83.6287 181.485 83.6287L181.484 90.7375ZM135.433 96.5885C135.433 96.8579 135.267 96.999 135.267 96.999C135.267 96.999 129.217 103.043 127.895 104.371C126.137 106.122 122.994 108.842 117.438 108.855H117.401C111.845 108.842 108.695 106.122 106.95 104.371C105.622 103.043 99.5782 96.999 99.5782 96.999C99.5782 96.999 99.405 96.8579 99.405 96.5885C99.405 96.3254 99.5782 96.1843 99.5782 96.1843L101.83 93.9324C101.83 93.9324 101.971 93.7592 102.241 93.7592C102.504 93.7592 102.645 93.9324 102.645 93.9324C102.645 93.9324 112.133 103.415 113.089 104.377C114.045 105.326 115.194 106.141 117.4 106.148V106.141H117.438V106.148C119.645 106.141 120.793 105.326 121.749 104.377C122.711 103.415 132.194 93.9324 132.194 93.9324C132.194 93.9324 132.335 93.7592 132.598 93.7592C132.867 93.7592 133.008 93.9324 133.008 93.9324L135.267 96.1843C135.267 96.1843 135.433 96.3254 135.433 96.5885" fill="#1C3A85"/>
</svg>
