<svg width="240" height="160" viewBox="0 0 240 160" fill="none" xmlns="http://www.w3.org/2000/svg">
<path d="M89.2195 62.0802V66.49H99.9084V97.7595H104.409V66.49H115.098V62.0802H89.2195Z" fill="#656F75"/>
<path d="M79.9771 77.5546H65.4305H64.225L64.868 76.1915C64.868 76.1915 68.9667 66.5702 75.9587 66.5702H79.8967L79.9771 77.5546ZM76.039 62.0802C66.1539 62.0802 61.1711 73.5457 60.7692 74.4276C60.7692 74.5078 52.1699 92.9488 50 97.6793H54.9828L62.2158 82.1247H80.0574C80.0574 87.9777 80.0574 94.0713 80.0574 97.6793H84.558V62L76.039 62.0802Z" fill="#656F75"/>
<path d="M159.782 66.2495H163.72C170.792 66.2495 174.81 75.8709 174.81 75.8709L175.453 77.2339H174.248H159.701L159.782 66.2495ZM155.442 62.0802V97.7595H159.942V82.1248H177.784L185.017 97.6793H190C187.83 92.9488 179.231 74.4276 179.231 74.4276C178.829 73.4655 173.926 62.0802 163.961 62.0802H155.442V62.0802Z" fill="#656F75"/>
<path fill-rule="evenodd" clip-rule="evenodd" d="M133.1 62.0802C123.054 62.0802 114.937 70.098 114.937 80.0401C114.937 89.9822 123.054 98 133.1 98C138.083 98 143.065 95.7551 146.521 91.9867C146.843 91.5858 147.084 91.0245 147.084 90.4633C147.084 89.2606 146.039 88.2183 144.753 88.2183C144.11 88.2183 143.467 88.4588 143.065 88.9399C140.413 91.7461 136.716 93.4299 133.1 93.4299C125.626 93.4299 119.518 87.4165 119.518 80.0401C119.518 72.6637 125.626 66.6504 133.1 66.6504C136.716 66.6504 140.413 68.3341 143.065 71.1403C143.467 71.6214 144.11 71.8619 144.753 71.8619C146.039 71.8619 147.084 70.8998 147.084 69.617C147.084 69.0557 146.923 68.4945 146.521 68.0936C143.065 64.4054 138.083 62.0802 133.1 62.0802ZM126.831 76.7528H144.914C146.28 76.7528 147.405 77.8753 147.405 79.1582C147.405 80.5212 146.28 81.5635 144.914 81.5635H144.834H126.912H126.831C125.465 81.5635 124.34 80.5212 124.34 79.1582C124.34 77.7951 125.465 76.7528 126.831 76.7528Z" fill="#63B91B"/>
</svg>
