<svg width="206" height="161" viewBox="0 0 206 161" fill="none" xmlns="http://www.w3.org/2000/svg">
<path d="M72.219 63.0801V67.4899H82.9081V98.7593H87.4087V67.4899H98.0978V63.0801H72.219Z" fill="white"/>
<path d="M62.977 78.5546H48.4306H47.225L47.8679 77.1916C47.8679 77.1916 51.9667 67.5702 58.9587 67.5702H62.8966L62.977 78.5546ZM59.039 63.0802C49.1538 63.0802 44.171 74.5457 43.7692 75.4277C43.7692 75.5079 35.1699 93.9489 33 98.6792H37.9828L45.2158 83.1248H63.0574C63.0574 88.9779 63.0574 95.0714 63.0574 98.6792H67.558V63L59.039 63.0802Z" fill="white"/>
<path d="M142.782 67.2494H146.72C153.792 67.2494 157.81 76.8708 157.81 76.8708L158.454 78.2338H157.248H142.702L142.782 67.2494ZM138.442 63.0801V98.7593H142.942V83.1247H160.784L168.017 98.6791H173C170.83 93.9488 162.231 75.4276 162.231 75.4276C161.829 74.4654 156.926 63.0801 146.961 63.0801H138.442Z" fill="white"/>
<path fill-rule="evenodd" clip-rule="evenodd" d="M116.1 63.0801C106.054 63.0801 97.9365 71.0979 97.9365 81.0401C97.9365 90.9822 106.054 98.9998 116.1 98.9998C121.083 98.9998 126.066 96.7551 129.521 92.9867C129.842 92.5858 130.084 92.0245 130.084 91.4633C130.084 90.2606 129.039 89.2183 127.753 89.2183C127.11 89.2183 126.468 89.4588 126.066 89.9399C123.413 92.7461 119.717 94.4299 116.1 94.4299C108.626 94.4299 102.517 88.4165 102.517 81.0401C102.517 73.6636 108.626 67.6503 116.1 67.6503C119.717 67.6503 123.413 69.334 126.066 72.1403C126.468 72.6213 127.11 72.8619 127.753 72.8619C129.039 72.8619 130.084 71.8997 130.084 70.6169C130.084 70.0556 129.923 69.4944 129.521 69.0935C126.066 65.4053 121.083 63.0801 116.1 63.0801ZM109.831 77.7527H127.914C129.28 77.7527 130.405 78.8752 130.405 80.1581C130.405 81.5211 129.28 82.5635 127.914 82.5635H127.834H109.912H109.831C108.465 82.5635 107.34 81.5211 107.34 80.1581C107.34 78.7951 108.465 77.7527 109.831 77.7527Z" fill="white" fill-opacity="0.8"/>
</svg>
