<svg width="230" height="161" viewBox="0 0 230 161" fill="none" xmlns="http://www.w3.org/2000/svg">
<g clip-path="url(#clip0_129_86942)">
<path d="M54.8738 55C50.5475 55 46.3184 56.2829 42.7212 58.6866C39.124 61.0902 36.3204 64.5066 34.6648 68.5037C33.0092 72.5008 32.576 76.8992 33.42 81.1425C34.264 85.3858 36.3473 89.2836 39.4065 92.3428C42.4656 95.4021 46.3632 97.4855 50.6063 98.3295C54.8495 99.1736 59.2476 98.7403 63.2446 97.0847C67.2415 95.429 70.6578 92.6252 73.0613 89.0279C75.4648 85.4306 76.7477 81.2013 76.7477 76.8748C76.7411 71.0753 74.4345 65.5151 70.3337 61.4142C66.233 57.3133 60.6731 55.0066 54.8738 55V55ZM54.8738 94.739C51.3407 94.739 47.887 93.6913 44.9494 91.7284C42.0117 89.7655 39.7221 86.9755 38.37 83.7113C37.018 80.447 36.6642 76.8551 37.3534 73.3898C38.0427 69.9245 39.744 66.7414 42.2422 64.243C44.7405 61.7447 47.9234 60.0432 51.3886 59.3539C54.8538 58.6646 58.4455 59.0184 61.7096 60.3705C64.9737 61.7226 67.7636 64.0123 69.7265 66.95C71.6894 69.8878 72.737 73.3416 72.737 76.8748C72.7317 81.611 70.8479 86.1517 67.4991 89.5007C64.1502 92.8498 59.6098 94.7336 54.8738 94.739V94.739Z" fill="white" fill-opacity="0.64"/>
<path d="M54.8739 62.9409C52.1181 62.9409 49.4243 63.7581 47.1329 65.2892C44.8416 66.8203 43.0557 68.9964 42.0011 71.5425C40.9465 74.0886 40.6706 76.8903 41.2082 79.5932C41.7458 82.2962 43.0728 84.779 45.0215 86.7277C46.9701 88.6764 49.4528 90.0034 52.1556 90.5411C54.8584 91.0787 57.6599 90.8028 60.2059 89.7481C62.7519 88.6935 64.928 86.9075 66.459 84.6161C67.99 82.3247 68.8072 79.6307 68.8072 76.8748C68.803 73.1806 67.3337 69.6389 64.7216 67.0267C62.1095 64.4145 58.568 62.9451 54.8739 62.9409V62.9409ZM54.8739 86.798C52.9114 86.798 50.9929 86.216 49.3611 85.1257C47.7292 84.0353 46.4574 82.4855 45.7063 80.6723C44.9553 78.8591 44.7588 76.8639 45.1416 74.9389C45.5245 73.014 46.4695 71.2458 47.8572 69.8581C49.245 68.4703 51.013 67.5251 52.9379 67.1422C54.8627 66.7593 56.8579 66.9559 58.671 67.7069C60.4842 68.458 62.0339 69.7299 63.1242 71.3617C64.2146 72.9936 64.7965 74.9122 64.7965 76.8748C64.7936 79.5056 63.7472 82.0279 61.887 83.8882C60.0268 85.7485 57.5046 86.795 54.8739 86.798V86.798Z" fill="white" fill-opacity="0.64"/>
<path d="M54.8739 82.7717C58.1305 82.7717 60.7705 80.1316 60.7705 76.8749C60.7705 73.6181 58.1305 70.978 54.8739 70.978C51.6173 70.978 48.9773 73.6181 48.9773 76.8749C48.9773 80.1316 51.6173 82.7717 54.8739 82.7717Z" fill="white" fill-opacity="0.64"/>
<path d="M109.274 93.7812C97.6599 99.4408 83.3392 91.5174 84.2742 78.4757C85.1109 65.3356 99.2838 58.6917 110.406 65.6801L107.945 69.6663C85.7013 59.0362 82.4534 97.1772 107.404 89.1059L109.274 93.7812Z" fill="white"/>
<path d="M128.614 78.4264V89.598C128.614 91.2714 128.121 92.3049 126.842 93.4859C125.513 94.8148 122.511 95.6023 119.263 95.6023C114.244 95.6023 109.962 93.6829 109.962 88.8599C109.962 83.0527 114.785 79.7061 123.446 79.6567V79.1154C123.446 75.3261 123.397 74.1449 120.051 74.1449C117.639 74.1449 116.458 74.5877 116.311 76.8515H111.242C111.242 72.1764 113.948 70.4047 120.051 70.3062C126.153 70.4047 128.614 72.8654 128.614 78.4264ZM123.594 83.6922H122.856C120.841 83.7052 118.855 84.1764 117.049 85.0702C115.523 85.8086 114.785 87.0389 114.785 88.4168C114.785 90.3361 116.064 91.0251 119.509 91.0251C122.462 91.0251 123.594 90.5823 123.594 89.5488L123.594 83.6922Z" fill="white"/>
<path d="M149.627 75.0798C150.562 77.0977 151.005 79.4107 151.005 82.1667C151.005 85.7592 150.365 88.9583 149.332 90.8283C147.56 93.9289 144.115 95.6022 139.341 95.6022C138.218 95.5925 137.097 95.4771 135.995 95.2577V102H130.877L130.926 76.2118C130.926 72.3237 134.125 70.306 140.227 70.306C145.198 70.3061 148.052 71.7332 149.627 75.0798ZM146.083 83.2494C146.083 80.0506 145.887 78.5248 145.247 77.196C144.312 75.4243 142.786 74.7353 139.735 74.7353C136.93 74.7353 135.896 75.2766 135.896 76.9009V90.7792C136.487 90.976 138.308 91.1728 139.44 91.1728C142.196 91.1728 144.115 90.2378 145.198 88.4661C145.739 87.5309 146.083 85.4641 146.083 83.2494V83.2494Z" fill="white"/>
<path d="M153.169 67.8453V62.9731L158.287 62.481V67.3532L153.169 67.8453ZM158.287 95.1592V70.5521L153.169 71.0441V95.1591L158.287 95.1592Z" fill="white"/>
<path d="M177.037 88.4661C177.037 90.8283 176.052 92.7477 174.084 94.0274C172.362 95.0607 170.098 95.6513 167.736 95.6513C165.374 95.6513 162.716 95.3559 160.403 94.2733L161.781 90.3361C163.7 91.2713 165.915 91.5665 167.637 91.5665C170.393 91.5665 171.82 90.5332 171.82 88.4661C171.771 87.2358 170.885 86.1531 169.064 85.2671C167.293 84.2829 165.619 83.3479 163.897 82.5112C161.338 81.0347 160.797 79.4107 160.748 77.3436C160.748 75.0306 161.683 73.2098 163.553 71.9794C165.078 70.9459 166.997 70.4046 169.163 70.3552C171.427 70.3552 173.789 70.7491 175.659 71.6349L174.428 75.5228C172.558 75.0306 170.59 74.4893 169.163 74.4893C166.801 74.4893 165.619 75.3751 165.669 77.2453C165.669 78.2788 166.653 79.263 168.523 80.0997C173.493 82.3635 173.838 82.6589 173.936 82.7572C176.003 84.1352 176.987 86.0546 177.037 88.4661Z" fill="white"/>
<path d="M198 78.5741V95.1592H192.931V79.214C192.931 75.5721 192.193 74.7847 188.748 74.7847C186.78 74.7847 185.451 75.0307 183.975 75.7689V95.1593H178.906V61.546L183.975 61.0538V71.2412C185.549 70.6015 187.173 70.4047 189.043 70.4047C194.949 70.4047 198 73.0128 198 78.5741Z" fill="white"/>
</g>
<defs>
<clipPath id="clip0_129_86942">
<rect width="165" height="47" fill="white" transform="translate(33 55)"/>
</clipPath>
</defs>
</svg>
