<svg width="230" height="161" viewBox="0 0 230 161" fill="none" xmlns="http://www.w3.org/2000/svg">
<g clip-path="url(#clip0_129_86942)">
<path d="M54.8738 54C50.5475 54 46.3184 55.2829 42.7212 57.6866C39.124 60.0902 36.3204 63.5066 34.6648 67.5037C33.0092 71.5008 32.576 75.8992 33.42 80.1425C34.264 84.3858 36.3473 88.2836 39.4065 91.3428C42.4656 94.4021 46.3632 96.4855 50.6063 97.3295C54.8495 98.1736 59.2476 97.7403 63.2446 96.0847C67.2415 94.429 70.6578 91.6252 73.0613 88.0279C75.4648 84.4306 76.7477 80.2013 76.7477 75.8748C76.7411 70.0753 74.4345 64.5151 70.3337 60.4142C66.233 56.3133 60.6731 54.0066 54.8738 54V54ZM54.8738 93.739C51.3407 93.739 47.887 92.6913 44.9494 90.7284C42.0117 88.7655 39.7221 85.9755 38.37 82.7113C37.018 79.447 36.6642 75.8551 37.3534 72.3898C38.0427 68.9245 39.744 65.7414 42.2422 63.243C44.7405 60.7447 47.9234 59.0432 51.3886 58.3539C54.8538 57.6646 58.4455 58.0184 61.7096 59.3705C64.9737 60.7226 67.7636 63.0123 69.7265 65.95C71.6894 68.8878 72.737 72.3416 72.737 75.8748C72.7317 80.611 70.8479 85.1517 67.4991 88.5007C64.1502 91.8498 59.6098 93.7336 54.8738 93.739V93.739Z" fill="white" fill-opacity="0.64"/>
<path d="M54.8739 61.9409C52.1181 61.9409 49.4243 62.7581 47.1329 64.2892C44.8416 65.8203 43.0557 67.9964 42.0011 70.5425C40.9465 73.0886 40.6706 75.8903 41.2082 78.5932C41.7458 81.2962 43.0728 83.779 45.0215 85.7277C46.9701 87.6764 49.4528 89.0034 52.1556 89.5411C54.8584 90.0787 57.6599 89.8028 60.2059 88.7481C62.7519 87.6935 64.928 85.9075 66.459 83.6161C67.99 81.3247 68.8072 78.6307 68.8072 75.8748C68.803 72.1806 67.3337 68.6389 64.7216 66.0267C62.1095 63.4145 58.568 61.9451 54.8739 61.9409V61.9409ZM54.8739 85.798C52.9114 85.798 50.9929 85.216 49.3611 84.1257C47.7292 83.0353 46.4574 81.4855 45.7063 79.6723C44.9553 77.8591 44.7588 75.8639 45.1416 73.9389C45.5245 72.014 46.4695 70.2458 47.8572 68.8581C49.245 67.4703 51.013 66.5251 52.9379 66.1422C54.8627 65.7593 56.8579 65.9559 58.671 66.7069C60.4842 67.458 62.0339 68.7299 63.1242 70.3617C64.2146 71.9936 64.7965 73.9122 64.7965 75.8748C64.7936 78.5056 63.7472 81.0279 61.887 82.8882C60.0268 84.7485 57.5046 85.795 54.8739 85.798V85.798Z" fill="white" fill-opacity="0.64"/>
<path d="M54.8739 81.7717C58.1305 81.7717 60.7705 79.1316 60.7705 75.8749C60.7705 72.6181 58.1305 69.978 54.8739 69.978C51.6173 69.978 48.9773 72.6181 48.9773 75.8749C48.9773 79.1316 51.6173 81.7717 54.8739 81.7717Z" fill="white" fill-opacity="0.64"/>
<path d="M109.274 92.7812C97.6599 98.4408 83.3392 90.5174 84.2742 77.4757C85.1109 64.3356 99.2838 57.6917 110.406 64.6801L107.945 68.6663C85.7013 58.0362 82.4534 96.1772 107.404 88.1059L109.274 92.7812Z" fill="white"/>
<path d="M128.614 77.4264V88.598C128.614 90.2714 128.121 91.3049 126.842 92.4859C125.513 93.8148 122.511 94.6023 119.263 94.6023C114.244 94.6023 109.962 92.6829 109.962 87.8599C109.962 82.0527 114.785 78.7061 123.446 78.6567V78.1154C123.446 74.3261 123.397 73.1449 120.051 73.1449C117.639 73.1449 116.458 73.5877 116.311 75.8515H111.242C111.242 71.1764 113.948 69.4047 120.051 69.3062C126.153 69.4047 128.614 71.8654 128.614 77.4264ZM123.594 82.6922H122.856C120.841 82.7052 118.855 83.1764 117.049 84.0702C115.523 84.8086 114.785 86.0389 114.785 87.4168C114.785 89.3361 116.064 90.0251 119.509 90.0251C122.462 90.0251 123.594 89.5823 123.594 88.5488L123.594 82.6922Z" fill="white"/>
<path d="M149.627 74.0798C150.562 76.0977 151.005 78.4107 151.005 81.1667C151.005 84.7592 150.365 87.9583 149.332 89.8283C147.56 92.9289 144.115 94.6022 139.341 94.6022C138.218 94.5925 137.097 94.4771 135.995 94.2577V101H130.877L130.926 75.2118C130.926 71.3237 134.125 69.306 140.227 69.306C145.198 69.3061 148.052 70.7332 149.627 74.0798ZM146.083 82.2494C146.083 79.0506 145.887 77.5248 145.247 76.196C144.312 74.4243 142.786 73.7353 139.735 73.7353C136.93 73.7353 135.896 74.2766 135.896 75.9009V89.7792C136.487 89.976 138.308 90.1728 139.44 90.1728C142.196 90.1728 144.115 89.2378 145.198 87.4661C145.739 86.5309 146.083 84.4641 146.083 82.2494V82.2494Z" fill="white"/>
<path d="M153.169 66.8453V61.9731L158.287 61.481V66.3532L153.169 66.8453ZM158.287 94.1592V69.5521L153.169 70.0441V94.1591L158.287 94.1592Z" fill="white"/>
<path d="M177.037 87.4661C177.037 89.8283 176.052 91.7477 174.084 93.0274C172.362 94.0607 170.098 94.6513 167.736 94.6513C165.374 94.6513 162.716 94.3559 160.403 93.2733L161.781 89.3361C163.7 90.2713 165.915 90.5665 167.637 90.5665C170.393 90.5665 171.82 89.5332 171.82 87.4661C171.771 86.2358 170.885 85.1531 169.064 84.2671C167.293 83.2829 165.619 82.3479 163.897 81.5112C161.338 80.0347 160.797 78.4107 160.748 76.3436C160.748 74.0306 161.683 72.2098 163.553 70.9794C165.078 69.9459 166.997 69.4046 169.163 69.3552C171.427 69.3552 173.789 69.7491 175.659 70.6349L174.428 74.5228C172.558 74.0306 170.59 73.4893 169.163 73.4893C166.801 73.4893 165.619 74.3751 165.669 76.2453C165.669 77.2788 166.653 78.263 168.523 79.0997C173.493 81.3635 173.838 81.6589 173.936 81.7572C176.003 83.1352 176.987 85.0546 177.037 87.4661Z" fill="white"/>
<path d="M198 77.5741V94.1592H192.931V78.214C192.931 74.5721 192.193 73.7847 188.748 73.7847C186.78 73.7847 185.451 74.0307 183.975 74.7689V94.1593H178.906V60.546L183.975 60.0538V70.2412C185.549 69.6015 187.173 69.4047 189.043 69.4047C194.949 69.4047 198 72.0128 198 77.5741Z" fill="white"/>
</g>
<defs>
<clipPath id="clip0_129_86942">
<rect width="165" height="47" fill="white" transform="translate(33 54)"/>
</clipPath>
</defs>
</svg>
