<svg width="240" height="160" viewBox="0 0 240 160" fill="none" xmlns="http://www.w3.org/2000/svg">
<g clip-path="url(#clip0_72_1085)">
<path d="M59.0138 56.9055C54.6875 56.9055 50.4584 58.1884 46.8613 60.5921C43.2641 62.9957 40.4604 66.4121 38.8048 70.4092C37.1492 74.4064 36.7161 78.8047 37.5601 83.048C38.4041 87.2913 40.4874 91.1891 43.5465 94.2483C46.6057 97.3076 50.5032 99.391 54.7464 100.235C58.9895 101.079 63.3877 100.646 67.3846 98.9902C71.3816 97.3345 74.7978 94.5308 77.2014 90.9334C79.6049 87.3361 80.8878 83.1068 80.8877 78.7804C80.8812 72.9808 78.5745 67.4207 74.4738 63.3197C70.373 59.2188 64.8131 56.9121 59.0138 56.9055V56.9055ZM59.0138 96.6445C55.4808 96.6445 52.027 95.5969 49.0894 93.6339C46.1518 91.671 43.8621 88.881 42.5101 85.6168C41.158 82.3525 40.8042 78.7606 41.4935 75.2953C42.1827 71.83 43.884 68.6469 46.3823 66.1485C48.8805 63.6502 52.0635 61.9488 55.5286 61.2595C58.9938 60.5702 62.5855 60.9239 65.8497 62.276C69.1138 63.6281 71.9037 65.9178 73.8665 68.8555C75.8294 71.7933 76.8771 75.2472 76.8771 78.7804C76.8717 83.5166 74.988 88.0572 71.6391 91.4063C68.2903 94.7553 63.7498 96.6391 59.0138 96.6445V96.6445Z" fill="#FE5700"/>
<path d="M59.0139 64.8464C56.2582 64.8464 53.5643 65.6636 51.273 67.1947C48.9816 68.7258 47.1957 70.902 46.1411 73.4481C45.0865 75.9942 44.8106 78.7958 45.3482 81.4987C45.8859 84.2017 47.2129 86.6845 49.1615 88.6332C51.1101 90.5819 53.5928 91.909 56.2956 92.4466C58.9984 92.9842 61.8 92.7083 64.346 91.6537C66.892 90.599 69.0681 88.8131 70.5991 86.5216C72.1301 84.2302 72.9472 81.5362 72.9472 78.7803C72.9431 75.0861 71.4737 71.5444 68.8616 68.9322C66.2496 66.32 62.708 64.8506 59.0139 64.8464V64.8464ZM59.0139 88.7035C57.0514 88.7035 55.1329 88.1216 53.5011 87.0312C51.8693 85.9408 50.5974 84.3911 49.8464 82.5778C49.0953 80.7646 48.8988 78.7694 49.2817 76.8444C49.6645 74.9195 50.6096 73.1514 51.9973 71.7636C53.385 70.3758 55.1531 69.4307 57.0779 69.0478C59.0028 68.6649 60.9979 68.8614 62.8111 69.6124C64.6242 70.3635 66.174 71.6354 67.2643 73.2673C68.3546 74.8991 68.9366 76.8177 68.9366 78.7803C68.9336 81.4112 67.8872 83.9334 66.027 85.7937C64.1668 87.654 61.6447 88.7005 59.0139 88.7035V88.7035Z" fill="#FE5700"/>
<path d="M59.0139 84.6772C62.2705 84.6772 64.9105 82.0371 64.9105 78.7804C64.9105 75.5236 62.2705 72.8835 59.0139 72.8835C55.7574 72.8835 53.1174 75.5236 53.1174 78.7804C53.1174 82.0371 55.7574 84.6772 59.0139 84.6772Z" fill="#FE5700"/>
<path d="M113.414 95.6868C101.8 101.346 87.4792 93.4229 88.4143 80.3812C89.251 67.2411 103.424 60.5972 114.546 67.5856L112.085 71.5718C89.8414 60.9417 86.5934 99.0827 111.544 91.0114L113.414 95.6868Z" fill="black"/>
<path d="M132.754 80.3319V91.5036C132.754 93.1769 132.261 94.2105 130.982 95.3914C129.653 96.7203 126.651 97.5078 123.403 97.5078C118.384 97.5078 114.102 95.5885 114.102 90.7654C114.102 84.9582 118.925 81.6116 127.586 81.5623V81.0209C127.586 77.2316 127.537 76.0504 124.191 76.0504C121.779 76.0504 120.598 76.4932 120.451 78.7571H115.382C115.382 74.0819 118.088 72.3102 124.191 72.2117C130.293 72.3102 132.754 74.7709 132.754 80.3319ZM127.734 85.5977H126.996C124.981 85.6107 122.995 86.0819 121.189 86.9757C119.663 87.7141 118.925 88.9445 118.925 90.3223C118.925 92.2416 120.204 92.9306 123.649 92.9306C126.602 92.9306 127.734 92.4878 127.734 91.4543L127.734 85.5977Z" fill="black"/>
<path d="M153.767 76.9853C154.702 79.0032 155.145 81.3162 155.145 84.0722C155.145 87.6647 154.505 90.8638 153.472 92.7338C151.7 95.8344 148.255 97.5077 143.481 97.5077C142.358 97.498 141.237 97.3826 140.135 97.1632V103.905H135.017L135.066 78.1173C135.066 74.2292 138.265 72.2115 144.367 72.2115C149.338 72.2116 152.192 73.6388 153.767 76.9853ZM150.223 85.1549C150.223 81.9561 150.027 80.4303 149.387 79.1015C148.452 77.3298 146.926 76.6408 143.875 76.6408C141.07 76.6408 140.036 77.1821 140.036 78.8064V92.6847C140.627 92.8815 142.448 93.0783 143.58 93.0783C146.336 93.0783 148.255 92.1433 149.338 90.3716C149.879 89.4364 150.223 87.3696 150.223 85.1549V85.1549Z" fill="black"/>
<path d="M157.309 69.7509V64.8787L162.427 64.3865V69.2587L157.309 69.7509ZM162.427 97.0647V72.4576L157.309 72.9497V97.0646L162.427 97.0647Z" fill="black"/>
<path d="M181.177 90.3716C181.177 92.7338 180.192 94.6532 178.224 95.9329C176.502 96.9662 174.238 97.5568 171.876 97.5568C169.514 97.5568 166.856 97.2614 164.543 96.1788L165.921 92.2416C167.84 93.1769 170.055 93.472 171.777 93.472C174.533 93.472 175.96 92.4387 175.96 90.3716C175.911 89.1413 175.025 88.0586 173.204 87.1726C171.433 86.1884 169.759 85.2534 168.037 84.4167C165.478 82.9402 164.937 81.3162 164.888 79.2492C164.888 76.9361 165.823 75.1153 167.693 73.885C169.218 72.8514 171.137 72.3101 173.303 72.2607C175.567 72.2607 177.929 72.6546 179.799 73.5405L178.569 77.4283C176.698 76.9361 174.73 76.3948 173.303 76.3948C170.941 76.3948 169.759 77.2807 169.809 79.1509C169.809 80.1844 170.793 81.1685 172.663 82.0052C177.633 84.2691 177.978 84.5644 178.076 84.6627C180.143 86.0407 181.127 87.9601 181.177 90.3716Z" fill="black"/>
<path d="M202.14 80.4796V97.0647H197.071V81.1195C197.071 77.4776 196.333 76.6903 192.888 76.6903C190.92 76.6903 189.591 76.9363 188.115 77.6744V97.0648H183.046V63.4515L188.115 62.9594V73.1467C189.689 72.507 191.313 72.3102 193.184 72.3102C199.089 72.3102 202.14 74.9184 202.14 80.4796Z" fill="black"/>
</g>
<defs>
<clipPath id="clip0_72_1085">
<rect width="165" height="47" fill="white" transform="translate(37.14 56.9055)"/>
</clipPath>
</defs>
</svg>
