<svg width="240" height="160" viewBox="0 0 240 160" fill="none" xmlns="http://www.w3.org/2000/svg">
<g clip-path="url(#clip0_72_1085)">
<path d="M59.3738 54.5C55.0475 54.5 50.8184 55.7829 47.2212 58.1866C43.624 60.5902 40.8204 64.0066 39.1648 68.0037C37.5092 72.0008 37.076 76.3992 37.92 80.6425C38.764 84.8858 40.8473 88.7836 43.9065 91.8428C46.9656 94.9021 50.8632 96.9855 55.1063 97.8295C59.3495 98.6736 63.7476 98.2403 67.7446 96.5847C71.7415 94.929 75.1578 92.1252 77.5613 88.5279C79.9648 84.9306 81.2477 80.7013 81.2477 76.3748C81.2411 70.5753 78.9345 65.0151 74.8337 60.9142C70.733 56.8133 65.1731 54.5066 59.3738 54.5V54.5ZM59.3738 94.239C55.8407 94.239 52.387 93.1913 49.4494 91.2284C46.5117 89.2655 44.2221 86.4755 42.87 83.2113C41.518 79.947 41.1642 76.3551 41.8534 72.8898C42.5427 69.4245 44.244 66.2414 46.7422 63.743C49.2405 61.2447 52.4234 59.5432 55.8886 58.8539C59.3538 58.1646 62.9455 58.5184 66.2096 59.8705C69.4737 61.2226 72.2636 63.5123 74.2265 66.45C76.1894 69.3878 77.237 72.8416 77.237 76.3748C77.2317 81.111 75.3479 85.6517 71.9991 89.0007C68.6502 92.3498 64.1098 94.2336 59.3738 94.239V94.239Z" fill="#FE5700"/>
<path d="M59.3739 62.4409C56.6181 62.4409 53.9243 63.2581 51.6329 64.7892C49.3416 66.3203 47.5557 68.4964 46.5011 71.0425C45.4465 73.5886 45.1706 76.3903 45.7082 79.0932C46.2458 81.7962 47.5728 84.279 49.5215 86.2277C51.4701 88.1764 53.9528 89.5034 56.6556 90.0411C59.3584 90.5787 62.1599 90.3028 64.7059 89.2481C67.2519 88.1935 69.428 86.4075 70.959 84.1161C72.49 81.8247 73.3072 79.1307 73.3072 76.3748C73.303 72.6806 71.8337 69.1389 69.2216 66.5267C66.6095 63.9145 63.068 62.4451 59.3739 62.4409V62.4409ZM59.3739 86.298C57.4114 86.298 55.4929 85.716 53.8611 84.6257C52.2292 83.5353 50.9574 81.9855 50.2063 80.1723C49.4553 78.3591 49.2588 76.3639 49.6416 74.4389C50.0245 72.514 50.9695 70.7458 52.3572 69.3581C53.745 67.9703 55.513 67.0251 57.4379 66.6422C59.3627 66.2593 61.3579 66.4559 63.171 67.2069C64.9842 67.958 66.5339 69.2299 67.6242 70.8617C68.7146 72.4936 69.2965 74.4122 69.2965 76.3748C69.2936 79.0056 68.2472 81.5279 66.387 83.3882C64.5268 85.2485 62.0046 86.295 59.3739 86.298V86.298Z" fill="#FE5700"/>
<path d="M59.3739 82.2717C62.6305 82.2717 65.2705 79.6316 65.2705 76.3749C65.2705 73.1181 62.6305 70.478 59.3739 70.478C56.1173 70.478 53.4773 73.1181 53.4773 76.3749C53.4773 79.6316 56.1173 82.2717 59.3739 82.2717Z" fill="#FE5700"/>
<path d="M113.774 93.2812C102.16 98.9408 87.8392 91.0174 88.7742 77.9757C89.6109 64.8356 103.784 58.1917 114.906 65.1801L112.445 69.1663C90.2013 58.5362 86.9534 96.6772 111.904 88.6059L113.774 93.2812Z" fill="black"/>
<path d="M133.114 77.9264V89.098C133.114 90.7714 132.621 91.8049 131.342 92.9859C130.013 94.3148 127.011 95.1023 123.763 95.1023C118.744 95.1023 114.462 93.1829 114.462 88.3599C114.462 82.5527 119.285 79.2061 127.946 79.1567V78.6154C127.946 74.8261 127.897 73.6449 124.551 73.6449C122.139 73.6449 120.958 74.0877 120.81 76.3515H115.742C115.742 71.6764 118.448 69.9047 124.551 69.8062C130.653 69.9047 133.114 72.3654 133.114 77.9264ZM128.094 83.1922H127.356C125.341 83.2052 123.355 83.6764 121.549 84.5702C120.023 85.3086 119.285 86.5389 119.285 87.9168C119.285 89.8361 120.564 90.5251 124.009 90.5251C126.962 90.5251 128.094 90.0823 128.094 89.0488L128.094 83.1922Z" fill="black"/>
<path d="M154.127 74.5798C155.062 76.5977 155.505 78.9107 155.505 81.6667C155.505 85.2592 154.865 88.4583 153.832 90.3283C152.06 93.4289 148.615 95.1022 143.841 95.1022C142.718 95.0925 141.597 94.9771 140.495 94.7577V101.5H135.377L135.426 75.7118C135.426 71.8237 138.625 69.806 144.727 69.806C149.698 69.8061 152.552 71.2332 154.127 74.5798ZM150.583 82.7494C150.583 79.5506 150.387 78.0248 149.747 76.696C148.812 74.9243 147.286 74.2353 144.235 74.2353C141.43 74.2353 140.396 74.7766 140.396 76.4009V90.2792C140.987 90.476 142.808 90.6728 143.94 90.6728C146.696 90.6728 148.615 89.7378 149.698 87.9661C150.239 87.0309 150.583 84.9641 150.583 82.7494V82.7494Z" fill="black"/>
<path d="M157.669 67.3453V62.4731L162.787 61.981V66.8532L157.669 67.3453ZM162.787 94.6592V70.0521L157.669 70.5441V94.6591L162.787 94.6592Z" fill="black"/>
<path d="M181.537 87.9661C181.537 90.3283 180.552 92.2477 178.584 93.5274C176.862 94.5607 174.598 95.1513 172.236 95.1513C169.874 95.1513 167.216 94.8559 164.903 93.7733L166.281 89.8361C168.2 90.7713 170.415 91.0665 172.137 91.0665C174.893 91.0665 176.32 90.0332 176.32 87.9661C176.271 86.7358 175.385 85.6531 173.564 84.7671C171.793 83.7829 170.119 82.8479 168.397 82.0112C165.838 80.5347 165.297 78.9107 165.248 76.8436C165.248 74.5306 166.183 72.7098 168.053 71.4794C169.578 70.4459 171.497 69.9046 173.663 69.8552C175.927 69.8552 178.289 70.2491 180.159 71.1349L178.928 75.0228C177.058 74.5306 175.09 73.9893 173.663 73.9893C171.301 73.9893 170.119 74.8751 170.169 76.7453C170.169 77.7788 171.153 78.763 173.023 79.5997C177.993 81.8635 178.338 82.1589 178.436 82.2572C180.503 83.6352 181.487 85.5546 181.537 87.9661Z" fill="black"/>
<path d="M202.5 78.0741V94.6592H197.431V78.714C197.431 75.0721 196.693 74.2847 193.248 74.2847C191.28 74.2847 189.951 74.5307 188.475 75.2689V94.6593H183.406V61.046L188.475 60.5538V70.7412C190.049 70.1015 191.673 69.9047 193.543 69.9047C199.449 69.9047 202.5 72.5128 202.5 78.0741Z" fill="black"/>
</g>
<defs>
<clipPath id="clip0_72_1085">
<rect width="165" height="47" fill="white" transform="translate(37.5 54.5)"/>
</clipPath>
</defs>
</svg>
