<svg width="266" height="160" viewBox="0 0 266 160" fill="none" xmlns="http://www.w3.org/2000/svg">
<path d="M33 84.391C33 78.0609 37.3567 72.8853 43.9886 72.8853C47.5564 72.8853 50.1918 74.2511 51.6708 75.9967C53.0471 77.6214 53.6429 79.543 53.8251 80.824L48.561 80.9989C48.4047 79.9854 47.9931 79.1403 47.3714 78.5198C46.6119 77.76 45.2558 77.3366 43.9539 77.3366C40.8373 77.3366 38.5181 79.9381 38.5181 84.391C38.5181 88.8439 40.9427 91.3707 44.054 91.3707C45.3108 91.3707 46.6661 90.9578 47.4457 90.227C48.1631 89.554 48.639 88.6092 48.7602 87.4296L54.019 87.6401C53.9362 88.6092 53.6595 89.6292 53.1808 90.6035C51.8925 93.3351 48.7598 95.8941 43.9837 95.8941C37.3171 95.8941 33 90.7199 33 84.391Z" fill="white"/>
<path d="M56.4023 65.0049H61.9855V95.2726H56.4023V65.0049Z" fill="white"/>
<path d="M79.0332 92.919H78.8659C78.4446 94.3332 75.7465 95.8897 72.1278 95.8897C68.4885 95.8897 64.5176 93.939 64.5176 89.278C64.5176 84.2899 68.7919 82.811 72.2147 82.2648C74.1113 81.9607 76.4547 81.7651 77.2218 81.6237C78.039 81.4767 78.5096 81.2008 78.7294 80.6276C78.7952 80.4559 78.8401 80.2163 78.8401 79.9651C78.8401 78.2353 77.7623 76.9798 74.9733 76.9798C72.7386 76.9798 70.6412 78.039 70.6392 80.3585L65.7957 80.1125C66.2631 75.162 70.1714 72.8901 75.2185 72.8901C80.5109 72.8901 84.681 75.263 84.681 80.0693V95.2724H79.0332V92.919ZM72.3662 86.1239C71.3995 86.4689 69.9404 86.8361 69.9404 88.8971C69.9404 90.7715 71.593 91.6953 73.732 91.6953C77.3507 91.6953 79.0542 89.543 79.0542 87.3871V84.4066C78.5387 84.7028 77.6472 84.9851 76.8562 85.1487C76.0652 85.3139 73.3332 85.7785 72.3662 86.1239Z" fill="white"/>
<path d="M88.0436 92.1139C87.2902 90.9525 87.0442 89.6033 87.0361 88.1042H91.8889C91.9689 88.7675 92.1349 89.4142 92.4185 89.9422C93.0947 91.2123 94.448 91.9006 96.8419 91.9006C98.7534 91.9006 100.857 91.0127 100.857 89.1181C100.857 87.245 98.059 86.8095 95.1428 86.2767C90.8067 85.4926 87.5107 84.1445 87.5107 79.7151C87.5107 75.808 90.8717 72.8901 96.1725 72.8901C100.53 72.8901 103.192 74.9209 104.279 76.6454C104.736 77.3677 105.225 78.828 105.239 80.092H100.356C100.344 79.5503 100.257 78.9678 100.03 78.5004C99.401 77.2041 97.7613 76.7399 96.137 76.7399C94.1495 76.7399 92.4637 77.549 92.4637 79.1403C92.4637 80.0746 92.8576 80.6204 93.6566 80.9577C94.8507 81.4622 96.3288 81.6755 98.1919 81.9434C102.044 82.5012 105.984 84.0003 105.984 88.4831C105.984 93.0156 102.589 95.8995 96.5922 95.8995C92.5187 95.8995 89.5596 94.4521 88.0436 92.1139Z" fill="white"/>
<path d="M115.444 84.386C115.444 76.972 120.244 72.8823 125.97 72.8823C131.695 72.8823 136.45 76.9826 136.45 84.386C136.45 91.791 131.768 95.8949 125.97 95.8949C120.172 95.8949 115.444 91.8019 115.444 84.386ZM125.97 77.1898C122.8 77.1898 120.897 79.3962 120.897 84.386C120.897 89.3777 122.891 91.5486 125.97 91.5486C129.043 91.5486 131.003 89.4448 131.003 84.386C131.003 79.3276 129.134 77.1898 125.97 77.1898Z" fill="white"/>
<path d="M152.129 95.2726V81.9406C152.129 79.823 151.395 77.7608 148.634 77.7608C146.979 77.7608 145.888 78.6382 145.277 79.6703C144.783 80.5053 144.414 82.12 144.414 83.4971V95.2726H138.832V65H144.414V76.0763H144.494C145.5 74.2213 147.725 72.887 150.492 72.887C152.714 72.887 154.236 73.5168 155.533 74.727C157.104 76.191 157.712 78.3381 157.712 81.4575V95.2726H152.129Z" fill="white"/>
<path d="M161.406 65H166.987V95.2726H161.406V65Z" fill="white"/>
<path d="M170.595 92.0164C169.874 90.8748 169.636 89.5648 169.629 88.1024H174.482C174.561 88.7463 174.721 89.3814 174.992 89.9025C175.666 91.1976 177.024 91.8989 179.436 91.8989C181.346 91.8989 183.45 91.0106 183.45 89.1176C183.45 87.2404 180.653 86.8073 177.736 86.2729C173.4 85.4892 170.104 84.1424 170.104 79.7101C170.104 75.803 173.466 72.8872 178.764 72.8872C183.143 72.8872 185.803 74.934 186.89 76.6771C187.334 77.3905 187.82 78.8379 187.832 80.087H182.949C182.942 79.5994 182.886 79.0512 182.693 78.6097C182.095 77.231 180.416 76.7349 178.73 76.7349C176.743 76.7349 175.056 77.544 175.056 79.1361C175.056 80.106 175.482 80.6598 176.344 81.0036C177.537 81.4811 178.983 81.6855 180.784 81.9396C184.636 82.4978 188.579 83.997 188.579 88.4805C188.579 93.0138 185.182 95.8993 179.186 95.8993C175.06 95.8993 172.103 94.399 170.595 92.0164Z" fill="white"/>
<path d="M227.017 95.2728V81.9408C227.017 79.8232 226.283 77.761 223.522 77.761C221.866 77.761 220.776 78.6384 220.166 79.6705C219.671 80.5055 219.302 82.1202 219.302 83.4973V95.2728H213.72V73.5929H219.09V76.0765H219.17C220.176 74.2215 222.612 72.8872 225.38 72.8872C227.602 72.8872 229.124 73.517 230.421 74.7272C231.992 76.1912 232.6 78.3383 232.6 81.4577V95.2728H227.017Z" fill="white"/>
<path d="M190.153 84.386C190.153 76.972 194.983 72.8823 200.709 72.8823C206.434 72.8823 211.221 76.9826 211.221 84.386C211.221 91.791 206.506 95.8949 200.709 95.8949C194.911 95.8949 190.153 91.8019 190.153 84.386ZM200.709 77.1898C197.539 77.1898 195.605 79.3962 195.605 84.386C195.605 89.3777 197.632 91.5486 200.709 91.5486C203.783 91.5486 205.773 89.4448 205.773 84.386C205.773 79.3276 203.874 77.1898 200.709 77.1898Z" fill="white"/>
</svg>
