<svg width="240" height="160" viewBox="0 0 240 160" fill="none" xmlns="http://www.w3.org/2000/svg">
<path d="M20.14 84.3908C20.14 78.0607 24.4968 72.8851 31.1286 72.8851C34.6964 72.8851 37.3319 74.2509 38.8108 75.9965C40.1871 77.6212 40.7829 79.5428 40.9651 80.8238L35.7011 80.9987C35.5447 79.9852 35.1331 79.1401 34.5114 78.5196C33.7519 77.7598 32.3958 77.3364 31.0939 77.3364C27.9773 77.3364 25.6581 79.9379 25.6581 84.3908C25.6581 88.8437 28.0827 91.3705 31.1941 91.3705C32.4508 91.3705 33.8061 90.9576 34.5857 90.2268C35.3032 89.5538 35.779 88.609 35.9002 87.4294L41.159 87.6399C41.0762 88.609 40.7995 89.629 40.3208 90.6033C39.0325 93.3349 35.8998 95.894 31.1238 95.894C24.4572 95.894 20.14 90.7197 20.14 84.3908Z" fill="#54B6E7"/>
<path d="M43.5422 65.005H49.1254V95.2727H43.5422V65.005Z" fill="#54B6E7"/>
<path d="M66.1728 92.9192H66.0055C65.5842 94.3334 62.8861 95.8899 59.2674 95.8899C55.6281 95.8899 51.6572 93.9392 51.6572 89.2782C51.6572 84.2901 55.9315 82.8112 59.3543 82.265C61.2509 81.9609 63.5943 81.7653 64.3614 81.6239C65.1786 81.4769 65.6492 81.201 65.869 80.6278C65.9348 80.4561 65.9797 80.2165 65.9797 79.9653C65.9797 78.2355 64.9019 76.98 62.1129 76.98C59.8782 76.98 57.7808 78.0392 57.7788 80.3587L52.9353 80.1127C53.4027 75.1622 57.311 72.8903 62.3581 72.8903C67.6505 72.8903 71.8206 75.2632 71.8206 80.0695V95.2726H66.1728C66.1732 95.2714 66.1728 92.9192 66.1728 92.9192ZM59.5058 86.1241C58.5391 86.4691 57.08 86.8363 57.08 88.8973C57.08 90.7717 58.7326 91.6955 60.8716 91.6955C64.4903 91.6955 66.1938 89.5432 66.1938 87.3873V84.4068C65.6783 84.703 64.7868 84.9853 63.9958 85.1489C63.2048 85.3141 60.4728 85.7787 59.5058 86.1241Z" fill="#54B6E7"/>
<path d="M75.1838 92.1141C74.4304 90.9527 74.1843 89.6035 74.1763 88.1044H79.0291C79.1091 88.7677 79.2751 89.4144 79.5587 89.9424C80.2349 91.2125 81.5882 91.9008 83.9821 91.9008C85.8936 91.9008 87.997 91.0129 87.997 89.1183C87.997 87.2452 85.1992 86.8097 82.283 86.2769C77.9469 85.4928 74.6509 84.1447 74.6509 79.7153C74.6509 75.8082 78.0119 72.8903 83.3127 72.8903C87.6702 72.8903 90.332 74.9211 91.419 76.6456C91.8759 77.3679 92.3647 78.8282 92.3792 80.0922H87.4965C87.484 79.5505 87.3968 78.968 87.1705 78.5006C86.5412 77.2043 84.9015 76.7401 83.2771 76.7401C81.2896 76.7401 79.6039 77.5492 79.6039 79.1405C79.6039 80.0748 79.9978 80.6206 80.7968 80.9579C81.9909 81.4624 83.469 81.6757 85.3321 81.9436C89.1839 82.5014 93.1245 84.0005 93.1245 88.4833C93.1245 93.0158 89.7288 95.8997 83.7324 95.8997C79.6589 95.8997 76.6998 94.4523 75.1838 92.1141Z" fill="#54B6E7"/>
<path d="M102.584 84.3859C102.584 76.9719 107.384 72.8822 113.11 72.8822C118.835 72.8822 123.59 76.9825 123.59 84.3859C123.59 91.7909 118.908 95.8948 113.11 95.8948C107.312 95.8948 102.584 91.8018 102.584 84.3859ZM113.11 77.1897C109.94 77.1897 108.037 79.3961 108.037 84.3859C108.037 89.3776 110.031 91.5485 113.11 91.5485C116.183 91.5485 118.143 89.4447 118.143 84.3859C118.143 79.3275 116.274 77.1897 113.11 77.1897Z" fill="#54B6E7"/>
<path d="M139.269 95.2726V81.9406C139.269 79.823 138.535 77.7608 135.774 77.7608C134.119 77.7608 133.028 78.6382 132.417 79.6703C131.923 80.5053 131.554 82.12 131.554 83.4971V95.2726H125.972V65H131.554V76.0763H131.634C132.64 74.2213 134.865 72.887 137.632 72.887C139.854 72.887 141.376 73.5168 142.673 74.727C144.244 76.191 144.852 78.3381 144.852 81.4575V95.2726H139.269Z" fill="#54B6E7"/>
<path d="M148.546 65.0001H154.127V95.2727H148.546V65.0001Z" fill="#54B6E7"/>
<path d="M157.735 92.0163C157.014 90.8747 156.776 89.5646 156.769 88.1023H161.622C161.701 88.7462 161.861 89.3812 162.133 89.9023C162.806 91.1974 164.164 91.8987 166.576 91.8987C168.486 91.8987 170.59 91.0104 170.59 89.1174C170.59 87.2402 167.793 86.8072 164.876 86.2727C160.54 85.489 157.244 84.1422 157.244 79.71C157.244 75.8028 160.606 72.887 165.904 72.887C170.283 72.887 172.943 74.9339 174.03 76.677C174.474 77.3904 174.96 78.8378 174.972 80.0869H170.089C170.082 79.5993 170.026 79.0511 169.833 78.6096C169.235 77.2308 167.556 76.7348 165.87 76.7348C163.883 76.7348 162.196 77.5439 162.196 79.1359C162.196 80.1058 162.623 80.6597 163.484 81.0034C164.677 81.4809 166.123 81.6853 167.924 81.9394C171.776 82.4977 175.719 83.9968 175.719 88.4804C175.719 93.0137 172.322 95.8992 166.326 95.8992C162.2 95.8992 159.243 94.3989 157.735 92.0163Z" fill="#54B6E7"/>
<path d="M214.157 95.2726V81.9406C214.157 79.823 213.423 77.7608 210.662 77.7608C209.006 77.7608 207.916 78.6382 207.306 79.6703C206.812 80.5053 206.442 82.12 206.442 83.4971V95.2726H200.86V73.5927H206.23V76.0763H206.31C207.316 74.2213 209.752 72.887 212.52 72.887C214.743 72.887 216.264 73.5168 217.561 74.727C219.132 76.191 219.74 78.3381 219.74 81.4575V95.2726H214.157Z" fill="#54B6E7"/>
<path d="M177.293 84.3859C177.293 76.9719 182.123 72.8822 187.849 72.8822C193.574 72.8822 198.361 76.9825 198.361 84.3859C198.361 91.7909 193.646 95.8948 187.849 95.8948C182.051 95.8948 177.293 91.8018 177.293 84.3859ZM187.849 77.1897C184.679 77.1897 182.745 79.3961 182.745 84.3859C182.745 89.3776 184.772 91.5485 187.849 91.5485C190.923 91.5485 192.913 89.4447 192.913 84.3859C192.913 79.3275 191.014 77.1897 187.849 77.1897Z" fill="#54B6E7"/>
</svg>
