<svg width="241" height="161" viewBox="0 0 241 161" fill="none" xmlns="http://www.w3.org/2000/svg">
<path fill-rule="evenodd" clip-rule="evenodd" d="M122.666 71.8445V87.5642H124.142V75.0489L131.134 81.2489L138.189 75.0424V87.5642H139.663V71.851L131.136 79.1083L122.666 71.8445ZM68.5433 72.5581H70.0177V86.6223H83.2401V88.1929H68.5433V72.5581ZM107.996 84.908C108.558 84.3223 108.903 83.5407 108.967 82.7065V72.5581H110.45V82.7065C110.395 83.958 109.896 85.1409 109.055 86.0175C107.711 87.4576 105.589 88.1929 102.748 88.1929C95.0658 88.1929 94.9778 83.5244 94.9778 83.3265V72.5581H96.4543V83.3265C96.4563 83.457 96.6056 86.6223 102.74 86.6223C105.172 86.6223 106.941 86.0458 107.996 84.908ZM153.417 72.5581H151.941V87.5642H153.417V72.5581ZM165.987 74.1287H171.476V87.5642H172.952V74.1287H178.322V72.5581H165.987V74.1287ZM204.534 79.1084C204.122 75.4549 201.455 72.5512 198.031 72.0283C194.607 71.5053 191.28 73.4935 189.918 76.876C188.556 80.2585 189.499 84.1923 192.217 86.4679C193.555 87.5976 195.213 88.2112 196.921 88.2082C197.228 88.2081 197.536 88.1885 197.841 88.1495C199.854 87.8951 201.689 86.8002 202.943 85.1057C204.197 83.4112 204.766 81.2561 204.526 79.1149L204.534 79.1084ZM201.792 84.1271C200.065 86.4607 197.081 87.2699 194.515 86.0999C191.95 84.9299 190.442 82.0726 190.841 79.1333C191.239 76.1941 193.443 73.9059 196.215 73.5545C197.84 73.3443 199.477 73.8338 200.761 74.9141C203.434 77.1582 203.892 81.2824 201.784 84.1271H201.792Z" fill="black" fill-opacity="0.96"/>
<path fill-rule="evenodd" clip-rule="evenodd" d="M37.1818 71.0945C36.6812 71.0945 36.2753 71.5207 36.2753 72.0464C36.2753 72.5721 36.6812 72.9983 37.1818 72.9983C37.6824 72.9983 38.0883 72.5721 38.0883 72.0464C38.0871 71.5212 37.6819 71.0957 37.1818 71.0945ZM44.1388 72.4834C44.3687 72.4834 44.555 72.2878 44.555 72.0464C44.555 71.8051 44.3687 71.6094 44.1388 71.6094C43.909 71.6094 43.7227 71.8051 43.7227 72.0464C43.7227 72.2878 43.909 72.4834 44.1388 72.4834ZM51.1535 72.4834C51.3833 72.4834 51.5696 72.2878 51.5696 72.0464C51.5696 71.8051 51.3833 71.6094 51.1535 71.6094C50.9237 71.6094 50.7374 71.8051 50.7374 72.0464C50.7374 72.2878 50.9237 72.4834 51.1535 72.4834ZM51.5696 79.3525C51.5696 79.5938 51.3833 79.7895 51.1535 79.7895C50.9237 79.7895 50.7374 79.5938 50.7374 79.3525C50.7374 79.1111 50.9237 78.9154 51.1535 78.9154C51.3833 78.9154 51.5696 79.1111 51.5696 79.3525ZM44.1388 79.7895C44.3687 79.7895 44.555 79.5938 44.555 79.3525C44.555 79.1111 44.3687 78.9154 44.1388 78.9154C43.909 78.9154 43.7227 79.1111 43.7227 79.3525C43.7227 79.5938 43.909 79.7895 44.1388 79.7895ZM50.3167 86.2927C50.4576 85.9371 50.7888 85.7057 51.1556 85.7066C51.6549 85.7089 52.0589 86.1341 52.06 86.6585C52.06 87.0437 51.8389 87.391 51.4999 87.5382C51.161 87.6854 50.7709 87.6035 50.5118 87.3308C50.2528 87.0581 50.1757 86.6483 50.3167 86.2927ZM44.1326 84.2224C42.852 84.2247 41.8155 85.3165 41.8171 86.6613C41.8186 88.0061 42.8575 89.0953 44.1381 89.0945C45.4187 89.0937 46.4564 88.0032 46.4564 86.6584C46.4559 86.0118 46.2108 85.3918 45.775 84.935C45.3392 84.4781 44.7484 84.2218 44.1326 84.2224ZM35.037 78.4213C35.3966 77.5108 36.2432 76.9176 37.1818 76.9185C38.4613 76.9197 39.4983 78.0086 39.4994 79.3524C39.5002 80.338 38.9354 81.2271 38.0684 81.6047C37.2014 81.9823 36.2031 81.7741 35.5394 81.0771C34.8758 80.3801 34.6774 79.3318 35.037 78.4213ZM35.4575 86.6583C35.4575 85.6582 36.2295 84.8475 37.1818 84.8475C38.1336 84.8487 38.905 85.6587 38.9061 86.6583C38.9061 87.6584 38.1341 88.4692 37.1818 88.4692C36.2295 88.4692 35.4575 87.6584 35.4575 86.6583Z" fill="#1E73BE"/>
</svg>
