<svg width="240" height="160" viewBox="0 0 240 160" fill="none" xmlns="http://www.w3.org/2000/svg">
<path fill-rule="evenodd" clip-rule="evenodd" d="M99.1976 66.835C101.578 66.7778 103.899 67.5857 105.73 69.1089H105.729C107.541 70.6996 108.498 72.948 108.498 75.6181C108.498 78.2881 107.545 80.5376 105.742 82.1262C103.909 83.653 101.583 84.4614 99.1976 84.4012H95.0581V93.1283H89.168V66.835H99.1976ZM98.6731 71.9939H95.0591V79.2423H98.6731C101.15 79.2423 102.575 77.9226 102.575 75.6181C102.575 73.3503 101.117 71.9939 98.6731 71.9939Z" fill="#001C24"/>
<path d="M115.088 77.2424L114.833 74.8269H109.741V93.1283H115.424V82.8126C116.621 81.3096 117.916 80.6375 119.599 80.6375H120.285V74.9888H120.019C118.115 74.9459 116.295 75.7764 115.079 77.2434" fill="#001C24"/>
<path d="M125.089 66.4053C123.762 66.4036 122.565 67.2014 122.056 68.4266C121.546 69.6517 121.826 71.063 122.763 72.0021C123.7 72.9413 125.11 73.2234 126.337 72.7169C127.563 72.2105 128.363 71.0151 128.365 69.6884V69.6884C128.426 67.9393 127.059 66.4713 125.31 66.4083C125.237 66.4083 125.165 66.4083 125.093 66.4083" fill="#001C24"/>
<rect x="122.228" y="74.8259" width="5.68024" height="18.3024" fill="#001C24"/>
<path d="M144.902 87.3238C144.902 84.557 143.014 82.7525 139.131 81.8075C136.58 81.2057 136.149 80.8798 136.149 80.2098C136.149 79.9287 136.149 79.0743 138.196 79.0743C139.678 79.0806 141.115 79.5917 142.269 80.5234L142.519 80.7271L144.695 76.612L144.536 76.4735C143.126 75.2444 140.699 74.4807 138.198 74.4807C133.433 74.4807 130.474 76.8116 130.474 80.5652C130.474 83.3615 132.185 84.9185 136.387 85.9409C138.774 86.5031 139.192 86.9501 139.192 87.6792C139.192 88.7057 137.97 88.9226 136.938 88.9226C135.217 88.9249 133.553 88.3136 132.242 87.1986L131.989 86.9756L129.771 91.1365L129.933 91.275C131.509 92.6334 134.18 93.4776 136.902 93.4776C141.767 93.4776 144.908 91.0642 144.908 87.3259" fill="#001C24"/>
<path d="M146.928 94.2281C146.928 95.6425 146.063 96.5203 144.673 96.5203C143.658 96.4586 142.721 95.956 142.108 95.1446L141.919 94.9226L138.21 98.7525L138.388 98.9379C140.053 100.672 142.376 101.619 144.779 101.544C149.316 101.544 152.61 98.3065 152.61 93.8472V74.8248H146.928V94.2281Z" fill="#001C24"/>
<path d="M149.553 66.4053C148.226 66.404 147.029 67.2022 146.521 68.4275C146.012 69.6528 146.291 71.064 147.229 72.0029C148.166 72.9417 149.577 73.2234 150.803 72.7166C152.029 72.2097 152.829 71.0141 152.83 69.6874V69.6874C152.891 67.9383 151.524 66.4703 149.775 66.4073C149.703 66.4073 149.629 66.4073 149.557 66.4073" fill="#001C24"/>
<path fill-rule="evenodd" clip-rule="evenodd" d="M162.66 74.4745C165.33 74.4745 166.856 75.554 167.665 76.442L167.893 74.8249H173.011V93.1283H167.892L167.665 91.5346C166.513 92.777 164.726 93.4786 162.66 93.4786C157.839 93.4786 154.479 89.5784 154.479 83.9939C154.479 78.389 157.842 74.4745 162.66 74.4745ZM160.192 83.9929C160.192 86.7067 161.657 88.4583 163.921 88.4583C165.359 88.4583 166.435 87.8177 167.294 86.4409V81.5458C166.423 80.1446 165.346 79.4929 163.921 79.4929C161.657 79.4929 160.192 81.2587 160.192 83.9929Z" fill="#001C24"/>
<path d="M193.051 74.8258H186.215L180.668 83.3431V66.5692H174.987V93.1273H179.45L183.667 87.3554L187.007 93.1273H193.466L187.407 82.4368L193.051 74.8258V74.8258Z" fill="#001C24"/>
<path d="M205.476 87.666L205.19 87.8279C204.53 88.1739 203.791 88.3433 203.046 88.3197C201.677 88.3197 200.861 87.5142 200.861 86.168V79.7047H205.938V74.8259H200.861V68.9379H195.18V74.8259H195.135L191.533 79.7047H195.179V86.2383C195.179 90.7719 197.936 93.4796 202.554 93.4796C204.03 93.5009 205.483 93.1132 206.753 92.3595L206.934 92.2505L205.476 87.666Z" fill="#001C24"/>
<path d="M57.9837 55.0509C71.7628 55.0407 82.941 66.2016 82.9511 79.9806C82.9613 93.7597 71.7984 104.939 58.0214 104.949C44.2444 104.959 33.0632 93.7984 33.053 80.0193V80C33.0479 66.2261 44.2098 55.057 57.9837 55.0509" fill="#FF3366"/>
<path d="M57.9756 66.8126C65.2569 66.8076 71.1638 72.7061 71.169 79.9874C71.1743 87.2688 65.2759 93.1758 57.9946 93.1813C50.7132 93.1867 44.806 87.2885 44.8004 80.0071V79.998C44.7991 76.5023 46.1864 73.1494 48.6572 70.6766C51.128 68.2039 54.4799 66.814 57.9756 66.8126" fill="#00ADDB"/>
<path fill-rule="evenodd" clip-rule="evenodd" d="M73.2648 69.1212C75.5283 72.2964 76.7421 76.1 76.7363 79.9994C76.7426 83.8854 75.5369 87.6766 73.2872 90.8452L75.7414 93.3014C74.4827 94.98 72.9939 96.473 71.3187 97.7362L68.8676 95.2831C62.3597 99.9237 53.6253 99.9277 47.113 95.2933L44.6609 97.7474C42.9854 96.4859 41.4956 94.9951 40.2352 93.3187L42.6894 90.8615C38.0706 84.3429 38.0792 75.6164 42.7108 69.1069L40.2464 66.6405C41.5074 64.9642 42.9983 63.474 44.6752 62.2138L47.1467 64.6833C53.6456 60.0807 62.3429 60.0852 68.8371 64.6945L71.3035 62.2301C72.9786 63.4905 74.4681 64.9803 75.7281 66.6558L73.2648 69.1212ZM57.9936 66.837C50.7188 66.8316 44.8164 72.7232 44.8086 79.9979L44.8126 79.999C44.8091 83.4946 46.195 86.8484 48.6651 89.322C51.1352 91.7955 54.487 93.186 57.9827 93.1873C65.2574 93.1879 71.1559 87.2923 71.1589 80.0176C71.1619 72.7429 65.2683 66.8425 57.9936 66.837Z" fill="#FFD066"/>
<path d="M57.9756 73.7434C61.4321 73.74 64.237 76.5393 64.2403 79.9959C64.2437 83.4525 61.4443 86.2573 57.9878 86.2607C54.5312 86.264 51.7264 83.4647 51.723 80.0081V80.002C51.7222 78.3429 52.3805 76.7515 53.5531 75.5777C54.7257 74.404 56.3165 73.7442 57.9756 73.7434V73.7434" fill="#FFD066"/>
</svg>
