<svg width="241" height="161" viewBox="0 0 241 161" fill="none" xmlns="http://www.w3.org/2000/svg">
<path d="M69.0221 78.806C69.0221 85.4302 63.6664 90.7859 57.0422 90.7859C50.418 90.7859 45.0623 85.4302 45.0623 78.806C45.0623 72.1818 50.418 66.826 57.0422 66.826C63.6664 66.826 69.0221 72.1818 69.0221 78.806ZM79.3671 96.4517C79.3671 96.4517 80.1564 95.5497 79.2544 94.7604L74.2651 90.4195C76.5201 87.0933 77.8168 83.1187 77.8168 78.806C77.8168 67.3334 68.5147 58.0596 57.0704 58.0596C45.5978 58.0596 36.2958 67.3334 36.2958 78.806C36.2958 90.2785 45.5978 99.5524 57.0422 99.5524C61.2422 99.5524 65.1322 98.2839 68.402 96.1698L73.8705 100.934C73.8705 100.934 74.7725 101.723 75.5617 100.821L79.3671 96.4517ZM93.3484 98.1148V59.469C93.3484 58.0596 91.939 58.0596 91.939 58.0596H85.7094C84.3 58.0596 84.3 59.469 84.3 59.469V98.1148C84.3 99.5242 85.7094 99.5242 85.7094 99.5242H91.939C93.3484 99.5524 93.3484 98.1148 93.3484 98.1148ZM108.626 63.3871V59.3844C108.626 59.3844 108.626 58.0314 107.273 58.0314H101.297C101.297 58.0314 99.9444 58.0314 99.9444 59.3844V63.3871C99.9444 63.3871 99.9444 64.7401 101.297 64.7401H107.273C107.273 64.7683 108.626 64.7683 108.626 63.3871ZM108.88 98.1148V70.2086C108.88 68.7992 107.471 68.7992 107.471 68.7992H101.382C99.9726 68.7992 99.9726 70.2086 99.9726 70.2086V98.1148C99.9726 99.5242 101.382 99.5242 101.382 99.5242H107.471C108.88 99.5524 108.88 98.1148 108.88 98.1148ZM135.039 81.0046C134.306 79.7925 135.292 78.7778 135.292 78.7778L143.89 69.8704C144.876 68.8556 143.467 68.8556 143.467 68.8556H135.433C134.024 68.8556 133.037 69.8704 133.037 69.8704L125.06 78.3268C124.102 79.3415 124.102 77.9321 124.102 77.9321V59.4408C124.102 58.0314 122.692 58.0314 122.692 58.0314H116.604C115.251 58.0314 115.251 59.3844 115.251 59.3844V98.0866C115.251 99.496 116.66 99.496 116.66 99.496H122.692C124.045 99.496 124.045 98.143 124.045 98.143V91.3497C124.045 89.9403 125.088 88.9819 125.088 88.9819L127.935 86.304L135.095 98.3121C135.828 99.5242 137.237 99.5242 137.237 99.5242H144.82C146.229 99.5242 145.496 98.3121 145.496 98.3121L135.039 81.0046Z" fill="#54565B"/>
<path d="M192.091 78.6087C192.091 86.6987 185.552 93.2383 177.462 93.2383C169.372 93.2383 162.832 86.6705 162.832 78.6087C162.832 70.5187 169.372 63.9791 177.462 63.9791C185.523 63.9509 192.091 70.5187 192.091 78.6087ZM204.268 96.9028L197.588 91.3215C199.899 87.6571 201.252 83.2879 201.252 78.6087C201.252 65.4449 190.597 54.7898 177.433 54.7898C164.27 54.7898 153.614 65.4449 153.614 78.6087C153.614 91.7725 164.27 102.428 177.433 102.428C182.535 102.428 187.271 100.821 191.133 98.0867L198.236 104.063C198.236 104.063 199.307 104.936 200.181 103.893L204.409 98.8477C204.438 98.8477 205.311 97.7766 204.268 96.9028Z" fill="#009C4D"/>
<path d="M168.047 78.6088C168.047 73.4222 172.247 69.2222 177.433 69.2222C182.62 69.2222 186.82 73.4222 186.82 78.6088C186.82 83.7954 182.62 87.9954 177.433 87.9954C172.275 87.9672 168.047 83.7672 168.047 78.6088Z" fill="#54565B"/>
<path d="M202.239 61.6677H202.944C203.366 61.6677 203.648 61.5831 203.648 61.1039C203.648 60.6811 203.338 60.5402 202.944 60.5402H202.239V61.6677ZM202.239 63.3872H201.901V60.2019H203.056C203.592 60.2019 204.015 60.4838 204.015 61.0757C204.015 61.5831 203.733 61.9214 203.254 61.9496L204.128 63.359H203.705L202.859 61.9496H202.211V63.3872H202.239ZM202.831 59.5536C201.591 59.5536 200.66 60.5402 200.66 61.8086C200.66 63.0771 201.591 64.0637 202.831 64.0637C204.071 64.0637 205.001 63.0771 205.001 61.8086C205.001 60.5684 204.071 59.5536 202.831 59.5536ZM200.238 61.8086C200.238 60.371 201.421 59.2153 202.831 59.2153C204.268 59.2153 205.424 60.3992 205.424 61.8086C205.424 63.218 204.268 64.4019 202.831 64.4019C201.421 64.4019 200.238 63.218 200.238 61.8086Z" fill="#4A4D4D"/>
</svg>
