<svg width="240" height="160" viewBox="0 0 240 160" fill="none" xmlns="http://www.w3.org/2000/svg">
<path d="M193.94 74.2972C193.94 79.1929 188.054 95.93 187.097 98.4514C186.463 100.103 185.254 100.323 183.676 100.323C180.83 100.323 178.676 99.66 177.63 98.8343C177.41 98.6572 177.144 98.2886 177.321 97.7572C178.399 94.6 182.469 83.2172 182.469 80.7686C182.469 79.4257 182.054 78.4086 180.697 78.4086C172.483 78.4086 157.369 95.78 154.569 98.8914C153.64 99.8943 152.297 100.116 150.719 100.116C148.787 100.116 146.707 99.1014 146.516 98.9957C145.896 98.6714 145.867 98.3314 146.044 97.5957L146.559 95.5157C147.519 91.7114 152.416 77.6443 155.806 70.0186C155.953 69.6943 156.086 69.4286 156.823 69.3114C157.161 69.2686 158.283 69.0014 159.86 69.0014C160.997 69.0014 163.224 69.09 164.346 69.68C164.346 69.68 164.36 69.6657 164.36 71.5229C164.36 72.3186 164.446 75.0472 167.043 75.0472C171.407 75.0472 179.357 67.6143 186.376 67.6143C192.556 67.6143 193.941 71.3714 193.941 74.2929L193.94 74.2972ZM106.597 80.4472C106.597 81.4643 105.401 84.2514 105.226 84.6643C104.163 87.2886 101.346 87.7172 99.3543 87.7172C96.3772 87.7172 95.36 86.6557 95.36 84.9886C95.36 83.6914 96.4515 81.4643 96.5986 81.14C97.9386 78.1029 100.341 77.7772 102.703 77.7772C104.709 77.7772 106.596 78.6029 106.596 80.4457L106.597 80.4472ZM81.1586 74.0329C81.1586 72.1014 81.0586 69.3286 79.5386 69.3286C74.5672 69.3286 65.8243 76.85 64.9529 77.72C64.3058 78.3686 64.7915 78.31 65.6472 78.31H76.84C80.7915 78.31 81.1615 77.6457 81.1615 74.0329H81.1586ZM93.09 75.05C93.09 84.5172 87.2043 86.4929 80.6729 86.4929H76.0729C71.4872 86.4929 62.2543 86.2129 62.2543 86.2129C61.5029 86.1986 60.9572 86.0486 60.9572 86.4914C60.9572 89.5729 64.48 94.2343 69.8629 94.2343C74.0958 94.2343 76.8386 91.6229 77.4272 90.9886C77.4272 90.9886 82.2915 90.4429 85.4186 90.4429C88.4558 90.4429 92.9243 90.9143 92.9243 92.6286C92.9243 95.9743 81.9672 101.239 72.7815 101.239C58.9329 101.239 46.4729 93.7914 46.4729 84.8243C46.4729 69.7986 75.7872 58.4743 84.3415 58.4743C92.0386 58.4743 93.0843 70.61 93.0843 75.05H93.09ZM129.823 74.7257C128.776 74.7257 127.227 74.8886 126.52 75.8472C123.896 79.4614 122.156 88.47 122.156 90.9757C122.156 92.6872 123.35 92.5843 124.956 92.5843C125.901 92.5843 127.406 92.5986 128.26 91.7272C130.56 89.3386 132.567 78.5443 132.567 76.5986C132.567 75.2129 132.464 74.7243 129.824 74.7243L129.823 74.7257ZM147.209 74.24C147.209 78.3543 143.109 87.3929 141.783 89.9C136.269 100.4 128.909 100.326 120.591 100.326C116.52 100.326 107.453 100.383 107.453 92.8486C107.453 89.4714 110.431 83.3057 112.864 77.4529C113.897 74.96 118.307 66.6 133.333 66.6C139.526 66.6 147.21 67.5572 147.21 74.2386L147.209 74.24Z" fill="#EA1C0A"/>
</svg>
