<svg width="241" height="161" viewBox="0 0 241 161" fill="none" xmlns="http://www.w3.org/2000/svg">
<path d="M162.593 92.4353C156.678 92.4353 153.003 89.0093 153.003 83.4872C153.003 77.756 156.395 74.1904 161.855 74.1904H162.313C162.998 74.1904 163.942 74.2127 165.23 74.3736V67.4558H169.087V91.8118C169.087 91.8118 165.422 92.4353 162.593 92.4353ZM162.558 77.2275C158.822 77.2275 157.005 79.2444 157.005 83.3911C157.005 87.1142 159.197 89.4284 162.719 89.4284C163.396 89.4284 164.172 89.3837 165.229 89.2932V77.4755C164.173 77.3057 163.321 77.2275 162.558 77.2275V77.2275ZM109.757 91.8766L99.3368 73.6931L99.3335 91.8766H95.7019V68.857H100.786L111.206 86.8785L111.201 68.857H114.881V91.8766H109.757ZM142.947 92.2308C141.192 92.2308 139.363 92.0341 137.185 91.6151L136.95 91.5704V88.3545L137.294 88.4283C139.215 88.8384 140.873 89.1881 142.532 89.1881C143.872 89.1881 146.993 88.9781 146.993 87.0058C146.993 85.3521 144.836 84.9364 143.104 84.6046L142.995 84.5822C142.671 84.5219 142.366 84.4604 142.109 84.3956C139.568 83.7363 136.857 82.7452 136.857 79.3405C136.857 76.0196 139.485 74.1166 144.069 74.1166C146.269 74.1166 147.865 74.3513 149.149 74.5435L149.773 74.6351V77.756L149.441 77.6957C147.988 77.4286 146.285 77.1537 144.649 77.1537C142.828 77.1537 140.668 77.4945 140.668 79.1136C140.668 80.4579 142.436 80.8423 144.483 81.2881C147.346 81.9071 150.895 82.6849 150.895 86.5913C150.895 90.1748 148.001 92.2308 142.947 92.2308ZM179.916 92.2308C175.923 92.2308 172.226 91.5268 172.226 86.4293C172.226 80.8814 177.944 80.8814 181.362 80.8814C181.701 80.8814 183.308 80.9562 183.801 80.9775C183.797 77.8655 183.758 77.1236 179.244 77.1236C177.455 77.1236 175.469 77.4767 173.714 77.7918L173.379 77.8521V74.7793L173.605 74.7312C175.638 74.3178 177.6 74.1166 179.599 74.1166C183.972 74.1166 187.677 74.5569 187.677 79.983V91.8163L187.411 91.8464C184.382 92.1861 181.977 92.2308 179.917 92.2308H179.916ZM181.266 83.6268C177.969 83.6268 175.927 84.1118 175.927 86.5254C175.927 89.3189 178.533 89.5502 180.977 89.5502C181.889 89.5502 183.531 89.4328 184.032 89.3971V83.7229C183.326 83.6928 181.488 83.6268 181.266 83.6268V83.6268ZM125.792 92.2308C121.794 92.2308 118.098 91.5268 118.098 86.4293C118.098 80.8814 123.816 80.8814 127.233 80.8814C127.574 80.8814 129.184 80.9562 129.678 80.9775C129.673 77.8655 129.63 77.1236 125.116 77.1236C123.326 77.1236 121.34 77.4767 119.585 77.7918L119.25 77.8521V74.7793L119.481 74.7312C121.452 74.3238 123.458 74.1179 125.471 74.1166C129.843 74.1166 133.549 74.5569 133.549 79.983V91.8163L133.282 91.8464C130.254 92.1861 127.848 92.2308 125.792 92.2308V92.2308ZM127.137 83.6268C123.841 83.6268 121.803 84.1118 121.803 86.5254C121.803 89.3189 124.405 89.5502 126.849 89.5502C127.766 89.5502 129.407 89.4328 129.909 89.3971V83.7229C129.197 83.6928 127.36 83.6268 127.138 83.6268" fill="#231F20"/>
<mask id="mask0" mask-type="alpha" maskUnits="userSpaceOnUse" x="190" y="73" width="17" height="27">
<path d="M190.196 73.0734H206.987V99.891H190.196V73.0734Z" fill="white"/>
</mask>
<g mask="url(#mask0)">
<path d="M203.037 99.699V92.1476C201.532 92.3576 200.733 92.3576 200.087 92.3576C198.558 92.3576 196.861 92.0258 195.547 91.4715C192.605 90.248 190.851 87.1416 190.851 83.1558C190.851 81.1669 191.336 77.5297 194.578 75.5698C196.206 74.5977 198.127 74.182 201.017 74.182C202.05 74.182 203.447 74.2602 204.796 74.3384L206.987 74.4524V97.9491L203.037 99.699V99.699ZM200.728 77.2202C196.809 77.2191 194.822 79.2192 194.822 83.1558C194.822 88.2244 197.785 89.2893 200.277 89.2893C200.884 89.2893 201.565 89.2893 203.075 89.0971V77.3297C201.893 77.2515 201.346 77.2202 200.727 77.2202H200.728Z" fill="#231F20"/>
</g>
<mask id="mask1" mask-type="alpha" maskUnits="userSpaceOnUse" x="62" y="55" width="31" height="38">
<path d="M62.8123 55.2124H92.9821V92.0687H62.8123V55.2124Z" fill="white"/>
</mask>
<g mask="url(#mask1)">
<path d="M78.4692 55.2128L65.7108 90.2656C65.553 90.6972 65.2769 91.0757 64.9141 91.3577C64.5513 91.6397 64.1164 91.8138 63.6592 91.8601V91.8769H77.1462C78.2022 91.8769 79.1062 91.2053 79.4425 90.2667L92.2054 55.2128H78.4692Z" fill="#0996C7"/>
</g>
<path d="M62.5587 91.3446C63.3409 91.3446 64.0258 90.9558 64.4448 90.3669C64.4884 90.3054 64.6415 90.0909 64.7499 89.7993L69.4296 76.9358L66.6919 69.4235C66.5325 69.0431 66.2742 68.7122 65.9438 68.4652C65.6135 68.2182 65.2231 68.064 64.8131 68.0187C64.4031 67.9733 63.9885 68.0384 63.6121 68.2072C63.2358 68.376 62.9114 68.6424 62.6726 68.9787C62.628 69.0402 62.4458 69.314 62.3676 69.5464L57.6879 82.4054L60.4378 89.9479C60.6162 90.3624 60.9122 90.7157 61.2891 90.9639C61.666 91.2121 62.1074 91.3445 62.5587 91.3446" fill="#0996C7"/>
<mask id="mask2" mask-type="alpha" maskUnits="userSpaceOnUse" x="33" y="66" width="31" height="39">
<path d="M33.7599 66.3689H63.9297V104.134H33.7599V66.3689Z" fill="white"/>
</mask>
<g mask="url(#mask2)">
<path d="M63.5587 67.4685H49.9231C48.8672 67.4685 47.9632 68.1367 47.6224 69.0798L34.8639 104.133H48.6001L61.3597 69.0809C61.5252 68.6249 61.8227 68.2285 62.2144 67.9421C62.606 67.6557 63.074 67.4924 63.5587 67.473V67.4685Z" fill="#0996C7"/>
</g>
</svg>
