<svg width="241" height="161" viewBox="0 0 241 161" fill="none" xmlns="http://www.w3.org/2000/svg">
<path d="M82.5599 57.7443V63.2443H95.8599V102.244H101.46V63.2443H114.76V57.7443H82.5599Z" fill="#656F75"/>
<path d="M71.0599 77.0443H52.9599H51.4599L52.2599 75.3443C52.2599 75.3443 57.3599 63.3443 66.0599 63.3443H70.9599L71.0599 77.0443ZM66.1599 57.7443C53.8599 57.7443 47.6599 72.0443 47.1599 73.1443C47.1599 73.2443 36.4599 96.2443 33.7599 102.144H39.9599L48.9599 82.7443H71.1599C71.1599 90.0443 71.1599 97.6443 71.1599 102.144H76.7599V57.6443L66.1599 57.7443Z" fill="#656F75"/>
<path d="M170.36 62.9443H175.26C184.06 62.9443 189.06 74.9443 189.06 74.9443L189.86 76.6443H188.36H170.26L170.36 62.9443ZM164.96 57.7443V102.244H170.56V82.7443H192.76L201.76 102.144H207.96C205.26 96.2443 194.56 73.1443 194.56 73.1443C194.06 71.9443 187.96 57.7443 175.56 57.7443H164.96V57.7443Z" fill="#656F75"/>
<path fill-rule="evenodd" clip-rule="evenodd" d="M137.16 57.7443C124.66 57.7443 114.56 67.7443 114.56 80.1443C114.56 92.5443 124.66 102.544 137.16 102.544C143.36 102.544 149.56 99.7443 153.86 95.0443C154.26 94.5443 154.56 93.8443 154.56 93.1443C154.56 91.6443 153.26 90.3443 151.66 90.3443C150.86 90.3443 150.06 90.6443 149.56 91.2443C146.26 94.7443 141.66 96.8443 137.16 96.8443C127.86 96.8443 120.26 89.3443 120.26 80.1443C120.26 70.9443 127.86 63.4443 137.16 63.4443C141.66 63.4443 146.26 65.5443 149.56 69.0443C150.06 69.6443 150.86 69.9443 151.66 69.9443C153.26 69.9443 154.56 68.7443 154.56 67.1443C154.56 66.4443 154.36 65.7443 153.86 65.2443C149.56 60.6443 143.36 57.7443 137.16 57.7443ZM129.36 76.0443H151.86C153.56 76.0443 154.96 77.4443 154.96 79.0443C154.96 80.7443 153.56 82.0443 151.86 82.0443H151.76H129.46H129.36C127.66 82.0443 126.26 80.7443 126.26 79.0443C126.26 77.3443 127.66 76.0443 129.36 76.0443Z" fill="#63B91B"/>
</svg>
