<svg width="241" height="161" viewBox="0 0 241 161" fill="none" xmlns="http://www.w3.org/2000/svg">
<path fill-rule="evenodd" clip-rule="evenodd" d="M167.75 61.1927L159.421 74.6897H176.052L167.75 61.1927ZM190.099 61.1377L206.207 85.1629C206.564 85.6851 206.344 86.4273 205.575 86.4548H184.931C183.584 86.4548 183.144 86.2074 182.567 85.2728L178.993 79.4727H156.48L152.769 85.4927C152.329 86.2074 152.109 86.4548 151.23 86.4548H144.88C144.055 86.4548 143.918 85.7951 144.275 85.2453L160.768 60.5605C160.827 60.4733 160.886 60.3856 160.945 60.2973C162.656 57.7416 164.634 54.7878 173.111 54.7878H176.547C185.068 54.7878 186.635 56.0798 190.099 61.1377ZM58.6478 73.59C58.6478 73.59 54.6894 73.5625 54.6069 73.5625V59.8457H58.6753C63.6782 59.8457 69.0385 61.2751 69.0385 66.8553C69.0385 72.4355 63.7057 73.59 58.6478 73.59ZM60.8194 54.9527H48.5869C39.1858 54.9527 34.9525 58.1139 34.9525 66.3055V85.4376C34.9525 85.9874 35.4473 86.4547 36.0521 86.4547H53.5349C54.1396 86.4547 54.6069 86.0149 54.6069 85.4376V78.483H60.7919C79.0444 78.483 89.6 76.0915 89.6 66.7453C89.6 57.3442 79.0444 54.9527 60.8194 54.9527ZM113.488 54.9527C104.279 54.9527 99.9357 58.1963 99.9357 66.2505V85.4376C99.9357 85.9874 100.43 86.4547 101.008 86.4547H118.82C119.453 86.4547 119.892 86.0149 119.892 85.4376V75.8441H140.894C141.499 75.8441 141.966 75.3768 141.966 74.827V71.4184C141.966 70.8686 141.471 70.4013 140.894 70.4013H119.892V60.6428H144.385C144.99 60.6428 145.457 60.1755 145.457 59.6257V55.9697C145.457 55.365 145.017 54.9527 144.357 54.9527H113.488Z" fill="#A4293D"/>
<path fill-rule="evenodd" clip-rule="evenodd" d="M167.558 99.9514C167.558 102.783 169.894 103.195 171.296 103.195C172.671 103.195 175.007 102.783 175.007 99.9514C175.007 97.1201 172.698 96.7078 171.296 96.7078C169.922 96.7078 167.558 97.1201 167.558 99.9514ZM165.194 99.9239C165.194 97.0101 167.475 95.2509 171.296 95.2509C175.117 95.2509 177.399 97.0101 177.399 99.9239C177.399 102.838 175.117 104.597 171.296 104.597C167.475 104.597 165.194 102.838 165.194 99.9239ZM117.199 97.8897C117.199 99.8586 119.266 100.25 121.29 100.633L121.322 100.639L122.064 100.776C123.191 100.996 123.878 101.271 123.878 101.848C123.878 102.783 122.174 103.113 120.717 103.113C119.618 103.113 117.171 102.755 117.171 102.755V104.295C117.171 104.295 119.233 104.569 120.745 104.569C125.445 104.569 126.16 102.755 126.16 101.656C126.16 99.8414 124.016 99.429 122.119 99.0992L121.212 98.9342C120.085 98.6868 119.37 98.4119 119.37 97.8072C119.37 97.0375 120.855 96.7626 122.229 96.7626C123.026 96.7626 125.198 97.0375 125.198 97.0375V95.5806C125.198 95.5806 123.054 95.2782 122.009 95.2782C118.958 95.2782 117.199 96.2403 117.199 97.8897ZM61.7814 95.4433V104.432H70.1105V103.003H64.0355V100.529H68.5986V99.1268H64.0355V96.8453H70.028V95.4433H61.7814ZM96.5821 95.4433L96.6921 102.288L90.9194 95.4433H88.1706V104.432H90.2597L90.1498 97.5325L95.9224 104.432H98.6712V95.4433H96.5821ZM204.365 102.288L204.255 95.4433H206.372V104.432H203.596L197.823 97.5325L197.933 104.432H195.844V95.4433H198.593L204.365 102.288ZM144.385 95.4157H146.694V104.404H144.385V95.4157ZM38.9658 99.8415H37.234V96.8453H39.0208C40.6701 96.8453 41.6872 97.0927 41.6872 98.2747C41.6597 99.3742 40.8625 99.8415 38.9658 99.8415ZM39.1032 95.4433H34.9524V104.432H37.234V101.243H39.1032C43.364 101.243 43.9962 99.3742 43.9962 98.2472C43.9962 96.3505 42.4019 95.4433 39.1032 95.4433Z" fill="#000100"/>
</svg>
