<svg width="241" height="161" viewBox="0 0 241 161" fill="none" xmlns="http://www.w3.org/2000/svg">
<g clip-path="url(#clip0)">
<path d="M66.9539 64.4905L63.0016 85.6634L53.1206 95.6985L56.1947 75.4078L66.9539 64.4905Z" fill="url(#paint0_linear)"/>
<path d="M44.0084 87.538L66.9542 64.4904C67.6129 60.8513 64.3193 58.4252 62.4529 58.0944C61.5746 57.9841 60.9158 58.5355 60.9158 58.5355L38.0798 81.4729C38.0798 81.4729 36.982 82.5756 39.9462 85.5531C42.9105 88.6408 44.0084 87.538 44.0084 87.538Z" fill="url(#paint1_linear)"/>
<path d="M70.3574 74.5255L72.2238 76.4002L53.1206 95.6984C52.4619 99.3375 55.7555 101.764 57.6219 102.094C58.5002 102.315 59.0492 101.764 59.0492 101.764L78.2621 82.4654L80.1285 84.34V74.5255H70.3574Z" fill="url(#paint2_linear)"/>
<path d="M100.439 84.5606V73.2022C100.439 70.6659 99.1219 69.5631 96.5967 69.5631C95.1695 69.5631 93.4129 70.2248 92.6444 71.5481V84.5606H89.8997V67.3576L91.8758 67.2473L92.315 69.0117H92.4248C93.6325 67.6884 95.4989 66.9165 97.3653 66.9165C100.988 66.9165 103.184 69.0117 103.184 73.0919V84.5606H100.439Z" fill="black"/>
<path d="M114.163 84.8914C109.003 84.8914 106.697 82.3551 106.697 75.9591C106.697 69.5631 109.003 67.0267 114.163 67.0267C119.323 67.0267 121.519 69.5631 121.519 75.9591C121.519 82.3551 119.323 84.8914 114.163 84.8914ZM114.163 82.5756C117.457 82.5756 118.774 80.9215 118.774 75.9591C118.774 70.9967 117.457 69.3425 114.163 69.3425C110.759 69.3425 109.552 70.9967 109.552 75.9591C109.442 80.9215 110.759 82.5756 114.163 82.5756Z" fill="black"/>
<path d="M136.669 67.3575L139.744 80.1495L140.293 82.4653H140.402L140.841 80.1495L143.586 67.3575H146.221L142.049 84.5606H138.646L135.791 72.4302L135.352 70.1144H135.242L134.693 72.4302L131.729 84.5606H128.435L124.044 67.3575H126.789L129.643 80.0392L130.082 82.355H130.192L130.631 80.0392L133.705 67.3575H136.669V67.3575Z" fill="black"/>
<path d="M159.066 82.4653C157.968 83.8989 156.102 84.7811 153.906 84.7811C150.722 84.7811 148.636 83.127 148.636 79.2673C148.636 76.0693 150.722 74.0844 154.785 74.0844C156.212 74.0844 157.639 74.4152 158.737 74.746V73.0919C158.737 70.335 157.529 69.4528 154.785 69.4528C153.028 69.4528 151.491 69.7836 149.954 70.4453L149.734 68.1295C151.381 67.3576 153.248 67.0267 155.224 67.0267C159.725 67.0267 161.482 68.9014 161.482 73.4227V84.5606H159.396L159.066 82.4653ZM158.737 76.731C158.298 76.5104 157.09 76.0693 155.334 76.0693C152.479 76.0693 151.271 77.1721 151.271 79.2673C151.271 81.6934 152.699 82.5756 154.675 82.5756C156.761 82.5756 158.737 81.142 158.737 79.7084V76.731Z" fill="black"/>
<path d="M170.374 84.8915C168.289 84.8915 166.422 84.4504 165.105 83.4579L165.434 81.1421C166.751 82.1346 168.728 82.686 170.265 82.686C172.79 82.686 173.778 81.4729 173.778 79.8188C173.778 75.9591 164.995 77.7236 164.995 71.9892C164.995 69.122 167.081 67.1371 170.923 67.1371C172.57 67.1371 174.217 67.4679 175.535 68.1296L175.315 70.4454C173.888 69.894 172.241 69.5631 170.814 69.5631C168.728 69.5631 167.52 70.4454 167.52 71.8789C167.52 75.518 176.193 73.6434 176.193 79.5982C176.413 82.686 174.656 84.8915 170.374 84.8915Z" fill="black"/>
<path d="M183.439 69.4528V80.0393C183.439 81.8037 184.427 82.5757 185.964 82.5757C186.404 82.5757 187.062 82.4654 187.392 82.3551L187.611 84.4503C187.062 84.6709 186.184 84.8914 185.196 84.8914C182.232 84.8914 180.695 83.2373 180.695 80.1496V69.4528H178.279V67.3576H180.804L181.353 63.0569L183.439 62.8363V67.3576H187.611V69.4528H183.439V69.4528Z" fill="black"/>
<path d="M189.697 75.518C189.697 70.1145 192.003 67.1371 196.724 67.1371C200.786 67.1371 203.421 69.5631 203.421 75.0769C203.421 75.518 203.421 76.0694 203.311 76.4002H192.332C192.442 80.9215 194.089 82.4654 197.822 82.4654C199.578 82.4654 201.005 82.1346 202.433 81.3626L202.762 83.6784C201.335 84.4504 199.578 85.0017 197.492 85.0017C192.003 84.8915 189.697 81.914 189.697 75.518ZM201.005 74.4153C200.896 70.7762 199.249 69.3426 196.834 69.3426C193.979 69.3426 192.662 70.9967 192.442 74.4153H201.005Z" fill="black"/>
<path d="M93.9618 96.691V97.3527H89.7899V90.0745H90.4486V96.691H93.9618Z" fill="black"/>
<path d="M102.416 97.463C100.33 97.463 99.561 96.3602 99.561 93.7136C99.561 91.067 100.33 89.9642 102.416 89.9642C104.502 89.9642 105.27 90.9567 105.27 93.7136C105.27 96.3602 104.502 97.463 102.416 97.463ZM102.416 90.6259C100.878 90.6259 100.22 91.2875 100.22 93.7136C100.22 96.1397 100.878 96.8013 102.416 96.8013C103.953 96.8013 104.611 96.1397 104.611 93.7136C104.611 91.2875 103.953 90.6259 102.416 90.6259Z" fill="black"/>
<path d="M116.578 97.0219C116.029 97.2424 115.261 97.463 114.492 97.463C112.296 97.463 111.418 96.3602 111.418 93.7136C111.418 91.067 112.406 89.9642 114.602 89.9642C115.261 89.9642 116.029 90.0745 116.468 90.2951L116.359 90.8464C115.919 90.6259 115.261 90.5156 114.602 90.5156C112.845 90.5156 112.077 91.2875 112.077 93.7136C112.077 96.0294 112.845 96.8013 114.492 96.8013C115.041 96.8013 115.59 96.6911 116.029 96.5808V93.4931H116.578V97.0219V97.0219Z" fill="black"/>
<path d="M123.166 90.0745H123.824V97.2424H123.166V90.0745Z" fill="black"/>
<path d="M132.388 97.463C131.619 97.463 130.851 97.2425 130.302 96.9116L130.412 96.3603C130.96 96.6911 131.619 96.9116 132.388 96.9116C133.486 96.9116 134.144 96.3603 134.144 95.4781C134.144 93.4931 130.412 94.3753 130.412 92.0595C130.412 90.9567 131.07 90.1848 132.607 90.1848C133.266 90.1848 133.925 90.2951 134.474 90.5156L134.364 91.067C133.815 90.8465 133.266 90.7362 132.717 90.7362C131.509 90.7362 131.07 91.2876 131.07 92.0595C131.07 93.9342 134.803 93.052 134.803 95.4781C134.693 96.5808 133.925 97.463 132.388 97.463Z" fill="black"/>
<path d="M142.927 90.7361V97.3527H142.269V90.7361H140.073V90.0745H145.233V90.7361H142.927Z" fill="black"/>
<path d="M151.271 90.0745H151.93V97.2424H151.271V90.0745Z" fill="black"/>
<path d="M163.129 90.9567C162.689 90.7361 162.14 90.6258 161.591 90.6258C159.945 90.6258 159.176 91.3978 159.176 93.7136C159.176 96.1396 159.945 96.9116 161.591 96.9116C162.14 96.9116 162.689 96.8013 163.129 96.5807L163.238 97.1321C162.799 97.3527 162.14 97.5732 161.482 97.5732C159.396 97.5732 158.517 96.3602 158.517 93.7136C158.517 91.1772 159.505 90.0745 161.591 90.0745C162.14 90.0745 162.909 90.1847 163.238 90.4053L163.129 90.9567Z" fill="black"/>
<path d="M171.143 97.463C170.265 97.463 169.606 97.2425 169.057 96.9116L169.167 96.3603C169.716 96.6911 170.375 96.9116 171.143 96.9116C172.241 96.9116 172.9 96.3603 172.9 95.4781C172.9 93.4931 169.167 94.3753 169.167 92.0595C169.167 90.9567 169.826 90.1848 171.363 90.1848C172.021 90.1848 172.68 90.2951 173.229 90.5156L173.119 91.067C172.57 90.8465 172.021 90.7362 171.472 90.7362C170.265 90.7362 169.826 91.2876 169.826 92.0595C169.826 93.9342 173.558 93.052 173.558 95.4781C173.449 96.5808 172.68 97.463 171.143 97.463Z" fill="black"/>
<path d="M191.564 95.3677H188.16L187.502 97.2424H186.843L189.587 90.0745H190.356L193.101 97.2424H192.442L191.564 95.3677ZM189.587 91.2875L188.27 94.8163H191.344L190.136 91.2875L189.917 90.5156L189.587 91.2875Z" fill="black"/>
<path d="M201.664 97.2424H199.029V90.0745H201.554C202.872 90.0745 203.531 90.6258 203.531 91.8389C203.531 92.8314 203.091 93.2725 202.433 93.493C203.311 93.7136 203.75 94.2649 203.75 95.2574C203.86 96.5807 203.201 97.2424 201.664 97.2424ZM201.664 93.8238H199.688V96.691H201.774C202.762 96.691 203.311 96.2499 203.311 95.1471C203.201 94.2649 202.652 93.8238 201.664 93.8238ZM201.445 90.6258H199.578V93.2725H201.554C202.433 93.2725 202.872 92.8314 202.872 91.9491C202.872 91.0669 202.433 90.6258 201.445 90.6258Z" fill="black"/>
</g>
<defs>
<linearGradient id="paint0_linear" x1="56.099" y1="74.6972" x2="71.1361" y2="95.2165" gradientUnits="userSpaceOnUse">
<stop offset="0.00321807" stop-color="#6A931D"/>
<stop offset="0.0487377" stop-color="#81AB1F"/>
<stop offset="0.1009" stop-color="#95BE20"/>
<stop offset="0.1618" stop-color="#A4CC21"/>
<stop offset="0.2391" stop-color="#ADD421"/>
<stop offset="0.3871" stop-color="#B0D621"/>
<stop offset="0.6007" stop-color="#78A619"/>
<stop offset="0.7624" stop-color="#598913"/>
</linearGradient>
<linearGradient id="paint1_linear" x1="56.5971" y1="68.7805" x2="37.6353" y2="88.216" gradientUnits="userSpaceOnUse">
<stop offset="0.3792" stop-color="#B0D621"/>
<stop offset="0.5149" stop-color="#A3CD1F"/>
<stop offset="0.7224" stop-color="#82B41B"/>
<stop offset="0.871" stop-color="#679E16"/>
</linearGradient>
<linearGradient id="paint2_linear" x1="60.1202" y1="95.1817" x2="79.0653" y2="75.6206" gradientUnits="userSpaceOnUse">
<stop offset="0.2049" stop-color="#B0D621"/>
<stop offset="1" stop-color="#679E16"/>
</linearGradient>
<clipPath id="clip0">
<rect x="37.86" y="58.0945" width="166" height="44" fill="white"/>
</clipPath>
</defs>
</svg>
