<svg width="240" height="160" viewBox="0 0 240 160" fill="none" xmlns="http://www.w3.org/2000/svg">
<g clip-path="url(#clip0_684_40944)">
<path d="M102.3 42.975L90.825 58.95V70.95L79.5 86.625L68.25 70.95V58.95L56.775 42.975L45.525 58.95V116.4H113.625V58.95L102.3 42.975Z" fill="#00629B"/>
<path d="M59.55 110.7C54.75 110.7 51.975 107.25 51.975 101.175C51.975 95.025 54.825 90.975 59.1 90.975C62.85 90.975 65.1 94.275 65.1 99.75C65.1 100.65 65.1 101.325 65.025 101.85H55.8V102C55.875 105.825 57.375 107.7 60.3 107.7C61.725 107.7 62.925 107.4 63.675 107.1L64.2 109.875C63.075 110.4 61.275 110.7 59.55 110.7ZM58.8 93.825C56.925 93.825 55.95 96.45 55.875 99V99.15H61.5V99C61.5 96.9 61.05 95.325 60.225 94.425C59.775 93.975 59.325 93.825 58.8 93.825Z" fill="white"/>
<path d="M80.6251 109.65C80.5501 108.225 80.4751 106.65 80.4751 104.925V91.275H76.5001V103.8C76.5001 104.475 76.4251 105.075 76.2751 105.525C76.0501 106.425 75.2251 107.55 73.9501 107.55C71.7751 107.55 71.5501 104.775 71.5501 102.675V91.275H67.5751V103.2C67.5751 108.375 69.1501 110.85 72.4501 110.85C74.4751 110.85 76.2751 109.575 77.0251 108.45L77.2501 110.475H80.6251V109.65Z" fill="white"/>
<path d="M91.8 90.9C90.225 90.9 88.275 92.25 87.525 94.2L87.3 91.275H83.85V92.025C83.925 93.45 84 95.1 84 96.6V110.475H87.975V100.275C87.975 99.525 88.05 98.85 88.125 98.4C88.575 96.375 90.075 94.95 91.725 94.95C92.025 94.95 92.25 94.95 92.475 94.95V90.975C92.325 90.975 92.1 90.9 91.8 90.9Z" fill="white"/>
<path d="M100.35 110.775C96.075 110.775 93.525 107.1 93.525 100.875C93.525 97.65 94.275 95.025 95.7 93.3C96.9 91.8 98.625 90.975 100.5 90.975C104.625 90.975 107.25 94.725 107.25 100.875C107.175 110.325 101.475 110.775 100.35 110.775ZM100.425 93.9C97.875 93.9 97.5 98.25 97.5 100.8C97.5 105.375 98.55 107.775 100.5 107.775C101.55 107.775 103.275 106.875 103.275 100.8C103.275 98.775 102.975 93.9 100.425 93.9Z" fill="white"/>
<path d="M130.275 110.475V94.05H124.95V110.475H120.975V94.05H118.425V91.275H120.975V90C120.975 88.8 121.35 82.725 128.775 82.725C130.575 82.725 132 83.1 132.825 83.55L132.15 86.625C131.4 86.325 130.275 85.95 128.775 85.95C126.15 85.95 124.8 87.375 124.8 90.3V91.275H134.25V110.475H130.275V110.475Z" fill="#1D1D1B"/>
<path d="M145.875 90.9C144 90.9 141.975 91.875 141 93.525L140.775 91.2H137.4C137.4 91.575 137.4 91.95 137.475 92.325C137.55 93.6 137.55 94.875 137.55 96.525V110.4H141.525V98.55C141.525 97.875 141.6 97.2 141.75 96.75C142.125 95.175 143.1 94.2 144.3 94.2C145.95 94.2 146.775 95.55 146.775 98.25V110.475H150.75V97.8C150.675 93.375 149.025 90.9 145.875 90.9Z" fill="#1D1D1B"/>
<path d="M165.45 106.2V98.325C165.45 93.225 163.5 90.9 159.3 90.9C156.9 90.9 154.95 91.725 154.125 92.175L154.875 94.8C156 94.125 157.125 93.825 158.4 93.825C160.425 93.825 161.475 95.1 161.475 97.425V98.1H161.325C159 98.1 156.9 98.7 155.4 99.825C153.675 101.1 152.775 102.9 152.775 105.15C152.775 108.375 154.8 110.775 157.5 110.775C159.15 110.775 160.95 109.95 161.85 108.45L162.075 110.475H165.6C165.525 109.35 165.45 108 165.45 106.2ZM161.55 104.475C161.55 104.925 161.55 105.225 161.475 105.525C161.1 106.95 160.125 107.85 158.85 107.85C157.725 107.85 156.6 106.875 156.6 104.7C156.6 101.25 159.675 100.65 161.475 100.65H161.625V104.475H161.55Z" fill="#1D1D1B"/>
<path d="M177 90.9C175.125 90.9 173.1 91.875 172.125 93.525L171.9 91.2H168.525C168.525 91.575 168.525 91.95 168.6 92.325C168.675 93.6 168.675 94.875 168.675 96.525V110.4H172.65V98.55C172.65 97.875 172.725 97.2 172.875 96.75C173.25 95.175 174.225 94.2 175.425 94.2C177.075 94.2 177.9 95.55 177.9 98.25V110.475H181.875V97.8C181.8 93.375 180.075 90.9 177 90.9Z" fill="#1D1D1B"/>
<path d="M188.1 110.7C186.6 110.7 184.95 110.25 184.125 109.65L184.875 106.8C185.7 107.25 186.9 107.7 188.175 107.7C189.825 107.7 190.8 106.8 190.8 105.3C190.8 103.95 190.2 103.125 188.325 102C185.7 100.425 184.425 98.6249 184.425 96.525C184.425 93.2249 186.9 90.825 190.2 90.825C191.475 90.825 192.6 91.125 193.725 91.725L192.975 94.575C192.15 94.05 191.25 93.825 190.425 93.825C188.775 93.825 188.025 94.95 188.025 96C188.025 97.125 188.55 97.8 190.425 99C193.05 100.575 194.325 102.45 194.325 104.775C194.4 108.45 192 110.7 188.1 110.7Z" fill="#1D1D1B"/>
</g>
<defs>
<clipPath id="clip0_684_40944">
<rect width="150" height="75" fill="white" transform="translate(45 42)"/>
</clipPath>
</defs>
</svg>
