<svg width="241" height="161" viewBox="0 0 241 161" fill="none" xmlns="http://www.w3.org/2000/svg">
<path d="M88.7435 65.5231L81.2655 71.0608C77.7281 68.0369 73.1827 67.454 70.6717 67.454C68.1241 67.454 65.4848 68.1827 65.0816 69.9861C64.6783 71.7348 66.3279 73.101 69.1505 73.8661C72.3763 74.7222 75.2905 75.4873 79.8176 76.7625C86.5258 78.6751 91.1262 81.5533 91.1262 88.2386C91.1262 97.4559 82.8967 102.247 71.8447 102.247C60.811 102.247 53.2781 96.5269 51.042 93.8674L58.9416 88.0018C64.4951 92.8108 68.344 93.4848 71.5698 93.4848C75.2721 93.4848 78.7362 92.7015 79.1761 90.6249C79.5427 88.949 78.1497 87.6192 74.9972 86.8906C71.4232 86.0709 68.4173 85.4151 65.0632 84.5407C55.954 82.1726 53.3881 76.9082 53.3881 72.1902C53.3881 65.6871 59.4914 59.0018 70.6351 59.0018C82.0536 59.02 88.7435 65.5231 88.7435 65.5231ZM136.379 59.6758H103.058V101.045H136.984V91.4993H114.77V84.8322H130.074V75.7059H114.77V69.1117H136.379V59.6758ZM94.4436 110.608H97.0279V50.1123H94.4436V110.608ZM141.364 110.608H143.949V50.1123H141.364V110.608ZM149.96 101.045H176.72C183.868 101.045 189.678 96.7637 189.678 89.8963C189.678 84.5407 186.159 80.9886 181.21 79.422C181.21 79.422 181.009 79.3674 180.734 79.3674C181.009 79.3491 181.21 79.2763 181.21 79.2763C184.033 78.1651 187.185 75.1959 187.185 70.15C187.185 63.7379 181.485 59.6575 174.447 59.6575H149.96V101.045ZM161.727 68.2738H171.075C173.219 68.2738 174.96 69.9678 174.96 71.8988C174.96 73.8479 173.219 75.542 171.075 75.542H161.727V68.2738ZM173.146 91.8636H161.709V84.3221H173.146C175.162 84.3221 176.811 85.9434 176.811 88.0929C176.811 90.2241 175.18 91.8636 173.146 91.8636Z" fill="black"/>
</svg>
