<svg width="241" height="161" viewBox="0 0 241 161" fill="none" xmlns="http://www.w3.org/2000/svg">
<path fill-rule="evenodd" clip-rule="evenodd" d="M49.9093 73.0767C48.7248 72.6186 47.6265 72.3466 46.4563 72.3538C42.0844 72.3896 38.5093 75.8826 38.4232 80.2418C38.4078 81.0953 38.4107 81.9452 38.4136 82.7966V82.7966V82.7967V82.7967V82.7967V82.7967V82.7967V82.7968V82.7968V82.7968V82.7969V82.7969V82.797V82.7971V82.7972V82.7973V82.7973V82.7974V82.7975C38.4148 83.1382 38.416 83.4792 38.416 83.8207V84.7011C38.3252 84.6057 38.2478 84.527 38.1803 84.4584C38.0506 84.3265 37.9579 84.2321 37.8776 84.1285C33.1682 77.8725 36.3628 69.0611 43.8863 67.1643C45.681 66.7133 47.4829 66.7491 49.2848 67.1929C49.9452 67.3576 49.9596 67.379 49.9596 68.059V72.4253C49.955 72.544 49.9446 72.6626 49.9321 72.8054C49.925 72.8865 49.9171 72.9755 49.9093 73.0767ZM196.121 88.5306C195.856 87.8576 195.592 87.1873 195.329 86.5187C194.716 84.9614 194.107 83.414 193.494 81.8666C193.204 81.1406 192.921 80.4115 192.636 79.6772L192.636 79.6766L192.636 79.6761C192.058 78.1881 191.472 76.6788 190.809 75.131C190.579 76.2477 189.072 86.5121 189.23 88.3016H187.112C187.149 88.175 187.188 88.0531 187.227 87.9338C187.314 87.6618 187.397 87.4035 187.442 87.1348C187.607 86.147 187.744 85.1592 187.873 84.1643C188.246 81.3298 188.619 78.4952 188.971 75.6607C188.994 75.481 189.019 75.3011 189.045 75.1207L189.046 75.1193C189.168 74.2654 189.292 73.4006 189.079 72.4969H192.604C193.009 74.2291 193.666 75.85 194.321 77.4662C194.605 78.1674 194.889 78.8678 195.152 79.5761C195.564 80.6917 196 81.7974 196.436 82.9044L196.437 82.9067L196.438 82.9086L196.439 82.91L196.44 82.9127L196.441 82.915C196.641 83.4238 196.842 83.9329 197.04 84.4435C197.099 84.5889 197.167 84.7311 197.252 84.9078L197.252 84.9097C197.293 84.9934 197.336 85.0848 197.385 85.1879C197.428 85.1063 197.468 85.0352 197.504 84.9708C197.576 84.843 197.634 84.7414 197.672 84.6367C198.899 81.3298 200.127 78.0228 201.333 74.7087C201.503 74.2454 201.616 73.7592 201.732 73.2656C201.788 73.0273 201.844 72.7871 201.907 72.547C202.374 72.4253 204.506 72.3967 205.36 72.5184C205.174 73.6564 205.344 74.7708 205.514 75.8878C205.573 76.2743 205.632 76.6611 205.676 77.0493C205.963 79.5331 206.287 82.0169 206.631 84.4936C206.668 84.7643 206.698 85.0364 206.728 85.309V85.3092L206.728 85.3094L206.728 85.3096L206.728 85.3098C206.838 86.3125 206.949 87.3225 207.406 88.3016H204.599C204.774 87.2055 204.618 86.1629 204.463 85.1301C204.414 84.8005 204.365 84.4719 204.327 84.1428C204.108 82.3004 203.866 80.4619 203.624 78.6215L203.624 78.62L203.624 78.6197L203.624 78.6194L203.624 78.6192L203.624 78.6189L203.624 78.6187L203.624 78.6184C203.539 77.9788 203.455 77.3389 203.372 76.6986C203.33 76.3775 203.281 76.0564 203.23 75.7217L203.228 75.7063C203.209 75.5834 203.19 75.4587 203.171 75.3315C202.88 75.4069 202.82 75.6186 202.766 75.8104C202.753 75.8553 202.741 75.8991 202.726 75.9399C201.958 77.9651 201.204 79.9976 200.451 82.03L200.451 82.0301L200.45 82.0302L200.45 82.0304L200.45 82.0305L200.45 82.0306L200.45 82.0307L200.45 82.0309L200.45 82.031L200.45 82.0311L200.45 82.0312C200.294 82.449 200.133 82.8654 199.972 83.2819C199.601 84.2428 199.229 85.2041 198.914 86.1828C198.469 87.55 197.435 88.1369 196.121 88.5306ZM57.0092 80.5352C56.6144 78.9462 55.8678 77.5218 54.6689 76.1475C54.6589 76.287 54.6489 76.3865 54.6411 76.4645V76.4645L54.6411 76.4647L54.6411 76.4648L54.641 76.4649L54.641 76.4649C54.632 76.5546 54.6259 76.6159 54.6259 76.6771C54.6259 77.026 54.629 77.3756 54.6321 77.7253V77.7255V77.7256V77.7257V77.7258V77.7259V77.7261V77.7262V77.7263V77.7263V77.7263V77.7264V77.7264V77.7264V77.7264V77.7264V77.7265C54.6395 78.5675 54.647 79.41 54.6115 80.2489C54.5828 81.0005 54.5182 81.7807 54.3172 82.5037C53.1398 86.8199 48.9043 89.0388 45.279 88.366C44.8102 88.2792 44.3479 88.1568 43.8746 88.0315L43.8743 88.0314L43.8743 88.0314C43.6446 87.9706 43.4124 87.9091 43.1756 87.8506C43.1679 87.8888 43.1566 87.928 43.1452 87.9674C43.1246 88.0386 43.1038 88.1107 43.1038 88.1799C43.1002 88.978 43.1002 89.7761 43.1002 90.5742C43.1002 91.3723 43.1002 92.1704 43.0966 92.9685C43.0894 93.3407 43.2617 93.5054 43.6207 93.5984C45.2215 94.0207 46.8296 94.1066 48.452 93.8131C54.3459 92.7538 58.5886 86.9917 57.0092 80.5352ZM154.614 74.1248L154.614 74.1259C154.591 74.3146 154.57 74.492 154.57 74.6729C154.563 78.5096 154.556 82.3533 154.577 86.19C154.577 86.6681 154.634 87.1498 154.693 87.6475L154.693 87.6486C154.718 87.8583 154.743 88.0709 154.764 88.2872H151.921C152.217 87.2391 152.191 86.1993 152.165 85.1646C152.157 84.8426 152.149 84.5211 152.151 84.2001C152.172 81.0077 152.165 77.8081 152.151 74.6085C152.151 74.1404 152.106 73.6688 152.06 73.1752C152.039 72.9518 152.018 72.7239 152 72.4898C152.01 72.4875 152.022 72.4846 152.036 72.4813C152.111 72.4631 152.239 72.4325 152.366 72.4325C152.662 72.4325 152.957 72.4323 153.253 72.4321C154.728 72.4311 156.201 72.4301 157.678 72.454C158.195 72.4611 158.727 72.5542 159.229 72.6902C162.366 73.5205 162.84 76.3622 161.691 78.5453C161.239 79.4043 160.543 79.9984 159.66 80.3849C159.489 80.4585 159.324 80.5276 159.109 80.6171L159.108 80.6176L159.106 80.6184L159.105 80.6187L158.928 80.6927L159.343 81.2916C160.127 82.4229 160.886 83.5181 161.656 84.6081C161.835 84.8603 162.009 85.1166 162.185 85.3739C162.88 86.394 163.584 87.4283 164.628 88.2801C163.702 88.3731 162.897 88.3803 162.108 88.2085C161.584 88.094 161.254 87.7003 160.966 87.278C160.478 86.5586 159.99 85.8375 159.502 85.1163C159.014 84.3951 158.526 83.674 158.037 82.9546C157.859 82.6887 157.679 82.4238 157.499 82.1591L157.499 82.1585L157.498 82.1572L157.498 82.1569L157.497 82.1562L157.496 82.1549C157.208 81.7301 156.92 81.3058 156.638 80.8788C156.564 80.7687 156.495 80.6539 156.42 80.5292L156.42 80.5287L156.42 80.5286C156.363 80.4346 156.303 80.335 156.235 80.2275C156.352 80.1964 156.462 80.1692 156.568 80.1429C156.756 80.0965 156.93 80.0533 157.104 79.9984C158.274 79.6333 159.236 79.0321 159.66 77.8009C160.313 75.9041 159.33 74.2506 157.355 73.9357C156.472 73.8068 155.589 73.8068 154.642 73.8784C154.633 73.963 154.624 74.0445 154.614 74.124L154.614 74.1243L154.614 74.1246L154.614 74.1248ZM181.311 72.4683H179.064C179.37 73.3446 179.356 74.2155 179.342 75.0717C179.34 75.2016 179.338 75.3311 179.337 75.4603C179.344 77.6792 179.344 79.8982 179.337 82.1171C179.337 82.5896 179.316 83.0691 179.258 83.5416C179.036 85.4599 177.944 86.7125 176.164 86.9845C175.468 87.0847 174.728 87.0632 174.025 86.963C172.589 86.7626 171.706 85.8894 171.412 84.4792C171.29 83.878 171.218 83.2552 171.225 82.6397C171.242 81.5085 171.228 80.3773 171.215 79.2467V79.2464C171.187 76.9859 171.16 74.7275 171.376 72.4755H168.511C168.823 73.3263 168.815 74.1556 168.808 74.982V74.9822V74.9824V74.9826V74.9828C168.807 75.1086 168.806 75.2343 168.806 75.3601C168.809 76.4313 168.807 77.5013 168.805 78.5707V78.5715V78.5722V78.573V78.5738V78.5745V78.5753C168.803 80.1769 168.8 81.7769 168.813 83.3769C168.834 86.3832 170.335 88.1584 173.307 88.638C174.52 88.8384 175.74 88.7597 176.939 88.4734C179.086 87.958 180.414 86.6481 180.809 84.4649C180.945 83.7205 181.017 82.9546 181.031 82.1959C181.048 81.0108 181.045 79.8257 181.043 78.6405V78.6377C181.041 77.7479 181.039 76.8582 181.046 75.9685C181.047 75.7193 181.042 75.4697 181.036 75.2199V75.2191V75.2183V75.2175V75.2168V75.216V75.2152C181.016 74.304 180.996 73.3883 181.311 72.4683ZM144.29 78.8317V80.9432C143.089 80.6489 141.898 80.6712 140.691 80.6938C140.195 80.703 139.696 80.7124 139.193 80.6999V86.598C139.247 86.6102 139.3 86.6265 139.354 86.6427C139.457 86.6742 139.56 86.7053 139.66 86.7053C140.006 86.7069 140.352 86.71 140.698 86.713H140.698H140.698H140.698H140.698H140.698C141.908 86.7235 143.115 86.734 144.326 86.6839C144.796 86.6645 145.266 86.5505 145.754 86.4323C145.989 86.3754 146.227 86.3175 146.472 86.2687C146.461 86.3761 146.45 86.4853 146.439 86.5959C146.394 87.0607 146.345 87.5511 146.264 88.0367C146.243 88.1512 146.056 88.2729 145.919 88.323C145.83 88.3598 145.721 88.3542 145.613 88.3486L145.612 88.3486L145.576 88.3467L145.546 88.3455L145.524 88.3448C145.514 88.3446 145.505 88.3445 145.496 88.3445H137.176C137.045 88.3445 136.915 88.3304 136.768 88.3146L136.768 88.3146C136.681 88.3052 136.588 88.2952 136.486 88.2872C136.814 87.2177 136.789 86.1568 136.765 85.1077V85.1076V85.1075V85.1075V85.1074V85.1073C136.758 84.8015 136.75 84.4966 136.752 84.1929C136.774 81.022 136.766 77.851 136.752 74.6801C136.747 74.1759 136.695 73.6753 136.642 73.168C136.62 72.9623 136.598 72.7556 136.58 72.547C137.003 72.4182 145.022 72.3896 145.891 72.547V74.1576C145.59 74.1459 145.29 74.1326 144.99 74.1194C144.184 74.0838 143.377 74.0482 142.567 74.043C142.327 74.0415 142.088 74.038 141.848 74.0345L141.848 74.0345C140.967 74.0216 140.082 74.0087 139.179 74.0931V78.9176C139.925 79.1251 142.517 79.0822 144.29 78.8317ZM120.169 72.4683H116.852C117.656 73.2915 118.051 74.1862 118.41 75.0952C119.551 78.1207 120.685 81.1497 121.819 84.1798L121.82 84.1822L121.821 84.185L121.824 84.193L121.827 84.201L121.83 84.209C122.305 85.4776 122.78 86.7464 123.256 88.0152C123.319 88.1936 123.391 88.3688 123.467 88.5516L123.467 88.5518C123.504 88.6403 123.541 88.7307 123.579 88.8241C124.835 88.4376 125.855 87.8936 126.343 86.6123C127.42 83.7937 128.511 80.9835 129.602 78.1729L129.605 78.1653L129.608 78.1593L129.61 78.1529C130.276 76.4378 130.942 74.7225 131.605 73.0051C131.647 72.8985 131.667 72.7858 131.689 72.671L131.689 72.6709C131.7 72.6086 131.712 72.5456 131.727 72.4826H129.76C129.657 72.8097 129.563 73.1294 129.47 73.4429L129.47 73.4437L129.469 73.4442L129.469 73.4445L129.469 73.4447L129.469 73.4449C129.29 74.05 129.118 74.6325 128.906 75.2026C127.994 77.624 127.066 80.0412 126.138 82.4606L126.135 82.4682L126.131 82.4773L126.124 82.4951C125.836 83.2469 125.547 83.9989 125.259 84.7512C125.201 84.8952 125.134 85.0327 125.063 85.1767L125.062 85.1777C125.028 85.2482 124.993 85.3203 124.957 85.3955C124.918 85.3624 124.885 85.3394 124.859 85.3212C124.823 85.2961 124.8 85.2802 124.792 85.2595C124.684 85.0232 124.577 84.7799 124.491 84.5365C123.988 83.1166 123.454 81.7083 122.919 80.2983L122.919 80.2981C121.942 77.7208 120.962 75.1379 120.169 72.4683ZM106.787 74.4367C106.49 75.211 106.195 75.9684 105.904 76.7152L105.904 76.7155C105.289 78.295 104.692 79.8273 104.131 81.3727C103.894 82.0224 103.635 82.6651 103.377 83.3088L103.377 83.3089L103.376 83.3114L103.376 83.3121L103.376 83.3122L103.375 83.3122L103.375 83.3123C102.729 84.9226 102.079 86.5392 101.741 88.2872H99.142C100.027 87.1784 100.503 85.9156 100.974 84.6635L100.974 84.6633C101.13 84.2505 101.284 83.8388 101.454 83.4342C102.674 80.507 103.844 77.5655 105.014 74.624L105.014 74.6228C105.196 74.17 105.339 73.7012 105.487 73.2187L105.487 73.2185L105.487 73.2177L105.488 73.2142L105.489 73.2131C105.562 72.9729 105.637 72.7293 105.718 72.4826H108.388C108.42 72.5497 108.454 72.6192 108.49 72.6909L108.49 72.6911C108.56 72.8334 108.635 72.9841 108.697 73.1411L109.827 75.8922L109.827 75.8941C111.124 79.0515 112.421 82.2113 113.722 85.3668C113.752 85.4384 113.781 85.5101 113.811 85.5818C114.189 86.499 114.566 87.4159 115.259 88.1727C114.699 88.3731 112.775 88.4018 112.093 88.2443C111.214 85.3827 110.101 82.62 108.99 79.8598C108.358 78.291 107.727 76.7231 107.139 75.1382C107.1 75.0104 107.033 74.8893 106.937 74.7148C106.894 74.6351 106.844 74.5444 106.787 74.4367ZM91.7759 87.2402L91.7759 87.2407L91.7759 87.2411C91.7582 87.5813 91.7403 87.9248 91.7262 88.2729C92.5374 88.4018 94.0019 88.3731 94.4183 88.23C94.4032 87.981 94.3856 87.7346 94.3681 87.49L94.368 87.4898L94.368 87.4896C94.3271 86.9186 94.2869 86.3575 94.2819 85.7963C94.2604 83.5845 94.2388 81.3656 94.2819 79.1466C94.2926 78.4879 94.2792 77.828 94.2658 77.1679V77.1679C94.2341 75.6043 94.2024 74.04 94.4901 72.4898H91.5611C91.8726 73.3347 91.8651 74.1688 91.8577 74.9921C91.8566 75.1174 91.8554 75.2424 91.8554 75.3672C91.8554 76.183 91.8559 76.9992 91.8563 77.8157C91.8577 80.2659 91.859 82.7182 91.8483 85.1664C91.8483 85.8507 91.8125 86.5383 91.7759 87.24V87.2401V87.2402ZM46.5137 77.0279C48.4161 77.0279 49.9524 78.5454 49.9524 80.4207C49.9524 82.2889 48.409 83.8136 46.5137 83.8136C44.6042 83.8136 43.0966 82.3176 43.1038 80.4136C43.0966 78.5096 44.597 77.0279 46.5137 77.0279ZM82.0491 73.7782C84.0664 74.9879 85.1791 76.7845 85.4591 79.118C85.6026 80.2919 85.5452 81.4515 85.215 82.5967C84.3248 85.5529 82.2286 87.2279 79.3283 87.9866C78.4812 88.2085 77.5839 88.3087 76.708 88.3374C75.5872 88.3774 74.4628 88.3684 73.3398 88.3594C72.8589 88.3555 72.3782 88.3517 71.8982 88.3517C71.794 88.3517 71.6898 88.3374 71.5602 88.3197C71.4846 88.3093 71.4003 88.2978 71.3024 88.2872C71.6011 87.3746 71.5959 86.5013 71.5908 85.6374C71.5902 85.5256 71.5895 85.414 71.5895 85.3024V75.1382C71.5895 75.0753 71.5896 75.0124 71.5898 74.9495C71.5917 74.132 71.5936 73.3145 71.2736 72.4969C71.3355 72.4898 71.3919 72.4819 71.4446 72.4745C71.5508 72.4596 71.6419 72.4468 71.7331 72.4468C72.2049 72.4468 72.6771 72.445 73.1496 72.4432C74.5678 72.4379 75.9881 72.4325 77.4044 72.4755C79.0483 72.5256 80.6205 72.9264 82.0491 73.7782ZM79.9529 85.7104C81.4317 84.8729 82.3865 83.6346 82.6665 81.9597C82.8029 81.1508 82.846 80.2919 82.7598 79.4759C82.5086 76.9205 81.2379 74.9664 78.3089 74.2936C76.9521 73.9786 75.5594 74.043 74.1739 74.1289C74.1501 74.1289 74.1263 74.1509 74.09 74.1845C74.0715 74.2016 74.0498 74.2217 74.0231 74.2435V86.6552C76.1337 86.7841 78.1223 86.7411 79.9529 85.7104Z" fill="#E35F0E"/>
</svg>
