<svg width="241" height="161" viewBox="0 0 241 161" fill="none" xmlns="http://www.w3.org/2000/svg">
<path d="M192.326 71.2835C185.293 71.795 179.666 77.5494 179.155 84.5825C178.643 92.8945 185.165 99.7997 193.349 99.7997C196.29 99.7997 200.254 98.2652 202.044 95.1962V99.4161H207.543V85.8613C207.799 76.91 200.638 70.6441 192.326 71.2835ZM201.661 85.8613C201.405 90.5927 197.313 94.1732 192.454 93.5338C188.745 93.0223 185.804 90.0812 185.293 86.3728C184.781 81.3856 188.617 77.1658 193.477 77.1658C197.824 77.1658 201.405 80.6184 201.661 84.9662V85.8613Z" fill="#0000A0"/>
<path d="M162.147 71.282C154.602 71.5377 148.208 77.2921 148.208 85.7319C148.208 93.4044 154.474 99.9261 162.531 99.9261C168.157 99.9261 173.656 96.6013 175.83 91.1027L170.331 89.4403C169.308 91.742 166.878 93.6602 164.193 94.1717C160.357 94.9389 156.776 92.5093 155.369 89.9518L176.725 84.0695C176.085 78.443 171.226 71.0262 162.147 71.282ZM154.219 84.8368C154.219 81.8956 156.009 78.443 159.845 77.0364C164.193 75.374 168.029 77.5479 169.692 80.6169L154.219 84.8368Z" fill="#0000A0"/>
<path d="M115.217 77.0373V71.155C109.846 71.155 108.056 73.8404 107.161 75.247V72.0502H101.023V85.0935V99.2877H107.288C107.288 90.8479 107.288 90.9757 107.288 85.8607C107.288 79.7227 110.869 77.2931 115.217 77.0373Z" fill="#0000A0"/>
<path d="M58.8235 88.4176L40.1536 66.423H33.7599V99.287H40.4094V77.2924L59.335 99.4149H65.0894V66.423H58.8235V88.4176Z" fill="#0000A0"/>
<path d="M144.5 63.4822H138.618V74.2237C137.211 72.4335 132.864 70.899 129.155 71.2826C122.122 71.7941 116.495 77.5485 115.984 84.5817C115.472 92.8936 121.994 99.7988 130.178 99.7988C133.247 99.7988 137.467 98.3922 138.874 95.7068V99.2873H144.372V85.7325C144.372 85.6047 144.372 85.6047 144.372 85.4768C144.372 85.3489 144.372 85.3489 144.372 85.221L144.5 63.4822ZM138.362 85.8604C138.106 90.5918 134.014 94.1723 129.155 93.5329C125.447 93.0214 122.506 90.0803 121.994 86.3719C121.483 81.3848 125.319 77.1649 130.178 77.1649C134.526 77.1649 138.106 80.6175 138.362 84.9653C138.362 84.9653 138.362 85.8604 138.362 85.8604Z" fill="#0000A0"/>
<path d="M83.1196 71.155C75.1913 71.155 68.7975 77.5488 68.7975 85.4771C68.7975 93.4054 75.1913 99.7992 83.1196 99.7992C91.0479 99.7992 97.4417 93.4054 97.4417 85.4771C97.3138 77.5488 90.92 71.155 83.1196 71.155ZM83.1196 93.6611C78.644 93.6611 74.9356 89.9527 74.9356 85.4771C74.9356 81.0015 78.644 77.2931 83.1196 77.2931C87.5953 77.2931 91.3037 81.0015 91.3037 85.4771C91.3037 90.0806 87.5953 93.6611 83.1196 93.6611Z" fill="#0000A0"/>
</svg>
