<svg width="240" height="160" viewBox="0 0 240 160" fill="none" xmlns="http://www.w3.org/2000/svg">
<path d="M37.4883 74.4758L34.5329 80.9353L43.6741 86.5062H33.4675C32.0585 86.5062 31.6461 87.2923 30.9588 88.7619L29 92.9999H52.4029C53.2277 92.9999 54.0181 92.5214 54.2931 91.9062L56.8705 86.3011L37.4883 74.4758Z" fill="#002D30"/>
<path d="M57.6609 84.524L60.6164 78.0646L51.5095 72.4937H61.7504C63.1594 72.4937 63.5718 71.7076 64.2591 70.238L66.1836 66H42.7806C41.9559 66 41.1655 66.4785 40.8905 67.0937L38.3131 72.6987L57.6609 84.524Z" fill="#00C575"/>
<path d="M146.702 79.6367H143.746V74.6468H146.771C148.042 74.6468 148.936 74.8177 149.417 75.1595C149.898 75.5012 150.173 76.1164 150.173 77.0392C150.173 77.962 149.932 78.6114 149.451 79.0215C148.97 79.4316 148.042 79.6367 146.702 79.6367ZM149.554 81.4139C151.582 80.7987 152.578 79.3633 152.578 77.0734C152.578 75.5012 152.132 74.3392 151.204 73.6215C150.276 72.9038 148.729 72.5278 146.599 72.5278H141.375V86.5063H143.746V81.7899H146.874L150.242 86.4721H153.266L149.554 81.4139Z" fill="#002D30"/>
<path d="M75.5998 74.3392C74.9125 74.3392 74.3283 74.4759 73.9159 74.7493C73.4691 75.0227 73.2629 75.467 73.2629 76.0139C73.2629 76.5949 73.4691 77.005 73.9159 77.3126C74.3626 77.6202 75.2905 77.9278 76.7339 78.2696C78.1772 78.6113 79.2425 79.0898 79.9986 79.7392C80.7203 80.3544 81.0983 81.2772 81.0983 82.5075C81.0983 83.7379 80.6515 84.7291 79.7237 85.481C78.7958 86.2329 77.593 86.6088 76.0809 86.6088C73.8815 86.6088 71.9227 85.8569 70.2388 84.3531L71.7165 82.5759C73.1255 83.8063 74.6032 84.4215 76.1496 84.4215C76.9057 84.4215 77.5243 84.2506 77.971 83.943C78.4178 83.6012 78.6583 83.1911 78.6583 82.6443C78.6583 82.0974 78.4521 81.6873 78.0397 81.3797C77.6274 81.0721 76.9057 80.7987 75.8747 80.5594C74.8438 80.3202 74.0533 80.081 73.5379 79.8759C72.988 79.6708 72.5413 79.3974 72.0945 79.0557C71.2697 78.4405 70.8574 77.4835 70.8574 76.1848C70.8574 74.886 71.3385 73.8949 72.2663 73.2113C73.1942 72.5278 74.3626 72.1519 75.7716 72.1519C76.6651 72.1519 77.5586 72.2886 78.4521 72.5962C79.3456 72.9038 80.1017 73.3139 80.7546 73.8265L79.4831 75.6038C79.0707 75.2278 78.5209 74.9202 77.7992 74.681C76.9744 74.4759 76.2871 74.3392 75.5998 74.3392Z" fill="#002D30"/>
<path d="M86.9749 72.5278H89.3461V86.4721H86.9749V72.5278Z" fill="#002D30"/>
<path d="M96.0471 86.4721V72.5278H98.4183V84.2506H104.845L103.848 86.4721H96.0471Z" fill="#002D30"/>
<path d="M114.983 86.4721H112.302L106.666 72.5278H109.312L113.642 82.9519L117.972 72.5278H120.619L114.983 86.4721Z" fill="#002D30"/>
<path d="M135.018 72.5278V74.7152H127.526V78.4405H134.228V80.5253H127.526V84.2506H135.258V86.4721H125.155V72.5278H135.018Z" fill="#002D30"/>
<path d="M202.237 86.4721V72.5278H204.608V84.2506H211L210.038 86.4721H202.237Z" fill="#002D30"/>
<path d="M183.92 81.1405H178.834L181.377 75.3987L183.92 81.1405ZM188.834 86.4721L182.649 72.4937H180.105L173.92 86.4721H176.463L177.872 83.2937H184.917L186.326 86.4721H188.834V86.4721Z" fill="#002D30"/>
<path d="M193.577 72.5278H195.948V86.4721H193.577V72.5278Z" fill="#002D30"/>
<path d="M164.057 79.6367H161.101V74.6468H164.125C165.397 74.6468 166.29 74.8177 166.771 75.1595C167.252 75.5012 167.527 76.1164 167.527 77.0392C167.527 77.962 167.287 78.6114 166.806 79.0215C166.29 79.4316 165.397 79.6367 164.057 79.6367ZM166.909 81.4139C168.936 80.7987 169.933 79.3633 169.933 77.0734C169.933 75.5012 169.486 74.3392 168.558 73.6215C167.631 72.9038 166.084 72.5278 163.953 72.5278H158.73V86.5063H161.101V81.7899H164.228L167.596 86.4721H170.62L166.909 81.4139Z" fill="#002D30"/>
</svg>
