<svg width="241" height="160" viewBox="0 0 241 160" fill="none" xmlns="http://www.w3.org/2000/svg">
<path d="M21 84.3908C21 78.0607 25.3567 72.8851 31.9886 72.8851C35.5564 72.8851 38.1918 74.2509 39.6708 75.9965C41.0471 77.6212 41.6429 79.5428 41.8251 80.8238L36.561 80.9987C36.4047 79.9852 35.9931 79.1401 35.3714 78.5196C34.6119 77.7598 33.2558 77.3364 31.9539 77.3364C28.8373 77.3364 26.5181 79.9379 26.5181 84.3908C26.5181 88.8437 28.9427 91.3705 32.054 91.3705C33.3108 91.3705 34.6661 90.9576 35.4457 90.2268C36.1631 89.5538 36.639 88.609 36.7602 87.4294L42.019 87.6399C41.9362 88.609 41.6595 89.629 41.1808 90.6033C39.8925 93.3349 36.7598 95.894 31.9837 95.894C25.3171 95.894 21 90.7197 21 84.3908Z" fill="#54B6E7"/>
<path d="M44.4022 65.005H49.9854V95.2727H44.4022V65.005Z" fill="#54B6E7"/>
<path d="M67.0328 92.9192H66.8655C66.4442 94.3334 63.7461 95.8899 60.1274 95.8899C56.4881 95.8899 52.5172 93.9392 52.5172 89.2782C52.5172 84.2901 56.7915 82.8112 60.2143 82.265C62.1109 81.9609 64.4543 81.7653 65.2214 81.6239C66.0386 81.4769 66.5092 81.201 66.729 80.6278C66.7948 80.4561 66.8397 80.2165 66.8397 79.9653C66.8397 78.2355 65.7619 76.98 62.9729 76.98C60.7382 76.98 58.6408 78.0392 58.6388 80.3587L53.7953 80.1127C54.2627 75.1622 58.171 72.8903 63.2181 72.8903C68.5105 72.8903 72.6806 75.2632 72.6806 80.0695V95.2726H67.0328C67.0332 95.2714 67.0328 92.9192 67.0328 92.9192ZM60.3658 86.1241C59.3991 86.4691 57.94 86.8363 57.94 88.8973C57.94 90.7717 59.5926 91.6955 61.7316 91.6955C65.3503 91.6955 67.0538 89.5432 67.0538 87.3873V84.4068C66.5383 84.703 65.6468 84.9853 64.8558 85.1489C64.0648 85.3141 61.3328 85.7787 60.3658 86.1241Z" fill="#54B6E7"/>
<path d="M76.0438 92.1141C75.2904 90.9527 75.0444 89.6035 75.0363 88.1044H79.8891C79.9691 88.7677 80.1351 89.4144 80.4187 89.9424C81.0949 91.2125 82.4482 91.9008 84.8421 91.9008C86.7536 91.9008 88.8571 91.0129 88.8571 89.1183C88.8571 87.2452 86.0592 86.8097 83.143 86.2769C78.8069 85.4928 75.5109 84.1447 75.5109 79.7153C75.5109 75.8082 78.8719 72.8903 84.1727 72.8903C88.5302 72.8903 91.192 74.9211 92.279 76.6456C92.7359 77.3679 93.2247 78.8282 93.2392 80.0922H88.3565C88.344 79.5505 88.2568 78.968 88.0305 78.5006C87.4012 77.2043 85.7615 76.7401 84.1372 76.7401C82.1497 76.7401 80.4639 77.5492 80.4639 79.1405C80.4639 80.0748 80.8578 80.6206 81.6568 80.9579C82.8509 81.4624 84.329 81.6757 86.1921 81.9436C90.0439 82.5014 93.9846 84.0005 93.9846 88.4833C93.9846 93.0158 90.5888 95.8997 84.5924 95.8997C80.5189 95.8997 77.5598 94.4523 76.0438 92.1141Z" fill="#54B6E7"/>
<path d="M103.444 84.3859C103.444 76.9719 108.244 72.8822 113.97 72.8822C119.695 72.8822 124.45 76.9825 124.45 84.3859C124.45 91.7909 119.768 95.8948 113.97 95.8948C108.172 95.8948 103.444 91.8018 103.444 84.3859ZM113.97 77.1897C110.8 77.1897 108.897 79.3961 108.897 84.3859C108.897 89.3776 110.891 91.5485 113.97 91.5485C117.043 91.5485 119.003 89.4447 119.003 84.3859C119.003 79.3275 117.134 77.1897 113.97 77.1897" fill="#54B6E7"/>
<path d="M140.129 95.2726V81.9406C140.129 79.823 139.395 77.7608 136.634 77.7608C134.979 77.7608 133.888 78.6382 133.277 79.6703C132.783 80.5053 132.414 82.12 132.414 83.4971V95.2726H126.832V65H132.414V76.0763H132.494C133.5 74.2213 135.725 72.887 138.492 72.887C140.714 72.887 142.236 73.5168 143.533 74.727C145.104 76.191 145.712 78.3381 145.712 81.4575V95.2726H140.129Z" fill="#54B6E7"/>
<path d="M149.406 65.0001H154.987V95.2727H149.406V65.0001Z" fill="#54B6E7"/>
<path d="M158.595 92.0162C157.874 90.8746 157.636 89.5646 157.629 88.1022H162.482C162.561 88.7461 162.721 89.3812 162.992 89.9023C163.666 91.1974 165.024 91.8987 167.436 91.8987C169.346 91.8987 171.45 91.0104 171.45 89.1174C171.45 87.2402 168.653 86.8071 165.736 86.2727C161.4 85.489 158.104 84.1422 158.104 79.7099C158.104 75.8028 161.466 72.887 166.764 72.887C171.143 72.887 173.803 74.9338 174.89 76.6769C175.334 77.3903 175.82 78.8377 175.832 80.0868H170.949C170.942 79.5992 170.886 79.051 170.693 78.6095C170.095 77.2308 168.416 76.7347 166.73 76.7347C164.743 76.7347 163.056 77.5438 163.056 79.1359C163.056 80.1058 163.482 80.6596 164.344 81.0034C165.537 81.4809 166.983 81.6853 168.784 81.9394C172.636 82.4976 176.579 83.9968 176.579 88.4803C176.579 93.0136 173.182 95.8991 167.186 95.8991C163.06 95.8991 160.103 94.3988 158.595 92.0162Z" fill="#54B6E7"/>
<path d="M215.017 95.2726V81.9406C215.017 79.823 214.283 77.7608 211.522 77.7608C209.866 77.7608 208.776 78.6382 208.166 79.6703C207.671 80.5053 207.302 82.12 207.302 83.4971V95.2726H201.72V73.5927H207.09V76.0763H207.17C208.176 74.2213 210.612 72.887 213.38 72.887C215.602 72.887 217.124 73.5168 218.421 74.727C219.992 76.191 220.6 78.3381 220.6 81.4575V95.2726H215.017Z" fill="#54B6E7"/>
<path d="M178.153 84.3859C178.153 76.9719 182.983 72.8822 188.709 72.8822C194.434 72.8822 199.221 76.9825 199.221 84.3859C199.221 91.7909 194.506 95.8948 188.709 95.8948C182.911 95.8948 178.153 91.8018 178.153 84.3859ZM188.709 77.1897C185.539 77.1897 183.605 79.3961 183.605 84.3859C183.605 89.3776 185.632 91.5485 188.709 91.5485C191.783 91.5485 193.773 89.4447 193.773 84.3859C193.773 79.3275 191.874 77.1897 188.709 77.1897Z" fill="#54B6E7"/>
</svg>
