<svg width="241" height="161" viewBox="0 0 241 161" fill="none" xmlns="http://www.w3.org/2000/svg">
<path fill-rule="evenodd" clip-rule="evenodd" d="M120.16 50.498L129.01 73.2267L105.396 75.419L120.16 50.498Z" fill="#FE2637"/>
<path fill-rule="evenodd" clip-rule="evenodd" d="M128.964 73.2267L134.969 75.419L120.16 50.498L128.919 72.9582L128.964 73.2267Z" fill="white"/>
<path fill-rule="evenodd" clip-rule="evenodd" d="M69.3213 103.203C70.3598 103.203 70.7661 102.309 70.7661 101.369V93.7183C70.7661 83.4277 70.6307 83.1593 68.9601 82.9356V82.3987C69.5491 82.3987 70.0766 82.4352 70.5811 82.4702C71.0435 82.5022 71.4866 82.5329 71.94 82.5329C72.4984 82.5329 73.0306 82.4941 73.5227 82.4582L73.5228 82.4582L73.523 82.4582C73.9461 82.4274 74.3394 82.3987 74.6942 82.3987V82.9356C73.6557 82.9356 73.2494 83.8304 73.2494 84.77C73.2494 85.3899 73.2176 86.5697 73.1806 87.9387L73.1806 87.9388V87.9389C73.1296 89.8305 73.0688 92.083 73.0688 93.7183C73.0688 95.2465 73.1187 96.96 73.166 98.5862C73.2087 100.055 73.2494 101.452 73.2494 102.577H80.2476C82.5954 102.577 83.5436 101.772 84.3563 100.072L84.8529 100.206L84.0854 103.875C83.0469 103.606 78.5321 103.606 76.2294 103.606H76.2293C75.0497 103.606 73.8929 103.64 72.7417 103.674H72.7416H72.7415H72.7414H72.7413C71.6014 103.707 70.4669 103.74 69.3213 103.74V103.203ZM94.515 104.009C89.0518 104.009 85.0335 99.9373 85.0335 94.6131C85.0335 89.2889 89.0518 85.2174 94.515 85.2174C99.9781 85.2174 103.996 89.2889 103.996 94.6131C103.996 99.9373 99.9781 104.009 94.515 104.009ZM94.5601 86.0228C89.6388 86.0228 87.5619 89.8258 87.5619 94.6131C87.5619 99.3557 89.6388 103.159 94.5601 103.203C99.4815 103.203 101.558 99.4004 101.558 94.6131C101.558 89.8258 99.4815 86.0228 94.5601 86.0228ZM106.931 94.6131C106.931 99.9373 110.95 104.009 116.413 104.009C121.876 104.009 125.894 99.9373 125.894 94.6131C125.894 89.2889 121.876 85.2174 116.413 85.2174C110.95 85.2174 106.931 89.2889 106.931 94.6131ZM109.415 94.6131C109.415 89.8258 111.491 86.0228 116.413 86.0228C121.334 86.0228 123.411 89.8258 123.411 94.6131C123.411 99.4004 121.334 103.203 116.413 103.203C111.491 103.159 109.415 99.3557 109.415 94.6131ZM130.68 85.2174H131.132L139.755 100.251L147.115 85.3069H147.566L148.334 100.787C148.424 102.89 148.559 103.114 149.733 103.293V103.74C149.365 103.74 148.987 103.72 148.593 103.698C148.165 103.675 147.72 103.651 147.25 103.651C146.854 103.651 146.459 103.675 146.075 103.698C145.715 103.719 145.366 103.74 145.038 103.74V103.293C146.121 103.203 146.347 102.443 146.347 101.503C146.347 100.519 146.302 99.6689 146.257 99.2662L145.715 90.0047H145.625L139.123 103.159L131.538 89.96H131.402L130.906 98.1477C130.861 98.8188 130.861 100.027 130.861 100.698C130.861 102.532 131.583 103.159 132.486 103.248V103.696C132.102 103.696 131.718 103.673 131.335 103.651L131.335 103.651C130.951 103.629 130.567 103.606 130.183 103.606C129.8 103.606 129.427 103.629 129.055 103.651L129.054 103.651C128.682 103.673 128.31 103.696 127.926 103.696V103.248C129.326 102.935 129.551 102.488 129.687 100.206L130.68 85.2174ZM157.002 85.5305C156.649 85.5322 156.285 85.552 155.907 85.5725C155.48 85.5958 155.034 85.62 154.564 85.62C154.186 85.62 153.797 85.5983 153.402 85.5762C152.996 85.5535 152.584 85.5305 152.171 85.5305V85.9779C153.21 85.9779 153.481 86.7385 153.481 87.5439L153.616 101.682C153.616 102.488 153.21 103.248 152.442 103.248V103.696C152.686 103.696 152.975 103.677 153.293 103.658C153.683 103.633 154.117 103.606 154.564 103.606C155.073 103.606 155.539 103.634 155.946 103.659C156.261 103.678 156.54 103.696 156.777 103.696V103.248C156.009 103.248 155.558 102.488 155.558 101.682L155.693 87.5439C155.693 86.7385 155.964 85.9779 157.002 85.9779V85.5305ZM170.277 85.5753L170.367 88.4835V88.573H169.915C169.374 86.8728 167.477 86.1122 165.807 86.1122C163.639 86.1122 161.608 87.186 161.608 89.5573C161.608 92.2795 163.811 93.0937 166.073 93.9295C168.458 94.8109 170.909 95.7163 170.909 98.9083C170.909 102.264 168.471 104.054 165.22 104.054C163.594 104.054 161.969 103.74 160.344 103.293L160.253 100.564H160.705C161.292 102.443 163.414 103.203 165.175 103.203C167.251 103.203 169.057 102.174 169.057 99.8926C169.057 97.2774 166.957 96.5516 164.753 95.7899C162.318 94.9487 159.757 94.0636 159.757 90.5416C159.757 86.7386 162.782 85.2174 166.213 85.2174C166.882 85.2174 167.53 85.3094 168.173 85.4006C168.875 85.5001 169.569 85.5987 170.277 85.5753Z" fill="black"/>
<path fill-rule="evenodd" clip-rule="evenodd" d="M105.351 75.3743L128.919 73.2267L134.924 75.419C134.924 75.419 113.794 77.2087 113.207 77.2982C112.575 77.3429 105.351 75.3743 105.351 75.3743Z" fill="#5F6062"/>
</svg>
