<svg width="241" height="161" viewBox="0 0 241 161" fill="none" xmlns="http://www.w3.org/2000/svg">
<rect width="185" height="46" transform="translate(28 57)" fill="#222222"/>
<path d="M46.5 80.3834L47.1909 79.8467C47.1909 79.8467 46.8838 79.77 46.5768 79.6167C46.5768 79.6167 46.2697 79.54 46.2697 79.6167C46.1929 79.77 46.2697 80.1534 46.5 80.3834Z" fill="white"/>
<path d="M74.0581 57H28V103H74.0581V57Z" fill="#A39161"/>
<path d="M59.2427 95.2567V94.95H59.5498C59.6265 94.95 59.7033 95.0267 59.7033 95.1033C59.7033 95.18 59.6265 95.2567 59.473 95.2567H59.2427V95.2567ZM59.0892 95.87H59.2427V95.41H59.3195C59.473 95.41 59.473 95.4867 59.6266 95.7167L59.7033 95.87H59.9336L59.7801 95.64C59.7033 95.4867 59.6265 95.41 59.5498 95.41C59.7033 95.41 59.8568 95.2567 59.8568 95.1033C59.8568 95.0267 59.7801 94.7967 59.473 94.7967H59.0124L59.0892 95.87ZM60.3174 95.3333C60.3174 95.7933 59.9336 96.1767 59.473 96.1767C59.0892 96.1 58.7054 95.7933 58.7054 95.3333C58.7054 94.8733 59.0892 94.49 59.5498 94.49C60.0104 94.49 60.3174 94.8733 60.3174 95.3333ZM60.4709 95.3333C60.4709 94.7967 60.0104 94.3367 59.473 94.3367C58.9357 94.3367 58.4751 94.7967 58.4751 95.3333C58.4751 95.87 58.9357 96.33 59.473 96.33C60.0871 96.2533 60.4709 95.87 60.4709 95.3333Z" fill="white"/>
<path d="M53.3319 94.95C53.2552 94.4134 52.7946 93.7234 52.027 93.0334C51.3361 92.42 51.3361 91.27 51.3361 90.9634H47.4212C47.1141 91.3467 46.8838 91.8834 45.6556 92.5734C44.0436 93.4167 43.5062 93.7234 43.1224 94.95H53.3319Z" fill="white"/>
<path d="M52.6411 93.0334C53.7158 93.8767 54.0996 94.4134 54.3299 94.95H57.4004C57.0934 93.8 56.4025 93.4167 54.8672 92.4967C53.7158 91.8067 53.3319 91.27 53.1017 90.9634H51.7967C51.7967 91.1934 51.7967 92.3434 52.6411 93.0334Z" fill="white"/>
<path d="M52.9481 87.2833H51.7967V89.2H52.9481V87.2833Z" fill="white"/>
<path d="M51.2593 87.2833H47.4979V89.2H51.2593V87.2833Z" fill="white"/>
<path d="M54.7137 85.06C54.7137 84.7533 54.4834 84.6 54.1763 84.6H46.3465C46.0394 84.6 45.8091 84.7533 45.8091 85.06C45.8091 85.3666 46.0394 85.52 46.3465 85.52H54.0996C54.4066 85.52 54.7137 85.3666 54.7137 85.06Z" fill="white"/>
<path d="M53.1784 85.98H47.3444C47.0373 85.98 46.8071 86.21 46.8071 86.44C46.8071 86.67 47.0373 86.9 47.3444 86.9H53.1784C53.4855 86.9 53.7158 86.67 53.7158 86.44C53.7158 86.1333 53.4855 85.98 53.1784 85.98Z" fill="white"/>
<path d="M53.1784 89.5834H47.3444C47.0373 89.5834 46.8071 89.8134 46.8071 90.0434C46.8071 90.2734 47.0373 90.5034 47.3444 90.5034H53.1784C53.4855 90.5034 53.7158 90.2734 53.7158 90.0434C53.7158 89.8134 53.4855 89.5834 53.1784 89.5834Z" fill="white"/>
<path d="M58.0145 95.7934C58.0145 95.5634 57.7842 95.3334 57.4772 95.3334H42.9689C42.6618 95.3334 42.4315 95.5634 42.4315 95.7934C42.4315 96.0234 42.6618 96.2534 42.9689 96.2534H57.4772C57.7842 96.2534 58.0145 96.1 58.0145 95.7934Z" fill="white"/>
<path d="M53.639 65.97C51.9502 64.82 50.1079 64.0534 48.112 63.7467C48.0353 63.7467 48.0353 63.8234 47.9585 63.9C48.0353 64.6667 48.112 65.3567 48.1888 66.0467C47.8817 66.1234 47.5747 65.97 47.3444 65.8934C47.2676 65.8167 47.1141 65.8167 46.9606 65.8167C46.8071 65.8167 46.8071 65.97 46.8071 66.1234C46.8838 66.9667 47.805 67.6567 48.5726 67.81C48.4959 67.8867 48.1888 67.8867 47.805 67.7334C47.1909 67.4267 46.5768 68.1167 46.4232 68.27C45.2718 69.19 44.7344 70.4167 43.7365 71.49C43.583 71.6434 43.5062 71.72 43.3527 71.8734C43.1992 72.0267 43.0456 72.18 42.9689 72.3334C42.4315 72.9467 41.8174 73.56 41.5871 74.3267C41.5871 74.48 41.5871 74.6334 41.5871 74.8634C41.6639 75.2467 41.971 75.5534 42.278 75.86C42.4315 76.0134 42.6618 75.7067 42.8154 76.0134C42.8154 76.0134 42.9689 76.1667 43.2759 76.0134C44.1971 75.5534 45.0415 74.94 46.1162 74.8634C47.5747 74.94 48.9564 74.3267 49.5705 72.9467H49.6473C49.5705 73.79 48.8029 74.4034 48.0353 74.7867C47.4979 75.0167 47.4212 75.4 47.4212 75.4C46.6535 77.1634 46.193 78.4667 45.0415 80.1534C44.7344 80.69 44.8112 81.3034 45.0415 81.84C45.3486 82.6067 45.5788 83.3734 46.0394 84.0634H54.4066C55.5581 82.3 56.4025 80.3834 57.0166 78.3134C58.3216 74.02 57.6307 68.8067 53.639 65.97ZM47.1141 70.57C47.1141 70.57 46.8838 71.1067 46.2697 70.9534C45.6556 70.8 46.0394 70.11 46.0394 70.11C46.0394 70.11 46.4232 70.11 47.1141 70.4167H47.2676C47.2676 70.4167 47.0373 69.8034 46.0394 69.88C46.0394 69.88 45.7324 69.65 45.8859 69.2667C45.8859 69.2667 46.6535 69.4967 46.8838 69.65C47.1141 69.7267 47.5747 70.0334 47.7282 70.57H47.1141V70.57ZM48.0353 83.8334C47.9585 83.9867 47.4979 83.8334 47.2676 83.68C47.0374 83.5267 46.6535 83.3734 46.2697 82.8367C45.8859 82.3 45.8091 81.9167 45.6556 81.5334C45.6556 81.5334 45.6556 81.4567 45.6556 81.38C45.7324 81.38 45.7324 81.38 45.7324 81.4567C45.7324 81.5334 46.1162 82.1467 46.5768 82.4534C46.5768 82.4534 47.0373 82.9134 47.4979 83.22C47.9585 83.6034 48.112 83.7567 48.0353 83.8334ZM57.0934 75.2467L55.4046 75.4767C55.4046 75.4767 55.4046 76.0134 55.3278 76.1667L57.0166 76.3967V76.6267L55.3278 76.7034L55.251 77.3934L56.7863 77.93V78.0834L55.0975 78.0067L54.8672 78.6967L56.4025 79.1567L56.3257 79.31L54.7137 79.2334L54.5602 79.6934L55.9419 80.3834L55.8652 80.5367L54.4066 80.23C54.4066 80.23 54.3299 80.6134 54.2531 80.7667L55.4046 81.4567L55.3278 81.61L54.0228 81.2267C54.0228 81.2267 53.8693 81.61 53.7925 81.6867L54.8672 82.4534L54.7905 82.6067L53.639 82.1467L53.332 82.6067L54.1764 83.3734L54.0996 83.45L53.0249 83.0667L52.7178 83.5267L53.4087 84.14L53.332 84.2167L52.5643 83.91L52.2573 84.2934H51.7967C51.7967 84.2934 54.4834 81.0734 54.7905 75.7834C54.7905 75.7834 55.3278 71.03 51.7199 68.1934C51.7199 68.1934 50.9523 67.58 50.4917 67.35C50.4917 67.35 50.2614 67.2734 50.1079 67.0434C49.9544 66.8134 49.3403 66.3534 48.3423 66.3534L48.8797 64.5134L49.11 64.59L49.0332 66.1234C49.0332 66.1234 49.4938 66.2 49.6473 66.2767L50.2614 64.8967L50.4917 64.9734L50.1079 66.43L50.6452 66.7367L51.4896 65.3567L51.7199 65.4334L51.1058 66.9667L51.5664 67.2734L52.7178 65.97L52.8714 66.1234L52.027 67.7334L52.4876 68.1934L53.9461 66.9667L54.0996 67.12L52.8714 68.6534L53.2552 69.1134L54.8672 67.7334L55.0208 67.8867L53.5622 69.2667C53.5622 69.2667 53.8693 69.65 54.0228 69.88L55.8652 69.1134L55.9419 69.2667L54.2531 70.34C54.2531 70.34 54.4834 70.7234 54.6369 71.03L56.556 70.57L56.6328 70.7234L54.8672 71.49C54.8672 71.49 55.0975 72.0267 55.1743 72.3334L57.0166 72.1034V72.3334L55.3278 72.87C55.3278 72.87 55.4046 73.0234 55.4813 73.6367L57.1701 73.56V73.79L55.4813 74.1734C55.4813 74.1734 55.4813 74.71 55.4813 74.94L57.1701 75.0934L57.0934 75.2467Z" fill="white"/>
<path d="M97.0871 76.2433V83.9099H101.693V82.99H98.1618V76.2433H97.0871Z" fill="white"/>
<path d="M104.533 80C104.533 82.07 106.145 83.9866 108.678 83.9866C111.288 83.9866 112.824 82.1466 112.824 80C112.824 77.8533 111.212 76.0133 108.678 76.0133C106.222 76.0133 104.533 77.8533 104.533 80ZM105.685 80C105.685 78.3133 106.99 77.0866 108.678 77.0866C110.367 77.0866 111.672 78.3133 111.672 80C111.672 81.6866 110.367 82.9133 108.678 82.9133C106.99 82.9133 105.685 81.6866 105.685 80Z" fill="white"/>
<path d="M116.508 76.2433V83.91H117.583V80.5366H118.044C118.581 80.5366 119.041 80.69 120.116 82.3L121.114 83.91H122.419C121.882 83.1433 121.728 82.9133 121.344 82.3766C120.73 81.4566 120.346 80.69 119.656 80.23C120.5 79.9233 120.961 79.2333 120.961 78.3133C120.961 77.01 119.963 76.1666 118.427 76.1666H116.508V76.2433ZM117.583 77.1633H118.274C119.349 77.1633 119.809 77.6233 119.809 78.3133C119.809 78.9266 119.502 79.54 118.274 79.54H117.583V77.1633Z" fill="white"/>
<path d="M125.566 83.9867H128.56C131.093 83.9867 132.629 82.1467 132.629 80.1534C132.629 78.3134 131.4 76.3201 128.56 76.3201H125.566V83.9867ZM126.641 77.2401H128.33C130.479 77.2401 131.477 78.5434 131.477 80.0767C131.477 80.9967 130.863 82.9134 128.407 82.9134H126.641V77.2401V77.2401Z" fill="white"/>
<path d="M142.224 77.93L143.452 80.69H141.073L142.224 77.93ZM141.84 76.2433L138.539 83.9866H139.691L140.689 81.6866H143.99L144.988 83.9866H146.139L142.685 76.2433H141.84Z" fill="white"/>
<path d="M150.284 80.5367H151.589C152.741 80.5367 153.278 80.9967 153.278 81.7634C153.278 82.3767 152.894 82.9901 151.666 82.9901H150.284V80.5367ZM149.21 83.9867H151.82C153.739 83.9867 154.429 82.9134 154.429 81.9167C154.429 80.8434 153.739 80.1534 152.587 79.9234C153.355 79.6167 153.739 79.0801 153.739 78.3134C153.739 77.3167 153.048 76.3201 151.359 76.3201H149.133V83.9867H149.21V83.9867ZM150.284 77.2401H151.282C152.28 77.2401 152.587 77.7001 152.587 78.3134C152.587 79.1567 152.05 79.5401 150.975 79.5401H150.207V77.2401H150.284Z" fill="white"/>
<path d="M158.959 80.5367H160.263C161.415 80.5367 161.952 80.9967 161.952 81.7634C161.952 82.3767 161.568 82.9901 160.34 82.9901H158.959V80.5367ZM157.807 83.9867H160.417C162.336 83.9867 163.027 82.9134 163.027 81.9167C163.027 80.8434 162.336 80.1534 161.185 79.9234C161.952 79.6167 162.336 79.0801 162.336 78.3134C162.336 77.3167 161.645 76.3201 159.956 76.3201H157.73V83.9867H157.807V83.9867ZM158.959 77.2401H159.956C160.954 77.2401 161.338 77.7001 161.338 78.3134C161.338 79.1567 160.801 79.5401 159.726 79.5401H158.959V77.2401V77.2401Z" fill="white"/>
<path d="M166.405 76.2433V83.9099H170.934V82.99H167.556V80.5366H170.703V79.54H167.556V77.24H170.78V76.2433H166.405Z" fill="white"/>
<path d="M173.697 76.2433V77.24H176.384V83.9099H177.459V77.24H180.145V76.2433H173.697Z" fill="white"/>
<path d="M182.755 76.2433V77.24H185.442V83.9099H186.517V77.24H189.203V76.2433H182.755Z" fill="white"/>
<path d="M190.739 77.0866V76.78H191.046C191.122 76.78 191.199 76.8566 191.199 76.9333C191.199 77.01 191.122 77.0866 190.969 77.0866H190.739ZM190.585 77.7H190.739V77.24H190.815C190.969 77.24 190.969 77.3166 191.122 77.5466L191.199 77.7H191.429L191.276 77.47C191.199 77.3166 191.122 77.24 191.046 77.24C191.199 77.24 191.353 77.0866 191.353 76.9333C191.353 76.8566 191.276 76.6266 190.969 76.6266H190.508V77.7H190.585ZM191.813 77.1633C191.813 77.6233 191.429 78.0066 190.969 78.0066C190.585 77.93 190.201 77.6233 190.201 77.1633C190.201 76.7033 190.585 76.32 191.046 76.32C191.506 76.32 191.813 76.7033 191.813 77.1633ZM191.967 77.1633C191.967 76.6266 191.506 76.1666 190.969 76.1666C190.432 76.1666 189.971 76.6266 189.971 77.1633C189.971 77.7 190.432 78.16 190.969 78.16C191.583 78.0833 191.967 77.7 191.967 77.1633Z" fill="white"/>
</svg>
