<svg width="241" height="161" viewBox="0 0 241 161" fill="none" xmlns="http://www.w3.org/2000/svg">
<path fill-rule="evenodd" clip-rule="evenodd" d="M137.991 80.1347C138.012 83.3191 140.027 86.4227 144.037 86.4227C148.069 86.4227 150.104 83.3191 150.104 80.1347C150.104 76.8695 148.089 73.8665 144.037 73.8665C139.987 73.8665 137.971 76.8093 137.991 80.1347ZM151.152 80.1549C151.132 83.8632 148.774 87.4309 144.037 87.4309C139.301 87.4309 136.923 83.8434 136.923 80.1145C136.923 76.3255 139.281 72.8591 144.037 72.8591C148.794 72.8591 151.172 76.3457 151.152 80.1549ZM33.8356 84.9055H35.9517V75.473H33.7552V73.0544H38.5924V84.9055H40.5473V87.1629H33.8356V84.9055ZM68.4205 84.5428H76.3411V81.3584H68.7029V78.8792H76.3411V75.6346H68.4205V73.0544H78.9815V87.1629H68.4205V84.5428ZM56.8665 84.5428H48.9454V87.1629H59.5068V73.0544H48.9454V75.6346H56.8665V78.8792H49.2278V81.3584H56.8665V84.5428ZM88.4195 87.1625L94.1836 75.5938H87.3112V73.0544H97.6706L97.8115 74.4653L91.4831 87.1625H88.4195ZM118.881 73.0544H118.277L113.944 85.9532L109.59 73.0544H108.441L113.379 87.2033H114.548L116.806 80.5518L118.579 75.0094L120.353 80.5926L122.59 87.2033H123.759L128.737 73.0544H127.568L123.195 85.9532L118.881 73.0544ZM166.721 80.7937H161.723V74.0622H166.842C169.18 74.0622 170.309 75.7752 170.289 77.428C170.268 79.4026 169.18 80.7937 166.721 80.7937ZM170.45 87.1625H171.881L166.903 81.7611C169.986 81.7611 171.498 79.7456 171.478 77.4481C171.457 75.2513 169.906 73.0544 166.842 73.0544H160.634V87.1625H161.723V81.8217H165.573L170.45 87.1625ZM206.622 75.7818C205.594 74.129 203.942 73.8871 202.35 73.8669C200.697 73.8669 198.077 74.4715 198.077 76.729C198.077 78.5227 200.011 78.946 202.39 79.3895L202.543 79.419C205.216 79.9324 207.932 80.4544 207.932 83.4407C207.912 86.6251 204.707 87.3909 202.35 87.3909C200.152 87.3909 197.653 86.4837 196.565 84.3273L197.532 83.8438C198.399 85.5568 200.616 86.4034 202.35 86.4034C204.083 86.4034 206.844 85.9195 206.844 83.4205C206.864 81.304 204.526 80.8403 202.209 80.3973C199.629 79.8932 196.988 79.3693 196.988 76.7694C196.928 73.7865 200.032 72.8591 202.35 72.8591C204.365 72.8591 206.118 73.1819 207.509 75.2579L206.622 75.7818ZM188.489 73.155L181.567 80.323L189.134 87.0817V87.1625H187.763L180.498 80.7261V80.0003L187.179 73.0544H188.489V73.155Z" fill="#282522"/>
</svg>
