<svg width="240" height="161" viewBox="0 0 240 161" fill="none" xmlns="http://www.w3.org/2000/svg">
<path d="M69.2431 105.209C69.1046 105.487 68.8275 105.904 68.1349 106.6C67.4422 107.435 67.0266 107.852 66.7495 107.852C66.611 107.852 66.4725 107.713 66.4725 107.435C66.4725 106.739 66.7495 106.183 67.1651 105.487C67.5807 104.652 68.1349 104.235 68.689 104.235C68.9661 104.235 69.1046 104.374 69.3817 104.513L69.2431 105.209V105.209ZM70.6284 102.843H68.9661C67.8578 102.843 66.8881 103.4 65.7798 104.652C64.8101 105.765 64.256 106.878 64.1174 107.991C64.1174 108.409 64.1174 108.826 64.3945 109.243C64.6716 109.661 64.9486 109.8 65.3642 109.8C65.9183 109.8 66.611 109.383 67.3037 108.826C67.8578 108.27 68.2734 107.574 68.689 106.878H68.8275L67.8578 109.661H70.0743L72.0138 102.843C71.7367 102.843 71.3211 102.983 70.6284 102.843V102.843ZM85.0358 105.209C84.8973 105.487 84.6202 105.904 83.9275 106.739C83.2349 107.435 82.8193 107.852 82.5422 107.852C82.4037 107.852 82.4037 107.713 82.4037 107.435C82.4037 106.878 82.6807 106.183 83.0963 105.487C83.5119 104.652 84.0661 104.374 84.4817 104.374C84.7587 104.374 84.8973 104.374 85.1743 104.513L85.0358 105.209V105.209ZM86.2826 102.843H84.7587C83.6505 102.843 82.6807 103.4 81.5725 104.513C80.6028 105.626 80.0486 106.6 79.9101 107.852C79.9101 108.27 79.9101 108.687 80.1872 109.104C80.4642 109.383 80.7413 109.661 81.2954 109.661C82.4037 109.661 83.3734 108.687 84.3431 106.878H84.6202C84.4817 107.435 84.3431 107.852 84.2046 108.409C83.9275 109.104 83.789 109.661 83.5119 110.078C83.0963 110.635 82.6807 110.774 82.2651 110.774C81.4339 110.774 80.6028 110.496 79.4945 109.939L79.633 111.887C80.1872 112.026 80.8798 112.026 81.711 112.026C84.0661 112.026 85.5899 111.052 86.144 109.104L87.945 102.843C87.5294 102.843 86.9752 102.983 86.2826 102.843ZM90.5771 106.043C90.7156 105.626 90.8541 105.348 91.1312 104.93C91.4083 104.513 91.8239 104.374 92.1009 104.374C92.378 104.374 92.5165 104.513 92.5165 104.93C92.378 105.626 91.6853 106.043 90.5771 106.043ZM91.2697 108.409C90.5771 108.409 90.1615 108.13 90.1615 107.435C91.1312 107.435 91.9624 107.156 92.7936 106.6C93.7633 106.043 94.3174 105.209 94.456 104.374C94.456 103.956 94.3174 103.539 94.0404 103.261C93.7633 102.983 93.3477 102.843 92.9321 102.843C91.6853 102.843 90.5771 103.261 89.6073 104.235C88.6376 105.209 88.0835 106.322 87.945 107.574C87.945 108.27 88.0835 108.826 88.6376 109.243C89.0532 109.661 89.7459 109.8 90.4385 109.8C91.4083 109.8 92.5165 109.522 93.9018 109.104L94.3174 107.435C93.0706 108.13 92.1009 108.409 91.2697 108.409V108.409ZM101.383 103.122L100.967 104.513C100.413 104.374 99.9973 104.235 99.5817 104.235C99.0275 104.235 98.6119 104.374 98.6119 104.791C98.6119 104.93 98.7505 105.209 99.0275 105.487C99.5817 105.904 99.8587 106.183 99.8587 106.322C100.136 106.739 100.274 107.156 100.274 107.574C100.136 108.409 99.8587 108.965 99.1661 109.243C98.6119 109.522 97.9193 109.661 97.0881 109.661C96.3954 109.661 95.7028 109.522 94.733 109.243L95.1486 107.713C95.9798 108.13 96.6725 108.27 97.0881 108.27C97.2266 108.27 97.5037 108.27 97.6422 108.13C97.7807 107.991 97.9193 107.852 97.9193 107.713C97.9193 107.435 97.7807 107.156 97.5037 106.878L96.6725 106.043C96.3954 105.626 96.2569 105.209 96.2569 104.93C96.3954 104.235 96.6725 103.678 97.3651 103.261C97.9193 102.983 98.6119 102.843 99.3046 102.843C99.7202 102.843 100.274 102.983 101.383 103.122V103.122ZM112.881 100.339L112.465 101.73C111.911 101.452 111.495 101.313 111.08 101.313C110.664 101.313 110.387 101.452 110.11 101.87C109.972 102.009 109.833 102.426 109.695 102.983H111.357L110.941 104.235H109.279L107.339 111.191H104.984L107.339 103.122C107.617 102.287 108.171 101.452 108.863 101.035C109.556 100.478 110.387 100.2 111.218 100.2C111.911 100.061 112.327 100.2 112.881 100.339V100.339ZM115.651 107.296C115.236 107.991 114.682 108.409 114.128 108.409C113.85 108.409 113.573 108.27 113.435 107.991C113.296 107.713 113.296 107.435 113.296 107.156C113.296 106.461 113.573 105.904 113.85 105.348C114.266 104.652 114.682 104.235 115.374 104.235C115.651 104.235 115.928 104.374 116.067 104.652C116.206 104.93 116.206 105.209 116.206 105.487C116.067 106.183 115.928 106.739 115.651 107.296ZM117.868 103.4C117.452 102.983 116.76 102.843 116.067 102.843C114.82 102.843 113.712 103.261 112.742 104.235C111.772 105.209 111.218 106.322 111.08 107.574C111.08 108.27 111.218 108.826 111.772 109.243C112.188 109.661 112.881 109.8 113.573 109.8C114.82 109.8 115.928 109.383 116.898 108.409C117.868 107.435 118.422 106.322 118.561 105.07C118.561 104.374 118.283 103.817 117.868 103.4ZM125.764 102.983L125.072 105.07C124.933 104.93 124.517 104.93 124.379 104.93C123.963 104.93 123.409 105.209 122.717 106.043C122.024 106.739 121.608 107.296 121.47 107.713L120.916 109.8H118.699L120.639 103.122H122.855L121.885 106.043H122.024C122.439 105.348 122.855 104.652 123.409 104.096C124.102 103.4 124.794 102.983 125.349 102.983C125.487 102.843 125.626 102.843 125.764 102.983V102.983ZM134.63 103.122L134.215 104.374H133.106C132.968 104.93 132.691 105.487 132.552 106.043C132.414 106.739 132.275 107.296 132.137 107.713C132.137 108.13 132.275 108.409 132.552 108.409C132.691 108.409 132.968 108.27 133.245 108.13L132.829 109.522C132.137 109.661 131.583 109.8 131.167 109.8C130.751 109.8 130.336 109.661 130.059 109.522C129.782 109.243 129.643 108.965 129.643 108.409C129.643 107.852 129.92 107.156 130.059 106.322C130.336 105.626 131.444 102.009 131.444 102.009L133.799 101.73L133.383 103.122H134.63V103.122ZM145.297 106.043C145.436 105.626 145.574 105.348 145.851 104.93C146.128 104.513 146.544 104.374 146.821 104.374C147.098 104.374 147.237 104.513 147.237 104.93C147.098 105.626 146.544 106.043 145.297 106.043ZM146.128 108.409C145.436 108.409 145.02 108.13 145.02 107.435C145.99 107.435 146.821 107.156 147.652 106.6C148.622 106.043 149.176 105.209 149.315 104.374C149.315 103.956 149.176 103.539 148.899 103.261C148.622 102.983 148.206 102.843 147.791 102.843C146.544 102.843 145.436 103.261 144.466 104.235C143.496 105.209 142.942 106.322 142.804 107.574C142.804 108.27 142.942 108.826 143.496 109.243C143.912 109.661 144.605 109.8 145.297 109.8C146.267 109.8 147.375 109.522 148.761 109.104L149.176 107.435C147.929 108.13 146.96 108.409 146.128 108.409ZM167.324 106.043C167.462 105.626 167.601 105.348 167.878 104.93C168.155 104.513 168.571 104.374 168.848 104.374C169.125 104.374 169.263 104.513 169.263 104.93C169.125 105.626 168.571 106.043 167.324 106.043ZM168.155 108.409C167.462 108.409 167.047 108.13 167.047 107.435C168.017 107.435 168.848 107.156 169.679 106.6C170.649 106.043 171.203 105.209 171.341 104.374C171.341 103.956 171.203 103.539 170.926 103.261C170.649 102.983 170.233 102.843 169.817 102.843C168.571 102.843 167.462 103.261 166.493 104.235C165.523 105.209 164.969 106.322 164.83 107.574C164.83 108.27 164.969 108.826 165.523 109.243C165.939 109.661 166.631 109.8 167.324 109.8C168.294 109.8 169.402 109.522 170.787 109.104L171.064 107.435C169.956 108.13 168.848 108.409 168.155 108.409V108.409ZM177.021 102.983L176.606 104.235H175.497C175.359 104.791 175.082 105.487 174.943 106.043C174.805 106.739 174.666 107.296 174.528 107.713C174.528 108.13 174.666 108.409 174.943 108.409C175.082 108.409 175.359 108.27 175.636 108.13L175.22 109.522C174.528 109.661 173.973 109.8 173.558 109.8C173.142 109.8 172.727 109.661 172.45 109.522C172.172 109.243 172.034 108.965 172.034 108.409C172.034 107.852 172.311 107.156 172.45 106.322C172.727 105.626 173.835 102.009 173.835 102.009L176.19 101.73L175.774 102.983H177.021V102.983ZM181.87 102.983L181.454 104.235H180.346C180.207 104.791 179.93 105.487 179.792 106.043C179.653 106.739 179.515 107.296 179.376 107.713C179.376 108.13 179.515 108.409 179.792 108.409C179.93 108.409 180.207 108.27 180.484 108.13L180.069 109.522C179.376 109.661 178.822 109.8 178.406 109.8C177.991 109.8 177.575 109.661 177.298 109.522C177.021 109.243 176.883 108.965 176.883 108.409C176.883 107.852 177.021 107.156 177.298 106.322C177.437 105.626 178.683 102.009 178.683 102.009L181.039 101.73L180.761 102.983H181.87V102.983ZM184.225 106.043C184.363 105.626 184.502 105.348 184.779 104.93C185.056 104.513 185.472 104.374 185.749 104.374C186.026 104.374 186.164 104.513 186.164 104.93C186.164 105.626 185.472 106.043 184.225 106.043ZM185.056 108.409C184.225 108.409 183.948 108.13 183.948 107.435C184.917 107.435 185.749 107.156 186.58 106.6C187.55 106.043 188.104 105.209 188.242 104.374C188.242 103.956 188.104 103.539 187.827 103.261C187.55 102.983 187.134 102.843 186.718 102.843C185.472 102.843 184.363 103.261 183.394 104.235C182.424 105.209 181.87 106.322 181.731 107.574C181.593 108.27 181.87 108.826 182.424 109.243C182.839 109.661 183.532 109.8 184.225 109.8C185.195 109.8 186.303 109.522 187.688 109.104L188.104 107.435C186.857 108.13 185.887 108.409 185.056 108.409ZM45.1385 106.043C44.8615 108.687 46.5239 110.217 49.5716 110.217C51.2339 110.217 52.8963 109.939 54.4202 109.661C54.4202 109.522 54.8358 108.409 54.9743 107.991C54.8358 107.991 54.6972 108.13 54.6972 108.13C53.4505 108.409 52.0651 108.826 50.9569 108.826C49.156 108.826 48.0477 107.574 48.1862 105.765C48.4633 102.983 50.6798 100.061 53.4505 100.061C54.5587 100.061 55.667 100.339 56.7752 100.756C57.0523 100.478 57.3294 99.2261 57.4679 98.9478C56.3596 98.6695 55.1128 98.5304 54.0046 98.5304C48.6018 98.5304 45.4156 102.843 45.1385 106.043ZM158.458 104.93C159.705 104.93 161.09 105.209 160.951 106.739C160.813 108.13 159.566 108.548 158.458 108.548C158.042 108.548 157.765 108.548 157.35 108.409L158.458 104.93V104.93ZM159.982 100.2C160.259 100.061 160.536 100.061 160.813 100.061C161.506 100.061 162.337 100.2 162.337 101.035C162.198 102.565 160.674 103.261 160.12 103.261H159.289L159.982 100.2ZM154.302 109.8H159.705C160.951 109.8 163.583 108.965 163.722 106.6C163.861 105.209 162.614 104.374 161.367 103.956C162.891 103.539 164.692 102.426 164.83 100.756C164.969 98.5304 162.614 98.6695 160.951 98.6695H157.488L154.302 109.8V109.8ZM195.723 103.122L194.892 105.209C194.753 105.07 194.338 105.07 194.199 105.07C193.783 105.07 193.229 105.348 192.537 106.183C191.844 106.878 191.428 107.435 191.29 107.852L190.736 109.939H188.519L190.459 103.261H192.675L191.706 106.183H191.844C192.26 105.487 192.675 104.791 193.229 104.235C193.922 103.539 194.615 103.122 195.169 103.122C195.446 102.843 195.584 102.983 195.723 103.122V103.122ZM78.1092 109.661H75.8927C75.8927 109.661 77.0009 105.904 77.1395 105.209C77.1395 105.209 77.1395 104.93 77.0009 105.07C76.8624 105.07 76.3083 105.626 75.7541 106.322C75.2 107.017 74.7844 107.435 74.7844 107.713L74.0917 109.661H71.8752L73.8147 102.843H76.0312L75.0615 105.765H75.2C75.6156 105.07 76.0312 104.374 76.5853 103.817C77.278 103.122 77.9706 102.704 78.5248 102.704C78.9404 102.704 79.2174 102.843 79.356 103.122C79.4945 103.261 79.7716 103.678 79.4945 104.513L78.1092 109.661ZM59.9615 109.661C59.9615 109.661 61.0697 105.904 61.2083 105.209C61.2083 105.209 61.3468 104.93 61.0697 105.07C60.9312 105.209 60.3771 105.626 59.8229 106.322C59.2688 107.017 58.8532 107.435 58.8532 107.713L58.2991 109.8H56.0826L58.8532 100.339H61.0697C60.5156 102.148 59.9615 104.096 59.2688 105.904H59.4073C59.8229 105.209 60.2385 104.513 60.7927 103.956C61.4853 103.261 62.178 102.843 62.7321 102.843C63.1477 102.843 63.4248 102.983 63.5633 103.261C63.7018 103.4 63.9789 103.817 63.7018 104.652L62.3165 109.661H59.9615V109.661ZM138.509 109.661C138.509 109.661 139.617 105.904 139.756 105.209C139.756 105.209 139.895 104.93 139.617 105.07C139.479 105.209 138.925 105.626 138.371 106.322C137.817 107.017 137.401 107.435 137.401 107.713L136.847 109.8H134.63L137.401 100.339H139.617C139.063 102.148 138.509 104.096 137.817 105.904C138.232 105.209 138.648 104.513 139.202 103.956C139.895 103.261 140.587 102.843 141.141 102.843C141.557 102.843 141.834 102.983 141.972 103.261C142.111 103.4 142.388 103.817 142.111 104.652L140.726 109.661H138.509Z" fill="#666666"/>
<path d="M61.7624 92.8261H45L53.4505 78.2174H70.2128L61.7624 92.8261ZM78.6633 92.8261H95.4257L86.9752 78.2174H70.2128L78.6633 92.8261ZM78.6633 63.6087L70.2128 49L61.7624 63.6087L70.2128 78.2174L78.6633 63.6087Z" fill="#FF0000"/>
<path fill-rule="evenodd" clip-rule="evenodd" d="M109.695 86.5653H102.907V90.3218H110.664V92.8262H100.136V78.6349H110.526V81.1392H102.907V84.2001H109.695V86.5653ZM105.677 76.4088L102.768 65.8349V76.4088H100.136V62.2175H104.153L107.062 72.0957L110.11 62.2175H114.128V76.4088H111.495V65.8349L108.448 76.4088H105.677ZM167.462 62.2175H164.692V76.4088H167.462V62.2175ZM169.817 92.8262V78.6349H167.047V92.8262H169.817ZM195.446 62.2175H192.675V76.4088H195.446V62.2175ZM118.007 62.2175H115.236V76.4088H118.007V62.2175ZM183.117 67.7827H188.796V62.2175H191.567V76.4088H188.796V70.1479H183.117V76.4088H180.346V62.2175H183.117V67.7827ZM125.21 76.4088H122.301V64.7218H118.838V62.2175H128.535V64.7218H125.21V76.4088ZM150.977 92.8262H148.068V81.1392H144.743V78.6349H154.44V81.1392H150.977V92.8262ZM151.808 71.8175C151.808 75.0175 149.73 76.687 146.129 76.687C142.804 76.687 140.587 75.2957 140.726 71.9566V62.2175H143.496V72.0957C143.496 73.0696 144.189 74.3218 146.267 74.3218C148.068 74.3218 149.038 73.3479 149.038 72.0957V62.0783H151.808V71.8175ZM131.444 86.5653H124.795V90.3218H132.552V92.8262H121.885V78.6349H132.275V81.1392H124.795V84.2001H131.444V86.5653ZM159.705 76.4088H155.687H152.64V62.2175H159.012C161.921 62.2175 163.445 63.6088 163.445 65.6957C163.445 67.3653 162.475 68.6175 161.229 68.8957C162.752 69.3131 163.999 70.8436 163.999 72.6523C163.999 74.8783 162.337 76.4088 159.705 76.4088ZM155.687 74.1827H159.012C160.12 74.1827 161.09 73.3479 161.229 72.2349C161.229 70.8436 160.259 70.1479 159.012 70.1479H155.687V74.1827ZM160.813 66.1131C160.813 65.1392 159.982 64.4436 159.151 64.4436H155.687V67.9218H159.012C160.259 67.9218 160.813 66.9479 160.813 66.1131ZM166.077 82.5305C166.077 84.6175 164.83 85.5914 163.584 86.0088C164.692 86.4262 165.662 87.1218 165.662 89.0696C165.673 89.1733 165.684 89.2779 165.696 89.3832C165.824 90.5502 165.962 91.8053 166.216 92.8262H163.306C163.167 92.3354 163.133 91.6679 163.098 90.9839C163.064 90.3108 163.028 89.6218 162.891 89.0696C162.614 87.9566 161.921 87.261 160.397 87.261H158.042V92.8262H155.133V78.6349H161.506C164.415 78.6349 166.077 80.0262 166.077 82.5305ZM158.042 81.1392V85.0349H161.506C162.614 85.0349 163.306 83.9218 163.306 83.087C163.306 81.974 162.475 81.1392 161.367 81.1392H158.042ZM111.634 78.6349H114.405V90.3218H121.054V92.8262H111.634V78.6349ZM136.985 72.6523C136.985 71.2609 135.739 70.8436 133.384 70.4262C130.474 69.8696 128.812 68.4783 128.812 66.2523C128.812 63.4696 131.444 61.9392 134.076 61.9392C137.817 61.9392 139.479 64.3044 139.479 66.5305H136.708C136.708 65.1392 135.877 64.3044 134.215 64.3044C132.691 64.3044 131.721 64.8609 131.721 65.974C131.721 67.3694 132.882 67.5985 134.72 67.9611C135.081 68.0323 135.468 68.1087 135.877 68.2001C138.509 68.7566 139.895 70.1479 139.895 72.374C139.895 74.7392 138.094 76.8262 134.215 76.8262C130.059 76.8262 128.535 74.6001 128.535 72.0957H131.306C131.306 73.3479 132.414 74.4609 134.215 74.4609C136.016 74.4609 136.985 73.6262 136.985 72.6523ZM176.606 72.6523C176.606 71.2609 175.22 70.8436 173.004 70.4262C170.233 69.8696 168.432 68.4783 168.432 66.2523C168.432 63.4696 171.064 61.9392 173.696 61.9392C177.437 61.9392 179.099 64.3044 179.099 66.5305H176.329C176.329 65.1392 175.497 64.3044 173.835 64.3044C172.311 64.3044 171.341 64.8609 171.341 65.974C171.341 67.3694 172.503 67.5985 174.34 67.9611C174.701 68.0323 175.088 68.1087 175.497 68.2001C178.129 68.7566 179.515 70.1479 179.515 72.374C179.515 74.7392 177.714 76.8262 173.835 76.8262C169.679 76.8262 168.155 74.6001 168.155 72.0957H170.926C170.926 73.3479 171.895 74.4609 173.835 74.4609C175.636 74.4609 176.606 73.6262 176.606 72.6523ZM135.323 85.5914C135.323 88.374 136.57 90.6001 138.925 90.6001C140.726 90.6001 141.557 89.6262 141.973 87.8175H144.882C144.466 90.8783 142.111 92.8262 138.786 92.8262C134.492 92.8262 132.275 89.487 132.275 85.4523C132.275 81.4175 134.492 78.0783 138.786 78.0783C142.25 78.0783 144.466 80.1653 144.882 82.9479H141.973C141.557 81.6957 140.726 80.5827 138.925 80.5827C136.57 80.5827 135.323 82.9479 135.323 85.5914ZM173.419 85.5914C173.419 88.374 174.666 90.6001 177.021 90.6001C178.822 90.6001 179.653 89.6262 180.069 87.8175H182.978C182.562 90.8783 180.207 92.8262 176.883 92.8262C172.588 92.8262 170.372 89.487 170.372 85.4523C170.372 81.4175 172.588 78.0783 176.883 78.0783C180.346 78.0783 182.562 80.1653 182.978 82.9479H180.069C179.653 81.6957 178.822 80.5827 177.021 80.5827C174.666 80.5827 173.419 82.9479 173.419 85.5914Z" fill="black"/>
</svg>
