<svg width="240" height="160" viewBox="0 0 240 160" fill="none" xmlns="http://www.w3.org/2000/svg">
<path d="M183.222 82.1005H57V106.552H183.222V82.1005Z" fill="#ED1C24"/>
<path d="M92.1858 93.0441H94.6183C95.8345 93.0441 97.0495 92.7741 97.0495 91.7641C97.0495 90.7841 95.7683 90.4854 94.6183 90.4854H92.1858V93.0441ZM92.1858 98.0654H94.8833C96.0545 98.0654 97.2033 97.6866 97.2033 96.7391C97.2033 95.6666 96.232 95.4116 94.8833 95.4116H92.1858V98.0654ZM87.4083 88.3054H95.5683C99.3508 88.3054 101.826 89.4441 101.826 91.4341C101.826 92.8541 100.233 93.7066 98.4858 94.0704V94.1016C100.588 94.4166 102.245 95.4116 102.245 97.0391C102.245 98.5716 101.031 100.245 96.1658 100.245H87.4083V88.3054Z" fill="white"/>
<path d="M109.012 95.5065H112.573L110.892 91.6065H110.847L109.012 95.5065ZM108.747 88.3052H113.898L119.626 100.245H114.651L113.656 97.9715H107.951L106.867 100.245H103.086L108.747 88.3052Z" fill="white"/>
<path d="M121.704 88.3055H126.148L132.097 94.638H132.139V88.3055H135.81V100.245H132.229L125.419 93.4855H125.374V100.245H121.704V88.3055Z" fill="white"/>
<path d="M139.061 88.3055H143.836V93.0905H143.881L148.768 88.3055H153.321L149.209 92.2542L154.408 100.245H149.299L146.004 95.1442L143.836 97.2117V100.245H139.061V88.3055Z" fill="white"/>
<path d="M57.0014 76.3269H59.6864V54.7643H57.0014V53.4193H71.4239V54.7643H68.7402V76.3269H71.4239V77.7406H57.0014V76.3269Z" fill="#ED1C24"/>
<path d="M170.214 77.425C171.861 77.425 172.759 76.1288 172.759 73.185V58.1863C172.759 55.2438 171.861 53.9813 170.214 53.9813C168.565 53.9813 167.704 55.2763 167.704 58.1863V73.185C167.704 76.095 168.565 77.425 170.214 77.425ZM160.577 56.82C162.996 54.3313 166.322 53 170.214 53C178.065 53 183.427 58.6425 183.427 65.6863C183.427 72.73 178.065 78.4075 170.214 78.4075C166.816 78.4075 163.801 77.3563 161.521 75.4625C158.755 73.185 157.036 69.4363 157.036 65.6863C157.036 62.3913 158.404 59.0275 160.577 56.82Z" fill="#ED1C24"/>
<path d="M149.185 53.419V54.7653H149.31C151.973 54.7653 152.341 55.3965 152.341 57.4978V66.3915L142.948 53.419H130.962V54.7653H131.088C131.643 54.7653 132.585 54.8865 132.997 55.4565C133.147 55.6665 133.447 56.0803 133.788 56.5515V73.6303C133.788 75.7328 133.662 76.3278 131.033 76.3278H130.962V77.7415H138.476V76.3278C138.421 76.3278 138.37 76.3278 138.32 76.3278C135.723 76.3278 135.498 75.739 135.498 73.6303V58.6665L149.278 77.7415H153.985V57.4978C153.985 55.3965 154.35 54.7653 156.977 54.7653H157.191V53.419H149.185Z" fill="#ED1C24"/>
<path d="M109.608 68.3691L112.527 60.0678L115.538 68.3691H109.608ZM128.233 76.3266L119.895 53.4191H113.261L106.083 73.5616C105.63 74.8403 104.94 75.6716 103.958 76.0741C103.651 76.2003 103.223 76.3266 102.803 76.3266H101.74L92.346 60.0253C92.346 60.0253 95.4435 56.9266 95.7635 56.6066C96.7735 55.5941 98.3885 54.9841 99.5497 54.8578C100.06 54.8053 100.723 54.7653 101.303 54.7653V53.4191H90.1947V54.7653H91.341C91.8935 54.7653 93.0047 54.7453 93.431 55.4803C93.7172 55.9728 93.5485 56.7678 92.9072 57.4091L85.0985 65.2403V54.7653H87.3947V53.4191H73.4322V54.7653H75.871V76.3266H73.4322V77.7416H87.3835V76.3266H85.0985V65.2766L91.4597 76.3266H88.846V77.7416H109.798V76.3228H109.45C109.277 76.3228 108.843 76.2853 108.755 76.2628C107.036 75.8191 107.445 74.5191 107.791 73.5378L109.043 69.9728H116.131L118.42 76.3266H116.316V77.7416H129.833V76.3266H128.233Z" fill="#ED1C24"/>
</svg>
