<svg width="241" height="161" viewBox="0 0 241 161" fill="none" xmlns="http://www.w3.org/2000/svg">
<g clip-path="url(#clip0_72_1085)">
<path d="M58.2111 96.2799C68.1902 96.2799 76.2798 88.1903 76.2798 78.2112C76.2798 68.2321 68.1902 60.1425 58.2111 60.1425C48.232 60.1425 40.1423 68.2321 40.1423 78.2112C40.1423 88.1903 48.232 96.2799 58.2111 96.2799Z" fill="white"/>
<path d="M58.2111 57C54.0159 57 49.9149 58.244 46.4268 60.5747C42.9386 62.9054 40.2199 66.2181 38.6145 70.094C37.0091 73.9698 36.589 78.2347 37.4075 82.3492C38.2259 86.4638 40.2461 90.2433 43.2125 93.2097C46.1789 96.1761 49.9584 98.1963 54.073 99.0147C58.1875 99.8331 62.4524 99.4131 66.3282 97.8077C70.204 96.2022 73.5168 93.4835 75.8475 89.9954C78.1782 86.5072 79.4222 82.4062 79.4222 78.2111C79.4158 72.5875 77.179 67.1961 73.2026 63.2196C69.2261 59.2431 63.8346 57.0064 58.2111 57V57ZM58.2111 95.5332C54.7851 95.5332 51.436 94.5173 48.5874 92.6139C45.7388 90.7106 43.5185 88.0052 42.2074 84.84C40.8964 81.6748 40.5533 78.1919 41.2217 74.8318C41.89 71.4716 43.5398 68.3851 45.9623 65.9625C48.3848 63.54 51.4713 61.8902 54.8315 61.2218C58.1917 60.5534 61.6746 60.8965 64.8398 62.2075C68.005 63.5186 70.7103 65.7388 72.6137 68.5874C74.5171 71.436 75.533 74.7851 75.533 78.2111C75.5278 82.8036 73.7012 87.2065 70.4538 90.4538C67.2064 93.7012 62.8036 95.5279 58.2111 95.5332V95.5332Z" fill="#FE5700"/>
<path d="M58.2111 64.7C55.5388 64.6999 52.9266 65.4923 50.7046 66.977C48.4827 68.4616 46.751 70.5717 45.7283 73.0406C44.7057 75.5094 44.4381 78.2261 44.9595 80.847C45.4808 83.4679 46.7676 85.8753 48.6572 87.7649C50.5467 89.6545 52.9542 90.9413 55.5751 91.4626C58.196 91.9839 60.9127 91.7164 63.3815 90.6937C65.8504 89.6711 67.9605 87.9393 69.4451 85.7174C70.9297 83.4955 71.7221 80.8833 71.7221 78.211C71.7181 74.6289 70.2933 71.1947 67.7603 68.6617C65.2274 66.1288 61.7932 64.704 58.2111 64.7V64.7ZM58.2111 87.8331C56.308 87.8331 54.4476 87.2688 52.8653 86.2115C51.2829 85.1543 50.0496 83.6515 49.3213 81.8933C48.593 80.1351 48.4024 78.2004 48.7737 76.3339C49.145 74.4674 50.0614 72.7529 51.407 71.4072C52.7527 70.0615 54.4672 69.1451 56.3337 68.7738C58.2002 68.4025 60.1349 68.5931 61.8931 69.3213C63.6513 70.0496 65.1541 71.2829 66.2114 72.8652C67.2687 74.4476 67.833 76.3079 67.833 78.211C67.8301 80.762 66.8154 83.2078 65.0116 85.0116C63.2078 86.8155 60.7621 87.8302 58.2111 87.8331V87.8331Z" fill="#FE5700"/>
<path d="M58.2111 83.9291C61.369 83.9291 63.929 81.3691 63.929 78.2112C63.929 75.0533 61.369 72.4933 58.2111 72.4933C55.0532 72.4933 52.4932 75.0533 52.4932 78.2112C52.4932 81.3691 55.0532 83.9291 58.2111 83.9291Z" fill="#FE5700"/>
<path d="M110.963 94.6044C99.7005 100.092 85.8138 92.4093 86.7205 79.7633C87.5318 67.0219 101.275 60.5796 112.06 67.356L109.674 71.2212C88.1043 60.9137 84.9548 97.8973 109.149 90.0709L110.963 94.6044Z" fill="black"/>
<path d="M129.716 79.7155V90.5482C129.716 92.1708 129.239 93.1729 127.998 94.3181C126.71 95.6066 123.799 96.3703 120.649 96.3703C115.782 96.3703 111.63 94.5091 111.63 89.8324C111.63 84.2014 116.307 80.9564 124.706 80.9085V80.3836C124.706 76.7093 124.658 75.5639 121.413 75.5639C119.075 75.5639 117.929 75.9933 117.786 78.1885H112.871C112.871 73.6551 115.495 71.9372 121.413 71.8417C127.33 71.9372 129.716 74.3232 129.716 79.7155ZM124.849 84.8215H124.133C122.179 84.8341 120.253 85.2911 118.502 86.1577C117.022 86.8737 116.307 88.0667 116.307 89.4027C116.307 91.2638 117.547 91.9319 120.888 91.9319C123.751 91.9319 124.849 91.5026 124.849 90.5004L124.849 84.8215Z" fill="black"/>
<path d="M150.093 76.4706C150.999 78.4272 151.429 80.6701 151.429 83.3424C151.429 86.8259 150.808 89.9279 149.806 91.7412C148.088 94.7477 144.748 96.3703 140.119 96.3703C139.029 96.3608 137.943 96.249 136.874 96.0362V102.574H131.911L131.958 77.5682C131.958 73.7981 135.06 71.8417 140.978 71.8417C145.798 71.8417 148.565 73.2256 150.093 76.4706ZM146.657 84.3923C146.657 81.2906 146.466 79.8111 145.845 78.5226C144.939 76.8046 143.459 76.1365 140.501 76.1365C137.78 76.1365 136.778 76.6614 136.778 78.2364V91.6936C137.351 91.8844 139.117 92.0753 140.214 92.0753C142.887 92.0753 144.748 91.1687 145.798 89.4507C146.323 88.5439 146.657 86.5398 146.657 84.3923V84.3923Z" fill="black"/>
<path d="M153.527 69.4556V64.7313L158.491 64.254V68.9784L153.527 69.4556ZM158.491 95.9407V72.0802L153.527 72.5574V95.9406L158.491 95.9407Z" fill="black"/>
<path d="M176.672 89.4506C176.672 91.7411 175.718 93.6022 173.809 94.8431C172.138 95.8451 169.943 96.4178 167.653 96.4178C165.362 96.4178 162.785 96.1314 160.542 95.0816L161.879 91.2639C163.74 92.1707 165.887 92.4569 167.557 92.4569C170.23 92.4569 171.614 91.4549 171.614 89.4506C171.566 88.2576 170.707 87.2078 168.941 86.3486C167.223 85.3943 165.601 84.4877 163.931 83.6764C161.449 82.2447 160.924 80.67 160.876 78.6656C160.876 76.4228 161.783 74.6572 163.597 73.4642C165.076 72.4621 166.937 71.9371 169.037 71.8893C171.232 71.8893 173.522 72.2712 175.336 73.1302L174.143 76.9001C172.329 76.4228 170.421 75.8979 169.037 75.8979C166.746 75.8979 165.601 76.7569 165.649 78.5703C165.649 79.5725 166.603 80.5268 168.416 81.338C173.236 83.5332 173.57 83.8196 173.666 83.9149C175.67 85.2511 176.624 87.1123 176.672 89.4506Z" fill="black"/>
<path d="M197 79.8588V95.9406H192.085V80.4792C192.085 76.9478 191.369 76.1844 188.028 76.1844C186.12 76.1844 184.831 76.4229 183.4 77.1387V95.9407H178.484V63.3474L183.4 62.8701V72.7483C184.927 72.1281 186.501 71.9372 188.315 71.9372C194.041 71.9372 197 74.4663 197 79.8588Z" fill="black"/>
</g>
<defs>
<clipPath id="clip0_72_1085">
<rect width="160" height="45.5738" fill="white" transform="translate(37 57)"/>
</clipPath>
</defs>
</svg>
