<svg width="241" height="161" viewBox="0 0 241 161" fill="none" xmlns="http://www.w3.org/2000/svg">
<g clip-path="url(#clip0)">
<path d="M90.8761 68.474C88.1456 71.3649 86.7796 75.0571 86.7781 79.5505C86.7781 84.0395 88.1456 87.7789 90.8339 90.8044C93.6089 93.9198 97.2222 95.4752 101.629 95.4752C104.322 95.4656 106.982 94.874 109.43 93.7402L108.109 90.3959C105.994 91.2421 103.966 91.6843 102.027 91.6843C98.7209 91.6843 96.0771 90.4835 94.0514 88.0931C92.1547 85.8217 91.2297 83.0205 91.2297 79.683C91.2297 76.3454 92.1547 73.5443 94.0047 71.3177C95.9881 68.961 98.5897 67.8029 101.852 67.8029C102.866 67.8012 103.878 67.9202 104.865 68.1575C106.366 68.474 106.439 70.0249 106.439 70.0249V74.0426H109.923V68.7321C109.923 67.1991 109.305 65.9265 107.815 65.2958C105.525 64.3239 103.831 64.1129 101.683 64.1129C97.2222 64.1129 93.6534 65.5808 90.8761 68.474Z" fill="#4D4D4F"/>
<path d="M128.114 79.3712C128.114 74.6129 125.426 72.2539 120.049 72.2539C117.466 72.2759 114.921 72.8842 112.603 74.0338L113.968 77.1536C116.172 76.2177 118.111 75.7284 119.787 75.7284C122.651 75.7284 124.105 76.7519 124.105 78.7517C124.105 79.6877 123.487 80.4441 122.253 80.9334C121.724 81.1578 120.316 81.4676 118.028 81.9569C115.74 82.4462 114.026 83.0791 112.872 83.9141C111.24 85.07 110.446 86.7623 110.446 88.9417C110.419 89.9152 110.645 90.879 111.101 91.737C111.557 92.595 112.229 93.3175 113.047 93.8325C114.677 94.9547 116.881 95.4799 119.656 95.4799C122.126 95.4799 125.035 94.948 128.428 93.8325C128.254 92.893 128.151 91.9416 128.119 90.9864L128.114 79.3712ZM119.651 92.0054C116.436 92.0054 114.849 90.8944 114.849 88.6252C114.836 88.0907 114.97 87.5631 115.235 87.1C115.499 86.6369 115.885 86.2561 116.349 85.9992C117.017 85.5997 118.155 85.1979 119.74 84.8433C122.122 84.3113 123.576 83.8198 124.15 83.3754V90.3602C124.15 90.5375 124.194 90.8495 124.236 91.258C122.759 91.757 121.21 92.0095 119.651 92.0054V92.0054Z" fill="#4D4D4F"/>
<path d="M138.874 72.2539C136.362 72.2539 133.718 72.7881 130.896 73.8565C131.041 74.7838 131.13 75.7193 131.161 76.6576V101.749H135.128V94.7213C136.429 95.1948 137.798 95.4496 139.181 95.4754C142.356 95.4754 144.962 94.3644 146.984 92.185C149.054 90.0034 150.068 87.2022 150.068 83.8198C150.068 80.3947 149.054 77.6384 147.073 75.5017C145.087 73.3223 142.356 72.2539 138.874 72.2539ZM138.521 92.0054C137.35 92.0373 136.189 91.7937 135.128 91.2939V77.5038C135.101 77.1605 135.056 76.8189 134.994 76.4803C136.232 75.9945 137.546 75.7383 138.874 75.7239C141.165 75.7239 142.928 76.5252 144.12 78.1704C145.131 79.5934 145.661 81.4631 145.661 83.8198C145.661 89.2919 143.281 92.0054 138.521 92.0054V92.0054Z" fill="#4D4D4F"/>
<path d="M156.616 72.7433H152.649V95.4755H156.616V72.7433Z" fill="#4D4D4F"/>
<path d="M171.705 83.8647C171.396 83.6403 169.764 82.7986 166.725 81.3733C164.917 80.5204 164.047 79.5037 164.047 78.3926C164.047 76.5701 165.195 75.679 167.53 75.679C168.895 75.679 170.438 75.991 172.199 76.6576L173.255 73.457C171.455 72.6939 169.522 72.3002 167.57 72.2988C165.586 72.2988 163.87 72.7881 162.455 73.7667C160.823 74.889 159.987 76.4354 159.987 78.4375C159.987 80.3947 160.877 81.9973 162.587 83.243C164.219 84.0869 165.804 84.9331 167.389 85.7793C169.108 86.713 169.991 87.7791 169.991 89.027C169.991 91.071 168.625 92.0945 165.893 92.0975C164.35 92.0975 162.587 91.6935 160.69 90.9393L159.545 94.14C161.651 94.975 163.892 95.4132 166.155 95.4328C168.359 95.4328 170.211 94.9435 171.754 93.9627C173.518 92.8517 174.398 91.2042 174.398 89.0697C174.394 86.8903 173.513 85.1553 171.705 83.8647Z" fill="#4D4D4F"/>
<path d="M187.144 72.2537C184.985 72.2537 182.781 72.7879 180.533 73.8114V64.1129H176.566V95.4326H180.533V77.5036C182.427 76.3028 184.313 75.7237 186.263 75.7237C189.214 75.7237 190.71 77.3689 190.71 80.6167V95.4752H194.713V79.9052C194.733 74.9673 192.036 72.2537 187.144 72.2537Z" fill="#4D4D4F"/>
<path d="M154.588 64.1132C154.26 64.1044 153.933 64.1625 153.627 64.2841C153.322 64.4057 153.043 64.5882 152.809 64.8207C152.575 65.0532 152.389 65.331 152.264 65.6375C152.138 65.944 152.075 66.2729 152.078 66.6046C152.078 68.0298 153.179 69.0533 154.588 69.0533C156.043 69.0533 157.19 68.0298 157.19 66.6046C157.19 65.1793 155.998 64.1132 154.588 64.1132Z" fill="#4D4D4F"/>
<path d="M198.791 72.2516C197.995 72.2441 197.219 71.9989 196.561 71.5469C195.903 71.0949 195.392 70.4564 195.093 69.7118C194.794 68.9672 194.72 68.1499 194.88 67.3629C195.04 66.5759 195.428 65.8544 195.994 65.2894C196.56 64.7244 197.279 64.3411 198.06 64.1879C198.841 64.0347 199.65 64.1185 200.385 64.4286C201.119 64.7387 201.746 65.2613 202.186 65.9305C202.627 66.5997 202.861 67.3856 202.86 68.1891C202.858 68.7258 202.751 69.2568 202.545 69.7517C202.34 70.2466 202.039 70.6956 201.661 71.0731C201.283 71.4505 200.835 71.7489 200.342 71.9511C199.85 72.1534 199.323 72.2555 198.791 72.2516V72.2516ZM202.008 68.1891C202.008 66.416 200.57 64.8695 198.791 64.8695C198.138 64.8552 197.495 65.0377 196.945 65.3937C196.395 65.7497 195.962 66.263 195.702 66.8682C195.442 67.4734 195.367 68.143 195.486 68.7916C195.605 69.4402 195.912 70.0384 196.369 70.5098C196.826 70.9813 197.412 71.3047 198.051 71.4387C198.691 71.5727 199.356 71.5113 199.961 71.2623C200.566 71.0133 201.084 70.588 201.449 70.0406C201.813 69.4933 202.008 68.8487 202.008 68.1891V68.1891ZM199.754 70.4201L198.846 68.9096C198.79 68.7978 198.715 68.6968 198.624 68.6111H198.477C198.383 68.6167 198.289 68.6167 198.195 68.6111V70.4201H197.377V65.9581C197.757 65.8713 198.145 65.8247 198.535 65.8189C199.407 65.8189 200.292 66.1174 200.292 67.2038C200.293 67.4871 200.198 67.7624 200.022 67.9834C199.847 68.2044 199.601 68.3579 199.327 68.418V68.4293C199.476 68.4293 199.634 68.6806 199.703 68.7839L200.716 70.4201H199.754ZM198.197 67.9377C198.317 67.9564 198.438 67.9639 198.56 67.9602C199.035 67.9602 199.449 67.7088 199.449 67.1925C199.449 66.6763 199.064 66.5416 198.589 66.5416C198.46 66.5422 198.331 66.5534 198.204 66.5753L198.197 67.9377Z" fill="#4D4D4F"/>
<path d="M81.1079 80.0715C81.1079 84.2887 79.869 88.4112 77.5479 91.9177C75.2267 95.4242 71.9276 98.1572 68.0677 99.7711C64.2078 101.385 59.9605 101.807 55.8628 100.984C51.7652 100.162 48.0012 98.1309 45.047 95.1489C42.0927 92.1668 40.0809 88.3675 39.2658 84.2313C38.4507 80.0951 38.8691 75.8078 40.4679 71.9116C42.0667 68.0154 44.7742 64.6853 48.248 62.3423C51.7219 59.9993 55.806 58.7488 59.9839 58.7488C65.5863 58.7488 70.9593 60.9953 74.9208 64.994C78.8823 68.9928 81.1079 74.4163 81.1079 80.0715Z" fill="#C6E9FA"/>
<path d="M72.2092 70.0812L76.5719 78.6551L75.1176 87.9967L69.4231 93.7179L61.8295 98.2585L53.5601 95.9265L48.179 92.4565L45.7464 85.3168L59.6438 74.2694L72.2092 70.0812Z" fill="url(#paint0_radial)"/>
<path opacity="0.5" d="M48.2924 64.1985C45.1818 66.5331 42.8268 69.7463 41.5253 73.4319C40.2238 77.1175 40.0343 81.1099 40.9807 84.9042C41.927 88.6985 43.9669 92.1243 46.8421 94.7484C49.7174 97.3726 53.299 99.0771 57.134 99.6465C60.969 100.216 64.8851 99.6247 68.3872 97.9475C71.8893 96.2703 74.82 93.5825 76.8087 90.224C78.7975 86.8654 79.7549 82.9871 79.56 79.0793C79.3651 75.1715 78.0265 71.4099 75.7136 68.27C72.6122 64.0597 67.9808 61.2654 62.8384 60.5018C57.6959 59.7383 52.4636 61.068 48.2924 64.1985V64.1985ZM69.1007 92.4365C65.8533 94.8725 61.7804 95.9071 57.7775 95.3128C53.7746 94.7185 50.1693 92.544 47.7543 89.2672C42.4177 82.0355 71.769 70.216 72.247 70.8803C73.4433 72.504 74.3109 74.3497 74.8002 76.312C75.2896 78.2743 75.391 80.3146 75.0988 82.3165C74.8066 84.3184 74.1265 86.2425 73.0973 87.9789C72.0681 89.7153 70.71 91.23 69.1007 92.4365V92.4365Z" fill="url(#paint1_linear)"/>
<path opacity="0.5" d="M48.2924 64.1985C45.1818 66.5331 42.8268 69.7463 41.5253 73.4319C40.2238 77.1175 40.0343 81.1099 40.9807 84.9042C41.927 88.6985 43.9669 92.1243 46.8421 94.7484C49.7174 97.3726 53.299 99.0771 57.134 99.6465C60.969 100.216 64.8851 99.6247 68.3872 97.9475C71.8893 96.2703 74.82 93.5825 76.8087 90.224C78.7975 86.8654 79.7549 82.9871 79.56 79.0793C79.3651 75.1715 78.0265 71.4099 75.7136 68.27C72.6122 64.0597 67.9808 61.2654 62.8384 60.5018C57.6959 59.7383 52.4636 61.068 48.2924 64.1985V64.1985ZM69.1007 92.4365C65.8533 94.8725 61.7804 95.9071 57.7775 95.3128C53.7746 94.7185 50.1693 92.544 47.7543 89.2672C42.4177 82.0355 60.0396 63.4399 60.531 64.1042C65.5607 70.932 75.8581 87.3594 69.1007 92.4365Z" fill="url(#paint2_linear)"/>
<path opacity="0.5" d="M48.2924 64.1985C45.1818 66.5331 42.8268 69.7463 41.5253 73.4319C40.2238 77.1175 40.0343 81.1099 40.9807 84.9042C41.927 88.6985 43.9669 92.1243 46.8421 94.7484C49.7174 97.3726 53.299 99.0771 57.134 99.6465C60.969 100.216 64.8851 99.6247 68.3872 97.9475C71.8893 96.2703 74.82 93.5825 76.8087 90.224C78.7975 86.8654 79.7549 82.9871 79.56 79.0793C79.3651 75.1715 78.0265 71.4099 75.7136 68.27C72.6122 64.0597 67.9808 61.2654 62.8384 60.5018C57.6959 59.7383 52.4636 61.068 48.2924 64.1985V64.1985ZM69.1007 92.4365C65.8533 94.8725 61.7804 95.9071 57.7775 95.3128C53.7746 94.7185 50.1693 92.544 47.7543 89.2672C42.4177 82.0355 45.2906 75.6028 45.782 76.2694C50.7962 83.0949 75.8581 87.3594 69.1007 92.4365Z" fill="url(#paint3_linear)"/>
</g>
<defs>
<radialGradient id="paint0_radial" cx="0" cy="0" r="1" gradientUnits="userSpaceOnUse" gradientTransform="translate(66.3345 98.4695) scale(23.5899 23.8118)">
<stop stop-color="white"/>
<stop offset="0.83" stop-color="#E8A728"/>
<stop offset="1" stop-color="#E56425"/>
</radialGradient>
<linearGradient id="paint1_linear" x1="44.2556" y1="91.8613" x2="75.9207" y2="68.5384" gradientUnits="userSpaceOnUse">
<stop offset="0.01" stop-color="#9EDCF8"/>
<stop offset="1" stop-color="#00ADEE"/>
</linearGradient>
<linearGradient id="paint2_linear" x1="44.2556" y1="91.8613" x2="75.9207" y2="68.5384" gradientUnits="userSpaceOnUse">
<stop offset="0.01" stop-color="#E1F3FC"/>
<stop offset="0.23" stop-color="#6DCEF5"/>
<stop offset="0.71" stop-color="#0083B5"/>
<stop offset="0.78" stop-color="#0080B1"/>
<stop offset="0.85" stop-color="#0076A3"/>
<stop offset="0.93" stop-color="#00658D"/>
<stop offset="1" stop-color="#005476"/>
</linearGradient>
<linearGradient id="paint3_linear" x1="1721.95" y1="1117.89" x2="5854.76" y2="6482.91" gradientUnits="userSpaceOnUse">
<stop offset="0.01" stop-color="#E1F3FC"/>
<stop offset="0.23" stop-color="#6DCEF5"/>
<stop offset="0.71" stop-color="#0083B5"/>
<stop offset="0.78" stop-color="#0080B1"/>
<stop offset="0.85" stop-color="#0076A3"/>
<stop offset="0.93" stop-color="#00658D"/>
<stop offset="1" stop-color="#005476"/>
</linearGradient>
<clipPath id="clip0">
<rect x="38.86" y="58.7488" width="164" height="43" fill="white"/>
</clipPath>
</defs>
</svg>
