<svg width="241" height="161" viewBox="0 0 241 161" fill="none" xmlns="http://www.w3.org/2000/svg">
<path fill-rule="evenodd" clip-rule="evenodd" d="M41.1092 90.6437C40.2464 90.6553 39.3858 90.5565 38.5481 90.3495C37.8661 90.1783 37.2375 89.8396 36.7196 89.3639C36.1757 88.8404 35.7617 88.1972 35.5104 87.4854C35.2162 86.691 35.0588 85.648 35.0588 84.3874V62.6616H40.2854V68.5458H45.6944V72.8324H40.2854V83.3444C40.2854 85.2053 41.2622 86.2306 43.0348 86.2306C43.9148 86.233 44.7875 86.0703 45.6076 85.751V89.5831C44.2239 90.3165 42.6748 90.6817 41.1092 90.6437ZM73.5986 97.5272C72.1376 97.5461 70.6844 97.3122 69.3032 96.8358C68.1137 96.424 67.0227 95.7698 66.0992 94.9146C65.2363 94.0985 64.5521 93.1122 64.0898 92.0182C63.6091 90.8524 63.3695 89.6014 63.3852 88.3406V88.2538C63.3852 86.9534 63.597 85.8398 64.0162 84.9425C64.4078 84.0816 64.9779 83.3139 65.6888 82.6903C66.4014 82.0788 67.214 81.5946 68.091 81.259C69.0175 80.9029 69.9776 80.6412 70.9566 80.4779L72.2364 80.2646L63.8603 72.3077V68.2565H82.9102V72.6696H70.1931L78.2059 80.6926L77.3836 84.0363H75.1446C73.169 84.0363 71.5936 84.4011 70.4623 85.1205C69.2384 85.8986 68.6176 87.0328 68.6176 88.4862V88.5715C68.6176 89.8778 69.0928 90.9369 70.0313 91.7181C70.9345 92.4698 72.1069 92.8508 73.5147 92.8508C75.1638 92.8508 76.6186 92.5139 77.8381 91.8475C78.9404 91.2302 79.9399 90.445 80.8008 89.5203L84.4269 92.9817C83.2372 94.2856 81.8175 95.3592 80.2388 96.1488C78.4353 97.0653 76.2008 97.5272 73.5986 97.5272ZM89.849 90.3499C90.6866 90.5569 91.5473 90.6558 92.4101 90.6441V90.6471C93.9779 90.6852 95.5292 90.3189 96.9144 89.5835V85.7515C96.0943 86.0708 95.2216 86.2335 94.3416 86.231C92.569 86.231 91.5922 85.2057 91.5922 83.3449V72.8328H97.0027V68.5462H91.5937V62.6621H86.3612V84.3878C86.3612 85.6485 86.5186 86.6915 86.8128 87.4858C87.0639 88.1974 87.4774 88.8405 88.0205 89.3643C88.5384 89.84 89.1669 90.1788 89.849 90.3499ZM106.485 90.6442C105.622 90.6558 104.762 90.557 103.924 90.3499C103.242 90.1788 102.613 89.84 102.095 89.3643C101.552 88.8405 101.139 88.1974 100.888 87.4858C100.594 86.6915 100.436 85.6485 100.436 84.3878V62.6621H105.669V68.5462H111.078V72.8328H105.667V83.3449C105.667 85.2057 106.644 86.231 108.417 86.231C109.295 86.2318 110.165 86.0681 110.983 85.7485V89.5806C110.405 89.8819 109.799 90.1249 109.173 90.3058C108.297 90.5438 107.392 90.6577 106.485 90.6442ZM120.728 89.8912C122.221 90.486 123.815 90.7858 125.422 90.7738C127.044 90.7944 128.654 90.4934 130.16 89.8882C131.552 89.3207 132.824 88.4923 133.905 87.4478C134.957 86.4221 135.799 85.2008 136.382 83.8525C136.98 82.4636 137.283 80.966 137.272 79.4541V79.3674C137.283 77.8555 136.98 76.3579 136.382 74.969C135.805 73.6293 134.971 72.4155 133.927 71.3958C132.855 70.3629 131.591 69.549 130.207 68.9995C128.715 68.4043 127.121 68.1046 125.514 68.1169C123.893 68.0998 122.285 68.4038 120.782 69.0113C119.39 69.5796 118.119 70.4084 117.037 71.4532C115.985 72.478 115.143 73.6989 114.56 75.0469C113.962 76.4362 113.658 77.9343 113.668 79.4468V79.5321C113.658 81.0446 113.961 82.5427 114.56 83.932C115.137 85.2714 115.971 86.4848 117.015 87.5037C118.086 88.5327 119.347 89.3436 120.728 89.8912ZM122.646 72.9934C123.522 72.6155 124.468 72.428 125.422 72.4432V72.4447C126.357 72.4369 127.283 72.6332 128.134 73.0198C129.757 73.7627 131.019 75.1185 131.644 76.7901C131.96 77.6371 132.119 78.5342 132.115 79.438V79.5233C132.122 80.4248 131.972 81.3206 131.674 82.1712C131.386 82.9849 130.941 83.7345 130.366 84.3777C129.785 85.0203 129.076 85.534 128.284 85.8855C127.411 86.2644 126.466 86.453 125.514 86.4386C124.569 86.4515 123.632 86.2545 122.771 85.862C121.162 85.1089 119.911 83.7563 119.286 82.0932C118.97 81.2463 118.81 80.3492 118.814 79.4453V79.3585C118.807 78.457 118.956 77.5611 119.255 76.7107C119.543 75.8969 119.987 75.1473 120.563 74.5041C121.144 73.8609 121.854 73.3463 122.646 72.9934ZM173.158 97.5268C170.556 97.5268 168.323 97.0635 166.518 96.1485C164.94 95.3593 163.521 94.2867 162.332 92.9843L165.959 89.5229C166.82 90.4478 167.82 91.233 168.923 91.8501C170.141 92.515 171.596 92.8519 173.245 92.8519C174.653 92.8519 175.824 92.4709 176.727 91.7192C177.666 90.9381 178.141 89.8804 178.141 88.5726V88.4873C178.141 87.0325 177.52 85.8998 176.296 85.1216C175.163 84.4022 173.589 84.0374 171.614 84.0374H169.373L168.551 80.6938L176.564 72.6707H163.847V68.2576H182.898V72.3118L174.521 80.2686L175.8 80.4819C176.78 80.6452 177.74 80.9069 178.667 81.2631C179.545 81.5984 180.357 82.0826 181.07 82.6944C181.781 83.3179 182.352 84.0856 182.744 84.9465C183.161 85.8439 183.373 86.9574 183.373 88.2564V88.3432C183.389 89.604 183.15 90.8551 182.669 92.0207C182.206 93.1149 181.521 94.1012 180.658 94.9172C179.735 95.7722 178.644 96.4264 177.455 96.8384C176.073 97.3139 174.62 97.5468 173.158 97.5268ZM200.892 72.6725L187.455 97.0108H193.442L206.661 72.4254V68.2565H186.32V72.6725H200.892ZM150.554 68.1016H140.698V90.2584H145.931V73.5135H150.701C151.922 73.5135 153.023 73.9357 153.72 74.6727C155.172 76.2085 155.172 79.6875 155.172 82.4045V90.2569H160.41V77.9575C160.41 69.3829 154.232 68.1016 150.554 68.1016ZM49.1279 68.1139H55.6078L61.1316 73.6465H54.3604V90.2575H49.1279V68.1139Z" fill="#80C565"/>
</svg>
