<svg width="241" height="161" viewBox="0 0 241 161" fill="none" xmlns="http://www.w3.org/2000/svg">
<path d="M54.2174 78.971H44.8802C43.6113 78.9716 42.3546 78.728 41.1822 78.2539C40.0097 77.7799 38.9443 77.0848 38.0471 76.2084C37.1498 75.332 36.4381 74.2914 35.9528 73.1462C35.4675 72.001 35.2181 70.7736 35.2187 69.5342V60.4142H44.5559C47.1161 60.4129 49.5721 61.4048 51.3838 63.1717C53.1955 64.9386 54.2147 67.3359 54.2174 69.8366V78.971ZM38.6587 63.7742V69.5342C38.6574 71.1437 39.3104 72.688 40.4743 73.8274C41.6381 74.9669 43.2176 75.6084 44.8655 75.611H50.7626V69.851C50.7639 68.2414 50.1109 66.6972 48.947 65.5577C47.7832 64.4182 46.2037 63.7767 44.5559 63.7742H38.6587Z" fill="#FFC20E"/>
<path d="M65.8691 78.971H56.532V69.851C56.5306 67.3503 57.5461 64.9514 59.3551 63.1818C61.1641 61.4122 63.6185 60.4167 66.1787 60.4142H75.5158V69.5342C75.5171 72.0349 74.5017 74.4337 72.6927 76.2033C70.8837 77.9729 68.4293 78.9684 65.8691 78.971ZM59.972 75.611H65.8691C67.517 75.6084 69.0964 74.9669 70.2603 73.8274C71.4241 72.688 72.0771 71.1437 72.0758 69.5342V63.7742H66.1787C64.5308 63.7729 62.9498 64.4108 61.7832 65.5475C60.6166 66.6843 59.9598 68.227 59.9572 69.8366L59.972 75.611Z" fill="#00C0F3"/>
<path d="M44.5559 99.7747H35.2187V90.6547C35.2187 88.1544 36.2346 85.7563 38.0433 83.987C39.852 82.2176 42.3056 81.2217 44.8655 81.2179H54.2026V90.3379C54.2026 92.8382 53.1867 95.2363 51.378 97.0056C49.5693 98.775 47.1157 99.7709 44.5559 99.7747V99.7747ZM38.6587 96.4147H44.5559C46.2037 96.416 47.7847 95.7781 48.9513 94.6413C50.118 93.5046 50.7747 91.9619 50.7773 90.3523V84.5923H44.8802C43.2323 84.591 41.6513 85.2289 40.4847 86.3657C39.3181 87.5024 38.6613 89.0451 38.6587 90.6547V96.4147Z" fill="#0089CF"/>
<path d="M75.5159 99.774H66.1788C63.619 99.774 61.1637 98.7817 59.3523 97.0151C57.5408 95.2485 56.5212 92.8519 56.5173 90.3516V81.2316H65.8544C68.4143 81.2316 70.8695 82.2238 72.6809 83.9904C74.4924 85.7571 75.512 88.1537 75.5159 90.654V99.774ZM59.9573 84.5772V90.3372C59.9567 91.1354 60.1171 91.9258 60.4296 92.6634C60.742 93.401 61.2002 94.0711 61.7781 94.6355C62.3559 95.1999 63.042 95.6475 63.7972 95.9527C64.5523 96.2578 65.3616 96.4146 66.1788 96.414H72.0759V90.654C72.0772 89.0444 71.4242 87.5002 70.2604 86.3607C69.0965 85.2212 67.5171 84.5797 65.8692 84.5772H59.9573Z" fill="#8DC63F"/>
<path fill-rule="evenodd" clip-rule="evenodd" d="M151.633 86.7568C151.005 87.5042 150.213 88.1046 149.316 88.5141C148.418 88.9236 147.439 89.1317 146.449 89.1232C143.828 89.1232 141.898 88.3904 140.66 86.9248C139.421 85.4592 138.804 83.3792 138.807 80.6848C138.798 79.445 138.911 78.2073 139.146 76.9888C139.351 75.9161 139.741 74.8853 140.301 73.9408C140.841 73.042 141.618 72.3011 142.552 71.7952C143.647 71.2326 144.873 70.958 146.109 70.9984C147.112 71.0036 148.108 71.1657 149.058 71.4784C149.959 71.7483 150.753 72.2851 151.328 73.0144H151.402V64.9168C151.402 64.7677 151.417 64.6453 151.428 64.5496L151.428 64.5494C151.435 64.4881 151.441 64.4378 151.441 64.3984C151.475 64.1378 151.449 63.873 151.364 63.6237C151.279 63.3745 151.137 63.1471 150.95 62.9584C150.622 62.6992 149.879 62.5696 148.719 62.5696V61.2208H156.479V84.3184C156.479 85.624 156.629 86.4624 156.931 86.8336C157.232 87.2048 157.989 87.3904 159.201 87.3904V88.8304C158.647 88.8048 158.017 88.792 157.309 88.792C156.601 88.792 155.971 88.7728 155.417 88.7344C154.863 88.76 154.233 88.7728 153.525 88.7728C152.817 88.7728 152.187 88.7856 151.633 88.8112V86.7568ZM151.368 77.296C151.365 76.7621 151.308 76.2298 151.196 75.7072C151.088 75.1818 150.895 74.6764 150.626 74.2096C150.374 73.769 150.017 73.3949 149.584 73.12C149.118 72.8384 148.578 72.6966 148.031 72.712C147.33 72.6757 146.637 72.872 146.065 73.2688C145.571 73.6408 145.192 74.1392 144.969 74.7088C144.73 75.314 144.577 75.949 144.517 76.5952C144.455 77.2352 144.424 77.9808 144.424 78.832V80.8288C144.424 81.6928 144.448 82.4448 144.498 83.0848C144.551 83.7381 144.685 84.3828 144.896 85.0048C145.091 85.6161 145.451 86.1648 145.937 86.5936C146.464 87.0295 147.14 87.2542 147.829 87.2224C148.348 87.2544 148.867 87.1518 149.332 86.925C149.797 86.6983 150.193 86.3554 150.478 85.9312C151.077 85.0032 151.38 83.9222 151.348 82.8256L151.368 77.296ZM95.517 71.6027C94.4778 72.0671 93.5298 72.7056 92.7159 73.4891V71.3099C92.1655 71.3291 91.5365 71.3403 90.8288 71.3435C90.1211 71.3467 89.4905 71.3595 88.9368 71.3819C88.3831 71.3563 87.7525 71.3435 87.0448 71.3435C86.3371 71.3435 85.7065 71.3307 85.1528 71.3051V72.7451C86.3355 72.7451 87.0726 72.9307 87.3642 73.3019C87.6558 73.6731 87.8016 74.5115 87.8016 75.8171V84.3179C87.8147 85.6203 87.6771 86.4571 87.3888 86.8283C87.1005 87.1995 86.3634 87.3851 85.1774 87.3851V88.8251L87.7869 88.7867C88.7206 88.7867 89.5789 88.7739 90.3619 88.7483C90.8665 88.7739 91.6364 88.7867 92.6717 88.7867C93.7561 88.7867 94.5129 88.7995 94.9421 88.8251V87.3851C94.0575 87.3851 93.4956 87.1819 93.2565 86.7755C93.0173 86.3691 92.8977 85.5499 92.8977 84.3179V76.6667C92.8751 76.2593 92.9429 75.8519 93.0964 75.4725C93.2499 75.0931 93.4856 74.7505 93.7872 74.4683C94.455 73.9132 95.3146 73.6282 96.1903 73.6715C97.1994 73.6715 97.8808 73.9739 98.2346 74.5787C98.6314 75.3769 98.8141 76.2606 98.7654 77.1467V84.3227C98.7654 85.5547 98.6458 86.3739 98.4066 86.7803C98.1675 87.1867 97.581 87.3899 96.6473 87.3899V88.8299C97.3386 88.8011 98.1134 88.7867 98.9718 88.7867C99.8301 88.7867 100.6 88.7739 101.281 88.7483C101.963 88.7739 102.733 88.7867 103.591 88.7867L105.862 88.8251V87.3851C104.977 87.3851 104.415 87.1819 104.176 86.7755C103.937 86.3691 103.817 85.5499 103.817 84.3179V76.6667C103.795 76.2593 103.862 75.8519 104.016 75.4725C104.169 75.0931 104.405 74.7505 104.707 74.4683C105.375 73.9132 106.234 73.6282 107.11 73.6715C108.119 73.6715 108.8 73.9739 109.154 74.5787C109.551 75.3769 109.734 76.2606 109.685 77.1467V84.3035C109.685 85.5355 109.565 86.3547 109.326 86.7611C109.087 87.1675 108.501 87.3707 107.567 87.3707V88.8107C108.048 88.7851 108.818 88.7723 109.877 88.7723C110.935 88.7723 111.716 88.7595 112.221 88.7339C112.997 88.7723 113.864 88.7915 114.82 88.7915C115.777 88.7915 116.647 88.8043 117.43 88.8299V87.3899C116.244 87.3899 115.5 87.2043 115.199 86.8331C114.897 86.4619 114.747 85.6235 114.747 84.3179V76.5611C114.747 74.6123 114.349 73.2011 113.552 72.3275C112.756 71.4539 111.362 71.0171 109.37 71.0171C108.338 71.0213 107.317 71.2219 106.363 71.6075C105.424 71.97 104.584 72.5382 103.906 73.2683L103.527 73.6379C103.149 72.7776 102.477 72.072 101.625 71.6411C100.725 71.2101 99.7332 70.9945 98.731 71.0123C97.6296 70.9918 96.5356 71.1928 95.517 71.6027ZM136.261 80.4736C136.261 77.1488 135.586 74.7408 134.237 73.2496C132.887 71.7584 130.585 71.0128 127.332 71.0128C124.079 71.0128 121.771 71.7584 120.408 73.2496C119.045 74.7408 118.363 77.1488 118.363 80.4736C118.367 83.552 119.092 85.7632 120.541 87.1072C121.989 88.4512 124.252 89.1232 127.332 89.1232C130.408 89.12 132.666 88.448 134.104 87.1072C135.542 85.7664 136.261 83.5552 136.261 80.4736ZM124.452 74.5072C124.646 73.9264 125.008 73.4128 125.494 73.0288C126.039 72.6789 126.677 72.4924 127.33 72.4924C127.982 72.4924 128.62 72.6789 129.165 73.0288C129.655 73.418 130.017 73.9386 130.207 74.5264C130.447 75.2324 130.599 75.9641 130.659 76.7056C130.734 77.5184 130.772 78.5168 130.772 79.7008C130.772 80.9584 130.734 82.0432 130.659 82.9552C130.6 83.7817 130.448 84.5994 130.207 85.3936C130.024 86.0364 129.664 86.6176 129.165 87.0736C128.639 87.4695 127.994 87.6841 127.33 87.6841C126.666 87.6841 126.02 87.4695 125.494 87.0736C124.995 86.6178 124.635 86.0365 124.452 85.3936C124.211 84.5994 124.059 83.7817 124 82.9552C123.925 82.0432 123.887 80.9584 123.887 79.7008C123.887 78.5168 123.925 77.512 124 76.6864C124.058 75.9445 124.21 75.2125 124.452 74.5072ZM169.01 85.5757V84.3565L169.015 71.3869H161.255V72.8269C162.441 72.8269 163.185 72.9869 163.486 73.3069C163.788 73.6269 163.939 74.3165 163.939 75.3757V85.0237C163.978 85.2733 163.978 85.4461 163.978 85.5421C164.012 85.8028 163.985 86.0676 163.9 86.3168C163.815 86.5661 163.674 86.7935 163.486 86.9821C163.159 87.2413 162.415 87.3709 161.255 87.3709V88.8109C162.038 88.7853 162.908 88.7725 163.865 88.7725C164.821 88.7725 165.691 88.7597 166.474 88.7341C167.27 88.7821 168.147 88.8061 169.103 88.8061C170.06 88.8061 170.93 88.8189 171.713 88.8445V87.4045C170.566 87.4045 169.829 87.2749 169.502 87.0157C169.317 86.8255 169.177 86.598 169.092 86.3491C169.007 86.1003 168.979 85.8363 169.01 85.5757ZM163.973 65.0989C163.937 65.8338 164.175 66.5566 164.641 67.1341C165.168 67.6206 165.865 67.8916 166.59 67.8916C167.315 67.8916 168.012 67.6206 168.538 67.1341C169.001 66.555 169.235 65.8326 169.197 65.0989C169.235 64.3542 169 63.6205 168.533 63.0301C168.013 62.5326 167.313 62.254 166.585 62.254C165.856 62.254 165.157 62.5326 164.636 63.0301C164.17 63.6205 163.935 64.3542 163.973 65.0989ZM175.934 73.0816H173.438V71.3824H175.934V66.4672L181.006 64.84V71.3824H184.716V73.0816H181.006V82.288C180.949 83.5485 181.102 84.8096 181.458 86.0224C181.759 86.8352 182.428 87.2416 183.463 87.2416C184.005 87.2657 184.546 87.1774 185.05 86.9824V88.3888C183.635 88.8273 182.165 89.0744 180.682 89.1232C178.991 89.1232 177.774 88.7728 177.03 88.072C176.287 87.3712 175.915 86.1952 175.915 84.544L175.934 73.0816ZM189.065 74.5593C189.088 74.6329 189.164 74.8057 189.291 75.0777L194.515 88.7337H196.368L195.272 91.5369C194.952 92.4088 194.526 93.2402 194.004 94.0137C193.815 94.3276 193.555 94.5952 193.244 94.7965C192.934 94.9978 192.58 95.1273 192.21 95.1753C191.931 95.1832 191.655 95.1133 191.414 94.9737C191.134 94.7981 190.88 94.5866 190.657 94.3449C190.43 94.1137 190.176 93.9091 189.901 93.7353C189.66 93.5957 189.384 93.5258 189.105 93.5337H188.839C188.37 93.5726 187.933 93.7794 187.611 94.1145C187.275 94.4854 187.099 94.9686 187.119 95.4633C187.114 95.8031 187.185 96.14 187.329 96.4495C187.472 96.7591 187.684 97.0338 187.95 97.2537C188.477 97.7237 189.167 97.981 189.881 97.9737C190.754 97.9819 191.617 97.786 192.397 97.4025C193.135 97.0407 193.801 96.553 194.363 95.9625C194.894 95.4026 195.364 94.7896 195.763 94.1337C196.125 93.5402 196.429 92.9151 196.673 92.2665L203.13 75.7833C203.608 74.4393 204.037 73.6073 204.418 73.2873C204.804 72.9508 205.301 72.7602 205.818 72.7497C206.049 72.7336 206.277 72.6967 206.501 72.6393V71.3097C205.947 71.3321 205.33 71.3449 204.648 71.3481C203.967 71.3513 203.349 71.3641 202.796 71.3865C202.268 71.3609 201.651 71.3481 200.943 71.3481C200.235 71.3481 199.605 71.3353 199.051 71.3097V72.6345L199.43 72.6729C199.905 72.6799 200.377 72.7543 200.83 72.8937C200.993 72.9461 201.134 73.0511 201.228 73.1914C201.323 73.3317 201.366 73.4992 201.351 73.6665C201.268 74.1328 201.141 74.5907 200.973 75.0345L198.171 84.3849L194.731 75.0729L194.658 74.8905C194.553 74.5289 194.491 74.157 194.471 73.7817V73.5609C194.51 73.4268 194.582 73.3043 194.682 73.2045C194.781 73.1048 194.905 73.0309 195.041 72.9897C195.372 72.8726 195.714 72.7921 196.063 72.7497L196.746 72.6393V71.3097C195.99 71.3321 195.131 71.3449 194.171 71.3481C193.211 71.3513 192.341 71.3641 191.562 71.3865C190.779 71.3609 189.909 71.3481 188.952 71.3481C187.996 71.3481 187.126 71.3353 186.343 71.3097V72.6201C186.896 72.6937 187.306 72.7609 187.571 72.8217C187.8 72.8687 188.019 72.9565 188.215 73.0809C188.389 73.2041 188.526 73.3696 188.613 73.5609C188.711 73.7593 188.862 74.0921 189.065 74.5593Z" fill="#0C141E"/>
</svg>
