<svg width="241" height="161" viewBox="0 0 241 161" fill="none" xmlns="http://www.w3.org/2000/svg">
<path d="M184.86 41.5945H56.86V118.594H184.86V41.5945Z" fill="black"/>
<path fill-rule="evenodd" clip-rule="evenodd" d="M120.16 50.498L129.01 73.2267L105.396 75.419L120.16 50.498Z" fill="#FE2637"/>
<path fill-rule="evenodd" clip-rule="evenodd" d="M128.964 73.2267L134.969 75.419L120.16 50.498L128.919 72.9582L128.964 73.2267Z" fill="white"/>
<path fill-rule="evenodd" clip-rule="evenodd" d="M70.7661 101.369C70.7661 102.309 70.3598 103.203 69.3213 103.203V103.74C71.624 103.74 73.8815 103.606 76.2293 103.606C78.5319 103.606 83.0469 103.606 84.0854 103.875L84.8529 100.206L84.3563 100.072C83.5436 101.772 82.5954 102.577 80.2476 102.577H73.2494C73.2494 100.206 73.0688 96.6265 73.0688 93.7183C73.0688 90.8996 73.2494 86.2464 73.2494 84.77C73.2494 83.8304 73.6557 82.9356 74.6942 82.9356V82.3987C73.9266 82.3987 72.9785 82.5329 71.94 82.5329C70.9919 82.5329 70.0889 82.3987 68.9601 82.3987V82.9356C70.6307 83.1593 70.7661 83.4277 70.7661 93.7183V101.369V101.369Z" fill="white"/>
<path fill-rule="evenodd" clip-rule="evenodd" d="M85.0335 94.6131C85.0335 99.9373 89.0519 104.009 94.515 104.009C99.9781 104.009 103.996 99.9373 103.996 94.6131C103.996 89.2889 99.9781 85.2174 94.515 85.2174C89.0519 85.2174 85.0335 89.2889 85.0335 94.6131ZM87.5619 94.6131C87.5619 89.8258 89.6388 86.0228 94.5601 86.0228C99.4815 86.0228 101.558 89.8258 101.558 94.6131C101.558 99.4004 99.4815 103.203 94.5601 103.203C89.6388 103.159 87.5619 99.3557 87.5619 94.6131Z" fill="white"/>
<path fill-rule="evenodd" clip-rule="evenodd" d="M106.931 94.6131C106.931 99.9373 110.95 104.009 116.413 104.009C121.876 104.009 125.894 99.9373 125.894 94.6131C125.894 89.2889 121.876 85.2174 116.413 85.2174C110.95 85.2174 106.931 89.2889 106.931 94.6131ZM109.414 94.6131C109.414 89.8258 111.491 86.0228 116.413 86.0228C121.334 86.0228 123.411 89.8258 123.411 94.6131C123.411 99.4004 121.334 103.203 116.413 103.203C111.491 103.159 109.414 99.3557 109.414 94.6131Z" fill="white"/>
<path fill-rule="evenodd" clip-rule="evenodd" d="M131.132 85.2174H130.68L129.687 100.206C129.551 102.488 129.326 102.935 127.926 103.248V103.696C128.693 103.696 129.416 103.606 130.183 103.606C130.951 103.606 131.718 103.696 132.486 103.696V103.248C131.583 103.159 130.861 102.532 130.861 100.698C130.861 100.027 130.861 98.8188 130.906 98.1477L131.402 89.96H131.538L139.123 103.159L145.625 90.0047H145.715L146.257 99.2662C146.302 99.6689 146.347 100.519 146.347 101.503C146.347 102.443 146.121 103.203 145.038 103.293V103.74C145.715 103.74 146.483 103.651 147.25 103.651C148.153 103.651 148.966 103.74 149.733 103.74V103.293C148.559 103.114 148.424 102.89 148.334 100.787L147.566 85.3069H147.115L139.755 100.251L131.132 85.2174Z" fill="white"/>
<path fill-rule="evenodd" clip-rule="evenodd" d="M157.048 85.5306C156.28 85.5306 155.467 85.6201 154.564 85.6201C153.797 85.6201 152.984 85.5306 152.171 85.5306V85.9781C153.21 85.9781 153.481 86.7387 153.481 87.544L153.616 101.682C153.616 102.488 153.21 103.248 152.442 103.248V103.696C152.984 103.696 153.752 103.606 154.564 103.606C155.467 103.606 156.235 103.696 156.777 103.696V103.248C156.009 103.248 155.558 102.488 155.558 101.682L155.693 87.544C155.693 86.7387 155.964 85.9781 157.002 85.9781V85.5306H157.048Z" fill="white"/>
<path fill-rule="evenodd" clip-rule="evenodd" d="M170.367 88.4835L170.277 85.5753C168.922 85.6201 167.613 85.2174 166.213 85.2174C162.782 85.2174 159.757 86.7386 159.757 90.5416C159.757 97.2529 169.057 94.3894 169.057 99.8926C169.057 102.174 167.251 103.203 165.175 103.203C163.414 103.203 161.292 102.443 160.705 100.564H160.253L160.344 103.293C161.969 103.74 163.594 104.054 165.22 104.054C168.471 104.054 170.909 102.264 170.909 98.9083C170.909 92.6892 161.608 95.15 161.608 89.5573C161.608 87.186 163.639 86.1122 165.807 86.1122C167.477 86.1122 169.374 86.8728 169.915 88.573H170.367V88.4835Z" fill="white"/>
<path fill-rule="evenodd" clip-rule="evenodd" d="M105.351 75.3743L128.919 73.2267L134.924 75.419C134.924 75.419 113.794 77.2087 113.207 77.2982C112.575 77.3429 105.351 75.3743 105.351 75.3743Z" fill="#5F6062"/>
</svg>
