<svg width="241" height="160" viewBox="0 0 241 160" fill="none" xmlns="http://www.w3.org/2000/svg">
<g clip-path="url(#clip0)">
<path d="M68.62 89.71H70.47V96.53H68.62V89.71ZM84.98 89.71H86.78V96.53H84.78L81.06 91.8V96.56H79.26V89.71H81.41L84.99 94.47V89.71H84.98ZM97.41 91.01H94.88V89.71H101.8V91.01H99.27V96.53H97.41V91.03V91.01ZM109.9 89.71H116.28V91.01H111.75V92.42H116.06V93.71H111.75V95.28H116.31V96.58H109.9V89.71ZM124.79 89.71H129.79C131.68 89.71 132 90.87 132 91.56C132.033 91.9196 131.941 92.2796 131.739 92.5787C131.536 92.8778 131.236 93.0974 130.89 93.2C131.7 93.32 131.83 94.36 131.83 95.03C131.791 95.5476 131.914 96.0645 132.18 96.51H130.18C130.004 96.0973 129.942 95.6449 130 95.2C130 94.2 129.59 94.01 129 94.01H126.7V96.51H124.85V89.71H124.79ZM126.64 92.71H129.06C129.177 92.7187 129.295 92.7023 129.406 92.6619C129.516 92.6215 129.617 92.5581 129.701 92.4758C129.785 92.3935 129.851 92.2943 129.894 92.1847C129.937 92.075 129.956 91.9576 129.95 91.84C129.952 91.7146 129.926 91.5902 129.874 91.476C129.823 91.3617 129.746 91.2603 129.651 91.179C129.555 91.0977 129.443 91.0387 129.321 91.006C129.2 90.9733 129.073 90.9679 128.95 90.99H126.59V92.71H126.64ZM145.29 95.11H142.16L141.61 96.52H139.61L142.61 89.7H144.85L147.85 96.52H145.85L145.29 95.11ZM143.72 91.16L142.65 93.86H144.79L143.72 91.16ZM161.58 92.27C161.497 91.8258 161.251 91.4286 160.89 91.1566C160.529 90.8846 160.08 90.7574 159.63 90.8C159.332 90.7861 159.034 90.8375 158.758 90.9506C158.481 91.0637 158.233 91.2358 158.03 91.4549C157.827 91.6739 157.675 91.9346 157.583 92.2188C157.492 92.503 157.463 92.8037 157.5 93.1C157.463 93.3963 157.492 93.697 157.583 93.9812C157.675 94.2654 157.827 94.5261 158.03 94.7452C158.233 94.9642 158.481 95.1363 158.758 95.2494C159.034 95.3625 159.332 95.4139 159.63 95.4C160.086 95.4414 160.54 95.3087 160.902 95.0285C161.264 94.7484 161.506 94.3416 161.58 93.89H163.58C163.35 95.89 161.72 96.7 159.58 96.7C157.09 96.7 155.58 95.63 155.58 93.1C155.58 90.57 157.13 89.5 159.58 89.5C161.22 89.5 163.32 89.92 163.58 92.27H161.58ZM173.82 90.99H171.29V89.71H178.21V91.01H175.68V96.53H173.83V91.03L173.82 90.99ZM186.3 89.71H188.15V96.53H186.3V89.71ZM196.06 89.71H198.06L200.06 94.91L202.06 89.71H204.06L201.06 96.53H199.06L196.06 89.71ZM211.98 89.71H218.36V91.01H213.84V92.42H218.13V93.71H213.84V95.28H218.4V96.58H211.99V89.71H211.98ZM68.47 68.79H74.7V70.46H74.75C75.91 69.12 77.68 68.4 80.54 68.4C84.71 68.4 88.54 70.69 88.54 75.91C88.54 81.13 84.71 83.42 80.54 83.42C77.92 83.42 76.06 82.78 74.96 81.42H74.91V87.91H68.47V68.79ZM78.47 79.11C80.79 79.11 81.97 77.72 81.97 75.92C81.97 74.12 80.93 72.71 78.43 72.71C75.93 72.71 74.9 73.89 74.9 75.9C74.9 77.91 75.96 79.11 78.46 79.11H78.47ZM91.34 73.11C91.4166 72.28 91.7076 71.4841 92.1844 70.8004C92.6612 70.1167 93.3076 69.5687 94.06 69.21C95.63 68.49 97.97 68.21 101.37 68.21C107.93 68.21 110.53 69.68 110.53 73.87V80.71C110.493 81.4837 110.7 82.2495 111.12 82.9H104.58C104.445 82.4482 104.368 81.9812 104.35 81.51C102.91 82.85 100.72 83.51 97.3 83.51C92.98 83.51 90.25 82.35 90.25 78.75C90.25 76.18 92.08 74.53 96.84 74.32L102.27 74.06C103.56 73.98 103.99 73.67 103.99 72.9C103.99 71.97 102.83 71.54 100.99 71.54C99.52 71.54 98.06 71.77 97.75 73.14H91.33L91.34 73.11ZM104.16 76.51C103.08 76.74 101.25 76.9 98.96 77.1C97.78 77.2 97.21 77.59 97.21 78.49C97.21 79.39 98.01 80.09 99.6 80.09C101.76 80.09 104.16 79.55 104.16 77.09V76.46V76.51ZM113.99 68.84H120.22V71.54H120.27C120.948 70.5807 121.848 69.799 122.892 69.2611C123.936 68.7233 125.095 68.445 126.27 68.45C126.976 68.4488 127.681 68.4989 128.38 68.6V74.36C127.333 74.0526 126.251 73.8812 125.16 73.85C122.87 73.85 120.42 74.6 120.42 77.63V82.91H113.97V68.79L113.99 68.84ZM130.67 73.11C130.759 72.2808 131.062 71.489 131.549 70.8123C132.037 70.1356 132.692 69.5972 133.45 69.25C135.02 68.53 137.36 68.25 140.76 68.25C147.32 68.25 149.92 69.72 149.92 73.91V80.71C149.883 81.4838 150.089 82.2498 150.51 82.9H143.92C143.785 82.4482 143.708 81.9812 143.69 81.51C142.25 82.85 140.06 83.51 136.64 83.51C132.32 83.51 129.59 82.35 129.59 78.75C129.59 76.18 131.42 74.53 136.18 74.32L141.61 74.06C142.9 73.98 143.33 73.67 143.33 72.9C143.33 71.97 142.17 71.54 140.33 71.54C138.86 71.54 137.4 71.77 137.09 73.14H130.66L130.67 73.11ZM143.49 76.51C142.41 76.74 140.58 76.9 138.29 77.1C137.11 77.2 136.54 77.59 136.54 78.49C136.54 79.39 137.34 80.09 138.93 80.09C141.09 80.09 143.49 79.55 143.49 77.09V76.46V76.51ZM166.39 81.43H166.34C165.18 82.77 163.41 83.49 160.55 83.49C156.38 83.49 152.55 81.2 152.55 75.98C152.55 70.76 156.38 68.47 160.55 68.47C163.17 68.47 165.03 69.11 166.13 70.47H166.18V63.85H172.61V82.85H166.38V81.38L166.39 81.43ZM162.61 72.71C160.29 72.71 159.11 74.1 159.11 75.9C159.11 77.7 160.11 79.09 162.64 79.09C165.17 79.09 166.17 77.91 166.17 75.9C166.17 73.89 165.06 72.71 162.61 72.71ZM185.69 68.21C192.95 68.21 196.11 70.63 196.11 75.8C196.11 80.97 192.94 83.42 185.69 83.42C178.44 83.42 175.27 81 175.27 75.8C175.27 70.6 178.44 68.23 185.69 68.23V68.21ZM185.69 79.21C188.29 79.21 189.37 78.03 189.37 75.76C189.37 73.49 188.29 72.34 185.69 72.34C183.09 72.34 182.06 73.61 182.06 75.82C182.06 78.03 183.12 79.27 185.69 79.27V79.21ZM196.99 82.81L203.48 75.45L197.54 68.73H205.41L207.96 72.51L210.51 68.73H218.38L212.38 75.45L218.97 82.81H210.79L208.01 78.81L205.23 82.81H197.05H196.99ZM60.55 81.71C60.28 80.37 61.67 79.21 61.01 77.84C60.35 76.47 57.17 76.56 57.12 75C57.05 73.19 59.69 74.11 60.8 74.15C60.8 71.25 59.66 68.76 56.53 70.72C56.2571 70.7516 55.9806 70.7163 55.7245 70.6169C55.4683 70.5176 55.2402 70.3573 55.06 70.15C54.06 68.44 56.97 68.07 57.06 66.71C57.06 65.91 56.12 65.4 55.82 64.71C55.7157 64.2323 55.7157 63.7377 55.82 63.26C55.82 63.07 55.59 63.06 55.44 63.02C54.85 62.87 54.3 63.21 53.69 63.08C53.1065 62.8113 52.5561 62.4757 52.05 62.08C51.9189 62.3754 51.7243 62.6383 51.48 62.85C51.04 63.46 49.48 65.63 48.48 64.69C48.329 64.4726 48.229 64.2239 48.1875 63.9624C48.1459 63.701 48.1639 63.4335 48.24 63.18C48.77 59.39 47.4 58.98 44.06 58.45C43.26 58.32 41.22 57.84 40.29 58.12C40.29 58.76 41.1 63.25 39.66 63.01C37.95 63.01 38.88 58.56 36.4 58.01C35.9412 58.0794 35.5151 58.289 35.18 58.61C34.83 59.12 35.53 60.69 35.68 61.3C35.8871 62.0961 35.8488 62.9361 35.57 63.71V63.87C32.75 63.87 33.06 57.64 28.66 60.71C28.66 62.38 32.66 64.49 31.27 66.32C31.0255 66.644 30.6689 66.8651 30.27 66.94C28.14 67.2 27.27 62.6 24.92 63.01C24.7345 63.0573 24.5614 63.1444 24.4129 63.2653C24.2644 63.3862 24.144 63.5379 24.06 63.71C23.45 64.77 26.06 66.36 26.47 67.44C26.5971 68.0029 26.5729 68.5894 26.4 69.14C24.4 69.14 22.04 66.27 20.17 68.09C19.9952 68.2159 19.8568 68.3859 19.769 68.5826C19.6812 68.7793 19.647 68.9958 19.67 69.21C19.86 69.97 21.22 69.84 21.67 70.56V70.65C22.38 72.26 20.75 73.44 20.73 74.9C20.73 75.63 21.28 76.04 21.05 76.83C20.25 79.55 17.67 76.52 16.44 77.68C15.21 78.84 16.59 80.89 16.68 82.12C16.5837 82.8592 16.4367 83.591 16.24 84.31C16.3377 84.9703 16.5546 85.6073 16.88 86.19C17.12 87.06 16.88 88.02 17.35 88.77C18.74 90.91 21.06 85.07 22.16 87.53C23.01 89.53 18.71 89.41 18.6 90.92C18.49 92.43 21.06 93.77 22.06 94.71C22.9973 95.5369 23.6075 96.6721 23.78 97.91C23.7588 99.1209 23.5148 100.318 23.06 101.44C23.4639 101.527 23.8795 101.548 24.29 101.5C26.47 100.85 27.75 97.37 27.39 95.21C27.06 93.39 26.06 91.83 25.93 89.93C25.8 88.03 27.63 84.93 25.93 83.59L25.7 83.45C25.6285 83.5491 25.5306 83.6261 25.4174 83.6721C25.3042 83.7181 25.1803 83.7312 25.06 83.71C24.6967 83.7322 24.3387 83.6141 24.06 83.38C23.9604 83.3233 23.8732 83.247 23.8038 83.1558C23.7344 83.0645 23.6842 82.9602 23.6561 82.849C23.6281 82.7378 23.6229 82.6221 23.6407 82.5089C23.6586 82.3956 23.6991 82.2872 23.76 82.19C24.18 81.57 25.37 81.69 25.51 80.86C25.81 79.02 21.96 78.66 24.29 76.39C24.5169 76.1536 24.7932 75.97 25.0991 75.8525C25.4051 75.735 25.7331 75.6863 26.06 75.71C27.14 75.79 29.75 76.57 29.6 77.95C29.53 78.58 29 79.17 29.23 79.87C29.46 80.57 30.53 80.52 30.82 81.2C31.2 82.13 30.42 82.82 30.5 83.69C30.5073 83.7793 30.5368 83.8653 30.5857 83.9404C30.6345 84.0155 30.7013 84.0772 30.78 84.12C31.2181 84.2835 31.6119 84.5472 31.93 84.89C32.42 85.97 31.11 87.29 32.85 87.89C32.85 87.12 32.68 86.09 33.35 85.69C33.476 85.9236 33.6418 86.1334 33.84 86.31C34.39 87.17 34.62 87.98 35.74 88.31C35.7126 87.2316 35.4097 86.1782 34.86 85.25C35.66 85.25 36.16 86.31 37.07 86.07C37.98 85.83 37.16 84.92 36.97 84.53C36.42 83.42 37.21 82.53 36.88 81.53C36.55 80.53 33.57 79.55 32.67 78.71C32.4892 78.5677 32.3502 78.3792 32.2675 78.1645C32.1848 77.9499 32.1615 77.7168 32.2 77.49C32.75 75.79 34.75 76.8 36.2 76.4C36.8369 76.1706 37.3977 75.7691 37.82 75.24C38.1806 74.8709 38.435 74.4113 38.5565 73.9098C38.6779 73.4082 38.6618 72.8832 38.51 72.39C38.1521 71.8798 37.9569 71.2732 37.95 70.65C38.37 67.59 43.32 67.76 45.48 68.87C46.58 69.43 47.63 70.73 47.05 72.05C46.53 73.21 45.13 72.54 44.15 72.97C43.1031 73.7201 42.3025 74.7642 41.85 75.97C41.41 77.21 42.64 78.15 42.72 79.36C42.89 82 41.64 84.43 41.12 86.82C41.02 87.26 41.41 87.82 41.17 88.25C40.79 88.89 40 88.66 39.36 88.89C38.9457 89.125 38.5599 89.4068 38.21 89.73C37.29 90.3 36.21 90.58 36.1 91.84C36.68 91.84 37.1 91.53 37.73 91.47C37.7469 91.4668 37.7643 91.4676 37.7809 91.4723C37.7974 91.477 37.8126 91.4856 37.8253 91.4972C37.8379 91.5089 37.8476 91.5234 37.8537 91.5395C37.8597 91.5556 37.8619 91.5729 37.86 91.59C37.86 91.59 37.86 91.67 37.86 91.71C37.72 92.81 36.86 93.71 37.37 94.89C38.15 94.89 38.37 93.07 39.63 93.55C39.78 93.55 39.76 93.55 39.8 93.69C39.9722 94.4936 40.2514 95.2705 40.63 96C40.751 95.9808 40.861 95.9187 40.9399 95.8251C41.0189 95.7314 41.0615 95.6125 41.06 95.49C40.945 94.6169 40.9822 93.7304 41.17 92.87C41.55 91.87 42.23 92.01 42.06 90.67C42.2935 90.5524 42.5146 90.4117 42.72 90.25C44.31 89.7 44.57 88.78 46.58 88.84C47.0518 88.8216 47.5221 88.9034 47.96 89.08C48.31 89.08 48.18 88.53 48.05 88.08C47.34 85.74 46.45 83.43 46.45 80.73H46.83C47.236 81.5363 47.7111 82.3058 48.25 83.03C48.55 83.51 49.52 85.73 50.38 85.25C50.78 85.01 51.02 82.25 51.25 81.6C52.1 79.31 54.5 78.81 55.92 81.02C57.34 83.23 56.43 87.54 54.72 89.16C54.05 89.79 53.09 89.79 52.45 90.38C51.81 90.97 52.38 92.15 52.27 92.96C52.1103 93.7325 51.7072 94.4334 51.12 94.96C49.92 96.17 48.29 96.71 47.06 97.82C46.53 98.29 46.41 99.07 45.76 99.36C45.11 99.65 44.33 99.28 43.66 99.48L42.19 100.4C41.29 100.87 39.83 101.66 39.35 101.81C39.35 103.73 43.94 102.71 44.88 102.2C45.55 101.84 45.75 100.96 46.41 100.67C47.07 100.38 47.74 101.08 48.5 100.82C49.2124 100.485 49.8836 100.069 50.5 99.58C51.7314 98.8232 52.9199 97.9986 54.06 97.11C54.5237 96.7823 54.9123 96.3596 55.2 95.87C55.49 95.06 54.2 93.06 56.48 93.39C58.24 93.62 60 90.08 60.33 88.83C60.53 87.83 60.72 86.89 60.91 85.91L61.64 84.15C62.06 82.71 60.76 82.71 60.55 81.71ZM20.63 85.42C20.3176 85.4732 19.9966 85.4374 19.7036 85.3169C19.4106 85.1964 19.1574 84.9959 18.9728 84.7383C18.7883 84.4808 18.6798 84.1766 18.6599 83.8604C18.6399 83.5442 18.7093 83.2287 18.86 82.95C19.1327 82.5112 19.5294 82.1632 20 81.95C20.5144 81.9412 21.0184 82.0952 21.44 82.39C21.7053 82.5949 21.9041 82.8736 22.0114 83.1911C22.1188 83.5086 22.1298 83.8508 22.0433 84.1746C21.9567 84.4983 21.7764 84.7893 21.5249 85.0109C21.2735 85.2325 20.9621 85.3749 20.63 85.42V85.42ZM30.06 75.13C29.8825 75.1506 29.7032 75.1119 29.55 75.02C27.76 74.26 28.5 73.1 29.18 71.83C30.54 72.38 30.85 74.71 30.06 75.13ZM32.57 80.39C33.1686 80.628 33.6889 81.0283 34.0723 81.546C34.4556 82.0636 34.6869 82.678 34.74 83.32C34.7192 83.4703 34.6645 83.614 34.58 83.74C34.2915 83.8383 33.9785 83.8383 33.69 83.74C32.35 83.17 32.55 81.71 32.55 80.39H32.57ZM45.77 86.25C45.6941 86.7367 45.4413 87.1782 45.06 87.49C44.7593 87.5128 44.4591 87.44 44.2022 87.282C43.9454 87.1239 43.7451 86.8887 43.63 86.61C43.5198 86.0521 43.5198 85.478 43.63 84.92C43.6863 83.0157 43.9888 81.1267 44.53 79.3C45.15 80.66 44.93 82.3 45.23 83.81C45.5386 84.589 45.7176 85.4132 45.76 86.25H45.77ZM54.77 78.19C53.9364 78.2494 53.099 78.2259 52.27 78.12C49.13 77.5 51.84 73.97 52.51 72.56C53.79 73.71 55.21 76.35 54.77 78.19V78.19ZM224.13 88.91C224.551 88.91 224.963 89.0349 225.313 89.269C225.664 89.503 225.937 89.8357 226.098 90.2249C226.259 90.6141 226.301 91.0424 226.219 91.4556C226.137 91.8687 225.934 92.2483 225.636 92.5461C225.338 92.844 224.959 93.0469 224.546 93.1291C224.132 93.2113 223.704 93.1691 223.315 93.0079C222.926 92.8467 222.593 92.5737 222.359 92.2234C222.125 91.8731 222 91.4613 222 91.04C222 90.4751 222.224 89.9333 222.624 89.5339C223.023 89.1344 223.565 88.91 224.13 88.91ZM225.74 91.04C225.728 90.7244 225.624 90.4192 225.44 90.1625C225.256 89.9057 225.001 89.7087 224.706 89.596C224.411 89.4833 224.089 89.4599 223.781 89.5286C223.472 89.5973 223.191 89.7552 222.972 89.9826C222.753 90.21 222.605 90.4968 222.548 90.8073C222.491 91.1179 222.526 91.4385 222.649 91.7292C222.773 92.0199 222.979 92.2679 223.242 92.4423C223.505 92.6167 223.814 92.7098 224.13 92.71C224.346 92.7061 224.56 92.6595 224.758 92.5728C224.956 92.4862 225.135 92.3611 225.285 92.205C225.434 92.0489 225.551 91.8647 225.63 91.663C225.708 91.4613 225.745 91.2462 225.74 91.03V91.04ZM224.01 91.23H223.66V92.23H223.24V89.84H224.17C224.76 89.84 225.06 90.04 225.06 90.53C225.066 90.6991 225.005 90.8637 224.891 90.9888C224.777 91.1139 224.619 91.1897 224.45 91.2L225.1 92.2H224.62L224.01 91.23ZM224.08 90.88C224.38 90.88 224.65 90.88 224.65 90.51C224.65 90.14 224.35 90.18 224.11 90.18H223.64V90.87H224.06L224.08 90.88Z" fill="#3A3938"/>
</g>
<defs>
<clipPath id="clip0">
<rect width="210.26" height="44.92" fill="white" transform="translate(16 58)"/>
</clipPath>
</defs>
</svg>
