<svg width="282" height="161" viewBox="0 0 282 161" fill="none" xmlns="http://www.w3.org/2000/svg">
<path fill-rule="evenodd" clip-rule="evenodd" d="M51.3293 71.3089C49.8465 70.735 48.4715 70.3943 47.0065 70.4033C41.5333 70.4482 37.0576 74.8235 36.9498 80.2839C36.9306 81.353 36.9342 82.4176 36.9378 83.4841V83.4851C36.9393 83.9119 36.9408 84.3391 36.9408 84.7669V85.8697C36.8272 85.7502 36.7303 85.6516 36.6458 85.5656C36.4834 85.4005 36.3673 85.2822 36.2668 85.1525C30.3711 77.3162 34.3704 66.2789 43.7891 63.9029C46.0359 63.338 48.2917 63.3829 50.5475 63.9388C51.3743 64.1451 51.3923 64.1718 51.3923 65.0236V70.4929C51.3866 70.6416 51.3735 70.7901 51.3579 70.969C51.349 71.0706 51.3391 71.1821 51.3293 71.3089ZM234.372 90.6665C234.041 89.8235 233.71 88.9839 233.381 88.1464C232.613 86.1957 231.851 84.2574 231.084 82.3192C230.721 81.4098 230.366 80.4965 230.009 79.5767V79.5754C229.286 77.7115 228.552 75.8209 227.722 73.8821C227.434 75.2809 225.547 88.1382 225.745 90.3797H223.094C223.14 90.2211 223.189 90.0684 223.238 89.919C223.347 89.5783 223.451 89.2547 223.507 88.9182C223.714 87.6809 223.885 86.4436 224.047 85.1973C224.514 81.6468 224.981 78.0961 225.421 74.5456C225.45 74.3205 225.481 74.0952 225.514 73.8692L225.515 73.8675C225.668 72.7978 225.823 71.7146 225.556 70.5826H229.969C230.476 72.7524 231.299 74.7827 232.119 76.8072C232.474 77.6855 232.83 78.5629 233.159 79.4501C233.675 80.8475 234.221 82.2325 234.767 83.6191L234.768 83.622L234.769 83.6244L234.77 83.6261L234.772 83.6295L234.773 83.6324C235.023 84.2697 235.275 84.9075 235.523 85.547C235.597 85.7291 235.682 85.9073 235.788 86.1286V86.131C235.839 86.2358 235.893 86.3503 235.955 86.4794C236.009 86.3773 236.059 86.2882 236.103 86.2075C236.194 86.0475 236.266 85.9202 236.314 85.7891C237.85 81.6468 239.387 77.5044 240.897 73.3531C241.11 72.7728 241.252 72.1637 241.397 71.5455C241.466 71.247 241.537 70.9461 241.616 70.6454C242.2 70.4929 244.869 70.4571 245.938 70.6096C245.706 72.035 245.919 73.4309 246.132 74.83C246.205 75.3142 246.279 75.7987 246.335 76.285C246.694 79.3962 247.099 82.5074 247.53 85.6098C247.577 85.9489 247.613 86.2897 247.651 86.6312V86.6322C247.789 87.8881 247.928 89.1533 248.5 90.3797H244.986C245.205 89.0067 245.01 87.7008 244.815 86.407C244.755 85.9942 244.693 85.5826 244.645 85.1703C244.372 82.8626 244.068 80.5597 243.765 78.2543V78.2524V78.2514V78.2504C243.659 77.4493 243.554 76.6477 243.45 75.8457C243.397 75.4435 243.336 75.0413 243.272 74.622L243.269 74.6027C243.246 74.4488 243.222 74.2926 243.199 74.1332C242.834 74.2277 242.758 74.4929 242.691 74.7331C242.675 74.7893 242.66 74.8443 242.641 74.8954C241.679 77.4321 240.735 79.978 239.793 82.5239L239.792 82.5241V82.5251C239.596 83.0485 239.395 83.5703 239.194 84.092C238.729 85.2956 238.263 86.4997 237.869 87.7257C237.312 89.4382 236.018 90.1735 234.372 90.6665ZM60.2177 80.6515C59.7235 78.661 58.7888 76.8769 57.2879 75.1554C57.2754 75.3301 57.2629 75.4547 57.2531 75.5525C57.2419 75.6647 57.2341 75.7421 57.2341 75.8187C57.2341 76.2558 57.238 76.6937 57.2418 77.1318V77.1327C57.2511 78.1861 57.2605 79.242 57.2161 80.2929C57.1801 81.2343 57.0992 82.2115 56.8476 83.1172C55.3736 88.5237 50.0711 91.3031 45.5327 90.4604C44.9457 90.3517 44.367 90.1983 43.7745 90.0414C43.487 89.9652 43.1958 89.888 42.8994 89.8147C42.8897 89.8626 42.8756 89.9117 42.8614 89.9611C42.8356 90.0502 42.8095 90.1406 42.8095 90.2273C42.805 91.227 42.805 92.2267 42.805 93.2264C42.805 94.2261 42.805 95.2259 42.8005 96.2255C42.7915 96.6917 43.0072 96.898 43.4566 97.0145C45.4607 97.5435 47.4738 97.6511 49.505 97.2835C56.8836 95.9566 62.195 88.7389 60.2177 80.6515ZM182.409 72.6217V72.6231C182.381 72.8595 182.355 73.0816 182.355 73.3083C182.346 78.1142 182.337 82.9288 182.364 87.7348C182.364 88.3336 182.434 88.9369 182.509 89.5604V89.5617C182.54 89.8244 182.571 90.0908 182.597 90.3617H179.038C179.408 89.0489 179.376 87.7464 179.344 86.4503C179.333 86.0469 179.323 85.6442 179.326 85.2421C179.352 81.2433 179.344 77.2355 179.326 73.2276C179.326 72.6413 179.27 72.0505 179.212 71.4323C179.186 71.1524 179.16 70.8669 179.137 70.5737C179.15 70.5708 179.165 70.5672 179.182 70.563C179.276 70.5402 179.436 70.5019 179.595 70.5019C179.966 70.5019 180.335 70.5017 180.706 70.5014C182.552 70.5001 184.397 70.4989 186.245 70.5289C186.893 70.5377 187.559 70.6544 188.188 70.8248C192.115 71.8648 192.708 75.4243 191.269 78.1589C190.704 79.2348 189.832 79.9791 188.727 80.4632C188.512 80.5554 188.306 80.6419 188.037 80.754L188.035 80.7546L188.033 80.7557L188.032 80.7561L187.81 80.8488L188.33 81.5989C189.311 83.016 190.262 84.3879 191.225 85.7532C191.45 86.0691 191.667 86.3901 191.888 86.7124C192.758 87.9902 193.639 89.2858 194.946 90.3528C193.787 90.4693 192.779 90.4783 191.792 90.2631C191.136 90.1197 190.722 89.6265 190.362 89.0975C189.751 88.1964 189.14 87.2932 188.529 86.3898C187.918 85.4864 187.307 84.5831 186.695 83.682C186.472 83.3489 186.247 83.0172 186.021 82.6856L186.02 82.6832L186.019 82.6819L186.018 82.6803C185.657 82.1482 185.297 81.6167 184.943 81.0818C184.851 80.944 184.764 80.8001 184.67 80.644C184.599 80.5262 184.524 80.4007 184.439 80.266C184.585 80.2271 184.723 80.193 184.856 80.1601C185.091 80.1019 185.309 80.0478 185.527 79.9791C186.991 79.5217 188.196 78.7687 188.727 77.2264C189.544 74.8505 188.314 72.7793 185.841 72.3848C184.736 72.2234 183.63 72.2234 182.444 72.3131C182.433 72.4191 182.422 72.5212 182.409 72.6208V72.6217ZM215.831 70.5468H213.018C213.402 71.6444 213.384 72.7354 213.366 73.8078C213.365 73.9706 213.362 74.1328 213.36 74.2945C213.369 77.074 213.369 79.8536 213.36 82.633C213.36 83.2248 213.334 83.8255 213.262 84.4173C212.983 86.8201 211.616 88.3892 209.388 88.7299C208.517 88.8554 207.59 88.8285 206.71 88.7029C204.913 88.452 203.807 87.3582 203.439 85.5918C203.286 84.8387 203.196 84.0585 203.205 83.2876C203.226 81.8706 203.208 80.4537 203.192 79.0375C203.157 76.2059 203.123 73.3766 203.394 70.5558H199.808C200.198 71.6215 200.188 72.6603 200.179 73.6954V73.6965C200.178 73.8541 200.177 74.0115 200.177 74.1691C200.181 75.5109 200.178 76.8512 200.175 78.1907V78.1917V78.1935V78.1946V78.1965C200.173 80.2027 200.169 82.2068 200.185 84.211C200.212 87.9767 202.091 90.2004 205.811 90.8011C207.33 91.0521 208.857 90.9536 210.358 90.5949C213.046 89.9493 214.708 88.3085 215.203 85.5738C215.373 84.6414 215.464 83.682 215.482 82.7317C215.502 81.2472 215.499 79.7627 215.496 78.2781V78.2746C215.494 77.16 215.491 76.0456 215.5 74.9312C215.501 74.619 215.495 74.3064 215.488 73.9935V73.9925V73.9914V73.9904V73.9885V73.9876C215.463 72.8462 215.438 71.6992 215.831 70.5468ZM169.485 78.5176V81.1626C167.982 80.7938 166.49 80.8218 164.979 80.8501C164.358 80.8616 163.733 80.8734 163.104 80.8577V88.2457C163.172 88.261 163.238 88.2814 163.306 88.3017C163.435 88.3412 163.563 88.3802 163.689 88.3802C164.122 88.3822 164.555 88.386 164.988 88.3898C166.503 88.4029 168.014 88.4161 169.53 88.3534C170.118 88.329 170.707 88.1862 171.317 88.0382C171.612 87.9669 171.91 87.8944 172.216 87.8333C172.203 87.9678 172.189 88.1046 172.175 88.2431C172.119 88.8253 172.057 89.4397 171.956 90.0479C171.93 90.1913 171.696 90.3438 171.524 90.4065C171.413 90.4526 171.276 90.4456 171.141 90.4386H171.14L171.094 90.4362L171.057 90.4347L171.03 90.4338C171.018 90.4336 171.006 90.4335 170.995 90.4335H160.579C160.415 90.4335 160.252 90.4158 160.068 90.396C159.959 90.3843 159.843 90.3717 159.715 90.3617C160.126 89.022 160.095 87.6931 160.064 86.379C160.055 85.996 160.045 85.6135 160.048 85.2332C160.076 81.2612 160.066 77.2892 160.048 73.3173C160.042 72.6857 159.976 72.0587 159.91 71.4232C159.883 71.1656 159.856 70.9066 159.832 70.6454C160.362 70.484 170.401 70.4482 171.489 70.6454V72.6628C171.112 72.6481 170.737 72.6315 170.362 72.6149C169.352 72.5704 168.342 72.5257 167.328 72.5193C167.027 72.5174 166.728 72.513 166.428 72.5086C165.325 72.4925 164.217 72.4763 163.087 72.582V78.6253C164.021 78.8852 167.265 78.8314 169.485 78.5176ZM139.287 70.5468H135.135C136.142 71.5779 136.636 72.6986 137.086 73.8372C138.514 77.627 139.933 81.4212 141.353 85.2167L141.354 85.2197L141.356 85.2232L141.36 85.2332L141.363 85.2433L141.367 85.2533C141.962 86.8423 142.557 88.4317 143.153 90.021C143.231 90.2444 143.322 90.4639 143.417 90.6928C143.463 90.8037 143.509 90.9172 143.557 91.0342C145.129 90.55 146.406 89.8686 147.017 88.2637C148.365 84.7331 149.731 81.213 151.097 77.6924L151.101 77.6829L151.104 77.6754L151.107 77.6673C151.941 75.519 152.775 73.3704 153.604 71.2192C153.657 71.0857 153.682 70.9445 153.71 70.8007C153.723 70.7227 153.738 70.6436 153.757 70.5647H151.295C151.166 70.9744 151.048 71.3748 150.932 71.7675V71.7686L150.931 71.7691C150.706 72.5272 150.491 73.2576 150.226 73.9718C149.084 77.0049 147.923 80.0327 146.76 83.0632L146.757 83.0727L146.751 83.0842L146.742 83.1065C146.383 84.0482 146.02 84.9901 145.66 85.9325C145.587 86.1129 145.503 86.2851 145.415 86.4655L145.414 86.4666C145.371 86.555 145.327 86.6453 145.282 86.7395C145.233 86.698 145.192 86.6692 145.16 86.6464C145.114 86.615 145.085 86.595 145.076 86.5692C144.94 86.2732 144.806 85.9684 144.699 85.6635C144.069 83.885 143.401 82.1209 142.73 80.3547C141.507 77.1264 140.281 73.8908 139.287 70.5468ZM122.535 73.0124C122.163 73.9823 121.794 74.9311 121.429 75.8665C120.659 77.845 119.912 79.7647 119.21 81.7006C118.913 82.5143 118.589 83.3194 118.266 84.1257L118.265 84.129V84.1299H118.263C117.455 86.147 116.641 88.1721 116.218 90.3617H112.964C114.072 88.9728 114.668 87.391 115.257 85.8226C115.453 85.3055 115.646 84.7895 115.858 84.2828C117.386 80.6161 118.85 76.9316 120.315 73.247V73.2456C120.543 72.6784 120.722 72.0911 120.907 71.4868V71.4855L120.909 71.4811L120.91 71.4797C121.001 71.1788 121.095 70.8737 121.197 70.5647H124.54C124.579 70.6488 124.622 70.7358 124.667 70.8256C124.754 71.0039 124.848 71.1929 124.926 71.3895L126.341 74.8356V74.8379C127.965 78.7929 129.588 82.751 131.217 86.7036C131.255 86.7932 131.29 86.8831 131.328 86.9729C131.801 88.1217 132.274 89.2703 133.141 90.2183C132.44 90.4693 130.031 90.5052 129.177 90.3079C128.077 86.7235 126.683 83.2629 125.293 79.8054C124.502 77.8404 123.712 75.8764 122.976 73.8911C122.927 73.731 122.843 73.5794 122.723 73.3608C122.669 73.2609 122.606 73.1473 122.535 73.0124ZM103.742 89.0502V89.0514C103.72 89.4774 103.698 89.9077 103.68 90.3438C104.696 90.5052 106.529 90.4693 107.05 90.29C107.031 89.9781 107.009 89.6694 106.988 89.3631C106.936 88.6478 106.886 87.9445 106.88 87.2416C106.853 84.471 106.826 81.6916 106.88 78.9121C106.893 78.087 106.876 77.2604 106.859 76.4335C106.82 74.4749 106.78 72.5155 107.14 70.5737H103.473C103.863 71.6321 103.854 72.6769 103.845 73.7081C103.843 73.8651 103.842 74.0216 103.842 74.178C103.842 75.1998 103.842 76.2223 103.843 77.2449C103.845 80.3142 103.846 83.3859 103.833 86.4525C103.833 87.3097 103.788 88.1713 103.742 89.0502ZM47.0783 76.2581C49.46 76.2581 51.3833 78.159 51.3833 80.5081C51.3833 82.8481 49.4511 84.758 47.0783 84.758C44.6879 84.758 42.8005 82.8841 42.8095 80.4991C42.8005 78.1142 44.6788 76.2581 47.0783 76.2581ZM91.5653 72.1875C94.0908 73.7029 95.4837 75.9533 95.8343 78.8762C96.0139 80.3467 95.9421 81.7992 95.5287 83.2337C94.4142 86.9366 91.79 89.0348 88.1591 89.9851C87.0986 90.2631 85.9753 90.3886 84.8788 90.4246C83.4756 90.4747 82.0679 90.4634 80.6621 90.4522C80.0601 90.4472 79.4583 90.4425 78.8574 90.4425C78.7269 90.4425 78.5964 90.4246 78.4342 90.4024C78.3396 90.3893 78.234 90.3749 78.1115 90.3617C78.4854 89.2186 78.4789 88.1247 78.4725 87.0425C78.4717 86.9025 78.4709 86.7627 78.4709 86.6229V73.8911C78.4709 73.8123 78.471 73.7335 78.4713 73.6547C78.4736 72.6308 78.476 71.6068 78.0754 70.5826C78.1529 70.5737 78.2235 70.5638 78.2895 70.5545C78.4224 70.5358 78.5365 70.5198 78.6507 70.5198C79.2413 70.5198 79.8324 70.5176 80.4239 70.5154C82.1995 70.5087 83.9775 70.5019 85.7506 70.5558C87.8086 70.6185 89.7768 71.1206 91.5653 72.1875ZM88.941 87.1339C90.7923 86.0849 91.9877 84.5338 92.3382 82.4358C92.509 81.4226 92.5629 80.3467 92.455 79.3246C92.1405 76.1237 90.5498 73.6759 86.8829 72.8332C85.1843 72.4386 83.4408 72.5193 81.7063 72.6268C81.6765 72.6268 81.6467 72.6544 81.6012 72.6965C81.5781 72.7179 81.551 72.7431 81.5175 72.7704V88.3174C84.1597 88.4789 86.6494 88.425 88.941 87.1339Z" fill="white"/>
</svg>
