<svg width="240" height="160" viewBox="0 0 240 160" fill="none" xmlns="http://www.w3.org/2000/svg">
<path fill-rule="evenodd" clip-rule="evenodd" d="M29.9795 70.7144C28.4958 70.1405 27.1199 69.7998 25.6542 69.8088C20.1779 69.8536 15.6997 74.2291 15.5918 79.6894C15.5725 80.7586 15.5762 81.8232 15.5799 82.8898V82.8899V82.89V82.8901V82.8902V82.8903V82.8904V82.8905V82.8906V82.8907C15.5813 83.3175 15.5828 83.7446 15.5828 84.1724V85.2752C15.469 85.1557 15.3721 85.0571 15.2877 84.9712C15.1252 84.8059 15.009 84.6878 14.9084 84.5579C9.00942 76.7216 13.011 65.6844 22.435 63.3084C24.683 62.7436 26.9401 62.7884 29.1972 63.3443C30.0245 63.5505 30.0425 63.5774 30.0425 64.4292V69.8985C30.0367 70.0471 30.0237 70.1957 30.008 70.3744V70.3745L30.008 70.3748L30.0079 70.3754C29.999 70.4769 29.9893 70.588 29.9795 70.7144ZM213.126 90.0721C212.793 89.2274 212.462 88.386 212.131 87.5469C211.364 85.598 210.602 83.6614 209.835 81.7247C209.473 80.8176 209.12 79.9066 208.763 78.9892L208.762 78.9849L208.761 78.9823C208.037 77.1179 207.303 75.2269 206.472 73.2876C206.184 74.6863 204.296 87.5437 204.493 89.7852H201.841C201.887 89.6266 201.936 89.4739 201.984 89.3245C202.094 88.9838 202.198 88.6603 202.254 88.3237C202.461 87.0864 202.632 85.8491 202.794 84.6028C203.261 81.0522 203.729 77.5017 204.17 73.9511C204.198 73.7255 204.23 73.4995 204.263 73.273C204.416 72.2034 204.572 71.1202 204.305 69.9881H208.72C209.228 72.1579 210.051 74.1882 210.871 76.2127L210.872 76.2136C211.227 77.0917 211.583 77.9687 211.912 78.8556C212.428 80.2528 212.974 81.6375 213.52 83.024L213.521 83.0244L213.521 83.0249L213.522 83.027L213.522 83.0287C213.775 83.6691 214.027 84.3099 214.277 84.9525C214.35 85.1347 214.436 85.3128 214.542 85.5342C214.592 85.6396 214.648 85.7548 214.709 85.8849C214.763 85.7828 214.813 85.6938 214.859 85.6131C214.949 85.4529 215.02 85.3257 215.068 85.1946L215.071 85.1883C216.608 81.0481 218.144 76.9078 219.654 72.7586C219.867 72.1782 220.009 71.5692 220.154 70.9509L220.154 70.9505C220.224 70.6521 220.295 70.3515 220.374 70.0509C220.958 69.8985 223.629 69.8626 224.699 70.015C224.465 71.4405 224.678 72.8363 224.892 74.2355C224.965 74.7197 225.039 75.2042 225.095 75.6905C225.454 78.8018 225.859 81.913 226.291 85.0152C226.337 85.3548 226.374 85.6959 226.412 86.0378C226.55 87.2938 226.689 88.5589 227.262 89.7852H223.746C223.964 88.4122 223.769 87.1062 223.575 85.8125C223.514 85.3997 223.452 84.988 223.404 84.5759C223.131 82.2674 222.827 79.9638 222.524 77.6578C222.418 76.856 222.313 76.0539 222.208 75.2512C222.156 74.8487 222.095 74.4462 222.031 74.0268C222.006 73.8669 221.981 73.7045 221.956 73.5387C221.592 73.6331 221.517 73.8983 221.449 74.1387C221.433 74.1949 221.418 74.2498 221.399 74.3008C220.437 76.8378 219.493 79.3837 218.549 81.9297L218.549 81.9298L218.549 81.9299L218.549 81.93L218.549 81.9302L218.549 81.9303L218.549 81.9304L218.548 81.9305L218.548 81.9307L218.548 81.9308L218.548 81.9309C218.353 82.4532 218.152 82.9739 217.951 83.4946L217.95 83.496L217.949 83.4975C217.484 84.7011 217.019 85.9053 216.624 87.1312C216.066 88.8437 214.772 89.579 213.126 90.0721ZM38.8729 80.057C38.3783 78.0666 37.4431 76.2823 35.9414 74.5609C35.9289 74.7358 35.9163 74.8604 35.9065 74.9581L35.9065 74.9583L35.9065 74.9584L35.9065 74.9584C35.8952 75.0709 35.8874 75.1476 35.8874 75.2243C35.8874 75.6618 35.8913 76.1 35.8952 76.5385V76.5387V76.5387V76.5388V76.5388V76.5389V76.5389V76.539V76.539C35.9046 77.5924 35.9139 78.6476 35.8695 79.6984C35.8335 80.6398 35.7526 81.6171 35.5008 82.5227C34.026 87.9292 28.7206 90.7087 24.1795 89.8659C23.5921 89.7572 23.013 89.6038 22.42 89.4468L22.42 89.4468C22.1323 89.3706 21.8414 89.2936 21.5447 89.2203C21.5351 89.2682 21.5209 89.3173 21.5067 89.3666C21.4809 89.4559 21.4548 89.5462 21.4548 89.6328C21.4503 90.6325 21.4503 91.6322 21.4503 92.6319C21.4503 93.6316 21.4503 94.6314 21.4458 95.6311C21.4368 96.0973 21.6526 96.3035 22.1022 96.4201C24.1075 96.9491 26.1218 97.0567 28.1541 96.6891C35.5367 95.3621 40.8512 88.1444 38.8729 80.057ZM161.134 72.0264L161.133 72.0286C161.105 72.265 161.078 72.4873 161.078 72.7139C161.069 77.5198 161.061 82.3345 161.087 87.1403C161.087 87.7392 161.159 88.3424 161.232 88.9657L161.232 88.966C161.263 89.2291 161.295 89.4959 161.321 89.7674H157.76C158.131 88.4544 158.098 87.1519 158.066 85.8558C158.056 85.4526 158.046 85.0499 158.048 84.6478C158.075 80.6489 158.066 76.6411 158.048 72.6333C158.048 72.0471 157.993 71.4566 157.935 70.8385L157.935 70.8381L157.935 70.8376L157.935 70.8371L157.935 70.8365L157.934 70.8357C157.908 70.5566 157.882 70.2719 157.859 69.9793C157.872 69.9765 157.887 69.9729 157.904 69.9687C157.999 69.946 158.158 69.9076 158.318 69.9076C158.688 69.9076 159.058 69.9073 159.428 69.9071C161.277 69.9058 163.121 69.9046 164.972 69.9345C165.62 69.9434 166.285 70.06 166.915 70.2304C170.844 71.2704 171.438 74.8299 169.999 77.5646C169.432 78.6405 168.56 79.3847 167.454 79.8689C167.24 79.9615 167.031 80.0485 166.76 80.1613L166.76 80.1615L166.537 80.2544L167.056 81.0034L167.056 81.0039L167.059 81.0071L167.065 81.0156L167.068 81.02L167.068 81.0203L167.069 81.0217C168.047 82.4326 168.994 83.7989 169.954 85.1588C170.178 85.4737 170.396 85.7937 170.614 86.1149L170.615 86.1151L170.615 86.1155L170.615 86.1162L170.616 86.1164L170.616 86.1168L170.616 86.1175L170.617 86.118L170.617 86.1181C171.487 87.3959 172.37 88.6915 173.677 89.7584C172.517 89.875 171.51 89.8839 170.52 89.6688C169.864 89.5253 169.45 89.0322 169.091 88.5032C168.479 87.6017 167.867 86.698 167.255 85.7943L167.254 85.792C166.643 84.8898 166.032 83.9876 165.422 83.0877C165.198 82.7548 164.973 82.4233 164.748 82.0921L164.748 82.0915L164.747 82.0909L164.747 82.0903L164.746 82.0886L164.744 82.0857C164.383 81.5536 164.022 81.0222 163.668 80.4875C163.576 80.3493 163.489 80.2053 163.395 80.0488C163.325 79.9311 163.25 79.8063 163.165 79.6716C163.311 79.6328 163.449 79.5986 163.581 79.5657C163.816 79.5075 164.034 79.4534 164.253 79.3847C165.719 78.9274 166.923 78.1743 167.454 76.6321C168.272 74.2561 167.04 72.185 164.568 71.7904C163.461 71.6291 162.355 71.6291 161.168 71.7187C161.158 71.8242 161.146 71.9258 161.134 72.0249L161.134 72.0255L161.134 72.026L161.134 72.0264ZM194.575 69.9522H191.76C192.143 71.0498 192.125 72.1407 192.108 73.213V73.2132L192.108 73.2156C192.106 73.3775 192.103 73.539 192.102 73.7C192.111 76.4795 192.111 79.259 192.102 82.0385C192.102 82.6302 192.075 83.231 192.003 83.8227C191.724 86.2256 190.357 87.7947 188.127 88.1354C187.255 88.2609 186.329 88.234 185.448 88.1085C183.649 87.8574 182.543 86.7636 182.174 84.9973C182.022 84.2441 181.932 83.4641 181.941 82.693C181.962 81.2777 181.945 79.8624 181.928 78.4478V78.447V78.4462V78.4454V78.4446V78.4437V78.4429C181.894 75.6113 181.86 72.7822 182.13 69.9612H178.542C178.932 71.0271 178.922 72.0659 178.913 73.1012V73.1014V73.1017V73.1019V73.1022C178.912 73.2597 178.91 73.4171 178.91 73.5745C178.914 74.916 178.912 76.2561 178.91 77.5954V77.5963V77.5973V77.5983V77.5992V77.6002V77.6012C178.906 79.6076 178.903 81.612 178.919 83.6165C178.946 87.3822 180.826 89.6058 184.548 90.2065C186.068 90.4576 187.597 90.359 189.099 90.0003C191.787 89.3548 193.451 87.714 193.945 84.9793C194.116 84.0469 194.206 83.0875 194.224 82.1371C194.245 80.6513 194.242 79.1655 194.239 77.6797C194.237 76.5653 194.234 75.451 194.242 74.3366C194.244 74.0225 194.237 73.708 194.23 73.393C194.205 72.2516 194.18 71.1047 194.575 69.9522ZM148.201 77.9231V80.568C146.697 80.1994 145.206 80.2273 143.693 80.2556C143.072 80.2672 142.448 80.2789 141.817 80.2632V87.6512C141.884 87.6665 141.952 87.6869 142.019 87.7073C142.148 87.7467 142.277 87.7857 142.401 87.7857C142.835 87.7877 143.268 87.7915 143.702 87.7952L143.703 87.7953C145.218 87.8084 146.729 87.8216 148.246 87.7588C148.835 87.7346 149.424 87.5918 150.036 87.4437C150.33 87.3724 150.629 87.2999 150.935 87.2388C150.921 87.3731 150.908 87.5097 150.894 87.6481C150.837 88.2305 150.776 88.8449 150.674 89.4534C150.647 89.5969 150.414 89.7493 150.243 89.812C150.131 89.8581 149.994 89.851 149.858 89.844C149.809 89.8415 149.76 89.8389 149.712 89.8389H139.29C139.127 89.8389 138.963 89.8213 138.78 89.8015L138.779 89.8015C138.67 89.7898 138.554 89.7772 138.427 89.7672C138.838 88.4275 138.806 87.0986 138.776 85.7845C138.767 85.4012 138.758 85.0193 138.76 84.6386C138.787 80.6667 138.778 76.6947 138.76 72.7228C138.753 72.0912 138.688 71.4641 138.621 70.8287L138.621 70.8271L138.621 70.8268L138.621 70.8265L138.621 70.8262L138.621 70.8259C138.594 70.5692 138.567 70.3112 138.544 70.0509C139.074 69.8895 149.119 69.8536 150.207 70.0509V72.0682C149.831 72.0536 149.455 72.037 149.078 72.0204L149.078 72.0204C148.069 71.9759 147.059 71.9313 146.043 71.9248C145.743 71.9229 145.443 71.9185 145.143 71.9141L145.143 71.9141C144.039 71.898 142.93 71.8818 141.799 71.9875V78.0307C142.734 78.2907 145.98 78.2369 148.201 77.9231ZM117.987 69.9522H113.833C114.84 70.9833 115.335 72.1041 115.784 73.2428C117.214 77.0344 118.635 80.8305 120.057 84.6279L120.064 84.6472C120.66 86.2401 121.257 87.8333 121.854 89.4265C121.932 89.6493 122.023 89.8681 122.118 90.0964L122.118 90.0968L122.119 90.0979L122.119 90.0981L122.119 90.0983L122.119 90.1C122.165 90.2105 122.212 90.3232 122.259 90.4397C123.832 89.9555 125.109 89.2741 125.721 87.6691C127.07 84.1394 128.436 80.6201 129.803 77.1003L129.804 77.098L129.805 77.094L129.807 77.0905L129.808 77.0874C130.644 74.9341 131.48 72.7807 132.312 70.6247C132.365 70.491 132.391 70.3498 132.417 70.206L132.417 70.2057C132.431 70.1277 132.446 70.0489 132.465 69.9702H130.001C129.872 70.3802 129.754 70.7808 129.638 71.1738L129.637 71.174C129.413 71.9325 129.197 72.6627 128.931 73.3773C127.79 76.4094 126.628 79.4364 125.465 82.466L125.464 82.4682C125.097 83.4244 124.73 84.3809 124.363 85.338C124.29 85.5183 124.206 85.6906 124.118 85.871C124.074 85.9597 124.03 86.0504 123.985 86.1449C123.936 86.1035 123.895 86.0747 123.862 86.0519C123.817 86.0205 123.789 86.0006 123.778 85.9746C123.643 85.6787 123.509 85.3738 123.401 85.069C122.771 83.2905 122.102 81.5267 121.433 79.7607L121.433 79.7606L121.432 79.7604L121.432 79.7603L121.432 79.7602L121.432 79.7599C120.208 76.5315 118.981 73.2962 117.987 69.9522ZM101.226 72.4179C100.853 73.3877 100.484 74.3362 100.119 75.2715C99.3485 77.2503 98.6007 79.1699 97.8985 81.106C97.6004 81.9208 97.2765 82.7269 96.9521 83.5343L96.952 83.5346L96.9519 83.5349L96.9518 83.5352C96.1414 85.5524 95.3278 87.5775 94.904 89.7672H91.6488C92.7579 88.3782 93.3533 86.7965 93.9437 85.228L93.9437 85.228C94.1384 84.7108 94.3325 84.1951 94.5443 83.6882C96.073 80.0211 97.5388 76.3361 99.0045 72.651L99.0045 72.651C99.2322 72.0836 99.4119 71.4963 99.5969 70.8917C99.6897 70.5887 99.7837 70.2814 99.8858 69.9701H103.231C103.27 70.0543 103.313 70.1415 103.358 70.2314C103.446 70.4096 103.54 70.5983 103.618 70.795C104.09 71.9449 104.562 73.0953 105.034 74.2459C106.658 78.2001 108.282 82.1572 109.912 86.109C109.949 86.1987 109.986 86.2885 110.023 86.3784C110.496 87.5271 110.969 88.6757 111.837 89.6237C111.135 89.8748 108.725 89.9106 107.871 89.7134C106.77 86.1289 105.377 82.6684 103.985 79.2109C103.194 77.2459 102.403 75.2818 101.666 73.2965C101.617 73.1365 101.534 72.9848 101.413 72.7662C101.359 72.6664 101.296 72.5527 101.226 72.4179ZM82.422 88.4558C82.3998 88.8823 82.3774 89.3129 82.3597 89.7493C83.3759 89.9107 85.2103 89.8749 85.7318 89.6956C85.713 89.3836 85.6908 89.0748 85.6689 88.7683L85.6689 88.7681C85.6176 88.0529 85.5673 87.35 85.561 86.6471C85.534 83.8766 85.507 81.0971 85.561 78.3176C85.5743 77.4926 85.5576 76.6659 85.5408 75.8391C85.5011 73.8806 85.4614 71.921 85.8218 69.9792H82.1529C82.5431 71.0375 82.5337 72.0823 82.5244 73.1136V73.1146C82.523 73.2712 82.5216 73.4275 82.5216 73.5836C82.5216 74.6051 82.5222 75.6271 82.5227 76.6495V76.6503V76.6512C82.5244 79.7201 82.5261 82.7916 82.5126 85.8581C82.5126 86.7154 82.4678 87.5767 82.422 88.4558ZM25.7262 75.6637C28.1091 75.6637 30.0335 77.5645 30.0335 79.9136C30.0335 82.2537 28.1001 84.1635 25.7262 84.1635C23.3342 84.1635 21.4458 82.2896 21.4548 79.9046C21.4458 77.5197 23.3252 75.6637 25.7262 75.6637ZM70.2381 71.5931C72.7649 73.1083 74.1588 75.3588 74.5095 78.2818C74.6893 79.7522 74.6174 81.2047 74.2037 82.6393C73.0887 86.3422 70.4629 88.4403 66.83 89.3907C65.7689 89.6686 64.6449 89.7942 63.5478 89.83C62.1438 89.8803 60.7354 89.8689 59.3287 89.8576C58.7263 89.8528 58.1242 89.848 57.523 89.848C57.3924 89.848 57.2619 89.8301 57.0997 89.8079C57.0049 89.7949 56.8993 89.7805 56.7766 89.7673C57.1508 88.6241 57.1443 87.5302 57.138 86.4481C57.1371 86.308 57.1363 86.1682 57.1363 86.0284V73.2966C57.1363 73.2179 57.1365 73.1391 57.1367 73.0603C57.1391 72.0363 57.1414 71.0122 56.7406 69.9882C56.8182 69.9792 56.8888 69.9693 56.9548 69.9601C57.0878 69.9414 57.202 69.9254 57.3161 69.9254C57.9071 69.9254 58.4986 69.9232 59.0904 69.9209C60.867 69.9142 62.6461 69.9075 64.4201 69.9613C66.4793 70.024 68.4486 70.5261 70.2381 71.5931ZM67.6124 86.5395C69.4648 85.4905 70.6607 83.9394 71.0114 81.8413C71.1823 80.8281 71.2363 79.7522 71.1283 78.7301C70.8136 75.5292 69.222 73.0815 65.5531 72.2387C63.8536 71.8442 62.1091 71.9249 60.3735 72.0325C60.3437 72.0325 60.314 72.06 60.2685 72.1021C60.2453 72.1235 60.2181 72.1487 60.1847 72.1759V87.723C62.8284 87.8844 65.3193 87.8306 67.6124 86.5395Z" fill="#E35F0E"/>
</svg>
