<svg width="265" height="160" viewBox="0 0 265 160" fill="none" xmlns="http://www.w3.org/2000/svg">
<g clip-path="url(#clip0_129_87269)">
<path d="M49.189 48.9055H57.9677C57.9643 52.353 57.9946 55.8005 57.9531 59.2479C57.9229 62.7915 57.9475 66.3351 57.9397 69.8787C55.0198 69.8867 52.0989 69.8731 49.1779 69.8855C49.1208 67.7569 49.1689 65.626 49.1532 63.4973C49.1588 62.58 49.1342 61.6639 49.1734 60.7477C49.2081 56.8003 49.179 52.8529 49.189 48.9055Z" fill="white" fill-opacity="0.4"/>
<path d="M63.6855 54.036C66.602 54.0383 69.5185 54.0349 72.435 54.0383C72.4305 59.3554 72.4451 64.6736 72.4283 69.9919C72.3869 72.6499 72.4283 75.309 72.407 77.9681C69.5006 77.9737 66.593 77.9839 63.6866 77.9624C63.6821 71.7246 63.6866 65.4857 63.6855 59.2479C63.6855 57.5106 63.6844 55.7733 63.6855 54.036Z" fill="white" fill-opacity="0.64"/>
<path d="M37.6842 57.6995C39.6237 57.6961 41.5621 57.6973 43.5016 57.6984C43.5004 58.9889 43.5206 60.2806 43.4613 61.57C43.468 66.3691 43.4478 71.1693 43.4725 75.9684C41.5408 75.9661 39.6091 75.9695 37.6775 75.9673C37.6976 73.9823 37.6842 71.9972 37.6842 70.0122C37.6831 65.9076 37.6831 61.803 37.6842 57.6995Z" fill="white" fill-opacity="0.64"/>
<path d="M57.9532 59.2479C59.8635 59.2491 61.7739 59.2479 63.6855 59.2479C63.6866 65.4857 63.6821 71.7246 63.6866 77.9624L63.6877 78.0077C63.6821 80.8014 63.6888 83.594 63.6832 86.3866C61.7706 86.3933 59.8568 86.3956 57.9442 86.3866C57.9431 80.884 57.9498 75.3814 57.9397 69.8787C57.9476 66.3351 57.9229 62.7915 57.9532 59.2479Z" fill="white"/>
<path d="M43.5196 60.7421C45.43 60.7429 47.3403 60.7421 49.2519 60.7421C49.253 65.2687 49.2485 69.7962 49.253 74.3229L49.2541 74.3557C49.2485 76.383 49.2552 78.4096 49.2496 80.4361C47.337 80.441 45.4232 80.4427 43.5106 80.4361C43.5095 76.443 43.5162 72.4498 43.5061 68.4567C43.514 65.8851 43.4893 63.3136 43.5196 60.7421Z" fill="white" fill-opacity="0.4"/>
<path d="M78.1483 66.1293C80.0666 66.1237 81.9848 66.1282 83.9041 66.1282C83.9075 70.0925 83.9041 74.058 83.9052 78.0235C81.9848 78.036 80.0654 78.0258 78.145 78.0292C78.0834 76.9954 78.1271 75.9605 78.1147 74.9256C78.1248 73.2787 78.0924 71.6308 78.1338 69.984C78.1651 68.7002 78.1382 67.4142 78.1483 66.1293Z" fill="white" fill-opacity="0.32"/>
<path d="M49.1779 69.8856C52.0988 69.8731 55.0198 69.8867 57.9397 69.8788C57.9498 75.3814 57.9431 80.884 57.9442 86.3866C57.9341 93.6763 57.952 100.967 57.9352 108.257C55.0187 108.259 52.1022 108.258 49.1868 108.259C49.189 99.0002 49.1801 89.7413 49.189 80.4825C49.1969 76.9502 49.2181 73.4179 49.1779 69.8856Z" fill="white" fill-opacity="0.8"/>
<path d="M72.4284 69.9918C74.3298 69.9884 76.2312 70.002 78.1338 69.9839C78.0924 71.6307 78.1248 73.2787 78.1148 74.9255C78.1271 75.9604 78.0834 76.9953 78.145 78.0291C78.1898 79.6952 78.1965 81.3669 78.1405 83.0329C76.2301 83.0239 74.3208 83.0295 72.4104 83.0295C72.4104 81.3556 72.4116 79.6816 72.4104 78.0076C69.5029 78.0065 66.5953 78.0054 63.6878 78.0076L63.6866 77.9624C66.5931 77.9839 69.5006 77.9737 72.4071 77.968C72.4284 75.3089 72.3869 72.6498 72.4284 69.9918Z" fill="white" fill-opacity="0.4"/>
<path d="M32 70.0382C33.8936 69.9715 35.7895 70.0258 37.6842 70.0122C37.6842 71.9972 37.6976 73.9822 37.6775 75.9672C37.654 79.4747 37.6965 82.9821 37.6562 86.4895C35.7704 86.4872 33.8858 86.4895 32 86.4884V70.0382Z" fill="white" fill-opacity="0.4"/>
<path d="M97.4335 70.2758C97.4895 70.2384 97.6036 70.1638 97.6596 70.1265C101.407 70.1333 105.152 70.1231 108.899 70.1321C109.322 70.1242 109.251 70.6705 109.256 70.9589C109.206 71.8072 109.355 72.6736 109.157 73.5049C106.627 73.5457 104.097 73.5015 101.567 73.5276C101.527 75.2603 101.546 76.9943 101.558 78.727C103.668 78.744 105.78 78.7293 107.892 78.7338C107.957 78.7678 108.086 78.8334 108.151 78.8673C108.171 79.8671 108.158 80.8681 108.157 81.8703C107.993 81.9166 107.827 81.972 107.656 81.9698C105.624 81.9754 103.591 81.9573 101.559 81.9788C101.532 83.8722 101.554 85.7656 101.548 87.6601C101.789 87.702 102.035 87.7348 102.284 87.7303C104.522 87.711 106.761 87.7314 109 87.7257C109.169 87.7427 109.406 87.6907 109.477 87.9011C109.508 88.8907 109.492 89.8838 109.486 90.8746C109.506 91.0782 109.288 91.1834 109.115 91.1608C105.346 91.1642 101.576 91.1642 97.8073 91.1608C97.5634 91.2071 97.3742 90.999 97.4201 90.7593C97.4279 83.931 97.4022 77.1028 97.4335 70.2758Z" fill="white"/>
<path d="M112.842 70.6162C112.828 70.4363 112.914 70.2791 112.989 70.1241C114.195 70.1388 115.404 70.1174 116.61 70.1332C116.929 70.1094 116.956 70.4883 116.964 70.7225C116.966 75.2501 116.967 79.7789 116.963 84.3076C116.995 85.1152 116.841 85.9839 117.241 86.727C117.465 87.2088 117.913 87.5187 118.377 87.7347C119.291 88.0152 120.256 88.022 121.201 87.953C121.909 87.8705 122.686 87.6725 123.142 87.0708C123.611 86.4883 123.658 85.7034 123.691 84.9863C123.69 81.592 123.69 78.1988 123.69 74.8045C123.707 73.29 123.658 71.771 123.714 70.2587C123.754 70.2305 123.834 70.1728 123.876 70.1445C125.108 70.1083 126.344 70.1332 127.577 70.1343C127.615 70.1943 127.691 70.313 127.729 70.3718C127.73 75.7704 127.73 81.1689 127.73 86.5686C127.708 87.6443 127.299 88.7176 126.544 89.4856C125.549 90.5137 124.15 91.0035 122.781 91.2625C121.035 91.5611 119.241 91.5385 117.496 91.2614C116.179 91.0239 114.811 90.5714 113.893 89.5354C113.151 88.7007 112.84 87.5606 112.844 86.4555C112.84 81.1757 112.843 75.8959 112.842 70.6162Z" fill="white"/>
<path d="M167.921 71.4124C167.929 70.9826 167.861 70.5325 168.045 70.1275C169.908 70.1242 171.77 70.14 173.632 70.1196C173.985 70.5664 174.098 71.1387 174.298 71.6624C175.916 76.2217 177.541 80.7799 179.16 85.3403C179.21 85.5213 179.328 85.6457 179.534 85.6185C179.642 85.467 179.639 85.2781 179.642 85.1005C179.634 80.3116 179.643 75.5216 179.638 70.7327C179.639 70.5754 179.639 70.416 179.68 70.2644C179.827 70.0721 180.08 70.1411 180.289 70.1253C181.109 70.1332 181.931 70.1264 182.752 70.1264C182.929 70.1219 183.1 70.1773 183.272 70.2248C183.285 76.5022 183.274 82.7807 183.277 89.0581C183.269 89.7503 183.301 90.4425 183.249 91.1324C181.52 91.1958 179.788 91.1528 178.057 91.1573C177.808 91.1845 177.697 90.9277 177.623 90.7354C176.573 87.8388 175.512 84.9456 174.45 82.0523C173.698 79.961 172.922 77.8776 172.168 75.7862C172.077 75.5216 171.949 75.2739 171.804 75.0375C171.732 75.0533 171.588 75.0827 171.515 75.0986C171.489 80.3512 171.517 85.605 171.501 90.8587C171.531 91.0748 171.3 91.1845 171.118 91.1596C170.088 91.1641 169.058 91.1709 168.029 91.1517C167.865 90.7377 167.929 90.2864 167.921 89.8521C167.921 83.7059 167.922 77.5586 167.921 71.4124Z" fill="white"/>
<path d="M187.074 70.2735C187.129 70.2373 187.238 70.1627 187.292 70.1265C191.042 70.1344 194.792 70.1219 198.542 70.1321C198.8 70.1016 198.903 70.4013 198.895 70.6128C198.903 71.4815 198.895 72.3524 198.895 73.2222C198.865 73.2912 198.803 73.4303 198.772 73.4993C196.251 73.5524 193.73 73.497 191.21 73.5276C191.174 75.2603 191.191 76.9954 191.201 78.7293C193.313 78.7417 195.426 78.7316 197.537 78.7338C197.601 78.7678 197.729 78.8356 197.793 78.8684C197.814 79.8558 197.81 80.8444 197.795 81.8318C197.737 81.8669 197.622 81.937 197.564 81.972C195.443 81.9698 193.322 81.9619 191.201 81.9766C191.182 83.8666 191.193 85.7577 191.195 87.6488C191.32 87.6748 191.447 87.7009 191.576 87.728C193.261 87.7348 194.949 87.7178 196.632 87.7065C197.265 87.7212 197.904 87.7699 198.537 87.6816C198.688 87.7099 198.846 87.7291 199 87.7721C199.159 87.8818 199.115 88.0911 199.129 88.2585C199.124 89.143 199.122 90.0275 199.128 90.9119C199.094 90.9708 199.027 91.0884 198.993 91.1472C195.182 91.1834 191.37 91.1517 187.558 91.1642C187.349 91.1845 187.031 91.1359 187.068 90.8543C187.067 83.9944 187.053 77.1334 187.074 70.2735Z" fill="white"/>
<path d="M201.655 70.132C202.928 70.1287 204.203 70.1241 205.478 70.132C205.822 70.1139 206.014 70.4465 206.167 70.7055C207.191 72.4858 208.239 74.2514 209.259 76.0339C209.299 76.0305 209.377 76.0249 209.416 76.0226C210.404 74.2548 211.42 72.5039 212.409 70.736C212.531 70.4996 212.7 70.2915 212.901 70.1162C214.19 70.1467 215.481 70.1162 216.771 70.1332C216.818 70.1976 216.913 70.3289 216.961 70.3945C215.209 73.5908 213.335 76.7193 211.563 79.9044C211.83 80.5265 212.224 81.0864 212.549 81.6813C214.28 84.6854 216.016 87.6872 217.747 90.6913C217.86 90.8474 217.88 91.1358 217.628 91.1483C216.374 91.1811 215.116 91.155 213.861 91.1618C213.632 91.1878 213.428 91.0612 213.314 90.8678C211.912 88.5355 210.59 86.1512 209.165 83.8337C207.86 86.1806 206.577 88.5423 205.266 90.8859C205.096 91.2455 204.665 91.1517 204.349 91.1652C203.223 91.1403 202.093 91.2014 200.971 91.1369C200.936 91.0985 200.867 91.0227 200.831 90.9854C201.101 90.2683 201.56 89.6417 201.899 88.9574C203.562 85.942 205.261 82.9436 206.898 79.9146C205.152 76.7137 203.26 73.5874 201.492 70.3967C201.534 70.33 201.614 70.1976 201.655 70.132Z" fill="white"/>
<path d="M218.659 70.7349C218.661 70.5031 218.645 70.0993 218.984 70.1343C223.244 70.1185 227.507 70.1355 231.769 70.1264C232.179 70.1208 232.595 70.1072 233 70.2056V73.5026C231.307 73.549 229.611 73.4959 227.918 73.5309C227.898 79.2733 227.918 85.0168 227.908 90.7592C227.945 90.9933 227.756 91.2026 227.518 91.1573C226.303 91.1653 225.086 91.1754 223.872 91.1449C223.705 90.1959 223.822 89.2266 223.789 88.2686C223.779 83.3542 223.81 78.4397 223.774 73.5264C222.088 73.5049 220.402 73.5422 218.716 73.506C218.614 72.5854 218.678 71.6579 218.659 70.7349Z" fill="white"/>
<path fill-rule="evenodd" clip-rule="evenodd" d="M131.672 70.2C131.631 70.2274 131.589 70.2548 131.561 70.2735C131.53 70.7702 131.534 71.2679 131.537 71.7656C131.539 72.0249 131.541 72.2843 131.537 72.5435C131.537 75.13 131.537 77.7166 131.537 80.3033C131.537 83.7525 131.538 87.2018 131.536 90.6507C131.526 90.8143 131.587 90.9673 131.647 91.1168C131.652 91.1296 131.657 91.1424 131.662 91.1551C132.002 91.1557 132.341 91.1583 132.681 91.1608C133.633 91.168 134.586 91.1751 135.537 91.1393C135.568 91.0725 135.629 90.9402 135.66 90.8746C135.664 89.8913 135.663 88.9081 135.661 87.9249C135.658 86.3634 135.655 84.802 135.675 83.2411C136.321 83.2168 136.968 83.2211 137.614 83.2254C137.839 83.2269 138.064 83.2284 138.289 83.2287C138.416 83.4017 138.538 83.5793 138.641 83.7704C139.252 84.9768 139.856 86.1868 140.46 87.3968C141.083 88.6451 141.707 89.8935 142.337 91.1382C143.859 91.1755 145.387 91.1857 146.91 91.1325C146.796 90.7468 146.597 90.3962 146.4 90.0501C145.89 89.1059 145.383 88.1602 144.876 87.2145C144.076 85.7212 143.276 84.228 142.464 82.7412C142.303 82.4403 142.13 81.9607 142.484 81.73C143.153 81.29 143.821 80.8105 144.282 80.1375C145.061 79.0245 145.261 77.6141 145.233 76.2806C145.253 75.3327 145.236 74.3612 144.897 73.4642C144.526 72.3094 143.637 71.3537 142.539 70.8718C140.979 70.1525 139.219 70.1185 137.535 70.1287C136.838 70.1283 136.141 70.1285 135.444 70.1287C134.224 70.129 133.004 70.1293 131.784 70.1265C131.756 70.1451 131.714 70.1726 131.672 70.2ZM136.636 73.1633C136.316 73.1701 135.996 73.177 135.678 73.1735C135.65 75.5827 135.646 77.9941 135.681 80.4033C136.484 80.4304 137.289 80.427 138.094 80.4033C138.887 80.3626 139.742 80.1352 140.277 79.5007C140.821 78.8243 140.963 77.9149 140.971 77.0666C140.971 76.9814 140.972 76.8956 140.973 76.8095C140.983 75.9558 140.992 75.0691 140.594 74.2944C140.313 73.7255 139.71 73.4054 139.114 73.29C138.298 73.1276 137.466 73.1454 136.636 73.1633Z" fill="white"/>
<path fill-rule="evenodd" clip-rule="evenodd" d="M154.88 69.8889C153.501 69.976 152.058 70.2768 150.974 71.1952C150.132 71.8807 149.64 72.8896 149.287 73.9007C148.725 75.5374 148.477 77.2702 148.404 78.9962C148.253 80.5762 148.376 82.1688 148.507 83.7455C148.725 85.5597 149.087 87.4146 150.024 89.0038C150.772 90.266 152.146 91.0261 153.556 91.2602C155.218 91.5407 156.92 91.5226 158.595 91.3745C160.026 91.2353 161.525 90.7716 162.49 89.6326C163.404 88.5479 163.877 87.15 164.157 85.7712L164.201 85.6898C164.699 83.0736 164.763 80.3885 164.523 77.7395C164.258 75.6935 163.905 73.5309 162.638 71.8456C161.733 70.6331 160.234 70.0992 158.791 69.9307C158.558 69.9063 158.324 69.8961 158.091 69.8859C157.804 69.8733 157.518 69.8608 157.233 69.8221C156.708 69.7775 156.184 69.8122 155.66 69.8469C155.4 69.8641 155.14 69.8814 154.88 69.8889ZM156.002 73.2651C155.138 73.2605 154.041 73.2922 153.532 74.1247C153.018 75.0977 152.895 76.207 152.775 77.2921C152.758 77.4418 152.742 77.5911 152.724 77.7395C152.711 78.0627 152.693 78.386 152.676 78.7095C152.614 79.8557 152.552 81.0034 152.662 82.1484L152.663 82.1787C152.732 83.7572 152.803 85.3837 153.377 86.8728C153.579 87.4508 154.115 87.8297 154.7 87.9315C155.941 88.1091 157.218 88.1306 158.453 87.8965C159.127 87.772 159.581 87.1794 159.758 86.5426C160.193 85.0892 160.3 83.5588 160.347 82.0489C160.467 80.2335 160.342 78.4114 160.158 76.6051C160.118 76.4151 160.084 76.2191 160.05 76.0211C159.909 75.2026 159.763 74.3502 159.166 73.7537C158.476 73.2352 157.615 73.2514 156.78 73.2671C156.516 73.2721 156.255 73.277 156.002 73.2651Z" fill="white"/>
<path d="M37.6775 75.9673C39.6091 75.9695 41.5408 75.9662 43.4724 75.9684C43.4791 79.3503 43.4556 82.7322 43.4624 86.114C43.4512 89.7074 43.4847 93.3008 43.4456 96.8941C41.5273 96.893 39.608 96.8885 37.6886 96.8964C37.5834 95.8694 37.6517 94.8356 37.6349 93.8052C37.6495 91.3667 37.6058 88.927 37.6562 86.4895C37.6965 82.9821 37.6539 79.4747 37.6775 75.9673Z" fill="white" fill-opacity="0.64"/>
<path d="M78.1449 78.0292C80.0654 78.0258 81.9847 78.036 83.9052 78.0236C83.9063 82.6349 83.9052 87.2462 83.9052 91.8587C81.9881 91.8587 80.071 91.8575 78.1539 91.8587C78.0811 90.7751 78.1337 89.6882 78.118 88.6035C78.1326 86.7463 78.0901 84.8891 78.1404 83.033C78.1964 81.367 78.1897 79.6953 78.1449 78.0292Z" fill="white" fill-opacity="0.64"/>
<path d="M63.6878 78.0077C66.5953 78.0054 69.5029 78.0065 72.4104 78.0077C72.4116 79.6816 72.4104 81.3556 72.4104 83.0296C72.4228 87.6511 72.3869 92.2726 72.4284 96.8941C72.444 99.2784 72.4317 101.664 72.4351 104.049C69.5253 104.049 66.6155 104.049 63.7057 104.049C63.6553 101.426 63.6956 98.8022 63.6833 96.1793C63.6866 92.915 63.6799 89.6508 63.6833 86.3865C63.6889 83.594 63.6822 80.8014 63.6878 78.0077Z" fill="white" fill-opacity="0.8"/>
<path d="M43.5396 80.4484C44.5401 80.4733 45.5428 80.5231 46.5434 80.4609C47.4185 80.3964 48.2948 80.5073 49.1711 80.4824C49.179 88.1566 49.17 95.8297 49.1756 103.503C47.2764 103.503 45.3772 103.505 43.478 103.502C43.4847 101.3 43.4635 99.0962 43.4881 96.894C43.5463 94.6217 43.4982 92.3472 43.5138 90.0738C43.5295 86.8649 43.4814 83.6561 43.5396 80.4484Z" fill="white" fill-opacity="0.72"/>
<path d="M72.4105 83.0296C74.3209 83.0296 76.2301 83.0239 78.1405 83.033C78.0902 84.889 78.1327 86.7462 78.1181 88.6034C78.1338 89.6881 78.0812 90.7751 78.154 91.8586C78.1965 93.536 78.1607 95.2145 78.1719 96.893C76.257 96.893 74.3432 96.8907 72.4284 96.8941C72.387 92.2726 72.4228 87.6511 72.4105 83.0296Z" fill="white" fill-opacity="0.72"/>
<path d="M57.9443 86.3866C59.8569 86.3956 61.7706 86.3934 63.6833 86.3866C63.6799 89.6508 63.6866 92.9151 63.6833 96.1793C63.6956 98.8022 63.6553 101.426 63.7057 104.049C63.7146 106.668 63.7068 109.286 63.709 111.906H57.9398C57.9375 110.69 57.9454 109.473 57.9353 108.257C57.9521 100.967 57.9342 93.6763 57.9443 86.3866Z" fill="white"/>
<path d="M32 86.4884C33.8858 86.4895 35.7704 86.4873 37.6562 86.4895C37.6058 88.927 37.6495 91.3667 37.6349 93.8052C37.6517 94.8356 37.5835 95.8694 37.6887 96.8964C37.7424 97.8001 37.7166 98.7072 37.6998 99.6121C35.8006 99.6087 33.9003 99.611 32 99.6098V86.4884Z" fill="white" fill-opacity="0.64"/>
</g>
<defs>
<clipPath id="clip0_129_87269">
<rect width="201" height="63" fill="white" transform="translate(32 48.9055)"/>
</clipPath>
</defs>
</svg>
