<svg width="226" height="160" viewBox="0 0 226 160" fill="none" xmlns="http://www.w3.org/2000/svg">
<path fill-rule="evenodd" clip-rule="evenodd" d="M81.7092 57.4055L94.0474 40L106.225 57.4055V120H33V57.4055L45.0967 40L57.4353 57.4055V70.4801L69.5319 87.5588L81.7092 70.4801V57.4055ZM78.1611 95.8121C78.9675 93.6875 81.0643 92.2166 82.7578 92.2166C82.9468 92.2166 83.1081 92.2447 83.2417 92.2679C83.3362 92.2844 83.4169 92.2983 83.4836 92.2983V96.6293H82.6772C80.903 96.6293 79.2901 98.1819 78.8063 100.388C78.7256 100.879 78.645 101.614 78.645 102.431V113.544H74.3708V98.427C74.3708 96.7927 74.2902 94.995 74.2095 93.4424V92.6252H77.9192L78.1611 95.8121ZM48.0807 113.79C42.9195 113.79 39.9356 110.031 39.9356 103.412C39.9356 96.711 43.0001 92.2983 47.5969 92.2983C51.6291 92.2983 54.0484 95.8938 54.0484 101.859C54.0484 102.84 54.0484 103.575 53.9678 104.147H44.0485V104.311C44.1291 108.478 45.742 110.521 48.8872 110.521C50.4194 110.521 51.7097 110.194 52.5162 109.867L53.0807 112.891C51.871 113.463 49.9355 113.79 48.0807 113.79ZM47.2743 95.4036C45.2582 95.4036 44.2098 98.2636 44.1291 101.042V101.205H50.1775V101.042C50.1775 98.7539 49.6936 97.0379 48.8065 96.0573C48.3227 95.567 47.8388 95.4036 47.2743 95.4036ZM70.7414 112.646C70.6607 111.093 70.5801 109.377 70.5801 107.497V92.6252H66.3059V106.272C66.3059 107.007 66.2253 107.661 66.064 108.151C65.8221 109.132 64.935 110.358 63.564 110.358C61.2253 110.358 60.9834 107.334 60.9834 105.046V92.6252H56.7093V105.618C56.7093 111.256 58.4028 113.953 61.9511 113.953C64.1285 113.953 66.064 112.564 66.8705 111.338L67.1124 113.544H70.7414V112.646ZM91.9507 113.871C87.3544 113.871 84.6124 109.867 84.6124 103.085C84.6124 99.5711 85.4189 96.711 86.9511 94.8315C88.2414 93.1972 90.0963 92.2983 92.1119 92.2983C96.5474 92.2983 99.3699 96.3841 99.3699 103.085C99.2893 113.381 93.1603 113.871 91.9507 113.871ZM92.0313 95.4853C89.2898 95.4853 88.8866 100.225 88.8866 103.003C88.8866 107.988 90.0156 110.603 92.1119 110.603C93.241 110.603 95.0958 109.622 95.0958 103.003C95.0958 100.797 94.7732 95.4853 92.0313 95.4853Z" fill="white" fill-opacity="0.64"/>
<path fill-rule="evenodd" clip-rule="evenodd" d="M124.129 113.544V95.6487H118.403V113.544H114.129V95.6487H111.387V92.6252H114.129V91.236C114.129 89.9286 114.532 83.3096 122.516 83.3096C124.451 83.3096 125.984 83.7182 126.871 84.2085L126.145 87.5588C125.338 87.2319 124.129 86.8234 122.516 86.8234C119.693 86.8234 118.242 88.376 118.242 91.5629V92.6252H128.403V113.544H124.129ZM140.902 92.2166C138.886 92.2166 136.708 93.2789 135.66 95.0767L135.418 92.5435H131.789C131.789 92.9521 131.789 93.3607 131.87 93.7692C131.95 95.1584 131.95 96.5476 131.95 98.3453V113.463H136.224V100.552C136.224 99.8162 136.305 99.0808 136.466 98.5905C136.87 96.8745 137.918 95.8121 139.208 95.8121C140.982 95.8121 141.869 97.283 141.869 100.225V113.544H146.144V99.7345C146.063 94.9133 144.289 92.2166 140.902 92.2166ZM161.95 100.307V108.887C161.95 110.848 162.031 112.319 162.111 113.544H158.321L158.079 111.338C157.111 112.972 155.176 113.871 153.402 113.871C150.498 113.871 148.321 111.256 148.321 107.743C148.321 105.291 149.289 103.33 151.144 101.941C152.756 100.715 155.015 100.061 157.515 100.061H157.676V99.3259C157.676 96.7927 156.547 95.4036 154.369 95.4036C152.998 95.4036 151.789 95.7304 150.579 96.4659L149.773 93.6058C150.66 93.1155 152.756 92.2166 155.337 92.2166C159.853 92.2166 161.95 94.7498 161.95 100.307ZM157.676 108.151C157.756 107.824 157.756 107.497 157.756 107.007H157.837V102.84H157.676C155.74 102.84 152.434 103.493 152.434 107.252C152.434 109.622 153.644 110.684 154.853 110.684C156.224 110.684 157.273 109.704 157.676 108.151ZM174.369 92.2166C172.353 92.2166 170.176 93.2789 169.127 95.0767L168.885 92.5435H165.256C165.256 92.9521 165.256 93.3607 165.337 93.7692C165.418 95.1584 165.418 96.5476 165.418 98.3453V113.463H169.692V100.552C169.692 99.8162 169.772 99.0808 169.934 98.5905C170.337 96.8745 171.385 95.8121 172.676 95.8121C174.45 95.8121 175.337 97.283 175.337 100.225V113.544H179.611V99.7345C179.53 94.9133 177.676 92.2166 174.369 92.2166ZM182.03 112.646C182.918 113.299 184.692 113.79 186.305 113.79C190.498 113.79 193.079 111.338 192.998 107.334C192.998 104.801 191.627 102.758 188.805 101.042C186.788 99.7346 186.224 98.9992 186.224 97.7734C186.224 96.6294 187.03 95.4037 188.805 95.4037C189.692 95.4037 190.659 95.6488 191.546 96.2208L192.353 93.1156C191.143 92.4619 189.934 92.135 188.563 92.135C185.014 92.135 182.353 94.7498 182.353 98.3455C182.353 100.633 183.724 102.594 186.547 104.311C188.563 105.536 189.208 106.435 189.208 107.906C189.208 109.54 188.159 110.521 186.385 110.521C185.014 110.521 183.724 110.031 182.837 109.54L182.03 112.646Z" fill="white"/>
</svg>
