<svg width="152" height="160" viewBox="0 0 152 160" fill="none" xmlns="http://www.w3.org/2000/svg">
<path d="M60.06 74.4899L49.9794 76.6199C41.8094 78.3699 33.4895 82.3199 33.2595 95.3399H76.45V90.2099H100.1V95.3399H112.38V90.2099H118.72V82.0099H112.38V61.4999H94.71L75.01 81.6599V86.8299H47.8695C48.7095 85.5899 50.2694 84.8099 53.2294 84.2499L65.57 82.0099C70.47 81.0699 77.18 78.4999 77.18 72.0699C77.18 62.5899 66.64 60.6499 55.4295 60.6499C46.7395 60.6499 35.4594 62.2099 34.4194 73.8699H49.1994C49.5794 69.4699 53.3595 69.1299 57.11 69.1299C60.3 69.1299 62.71 69.9199 62.71 71.8599C62.72 73.2699 61.79 74.1299 60.06 74.4899ZM100.1 69.7299V82.0199H87.63L100.1 69.7299ZM89.7899 110.27H99.11V105.61H89.7899V103.18H100.13V98.1799H78.06L74.88 110.07H74.82L71.59 98.1799H50.4395V109.48C49.5995 107.36 47.3994 106.43 45.1994 105.82C42.4194 105.08 39.5795 104.77 39.4695 103.36C39.4695 102.28 40.8495 102.05 41.6795 102.05C42.2595 102.05 42.9695 102.17 43.4695 102.51C43.9595 102.87 44.2695 103.36 44.1895 104.11H49.9494C49.7594 99.3299 45.9794 97.7299 41.6994 97.7299C37.6194 97.7299 33.7394 99.6699 33.7394 104.19C33.7394 108.14 37.2994 108.99 40.4194 109.83C43.8194 110.82 44.6895 111.09 44.6895 112.1C44.6895 113.59 43.1895 113.9 42.1795 113.9C41.0395 113.9 39.7094 113.63 39.2694 112.45C39.1294 112.1 39.0395 111.67 39.0395 111.16H32.9395C33.0195 117.44 39.3995 118.22 41.6395 118.22C45.3195 118.22 49.2595 117.06 50.4295 113.69V117.77H67.1V112.74H56.55V110.29H65.85V105.63H56.55V103.18H66.81V102.68L71.35 117.75H78.14L83.7 100.1V117.76H100.13V112.73H89.7899V110.27ZM113.1 98.1799V108.68H113.05L107.28 98.1799H101.06V117.76H106.82V107.06H106.88L112.94 117.75H118.85V98.1799H113.1Z" fill="white" fill-opacity="0.88"/>
<path d="M51.6902 46.8798H55.8602V58.1698H60.59V46.8798H64.91V42.9598H51.6902V46.8798ZM33.4502 58.1598H38.1902V52.3598H44.3402V48.7698H38.1902V46.8798H45.3302V42.9598H33.4502V58.1598ZM114.73 48.9298C112.52 48.2998 110.37 48.0698 110.27 46.9898C110.27 46.1398 111.34 45.9298 111.97 45.9298C112.46 45.9298 112.97 46.0698 113.39 46.3298C113.77 46.5898 114.01 46.9898 113.95 47.5298H118.4C118.28 43.8598 115.32 42.5698 112.01 42.5698C109.07 42.5698 106.25 43.9098 105.86 46.8898C105.41 43.7098 102.62 42.5698 99.49 42.5698C96.33 42.5698 93.3 44.1198 93.3 47.5998C93.3 50.6898 96.09 51.3598 98.53 52.0098C101.15 52.7898 101.82 52.9698 101.82 53.7998C101.82 54.9098 100.62 55.1498 99.87 55.1498C99.01 55.1498 97.94 54.9398 97.59 54.0598C97.49 53.7998 97.41 53.4498 97.41 53.0598H92.68C92.69 53.4998 92.73 53.8998 92.81 54.2698H85.14V52.3598H92.4V48.7698H85.14V46.8798H92.93V42.9598H80.41V58.1598H93.36V55.7098C94.79 58.1498 98.09 58.5498 99.45 58.5498C102.01 58.5498 104.72 57.8198 105.91 55.7698C107.35 58.1498 110.6 58.5498 111.94 58.5498C115.38 58.5498 119.05 57.2598 119.05 53.2798C119.05 50.5098 116.91 49.4998 114.73 48.9298ZM112.38 55.1498C111.49 55.1498 110.44 54.9398 110.09 54.0598C109.97 53.7998 109.93 53.4498 109.93 53.0598H106.51C106.4 50.4598 104.32 49.4898 102.22 48.9298C100.06 48.2998 97.84 48.0698 97.77 46.9898C97.77 46.1398 98.84 45.9298 99.44 45.9298C99.94 45.9298 100.47 46.0698 100.85 46.3298C101.23 46.5898 101.52 46.9898 101.43 47.5298H105.8V47.5998C105.8 50.6898 108.55 51.3598 111.01 52.0098C113.65 52.7898 114.29 52.9698 114.29 53.7998C114.3 54.8998 113.13 55.1498 112.38 55.1498ZM75.13 51.0898H75.07L70.6 42.9698H65.76V58.1698H70.22V49.8498H70.27L74.98 58.1698H79.58V42.9698H75.13V51.0898ZM46.1702 42.9598H50.8902V58.1598H46.1702V42.9598Z" fill="white"/>
</svg>
