<svg width="169" height="161" viewBox="0 0 169 161" fill="none" xmlns="http://www.w3.org/2000/svg">
<path fill-rule="evenodd" clip-rule="evenodd" d="M84.16 50.498L93.01 73.2267L69.396 75.419L84.16 50.498Z" fill="white" fill-opacity="0.64"/>
<path fill-rule="evenodd" clip-rule="evenodd" d="M92.964 73.2267L98.969 75.419L84.16 50.498L92.919 72.9582L92.964 73.2267Z" fill="white"/>
<path fill-rule="evenodd" clip-rule="evenodd" d="M34.766 101.369C34.766 102.309 34.3597 103.203 33.3212 103.203V103.74C35.6239 103.74 37.8814 103.606 40.2292 103.606C42.5318 103.606 47.0468 103.606 48.0853 103.875L48.8528 100.206L48.3562 100.072C47.5435 101.772 46.5953 102.577 44.2475 102.577H37.2493C37.2493 100.206 37.0687 96.6262 37.0687 93.718C37.0687 90.8993 37.2493 86.2461 37.2493 84.7697C37.2493 83.8301 37.6556 82.9353 38.6941 82.9353V82.3984C37.9265 82.3984 36.9784 82.5326 35.9399 82.5326C34.9918 82.5326 34.0888 82.3984 32.96 82.3984V82.9353C34.6306 83.159 34.766 83.4274 34.766 93.718V101.369Z" fill="white"/>
<path fill-rule="evenodd" clip-rule="evenodd" d="M49.0332 94.6125C49.0332 99.9367 53.0516 104.008 58.5147 104.008C63.9778 104.008 67.996 99.9367 67.996 94.6125C67.996 89.2883 63.9778 85.2168 58.5147 85.2168C53.0516 85.2168 49.0332 89.2883 49.0332 94.6125ZM51.5616 94.6125C51.5616 89.8252 53.6385 86.0222 58.5598 86.0222C63.4812 86.0222 65.558 89.8252 65.558 94.6125C65.558 99.3998 63.4812 103.202 58.5598 103.202C53.6385 103.158 51.5616 99.3551 51.5616 94.6125Z" fill="white"/>
<path fill-rule="evenodd" clip-rule="evenodd" d="M70.931 94.6125C70.931 99.9367 74.95 104.008 80.413 104.008C85.876 104.008 89.894 99.9367 89.894 94.6125C89.894 89.2883 85.876 85.2168 80.413 85.2168C74.95 85.2168 70.931 89.2883 70.931 94.6125ZM73.414 94.6125C73.414 89.8252 75.491 86.0222 80.413 86.0222C85.334 86.0222 87.411 89.8252 87.411 94.6125C87.411 99.3998 85.334 103.202 80.413 103.202C75.491 103.158 73.414 99.3551 73.414 94.6125Z" fill="white"/>
<path fill-rule="evenodd" clip-rule="evenodd" d="M95.132 85.2168H94.68L93.687 100.205C93.551 102.487 93.326 102.934 91.926 103.247V103.695C92.693 103.695 93.416 103.605 94.183 103.605C94.951 103.605 95.718 103.695 96.486 103.695V103.247C95.583 103.158 94.861 102.531 94.861 100.697C94.861 100.026 94.861 98.8182 94.906 98.1471L95.402 89.9594H95.538L103.123 103.158L109.625 90.0041H109.715L110.257 99.2656C110.302 99.6683 110.347 100.518 110.347 101.502C110.347 102.442 110.121 103.202 109.038 103.292V103.739C109.715 103.739 110.483 103.65 111.25 103.65C112.153 103.65 112.966 103.739 113.733 103.739V103.292C112.559 103.113 112.424 102.889 112.334 100.786L111.566 85.3063H111.115L103.755 100.25L95.132 85.2168Z" fill="white"/>
<path fill-rule="evenodd" clip-rule="evenodd" d="M121.048 85.5303C120.28 85.5303 119.467 85.6198 118.564 85.6198C117.797 85.6198 116.984 85.5303 116.171 85.5303V85.9778C117.21 85.9778 117.481 86.7384 117.481 87.5437L117.616 101.682C117.616 102.488 117.21 103.248 116.442 103.248V103.696C116.984 103.696 117.752 103.606 118.564 103.606C119.467 103.606 120.235 103.696 120.777 103.696V103.248C120.009 103.248 119.558 102.488 119.558 101.682L119.693 87.5437C119.693 86.7384 119.964 85.9778 121.002 85.9778V85.5303H121.048Z" fill="white"/>
<path fill-rule="evenodd" clip-rule="evenodd" d="M134.367 88.4829L134.277 85.5747C132.922 85.6195 131.613 85.2168 130.213 85.2168C126.782 85.2168 123.757 86.738 123.757 90.541C123.757 97.2523 133.057 94.3888 133.057 99.892C133.057 102.173 131.251 103.202 129.175 103.202C127.414 103.202 125.292 102.442 124.705 100.563H124.253L124.344 103.292C125.969 103.739 127.594 104.053 129.22 104.053C132.471 104.053 134.909 102.263 134.909 98.9077C134.909 92.6886 125.608 95.1494 125.608 89.5567C125.608 87.1854 127.639 86.1116 129.807 86.1116C131.477 86.1116 133.374 86.8722 133.915 88.5724H134.367V88.4829Z" fill="white"/>
<path fill-rule="evenodd" clip-rule="evenodd" d="M69.351 75.3742L92.919 73.2266L98.924 75.4189C98.924 75.4189 77.794 77.2086 77.207 77.2981C76.575 77.3428 69.351 75.3742 69.351 75.3742Z" fill="white" fill-opacity="0.32"/>
</svg>
