<svg width="240" height="160" viewBox="0 0 240 160" fill="none" xmlns="http://www.w3.org/2000/svg">
<g clip-path="url(#clip0_72_1058)">
<rect width="185" height="46" transform="translate(27.1401 56.9055)" fill="#222222"/>
<path d="M45.6402 80.2889L46.3311 79.7522C46.3311 79.7522 46.024 79.6756 45.7169 79.5222C45.7169 79.5222 45.4099 79.4456 45.4099 79.5222C45.3331 79.6756 45.4099 80.0589 45.6402 80.2889Z" fill="white"/>
<path d="M73.1982 56.9055H27.1401V102.906H73.1982V56.9055Z" fill="#A39161"/>
<path d="M58.3829 95.1622V94.8555H58.6899C58.7667 94.8555 58.8434 94.9322 58.8434 95.0089C58.8434 95.0855 58.7667 95.1622 58.6132 95.1622H58.3829ZM58.2293 95.7755H58.3829V95.3155H58.4596C58.6132 95.3155 58.6132 95.3922 58.7667 95.6222L58.8434 95.7755H59.0737L58.9202 95.5455C58.8435 95.3922 58.7667 95.3155 58.6899 95.3155C58.8434 95.3155 58.997 95.1622 58.997 95.0089C58.997 94.9322 58.9202 94.7022 58.6132 94.7022H58.1526L58.2293 95.7755ZM59.4576 95.2389C59.4576 95.6989 59.0737 96.0822 58.6132 96.0822C58.2293 96.0055 57.8455 95.6989 57.8455 95.2389C57.8455 94.7789 58.2293 94.3955 58.6899 94.3955C59.1505 94.3955 59.4576 94.7789 59.4576 95.2389ZM59.6111 95.2389C59.6111 94.7022 59.1505 94.2422 58.6132 94.2422C58.0758 94.2422 57.6152 94.7022 57.6152 95.2389C57.6152 95.7755 58.0758 96.2355 58.6132 96.2355C59.2273 96.1589 59.6111 95.7755 59.6111 95.2389Z" fill="white"/>
<path d="M52.472 94.8556C52.3952 94.3189 51.9346 93.6289 51.167 92.9389C50.4761 92.3256 50.4761 91.1756 50.4761 90.8689H46.5612C46.2542 91.2522 46.0239 91.7889 44.7956 92.4789C43.1836 93.3222 42.6463 93.6289 42.2625 94.8556H52.472Z" fill="white"/>
<path d="M51.7812 92.9389C52.8559 93.7822 53.2397 94.3189 53.47 94.8556H56.5405C56.2334 93.7056 55.5426 93.3222 54.0073 92.4022C52.8559 91.7122 52.472 91.1756 52.2417 90.8689H50.9368C50.9368 91.0989 50.9368 92.2489 51.7812 92.9389Z" fill="white"/>
<path d="M52.0882 87.1888H50.9368V89.1055H52.0882V87.1888Z" fill="white"/>
<path d="M50.3996 87.1888H46.6382V89.1055H50.3996V87.1888Z" fill="white"/>
<path d="M53.8538 84.9655C53.8538 84.6588 53.6235 84.5055 53.3164 84.5055H45.4866C45.1795 84.5055 44.9492 84.6588 44.9492 84.9655C44.9492 85.2722 45.1795 85.4255 45.4866 85.4255H53.2397C53.5467 85.4255 53.8538 85.2722 53.8538 84.9655Z" fill="white"/>
<path d="M52.3186 85.8855H46.4846C46.1776 85.8855 45.9473 86.1155 45.9473 86.3455C45.9473 86.5755 46.1776 86.8055 46.4846 86.8055H52.3186C52.6257 86.8055 52.856 86.5755 52.856 86.3455C52.856 86.0388 52.6257 85.8855 52.3186 85.8855Z" fill="white"/>
<path d="M52.3186 89.4889H46.4846C46.1776 89.4889 45.9473 89.7189 45.9473 89.9489C45.9473 90.1789 46.1776 90.4089 46.4846 90.4089H52.3186C52.6257 90.4089 52.856 90.1789 52.856 89.9489C52.856 89.7189 52.6257 89.4889 52.3186 89.4889Z" fill="white"/>
<path d="M57.1548 95.6989C57.1548 95.4689 56.9245 95.2389 56.6174 95.2389H42.1091C41.8021 95.2389 41.5718 95.4689 41.5718 95.6989C41.5718 95.9289 41.8021 96.1589 42.1091 96.1589H56.6174C56.9245 96.1589 57.1548 96.0056 57.1548 95.6989Z" fill="white"/>
<path d="M52.7792 65.8756C51.0904 64.7256 49.248 63.9589 47.2522 63.6522C47.1754 63.6522 47.1754 63.7289 47.0987 63.8056C47.1754 64.5722 47.2522 65.2622 47.329 65.9522C47.0219 66.0289 46.7148 65.8756 46.4846 65.7989C46.4078 65.7222 46.2543 65.7222 46.1007 65.7222C45.9472 65.7222 45.9472 65.8756 45.9472 66.0289C46.024 66.8722 46.9451 67.5622 47.7128 67.7156C47.636 67.7922 47.329 67.7922 46.9451 67.6389C46.331 67.3322 45.7169 68.0222 45.5634 68.1756C44.4119 69.0956 43.8746 70.3222 42.8767 71.3956C42.7231 71.5489 42.6464 71.6256 42.4929 71.7789C42.3393 71.9322 42.1858 72.0856 42.109 72.2389C41.5717 72.8522 40.9576 73.4656 40.7273 74.2322C40.7273 74.3856 40.7273 74.5389 40.7273 74.7689C40.8041 75.1522 41.1111 75.4589 41.4182 75.7656C41.5717 75.9189 41.802 75.6122 41.9555 75.9189C41.9555 75.9189 42.109 76.0722 42.4161 75.9189C43.3373 75.4589 44.1817 74.8456 45.2563 74.7689C46.7148 74.8456 48.0966 74.2322 48.7107 72.8522H48.7875C48.7107 73.6956 47.9431 74.3089 47.1754 74.6922C46.6381 74.9222 46.5613 75.3056 46.5613 75.3056C45.7937 77.0689 45.3331 78.3722 44.1817 80.0589C43.8746 80.5956 43.9514 81.2089 44.1817 81.7456C44.4887 82.5122 44.719 83.2789 45.1796 83.9689H53.5468C54.6982 82.2056 55.5426 80.2889 56.1568 78.2189C57.4617 73.9256 56.7709 68.7122 52.7792 65.8756ZM46.2543 70.4756C46.2543 70.4756 46.024 71.0122 45.4099 70.8589C44.7958 70.7056 45.1796 70.0156 45.1796 70.0156C45.1796 70.0156 45.5634 70.0156 46.2543 70.3222H46.4078C46.4078 70.3222 46.1775 69.7089 45.1796 69.7856C45.1796 69.7856 44.8725 69.5556 45.026 69.1722C45.026 69.1722 45.7937 69.4022 46.024 69.5556C46.2543 69.6322 46.7148 69.9389 46.8684 70.4756H46.2543ZM47.1754 83.7389C47.0987 83.8922 46.6381 83.7389 46.4078 83.5856C46.1775 83.4322 45.7937 83.2789 45.4099 82.7422C45.026 82.2056 44.9493 81.8222 44.7958 81.4389C44.7958 81.4389 44.7958 81.3622 44.7958 81.2856C44.8725 81.2856 44.8725 81.2856 44.8725 81.3622C44.8725 81.4389 45.2563 82.0522 45.7169 82.3589C45.7169 82.3589 46.1775 82.8189 46.6381 83.1256C47.0987 83.5089 47.2522 83.6622 47.1754 83.7389ZM56.2335 75.1522L54.5447 75.3822C54.5447 75.3822 54.5447 75.9189 54.468 76.0722L56.1568 76.3022V76.5322L54.468 76.6089L54.3912 77.2989L55.9265 77.8356V77.9889L54.2377 77.9122L54.0074 78.6022L55.5426 79.0622L55.4659 79.2156L53.8539 79.1389L53.7003 79.5989L55.0821 80.2889L55.0053 80.4422L53.5468 80.1356C53.5468 80.1356 53.47 80.5189 53.3933 80.6722L54.5447 81.3622L54.468 81.5156L53.163 81.1322C53.163 81.1322 53.0095 81.5156 52.9327 81.5922L54.0074 82.3589L53.9306 82.5122L52.7792 82.0522L52.4721 82.5122L53.3165 83.2789L53.2397 83.3556L52.1651 82.9722L51.858 83.4322L52.5489 84.0456L52.4721 84.1222L51.7045 83.8156L51.3974 84.1989H50.9368C50.9368 84.1989 53.6236 80.9789 53.9306 75.6889C53.9306 75.6889 54.468 70.9356 50.8601 68.0989C50.8601 68.0989 50.0924 67.4856 49.6319 67.2556C49.6319 67.2556 49.4016 67.1789 49.248 66.9489C49.0945 66.7189 48.4804 66.2589 47.4825 66.2589L48.0198 64.4189L48.2501 64.4956L48.1734 66.0289C48.1734 66.0289 48.6339 66.1056 48.7875 66.1822L49.4016 64.8022L49.6319 64.8789L49.248 66.3356L49.7854 66.6422L50.6298 65.2622L50.8601 65.3389L50.246 66.8722L50.7065 67.1789L51.858 65.8756L52.0115 66.0289L51.1671 67.6389L51.6277 68.0989L53.0862 66.8722L53.2397 67.0256L52.0115 68.5589L52.3953 69.0189L54.0074 67.6389L54.1609 67.7922L52.7024 69.1722C52.7024 69.1722 53.0095 69.5556 53.163 69.7856L55.0053 69.0189L55.0821 69.1722L53.3933 70.2456C53.3933 70.2456 53.6236 70.6289 53.7771 70.9356L55.6962 70.4756L55.7729 70.6289L54.0074 71.3956C54.0074 71.3956 54.2377 71.9322 54.3144 72.2389L56.1568 72.0089V72.2389L54.468 72.7756C54.468 72.7756 54.5447 72.9289 54.6215 73.5422L56.3103 73.4656V73.6956L54.6215 74.0789C54.6215 74.0789 54.6215 74.6156 54.6215 74.8456L56.3103 74.9989L56.2335 75.1522Z" fill="white"/>
<path d="M96.2273 76.1488V83.8155H100.833V82.8955H97.302V76.1488H96.2273Z" fill="white"/>
<path d="M103.673 79.9055C103.673 81.9755 105.285 83.8922 107.819 83.8922C110.429 83.8922 111.964 82.0522 111.964 79.9055C111.964 77.7588 110.352 75.9188 107.819 75.9188C105.362 75.9188 103.673 77.7588 103.673 79.9055ZM104.825 79.9055C104.825 78.2188 106.13 76.9922 107.819 76.9922C109.507 76.9922 110.812 78.2188 110.812 79.9055C110.812 81.5922 109.507 82.8188 107.819 82.8188C106.13 82.8188 104.825 81.5922 104.825 79.9055Z" fill="white"/>
<path d="M115.648 76.1488V83.8155H116.723V80.4421H117.184C117.721 80.4421 118.182 80.5955 119.256 82.2055L120.254 83.8155H121.559C121.022 83.0488 120.868 82.8188 120.485 82.2821C119.87 81.3621 119.487 80.5955 118.796 80.1355C119.64 79.8288 120.101 79.1388 120.101 78.2188C120.101 76.9155 119.103 76.0721 117.568 76.0721H115.648V76.1488ZM116.723 77.0688H117.414C118.489 77.0688 118.949 77.5288 118.949 78.2188C118.949 78.8321 118.642 79.4455 117.414 79.4455H116.723V77.0688Z" fill="white"/>
<path d="M124.707 83.8923H127.7C130.234 83.8923 131.769 82.0523 131.769 80.0589C131.769 78.2189 130.541 76.2256 127.7 76.2256H124.707V83.8923ZM125.781 77.1456H127.47C129.619 77.1456 130.617 78.4489 130.617 79.9823C130.617 80.9023 130.003 82.8189 127.547 82.8189H125.781V77.1456Z" fill="white"/>
<path d="M141.364 77.8355L142.593 80.5955H140.213L141.364 77.8355ZM140.981 76.1488L137.68 83.8921H138.831L139.829 81.5921H143.13L144.128 83.8921H145.279L141.825 76.1488H140.981Z" fill="white"/>
<path d="M149.424 80.4423H150.729C151.881 80.4423 152.418 80.9023 152.418 81.6689C152.418 82.2823 152.034 82.8956 150.806 82.8956H149.424V80.4423ZM148.35 83.8923H150.96C152.879 83.8923 153.57 82.8189 153.57 81.8223C153.57 80.7489 152.879 80.0589 151.727 79.8289C152.495 79.5223 152.879 78.9856 152.879 78.2189C152.879 77.2223 152.188 76.2256 150.499 76.2256H148.273V83.8923H148.35ZM149.424 77.1456H150.422C151.42 77.1456 151.727 77.6056 151.727 78.2189C151.727 79.0623 151.19 79.4456 150.115 79.4456H149.348V77.1456H149.424Z" fill="white"/>
<path d="M158.099 80.4423H159.404C160.555 80.4423 161.093 80.9023 161.093 81.6689C161.093 82.2823 160.709 82.8956 159.481 82.8956H158.099V80.4423ZM156.947 83.8923H159.557C161.476 83.8923 162.167 82.8189 162.167 81.8223C162.167 80.7489 161.476 80.0589 160.325 79.8289C161.093 79.5223 161.476 78.9856 161.476 78.2189C161.476 77.2223 160.786 76.2256 159.097 76.2256H156.871V83.8923H156.947ZM158.099 77.1456H159.097C160.095 77.1456 160.478 77.6056 160.478 78.2189C160.478 79.0623 159.941 79.4456 158.866 79.4456H158.099V77.1456Z" fill="white"/>
<path d="M165.545 76.1488V83.8155H170.074V82.8955H166.696V80.4421H169.844V79.4455H166.696V77.1455H169.92V76.1488H165.545Z" fill="white"/>
<path d="M172.837 76.1488V77.1455H175.524V83.8155H176.599V77.1455H179.286V76.1488H172.837Z" fill="white"/>
<path d="M181.896 76.1488V77.1455H184.582V83.8155H185.657V77.1455H188.344V76.1488H181.896Z" fill="white"/>
<path d="M189.879 76.9921V76.6855H190.186C190.263 76.6855 190.34 76.7621 190.34 76.8388C190.34 76.9155 190.263 76.9921 190.109 76.9921H189.879ZM189.725 77.6055H189.879V77.1455H189.956C190.109 77.1455 190.109 77.2221 190.263 77.4521L190.34 77.6055H190.57L190.416 77.3755C190.34 77.2221 190.263 77.1455 190.186 77.1455C190.34 77.1455 190.493 76.9921 190.493 76.8388C190.493 76.7621 190.416 76.5321 190.109 76.5321H189.649V77.6055H189.725ZM190.954 77.0688C190.954 77.5288 190.57 77.9121 190.109 77.9121C189.725 77.8355 189.342 77.5288 189.342 77.0688C189.342 76.6088 189.725 76.2255 190.186 76.2255C190.647 76.2255 190.954 76.6088 190.954 77.0688ZM191.107 77.0688C191.107 76.5321 190.647 76.0721 190.109 76.0721C189.572 76.0721 189.111 76.5321 189.111 77.0688C189.111 77.6055 189.572 78.0655 190.109 78.0655C190.723 77.9888 191.107 77.6055 191.107 77.0688Z" fill="white"/>
</g>
<defs>
<clipPath id="clip0_72_1058">
<rect width="185" height="46" fill="white" transform="translate(27.1401 56.9055)"/>
</clipPath>
</defs>
</svg>
