<svg width="249" height="161" viewBox="0 0 249 161" fill="none" xmlns="http://www.w3.org/2000/svg">
<path d="M50.5003 80.3833L51.1912 79.8466C51.1912 79.8466 50.8841 79.7699 50.5771 79.6166C50.5771 79.6166 50.27 79.5399 50.27 79.6166C50.1932 79.7699 50.27 80.1533 50.5003 80.3833Z" fill="white"/>
<path fill-rule="evenodd" clip-rule="evenodd" d="M32 57H78.0581V103H32V57ZM57.6388 65.9699C55.95 64.8199 54.1077 64.0533 52.1118 63.7466C52.0644 63.7466 52.0463 63.7758 52.0213 63.8163C52.0058 63.8413 51.9877 63.8706 51.9583 63.8999C52.0351 64.6666 52.1118 65.3566 52.1886 66.0466C51.9349 66.1099 51.6813 66.0163 51.471 65.9386C51.4267 65.9223 51.3843 65.9066 51.3442 65.8933C51.2674 65.8166 51.1139 65.8166 50.9604 65.8166C50.8069 65.8166 50.8069 65.9699 50.8069 66.1233C50.8836 66.9666 51.8048 67.6566 52.5724 67.8099C52.4957 67.8866 52.1886 67.8866 51.8048 67.7333C51.2284 67.4454 50.6519 68.0357 50.4564 68.236C50.4437 68.2489 50.4324 68.2605 50.423 68.2699C49.7394 68.8161 49.2722 69.4704 48.7966 70.1366C48.4712 70.5924 48.1418 71.0538 47.7363 71.4899L47.3525 71.8733C47.1992 72.0264 47.0453 72.1801 46.9687 72.3333C46.8997 72.412 46.8295 72.4908 46.7589 72.5698C46.2799 73.1066 45.7876 73.6583 45.5869 74.3266V74.8633C45.6637 75.2466 45.9708 75.5533 46.2778 75.8599C46.3432 75.9253 46.4226 75.9071 46.504 75.8884C46.6137 75.8633 46.7271 75.8373 46.8152 76.0133C46.8152 76.0133 46.9687 76.1666 47.2757 76.0133C47.4855 75.9085 47.6912 75.7959 47.8966 75.6834C48.5933 75.3019 49.286 74.9224 50.116 74.8633C51.5745 74.9399 52.9562 74.3266 53.5703 72.9466H53.6471C53.5703 73.7899 52.8027 74.4033 52.0351 74.7866C51.4977 75.0166 51.421 75.3999 51.421 75.3999C51.2867 75.7083 51.1619 76.0027 51.041 76.2875C50.4711 77.6309 49.9914 78.7616 49.0413 80.1533C48.7342 80.6899 48.811 81.3033 49.0413 81.8399C49.1115 82.0152 49.1778 82.1906 49.2436 82.365C49.4658 82.9532 49.6839 83.5311 50.0392 84.0633H55.9729C55.8617 84.2152 55.7965 84.2933 55.7965 84.2933H56.2571L56.4413 84.0633H56.9481L57.3318 84.2166L57.4085 84.1399L57.3222 84.0633H58.4064C59.5579 82.2999 60.4023 80.3833 61.0164 78.3133C62.3214 74.0199 61.6305 68.8066 57.6388 65.9699ZM57.3222 84.0633H56.9481L56.5641 83.9099L56.4413 84.0633H55.9729C56.5757 83.24 58.531 80.2493 58.7903 75.7833C58.7903 75.7833 59.3276 71.0299 55.7197 68.1933C55.7197 68.1933 54.9521 67.5799 54.4915 67.3499C54.4915 67.3499 54.2612 67.2733 54.1077 67.0433C53.9542 66.8133 53.3401 66.3533 52.3421 66.3533L52.8795 64.5133L53.1098 64.5899L53.033 66.1233C53.033 66.1233 53.4936 66.1999 53.6471 66.2766L54.2612 64.8966L54.4915 64.9733L54.1077 66.4299L54.645 66.7366L55.4894 65.3566L55.7197 65.4333L55.1056 66.9666L55.5662 67.2733L56.7176 65.9699L56.8712 66.1233L56.0268 67.7333L56.4874 68.1933L57.9459 66.9666L58.0994 67.1199L56.8712 68.6533L57.255 69.1133L58.867 67.7333L59.0206 67.8866L57.562 69.2666C57.562 69.2666 57.8691 69.6499 58.0226 69.8799L59.865 69.1133L59.9417 69.2666L58.2529 70.3399C58.2529 70.3399 58.4832 70.7233 58.6367 71.0299L60.5558 70.5699L60.6326 70.7233L58.867 71.4899C58.867 71.4899 59.0973 72.0266 59.1741 72.3333L61.0164 72.1033V72.3333L59.3276 72.8699C59.3276 72.8699 59.4044 73.0233 59.4811 73.6366L61.1699 73.5599V73.7899L59.4811 74.1733V74.9399L61.1699 75.0933L61.0932 75.2466L59.4044 75.4766C59.4044 75.4766 59.4044 76.0133 59.3276 76.1666L61.0164 76.3966V76.6266L59.3276 76.7033L59.2508 77.3933L60.7861 77.9299V78.0833L59.0973 78.0066L58.867 78.6966L60.4023 79.1566L60.3255 79.3099L58.7135 79.2333L58.56 79.6933L59.9417 80.3833L59.865 80.5366L58.4064 80.2299C58.4064 80.2299 58.3297 80.6133 58.2529 80.7666L59.4044 81.4566L59.3276 81.6099L58.0226 81.2266C58.0226 81.2266 57.8691 81.6099 57.7923 81.6866L58.867 82.4533L58.7903 82.6066L57.6388 82.1466L57.3318 82.6066L58.1762 83.3733L58.0994 83.4499L57.0247 83.0666L56.7176 83.5266L57.3222 84.0633ZM51.1139 70.5699C51.1139 70.5699 50.8836 71.1066 50.2695 70.9533C49.6554 70.7999 50.0392 70.1099 50.0392 70.1099C50.0392 70.1099 50.423 70.1099 51.1139 70.4166H51.2674C51.2674 70.4166 51.0371 69.8033 50.0392 69.8799C50.0392 69.8799 49.7322 69.6499 49.8857 69.2666C49.8857 69.2666 50.6533 69.4966 50.8836 69.6499C51.1139 69.7266 51.5745 70.0333 51.728 70.5699H51.1139ZM52.0351 83.8333C51.9583 83.9866 51.4977 83.8333 51.2674 83.6799C51.2234 83.6505 51.1737 83.6212 51.1194 83.5892C50.8903 83.4539 50.5799 83.2706 50.2695 82.8366C49.9751 82.4248 49.8613 82.1034 49.755 81.803C49.7227 81.7118 49.6912 81.6225 49.6554 81.5333V81.3799C49.7322 81.3799 49.7322 81.3799 49.7322 81.4566C49.7322 81.5333 50.116 82.1466 50.5766 82.4533C50.5766 82.4533 51.0371 82.9133 51.4977 83.2199C51.9583 83.6033 52.1118 83.7566 52.0351 83.8333ZM58.7142 85.0601C58.7142 84.7534 58.4839 84.6001 58.1768 84.6001H50.347C50.0399 84.6001 49.8096 84.7534 49.8096 85.0601C49.8096 85.3667 50.0399 85.5201 50.347 85.5201H58.1001C58.4071 85.5201 58.7142 85.3667 58.7142 85.0601ZM56.9483 87.2832H55.7969V89.1999H56.9483V87.2832ZM57.3316 94.95C57.2549 94.4134 56.7943 93.7234 56.0267 93.0334C55.3358 92.42 55.3358 91.27 55.3358 90.9634H51.4209C51.3675 91.03 51.3165 91.1012 51.2621 91.177C51.0036 91.5378 50.6701 92.0033 49.6553 92.5734C48.0433 93.4167 47.5059 93.7234 47.1221 94.95H57.3316ZM63.2432 95.2567V94.95H63.5503C63.627 94.95 63.7038 95.0267 63.7038 95.1033C63.7038 95.18 63.627 95.2567 63.4735 95.2567H63.2432ZM63.0897 95.87H63.2432V95.41H63.32C63.4378 95.41 63.4652 95.4551 63.541 95.5801C63.5639 95.6179 63.5914 95.6633 63.6271 95.7167L63.7038 95.87H63.9341L63.7806 95.64C63.7038 95.4867 63.627 95.41 63.5503 95.41C63.7038 95.41 63.8573 95.2567 63.8573 95.1033C63.8573 95.0267 63.7806 94.7967 63.4735 94.7967H63.0129L63.0897 95.87ZM64.3179 95.3333C64.3179 95.7933 63.9341 96.1767 63.4735 96.1767C63.0897 96.1 62.7059 95.7933 62.7059 95.3333C62.7059 94.8733 63.0897 94.49 63.5503 94.49C64.0109 94.49 64.3179 94.8733 64.3179 95.3333ZM64.4714 95.3333C64.4714 94.7967 64.0109 94.3367 63.4735 94.3367C62.9362 94.3367 62.4756 94.7967 62.4756 95.3333C62.4756 95.87 62.9362 96.33 63.4735 96.33C64.0876 96.2533 64.4714 95.87 64.4714 95.3333ZM58.3301 94.95C58.0998 94.4134 57.716 93.8767 56.6413 93.0334C55.7969 92.3434 55.7969 91.1934 55.7969 90.9634H57.1019L57.1214 90.9895C57.354 91.2999 57.748 91.8259 58.8674 92.4967L59.005 92.5791C60.4443 93.4407 61.1029 93.8349 61.4006 94.95H58.3301ZM51.498 87.2832H55.2594V89.1999H51.498V87.2832ZM51.3439 85.98H57.1779C57.485 85.98 57.7153 86.1333 57.7153 86.44C57.7153 86.67 57.485 86.9 57.1779 86.9H51.3439C51.0368 86.9 50.8066 86.67 50.8066 86.44C50.8066 86.21 51.0368 85.98 51.3439 85.98ZM57.1779 89.5835H51.3439C51.0368 89.5835 50.8066 89.8135 50.8066 90.0435C50.8066 90.2735 51.0368 90.5035 51.3439 90.5035H57.1779C57.485 90.5035 57.7153 90.2735 57.7153 90.0435C57.7153 89.8135 57.485 89.5835 57.1779 89.5835ZM61.4773 95.3335C61.7843 95.3335 62.0146 95.5635 62.0146 95.7935C62.0146 96.1001 61.7843 96.2535 61.4773 96.2535H46.969C46.6619 96.2535 46.4316 96.0235 46.4316 95.7935C46.4316 95.5635 46.6619 95.3335 46.969 95.3335H61.4773Z" fill="white" fill-opacity="0.64"/>
<path fill-rule="evenodd" clip-rule="evenodd" d="M78 57H217V103H78V57ZM112.678 83.9865C110.145 83.9865 108.533 82.0699 108.533 79.9999C108.533 77.8532 110.222 76.0132 112.678 76.0132C115.212 76.0132 116.824 77.8532 116.824 79.9999C116.824 82.1465 115.288 83.9865 112.678 83.9865ZM112.678 77.0865C110.99 77.0865 109.685 78.3132 109.685 79.9999C109.685 81.6865 110.99 82.9132 112.678 82.9132C114.367 82.9132 115.672 81.6865 115.672 79.9999C115.672 78.3132 114.367 77.0865 112.678 77.0865ZM101.087 83.91V76.2434H102.162V82.9901H105.693V83.91H101.087ZM120.508 76.2432V83.9099H121.583V80.5365H122.044C122.581 80.5365 123.041 80.6899 124.116 82.2999L125.114 83.9099H126.419C126.224 83.6311 126.079 83.4232 125.955 83.2458L125.954 83.2438C125.739 82.9344 125.588 82.7173 125.344 82.3765C125.216 82.1845 125.098 81.9993 124.985 81.822C124.556 81.1499 124.202 80.5939 123.656 80.2299C124.5 79.9232 124.961 79.2332 124.961 78.3132C124.961 77.0099 123.963 76.1665 122.427 76.1665H120.508V76.2432ZM121.583 77.1632H122.274C123.349 77.1632 123.809 77.6232 123.809 78.3132C123.809 78.9265 123.502 79.5399 122.274 79.5399H121.583V77.1632ZM132.56 83.9867H129.566V76.3201H132.56C135.4 76.3201 136.629 78.3134 136.629 80.1534C136.629 82.1467 135.093 83.9867 132.56 83.9867ZM132.33 77.2401H130.641V82.9134H132.407C134.863 82.9134 135.477 80.9967 135.477 80.0767C135.477 78.5434 134.479 77.2401 132.33 77.2401ZM146.224 77.9301L147.452 80.6901H145.073L146.224 77.9301ZM145.84 76.2434L142.539 83.9867H143.691L144.689 81.6867H147.99L148.988 83.9867H150.139L146.685 76.2434H145.84ZM155.589 80.5367H154.284V82.9901H155.666C156.894 82.9901 157.278 82.3767 157.278 81.7634C157.278 80.9967 156.741 80.5367 155.589 80.5367ZM155.82 83.9867H153.21H153.133V76.3201H155.359C157.048 76.3201 157.739 77.3167 157.739 78.3134C157.739 79.0801 157.355 79.6167 156.587 79.9234C157.739 80.1534 158.429 80.8434 158.429 81.9167C158.429 82.9134 157.739 83.9867 155.82 83.9867ZM155.282 77.2401H154.284H154.207V79.5401H154.975C156.05 79.5401 156.587 79.1567 156.587 78.3134C156.587 77.7001 156.28 77.2401 155.282 77.2401ZM162.959 80.5367H164.263C165.415 80.5367 165.952 80.9967 165.952 81.7634C165.952 82.3767 165.568 82.9901 164.34 82.9901H162.959V80.5367ZM161.807 83.9867H164.417C166.336 83.9867 167.027 82.9134 167.027 81.9167C167.027 80.8434 166.336 80.1534 165.185 79.9234C165.952 79.6167 166.336 79.0801 166.336 78.3134C166.336 77.3167 165.645 76.3201 163.956 76.3201H161.73V83.9867H161.807ZM162.959 77.2401H163.956C164.954 77.2401 165.338 77.7001 165.338 78.3134C165.338 79.1567 164.801 79.5401 163.726 79.5401H162.959V77.2401ZM170.405 83.91V76.2434H174.78V77.2401H171.556V79.5401H174.703V80.5367H171.556V82.9901H174.934V83.91H170.405ZM177.697 76.2434V77.2401H180.384V83.91H181.459V77.2401H184.145V76.2434H177.697ZM186.755 77.2401V76.2434H193.203V77.2401H190.517V83.91H189.442V77.2401H186.755ZM194.739 77.0865V76.7799H195.046C195.122 76.7799 195.199 76.8565 195.199 76.9332C195.199 77.0099 195.122 77.0865 194.969 77.0865H194.739ZM194.585 77.6999H194.739V77.2399H194.815C194.933 77.2399 194.96 77.2852 195.036 77.4106C195.059 77.4483 195.086 77.4933 195.122 77.5465L195.199 77.6999H195.429L195.276 77.4699C195.199 77.3165 195.122 77.2399 195.046 77.2399C195.199 77.2399 195.353 77.0865 195.353 76.9332C195.353 76.8565 195.276 76.6265 194.969 76.6265H194.508V77.6999H194.585ZM195.813 77.1632C195.813 77.6232 195.429 78.0065 194.969 78.0065C194.585 77.9299 194.201 77.6232 194.201 77.1632C194.201 76.7032 194.585 76.3199 195.046 76.3199C195.506 76.3199 195.813 76.7032 195.813 77.1632ZM195.967 77.1632C195.967 76.6265 195.506 76.1665 194.969 76.1665C194.432 76.1665 193.971 76.6265 193.971 77.1632C193.971 77.6999 194.432 78.1599 194.969 78.1599C195.583 78.0832 195.967 77.6999 195.967 77.1632Z" fill="white"/>
</svg>
