<svg width="173" height="160" viewBox="0 0 173 160" fill="none" xmlns="http://www.w3.org/2000/svg">
<path d="M33.1 127C34.4 127 35.3 126.1 35.3 124.9V107.8C35.3 106.1 34.5 105.3 33.2 104.9V104.2C34.5 104.2 35.7 104.3 37 104.3C38.3 104.3 39.6 104.2 40.8 104.2V104.9C39.4 105.3 39 106.1 39 107.9C39 108.9 38.9 111.1 38.9 114.1V125.8C39.6 125.9 40.3 126 42.5 126C48.3 126 49.3 125 50.2 122.8L51.4 123.4L50 128.2C48.9 127.8 47.8 127.7 46.8 127.7H35.6C34.8 127.7 33.9 127.8 33 127.8V127H33.1Z" fill="white"/>
<path d="M54.3999 108.9C55.3999 108.9 56.2999 109 57.2999 109C58.2999 109 59.2999 108.9 60.1999 108.9V109.5C58.9999 109.7 58.6999 110.5 58.6999 112.2C58.6999 114.8 58.6999 117.3 58.6999 119.9C58.6999 123.5 60.3999 126.1 64.3999 126.1C66.5999 126.1 69.3999 124.8 69.3999 121.8V118.6C69.3999 115.4 69.1999 112.2 69.1999 110.9C69.1999 110.1 68.4999 109.6 67.7999 109.6V109C68.7999 109 69.6999 109.1 70.6999 109.1C71.6999 109.1 72.6999 109 73.5999 109V109.6C72.6999 109.6 72.2999 110.7 72.2999 111.6C72.2999 112.6 72.1999 115.4 72.1999 119V124.9C72.1999 126.4 72.4999 127.2 73.6999 127.3V127.9C72.8999 127.9 72.1999 127.8 71.3999 127.8C70.5999 127.8 69.8999 127.9 69.0999 127.9C69.1999 127 69.1999 126.1 69.2999 125.3C67.2999 127.1 65.6999 128.2 62.8999 128.2C58.8999 128.2 55.7999 125.9 55.7999 121.9V117.4C55.7999 115.3 55.6999 113.4 55.6999 111.8C55.6999 110.7 55.4999 109.9 54.3999 109.7V108.9Z" fill="white"/>
<path d="M79.3003 127.1C80.4003 126.8 81.0003 126 81.0003 124.5L81.1003 108.5H82.2003L95.4003 123V113.7C95.4003 110.4 94.7003 109.6 93.4003 109.4V108.8C94.3003 108.8 95.2003 108.9 96.1003 108.9C97.0003 108.9 97.9003 108.8 98.8003 108.8V109.4C97.6003 109.6 97.0003 110.6 97.0003 112.7L96.9003 127.9H96.0003L82.6003 113.3L82.7003 123.6C82.7003 125.7 83.4003 126.7 84.7003 127V127.6C83.8003 127.6 82.9003 127.5 82.0003 127.5C81.1003 127.5 80.2003 127.6 79.4003 127.6V127.1H79.3003Z" fill="white"/>
<path d="M104.1 127.1C105.2 126.8 105.5 126.3 105.5 125.2V117.4C105.5 115 105.2 112.9 105.2 111.6C105.2 110.5 104.8 109.7 103.8 109.4V108.9C105.1 108.9 106.3 109 107.6 109C108.8 109 110.1 108.9 111.4 108.9C118.8 108.9 123.2 112.1 123.2 118.2C123.2 124.4 119.7 127.7 112.1 127.7C110.8 127.7 109.4 127.6 108.1 127.6C106.8 127.6 105.4 127.7 104.1 127.7V127.1ZM108.4 126.4C109.7 126.6 110.7 126.6 111.7 126.6C116.9 126.6 119.4 123.4 119.4 118.3C119.4 113.4 116 110 111.2 110C110.3 110 109.5 110.1 108.4 110.1C108.4 112.5 108.3 114.6 108.3 116.9V126.4H108.4Z" fill="white"/>
<path d="M127.9 124.1H128.9C129.6 126.1 131.3 127 133.3 127C135.1 127 136.8 125.5 136.8 123.6C136.8 117.9 127.6 121.4 127.6 114.1C127.6 110.6 130.6 108.6 133.8 108.6C135.6 108.6 137.7 109.2 138.6 109.8L138.9 112.7H137.9C137.5 110.9 135.6 109.7 133.8 109.7C131.8 109.7 130.2 111 130.2 113.1C130.2 117.8 139.4 115.1 139.4 122.1C139.4 125.7 136.5 128 133.1 128C131.3 128 129.5 127.8 127.8 126.9V124.1H127.9Z" fill="white"/>
<path d="M79.2 82V85.4C79.2 85.6 80 85.9 80 85.9H77.6C77.6 85.9 78.3 85.6 78.3 85.5V82.6L77.5 82.7V82.6L79.2 82Z" fill="white" fill-opacity="0.64"/>
<path d="M94.9004 82.1C93.8004 82.3 93.2004 83 93.1004 83.8C93.4004 83.7 93.6004 83.6 93.9004 83.6C94.7004 83.6 95.2004 84.1 95.2004 84.7C95.2004 85.4 94.6004 86 93.6004 86C92.6004 86 91.9004 85.4 91.9004 84.4C92.0004 83.2 93.1004 82 94.9004 82.1ZM93.6004 83.8C93.3004 83.8 93.1004 83.9 93.0004 84C93.0004 84.1 93.0004 84.3 93.0004 84.6C93.0004 85 93.1004 85.7 93.6004 85.7C94.2004 85.7 94.2004 85.2 94.2004 84.7C94.2004 84.4 94.2004 83.8 93.6004 83.8Z" fill="white" fill-opacity="0.64"/>
<path d="M89.7002 82.1C88.6002 82.3 88.0002 83 87.9002 83.8C88.2002 83.7 88.4002 83.6 88.7002 83.6C89.5002 83.6 90.0002 84.1 90.0002 84.7C90.0002 85.4 89.4002 86 88.4002 86C87.4002 86 86.7002 85.4 86.7002 84.4C86.8002 83.2 88.0002 82 89.7002 82.1ZM88.5002 83.8C88.2002 83.8 88.0002 83.9 87.9002 84C87.9002 84.1 87.9002 84.3 87.9002 84.6C87.9002 85 88.0002 85.7 88.5002 85.7C89.1002 85.7 89.1002 85.2 89.1002 84.7C89.1002 84.4 89.0002 83.8 88.5002 83.8Z" fill="white" fill-opacity="0.64"/>
<path d="M84.6001 82.1C83.5001 82.3 82.9001 83 82.8001 83.8C83.1001 83.7 83.3001 83.6 83.6001 83.6C84.4001 83.6 84.9001 84.1 84.9001 84.7C84.9001 85.4 84.3001 86 83.3001 86C82.3001 86 81.6001 85.4 81.6001 84.4C81.7001 83.2 82.8001 82 84.6001 82.1ZM83.3001 83.8C83.0001 83.8 82.8001 83.9 82.7001 84C82.7001 84.1 82.7001 84.3 82.7001 84.6C82.7001 85 82.8001 85.7 83.3001 85.7C83.9001 85.7 83.9001 85.2 83.9001 84.7C83.9001 84.4 83.9001 83.8 83.3001 83.8Z" fill="white" fill-opacity="0.64"/>
<path d="M50.9 49.5C51.3 49.6 51.8001 49.8999 52.1001 50.0999C52.0001 50.1999 52.0001 50.3 52.0001 50.5C51.9001 50.8 52 51.2 51.9 51.7C51.7 53.1 50.5 54.1 49.2 53.9C47.9 53.7 47.1001 52.2999 47.3001 50.7999C47.4001 50.0999 47.8001 49.6 47.8001 49.5C47.8001 49.4 47.8001 49.2 47.8001 49.2L49.0001 49.2999C49.0001 49.2999 47.7001 50.0999 47.6001 50.7999C47.4001 51.7999 48.1 52.5999 49.2 52.7999C50.3 52.9999 51.3001 52.3999 51.5001 51.2999C51.8001 50.6999 50.9 49.5 50.9 49.5Z" fill="white" fill-opacity="0.64"/>
<path d="M62.5001 31.1L59.9001 33.9C59.9001 33.9 60.1001 33.1 59.8001 32.8L57.7001 30.8C57.4001 30.5 56.6001 30.8 56.6001 30.8L58.3001 29.1C58.3001 29.1 58.1001 29.9 58.4001 30.2L60.5001 32.2C60.7001 32.4 60.8001 32.4 61.0001 32.2L61.6001 31.5C61.9001 31.2 61.9001 29.9 61.9001 29.9L62.5001 31.1Z" fill="white" fill-opacity="0.64"/>
<path d="M60.3003 27.1L62.1003 25.7C62.1003 25.7 61.9003 26.5 62.1003 26.7L63.9003 28.9C64.1003 29.2 64.9003 29.1 64.9003 29.1L63.1003 30.5C63.1003 30.5 63.3003 29.8 63.1003 29.5L61.3003 27.2999C61.1003 26.9999 60.3003 27.1 60.3003 27.1Z" fill="white" fill-opacity="0.64"/>
<path d="M66.3 27.1C66.5 27.5 67.3 27.5 67.3 27.5L65.8 28.4C65.8 28.4 66.1 27.7 65.9 27.5L64.2 24.7C64 24.7 63.5 24.6 63.5 24.6L64.8 23.8L68.9 24.9L67.7 23C67.4 22.6 66.6 22.6 66.6 22.6L68.2 21.6C68.2 21.6 67.8 22.3 68 22.5L70 25.8L69.6 26L64.8 24.7L66.3 27.1Z" fill="white" fill-opacity="0.64"/>
<path d="M92.2001 21C92.2001 21 92.9001 22.2 93.4001 22.4C93.9001 22.5 94.3001 22.3 94.4001 21.9C94.6001 20.9 92.4001 20.4 92.7001 19C92.8001 18.3 93.5001 18 94.4001 18.2C94.9001 18.3 95.3001 18.6 95.4001 18.6C95.4001 18.6 95.5001 18.6 95.6001 18.6H95.7001L95.6001 19.8C95.6001 19.8 94.9001 18.7 94.4001 18.6C94.0001 18.5 93.7001 18.7 93.6001 18.9C93.5001 19.5 94.6001 19.9 95.2001 20.9C95.4001 21.2 95.5001 21.6 95.4001 21.9C95.2001 22.6 94.5001 23.1 93.6001 22.9C93.0001 22.8 92.6001 22.5 92.5001 22.4C92.4001 22.4 92.4001 22.4 92.3001 22.5H92.1001L92.2001 21Z" fill="white" fill-opacity="0.64"/>
<path d="M97.9001 19.3L100.1 20C100.1 20 99.3001 20.2 99.2001 20.6L98.3001 23.3C98.2001 23.6 98.7001 24.3 98.7001 24.3L96.6001 23.6C96.6001 23.6 97.3001 23.4 97.4001 23.1L98.3001 20.4C98.4001 19.9 97.9001 19.3 97.9001 19.3Z" fill="white" fill-opacity="0.64"/>
<path d="M104.4 25.3L103.9 26.2C103.3 26.2 102.6 26 102 25.8C100.4 25 100.1 23.7 100.7 22.5C101.3 21.3 102.7 21 104 21.6C104.7 21.9 105.1 22.4 105.3 22.5C105.4 22.5 105.5 22.5 105.5 22.5L105.7 22.6L105.1 23.8L104.8 23.7C105.1 23 104.8 22.3 104.1 22C103.2 21.5 102.2 21.9 101.7 23C101.2 24 101.4 25.2 102.3 25.6C102.5 25.7 102.8 25.8 103.1 25.8L103.5 24.9C103.7 24.6 103 23.9 103 23.9L105.1 25C105.2 24.9 104.6 25 104.4 25.3Z" fill="white" fill-opacity="0.64"/>
<path d="M107.7 23.9L109.6 25.2C109.6 25.2 108.8 25.2 108.6 25.5L107 27.8C106.8 28.1 107.1 28.8 107.1 28.8L105.2 27.5C105.2 27.5 106 27.5 106.1 27.2L107.7 24.9C108 24.6 107.7 23.9 107.7 23.9Z" fill="white" fill-opacity="0.64"/>
<path d="M114.4 36.3L112 33.3C112 33.3 112.8 33.6 113.1 33.4L115.3 31.6C115.6 31.3 115.5 30.6 115.5 30.6L117 32.5C117 32.5 116.2 32.2 115.9 32.4L113.6 34.2C113.4 34.4 113.4 34.5 113.6 34.7L114.2 35.4C114.5 35.8 115.7 35.9 115.7 35.9L114.4 36.3Z" fill="white" fill-opacity="0.64"/>
<path d="M111.2 32.5L108.4 29.9C108.4 29.9 109.2 30.1 109.5 29.8L111.4 27.7C111.7 27.4 111.4 26.6 111.4 26.6L113.2 28.2C113.2 28.2 112.4 28 112.1 28.3L110.1 30.5C109.9 30.7 109.9 30.8 110.1 31L110.8 31.6C111.2 31.9 112.4 31.9 112.4 31.9L111.2 32.5Z" fill="white" fill-opacity="0.64"/>
<path d="M118.1 35.4C118.4 34.9 118.4 34.3 118.4 34.3L119.7 36.4C119.7 36.4 118.9 35.9 118.6 36.3L117.2 38.4001L119.9 38.2001C120.2 38.2001 120.2 37.2001 120.2 37.2001L121.1 38.8C121.1 38.8 120.4 38.5 119.8 38.6L115.6 38.9001L118.1 35.4Z" fill="white" fill-opacity="0.64"/>
<path d="M121.2 41.2L118.8 41.9C118.3 42 118.1 42.8 118.1 42.8L117.6 41.3C117.6 41.3 118.2 41.7 118.8 41.5L121.3 40.8C121.6 40.7 121.9 40.1 121.9 40.1L122.4 41.5L120 43.8L123.1 44L123.6 45.4C123.6 45.4 123.1 45 122.7 45.2L120.3 46.2C119.7 46.4 119.6 47.1 119.6 47.1L118.8 45C118.8 45 119.3 45.5 119.7 45.4C119.8 45.4 119.9 45.3 120 45.3L122.3 44.3L118.4 44L118.3 43.8L121.2 41.2Z" fill="white" fill-opacity="0.64"/>
<path d="M121.6 57.1C121.2 57.1 120.7 57.8 120.7 57.8L120.8 56.1C120.8 56.1 121.2 56.7 121.5 56.7L124.8 56.8C124.9 56.6 125.3 56.2 125.3 56.2L125.2 57.7L122 60.5L124.2 60.6C124.7 60.6 125.1 59.9 125.1 59.9L125 61.7C125 61.7 124.7 61 124.4 61L120.6 60.8V60.4L124.3 57.1H121.6Z" fill="white" fill-opacity="0.64"/>
<path d="M124.7 63.2001L124.3 65.4001C124.3 65.4001 124 64.7 123.6 64.6L120.8 64C120.5 63.9 119.9 64.5 119.9 64.5L120.3 62.3C120.3 62.3 120.6 63 120.9 63.1L123.7 63.7001C124.1 63.7001 124.7 63.2001 124.7 63.2001Z" fill="white" fill-opacity="0.64"/>
<path d="M120.1 75.2L120.8 73.8L119.4 73.1L118.9 74.1C118.7 74.4 119 75.1 119 75.1L117.7 74.5C117.7 74.5 118.3 74.4 118.6 73.9L119.1 73L118 72.4C117.7 72.3 117.6 72.3 117.6 72.5L117.1 73.6C116.9 74 117.3 74.9 117.3 74.9L116.3 74.3L118.3 70.5C118.3 70.5 118.3 71.5 118.6 71.6L121.1 72.9C121.4 73.1 122.1 72.6 122.1 72.6L120.1 76L119.1 75.6C119.2 75.6 119.9 75.5 120.1 75.2Z" fill="white" fill-opacity="0.64"/>
<path d="M112.7 80.8C112.7 80.8 111.3 80.7 110.9 81.1C110.6 81.4 110.5 81.9 110.8 82.2C111.6 82.9 113.1 81.3 114.1 82.3C114.6 82.8 114.5 83.5 113.9 84.1C113.5 84.5 113.1 84.7 113 84.7L112.8 85L111.9 84.3C111.9 84.3 113.2 84.3 113.6 83.9C113.9 83.6 113.9 83.3 113.7 83.1C113.2 82.6 112.3 83.4 111.2 83.4C110.8 83.4 110.5 83.3 110.2 83C109.7 82.5 109.7 81.6 110.3 81C110.7 80.6 111.2 80.4 111.3 80.3C111.3 80.3 111.4 80.2 111.3 80.1L111.4 80L112.7 80.8Z" fill="white" fill-opacity="0.64"/>
<path d="M111.2 86.5L109.4 87.9C109.4 87.9 109.7 87.1 109.4 86.9L107.7 84.7C107.5 84.4 106.7 84.5 106.7 84.5L108.5 83.1C108.5 83.1 108.3 83.8 108.5 84.1L110.3 86.3C110.5 86.5 111.2 86.5 111.2 86.5Z" fill="white" fill-opacity="0.64"/>
<path d="M91.7 95.3L89.4 95.5C89.4 95.5 90 95 90 94.6L89.7 91.8C89.7 91.5 89 91.1 89 91.1L91.3 90.9C91.3 90.9 90.7 91.4 90.8 91.7L91.1 94.5C91.1 94.9 91.7 95.3 91.7 95.3Z" fill="white" fill-opacity="0.64"/>
<path d="M87.2004 92.4C87.2004 92.4 86.3004 91.3 85.7004 91.3C85.2004 91.3 84.9004 91.6 84.9004 92C84.9004 93.1 87.2004 93.1 87.2004 94.5C87.2004 95.2 86.6004 95.7 85.7004 95.6C85.2004 95.6 84.7004 95.4 84.6004 95.4L84.3004 95.5L84.2004 94.3C84.2004 94.3 85.1004 95.3 85.6004 95.3C86.0004 95.3 86.3004 95.1 86.3004 94.8C86.3004 94.1 85.1004 94 84.3004 93.2C84.0004 92.9 83.9004 92.6 83.9004 92.3C83.9004 91.6 84.6004 91 85.4004 91C86.0004 91 86.5004 91.2 86.6004 91.2C86.7004 91.2 86.9004 91.1 86.9004 91.1L87.2004 92.4Z" fill="white" fill-opacity="0.64"/>
<path d="M74.9002 90.8001L75.2002 89.8001C75.8002 89.7001 76.5002 89.7001 77.1002 89.9001C78.8002 90.4001 79.4002 91.6001 79.1002 92.9001C78.8002 94.2001 77.5002 94.8001 76.0002 94.4001C75.3002 94.2001 74.8002 93.8001 74.6002 93.8001C74.5002 93.8001 74.2002 93.8001 74.2002 93.8001L74.5002 92.5001C74.5002 92.5001 75.2002 93.9001 75.9002 94.1001C76.9002 94.4001 77.8002 93.8001 78.1002 92.7001C78.4002 91.6001 77.9002 90.5001 77.0002 90.3001C76.7002 90.2001 76.4002 90.2001 76.2002 90.3001L75.9002 91.2001C75.7002 91.8001 76.6002 92.1001 76.6002 92.1001L74.3002 91.5001C74.2002 91.4001 74.8002 91.1001 74.9002 90.8001Z" fill="white" fill-opacity="0.64"/>
<path d="M60.8001 81.4L59.9001 82.3L61.6001 83.9L62.5001 83C62.8001 82.7 62.6001 82 62.6001 82L64.3001 83.6C64.3001 83.6 63.5001 83.5 63.3001 83.7L61.3001 85.8C61.1001 86.1 61.2001 86.8 61.2001 86.8L59.5001 85.2C59.5001 85.2 60.2001 85.4 60.5001 85.1L61.3001 84.3L59.6001 82.7L58.8001 83.5C58.5001 83.8 58.7001 84.5 58.7001 84.5L57.1001 82.9C57.1001 82.9 57.9001 83.1 58.1001 82.8L60.0001 80.8C60.3001 80.5 60.1001 79.8 60.1001 79.8L61.8001 81.4C61.8001 81.3 61.1001 81.1 60.8001 81.4Z" fill="white" fill-opacity="0.64"/>
<path d="M48.6001 63.7999L51.1001 63.5999C51.6001 63.5999 52.0001 62.9 52.0001 62.9L52.2001 64.5C52.2001 64.5 51.7001 64 51.1001 64L48.5001 64.2C48.1001 64.2 47.8001 64.7999 47.8001 64.7999L47.6001 63.2999L50.4001 61.5L47.3001 60.5999L47.1001 59.0999C47.1001 59.0999 47.5001 59.6 48.0001 59.5L50.6001 59C51.2001 58.9 51.5001 58.2 51.5001 58.2L51.8001 60.4C51.8001 60.4 51.4001 59.7999 51.0001 59.7999C50.9001 59.7999 50.8001 59.8 50.7001 59.9L48.2001 60.4L52.0001 61.5V61.7L48.6001 63.7999Z" fill="white" fill-opacity="0.64"/>
<path d="M124 51C124.5 50.7 124.8 50.1 124.8 50.1L125 52.6C125 52.6 124.5 51.8 124.1 52.1L122.2 53.2L124.5 54.3C124.8 54.4 125.1 53.6 125.1 53.6L125.3 55.4C125.3 55.4 124.8 54.8 124.2 54.6L120.5 53L124 51Z" fill="white" fill-opacity="0.64"/>
<path d="M122.9 67.1C123.5 67 124 66.6 124 66.6L123.3 69C123.3 69 123.1 68.1 122.6 68.1L120.4 68.4L122.2 70.3C122.4 70.5 123 69.9 123 69.9L122.5 71.6C122.5 71.6 122.2 70.9 121.8 70.5L119 67.6L122.9 67.1Z" fill="white" fill-opacity="0.64"/>
<path d="M50.2004 69.9C49.8004 70.3 49.6004 70.9 49.6004 70.9L48.8004 68.6C48.8004 68.6 49.5004 69.2 49.8004 68.9L51.4004 67.4L48.9004 66.9C48.6004 66.9 48.5004 67.7 48.5004 67.7L47.9004 66C47.9004 66 48.5004 66.4 49.2004 66.5L53.1004 67.2L50.2004 69.9Z" fill="white" fill-opacity="0.64"/>
<path d="M65.9004 85.6C66.1004 85.3 65.7004 84.5 65.7004 84.5L67.8004 86C67.8004 86 66.9004 85.9 66.7004 86.2L64.7004 89.1L65.4004 89.6C65.9004 89.9 66.8004 89.5 66.8004 89.5L66.1004 90.3L62.4004 87.7L62.9004 86.7C62.9004 86.7 62.8004 87.7 63.3004 88L64.0004 88.5L65.9004 85.6Z" fill="white" fill-opacity="0.64"/>
<path d="M94.0003 91.1C93.9003 90.7 93.0003 90.5 93.0003 90.5L95.5003 89.9C95.5003 89.9 94.8003 90.5 94.9003 90.9L95.7003 94.2L96.5003 94C97.0003 93.9 97.3003 92.9 97.3003 92.9L97.5003 94L93.1003 95L92.8003 94C92.8003 94 93.5003 94.7 94.0003 94.6L94.8003 94.4L94.0003 91.1Z" fill="white" fill-opacity="0.64"/>
<path d="M103.9 87.2C103.7 86.9 102.8 86.9 102.8 86.9L105 85.6C105 85.6 104.5 86.4 104.7 86.7L106.5 89.7L107.2 89.3C107.7 89 107.7 88 107.7 88L108.2 89L104.3 91.3L103.6 90.4C103.6 90.4 104.5 90.9 104.9 90.6L105.6 90.2L103.9 87.2Z" fill="white" fill-opacity="0.64"/>
<path d="M121.6 48.9C121.6 48.5 121.9 48.2 122.3 48.2C122.7 48.2 123 48.5 123 48.9C123 49.3 122.7 49.5999 122.3 49.5999C121.9 49.5999 121.6 49.3 121.6 48.9Z" fill="white" fill-opacity="0.64"/>
<path d="M80.8003 92.9C80.8003 92.5 81.1003 92.2 81.5003 92.2C81.9003 92.2 82.2003 92.5 82.2003 92.9C82.2003 93.3 81.9003 93.6 81.5003 93.6C81.1003 93.6 80.8003 93.3 80.8003 92.9Z" fill="white" fill-opacity="0.64"/>
<path d="M48.6001 56.4C48.6001 56 48.9001 55.7 49.3001 55.7C49.7001 55.7 50.0001 56 50.0001 56.4C50.0001 56.8 49.7001 57.0999 49.3001 57.0999C48.9001 57.0999 48.6001 56.7 48.6001 56.4Z" fill="white" fill-opacity="0.64"/>
<path d="M54.9002 36.3C54.0002 35.7 53.8002 34.8 54.3002 34C54.9002 33.1 56.1002 33.3 57.1002 34C57.9002 34.6 58.3002 35.5 57.7002 36.3C57.2002 37.1 56.0002 37.1 54.9002 36.3ZM54.6002 37.4C55.6002 38.1 57.0002 37.9 57.9002 36.6C58.9002 35.2 58.6002 33.8 57.5002 33C56.4002 32.2 55.0002 32.5 54.2002 33.7C53.3002 35 53.4002 36.6 54.6002 37.4Z" fill="white" fill-opacity="0.64"/>
<path d="M73.1001 22.6L71.7001 23L71.8001 20.9L73.1001 22.6ZM74.0001 22.1L75.2001 21.6C75.7001 21.4 76.4001 21.6 76.4001 21.6L75.4001 20.5C75.4001 20.5 75.3001 21.1 75.0001 21.3L73.7001 21.8L72.5001 20.4L74.4001 19.8C74.7001 19.7 75.5001 20 75.5001 20L74.7001 19.2L70.7001 20.6C70.7001 20.6 71.2001 20.7 71.1001 21.4L71.0001 24.4C70.9001 24.9 70.6001 25.5 70.6001 25.5L72.1001 24.9C72.1001 24.9 71.4001 24.6 71.5001 24.3L71.6001 23.4L73.3001 22.9L74.2001 24.1L77.9001 22.7L77.1001 21.8C77.1001 21.8 77.4001 22.4 76.9001 22.6L74.9001 23.4L74.0001 22.1Z" fill="white" fill-opacity="0.64"/>
<path d="M54 41.8C54.3 42 55.1 41.4 55.1 41.4L54 43.7C54 43.7 54 42.9 53.6 42.7L51 41.5C50.7 41.4 50 41.8 50 41.8C50.1 41.5 50.2 41.2 50.3 40.9C50.4 40.5 50.6 40.1 50.7 39.8C51.1 38.9 51.5 38.4 52 38.2C52.3 38.1 52.6 38.1 52.9 38.2C53.4 38.4 53.6 39 53.5 39.6C54.1 39.3 54.7 39.4 55.3 39.1C55.7 39 56.3 38.5 56.3 38.5C56.2 38.6 56.2 38.7 56.1 38.9C55.7 39.7 55.5 40 55 40.1C54.5 40.3 53.7 40.3 53.1 40.6L52.9 41.1L54 41.8ZM52.7 41.2L52.8 40.9C53.2 40.1 53.1 39.6 52.4 39.2C51.7 38.9 51.2 39.3 50.9 39.9L50.7 40.2L52.7 41.2Z" fill="white" fill-opacity="0.64"/>
<path d="M51.4004 47.3L52.0004 47.8C52.3004 48 52.9004 47.3 52.9004 47.3L52.3004 49.2C52.3004 49.2 52.1004 48.5 51.8004 48.2L48.4004 45.3L52.9004 44.6C53.3004 44.5 53.9004 44.1 53.9004 44.1L53.1004 46.4C53.1004 46.4 52.9004 45.5 52.6004 45.6L51.8004 45.7L51.4004 47.3ZM49.9004 46L51.1004 47L51.5004 45.8L49.9004 46Z" fill="white" fill-opacity="0.64"/>
<path d="M54.7004 73C55.0004 72.8 55.0004 71.9 55.0004 71.9L56.2004 74.1C56.2004 74.1 55.5004 73.6 55.2004 73.8L52.7004 75.1C52.4004 75.3 52.3004 76.1 52.3004 76.1C52.1004 75.8 52.0004 75.6 51.8004 75.3C51.6004 75 51.3004 74.5 51.2004 74.3C50.7004 73.4 50.6004 72.8 50.7004 72.3C50.8004 72 51.0004 71.8 51.3004 71.6C51.8004 71.3 52.3004 71.5 52.8004 72C52.9004 71.4 53.3004 70.9 53.5004 70.2C53.6004 69.8 53.7004 69 53.7004 69C53.8004 69.1 53.8004 69.2 53.9004 69.4C54.3004 70.2 54.4004 70.6 54.2004 71C54.1004 71.5 53.6004 72.2 53.5004 72.8L53.8004 73.3L54.7004 73ZM53.5004 73.6L53.4004 73.4C53.0004 72.6 52.5004 72.3 51.9004 72.7C51.2004 73.1 51.3004 73.7 51.6004 74.3L51.8004 74.6L53.5004 73.6Z" fill="white" fill-opacity="0.64"/>
<path d="M54.4 79.6C53.5 78.4 53.6 77 54.7 76.2C55.7 75.4 57.2 75.6 58.2 76.9C59.2 78.2 58.9 79.6 57.9 80.3C56.8 81.2 55.3 80.8 54.4 79.6ZM57.9 77C57.3 76.2 56.3 76.3 55.6 76.9C54.7 77.6 54.2 78.7 54.8 79.5C55.3 80.2 56.3 80.3 57.1 79.6C58.1 78.9 58.5 77.8 57.9 77Z" fill="white" fill-opacity="0.64"/>
<path d="M69.6003 92.1C68.2003 91.5 67.7003 90.2 68.2003 89C68.7003 87.8 70.1003 87.2 71.6003 87.9C73.1003 88.6 73.5003 89.9 73.0003 91C72.5003 92.3 71.1003 92.7 69.6003 92.1ZM71.4003 88.1C70.5003 87.7 69.7003 88.3 69.3003 89.2C68.8003 90.2 68.9003 91.5 69.9003 91.9C70.7003 92.3 71.6003 91.9 72.0003 90.9C72.6003 89.7 72.3003 88.5 71.4003 88.1Z" fill="white" fill-opacity="0.64"/>
<path d="M115 77C114.7 76.8 113.9 77.1 113.9 77.1L115.4 75.1C115.4 75.1 115.3 75.9 115.6 76.2L117.9 77.9C118.2 78.1 119 77.8 119 77.8C118.8 78.1 118.7 78.3 118.5 78.6C118.3 78.9 118 79.4 117.8 79.6C117.2 80.4 116.7 80.8 116.2 80.9C115.9 80.9 115.6 80.9 115.3 80.7C114.9 80.4 114.8 79.8 115 79.2C114.4 79.3 113.8 79.2 113.1 79.3C112.7 79.4 112 79.6 112 79.6C112.1 79.5 112.1 79.4 112.3 79.2C112.8 78.5 113.2 78.3 113.6 78.2C114.1 78.1 114.9 78.2 115.5 78.1L115.8 77.6L115 77ZM116.1 77.9L115.9 78.1C115.4 78.8 115.3 79.3 115.9 79.8C116.5 80.3 117.1 80 117.5 79.4L117.7 79.1L116.1 77.9Z" fill="white" fill-opacity="0.64"/>
<path d="M100.7 89.5V88.7C100.7 88.4 99.8002 88.3 99.8002 88.3L101.6 87.6C101.6 87.6 101.1 88.2 101.1 88.7L100.9 93.2L97.7002 90C97.4002 89.7 96.7002 89.5 96.7002 89.5L98.9002 88.6C98.9002 88.6 98.3002 89.3 98.6002 89.5L99.2002 90L100.7 89.5ZM100.7 91.4V89.8L99.5002 90.3L100.7 91.4Z" fill="white" fill-opacity="0.64"/>
<path d="M86.6004 27.7001C86.4004 27.2001 85.9004 26.8 85.9004 26.8L88.3004 27C88.3004 27 87.5004 27.4 87.6004 27.8L88.4004 29.8L89.8004 27.7001C89.9004 27.5001 89.3004 27 89.3004 27L91.1004 27.1C91.1004 27.1 90.5004 27.5 90.2004 28L88.1004 31.3L86.6004 27.7001Z" fill="white" fill-opacity="0.64"/>
<path d="M66.9003 35C66.4003 34.8 65.8003 34.8 65.8003 34.8L67.7003 33.3C67.7003 33.3 67.4003 34.2 67.8003 34.4L69.7003 35.4L69.3003 32.9C69.2003 32.7 68.4003 32.7 68.4003 32.7L69.8003 31.6C69.8003 31.6 69.6003 32.3 69.8003 32.9L70.4003 36.7L66.9003 35Z" fill="white" fill-opacity="0.64"/>
<path d="M103.9 33.7C104.1 33.2 103.9 32.6 103.9 32.6L105.7 34.2C105.7 34.2 104.8 34 104.7 34.4L104 36.6L106.4 35.7C106.6 35.6 106.4 34.8 106.4 34.8L107.7 36C107.7 36 106.9 35.9 106.4 36.2L102.7 37.5L103.9 33.7Z" fill="white" fill-opacity="0.64"/>
<path d="M74.5004 33.2C74.7004 33.5 75.5004 33.6 75.5004 33.6L73.2004 34.7C73.2004 34.7 73.7004 34 73.6004 33.7L72.1004 30.6L71.4004 30.9C70.9004 31.1 70.8004 32.1 70.8004 32.1L70.4004 31.1L74.4004 29.2L75.0004 30.1C75.0004 30.1 74.2004 29.5999 73.7004 29.7999L73.0004 30.1L74.5004 33.2Z" fill="white" fill-opacity="0.64"/>
<path d="M92.6 28.4L91.7 30.7001C91.5 31.1001 92 31.8 92 31.8L90.5 31.4C90.5 31.4 91.2 31.1 91.4 30.6L92.3 28.2001C92.4 27.9001 92.1 27.3 92.1 27.3L93.5 27.7001L94 30.9L96.1 28.5L97.5 28.9C97.5 28.9 96.9 29 96.8 29.5L96.1 32C96 32.6 96.4 33.1 96.4 33.1L94.3 32.5C94.3 32.5 95 32.4 95.1 32C95.1 31.9 95.2 31.8001 95.2 31.7001L95.8 29.3L93.3 32.2001H93.1L92.6 28.4Z" fill="white" fill-opacity="0.64"/>
<path d="M109.6 38.9L108.7 37.7L107.5 38.7L108.2 39.5999C108.4 39.8999 109.1 39.9 109.1 39.9L108 40.7C108 40.7 108.2 40.1 107.8 39.7L107.2 38.9L106.2 39.7C106 39.9 106 39.9999 106.1 40.0999L106.8 41C107.1 41.4 108 41.4 108 41.4L107.1 42L104.5 38.7C104.5 38.7 105.3 39.1 105.6 38.9L107.8 37.2C108.1 37 108 36.2 108 36.2L110.3 39.2L109.6 39.9C109.6 39.9 109.8 39.2 109.6 38.9Z" fill="white" fill-opacity="0.64"/>
<path d="M82.6001 30.6C82.6001 31 83.4001 31.3 83.4001 31.3L81.0001 31.6C81.0001 31.6 81.7001 31.2 81.6001 30.8L81.4001 28C81.4001 27.7 80.6001 27.3 80.6001 27.3C80.9001 27.2 81.2001 27.2 81.5001 27.2C81.9001 27.1 82.4001 27.1 82.6001 27C83.6001 26.9 84.2001 27 84.6001 27.3C84.9001 27.5 85.0001 27.8 85.0001 28.1C85.1001 28.6 84.7001 29.1 84.1001 29.3C84.6001 29.6 84.9001 30.1 85.4001 30.6C85.7001 30.9 86.4001 31.2 86.4001 31.2C86.2001 31.2 86.2001 31.2 86.0001 31.3C85.1001 31.4 84.8001 31.3 84.4001 31C84.0001 30.7 83.5001 30 83.1001 29.7L82.6001 29.8V30.6ZM82.5001 29.3H82.8001C83.6001 29.2 84.1001 28.9 84.0001 28.2C83.9001 27.5 83.3001 27.3 82.7001 27.3H82.3001L82.5001 29.3Z" fill="white" fill-opacity="0.64"/>
<path d="M60.5 41.3C60.7 41 60.9 40.6 61.1 40.4C61.3 40.1 61.4 39.9 61.6 39.6C62.4 38.5 62.9 38 63.6 37.9C64.1 37.8 64.6 37.9 65.1 38.3C65.6 38.7 65.9 39.2 66 39.7C66.1 40.2 66 40.9 65.2 42L63.9 43.8C63.9 43.8 64 43.1 63.7 42.8L61.5 41.3C61.2 41 60.5 41.3 60.5 41.3ZM64.3 42C64.7 42.3 64.8 42.2 65.1 41.8C66 40.5 65.4 39.6 64.7 39.1C64.2 38.8 63.7 38.6 63.3 38.7C62.8 38.8 62.4 39.1 62 39.6C61.9 39.8 61.8 39.9 61.7 40.1L64.3 42Z" fill="white" fill-opacity="0.64"/>
<path d="M61.0003 47.2L61.5003 47.7C61.7003 47.9 62.4003 47.4 62.4003 47.4L61.7003 49.2C61.7003 49.2 61.6003 48.5 61.3003 48.2L58.3003 45.1L62.7003 44.9C63.1003 44.9 63.7003 44.5 63.7003 44.5L62.8003 46.6C62.8003 46.6 62.7003 45.8 62.4003 45.8H61.6003L61.0003 47.2ZM59.8003 45.8L60.9003 46.9L61.4003 45.7L59.8003 45.8Z" fill="white" fill-opacity="0.64"/>
<path d="M101.2 30.7C102.5 31.4 102.9 32.7 102.3 33.8C101.7 34.9 100.3 35.4 98.9001 34.6C97.5001 33.8 97.2001 32.5 97.7001 31.5C98.4001 30.2 99.9001 29.9 101.2 30.7ZM99.2001 34.4C100 34.9 100.8 34.3 101.3 33.5C101.8 32.5 101.8 31.3 100.9 30.8C100.1 30.4 99.3001 30.7 98.8001 31.6C98.2001 32.8 98.3001 33.9 99.2001 34.4Z" fill="white" fill-opacity="0.64"/>
<path d="M101.3 37.8C99.7998 36.6 100.3 36.8 99.8998 35.5C99.4998 34.2 99.7998 32.5 99.4998 32.3C99.1998 32.1 100.1 32 100.4 34.7C100.8 37.4 101.3 37.8 101.3 37.8Z" fill="white" fill-opacity="0.64"/>
<path d="M65.1002 92.4C52.8002 85.2 44.6002 71.8 44.6002 56.6C44.6002 33.7 63.3002 15 86.2002 15C109.1 15 127.8 33.7 127.8 56.6C127.8 79.5 109.1 98.2 86.2002 98.2C78.6002 98.2 71.5002 96.2 65.4002 92.6L64.7002 92.2L64.2002 92.9L64.9002 93.3C71.2002 96.9 78.4002 99 86.2002 99C109.6 99 128.7 79.9 128.7 56.5C128.7 33.1 109.6 14 86.2002 14C62.8002 14 43.7002 33.1 43.7002 56.5C43.7002 72.1 52.1002 85.7 64.6002 93.1L65.1002 93.4L65.5002 92.7L65.1002 92.4Z" fill="white" fill-opacity="0.64"/>
<path d="M69.5002 83.5C60.5002 77.9 54.4002 67.9 54.4002 56.5C54.4002 41.8 64.6002 29.3 78.2002 25.8L78.4002 25.1C64.2002 28.6 53.7002 41.4 53.7002 56.6C53.7002 68.2 59.9002 78.4 69.1002 84.2L69.6002 84.5L69.9002 84L69.5002 83.5Z" fill="white" fill-opacity="0.64"/>
<path d="M69.5003 84.3C74.4003 87.2 80.1003 88.9 86.2003 88.9C104.1 88.9 118.6 74.4 118.6 56.5C118.6 38.6 104.1 24.1 86.2003 24.1C84.1003 24.1 82.1003 24.3 80.1003 24.7L80.0003 25.4C82.0003 25 84.1003 24.8 86.2003 24.8C103.7 24.8 117.9 39.1 117.9 56.5C117.9 73.9 103.7 88.2 86.2003 88.2C80.2003 88.2 74.6003 86.5 69.8003 83.6L69.3003 83.3L68.8003 83.7L69.5003 84.3Z" fill="white" fill-opacity="0.64"/>
<path d="M85.9005 21.7C85.6005 21.7 85.3005 21.6 85.1005 21.4C84.8005 21.3 84.6005 21.1 84.5005 20.8" fill="white" fill-opacity="0.64"/>
<path d="M86.3004 19.1L87.4004 18.1C87.6004 18.3 87.8004 18.5 87.9004 18.8C88.1004 19 88.1004 19.3 88.1004 19.6L86.6004 19.7L87.9004 20.4C87.8004 20.7 87.6004 20.9 87.4004 21.1C87.2004 21.3 86.9004 21.4 86.7004 21.5L86.1004 20.1L85.8004 21.6C85.5004 21.6 85.2004 21.5 85.0004 21.3C84.7004 21.2 84.5004 21 84.4004 20.7L85.5004 19.7L84.1004 20C84.0004 19.7 84.0004 19.4 84.1004 19.1C84.2004 18.8 84.3004 18.6 84.5004 18.3L85.8004 19.1L85.1004 17.8C85.3004 17.6 85.6004 17.5 85.9004 17.5C86.2004 17.5 86.5004 17.5 86.7004 17.6L86.3004 19.1Z" fill="white" fill-opacity="0.64"/>
<path d="M101.8 47.7C101.5 47.7 101.1 47.4 101 47.1C100.9 46.8 101.2 46.5 101.2 46.5C101.3 46.5 101.4 46.5 101.4 46.5C101.6 46.5 101.6 46.4 101.6 46.2C101.6 46 101.4 45.9 101.2 45.9C101 45.9 100.8 46 100.6 45.9C100.5 45.9 100.5 45.7 100.6 45.6C100.6 45.5 100.7 45.4 100.7 45.3C100.7 45.2 100.5 45.1 100.4 45.1C100.3 45.1 100.1 45.2 100.1 45.3C100.1 45.5 100.2 45.5 100.3 45.6C100.4 45.7 100.4 45.8 100.3 45.9L99.9001 46.1H99.8001C99.6001 46.1 99.5001 46.2 99.5001 46.4C99.5001 46.6 99.6001 46.7 99.8001 46.7C99.9001 46.7 100 46.6 100.1 46.5C100.1 46.5 100.4 46.7 100.4 47C100.4 47.3 100.3 47.5 99.8001 47.7C99.4001 47.8 99.1001 47.6 99.1001 47.6C99.1001 47.6 99.0001 48 98.6001 47.9C98.0001 47.8 97.9001 47.1 97.9001 47.1C97.9001 47.1 98.1001 47.1 98.3001 46.8C98.4001 46.5 98.2001 46.4 97.9001 46.3C97.7001 46.3 97.5001 46.5 97.3001 46.4C97.1001 46.3 97.4001 45.8 97.1001 45.6C96.8001 45.4 96.6001 45.8 96.6001 45.8C96.6001 45.8 97.0001 46.3 97.6001 47.1C98.1001 47.8 98.7001 48.6 98.7001 48.6L98.4001 48.8C98.4001 48.8 97.9001 48.1 97.2001 47.1C96.6001 46.3 96.1001 45.8 96.1001 45.8C96.1001 45.8 96.1001 45.7 96.3001 45.6C96.5001 45.4 96.8001 45.1 97.2001 45.2C97.6001 45.4 97.4001 46 97.4001 46C97.4001 46 97.6001 45.8 98.0001 45.8C98.4001 45.9 98.7001 46.2 98.7001 46.5C98.6001 47 98.3001 47.1 98.3001 47.1C98.3001 47.1 98.3001 47.3 98.6001 47.2C98.8001 47.2 99.0001 46.8 99.0001 46.8C99.0001 46.8 99.6001 47.3 99.8001 46.9C99.8001 46.9 99.8001 46.8 99.9001 46.8H99.8001C99.4001 46.8 99.1001 46.5 99.1001 46.1C99.1001 45.7 99.4001 45.4 99.8001 45.4C99.9001 45.4 99.8001 45.4 100 45.4C99.9001 45.3 99.7001 45.2 99.7001 44.9C99.7001 44.6 100 44.3 100.3 44.3C100.6 44.3 101 44.6 101 44.9C101 45.1 100.9 45.3 100.8 45.3C100.9 45.2 101 45.2 101.2 45.2C101.6 45.2 101.9 45.5 101.9 45.9C101.9 46.3 101.6 46.6 101.2 46.6H101.1C101.2 46.7 101.4 46.8 101.5 46.8C102 46.9 102 46.5 102 46.5C102 46.5 102.2 46.7 102.4 46.6C102.8 46.5 102.7 46.3 102.7 46.3C102.7 46.3 102.4 46.3 102.1 45.9C101.9 45.6 101.9 45.3 102.3 45.1C102.6 44.9 103 45 103 45C103 45 102.6 44.6 102.9 44.2C103.2 43.9 103.6 44 103.9 44.1C104.1 44.2 104.3 44.3 104.3 44.3C104.3 44.3 104 44.8 103.8 45.8C103.5 47.1 103.3 47.8 103.3 47.8L102.9 47.7C102.9 47.7 103.1 46.6 103.3 45.7C103.5 44.8 103.7 44.5 103.7 44.5C103.7 44.5 103.3 44.2 103.1 44.5C102.9 44.8 103.4 45 103.2 45.2C103 45.4 102.7 45.2 102.5 45.3C102.3 45.5 102.3 45.6 102.4 45.8C102.5 46 102.8 45.9 102.8 45.9C102.8 45.9 103 46.6 102.5 46.9C102.2 47.1 101.9 46.8 101.9 46.8C101.9 46.8 102.4 47.8 101.8 47.7Z" fill="white" fill-opacity="0.64"/>
<path d="M98.7002 48.9999C98.7002 48.5999 99.8002 48.1999 101.1 48.0999C102.5 47.8999 103.7 48.0999 103.7 48.4999C103.7 48.8999 102.6 49.2999 101.3 49.3999C99.9002 49.4999 98.7002 49.3999 98.7002 48.9999ZM101 48.9999C101.8 48.8999 102.4 48.7999 102.4 48.4999C102.4 48.3999 101.7 48.2999 100.8 48.3999C100 48.4999 99.3002 48.6999 99.3002 48.7999C99.3002 48.9999 100.2 49.0999 101 48.9999Z" fill="white" fill-opacity="0.64"/>
<path d="M110.5 46.5C110.2 46.5 109.8 46.2 109.7 45.9C109.6 45.6 109.9 45.3 109.9 45.3C110 45.3 110.1 45.3 110.1 45.3C110.3 45.3 110.3 45.2 110.3 45C110.3 44.8 110.1 44.7 109.9 44.7C109.7 44.7 109.5 44.8 109.3 44.7C109.2 44.7 109.2 44.5 109.3 44.4C109.3 44.3 109.4 44.2 109.4 44.1C109.4 44 109.2 43.9 109.1 43.9C109 43.9 108.8 44 108.8 44.1C108.8 44.3 108.9 44.3 109 44.4C109.1 44.5 109.1 44.6 109 44.7L108.6 44.9H108.5C108.3 44.9 108.2 45 108.2 45.2C108.2 45.4 108.3 45.5 108.5 45.5C108.6 45.5 108.7 45.4 108.8 45.3C108.8 45.3 109.1 45.5 109.1 45.8C109.1 46.1 109 46.3 108.5 46.5C108.1 46.6 107.8 46.4 107.8 46.4C107.8 46.4 107.7 46.8 107.3 46.7C106.7 46.6 106.6 45.9 106.6 45.9C106.6 45.9 106.8 45.9 107 45.6C107.1 45.3 106.9 45.2 106.6 45.1C106.4 45.1 106.2 45.3 106 45.2C105.8 45.1 106.1 44.6 105.8 44.4C105.5 44.2 105.3 44.6 105.3 44.6C105.3 44.6 105.7 45.1 106.3 45.9C106.8 46.6 107.4 47.4 107.4 47.4L107.1 47.6C107.1 47.6 106.6 46.9 105.9 45.9C105.3 45.1 104.8 44.6 104.8 44.6C104.8 44.6 104.8 44.5 105 44.4C105.2 44.2 105.5 43.9 105.9 44C106.3 44.2 106.1 44.8 106.1 44.8C106.1 44.8 106.3 44.6 106.7 44.6C107.1 44.7 107.4 45 107.4 45.3C107.3 45.8 107 45.9 107 45.9C107 45.9 107 46.1 107.3 46C107.5 46 107.7 45.6 107.7 45.6C107.7 45.6 108.3 46.1 108.5 45.7C108.5 45.7 108.5 45.6 108.6 45.6H108.5C108.1 45.6 107.8 45.3 107.8 44.9C107.8 44.5 108.1 44.2 108.5 44.2C108.6 44.2 108.5 44.2 108.7 44.2C108.6 44.1 108.4 44 108.4 43.7C108.4 43.4 108.7 43.1 109 43.1C109.3 43.1 109.7 43.4 109.7 43.7C109.7 43.9 109.6 44.1 109.5 44.1C109.6 44 109.7 44 109.9 44C110.3 44 110.6 44.3 110.6 44.7C110.6 45.1 110.3 45.4 109.9 45.4H109.8C109.9 45.5 110.1 45.6 110.2 45.6C110.7 45.7 110.7 45.3 110.7 45.3C110.7 45.3 110.9 45.5 111.1 45.4C111.5 45.3 111.4 45.1 111.4 45.1C111.4 45.1 111.1 45.1 110.8 44.7C110.6 44.4 110.6 44.1 111 43.9C111.3 43.7 111.7 43.8 111.7 43.8C111.7 43.8 111.3 43.4 111.6 43C111.9 42.7 112.3 42.8 112.6 42.9C112.8 43 113 43.1 113 43.1C113 43.1 112.7 43.6 112.5 44.6C112.2 45.9 112 46.6 112 46.6L111.6 46.5C111.6 46.5 111.8 45.4 112 44.5C112.2 43.6 112.4 43.3 112.4 43.3C112.4 43.3 112 43 111.8 43.3C111.6 43.6 112.1 43.8 111.9 44C111.7 44.2 111.4 44 111.2 44.1C111 44.3 111 44.4 111.1 44.6C111.2 44.8 111.5 44.7 111.5 44.7C111.5 44.7 111.7 45.4 111.2 45.7C110.9 45.9 110.6 45.6 110.6 45.6C110.6 45.6 111.1 46.5 110.5 46.5Z" fill="white" fill-opacity="0.64"/>
<path d="M107.3 47.7C107.3 47.3 108.4 46.9 109.7 46.8C111.1 46.6 112.3 46.8 112.3 47.2C112.3 47.6 111.2 48 109.9 48.1C108.5 48.3 107.4 48.1 107.3 47.7ZM109.7 47.8C110.5 47.7 111.1 47.6 111.1 47.3C111.1 47.2 110.4 47.1 109.5 47.2C108.7 47.3 108 47.5 108 47.6C108 47.8 108.8 47.9 109.7 47.8Z" fill="white" fill-opacity="0.64"/>
<path d="M106.9 52.4001C106.6 52.4001 106.2 52.1001 106.1 51.8001C106 51.5001 106.3 51.2001 106.3 51.2001C106.4 51.2001 106.5 51.2001 106.5 51.2001C106.7 51.2001 106.7 51.1001 106.7 50.9001C106.7 50.7001 106.5 50.6001 106.3 50.6001C106.1 50.6001 105.9 50.7001 105.7 50.6001C105.6 50.6001 105.6 50.4001 105.7 50.3001C105.7 50.2001 105.8 50.1001 105.8 50.0001C105.8 49.9001 105.6 49.8001 105.5 49.8001C105.4 49.8001 105.2 49.9001 105.2 50.0001C105.2 50.2001 105.3 50.2001 105.4 50.3001C105.5 50.4001 105.5 50.5001 105.4 50.6001L105 50.8001H104.9C104.7 50.8001 104.6 50.9001 104.6 51.1001C104.6 51.3001 104.7 51.4001 104.9 51.4001C105 51.4001 105.1 51.3001 105.2 51.2001C105.2 51.2001 105.5 51.4001 105.5 51.7001C105.5 52.0001 105.4 52.2001 104.9 52.4001C104.5 52.5001 104.2 52.3001 104.2 52.3001C104.2 52.3001 104.1 52.7001 103.7 52.6001C103.1 52.5001 103 51.8001 103 51.8001C103 51.8001 103.2 51.8001 103.4 51.5001C103.5 51.2001 103.3 51.1001 103 51.0001C102.8 51.0001 102.6 51.2001 102.4 51.1001C102.2 51.0001 102.5 50.5001 102.2 50.3001C101.9 50.1001 101.7 50.5001 101.7 50.5001C101.7 50.5001 102.1 51.0001 102.7 51.8001C103.2 52.5001 103.8 53.3001 103.8 53.3001L103.5 53.5001C103.5 53.5001 103 52.8001 102.3 51.8001C101.7 51.0001 101.2 50.5001 101.2 50.5001C101.2 50.5001 101.2 50.4001 101.4 50.3001C101.6 50.1001 101.9 49.8001 102.3 49.9001C102.7 50.1001 102.5 50.7001 102.5 50.7001C102.5 50.7001 102.7 50.5001 103.1 50.5001C103.5 50.6001 103.8 50.9001 103.8 51.2001C103.7 51.7001 103.4 51.8001 103.4 51.8001C103.4 51.8001 103.4 52.0001 103.7 51.9001C103.9 51.9001 104.1 51.5001 104.1 51.5001C104.1 51.5001 104.7 52.0001 104.9 51.6001C104.9 51.6001 104.9 51.5001 105 51.5001H104.9C104.5 51.5001 104.2 51.2001 104.2 50.8001C104.2 50.4001 104.5 50.1001 104.9 50.1001C105 50.1001 104.9 50.1001 105.1 50.1001C105 50.0001 104.8 49.9001 104.8 49.6001C104.8 49.3001 105.1 49.0001 105.4 49.0001C105.7 49.0001 106.1 49.3001 106.1 49.6001C106.1 49.8001 106 50.0001 105.9 50.0001C106 49.9001 106.1 49.9001 106.3 49.9001C106.7 49.9001 107 50.2001 107 50.6001C107 51.0001 106.7 51.3001 106.3 51.3001H106.2C106.3 51.4001 106.5 51.5001 106.6 51.5001C107.1 51.6001 107.1 51.2001 107.1 51.2001C107.1 51.2001 107.3 51.4001 107.5 51.3001C107.9 51.2001 107.8 51.0001 107.8 51.0001C107.8 51.0001 107.5 51.0001 107.2 50.6001C107 50.3001 107 50.0001 107.4 49.8001C107.7 49.6001 108.1 49.7001 108.1 49.7001C108.1 49.7001 107.7 49.3001 108 48.9001C108.3 48.6001 108.7 48.7001 109 48.8001C109.2 48.9001 109.4 49.0001 109.4 49.0001C109.4 49.0001 109.1 49.5001 108.9 50.5001C108.6 51.8001 108.4 52.5001 108.4 52.5001L108 52.4001C108 52.4001 108.2 51.3001 108.4 50.4001C108.6 49.5001 108.8 49.2001 108.8 49.2001C108.8 49.2001 108.4 48.9001 108.2 49.2001C108 49.5001 108.5 49.7001 108.3 49.9001C108.1 50.1001 107.8 49.9001 107.6 50.0001C107.4 50.2001 107.4 50.3001 107.5 50.5001C107.6 50.7001 107.9 50.6001 107.9 50.6001C107.9 50.6001 108.1 51.3001 107.6 51.6001C107.3 51.8001 107 51.5001 107 51.5001C107 51.5001 107.5 52.4001 106.9 52.4001Z" fill="white" fill-opacity="0.64"/>
<path d="M103.7 53.7C103.7 53.3 104.8 52.9 106.1 52.8C107.5 52.6 108.7 52.8 108.7 53.2C108.7 53.6 107.6 54 106.3 54.1C105 54.2 103.8 54 103.7 53.7ZM106.1 53.7C106.9 53.6 107.5 53.5 107.5 53.2C107.5 53.1 106.8 53 105.9 53.1C105.1 53.2 104.4 53.4 104.4 53.5C104.4 53.7 105.2 53.8 106.1 53.7Z" fill="white" fill-opacity="0.64"/>
<path d="M89.1004 44.8C88.0004 46.1 88.7004 47.9001 88.5004 49.4001C88.1004 50.7001 86.7004 51.5 86.3004 52.8C86.2004 53.6 86.1004 54.6001 86.6004 55.2001C86.6004 55.1001 86.5004 55 86.5004 55C86.3004 53.4 86.8004 52.3 88.1004 51C90.2004 48.7 87.7004 46.8 89.7004 45L89.1004 44.8Z" fill="white" fill-opacity="0.64"/>
<path d="M93.9 59.5C94.8 59.5 95.5 59.4 96.4 59.1C97.3 58.8 98 58.6 98.9 58.3C100.7 57.7 101.7 57.3 103.6 57.3H103.8C104.3 57.3 104.8 57.4 105.3 57.5C105.5 57.6 105.9 57.8 106.1 57.9C107.3 59 107.4 59.5 108.9 60.5C109.6 60.8 110.2 61.5 110.8 61.6C110.6 61.4 110.3 61.3 109.8 60.8C109.1 60.2 107.8 58.6 106.5 57.5C105.8 57.1 105 56.8 104.1 56.7C102.4 56.4 100.5 56.9 99.1 57.5C97.6 58 97 58.1 95.4 58.4C94.8 58.5 94.4 58.5 93.9 58.3C93.7 56.6 93.1 57 93.3 55C93.9 52.7 93.7 50.7 92.9 48.9C93.1 48.3 93.1 47.3 92.6 46.8C92.1 46.4 90.9 46.2 90.7 47.1C90.8 47.7 91.7 47.3 92.1 47.6C92.6 47.7 92.5 48.3 92.5 48.6C92.4 49.5 91.3 50 90.6 50.2C90.9 50.8 92 50.4 92.3 50.1C92.7 51 92.9 51.1 93.1 52.2C93.2 54.1 92.6 54 91.9 55.2C91.6 55.8 91.6 56.7 92.1 58C92 56 92.2 55.9 92.8 55C92.8 55 92.6 55.8 92.6 56.6C92.6 57.5 93.1 57.8 93.1 58.6C92.9 59.3 92.9 59.6 92.5 60.2C91.6 61.3 90.1 61.2 89.5 64.1C90.6 62.4 90.9 62 91.9 61.4C93.3 60.8 93.6 60.4 93.9 59.5Z" fill="white" fill-opacity="0.64"/>
<path d="M83.3003 50C83.8003 50.4 83.9003 50.8 84.4003 51.2C84.2003 51.1 83.0003 50.2 82.3003 50.5C81.4003 50.6 80.1003 51.4 79.3003 50.6C78.7003 50.4 78.4003 49.4 78.3003 48.8C78.8003 49.7 79.8003 50.6001 80.9003 50.4001C81.5003 50.3001 81.9003 50.2 82.4003 50.2C82.7003 50.2 83.1003 50.2 83.5003 50.5C83.1003 50.1 82.6003 49.8 82.0003 49.8C80.6003 49.8 79.2003 50.4 78.3003 48.8C79.1003 49.4 80.8003 49.5 82.1003 49.5C82.5003 49.5 83.0003 49.7 83.3003 50ZM81.2003 47.7C81.1003 47.9 80.9003 48.2001 81.0003 48.4001L81.4003 47.9001C81.3003 47.8001 81.2003 47.8 81.2003 47.7ZM82.0003 48.2C82.1003 48.4 82.2003 48.5 82.3003 48.7C82.5003 48.7 82.5003 48.4001 82.7003 48.4001L82.0003 48.2ZM82.3003 49.3C82.2003 48.9 82.1003 48.5001 81.6003 48.4001C81.2003 48.2001 80.8003 49.2001 80.6003 48.4001C80.4003 47.9001 81.0003 47.5 80.5003 47.1C80.0003 46.4 80.7003 46.3 80.5003 45.5C80.5003 45 80.4003 44.3 81.1003 44.2C82.2003 43.9 83.4003 43.9 84.5003 44.3C84.8003 44 84.9003 43.9 85.0003 43.7C85.0003 43.7 85.5003 43.6 85.8003 43.8C86.1003 43.9 86.5003 44.1 86.5003 44.1C86.2003 44.1 85.6003 44.2 85.7003 44.7C85.9003 45.2 86.4003 44.5001 87.8003 45.4001C87.9003 45.5001 88.1003 45.6001 88.1003 45.9001C87.5003 45.6001 87.1003 45.7 86.6003 45.5C86.2003 45.4 86.1003 45.3001 85.6003 45.4001C85.4003 45.4001 84.8003 45.9 84.8003 45.6C84.8003 45.6 84.8003 45.4 84.7003 45.1C84.6003 44.8 84.4003 44.8 84.2003 44.7C82.8003 44.4 82.1003 44.5 81.4003 44.6C81.1003 44.6 80.9003 45 81.1003 45.3C81.4003 45.8 81.5003 45.7 81.7003 45.7C81.9003 45.6 82.1003 45.2 82.5003 45.2C82.8003 45.2 83.0003 45.2 83.1003 45.5V45.7C83.0003 45.5 82.7003 45.6 82.5003 45.6C82.4003 45.7 82.4003 45.7 82.4003 45.8C82.5003 46 82.6003 45.9001 82.8003 45.9001C82.7003 46.1001 82.0003 46.2 81.6003 46.2C81.4003 46.2 81.4003 46.4 81.3003 46.5C81.1003 46.7 81.2003 46.9 81.3003 47.1C82.0003 47.9 83.1003 48 83.9003 48.5C84.1003 48.6 84.3003 49 84.4003 49.2C84.0003 49 83.9003 49.6 83.9003 49.8L84.1003 49.7C84.2003 49.7 84.6003 49.5 84.6003 49.5C84.8003 49.7 84.7003 50.1 84.8003 50.3C84.9003 50.1 84.8003 49.8 85.0003 49.5C85.3003 50.5 85.9003 52.3 84.4003 54.7C83.6003 56.3 83.7003 56.6 83.8003 58.7C82.8003 56.5 83.5003 55.4 83.8003 54C83.8003 53.9 83.8003 53.7 83.7003 53.6C83.8003 54.2 83.6003 54.6 83.2003 55.2C82.5003 56.1 82.4003 57.3 82.8003 58.1C83.1003 59.1 83.4003 59.5 83.3003 60.5C83.1003 61.5 82.9003 62.1001 83.2003 63.4001C82.4003 61.8001 82.7003 61.3001 82.7003 60.4001C82.7003 59.6001 82.6003 58.9 82.1003 58.3L82.4003 58.5C82.1003 60.3 79.7003 60.5001 80.6003 62.9001C80.9003 63.5001 81.6003 64.5 81.7003 65C81.2003 64.1 80.5003 64 80.1003 63.1C78.9003 62.9 78.0003 63.7 76.8003 64.1C76.1003 64.3 75.5003 64.6 74.3003 63.6C76.4003 64.4 77.8003 63 79.2003 62.5C80.0003 62.2 79.6003 61.6 79.7003 61.1C79.9003 59.7 81.3003 59.7001 81.7003 58.4001C81.7003 57.2001 81.6003 56.5 81.9003 55.8C82.3003 55 82.8003 55.2 82.9003 54.3C83.2003 53.2 81.6003 53.1 81.9003 51.7C82.1003 52 82.5003 52.1 82.8003 52.3C83.4003 52.6 84.0003 53 84.4003 53.5C84.4003 53.3 83.9003 52.6001 83.7003 52.4001L83.0003 52C83.1003 51.8 83.3003 51.7 83.5003 51.5C83.4003 52.1 84.2003 52.4 84.5003 52.8C84.7003 51.9 84.5003 51 84.2003 50.2C84.2003 50.2 83.9003 50.2001 83.7003 50.4001C83.4003 49.8001 83.6003 49.5 83.7003 49C83.7003 48.8 83.5003 48.9001 83.4003 48.9001C83.2003 49.0001 83.1003 49.1 83.1003 49.1L82.8003 48.6C82.7003 48.7 82.4003 49 82.3003 49.3Z" fill="white" fill-opacity="0.64"/>
<path d="M91.9004 48.3C92.0004 48.6 91.8004 48.9 91.7004 49.1C91.6004 49.3 91.4004 49.3001 91.3004 49.4001C91.3004 49.2001 91.8004 48.9 91.5004 48.6L90.9004 48.2001C91.2004 47.9001 91.8004 47.9 91.9004 48.3Z" fill="white" fill-opacity="0.64"/>
<path d="M82.9002 51.8C82.8002 51.8 82.6002 51.8 82.5002 51.7C82.0002 51.5 82.6002 51.3 82.6002 51C82.7002 51.2 82.7002 51.6 82.9002 51.8Z" fill="white" fill-opacity="0.64"/>
<path d="M84.9004 57.5C84.9004 58.5 84.8004 59.2 84.6004 59.8C84.4004 60.4 84.3004 60.6 83.9004 61.4C84.3004 60.5 84.4004 59.7 84.6004 58.7C84.7004 57.7 84.7004 56.3 85.1004 55.5L85.4004 54.6C85.0004 56.1 85.0004 56.8 84.9004 57.5Z" fill="white" fill-opacity="0.64"/>
<path d="M72.5004 68.2C72.8004 67.9 72.9004 68 73.0004 67.9C73.2004 68.1 73.1004 68.3 73.4004 68.4C73.8004 68.6 74.3004 68.2 74.6004 68C74.6004 68 75.4004 68.5 75.8004 68.5C76.2004 68.5 76.4004 68.0999 76.8004 68.0999C77.2004 68.0999 77.4004 68.5999 77.4004 68.5999C77.4004 68.5999 77.8004 68.6 79.9004 68.2C82.0004 67.9 81.5004 69.1999 81.5004 69.1999C81.5004 69.1999 82.3004 69.4 83.1004 68.5C83.7004 67.8 84.4004 66.9 84.6004 66C84.8004 65.1 84.8004 61.7 84.8004 61.7C84.8004 61.7 84.2004 63.1999 84.2004 64.0999C84.1004 64.9999 84.0004 66 83.2004 67.2C83.0004 67.4 82.4004 67.7 82.4004 67.7C82.5004 67.7 82.2004 67.2 81.9004 67C81.5004 66.7 81.2004 66.7 81.2004 66.7C81.2004 66.7 79.7004 67.7 79.1004 67.7C78.5004 67.7 79.1004 66.7 79.1004 66.7C79.1004 66.7 77.4004 67.2999 76.5004 67.5999C75.6004 67.8999 75.4004 67.4 75.4004 67.4C75.0004 67.6 74.1004 67.8999 73.5004 67.7999C73.0004 67.4999 72.8004 67.3 72.6004 67.5L72.1004 68C71.6004 66.9 72.9004 66.4999 73.3004 66.0999L72.5004 66C72.2004 65.9 72.0004 65.5 72.1004 65.2C71.6004 65.2 71.2004 65.4 70.8004 65.5C70.9004 64.6 72.0004 65 72.4004 64.4C72.5004 64.2 72.8004 64.0999 73.2004 64.2999C73.2004 64.2999 72.2004 63.6 72.2004 63.4C72.5004 62.4 74.1004 63.8999 74.5004 64.0999C74.4004 63.8999 74.2004 63.7999 74.1004 63.5999C73.4004 62.0999 71.6004 62.3999 71.0004 63.5999C71.1004 63.6999 71.7004 63.3 71.7004 63.7C71.8004 63.9 72.0004 64.1 72.0004 64.2C71.6004 64.4 71.2004 64.3999 71.0004 64.5999C69.9004 64.9999 69.9004 66.4 69.9004 66.4C69.9004 66.4 71.0004 66.1999 71.3004 66.0999C71.3004 66.0999 71.4004 66.1 71.4004 66C71.6004 66.6 72.1004 66.2 71.5004 67.2C71.2004 67.8 71.8004 68.7999 71.8004 68.7999C71.8004 68.7999 72.3004 68.6 72.5004 68.2Z" fill="white" fill-opacity="0.64"/>
<path d="M87 60.2C86.7 60.6 85.8 62.4 85.7 64C85.4 62.6 85.7 61.4 86.9 59.5C88.5 57.1 87.7 54.8 87.8 54.1C89 58.3 87.5 59.4 87 60.2Z" fill="white" fill-opacity="0.64"/>
<path d="M81.8004 62.7C81.9004 63 82.0004 63.4999 82.4004 64.0999C82.6004 64.4999 82.9004 65.2 82.6004 66.7C82.3004 64.7 82.1004 64.6 81.7004 63.9C81.4004 63.3 81.2004 62.4 81.3004 61.7C81.3004 61.5 81.7004 60.9 81.9004 60.7C81.6004 61.1 81.6004 62.1 81.8004 62.7Z" fill="white" fill-opacity="0.64"/>
<path d="M86.3 65.4C85.7 66.2 85.3 66.8 85 67C85.3 64.7 86.7 64.3 87.4 61.5C87.3 62.6 86.8 64.7 86.3 65.4Z" fill="white" fill-opacity="0.64"/>
<path d="M96.0002 68.6C96.3002 68.7 96.6002 68.8 96.8002 68.9C96.4002 68.8 95.7002 68.6 95.4002 68.6C95.2002 68.6 95.1002 68.6 94.9002 68.6C93.8002 68.5 92.6002 68.2 91.8002 68.5C90.5002 69.1 89.0002 70.2 88.7002 70.9C88.0002 72.4 86.2002 71.2 85.0002 72.6C84.7002 72.3 85.1002 71.7 85.8002 71.3C86.3002 71 87.5002 71.4 88.0002 70.9C88.3002 70.6 87.6002 69.9 86.8002 70.2C85.7002 70.6 85.7002 71.1 85.1002 71.5C85.1002 70.8 85.8002 69.8 86.9002 69.7C87.4002 69.6 87.9002 69.9 88.5002 69.8C89.1002 69.4 89.5002 69.2 90.4002 68.7C90.9002 68.4 91.4002 68.3 92.1002 68.2C93.5002 68.1 94.7002 68.5 96.0002 68.6Z" fill="white" fill-opacity="0.64"/>
<path d="M83.3 52.1C83.3 52.1 83.2 52.1 82.9 52C82.6 51.9 82.2 51.7 82.2 51.7C82 51.7 82 51.6 82 51.6C82 51.6 82.1 51.5 82.2 51.5C82.3 51.5 82.7 51.6 83 51.7C83.3 51.9 83.5 52 83.5 52L83.3 52.1Z" fill="white" fill-opacity="0.64"/>
<path d="M92.4004 46C92.4004 46 92.4004 46.1 92.5004 46.4C92.6004 46.7 92.7004 46.9 92.7004 46.9C92.7004 46.9 91.4004 46.9 91.5004 46.8C91.6004 46.6 91.7004 46.5 91.6004 46.3C91.5004 46.2 91.4004 46 91.4004 46H92.4004Z" fill="white" fill-opacity="0.64"/>
<path d="M85.0002 49.5C84.9002 49.1 84.7002 48.9 83.9002 48.4C83.1002 48 82.4002 47.9 82.1002 47.7C81.8002 47.6 81.3002 47.4 81.4002 47.5C81.5002 47.5 83.1002 48.5 83.4002 48.6C83.7002 48.7 84.2002 48.9 84.3002 49.1C84.5002 49.3 84.5002 49.3 84.6002 49.5C84.7002 49.7 84.6002 50 84.7002 50.3C84.8002 50.6 85.0002 50.6 85.0002 50.6C85.0002 50.6 85.2002 50.1 85.0002 49.5Z" fill="white" fill-opacity="0.64"/>
<path d="M82.8002 46.6C83.3002 46.6 83.5002 46.6 83.9002 46.8C84.3002 46.9 84.4002 47.5 84.6002 47.8C84.6002 47.8 83.7002 46.9 83.0002 46.9C82.9002 46.8 82.6002 46.6 82.8002 46.6Z" fill="white" fill-opacity="0.64"/>
<path d="M82.3002 47.1C82.6002 47 82.7002 47.1 83.0002 47.2C83.2002 47.3 83.3002 47.5 83.6002 47.8L83.4002 47.7C83.4002 47.7 83.4002 47.7 83.1002 47.5C82.8002 47.3 82.7002 47.3 82.5002 47.3C82.4002 47.2 82.2002 47.1 82.3002 47.1Z" fill="white" fill-opacity="0.64"/>
<path d="M90.1003 46C90.1003 46 89.5003 46.5 89.5003 47.4C89.4003 48.3 89.6003 49.3 89.8003 50.3C89.9003 51.3 89.8003 52 89.4003 52.7C89.1003 53.2 88.8003 54 88.8003 54.8C88.8003 55.8 89.6003 56.7 89.6003 56.7C89.6003 56.7 89.0003 55.5 89.2003 54.3C89.4003 53.2 90.1003 52.5 90.2003 51.6C90.3003 50.8 90.2003 50 89.9003 49C89.6003 47.7 89.6003 46.8 90.1003 46Z" fill="white" fill-opacity="0.64"/>
<path d="M89 60.3C89 60.3 89.6 59.3001 89.6 58.4001C89.6 57.5001 89 56.6 88.9 55.6C88.7 54.7 88.7 54.5 88.9 53.8C89.1 53.1 89.7 52.8 89.7 52.8C89.7 52.8 89.2 53.7 89.2 54.3C89.2 54.9 89.1 55.2 89.5 56.3C89.9 57.4 90.2 58.4001 90 59.2001C89.8 60.0001 89.4 60.4001 89.1 60.7001C88.8 61.0001 88.7 61 89 60.3Z" fill="white" fill-opacity="0.64"/>
<path d="M87.3001 67.2C87.2001 67.3 87.0001 67.4 86.8001 67.5C86.6001 67.6 86.4001 67.6 86.4001 67.6C86.4001 67.6 86.6001 67.3 87.2001 66.6C88.1001 65.3 88.0001 63.9 88.3001 62.5C88.5001 61.5 89.4001 60.3 89.7001 59.8C90.0001 59.3 89.8001 57.6 89.8001 57.6C89.7001 60.5 88.2001 60.4 87.8001 62.7C87.7001 64 87.2001 65.3 86.2001 66.6C85.4001 67.7 84.0001 68.8 82.6001 69.4C84.2001 69.7 85.3001 69.3 86.7001 69.2C87.0001 69.2 87.7001 69.2 88.1001 69.3C88.4001 69.4 88.5001 69.1 89.4001 68.6C90.0001 68.3 90.5001 68.1 91.1001 67.9C91.9001 67.7 92.5001 67.6 93.0001 67.6C92.9001 67.5 95.3001 67.5 94.9001 67.3C94.8001 66.8 93.9001 67.2 94.2001 66.9C93.3001 67.3 93.2001 67 92.2001 67.2C92.2001 67.2 91.4001 67.3 90.7001 67.3C90.7001 67.3 90.3001 67.3 90.0001 67.2C89.4001 66.9 89.5001 66.4 89.5001 66.4C89.5001 66.1 89.5001 65.9 89.5001 65.5C89.5001 65.1 89.4001 64.5 89.4001 64.5C89.4001 64.5 88.6001 66.4 87.3001 67.2Z" fill="white" fill-opacity="0.64"/>
<path d="M106.6 61C106.6 61 105.4 59.6 104 59.2C102.7 58.9 100.2 59.3 98.7003 60C97.2003 60.8 96.6003 61.9 95.8003 63.3C95.8003 63.3 95.4003 63.8 95.2003 64.4C94.9003 65.2 94.9003 65.5 95.4003 65.7C95.6003 65.8 96.7003 65.3 96.7003 65.3C96.5003 65 95.6003 65.1 95.6003 65.1C95.6003 65.1 96.0003 64.5 96.5003 64.3C96.9003 64.1 97.5003 64.2 97.5003 64.2L97.0003 63.8C97.0003 63.8 97.0003 63.4 97.5003 62.3C98.0003 61.2 98.5003 60.3 100.4 59.8C102.3 59.3 103.3 59.2 104.5 59.7C105.7 60.4 106.6 61 106.6 61Z" fill="white" fill-opacity="0.64"/>
<path d="M105.3 68.6C105.3 68.6 104.7 68.2001 103.9 67.9001C103.2 67.6001 102.3 67.4001 102.3 67.4001C102.3 67.4001 104.4 67 105.6 66.8C106.3 66.6 106.7 66.5 107.1 66.3C107.6 66.1 107.7 65.8 107.7 65.8C107.7 65.8 108 65.7001 108.3 64.7001C108.6 63.9001 108.2 62.4001 108.4 62.2001C108.8 61.7001 111.1 62.3001 112.1 63.9001C112.8 65.0001 112.2 66.9001 112.2 66.9001C112.2 66.9001 112.9 66.6001 112.9 64.9001C113 62.9001 110.7 61.8 110.7 61.8C110.7 61.8 112.1 62.1 113 63.5C113.9 65 113.3 66.7 112.1 68.3C110.9 69.9 108.2 69.8 107 69.6C107 69.6 107.5 70.2 107.7 70.7C108 71.8 107.6 72.4 107.2 72.6C106.8 72.8 104.9 72.9 104.2 73C103.6 73 103.3 73 102.4 73.1C101.5 73.2 100.5 73 100 73C99.8 73 99.6 73.1 99 73.2C98.1 73.4 98.1 73.2 98.1 73.2C98.1 73.2 98.3 72.7001 97.1 72.9001C96.3 73.0001 95.6 73 95.6 73C95.6 73 95 73.4 93.8 73.2C92.6 73 92.5 72.3001 92.5 72.3001C92.5 72.3001 93.4 72.7 94.3 72.7C95.2 72.7 95.7 72.1 95.7 72.1C95.7 72.1 95.9 72.5 96.9 72.2C97.4 72 97.7 71.8001 97.7 71.8001C97.7 71.8001 99.6 71.9001 99.7 71.9001C100.7 71.9001 102.1 72 102.1 72C102.1 72 102.3 72 103.4 72.1C104.2 72.2 104.8 72.2 104.9 72C104.9 71.8 104.3 71.6 104.3 71.6C104.3 71.6 105.4 71.7001 106 71.8001C106.4 71.8001 106.7 71.7 107 71.6C107.2 71.5 107.3 70.8 107 70.6C106.7 70.3 106.8 70.3 106.4 70.1C105.4 69.6 105.5 69.4001 105.5 69.4001C105.5 69.4001 105.2 69.0001 105.9 69.3001C106.2 69.4001 105.8 68.9001 105.8 68.9001C105.8 68.9001 105.6 68.7 105.3 68.6ZM109.6 63C109.6 63 109.7 65.1 109.1 66.1C108.5 67.1 107 68.3 107 68.3C108.6 68.9 111.5 68.1 112 66.5C112.5 65 111.8 63.6001 111.1 63.2001C110.3 62.7001 109.6 63 109.6 63Z" fill="white" fill-opacity="0.64"/>
<path d="M100.9 66.8C100.9 66.8 101.1 66.9 101.4 67C101.7 67.1 102.8 67.5 102.8 67.5C102.8 67.5 103.3 67.6 103.5 67.3C103.9 66.9 102.5 67.3 102.6 66.9C102.6 66.8 102.4 66.6 102.4 66.6C102.4 66.6 102 66.5 101.7 66.5C101 66.5 100.9 66.8 100.9 66.8Z" fill="white" fill-opacity="0.64"/>
<path d="M90.9003 67.3C90.9003 67.3 92.0003 67.3 93.2003 66.9C94.3003 66.6 94.6003 66.3 95.1003 66.2C95.5003 66.1 96.2003 66.1 96.2003 66.1C96.2003 66.1 96.0003 66.2 95.9003 66.5C95.8003 66.8 96.0003 67.1 96.0003 67.1C96.0003 67.1 96.4003 66.9 96.7003 67C97.0003 67.1 97.1003 67.3 97.1003 67.3C97.1003 67.3 96.8003 67.8 97.2003 67.9C97.6003 68 98.2003 68 99.1003 68.3C100 68.6 100.5 68.7 101.2 68.8C101.9 68.9 102.6 69.2 102.6 69.2C102.6 69.2 102.7 69.3 102.5 69.4C102.2 69.5 103.2 69.8 103.2 69.8C103.2 69.8 103.3 69.9 102.6 69.8C102.1 69.8 102 69.8 101.3 69.6C100.2 69.4 99.9003 69.4 99.9003 69.4C99.9003 69.4 99.5003 69.3 98.9003 69.3C98.6003 69.3 97.6003 69.2 96.6003 69.1C95.6003 69 94.8003 68.8 94.2003 68.6C93.6003 68.4 92.9003 68.6 92.9003 68.6C92.9003 68.6 92.6003 68.3 92.1003 68.5C91.6003 68.7 91.3003 69.3 91.3003 69.3C91.3003 69.3 91.6003 69.2 91.8003 69.2C92.1003 69.2 92.3003 69.3 92.3003 69.3C92.3003 69.3 92.5003 69.6 92.2003 69.8C91.9003 70 91.5003 70.2 91.5003 70.2C91.5003 70.2 91.5003 70.1 90.4003 70.1C89.3003 70.1 89.2003 69.9 88.8003 70.5C88.4003 71 88.6003 69.6 88.6003 69.6C88.6003 69.6 88.9003 69.2 90.3003 68.5C91.8003 67.8 92.9003 67.9 93.5003 67.9C94.1003 67.9 94.8003 67.9 95.5003 68.1C95.9003 68.2 97.1003 68.6 97.1003 68.6C97.1003 68.6 96.6003 68.1 95.6003 67.8C94.7003 67.5 92.4003 67.5 91.3003 67.8C90.2003 68.1 89.7003 67.8 89.8003 67.6C90.0003 67.4 90.9003 67.3 90.9003 67.3Z" fill="white" fill-opacity="0.64"/>
<path d="M91.5 69.4C91.5 69.4 92 69.2 92.4 69.3C92.5 69.4 92.6 69.4 92.7 69.5C92.8 69.6 93 69.8 93 69.8C93 69.8 91.8 69.9 92 70.5C92.3 71.1 92.9 71 92.9 71C92.9 71 92.5 71.2 92.4 71.5C92.3 71.9 92.7 72.1 92.7 72.1L93.7 72.5L93.1 72.7C93.1 72.7 92.7 72.5 92.6 72.8C92.5 73.1 92.5 73.3 92.5 73.3C92.5 73.3 92.1 72.9 92 72.3C91.9 71.7 92.4 71.3 92.4 71.3C92.4 71.3 92.1 71 91.8 71.3C91.5 71.6 91.5 71.9 91.5 71.9C91.5 71.9 91.1 71.5 91 71C90.9 70.4 91.4 70.1 91.4 70.1L91.5 69.4Z" fill="white" fill-opacity="0.64"/>
<path d="M82.5004 56.1C82.2004 58.3 81.4004 59.2 81.2004 60C81.2004 60 81.0004 59.6 80.6004 59.3C80.2004 59 79.5004 59.5 79.5004 59.5C79.5004 59.5 78.9004 58.7 77.4004 58C76.2004 57.5 76.3004 58.5 76.3004 58.5C76.3004 58.5 75.3004 57.4 74.9004 57C74.4004 56.4 73.9004 56.7 73.4004 56.8C72.9004 56.9 71.5004 56.7 71.5004 56.7C71.5004 56.7 70.4004 56.6 70.4004 55.6C70.4004 54.9 71.2004 54.6 71.2004 54.6C71.2004 54.6 70.6004 54.2 70.6004 53.5C70.7004 52.8 71.5004 52.8 71.5004 52.8C71.5004 52.8 70.9004 52.3 70.9004 51.9C70.9004 51.5 71.5004 50.9 72.0004 50.8C72.4004 50.7 74.0004 51.6 74.7004 51.8C75.4004 52 75.1004 52.8 76.2004 53.3C76.7004 53.5 77.6004 53.7 78.7004 53.7C79.8004 53.7 80.2004 54.1 81.4004 54.4C82.6004 54.7 82.8004 54.2 82.8004 54.2C82.8004 54.2 82.6004 55.3 82.5004 56.1ZM72.6004 51.3C72.2004 51.1 71.9004 51.2 71.6004 51.5C71.5004 51.7 71.5004 52.2 71.8004 52.3C72.6004 52.4 72.5004 51.8 73.4004 51.9C73.0004 51.6 72.8004 51.5 72.6004 51.3ZM71.7004 54.8C71.4004 54.9 70.9004 55.3 71.0004 55.8C71.2004 56.2 71.3004 56.3 71.8004 56.4C72.1004 56.3 72.2004 56.3 72.3004 56.1C72.3004 56.1 72.2004 56 72.3004 55.9C72.6004 55.6 72.9004 55.7 73.2004 55.7C72.8004 55.3 72.6004 55.3 72.4004 55.2C71.9004 54.7 72.2004 54.5 72.5004 54.3C72.7004 54.2 73.2004 54.3 73.5004 54.4L72.6004 53.4C72.2004 53.1 71.5004 53.1 71.3004 53.6C71.3004 53.7 71.2004 54.2 71.4004 54.3C71.6004 54.5 71.7004 54.6 71.7004 54.8ZM81.5004 57.7C81.5004 57.7 81.3004 56.9 81.6004 56.2C81.9004 55.5 82.4004 55 82.4004 55C81.8004 55.3 81.5004 55 79.9004 54.6C78.3004 54.1 77.5004 54.3 76.9004 54.2C76.3004 54.2 74.8004 53.3 74.6004 53.1C74.4004 52.9 74.4004 52.7 74.3004 52.3C74.2004 52 73.8004 51.8 73.5004 51.9C73.2004 52 73.1004 52.2 73.1004 52.2C73.1004 52.2 72.9004 52.2 72.6004 52.3C72.3004 52.4 72.1004 52.8 72.1004 52.8C72.1004 52.8 72.4004 52.7 72.6004 52.7C72.9004 52.7 73.0004 52.9 73.0004 52.9C73.0004 53.6 72.9004 53.6 73.2004 54.1C73.6004 54.7 74.3004 55.4 74.3004 55.4C75.1004 55.9 76.1004 56.3 76.3004 56.4C76.4004 56.5 77.0004 56.8 77.6004 57C78.2004 57.2 78.7004 57.9 78.7004 57.9C78.7004 57.9 78.7004 57.2 79.6004 57.5C80.7004 57.7 81.5004 57.7 81.5004 57.7Z" fill="white" fill-opacity="0.64"/>
<path d="M91.3003 50.4C91.3003 50.4 91.5003 51.6 91.3003 52.1C90.9003 53.1 90.3003 53.3 90.2003 54.3C90.0003 55.5 90.4003 56.8 90.6003 57.4C90.8003 58.1 91.0003 58.9 90.8003 59.4C90.6003 60 90.1003 60.5 89.8003 61.2C89.5003 61.9 89.3003 62.7 89.3003 62.7C89.3003 62.7 89.8003 61.6 90.1003 61.2C90.5003 60.6 91.1003 59.9 91.3003 59.3C91.8003 57.8 91.0003 56.9 90.9003 56C90.7003 55 91.0003 54.1 91.5003 53.4C92.1003 52.7 92.2003 52.2 92.3003 51.5C92.4003 50.7 92.4003 50 92.4003 50L91.3003 50.4Z" fill="white" fill-opacity="0.64"/>
<path d="M67.2002 80.7C67.2002 80.7 90.7002 80.1 96.8002 79.6C98.4002 79.5 101.3 79.4 103.1 79.2C104.9 79 107.5 78.9 107.5 78.9C107.5 78.9 106.7 79.3 104.7 79.5C102.4 79.7 98.1002 80.2 96.2002 80.2C93.8002 80.2 85.7002 80.8 83.3002 80.9C73.3002 81.3 67.2002 80.7 67.2002 80.7Z" fill="white" fill-opacity="0.64"/>
<path d="M80.9003 23.1L74.9003 50C74.9003 50 74.9003 50.3 75.0003 50.4C75.2003 50.5 75.3003 50.5 75.5003 50.6C75.7003 50.7 75.9003 50.9 75.9003 50.9C75.9003 50.9 75.4003 50.9 74.9003 50.7C74.4003 50.5 74.3003 50.2 74.3003 50.2L80.4003 23.1C80.6003 21.9 81.0003 19.5 81.1003 18.9C81.2003 18.3 81.0003 18.4 80.8003 18.7C80.6003 19 79.8003 20.9 79.5003 22.5C79.5003 22.5 73.6003 47.2 73.5003 47.9C73.4003 48.6 73.5003 48.9 73.1003 49.5C72.8003 50.1 72.5003 50.2 72.1003 50.1C71.8003 50.1 71.4003 50.1 71.3003 50.3C71.2003 50.5 71.5003 50.6 71.8003 50.6C72.1003 50.6 72.6003 50.6 72.9003 50.5C73.3003 50.4 73.5003 50.3 73.5003 50.3C73.5003 50.3 73.6003 50.5 73.7003 50.6C73.9003 50.8 74.1003 51 74.3003 51.1C74.5003 51.2 75.1003 51.4 75.5003 51.3C75.9003 51.3 76.0003 51.5 76.0003 51.7C76.1003 51.9 76.4003 52 76.7003 51.8C77.0003 51.7 77.0003 51.2 76.7003 51C76.4003 50.7 76.0003 51 75.9003 50.9C75.8003 50.8 76.2003 50.4 76.8003 50.6C77.3003 50.8 77.6003 51.2 77.4003 51.9C77.2003 52.6 76.5003 52.6 76.1003 52.5C75.7003 52.4 75.5003 52.1 75.4003 52.1C75.3003 52.1 75.0003 52 75.0003 52C75.0003 52 72.4003 51 72.2003 50.9C72.0003 50.9 71.4003 51 71.2003 51C71.0003 51 70.9003 51.3 70.4003 51.2C70.1003 51.2 69.2003 50.8 69.5003 50C69.7003 49.4 70.1003 49.2 70.7003 49.3C71.0003 49.4 71.0003 49.7 71.3003 49.7C71.7003 49.8 71.9003 49.7 72.1003 49.3C72.2003 48.9 78.5003 23.7 78.5003 23.7C79.4003 20.7 80.1003 18.9 80.7003 18.1C81.3003 17.3 81.6003 16.7 81.5003 18.4C81.5003 20.2 81.3003 21.4 80.9003 23.1ZM70.5003 50.6C70.7003 50.6 70.8003 50.5 70.8003 50.3C70.8003 50.1 70.6003 50 70.5003 50C70.3003 50 70.2003 50.1 70.2003 50.3C70.2003 50.4 70.4003 50.6 70.5003 50.6Z" fill="white" fill-opacity="0.64"/>
<path d="M84.1001 64.5C84.1001 64.5 84.2001 62.6 85.0001 60.3C85.3001 59.4 86.0001 58.3 86.1001 57.3C86.3001 56.2 86.0001 54.9 86.0001 54.2C86.1001 53.6 86.1001 52.9 86.1001 52.9H86.5001C86.5001 52.9 86.3001 54.4 86.4001 55C86.5001 55.6 86.7001 56.8 86.5001 57.6C86.1001 58.9 85.5001 59.7 85.2001 60.8C84.9001 62.1 84.6001 63.6 84.6001 64.9L84.1001 64.5Z" fill="white" fill-opacity="0.64"/>
<path d="M69.3004 50.4C69.5004 50.4 69.7004 50.2 69.7004 50C69.7004 49.8 69.5004 49.6 69.3004 49.6C69.1004 49.6 68.9004 49.8 68.9004 50C68.9004 50.2 69.1004 50.4 69.3004 50.4Z" fill="white" fill-opacity="0.64"/>
<path d="M72.2002 59.1C72.5002 59.1 72.7002 58.9 72.7002 58.6C72.7002 58.3 72.5002 58.1 72.2002 58.1C71.9002 58.1 71.7002 58.3 71.7002 58.6C71.7002 58.9 71.9002 59.1 72.2002 59.1Z" fill="white" fill-opacity="0.64"/>
<path d="M71.6 56.6C71.4 56.9 71.1 57.2 71.2 57.6C71.3 58 71.6 58.5 72.2 58.5C72.8 58.6 73.4 58.3 73.5 57.7C73.6 57.1 73.4 56.9 73.3 56.7C73.1 56.5 72.5 56.8 72.5 56.8C72.8 57 72.9 57.3 72.9 57.6C72.9 57.9 72.6 58 72.4 58C72.1 58 71.9 57.8 72 57.4C72.1 57 72.5 56.8 72.5 56.8C72.5 56.8 72.5 56.6 72.6 56.5C72.7 56.4 71.6 56.6 71.6 56.6Z" fill="white" fill-opacity="0.64"/>
<path d="M77.9004 52.5C78.2004 52.5 78.4004 52.3 78.4004 52C78.4004 51.7 78.2004 51.5 77.9004 51.5C77.6004 51.5 77.4004 51.7 77.4004 52C77.4004 52.2 77.6004 52.5 77.9004 52.5Z" fill="white" fill-opacity="0.64"/>
<path d="M75.3003 68.6C75.3003 68.6 75.9003 70 76.6003 70.8C77.2003 71.6 77.7003 72.3 78.1003 72.9C78.5003 73.6 79.7003 75.4 80.6003 76.7C81.5003 78 83.2003 79.8 83.2003 79.8C83.2003 79.8 81.0003 76.4 80.3003 75.4C79.6003 74.5 79.0003 73.4 78.4003 72.6C77.7003 71.9 75.7003 69 75.3003 68.6Z" fill="white" fill-opacity="0.64"/>
<path d="M80.8003 68.6C80.8003 68.6 83.4003 71.7 84.7003 73.3C86.0003 74.9 86.7003 76.1 87.3003 76.8C87.9003 77.5 89.8003 79.7 89.8003 79.7C89.8003 79.7 88.9003 77.7 87.8003 76.5C86.8003 75.4 86.0003 74.1 85.1003 73.1C84.3003 72.1 83.0003 70.4 82.5003 70C81.9003 69.4 81.1003 68.5 80.8003 68.6Z" fill="white" fill-opacity="0.64"/>
<path d="M89.1001 71.1C89.1001 71.1 92.3001 75.1 92.9001 75.7C93.5001 76.3 95.2001 78.7 95.2001 78.7C95.2001 78.7 97.1001 80.6 95.8001 78.8C95.5001 78.4 93.9001 76.3 93.2001 75.4C92.5001 74.5 91.7001 73.6 91.0001 72.8C90.3001 71.9 89.2001 71.2 89.1001 71.1Z" fill="white" fill-opacity="0.64"/>
<path d="M97 72.9C97 72.9 97.5 73.9 98.1 74.4C98.7 74.9 99.7 76.1 100.1 76.6C100.5 77 102.5 78.8 102.5 78.8C102.5 78.8 101.7 77.6 101.1 77C100.5 76.4 99.9 75.8 99.4 75.2C98.9 74.7 97.3 73.1 97 72.9Z" fill="white" fill-opacity="0.64"/>
<path d="M102.8 72.7C102.8 72.7 104.4 74.4 105.2 75.3C106 76.2 107.8 77.7 107.8 77.7C107.8 77.7 107.4 76.8 106.8 76.3C106.2 75.8 105.1 74.6 104.7 74C104.2 73.4 103.6 72.7 103.6 72.7H102.8Z" fill="white" fill-opacity="0.64"/>
<path d="M76.7002 76.8C76.7002 76.8 79.2002 76.5 80.4002 76.5C81.5002 76.4 85.5002 76.4 87.0002 76.4C88.5002 76.4 94.4002 75.9 96.4002 75.9C98.4002 75.8 101.8 75.4 102.6 75.4C103.4 75.4 110.3 75.2 110.3 75.2C110.3 75.2 109.2 75.5 107.1 75.7C106.6 75.7 102.2 76.1 101.5 76.1C100.8 76.1 98.8002 76.1 98.8002 76.1C98.8002 76.1 96.8002 76.3 95.9002 76.2C94.9002 76.1 93.0002 76.4 93.0002 76.4C93.0002 76.4 92.1002 76.4 90.9002 76.5C89.7002 76.6 87.5002 76.5 87.3002 76.6C87.1002 76.7 85.4002 76.8 83.9002 76.9C82.4002 76.9 81.1002 76.9 81.0002 76.8C80.8002 76.7 79.7002 76.9 79.0002 76.9C78.3002 76.9 76.7002 76.8 76.7002 76.8Z" fill="white" fill-opacity="0.64"/>
<path d="M91.3 72.3C91.3 72.3 88.1 72.3 87.4 72.3C86.7 72.3 84.4 72.5 84.4 72.5C84.4 72.5 82.3 72.4 81.3 72.4C80.2 72.4 75.5 72.7 75.5 72.7C75.5 72.7 77 72.9 81.3 72.8C82.3 72.8 84.4 72.8 84.9 72.8C85.4 72.8 87.3 72.8 87.9 72.7C91.2 72.5 91.3 72.3 91.3 72.3Z" fill="white" fill-opacity="0.64"/>
<path d="M83.7004 69.4C83.7004 69.4 80.5004 69.4 79.2004 69.5C77.9004 69.6 75.4004 69.6 75.4004 69.6C75.4004 69.6 76.2004 69.4 77.4004 69.3C78.6004 69.2 79.8004 69.3 80.5004 69.2C81.6004 69.1 83.7004 69.4 83.7004 69.4Z" fill="white" fill-opacity="0.64"/>
<path d="M62.9002 58.2C62.8002 58.2 62.8002 58.2 62.7002 58.2H62.6002C62.6002 58.2 62.6002 58.1999 62.5002 58.2999C62.4002 58.4999 62.3002 58.7 62.5002 58.9C62.6002 59.1 62.9002 59 62.9002 59.4V59.2999C62.9002 59.3999 62.8002 59.4 62.8002 59.5V59.5999C62.8002 59.6999 62.8002 59.6999 62.8002 59.7999C62.9002 60.0999 63.2002 60.1999 63.5002 60.2999C63.4002 60.3999 63.3002 60.5999 63.3002 60.7999V60.9C63.3002 61 63.3002 61 63.3002 61C63.4002 61.2 63.6002 61.3 63.8002 61.4C63.8002 61.4 63.8002 61.4999 63.8002 61.5999C63.7002 61.8999 63.8002 62.0999 64.0002 62.2999C64.1002 62.3999 64.3002 62.4999 64.4002 62.5999C64.5002 62.7999 64.3002 63.0999 64.3002 63.2999C64.3002 63.5999 64.6002 63.9 65.0002 63.9C65.0002 63.9 65.1002 63.9 65.1002 64C65.1002 64.2 64.9002 64.2999 64.9002 64.5999C64.9002 64.8999 65.2002 65 65.5002 65.2C65.5002 65.3 65.5002 65.4 65.4002 65.5C65.3002 65.9 65.6002 66.3 66.0002 66.4C66.0002 66.4 66.1002 66.5 66.2002 66.5H66.3002V66.4C66.3002 66.2 66.1002 66 66.1002 65.7C66.3002 65.3 66.2002 64.8 65.7002 64.7V64.5999C65.8002 64.2999 65.9002 64.0999 65.8002 63.7999C65.7002 63.5999 65.5002 63.5 65.2002 63.5V63.4C65.2002 63.2 65.3002 62.9 65.3002 62.7C65.2002 62.4 65.0002 62.2 64.7002 62C64.7002 62 64.7002 62 64.6002 62C64.8002 61.6 64.7002 60.9999 64.2002 60.7999L64.1002 60.7C64.2002 60.4 64.3002 60.1 64.0002 59.9C63.8002 59.8 63.6002 59.7999 63.5002 59.5999L63.4002 59.5L63.5002 59.4V59.2999V59.2C63.5002 58.9 63.2002 58.6999 62.9002 58.5999C62.8002 58.5999 62.8002 58.5 62.8002 58.4V58.2999H62.9002C62.8002 58.2999 62.9002 58.3 62.9002 58.2C63.0002 58.2 63.0002 58.3 62.9002 58.2C63.0002 58.2 63.0002 58.2 62.9002 58.2Z" fill="white" fill-opacity="0.64"/>
<path d="M65.6 57.7C65.5 57.7 65.5 57.7 65.6 57.7L65.4 57.7999C65.4 57.7999 65.4 57.8 65.3 57.9C65.2 58.1 65.1 58.3 65.3 58.5C65.4 58.7 65.7 58.6 65.7 58.9V58.7999C65.7 58.8999 65.6 58.9 65.6 59V59.0999C65.6 59.1999 65.6 59.1999 65.6 59.2999C65.7 59.5999 66 59.6999 66.3 59.7999C66.2 59.8999 66.1 60.0999 66.1 60.2999V60.4C66.1 60.5 66.1 60.5 66.1 60.5C66.2 60.7 66.4 60.8 66.6 60.9C66.6 60.9 66.6 60.9999 66.6 61.0999C66.5 61.3999 66.6 61.5999 66.8 61.7999C66.9 61.8999 67.1 61.9999 67.2 62.0999C67.3 62.2999 67.1 62.5999 67.1 62.7999C67.1 63.0999 67.4 63.4 67.8 63.4C67.8 63.4 67.9 63.4 67.9 63.5C67.9 63.7 67.7 63.7999 67.7 64.0999C67.7 64.3999 68 64.5 68.3 64.7C68.3 64.8 68.3 64.9 68.2 65C68.1 65.4 68.4 65.8 68.8 65.9C68.8 65.9 68.9 66 69 66H69.1V65.9C68.9 65.7 68.7 65.4999 68.7 65.2999C68.9 64.8999 68.8 64.3999 68.3 64.2999V64.2C68.4 63.9 68.5 63.7 68.4 63.4C68.3 63.2 68.1 63.0999 67.8 63.0999V63C67.8 62.8 67.9 62.4999 67.9 62.2999C67.8 61.9999 67.6 61.7999 67.3 61.5999C67.3 61.5999 67.3 61.5999 67.2 61.5999C67.4 61.1999 67.3 60.6 66.8 60.4L66.7 60.2999C66.8 59.9999 66.9 59.7 66.6 59.5C66.4 59.4 66.2 59.4 66.1 59.2L66 59H66.1V58.9V58.7999C66.1 58.4999 65.9 58.2999 65.6 58.2999C65.5 58.2999 65.5 58.1999 65.5 58.0999V58H65.6C65.5 57.9 65.6 57.9 65.7 57.9C65.7 57.8 65.7 57.8 65.6 57.7Z" fill="white" fill-opacity="0.64"/>
<path d="M68.0004 57.4C67.7004 57.7 67.9004 58.3 68.3004 58.5C68.5004 58.7 68.3004 58.7 68.2004 58.9V59C68.3004 59.2 68.4004 59.4 68.6004 59.5H68.7004L68.6004 59.4C68.7004 59.5 68.9004 59.5999 68.8004 59.7999C68.6004 60.1999 68.8004 60.6999 69.2004 60.7999C69.3004 60.7999 69.3004 60.9 69.3004 60.9C69.3004 61 69.3004 61.1 69.2004 61.2C69.0004 61.6 69.4004 61.9 69.7004 62.2C69.8004 62.2 69.8004 62.3 69.8004 62.4C69.7004 62.7 69.6004 63.1 69.9004 63.4C70.1004 63.6 70.3004 63.7 70.4004 64C70.4004 64.1 70.5004 64.0999 70.5004 64.0999C70.6004 64.0999 70.6004 64 70.6004 64C70.7004 63.8 70.7004 63.4999 70.5004 63.2999C70.4004 63.1999 70.3004 63.1 70.1004 63L70.0004 62.7999C70.1004 62.4999 70.1004 62.1 69.9004 61.9C69.8004 61.8 69.6004 61.6999 69.5004 61.5999C69.3004 61.2999 69.6004 61.0999 69.5004 60.7999C69.5004 60.6999 69.5004 60.6999 69.4004 60.5999L69.3004 60.5L69.2004 60.4C69.3004 60.3 69.1004 60.2 69.1004 60C69.0004 59.7 69.3004 59.5 69.1004 59.2V59.0999L69.0004 59H68.9004C68.8004 58.9 68.7004 59 68.7004 58.9L68.6004 58.7999C68.5004 58.7999 68.5004 58.8 68.5004 58.7C68.6004 58.4 68.6004 58.1 68.2004 57.9C68.0004 57.8 68.1004 57.6 68.1004 57.4C68.1004 57.3 68.1004 57.3 68.0004 57.2C68.1004 57.3 68.0004 57.3 68.0004 57.4Z" fill="white" fill-opacity="0.64"/>
<path d="M60.5004 58.7C60.2004 59 60.4004 59.6 60.8004 59.8C61.0004 60 60.8004 60.2 60.7004 60.4V60.5C60.8004 60.7 60.9004 60.9 61.1004 61H61.2004L61.1004 60.9C61.2004 61 61.4004 61.1 61.3004 61.3C61.1004 61.7 61.3004 62.2 61.7004 62.3C61.8004 62.3 61.8004 62.4 61.8004 62.4C61.8004 62.5 61.8004 62.6 61.7004 62.7C61.5004 63.1 61.9004 63.4 62.2004 63.7C62.3004 63.7 62.3004 63.8 62.3004 63.9C62.2004 64.2 62.1004 64.6 62.4004 64.9C62.6004 65.1 62.8004 65.2 62.9004 65.5C62.9004 65.6 63.0004 65.6 63.0004 65.6C63.1004 65.6 63.1004 65.5 63.1004 65.5C63.2004 65.3 63.2004 65 63.0004 64.8C62.9004 64.7 62.8004 64.6 62.6004 64.5L62.5004 64.3C62.6004 64 62.6004 63.6 62.4004 63.4C62.3004 63.3 62.1004 63.2 62.0004 63.1C61.8004 62.8 62.1004 62.6 62.0004 62.3C62.0004 62.2 62.0004 62.2 61.9004 62.1L61.8004 62L61.7004 61.9C61.5004 61.8 61.4004 61.7 61.3004 61.5C61.2004 61.2 61.5004 61 61.3004 60.7V60.6L61.2004 60.5H61.1004C61.0004 60.4 60.9004 60.5 60.9004 60.4L61.1004 60.3C61.0004 60.3 61.0004 60.3 61.0004 60.2C61.1004 59.9 61.0004 59.4 60.7004 59.3C60.5004 59.2 60.6004 59 60.6004 58.8C60.6004 58.7 60.6004 58.7 60.5004 58.6C60.6004 58.6 60.5004 58.6 60.5004 58.7Z" fill="white" fill-opacity="0.64"/>
<path d="M63.0002 65.3C62.9002 65.5 63.0002 65.8001 63.2002 65.9001C63.3002 66.0001 63.3002 66.1001 63.3002 66.2001C63.3002 66.2001 63.3002 66.1 63.2002 66.1V66.2001V66.3V66.4001V66.5C63.3002 66.8 63.6002 66.9 63.8002 67.1C63.9002 67.2 64.0002 67.2 64.1002 67.1C64.2002 67 64.2002 66.9 64.1002 66.8C64.0002 66.7 63.8002 66.6 63.7002 66.5L63.6002 66.4001C63.8002 66.1001 63.6002 65.6 63.2002 65.6C63.2002 65.6 63.1002 65.7 63.0002 65.6C63.1002 65.5 63.1002 65.4 63.0002 65.3C63.1002 65.3 63.1002 65.3 63.0002 65.3Z" fill="white" fill-opacity="0.64"/>
<path d="M64.9004 68.7C64.8004 68.6 64.8004 68.6 64.8004 68.6L64.7004 68.7C64.4004 69 64.7004 69.4 64.8004 69.7C64.8004 69.7 64.7004 69.8 64.7004 69.9C64.5004 70.1 64.4004 70.4 64.7004 70.6C64.8004 70.7 65.1004 70.9 65.0004 71.1C64.9004 71.3 64.6004 71.5 64.6004 71.8C64.6004 72 64.8004 72.2 64.9004 72.3C65.1004 72.6 64.7004 72.8 64.6004 73.1C64.5004 73.3 64.6004 73.6 64.9004 73.7C65.0004 74 64.6004 74.2 64.6004 74.4V74.5V74.6C64.6004 74.7 64.7004 74.8 64.7004 74.8C64.8004 74.9 65.0004 75 64.9004 75.1C64.9004 75.4 64.7004 75.5 64.5004 75.7C64.4004 75.8 64.4004 75.9 64.4004 76C64.5004 76.1 64.6004 76.1 64.7004 76.1C65.1004 75.9 65.3004 75.6 65.4004 75.2C65.4004 75 65.3004 74.7 65.1004 74.6V74.5C65.2004 74.3 65.4004 74 65.4004 73.8C65.4004 73.5 65.2004 73.3 65.1004 73.1C65.3004 72.8 65.4004 72.5 65.4004 72.2C65.4004 71.9 65.1004 71.8 65.1004 71.6C65.1004 71.4 65.3004 71.3 65.3004 71.1C65.4004 70.7 65.2004 70.4 65.1004 70.1C65.2004 69.9 65.3004 69.7 65.2004 69.5C65.1004 69.3 64.8004 69.1 64.9004 68.8V68.7H64.8004C64.9004 68.8 64.9004 68.8 64.9004 68.7C64.9004 68.6 64.8004 68.6 64.8004 68.7H64.9004Z" fill="white" fill-opacity="0.64"/>
<path d="M67.4003 68.5C67.3003 68.5 67.2003 68.5 67.1003 68.6C66.8003 69 66.9003 69.4 67.2003 69.8C67.2003 69.8 67.2003 69.9 67.2003 70C67.0003 70.3 66.8003 70.7 67.0003 71C67.1003 71.2 67.2003 71.3 67.3003 71.5C67.3003 71.6 67.3003 71.6 67.3003 71.7C66.9003 72.1 66.9003 72.7 67.3003 73C67.4003 73.2 67.3003 73.4 67.2003 73.5L67.1003 73.4V73.5V73.6C67.0003 73.9 67.2003 74.2 67.4003 74.5C67.4003 74.5 67.4003 74.6 67.4003 74.7C67.1003 75 66.9003 75.2 67.0003 75.6C67.0003 75.7 67.1003 75.8 67.2003 75.8C67.3003 75.8 67.4003 75.7 67.4003 75.5C67.4003 75.4 67.4003 75.3 67.4003 75.3C67.5003 75.1 67.8003 74.9 67.8003 74.6C67.9003 74.3 67.7003 74.1 67.5003 73.9C67.5003 73.8 67.5003 73.7 67.5003 73.7V73.6C67.8003 73.4 67.8003 73.1 67.7003 72.8C67.6003 72.6 67.5003 72.5 67.4003 72.3C67.3003 72 67.5003 71.7 67.6003 71.5C67.6003 71.4 67.6003 71.4 67.6003 71.3C67.5003 71.1 67.4003 70.8 67.5003 70.6C67.5003 70.4 67.7003 70.2 67.8003 69.9C67.9003 69.5 67.6003 69.3 67.4003 69C67.3003 68.9 67.3003 68.7 67.4003 68.5C67.5003 68.5 67.5003 68.5 67.4003 68.5Z" fill="white" fill-opacity="0.64"/>
<path d="M69.9003 68.2C69.8003 68.2 69.7004 68.2 69.6004 68.3C69.2004 68.8 69.6004 69.3 69.8004 69.8C69.7004 69.9 69.7003 70 69.7003 70C69.3003 70.4 69.5004 71.1 69.8004 71.4C69.8004 71.5 69.9003 71.5 69.9003 71.6C69.8003 71.9 69.6004 72.1 69.6004 72.4C69.6004 72.6 69.7004 72.8 69.8004 73C69.9004 73.1 70.0003 73.3 69.9003 73.4C69.4003 73.8 69.8004 74.4 70.0004 74.8C70.0004 75.1 69.9003 75.3 69.7003 75.5C69.6003 75.5 69.6003 75.6 69.7003 75.7C69.7003 75.8 69.8003 75.8 69.9003 75.7C70.0003 75.7 70.2004 75.6 70.3004 75.5C70.6004 75.1 70.6003 74.6 70.2003 74.2C69.9003 73.9 70.2003 73.6 70.2003 73.3C70.2003 73 70.1003 72.8 69.9003 72.5C69.8003 72.4 69.8003 72.2 69.9003 72.1C70.0003 71.8 70.3003 71.5 70.2003 71.2C70.2003 71.1 70.1004 71.1 70.1004 71.1C70.1004 70.9 69.9004 70.7 70.0004 70.5C70.0004 70.5 70.0003 70.5 69.9003 70.6C70.2003 70.4 70.5004 69.9 70.3004 69.5C70.1004 69.1 69.6003 68.7 69.9003 68.2Z" fill="white" fill-opacity="0.64"/>
<path d="M72.7004 68.9C72.4004 68.9 72.3004 69.2 72.3004 69.4C72.3004 69.6 72.4004 69.8 72.5004 70C72.5004 70 72.6004 70.1 72.5004 70.2C72.4004 70.4 72.2004 70.6 72.2004 70.8C72.2004 71.1 72.4004 71.4 72.6004 71.7H72.7004L72.6004 71.6C72.6004 71.9 72.3004 72.1 72.2004 72.3C72.1004 72.6 72.4004 72.9 72.5004 73.2V73.3C72.3004 73.5 72.1004 73.7 72.2004 74C72.2004 74.3 72.5004 74.5 72.7004 74.8C72.7004 75.2 72.6004 75.5 72.2004 75.7V75.8H72.3004C72.5004 75.7 72.8004 75.6 72.9004 75.4C73.1004 75.1 73.2004 74.8 73.0004 74.5C72.9004 74.3 72.7004 74.2 72.6004 74C72.6004 74 72.6004 73.9 72.6004 73.8C72.7004 73.6 72.8004 73.4 72.9004 73.2C72.9004 72.9 72.7004 72.8 72.6004 72.5C72.6004 72.4 72.5004 72.4 72.6004 72.3C72.8004 72 73.1004 71.7 73.0004 71.3C73.0004 71.2 72.9004 71.2 72.9004 71.2C72.8004 71.1 72.8004 70.9 72.7004 70.9C72.9004 70.6 73.2004 70.4 73.1004 70C73.0004 69.7 72.9004 69.5 72.7004 69.4C72.6004 69.3 72.7004 69.1 72.7004 68.9C72.8004 68.9 72.8004 68.9 72.7004 68.9Z" fill="white" fill-opacity="0.64"/>
<path d="M61.3003 77C61.3003 77 63.3003 76.9 64.4003 76.7C65.6003 76.6 68.0003 76.7 70.0003 76.6C72.3003 76.5 75.2003 76.2 75.2003 76.2C75.2003 76.2 75.5003 74 75.2003 72.6C75.0003 71.2 75.1003 68.1 75.1003 68.1C75.1003 68.1 75.6003 69.9 75.7003 71.1C75.8003 72.2 75.9003 73.7 76.0003 74.4C76.1003 75.1 76.0003 75.1 76.2003 75.8C76.3003 76.5 76.3003 77.5 76.3003 77.5C76.3003 77.5 75.0003 78.1 74.1003 78C73.2003 77.9 70.9003 77.8 69.8003 78C68.7003 78.2 68.0003 78.3 66.5003 78.2C65.0003 78.1 63.6003 78.2 63.4003 78.4C63.2003 78.6 62.6003 77.8 62.6003 77.8C62.6003 77.8 64.7003 77.5 65.9003 77.6C67.1003 77.7 69.8003 77.5 70.6003 77.4C71.4003 77.3 72.8003 77.6 73.4003 77.5C75.0003 77.3 75.2003 76.9 75.2003 76.9C75.2003 76.9 73.9003 76.8 72.2003 76.9C70.5003 77 69.1003 77.1 67.8003 77.1C66.5003 77.1 64.5003 77.1 63.7003 77.2C62.9003 77.3 61.8003 77.4 61.8003 77.4L61.3003 77Z" fill="white" fill-opacity="0.64"/>
<path d="M67.4004 78.2C67.4004 78.2 67.5004 78.8 67.6004 79.3C67.8004 80.5 69.2004 81.5 69.2004 81.5L69.9004 81.7L69.7004 81.2C69.7004 81.2 68.4004 80.1 68.2004 79.3C68.1004 78.9 68.2004 78.1 68.2004 78.1H67.4004V78.2Z" fill="white" fill-opacity="0.64"/>
<path d="M73.9004 77.8C73.9004 77.8 74.0004 78.4 74.2004 79.3C74.4004 80.2 75.9004 81.5 75.8004 81.3C76.0004 81.6 76.5004 81.8 76.5004 81.8H76.9004L76.7004 81.3C76.7004 81.3 75.2004 80.1 75.0004 79.5C74.4004 78.1 74.9004 78.1 74.7004 77.8C74.6004 77.5 73.9004 77.8 73.9004 77.8Z" fill="white" fill-opacity="0.64"/>
<path d="M57.1001 58.1L57.2001 58.4C57.2001 58.4 59.3001 57.9 60.6001 57.7C61.9001 57.5 62.4001 57.5 64.5001 57.1C66.6001 56.7 69.3001 56.4 69.3001 56.4C69.3001 56.4 70.4001 58.5 70.8001 59.5C71.3001 60.5 72.6001 62.9 72.6001 62.9C72.6001 62.9 72.3001 61.1 72.0001 60.6C71.6001 60 70.8001 58.4 70.5001 57.8C70.2001 57.1 69.6001 55.6 69.6001 55.6C69.6001 55.6 68.0001 56 67.9001 56C67.8001 56 67.8001 55.9 67.8001 55.9C67.8001 55.9 67.8001 55.1 67.7001 54.7C67.6001 54.3 66.1001 52 66.1001 52L65.5001 51.6L65.7001 52.4C65.7001 52.4 66.6001 53.7 66.8001 54.3C67.1001 54.9 67.1001 56 67.1001 56L61.3001 57.1C61.3001 57.1 60.9001 55.7 60.3001 54.7C60.1001 54.4 59.0001 53.9 58.9001 53.7C58.8001 53.5 58.6001 53.3 58.6001 53.3L58.3001 53.1C58.3001 53.1 58.1001 53.8 58.3001 54.1C58.7001 54.7 59.3001 54.6 59.7001 55.2C60.4001 56.2 60.5001 57.3 60.5001 57.3L57.6001 57.9L57.1001 58.1Z" fill="white" fill-opacity="0.64"/>
<path d="M69.0001 57L69.2001 56.7C69.2001 56.7 68.0001 56.8 67.5001 56.9C67.0001 56.9 65.1001 57.3 64.1001 57.5C63.1001 57.7 61.3001 57.8 60.2001 58C59.1001 58.2 57.1001 58.7999 57.1001 58.7999C57.1001 58.7999 58.4001 61.2999 58.7001 62.5999C59.1001 63.7999 59.3001 65.8999 59.9001 67.0999C60.6001 68.4999 62.0001 68.7 62.0001 68.7C62.0001 68.7 63.2001 68.2 64.7001 68C66.2001 67.9 67.6001 67.3 69.0001 67.2C70.4001 67.1 71.5001 66.5999 71.5001 66.5999C71.5001 66.5999 70.8001 66.0999 69.9001 66.2999C69.0001 66.4999 66.7001 67.1999 66.2001 67.2999C65.6001 67.3999 64.3001 67.6 63.7001 67.7C63.3001 67.8 62.3001 68 62.3001 68C62.3001 68 61.2001 67.7999 60.6001 66.0999C60.0001 64.5999 60.0001 64 59.3001 62.4C58.7001 61.2 57.9001 59 57.9001 59C57.9001 59 59.1001 58.7 59.8001 58.5C60.6001 58.3 60.7001 58.5 62.8001 58C64.9001 57.6 66.9001 57.1999 67.8001 57.0999C68.1001 57.0999 69.0001 57 69.0001 57Z" fill="white" fill-opacity="0.64"/>
<path d="M62.2 68.5C62.2 68.5 62 69.8 62.1 70.6C62.2 72.4 62.9 73.5 62.7 74.6C62.5 75.8 61.9 77 61.9 77L61.5 76.8C61.5 76.8 62.1 75.2 62 74.3C61.9 73.4 61.5 71.7 61.5 70.7C61.5 69.8 61.8 68.6 61.8 68.6L62.2 68.5Z" fill="white" fill-opacity="0.64"/>
<path d="M90.8003 40.6C91.1003 40.4 91.3003 40.1 91.3003 39.8C91.3003 39.3 90.9003 38.9 90.4003 38.9C89.9003 38.9 89.5003 39.3 89.5003 39.8C89.5003 39.9 89.5003 40 89.5003 40.1C89.3003 40 89.0003 39.9 88.6003 40.1C88.2003 40.2 87.8003 40.5 87.8003 41.1C87.8003 41.7 88.1003 42.1 88.7003 42.1C88.6003 42.1 88.8003 42.1 88.7003 42.1C88.6003 42.3 88.3003 42.7 87.8003 42.5C87.0003 42.3 87.1003 41.6 87.1003 41.6C87.1003 41.6 86.4003 42.1 85.9003 41.8C85.3003 41.4 85.6003 41.2 85.6003 41.2C86.3003 41.3 86.9003 40.4 86.7003 39.8C86.5003 39.2 85.7003 38.9 85.2003 39.2C85.2003 39.2 85.3003 38.5 84.2003 38.4C83.4003 38.3 82.9003 39.3 83.1003 39.8C83.2003 40.1 83.3003 40.1 84.0003 41.3C84.7003 42.5 84.9003 43.2 84.9003 43.2C84.9003 43.2 84.9003 43.3 84.9003 43.4C84.9003 43.6 84.9003 43.7 84.9003 43.7C84.9003 43.7 85.9003 43.8 88.3003 44.6C90.7003 45.4 92.3003 46.3 92.3003 46.3C92.3003 46.3 92.3003 46.2 92.3003 46.1V46C92.3003 45.8 92.8003 45.3 93.3003 45C94.9003 44 95.5003 43.8 96.3003 43.3C96.8003 43 96.6003 42 96.1003 41.8C95.1003 41.3 94.8003 41.9 94.8003 41.9C94.5003 41.4 93.6003 41.4 93.1003 41.8C92.6003 42.2 92.6003 43.1 93.3003 43.4C93.3003 43.4 93.3003 43.6 92.7003 43.8C92.3003 44 92.1003 43.1 92.1003 43.1C92.1003 43.1 91.6003 43.6 90.7003 43.4C90.4003 43.3 90.1003 43 90.2003 42.5C90.4003 42.8 90.6003 42.8 90.9003 42.7C91.4003 42.7 91.8003 42.3 91.8003 41.7C91.8003 41.2 91.5003 40.8 91.0003 40.6M91.2003 40.6C91.1003 40.6 91.0003 40.5 90.9003 40.5ZM84.8003 41.8C84.6003 41.3 83.8003 40 83.6003 39.7C83.5003 39.4 83.9003 38.9 84.3003 39C84.7003 39.1 84.8003 39.9 84.8003 39.9C84.8003 39.9 85.2003 39.3 85.9003 39.7C86.3003 39.9 86.2003 40.3 86.0003 40.6C85.7003 40.9 85.1003 40.7 85.1003 40.7C85.1003 40.7 84.6003 41.5 85.7003 42.2C86.5003 42.8 87.0003 42.2 87.0003 42.2C87.0003 42.2 87.0003 42.8 87.7003 42.9C88.0003 43 88.7003 43.4 89.3003 42.3C89.4003 42 89.5003 41.6 89.4003 41.6C89.3003 41.6 89.2003 41.6 89.1003 41.6C88.8003 41.6 88.6003 41.4 88.6003 41.1C88.6003 40.8 88.8003 40.6 89.1003 40.6C89.2003 40.6 89.4003 40.7 89.5003 40.7C89.5003 40.7 89.8003 41.1 90.2003 40.7C90.3003 40.5 90.2003 40.1 90.2003 40.1C90.2003 40.1 90.2003 40 90.2003 39.9C90.2003 39.7 90.4003 39.5 90.7003 39.5C90.9003 39.5 91.2003 39.7 91.2003 39.9C91.2003 40.1 91.1003 40.2 90.9003 40.3C90.8003 40.4 90.7003 40.5 90.7003 40.7C90.6003 41.1 91.3003 41.2 91.3003 41.2C91.6003 41.2 91.8003 41.4 91.8003 41.7C91.8003 42 91.6003 42.2 91.3003 42.2C90.9003 42.2 90.8003 41.8 90.6003 41.8C90.6003 41.8 89.5003 43.2 90.9003 43.8C91.7003 44.2 92.3003 43.8 92.3003 43.8C92.3003 43.8 92.6003 44.4 93.3003 44.4C94.3003 44.4 94.8003 43.4 94.8003 43.4C94.8003 43.4 94.1003 43.3 94.0003 42.9C93.9003 42.6 94.1003 42.3 94.5003 42.3C95.2003 42.3 95.4003 43 95.4003 43C95.4003 43 95.6003 42.6 96.0003 42.5C96.4003 42.4 96.7003 43 96.4003 43.2C96.1003 43.4 94.8003 44.1 94.1003 44.6C93.3003 45.1 93.2003 45.2 92.9003 45.5C92.7003 45.7 92.6003 45.9 92.5003 45.9L92.1003 45.7C92.1003 45.7 92.1003 45.7 91.4003 45.4C90.2003 45 90.1003 44.9 90.1003 44.9C90.1003 44.9 89.7003 44.7 88.8003 44.4C87.9003 44.1 87.2003 43.9 87.2003 43.9C87.2003 43.9 87.3003 44 86.5003 43.7C85.7003 43.4 85.8003 43.5 85.8003 43.5L85.4003 43.4C85.4003 43.4 85.4003 43.4 85.4003 43.3C85.3003 43.3 85.1003 42.5 84.8003 41.8Z" fill="white" fill-opacity="0.64"/>
<path d="M86.1004 45.2C86.2004 45.2 86.7004 45.6 87.0004 45.9C87.3004 46.2 87.5004 46.6 87.5004 46.6C87.5004 46.6 86.9004 46.4 86.2004 46.6C85.5004 46.8 85.3004 46.6 85.2004 46.4C85.2004 46.1 85.4004 45.9 85.4004 45.9C85.4004 45.9 85.2004 46.2 85.6004 46.3C86.0004 46.4 86.2004 46.3 86.2004 46.3C86.2004 46.3 85.8004 46.2 85.8004 46C85.8004 45.8 85.9004 45.6 86.1004 45.6C86.1004 45.6 85.9004 45.5 85.5004 45.6C85.1004 45.7 85.1004 46 85.1004 46.1C85.0004 46.2 85.0004 46.1 85.0004 45.9C84.9004 45.4 84.7004 44.8 86.1004 45.2Z" fill="white" fill-opacity="0.64"/>
<path d="M89.6003 37.5C89.9003 37.5 90.2003 37.2 90.2003 36.9C90.2003 36.6 89.9003 36.3 89.6003 36.3C89.3003 36.3 89.0003 36.6 89.0003 36.9C88.9003 37.3 89.2003 37.5 89.6003 37.5Z" fill="white" fill-opacity="0.64"/>
<path d="M85.2002 37.9C85.2002 37.4 85.6002 37 86.1002 37C86.6002 37 87.0002 37.4 87.0002 37.9C87.0002 38.4 86.6002 38.8 86.1002 38.8C85.6002 38.8 85.2002 38.4 85.2002 37.9ZM86.2002 38.3C86.4002 38.3 86.6002 38.1 86.6002 37.9C86.6002 37.7 86.4002 37.5 86.2002 37.5C86.0002 37.5 85.8002 37.7 85.8002 37.9C85.7002 38.1 85.9002 38.3 86.2002 38.3Z" fill="white" fill-opacity="0.64"/>
<path d="M87.2002 37.2C87.2002 36.8 87.5002 36.4 88.0002 36.4C88.4002 36.4 88.8002 36.7 88.8002 37.2C88.8002 37.6 88.5002 38 88.0002 38C87.6002 38 87.2002 37.6 87.2002 37.2ZM88.0002 37.5C88.2002 37.5 88.3002 37.4 88.3002 37.2C88.3002 37 88.2002 36.9 88.0002 36.9C87.8002 36.9 87.7002 37 87.7002 37.2C87.7002 37.4 87.8002 37.5 88.0002 37.5Z" fill="white" fill-opacity="0.64"/>
<path d="M90.7003 33.8C90.7003 33.8 90.5003 34 90.4003 34.2C90.3003 34.5 90.3003 34.9 90.3003 34.9C90.3003 34.9 91.4003 34.7 91.5003 35C91.6003 35.3 91.4003 35.4 91.4003 35.4L92.1003 35.6C92.1003 35.6 92.1003 35.1 92.2003 35.1C92.4003 35.1 93.1003 35.8 93.1003 35.8C93.1003 35.8 93.3003 35.8 93.5003 35.3C93.7003 34.9 93.5003 34.6 93.5003 34.6C93.5003 34.6 92.4003 34.8 92.4003 34.5C92.4003 34.2 93.2003 33.5 93.2003 33.5C93.2003 33.5 93.0003 33.2 92.6003 33.1C92.1003 33 92.0003 33.1 92.0003 33.1C92.0003 33.1 92.0003 34.4 91.8003 34.4C91.6003 34.4 90.7003 33.8 90.7003 33.8Z" fill="white" fill-opacity="0.64"/>
<path d="M85.6001 39.1C85.6001 39.1 86.3001 38.4 87.7001 37.9C89.1001 37.4 89.8001 37.4 90.3001 37.3C90.7001 37.2 91.1001 37.1 91.1001 37.1C91.1001 37.1 91.5001 37.8 91.2001 37.9C90.9001 38 90.5001 37.8 89.8001 37.9C89.0001 38 88.4001 38.3 87.5001 38.6C86.7001 39 86.3001 39.6 86.3001 39.6L85.6001 39.1Z" fill="white" fill-opacity="0.64"/>
<path d="M92.4002 38.4C92.1002 38.2 92.0002 37.7999 92.2002 37.5999C92.4002 37.2999 92.8002 37.2 93.0002 37.4C93.3002 37.6 93.4002 38 93.2002 38.2C93.1002 38.4 92.7002 38.5 92.4002 38.4Z" fill="white" fill-opacity="0.64"/>
<path d="M94.8 42.3C94.8 42.3 94.5 40.9 93.6 39.8C92.7 38.6 92.1 38.2001 91.8 37.9001C91.5 37.6001 91.2 37.3 91.2 37.3C91.2 37.3 90.5 37.7001 90.7 37.9001C90.9 38.1001 91.3 38.2001 91.9 38.7001C92.5 39.2001 92.9 39.8 93.4 40.6C93.9 41.4 93.9 42.3 93.9 42.3H94.8Z" fill="white" fill-opacity="0.64"/>
<path d="M94.6002 41.4C94.2002 41.1 94.0002 40.6 94.3002 40.1C94.6002 39.7 95.1002 39.5 95.6002 39.8C96.0002 40.1 96.2002 40.6 95.9002 41.1C95.6002 41.5 95.0002 41.6 94.6002 41.4ZM95.0002 41C95.2002 41 95.4002 40.8 95.4002 40.6C95.4002 40.4 95.2002 40.2 95.0002 40.2C94.8002 40.2 94.6002 40.4 94.6002 40.6C94.6002 40.8 94.8002 41 95.0002 41Z" fill="white" fill-opacity="0.64"/>
<path d="M90.4004 36.4C90.4004 35.8 90.9004 35.4 91.4004 35.4C92.0004 35.4 92.4004 35.9 92.4004 36.4C92.4004 37 91.9004 37.4 91.4004 37.4C90.9004 37.5 90.4004 37 90.4004 36.4ZM91.4004 37C91.7004 37 91.9004 36.8 91.9004 36.5C91.9004 36.2 91.7004 36 91.4004 36C91.1004 36 90.9004 36.2 90.9004 36.5C90.9004 36.7 91.1004 37 91.4004 37Z" fill="white" fill-opacity="0.64"/>
<path d="M93.5001 39.6C93.1001 39.4 93.0001 38.9 93.2001 38.6C93.4001 38.2 93.9001 38.1 94.3001 38.3C94.7001 38.5 94.8001 39 94.6001 39.3C94.4001 39.7 93.9001 39.8 93.5001 39.6ZM93.9001 39.2C94.1001 39.2 94.2001 39.1 94.2001 38.9C94.2001 38.7 94.1001 38.6 93.9001 38.6C93.7001 38.6 93.6001 38.7 93.6001 38.9C93.6001 39.1 93.8001 39.2 93.9001 39.2Z" fill="white" fill-opacity="0.64"/>
<path d="M89 44.1C89.2 44.1 89.3 43.9 89.3 43.7C89.3 43.5 89.1 43.4 88.9 43.4C88.7 43.4 88.5 43.6 88.5 43.7C88.5 43.9 88.8 44.1 89 44.1Z" fill="white" fill-opacity="0.64"/>
<path d="M33 134.9C33.5 134.9 34 135 34.5 135C35 135 35.5 134.9 36 134.9V135.2C35.4 135.3 35.2 135.7 35.2 136.6C35.2 137.9 35.2 139.3 35.2 140.6C35.2 142.5 36.1 143.8 38.2 143.8C39.3 143.8 40.8 143.1 40.8 141.6V139.9C40.8 138.2 40.7 136.6 40.7 135.9C40.7 135.5 40.3 135.2 40 135.2V134.9C40.5 134.9 41 135 41.5 135C42 135 42.5 134.9 43 134.9V135.2C42.5 135.2 42.3 135.8 42.3 136.2C42.3 136.7 42.3 138.2 42.3 140V143C42.3 143.8 42.5 144.2 43.1 144.2V144.5C42.7 144.5 42.3 144.4 41.9 144.4C41.5 144.4 41.1 144.5 40.7 144.5C40.7 144 40.8 143.6 40.8 143.2C39.8 144.2 38.9 144.7 37.5 144.7C35.4 144.7 33.8 143.5 33.8 141.4V139.1C33.8 138 33.7 137 33.7 136.2C33.7 135.7 33.6 135.2 33 135.1V134.9Z" fill="white"/>
<path d="M45.8999 144.4C46.3999 144.3 46.7999 143.8 46.7999 143.1V134.8H47.3999L54.1999 142.3V137.5C54.1999 135.8 53.7999 135.4 53.1999 135.3V135C53.6999 135 54.0999 135.1 54.5999 135.1C55.0999 135.1 55.4999 135 55.9999 135V135.3C55.3999 135.4 55.0999 135.9 55.0999 137V144.9H54.5999L47.5999 137.3L47.6999 142.6C47.6999 143.7 47.9999 144.2 48.6999 144.4V144.7C48.1999 144.7 47.7999 144.6 47.2999 144.6C46.7999 144.6 46.3999 144.7 45.8999 144.7V144.4Z" fill="white"/>
<path d="M62.0002 135.2C61.5002 135.3 61.4002 135.6 61.4002 136.1C61.4002 137.5 61.3002 139.1 61.3002 140.6V143.3C61.3002 143.8 61.5002 144.3 62.0002 144.3V144.6C61.5002 144.6 61.0002 144.5 60.6002 144.5C60.1002 144.5 59.6002 144.6 59.2002 144.6V144.3C59.6002 144.3 59.9002 143.9 59.9002 143.3V141.3C59.9002 139.6 59.8002 137.2 59.8002 136.3C59.8002 135.7 59.7002 135.3 59.2002 135.2V134.9C59.7002 134.9 60.2002 135 60.6002 135C61.1002 135 61.6002 134.9 62.0002 134.9V135.2Z" fill="white"/>
<path d="M68.9 144.9L65 136.4C64.8 136.1 64.5 135.5 64 135.3V135C64.5 135 65.1 135.1 65.6 135.1C66.1 135.1 66.6 135 67.2 135V135.3C66.9 135.4 66.7 135.5 66.7 135.8C66.7 135.9 66.7 136.2 67 136.7L69.6 142.8L71.8 137.1C72 136.7 72 136.4 72 136.2C72 135.7 71.8 135.4 71.3 135.3V135C71.8 135 72.3 135.1 72.7 135.1C73.2 135.1 73.7 135 74.1 135V135.3C73.5 135.4 73.2 135.9 72.9 136.6L69.6 145H68.9V144.9Z" fill="white"/>
<path d="M75.9003 144.3C76.4003 144.2 76.7003 143.9 76.7003 143.4V141C76.7003 139.1 76.6003 137.1 76.6003 135.9C76.6003 135.6 76.3003 135.3 75.9003 135.2V135H81.4003C81.8003 135 82.3003 134.9 82.5003 134.8C82.5003 135.2 82.4003 135.5 82.4003 135.8C82.4003 136.1 82.5003 136.5 82.5003 136.8H82.0003C81.8003 136.1 81.4003 135.6 80.7003 135.6H78.3003V139.3H80.4003C81.2003 139.3 81.5003 139.2 81.8003 138.5H82.2003C82.2003 138.9 82.1003 139.3 82.1003 139.7C82.1003 140.1 82.2003 140.5 82.2003 140.9H81.7003C81.4003 139.9 81.1003 139.9 80.3003 139.9H78.2003V143.8H80.6003C81.6003 143.8 82.0003 143.6 82.6003 142.8L83.0003 143L82.5003 144.7C82.1003 144.5 81.6003 144.5 81.2003 144.5H75.8003V144.3H75.9003Z" fill="white"/>
<path d="M86.0999 144.4C86.5999 144.3 86.7999 144.1 86.7999 143.6V140C86.7999 138.8 86.6999 137.6 86.6999 136.4C86.6999 135.7 86.5999 135.4 85.8999 135.3V135C86.2999 135 86.7999 135.1 87.2999 135.1C87.6999 135.1 88.0999 135 89.1999 135C91.6999 135 92.8999 136.3 92.8999 137.8C92.8999 139.2 91.5999 140.1 90.3999 140.4L93.1999 143.7C93.3999 144 93.8999 144.4 94.2999 144.5V144.8C93.7999 144.8 93.3999 144.7 92.8999 144.7C92.3999 144.7 91.9999 144.8 91.4999 144.8V144.5C91.5999 144.5 91.5999 144.4 91.6999 144.3C91.6999 144.2 91.6999 144 91.4999 143.9L89.1999 141.2C88.9999 141 88.6999 140.6 88.3999 140.6V143.4C88.3999 144 88.4999 144.4 89.1999 144.6V144.9C88.6999 144.9 88.1999 144.8 87.6999 144.8C87.1999 144.8 86.6999 144.9 86.1999 144.9V144.4H86.0999ZM88.2999 140C88.4999 140 88.6999 140 88.7999 140C90.0999 140 91.1999 139.1 91.1999 137.8C91.1999 136.5 90.5999 135.4 89.0999 135.4C88.6999 135.4 88.2999 135.4 88.2999 135.8V140Z" fill="white"/>
<path d="M96.3001 142.8H96.8001C97.2001 143.9 98.0001 144.3 99.1001 144.3C100.1 144.3 100.9 143.5 100.9 142.6C100.9 139.6 96.1001 141.5 96.1001 137.7C96.1001 135.9 97.7001 134.9 99.3001 134.9C100.2 134.9 101.3 135.2 101.8 135.5L101.9 137H101.4C101.2 136.1 100.2 135.4 99.3001 135.4C98.3001 135.4 97.4001 136.1 97.4001 137.2C97.4001 139.7 102.2 138.2 102.2 141.9C102.2 143.8 100.7 144.9 98.9001 144.9C98.0001 144.9 97.0001 144.8 96.2001 144.4V142.8H96.3001Z" fill="white"/>
<path d="M108.5 135.2C108 135.3 107.9 135.6 107.9 136.1C107.9 137.5 107.8 139.1 107.8 140.6V143.3C107.8 143.8 108 144.3 108.5 144.3V144.6C108 144.6 107.5 144.5 107.1 144.5C106.6 144.5 106.1 144.6 105.7 144.6V144.3C106.1 144.3 106.4 143.9 106.4 143.3V141.3C106.4 139.6 106.3 137.2 106.3 136.3C106.3 135.7 106.2 135.3 105.7 135.2V134.9C106.2 134.9 106.7 135 107.1 135C107.6 135 108.1 134.9 108.5 134.9V135.2Z" fill="white"/>
<path d="M119.6 136.7H119.1C119 135.9 118.5 135.6 117.7 135.6H115.9C115.9 136.8 115.8 138.3 115.8 140V143C115.8 143.9 116.1 144.1 116.7 144.3V144.6C116.2 144.6 115.6 144.5 115.1 144.5C114.6 144.5 114 144.6 113.5 144.6V144.3C114.1 144.1 114.3 143.8 114.3 143V140.8C114.3 138.8 114.2 136.8 114.2 135.6H112.3C111.5 135.6 111.1 135.9 110.9 136.7H110.4V134.7C110.9 134.8 111.5 134.9 112 134.9H118.2C118.6 134.9 119.2 134.8 119.5 134.7V136.7H119.6Z" fill="white"/>
<path d="M121.4 144.3C121.9 144.2 122.2 143.9 122.2 143.4V141C122.2 139.1 122.1 137.1 122.1 135.9C122.1 135.6 121.8 135.3 121.4 135.2V135H126.9C127.3 135 127.8 134.9 128 134.8C128 135.2 127.9 135.5 127.9 135.8C127.9 136.1 128 136.5 128 136.8H127.5C127.3 136.1 126.9 135.6 126.2 135.6H123.8V139.3H125.9C126.7 139.3 127 139.2 127.3 138.5H127.7C127.7 138.9 127.6 139.3 127.6 139.7C127.6 140.1 127.7 140.5 127.7 140.9H127.2C126.9 139.9 126.6 139.9 125.8 139.9H123.7V143.8H126.1C127.1 143.8 127.5 143.6 128.1 142.8L128.5 143L128 144.7C127.6 144.5 127.1 144.5 126.7 144.5H121.3V144.3H121.4Z" fill="white"/>
<path d="M139.4 136.7H138.9C138.8 135.9 138.3 135.6 137.5 135.6H135.7C135.7 136.8 135.6 138.3 135.6 140V143C135.6 143.9 135.9 144.1 136.5 144.3V144.6C136 144.6 135.4 144.5 134.9 144.5C134.4 144.5 133.8 144.6 133.3 144.6V144.3C133.9 144.1 134.1 143.8 134.1 143V140.8C134.1 138.8 134 136.8 134 135.6H132.1C131.3 135.6 130.9 135.9 130.7 136.7H130.2V134.7C130.7 134.8 131.3 134.9 131.8 134.9H138C138.4 134.9 139 134.8 139.3 134.7V136.7H139.4Z" fill="white"/>
</svg>
