<svg width="292" height="161" viewBox="0 0 292 161" fill="none" xmlns="http://www.w3.org/2000/svg">
<path fill-rule="evenodd" clip-rule="evenodd" d="M150.074 69V89.9596H152.042V73.2725L161.364 81.5392L170.771 73.2639V89.9596H172.736V69.0087L161.367 78.6851L150.074 69ZM77.9102 69.9515H79.876V88.7037H97.5059V90.7979H77.9102V69.9515ZM130.514 86.418C131.263 85.6371 131.723 84.5949 131.808 83.4827V69.9515H133.786V83.4827C133.712 85.1513 133.047 86.7285 131.926 87.8973C130.134 89.8175 127.304 90.7979 123.516 90.7979C113.273 90.7979 113.156 84.5732 113.156 84.3093V69.9515H115.125V84.3093C115.127 84.4833 115.327 88.7037 123.506 88.7037C126.748 88.7037 129.107 87.9351 130.514 86.418ZM191.075 69.9515H189.107V89.9596H191.075V69.9515ZM207.835 72.0456H215.154V89.9596H217.122V72.0456H224.282V69.9515H207.835V72.0456ZM259.231 78.6852C258.682 73.8139 255.126 69.9423 250.56 69.2451C245.995 68.5477 241.559 71.1987 239.743 75.7087C237.927 80.2187 239.184 85.4637 242.808 88.4979C244.592 90.0041 246.803 90.8223 249.08 90.8183C249.49 90.8181 249.9 90.792 250.307 90.74C252.991 90.4008 255.438 88.9409 257.11 86.6816C258.782 84.4223 259.54 81.5488 259.22 78.6939L259.231 78.6852ZM255.575 85.3768C253.272 88.4883 249.294 89.5672 245.872 88.0072C242.452 86.4472 240.442 82.6375 240.974 78.7184C241.504 74.7995 244.443 71.7485 248.139 71.28C250.306 70.9997 252.488 71.6524 254.2 73.0928C257.764 76.0849 258.375 81.5839 255.564 85.3768H255.575Z" fill="white" fill-opacity="0.96"/>
<path fill-rule="evenodd" clip-rule="evenodd" d="M36.0958 68C35.4283 68 34.8871 68.5683 34.8871 69.2692C34.8871 69.9701 35.4283 70.5384 36.0958 70.5384C36.7633 70.5384 37.3045 69.9701 37.3045 69.2692C37.3029 68.5689 36.7626 68.0016 36.0958 68ZM45.3718 69.8519C45.6783 69.8519 45.9267 69.5911 45.9267 69.2692C45.9267 68.9475 45.6783 68.6865 45.3718 68.6865C45.0654 68.6865 44.817 68.9475 44.817 69.2692C44.817 69.5911 45.0654 69.8519 45.3718 69.8519ZM54.7247 69.8519C55.0311 69.8519 55.2795 69.5911 55.2795 69.2692C55.2795 68.9475 55.0311 68.6865 54.7247 68.6865C54.4183 68.6865 54.1699 68.9475 54.1699 69.2692C54.1699 69.5911 54.4183 69.8519 54.7247 69.8519ZM55.2795 79.0107C55.2795 79.3324 55.0311 79.5933 54.7247 79.5933C54.4183 79.5933 54.1699 79.3324 54.1699 79.0107C54.1699 78.6888 54.4183 78.4279 54.7247 78.4279C55.0311 78.4279 55.2795 78.6888 55.2795 79.0107ZM45.3718 79.5933C45.6783 79.5933 45.9267 79.3324 45.9267 79.0107C45.9267 78.6888 45.6783 78.4279 45.3718 78.4279C45.0654 78.4279 44.817 78.6888 44.817 79.0107C44.817 79.3324 45.0654 79.5933 45.3718 79.5933ZM53.609 88.2643C53.7969 87.7901 54.2385 87.4816 54.7275 87.4828C55.3933 87.4859 55.9319 88.0528 55.9334 88.752C55.9334 89.2656 55.6386 89.7287 55.1866 89.9249C54.7347 90.1212 54.2146 90.012 53.8691 89.6484C53.5238 89.2848 53.421 88.7384 53.609 88.2643ZM45.3635 85.5039C43.6561 85.5069 42.2741 86.9627 42.2762 88.7557C42.2782 90.5488 43.6634 92.0011 45.3709 92C47.0783 91.9989 48.4619 90.5449 48.4619 88.7519C48.4613 87.8897 48.1345 87.0631 47.5534 86.454C46.9723 85.8448 46.1846 85.5031 45.3635 85.5039ZM33.2361 77.7691C33.7155 76.5551 34.8443 75.7641 36.0958 75.7653C37.8018 75.7669 39.1845 77.2188 39.1859 79.0105C39.187 80.3247 38.4339 81.5101 37.2779 82.0136C36.1219 82.5171 34.7909 82.2395 33.9059 81.3101C33.0211 80.3808 32.7566 78.9831 33.2361 77.7691ZM33.7967 88.7517C33.7967 87.4183 34.8261 86.3373 36.0958 86.3373C37.3649 86.3389 38.3934 87.4189 38.3949 88.7517C38.3949 90.0852 37.3655 91.1663 36.0958 91.1663C34.8261 91.1663 33.7967 90.0852 33.7967 88.7517Z" fill="white" fill-opacity="0.64"/>
</svg>
