<svg width="216" height="161" viewBox="0 0 216 161" fill="none" xmlns="http://www.w3.org/2000/svg">
<path d="M57.2438 105.209C57.1053 105.487 56.8282 105.904 56.1356 106.6C55.4429 107.435 55.0272 107.852 54.7501 107.852C54.6116 107.852 54.4732 107.713 54.4732 107.435C54.4732 106.739 54.7503 106.183 55.1659 105.487C55.5815 104.652 56.1356 104.235 56.6897 104.235C56.9668 104.235 57.1054 104.374 57.3825 104.513L57.2438 105.209ZM58.6292 102.843H56.9669C55.8586 102.843 54.8889 103.4 53.7806 104.652C52.8109 105.765 52.2568 106.878 52.1182 107.991C52.1182 108.409 52.1182 108.826 52.3953 109.243C52.6724 109.661 52.9492 109.8 53.3648 109.8C53.9189 109.8 54.6117 109.383 55.3044 108.826C55.8585 108.27 56.2741 107.574 56.6897 106.878H56.8283L55.8585 109.661H58.0751L60.0146 102.843C59.7375 102.843 59.3219 102.983 58.6292 102.843ZM73.0364 105.209C72.8979 105.487 72.6209 105.904 71.9282 106.739C71.2356 107.435 70.82 107.852 70.5429 107.852C70.4044 107.852 70.4045 107.713 70.4045 107.435C70.4045 106.878 70.6814 106.183 71.097 105.487C71.5126 104.652 72.0667 104.374 72.4823 104.374C72.7593 104.374 72.8981 104.374 73.1751 104.513L73.0364 105.209ZM74.2834 102.843H72.7593C71.6511 102.843 70.6815 103.4 69.5733 104.513C68.6036 105.626 68.0493 106.6 67.9108 107.852C67.9108 108.27 67.9109 108.687 68.188 109.104C68.465 109.383 68.7421 109.661 69.2962 109.661C70.4045 109.661 71.3742 108.687 72.3439 106.878H72.621C72.4825 107.435 72.3437 107.852 72.2052 108.409C71.9281 109.104 71.7898 109.661 71.5127 110.078C71.0971 110.635 70.6815 110.774 70.2659 110.774C69.4347 110.774 68.6036 110.496 67.4953 109.939L67.6337 111.887C68.1879 112.026 68.8806 112.026 69.7118 112.026C72.0668 112.026 73.5905 111.052 74.1446 109.104L75.9458 102.843C75.5302 102.843 74.976 102.983 74.2834 102.843ZM78.5779 106.043C78.7164 105.626 78.8549 105.348 79.132 104.93C79.4091 104.513 79.8247 104.374 80.1017 104.374C80.3788 104.374 80.5173 104.513 80.5173 104.93C80.3788 105.626 79.6861 106.043 78.5779 106.043ZM79.2705 108.409C78.5779 108.409 78.1623 108.13 78.1623 107.435C79.132 107.435 79.9632 107.156 80.7944 106.6C81.7641 106.043 82.3182 105.209 82.4568 104.374C82.4568 103.956 82.318 103.539 82.041 103.261C81.7639 102.983 81.3484 102.843 80.9328 102.843C79.686 102.843 78.5779 103.261 77.6081 104.235C76.6384 105.209 76.0843 106.322 75.9458 107.574C75.9458 108.27 76.0842 108.826 76.6383 109.243C77.0539 109.661 77.7467 109.8 78.4393 109.8C79.4091 109.8 80.5173 109.522 81.9026 109.104L82.3181 107.435C81.0713 108.13 80.1017 108.409 79.2705 108.409ZM89.384 103.122L88.968 104.513C88.414 104.374 87.998 104.235 87.5824 104.235C87.0282 104.235 86.6127 104.374 86.6127 104.791C86.6127 104.93 86.7511 105.209 87.0281 105.487C87.5823 105.904 87.8594 106.183 87.8594 106.322C88.1369 106.739 88.275 107.156 88.275 107.574C88.137 108.409 87.8595 108.965 87.1669 109.243C86.6127 109.522 85.9199 109.661 85.0887 109.661C84.396 109.661 83.7036 109.522 82.7338 109.243L83.1493 107.713C83.9805 108.13 84.6731 108.27 85.0887 108.27C85.2272 108.27 85.5043 108.27 85.6428 108.13C85.7813 107.991 85.9199 107.852 85.9199 107.713C85.9199 107.435 85.7815 107.156 85.5045 106.878L84.6733 106.043C84.3962 105.626 84.2575 105.209 84.2575 104.93C84.396 104.235 84.6731 103.678 85.3657 103.261C85.9199 102.983 86.6126 102.843 87.3053 102.843C87.7209 102.843 88.275 102.983 89.384 103.122ZM100.882 100.339L100.466 101.73C99.912 101.452 99.496 101.313 99.081 101.313C98.665 101.313 98.388 101.452 98.111 101.87C97.973 102.009 97.834 102.426 97.696 102.983H99.358L98.942 104.235H97.28L95.3399 111.191H92.985L95.3399 103.122C95.6179 102.287 96.1719 101.452 96.8639 101.035C97.5569 100.478 98.388 100.2 99.219 100.2C99.912 100.061 100.328 100.2 100.882 100.339ZM103.652 107.296C103.237 107.991 102.683 108.409 102.129 108.409C101.851 108.409 101.574 108.27 101.436 107.991C101.297 107.713 101.297 107.435 101.297 107.156C101.297 106.461 101.574 105.904 101.851 105.348C102.267 104.652 102.683 104.235 103.375 104.235C103.652 104.235 103.929 104.374 104.068 104.652C104.207 104.93 104.207 105.209 104.207 105.487C104.068 106.183 103.929 106.739 103.652 107.296ZM105.869 103.4C105.453 102.983 104.761 102.843 104.068 102.843C102.821 102.843 101.713 103.261 100.743 104.235C99.773 105.209 99.219 106.322 99.081 107.574C99.081 108.27 99.219 108.826 99.773 109.243C100.189 109.661 100.882 109.8 101.574 109.8C102.821 109.8 103.929 109.383 104.899 108.409C105.869 107.435 106.423 106.322 106.562 105.07C106.562 104.374 106.284 103.817 105.869 103.4ZM113.765 102.983L113.073 105.07C112.934 104.93 112.518 104.93 112.38 104.93C111.964 104.93 111.41 105.209 110.718 106.043C110.025 106.739 109.609 107.296 109.471 107.713L108.917 109.8H106.7L108.64 103.122H110.856L109.886 106.043H110.025C110.44 105.348 110.856 104.652 111.41 104.096C112.103 103.4 112.795 102.983 113.35 102.983C113.488 102.843 113.627 102.843 113.765 102.983ZM122.631 103.122L122.216 104.374H121.107C120.969 104.93 120.692 105.487 120.553 106.043C120.415 106.739 120.276 107.296 120.138 107.713C120.138 108.13 120.276 108.409 120.553 108.409C120.692 108.409 120.969 108.27 121.246 108.13L120.83 109.522C120.138 109.661 119.584 109.8 119.168 109.8C118.752 109.8 118.337 109.661 118.06 109.522C117.783 109.243 117.644 108.965 117.644 108.409C117.644 107.852 117.921 107.156 118.06 106.322C118.337 105.626 119.445 102.009 119.445 102.009L121.8 101.73L121.384 103.122H122.631ZM133.298 106.043C133.437 105.626 133.575 105.348 133.852 104.93C134.129 104.513 134.545 104.374 134.822 104.374C135.099 104.374 135.238 104.513 135.238 104.93C135.099 105.626 134.545 106.043 133.298 106.043ZM134.129 108.409C133.437 108.409 133.021 108.13 133.021 107.435C133.991 107.435 134.822 107.156 135.653 106.6C136.623 106.043 137.177 105.209 137.316 104.374C137.316 103.956 137.177 103.539 136.9 103.261C136.623 102.983 136.207 102.843 135.792 102.843C134.545 102.843 133.437 103.261 132.467 104.235C131.497 105.209 130.943 106.322 130.805 107.574C130.805 108.27 130.943 108.826 131.497 109.243C131.913 109.661 132.606 109.8 133.298 109.8C134.268 109.8 135.376 109.522 136.762 109.104L137.177 107.435C135.93 108.13 134.961 108.409 134.129 108.409ZM155.325 106.043C155.463 105.626 155.602 105.348 155.879 104.93C156.156 104.513 156.572 104.374 156.849 104.374C157.126 104.374 157.264 104.513 157.264 104.93C157.126 105.626 156.572 106.043 155.325 106.043ZM156.156 108.409C155.463 108.409 155.048 108.13 155.048 107.435C156.018 107.435 156.849 107.156 157.68 106.6C158.65 106.043 159.204 105.209 159.342 104.374C159.342 103.956 159.204 103.539 158.927 103.261C158.65 102.983 158.234 102.843 157.818 102.843C156.572 102.843 155.463 103.261 154.494 104.235C153.524 105.209 152.97 106.322 152.831 107.574C152.831 108.27 152.97 108.826 153.524 109.243C153.94 109.661 154.632 109.8 155.325 109.8C156.295 109.8 157.403 109.522 158.788 109.104L159.065 107.435C157.957 108.13 156.849 108.409 156.156 108.409ZM165.022 102.983L164.607 104.235H163.498C163.36 104.791 163.083 105.487 162.944 106.043C162.806 106.739 162.667 107.296 162.529 107.713C162.529 108.13 162.667 108.409 162.944 108.409C163.083 108.409 163.36 108.27 163.637 108.13L163.221 109.522C162.529 109.661 161.974 109.8 161.559 109.8C161.143 109.8 160.728 109.661 160.451 109.522C160.173 109.243 160.035 108.965 160.035 108.409C160.035 107.852 160.312 107.156 160.451 106.322C160.728 105.626 161.836 102.009 161.836 102.009L164.191 101.73L163.775 102.983H165.022ZM169.871 102.983L169.455 104.235H168.347C168.208 104.791 167.931 105.487 167.793 106.043C167.654 106.739 167.516 107.296 167.377 107.713C167.377 108.13 167.516 108.409 167.793 108.409C167.931 108.409 168.208 108.27 168.485 108.13L168.07 109.522C167.377 109.661 166.823 109.8 166.407 109.8C165.992 109.8 165.576 109.661 165.299 109.522C165.022 109.243 164.884 108.965 164.884 108.409C164.884 107.852 165.022 107.156 165.299 106.322C165.438 105.626 166.684 102.009 166.684 102.009L169.04 101.73L168.762 102.983H169.871ZM172.226 106.043C172.364 105.626 172.503 105.348 172.78 104.93C173.057 104.513 173.473 104.374 173.75 104.374C174.027 104.374 174.165 104.513 174.165 104.93C174.165 105.626 173.473 106.043 172.226 106.043ZM173.057 108.409C172.226 108.409 171.949 108.13 171.949 107.435C172.918 107.435 173.75 107.156 174.581 106.6C175.551 106.043 176.105 105.209 176.243 104.374C176.243 103.956 176.105 103.539 175.828 103.261C175.551 102.983 175.135 102.843 174.719 102.843C173.473 102.843 172.364 103.261 171.395 104.235C170.425 105.209 169.871 106.322 169.732 107.574C169.594 108.27 169.871 108.826 170.425 109.243C170.84 109.661 171.533 109.8 172.226 109.8C173.196 109.8 174.304 109.522 175.689 109.104L176.105 107.435C174.858 108.13 173.888 108.409 173.057 108.409ZM33.1393 106.043C32.8623 108.687 34.5247 110.217 37.5724 110.217C39.2347 110.217 40.8971 109.939 42.421 109.661C42.421 109.522 42.8366 108.409 42.9751 107.991C42.8366 107.991 42.698 108.13 42.698 108.13C41.4513 108.409 40.0659 108.826 38.9577 108.826C37.1568 108.826 36.0485 107.574 36.187 105.765C36.4641 102.983 38.6806 100.061 41.4513 100.061C42.5595 100.061 43.6678 100.339 44.776 100.756C45.0531 100.478 45.3302 99.226 45.4687 98.9477C44.3604 98.6694 43.1136 98.5303 42.0054 98.5303C36.6026 98.5303 33.4164 102.843 33.1393 106.043ZM146.459 104.93C147.706 104.93 149.091 105.209 148.952 106.739C148.814 108.13 147.567 108.548 146.459 108.548C146.043 108.548 145.766 108.548 145.351 108.409L146.459 104.93ZM147.983 100.2C148.26 100.061 148.537 100.061 148.814 100.061C149.507 100.061 150.338 100.2 150.338 101.035C150.199 102.565 148.675 103.261 148.121 103.261H147.29L147.983 100.2ZM142.303 109.8H147.706C148.952 109.8 151.584 108.965 151.723 106.6C151.862 105.209 150.615 104.374 149.368 103.956C150.892 103.539 152.693 102.426 152.831 100.756C152.97 98.5303 150.615 98.6694 148.952 98.6694H145.489L142.303 109.8ZM183.724 103.122L182.893 105.209C182.754 105.07 182.339 105.07 182.2 105.07C181.784 105.07 181.23 105.348 180.538 106.183C179.845 106.878 179.429 107.435 179.291 107.852L178.737 109.939H176.52L178.46 103.261H180.676L179.707 106.183H179.845C180.261 105.487 180.676 104.791 181.23 104.235C181.923 103.539 182.616 103.122 183.17 103.122C183.447 102.843 183.585 102.983 183.724 103.122ZM66.11 109.661H63.8935C63.8935 109.661 65.0016 105.904 65.1402 105.209C65.1402 105.209 65.1403 104.93 65.0017 105.07C64.8632 105.07 64.3089 105.626 63.7547 106.322C63.2006 107.017 62.7852 107.435 62.7852 107.713L62.0924 109.661H59.8759L61.8153 102.843H64.0318L63.0623 105.765H63.2006C63.6162 105.07 64.0318 104.374 64.5859 103.817C65.2786 103.122 65.9713 102.704 66.5255 102.704C66.9411 102.704 67.2181 102.843 67.3567 103.122C67.4952 103.261 67.7724 103.678 67.4953 104.513L66.11 109.661ZM47.9623 109.661C47.9623 109.661 49.0704 105.904 49.209 105.209C49.209 105.209 49.3476 104.93 49.0705 105.07C48.932 105.209 48.3779 105.626 47.8237 106.322C47.2696 107.017 46.854 107.435 46.854 107.713L46.2999 109.8H44.0834L46.854 100.339H49.0705C48.5164 102.148 47.9623 104.096 47.2696 105.904H47.4081C47.8237 105.209 48.2393 104.513 48.7935 103.956C49.4861 103.261 50.1787 102.843 50.7328 102.843C51.1484 102.843 51.4255 102.983 51.564 103.261C51.7025 103.4 51.9796 103.817 51.7025 104.652L50.3172 109.661H47.9623ZM126.51 109.661C126.51 109.661 127.618 105.904 127.757 105.209C127.757 105.209 127.896 104.93 127.618 105.07C127.48 105.209 126.926 105.626 126.372 106.322C125.818 107.017 125.402 107.435 125.402 107.713L124.848 109.8H122.631L125.402 100.339H127.618C127.064 102.148 126.51 104.096 125.818 105.904C126.233 105.209 126.649 104.513 127.203 103.956C127.896 103.261 128.588 102.843 129.142 102.843C129.558 102.843 129.835 102.983 129.973 103.261C130.112 103.4 130.389 103.817 130.112 104.652L128.727 109.661H126.51Z" fill="white" fill-opacity="0.66"/>
<path d="M49.7624 92.8261H33L41.4505 78.2174H58.2128L49.7624 92.8261ZM66.6633 92.8261H83.4257L74.9752 78.2174H58.2128L66.6633 92.8261ZM66.6633 63.6087L58.2128 49L49.7624 63.6087L58.2128 78.2174L66.6633 63.6087Z" fill="white"/>
<path fill-rule="evenodd" clip-rule="evenodd" d="M97.696 86.5651H90.908V90.3216H98.665V92.826H88.137V78.6347H98.527V81.139H90.908V84.1999H97.696V86.5651ZM93.678 76.4086L90.769 65.8347V76.4086H88.137V62.2173H92.154L95.063 72.0955L98.111 62.2173H102.129V76.4086H99.496V65.8347L96.449 76.4086H93.678ZM155.463 62.2173H152.693V76.4086H155.463V62.2173ZM157.818 92.826V78.6347H155.048V92.826H157.818ZM183.447 62.2173H180.676V76.4086H183.447V62.2173ZM106.008 62.2173H103.237V76.4086H106.008V62.2173ZM171.118 67.7825H176.797V62.2173H179.568V76.4086H176.797V70.1477H171.118V76.4086H168.347V62.2173H171.118V67.7825ZM113.211 76.4086H110.302V64.7216H106.839V62.2173H116.536V64.7216H113.211V76.4086ZM138.978 92.826H136.069V81.139H132.744V78.6347H142.441V81.139H138.978V92.826ZM139.809 71.8173C139.809 75.0173 137.731 76.6868 134.13 76.6868C130.805 76.6868 128.588 75.2955 128.727 71.9564V62.2173H131.497V72.0955C131.497 73.0694 132.19 74.3216 134.268 74.3216C136.069 74.3216 137.039 73.3477 137.039 72.0955V62.0781H139.809V71.8173ZM119.445 86.5651H112.796V90.3216H120.553V92.826H109.886V78.6347H120.276V81.139H112.796V84.1999H119.445V86.5651ZM147.706 76.4086H143.688H140.641V62.2173H147.013C149.922 62.2173 151.446 63.6086 151.446 65.6955C151.446 67.3651 150.476 68.6173 149.23 68.8955C150.753 69.3129 152 70.8434 152 72.6521C152 74.8781 150.338 76.4086 147.706 76.4086ZM143.688 74.1825H147.013C148.121 74.1825 149.091 73.3477 149.23 72.2347C149.23 70.8434 148.26 70.1477 147.013 70.1477H143.688V74.1825ZM148.814 66.1129C148.814 65.139 147.983 64.4434 147.152 64.4434H143.688V67.9216H147.013C148.26 67.9216 148.814 66.9477 148.814 66.1129ZM154.078 82.5303C154.078 84.6173 152.831 85.5912 151.585 86.0086C152.693 86.426 153.663 87.1216 153.663 89.0694C153.674 89.1731 153.685 89.2777 153.697 89.383C153.825 90.55 153.963 91.8051 154.217 92.826H151.307C151.168 92.3352 151.134 91.6677 151.099 90.9837C151.065 90.3106 151.029 89.6216 150.892 89.0694C150.615 87.9564 149.922 87.2608 148.398 87.2608H146.043V92.826H143.134V78.6347H149.507C152.416 78.6347 154.078 80.026 154.078 82.5303ZM146.043 81.139V85.0347H149.507C150.615 85.0347 151.307 83.9216 151.307 83.0868C151.307 81.9738 150.476 81.139 149.368 81.139H146.043ZM99.635 78.6347H102.406V90.3216H109.055V92.826H99.635V78.6347ZM124.986 72.6521C124.986 71.2607 123.74 70.8434 121.385 70.426C118.475 69.8694 116.813 68.4781 116.813 66.2521C116.813 63.4694 119.445 61.939 122.077 61.939C125.818 61.939 127.48 64.3042 127.48 66.5303H124.709C124.709 65.139 123.878 64.3042 122.216 64.3042C120.692 64.3042 119.722 64.8607 119.722 65.9738C119.722 67.3692 120.883 67.5983 122.721 67.9609C123.082 68.0321 123.469 68.1085 123.878 68.1999C126.51 68.7564 127.896 70.1477 127.896 72.3738C127.896 74.739 126.095 76.826 122.216 76.826C118.06 76.826 116.536 74.5999 116.536 72.0955H119.307C119.307 73.3477 120.415 74.4607 122.216 74.4607C124.017 74.4607 124.986 73.626 124.986 72.6521ZM164.607 72.6521C164.607 71.2607 163.221 70.8434 161.005 70.426C158.234 69.8694 156.433 68.4781 156.433 66.2521C156.433 63.4694 159.065 61.939 161.697 61.939C165.438 61.939 167.1 64.3042 167.1 66.5303H164.33C164.33 65.139 163.498 64.3042 161.836 64.3042C160.312 64.3042 159.342 64.8607 159.342 65.9738C159.342 67.3692 160.504 67.5983 162.341 67.9609C162.702 68.0321 163.089 68.1085 163.498 68.1999C166.13 68.7564 167.516 70.1477 167.516 72.3738C167.516 74.739 165.715 76.826 161.836 76.826C157.68 76.826 156.156 74.5999 156.156 72.0955H158.927C158.927 73.3477 159.896 74.4607 161.836 74.4607C163.637 74.4607 164.607 73.626 164.607 72.6521ZM123.324 85.5912C123.324 88.3738 124.571 90.5999 126.926 90.5999C128.727 90.5999 129.558 89.626 129.974 87.8173H132.883C132.467 90.8781 130.112 92.826 126.787 92.826C122.493 92.826 120.276 89.4868 120.276 85.4521C120.276 81.4173 122.493 78.0781 126.787 78.0781C130.251 78.0781 132.467 80.1651 132.883 82.9477H129.974C129.558 81.6955 128.727 80.5825 126.926 80.5825C124.571 80.5825 123.324 82.9477 123.324 85.5912ZM161.42 85.5912C161.42 88.3738 162.667 90.5999 165.022 90.5999C166.823 90.5999 167.654 89.626 168.07 87.8173H170.979C170.563 90.8781 168.208 92.826 164.884 92.826C160.589 92.826 158.373 89.4868 158.373 85.4521C158.373 81.4173 160.589 78.0781 164.884 78.0781C168.347 78.0781 170.563 80.1651 170.979 82.9477H168.07C167.654 81.6955 166.823 80.5825 165.022 80.5825C162.667 80.5825 161.42 82.9477 161.42 85.5912Z" fill="white"/>
</svg>
