<svg width="273" height="161" viewBox="0 0 273 161" fill="none" xmlns="http://www.w3.org/2000/svg">
<path d="M55.1688 78.63H43.782C42.2346 78.6307 40.7022 78.3336 39.2725 77.7554C37.8426 77.1774 36.5434 76.3297 35.4492 75.261C34.355 74.1922 33.4871 72.9232 32.8952 71.5266C32.3034 70.1301 31.9993 68.6333 32 67.1218V56H43.3867C46.5088 55.9984 49.5039 57.208 51.7133 59.3628C53.9226 61.5175 55.1656 64.441 55.1688 67.4906V78.63ZM36.1949 60.0975V67.1218C36.1934 69.0846 36.9898 70.9679 38.4092 72.3573C39.8284 73.747 41.7546 74.5293 43.7642 74.5324H50.9557V67.5081C50.9573 65.5452 50.1609 63.6621 48.7415 62.2725C47.3222 60.8829 45.3962 60.1006 43.3867 60.0975H36.1949Z" fill="white"/>
<path d="M69.3783 78.6299H57.9917V67.5081C57.99 64.4585 59.2284 61.5331 61.4345 59.3751C63.6405 57.2171 66.6337 56.003 69.7558 56H81.1424V67.1218C81.144 70.1714 79.9057 73.0967 77.6996 75.2547C75.4935 77.4128 72.5004 78.6268 69.3783 78.6299ZM62.1868 74.5324H69.3783C71.3879 74.5293 73.3139 73.747 74.7333 72.3573C76.1526 70.9679 76.9489 69.0846 76.9473 67.1218V60.0975H69.7558C67.7462 60.0959 65.8182 60.8738 64.3955 62.26C62.9729 63.6464 62.1719 65.5277 62.1687 67.4906L62.1868 74.5324Z" fill="white"/>
<path d="M43.3867 104H32V92.8783C32 89.8292 33.2389 86.9047 35.4446 84.747C37.6503 82.5893 40.6424 81.3748 43.7642 81.3701H55.1507V92.4919C55.1507 95.541 53.9118 98.4655 51.7061 100.623C49.5004 102.781 46.5083 103.995 43.3867 104ZM36.1949 99.9026H43.3867C45.3962 99.9041 47.3242 99.1262 48.7469 97.7399C50.1696 96.3537 50.9705 94.4724 50.9737 92.5095V85.4852H43.782C41.7724 85.4836 39.8444 86.2615 38.4217 87.6478C36.9991 89.034 36.1981 90.9154 36.1949 92.8783V99.9026Z" fill="white"/>
<path d="M81.1428 103.999H69.7563C66.6346 103.999 63.6404 102.789 61.4314 100.635C59.2223 98.4803 57.9789 95.5576 57.9741 92.5085V81.3867H69.3607C72.4825 81.3867 75.4766 82.5967 77.6856 84.7511C79.8947 86.9055 81.1381 89.8282 81.1428 92.8773V103.999ZM62.1692 85.4667V92.491C62.1685 93.4644 62.3641 94.4283 62.7452 95.3278C63.1261 96.2273 63.6849 97.0444 64.3896 97.7327C65.0943 98.421 65.931 98.9669 66.8519 99.339C67.7728 99.7111 68.7597 99.9023 69.7563 99.9016H76.9478V92.8773C76.9494 90.9144 76.153 89.0313 74.7338 87.6416C73.3144 86.252 71.3883 85.4697 69.3787 85.4667H62.1692Z" fill="white"/>
<path fill-rule="evenodd" clip-rule="evenodd" d="M173.967 88.1247C173.201 89.0361 172.235 89.7683 171.141 90.2677C170.046 90.7671 168.852 91.0209 167.645 91.0105C164.448 91.0105 162.095 90.1169 160.585 88.3296C159.074 86.5423 158.322 84.0057 158.325 80.7199C158.314 79.208 158.452 77.6986 158.739 76.2127C158.989 74.9045 159.464 73.6474 160.147 72.4956C160.806 71.3995 161.753 70.496 162.892 69.8791C164.228 69.193 165.723 68.8581 167.23 68.9074C168.453 68.9137 169.668 69.1114 170.826 69.4928C171.925 69.8219 172.893 70.4765 173.595 71.3659H173.685V61.4909C173.685 61.3091 173.703 61.1598 173.717 61.0431C173.725 60.9683 173.732 60.9068 173.732 60.8587C173.774 60.5409 173.742 60.218 173.638 59.914C173.535 59.6101 173.362 59.3328 173.134 59.1026C172.734 58.7865 171.828 58.6285 170.413 58.6285V56.9836H179.876V85.1511C179.876 86.7433 180.059 87.7657 180.427 88.2184C180.794 88.671 181.718 88.8974 183.196 88.8974V90.6534C182.52 90.6222 181.752 90.6066 180.888 90.6066C180.025 90.6066 179.257 90.5832 178.581 90.5364C177.906 90.5676 177.137 90.5832 176.274 90.5832C175.41 90.5832 174.642 90.5988 173.967 90.63V88.1247ZM173.643 76.5873C173.64 75.9362 173.57 75.2871 173.434 74.6498C173.302 74.009 173.067 73.3927 172.739 72.8234C172.431 72.2861 171.996 71.8299 171.468 71.4947C170.899 71.1513 170.241 70.9783 169.574 70.9971C168.719 70.9528 167.874 71.1922 167.176 71.6761C166.574 72.1298 166.112 72.7376 165.84 73.4322C165.548 74.1703 165.362 74.9446 165.289 75.7327C165.213 76.5131 165.175 77.4224 165.175 78.4604V80.8955C165.175 81.9492 165.204 82.8662 165.265 83.6467C165.33 84.4434 165.493 85.2296 165.751 85.9881C165.989 86.7336 166.428 87.4028 167.02 87.9257C167.663 88.4573 168.487 88.7313 169.328 88.6925C169.96 88.7315 170.593 88.6064 171.16 88.3298C171.728 88.0534 172.21 87.6352 172.558 87.1179C173.288 85.9862 173.658 84.6679 173.619 83.3306L173.643 76.5873ZM105.533 69.6443C104.265 70.2107 103.109 70.9893 102.117 71.9448V69.2873C101.446 69.3107 100.678 69.3243 99.8154 69.3282C98.9524 69.3321 98.1834 69.3477 97.5081 69.3751C96.8329 69.3438 96.0639 69.3282 95.2008 69.3282C94.3378 69.3282 93.5688 69.3126 92.8936 69.2814V71.0375C94.3359 71.0375 95.2347 71.2638 95.5904 71.7165C95.946 72.1692 96.1238 73.1916 96.1238 74.7838V85.1505C96.1397 86.7387 95.9719 87.7592 95.6203 88.2119C95.2688 88.6646 94.3699 88.8909 92.9236 88.8909V90.647L96.1058 90.6002C97.2445 90.6002 98.2912 90.5845 99.246 90.5533C99.8614 90.5845 100.8 90.6002 102.063 90.6002C103.385 90.6002 104.308 90.6158 104.832 90.647V88.8909C103.753 88.8909 103.068 88.6431 102.776 88.1475C102.484 87.6519 102.338 86.6529 102.338 85.1505V75.8199C102.311 75.323 102.394 74.8262 102.581 74.3635C102.768 73.9009 103.055 73.4831 103.423 73.1389C104.238 72.462 105.286 72.1144 106.354 72.1672C107.584 72.1672 108.415 72.536 108.847 73.2735C109.331 74.247 109.553 75.3246 109.494 76.4052V85.1563C109.494 86.6587 109.348 87.6578 109.057 88.1534C108.765 88.649 108.05 88.8968 106.911 88.8968V90.6528C107.754 90.6177 108.699 90.6002 109.746 90.6002C110.792 90.6002 111.732 90.5845 112.562 90.5533C113.394 90.5845 114.333 90.6002 115.379 90.6002L118.149 90.647V88.8909C117.07 88.8909 116.384 88.6431 116.093 88.1475C115.801 87.6519 115.655 86.6529 115.655 85.1505V75.8199C115.628 75.323 115.71 74.8262 115.898 74.3635C116.084 73.9009 116.372 73.4831 116.74 73.1389C117.555 72.462 118.603 72.1144 119.671 72.1672C120.901 72.1672 121.732 72.536 122.164 73.2735C122.648 74.247 122.871 75.3246 122.811 76.4052V85.1329C122.811 86.6353 122.665 87.6343 122.373 88.1299C122.082 88.6255 121.367 88.8733 120.228 88.8733V90.6294C120.815 90.5982 121.754 90.5826 123.045 90.5826C124.335 90.5826 125.288 90.567 125.904 90.5358C126.85 90.5826 127.907 90.606 129.073 90.606C130.24 90.606 131.301 90.6216 132.256 90.6528V88.8968C130.81 88.8968 129.902 88.6704 129.535 88.2177C129.167 87.7651 128.984 86.7426 128.984 85.1505V75.6911C128.984 73.3145 128.499 71.5936 127.527 70.5282C126.556 69.4629 124.856 68.9302 122.427 68.9302C121.168 68.9353 119.923 69.1799 118.76 69.6502C117.615 70.0923 116.59 70.7852 115.764 71.6755L115.301 72.1263C114.84 71.0771 114.021 70.2166 112.982 69.6912C111.884 69.1656 110.674 68.9026 109.452 68.9243C108.109 68.8993 106.775 69.1445 105.533 69.6443ZM155.22 80.4624C155.22 76.4078 154.397 73.4712 152.752 71.6527C151.106 69.8342 148.299 68.925 144.332 68.925C140.365 68.925 137.55 69.8342 135.888 71.6527C134.226 73.4712 133.394 76.4078 133.394 80.4624C133.399 84.2165 134.283 86.913 136.05 88.552C137.816 90.191 140.576 91.0105 144.332 91.0105C148.083 91.0066 150.836 90.1871 152.59 88.552C154.344 86.9169 155.22 84.2204 155.22 80.4624ZM140.819 73.1864C141.056 72.4781 141.497 71.8517 142.09 71.3835C142.755 70.9568 143.533 70.7293 144.329 70.7293C145.124 70.7293 145.902 70.9568 146.567 71.3835C147.164 71.8581 147.606 72.493 147.838 73.2098C148.13 74.0707 148.316 74.963 148.389 75.8673C148.48 76.8585 148.527 78.076 148.527 79.5199C148.527 81.0536 148.48 82.3765 148.389 83.4887C148.317 84.4966 148.131 85.4938 147.838 86.4623C147.614 87.2462 147.175 87.9549 146.567 88.511C145.925 88.9938 145.139 89.2555 144.329 89.2555C143.519 89.2555 142.732 88.9938 142.09 88.511C141.482 87.9552 141.043 87.2463 140.819 86.4623C140.526 85.4938 140.34 84.4966 140.268 83.4887C140.177 82.3765 140.13 81.0536 140.13 79.5199C140.13 78.076 140.177 76.8507 140.268 75.8439C140.339 74.9391 140.524 74.0465 140.819 73.1864ZM195.158 86.6844V85.1975L195.164 69.3812H185.701V71.1372C187.147 71.1372 188.054 71.3324 188.421 71.7226C188.789 72.1128 188.974 72.9538 188.974 74.2455V86.0112C189.021 86.3156 189.021 86.5263 189.021 86.6434C189.063 86.9613 189.03 87.2842 188.926 87.5881C188.822 87.8921 188.65 88.1695 188.421 88.3995C188.022 88.7155 187.115 88.8736 185.701 88.8736V90.6297C186.655 90.5984 187.716 90.5828 188.883 90.5828C190.049 90.5828 191.11 90.5672 192.065 90.536C193.036 90.5945 194.105 90.6238 195.271 90.6238C196.438 90.6238 197.499 90.6394 198.454 90.6706V88.9146C197.055 88.9146 196.156 88.7565 195.758 88.4404C195.532 88.2085 195.361 87.931 195.258 87.6275C195.154 87.3241 195.12 87.0022 195.158 86.6844ZM189.015 61.713C188.971 62.6092 189.261 63.4906 189.83 64.1949C190.472 64.7882 191.322 65.1187 192.207 65.1187C193.091 65.1187 193.941 64.7882 194.582 64.1949C195.147 63.4887 195.432 62.6077 195.386 61.713C195.432 60.8048 195.146 59.9101 194.576 59.1901C193.942 58.5834 193.088 58.2436 192.2 58.2436C191.311 58.2436 190.459 58.5834 189.824 59.1901C189.255 59.9101 188.969 60.8048 189.015 61.713ZM203.602 71.4478H200.558V69.3757H203.602V63.3816L209.787 61.3972V69.3757H214.311V71.4478H209.787V82.675C209.717 84.2122 209.904 85.7501 210.338 87.2291C210.705 88.2203 211.521 88.7159 212.783 88.7159C213.444 88.7453 214.104 88.6376 214.718 88.3998V90.1149C212.993 90.6497 211.2 90.951 209.392 91.0105C207.33 91.0105 205.845 90.5832 204.938 89.7286C204.032 88.874 203.578 87.4398 203.578 85.4262L203.602 71.4478ZM219.615 73.2499C219.643 73.3396 219.735 73.5504 219.89 73.8821L226.261 90.5355H228.521L227.184 93.954C226.794 95.0173 226.274 96.0312 225.638 96.9745C225.407 97.3573 225.09 97.6836 224.711 97.9291C224.333 98.1746 223.901 98.3325 223.45 98.391C223.11 98.4007 222.773 98.3154 222.479 98.1452C222.138 97.931 221.828 97.6731 221.556 97.3784C221.279 97.0964 220.97 96.8469 220.634 96.635C220.34 96.4647 220.004 96.3795 219.663 96.3891H219.339C218.767 96.4365 218.234 96.6887 217.842 97.0974C217.432 97.5497 217.217 98.139 217.242 98.7422C217.235 99.1566 217.322 99.5675 217.498 99.9449C217.672 100.322 217.931 100.657 218.255 100.926C218.898 101.499 219.739 101.813 220.61 101.804C221.674 101.814 222.727 101.575 223.678 101.107C224.578 100.666 225.39 100.071 226.076 99.351C226.723 98.6682 227.296 97.9207 227.783 97.1208C228.224 96.397 228.595 95.6347 228.893 94.8438L236.767 74.7426C237.35 73.1036 237.873 72.0889 238.338 71.6987C238.808 71.2883 239.414 71.0559 240.045 71.0431C240.327 71.0235 240.605 70.9785 240.878 70.9085V69.287C240.202 69.3143 239.45 69.3299 238.618 69.3338C237.788 69.3377 237.034 69.3534 236.36 69.3807C235.716 69.3495 234.963 69.3338 234.1 69.3338C233.236 69.3338 232.468 69.3182 231.793 69.287V70.9026L232.255 70.9494C232.834 70.958 233.41 71.0487 233.962 71.2187C234.161 71.2826 234.333 71.4106 234.447 71.5817C234.563 71.7528 234.616 71.9571 234.597 72.1611C234.496 72.7298 234.341 73.2882 234.136 73.8294L230.719 85.2322L226.524 73.8762L226.435 73.6538C226.307 73.2128 226.232 72.7593 226.207 72.3016V72.0323C226.255 71.8688 226.343 71.7194 226.465 71.5977C226.585 71.4761 226.737 71.386 226.902 71.3358C227.306 71.193 227.723 71.0948 228.149 71.0431L228.982 70.9085V69.287C228.06 69.3143 227.012 69.3299 225.841 69.3338C224.671 69.3377 223.61 69.3534 222.66 69.3807C221.705 69.3495 220.644 69.3338 219.477 69.3338C218.311 69.3338 217.25 69.3182 216.295 69.287V70.8851C216.97 70.9748 217.47 71.0568 217.793 71.1309C218.072 71.1882 218.339 71.2953 218.578 71.447C218.79 71.5972 218.957 71.7991 219.064 72.0323C219.183 72.2743 219.367 72.6801 219.615 73.2499Z" fill="white"/>
</svg>
