<svg width="240" height="160" viewBox="0 0 240 160" fill="none" xmlns="http://www.w3.org/2000/svg">
<path d="M39.1687 78.6299H27.7821C26.2347 78.6307 24.7022 78.3336 23.2724 77.7555C21.8425 77.1774 20.5434 76.3298 19.4492 75.261C18.3549 74.1922 17.4871 72.9233 16.8953 71.5267C16.3034 70.1301 15.9992 68.6333 16 67.1218V56H27.3866C30.5088 55.9984 33.5038 57.208 35.7132 59.3627C37.9227 61.5175 39.1656 64.441 39.1687 67.4906V78.6299ZM20.1951 60.0975V67.1218C20.1935 69.0847 20.9898 70.9678 22.4092 72.3574C23.8285 73.747 25.7546 74.5293 27.7642 74.5324H34.9557V67.5081C34.9573 65.5453 34.1609 63.6621 32.7416 62.2725C31.3223 60.8829 29.3962 60.1006 27.3866 60.0975H20.1951Z" fill="#FFC20E"/>
<path d="M53.3778 78.6299H41.9912V67.5081C41.9896 64.4586 43.228 61.5332 45.434 59.3751C47.64 57.2171 50.6332 56.0031 53.7554 56H65.142V67.1218C65.1436 70.1714 63.9052 73.0968 61.6992 75.2548C59.4931 77.4128 56.5 78.6268 53.3778 78.6299ZM46.1863 74.5324H53.3778C55.3874 74.5293 57.3135 73.747 58.7328 72.3574C60.1521 70.9678 60.9485 69.0847 60.9469 67.1218V60.0975H53.7554C51.7458 60.096 49.8178 60.8738 48.3951 62.2601C46.9724 63.6464 46.1715 65.5277 46.1683 67.4906L46.1863 74.5324Z" fill="#00C0F3"/>
<path d="M27.3866 104H16V92.8781C16 89.829 17.2389 86.9045 19.4446 84.7469C21.6502 82.5892 24.6425 81.3746 27.7642 81.37H39.1508V92.4918C39.1508 95.5409 37.9119 98.4654 35.7062 100.623C33.5005 102.781 30.5083 103.995 27.3866 104V104ZM20.1951 99.9024H27.3866C29.3962 99.904 31.3242 99.1261 32.7469 97.7398C34.1696 96.3535 34.9705 94.4722 34.9737 92.5094V85.4851H27.7821C25.7725 85.4835 23.8445 86.2614 22.4219 87.6477C20.9992 89.034 20.1982 90.9153 20.1951 92.8781V99.9024Z" fill="#0089CF"/>
<path d="M65.1424 103.999H53.7558C50.6341 103.999 47.64 102.789 45.4309 100.635C43.2218 98.4803 41.9784 95.5576 41.9736 92.5085V81.3867H53.3602C56.4819 81.3867 59.4761 82.5968 61.6851 84.7512C63.8942 86.9056 65.1376 89.8282 65.1424 92.8773V103.999ZM46.1687 85.4667V92.491C46.1679 93.4644 46.3636 94.4283 46.7446 95.3278C47.1256 96.2272 47.6845 97.0445 48.3891 97.7328C49.0938 98.4211 49.9305 98.9669 50.8514 99.3391C51.7723 99.7112 52.7592 99.9024 53.7558 99.9016H60.9473V92.8773C60.9489 90.9144 60.1525 89.0313 58.7332 87.6417C57.3139 86.2521 55.3878 85.4698 53.3782 85.4667H46.1687Z" fill="#8DC63F"/>
<path fill-rule="evenodd" clip-rule="evenodd" d="M157.967 88.1247C157.2 89.0361 156.234 89.7683 155.14 90.2677C154.046 90.7671 152.852 91.0209 151.644 91.0105C148.448 91.0105 146.095 90.1169 144.584 88.3296C143.074 86.5423 142.321 84.0057 142.325 80.7199C142.314 79.208 142.453 77.6986 142.739 76.2126C142.988 74.9045 143.465 73.6474 144.147 72.4956C144.806 71.3995 145.754 70.496 146.892 69.8791C148.227 69.193 149.722 68.8581 151.231 68.9074C152.453 68.9137 153.667 69.1114 154.826 69.4927C155.926 69.8219 156.893 70.4764 157.595 71.3659H157.685V61.4909C157.685 61.3091 157.703 61.1598 157.717 61.0431L157.717 61.043C157.726 60.9682 157.733 60.9067 157.733 60.8587C157.774 60.5408 157.742 60.218 157.638 59.914C157.534 59.61 157.362 59.3327 157.134 59.1026C156.734 58.7865 155.827 58.6285 154.413 58.6285V56.9836H163.876V85.1511C163.876 86.7432 164.06 87.7657 164.427 88.2183C164.795 88.671 165.718 88.8974 167.196 88.8974V90.6534C166.521 90.6222 165.752 90.6066 164.889 90.6066C164.026 90.6066 163.256 90.5832 162.581 90.5364C161.906 90.5676 161.137 90.5832 160.274 90.5832C159.411 90.5832 158.642 90.5988 157.967 90.63V88.1247ZM157.643 76.5873C157.64 75.9362 157.57 75.2871 157.433 74.6497C157.302 74.009 157.067 73.3926 156.738 72.8234C156.432 72.286 155.996 71.8299 155.468 71.4947C154.9 71.1513 154.241 70.9783 153.574 70.9971C152.719 70.9529 151.874 71.1922 151.177 71.6761C150.574 72.1298 150.111 72.7376 149.84 73.4322C149.548 74.1703 149.362 74.9445 149.289 75.7327C149.213 76.5131 149.175 77.4224 149.175 78.4604V80.8955C149.175 81.9492 149.205 82.8662 149.265 83.6467C149.33 84.4434 149.493 85.2295 149.75 85.9881C149.988 86.7335 150.427 87.4027 151.021 87.9257C151.663 88.4572 152.487 88.7312 153.328 88.6925C153.961 88.7315 154.593 88.6064 155.16 88.3298C155.727 88.0533 156.21 87.6352 156.558 87.1179C157.289 85.9862 157.658 84.6678 157.619 83.3306L157.643 76.5873ZM89.5337 69.6444C88.2664 70.2108 87.1103 70.9894 86.1177 71.9449V69.2874C85.4465 69.3108 84.6794 69.3244 83.8164 69.3283C82.9534 69.3322 82.1843 69.3478 81.5091 69.3752C80.8339 69.3439 80.0648 69.3283 79.2018 69.3283C78.3388 69.3283 77.5697 69.3127 76.8945 69.2815V71.0376C78.3368 71.0376 79.2358 71.2639 79.5914 71.7166C79.9469 72.1693 80.1247 73.1917 80.1247 74.7839V85.1506C80.1407 86.7388 79.9729 87.7593 79.6213 88.212C79.2697 88.6647 78.3708 88.891 76.9245 88.891V90.6471L80.1068 90.6002C81.2454 90.6002 82.2922 90.5846 83.2471 90.5534C83.8623 90.5846 84.8012 90.6002 86.0637 90.6002C87.3862 90.6002 88.3091 90.6159 88.8325 90.6471V88.891C87.7538 88.891 87.0686 88.6432 86.7769 88.1476C86.4852 87.652 86.3394 86.653 86.3394 85.1506V75.82C86.3118 75.3231 86.3945 74.8264 86.5817 74.3637C86.7689 73.9009 87.0563 73.4832 87.4241 73.139C88.2385 72.4621 89.2868 72.1146 90.3547 72.1673C91.5852 72.1673 92.4163 72.5361 92.8478 73.2736C93.3317 74.2471 93.5544 75.3247 93.495 76.4053V85.1564C93.495 86.6588 93.3492 87.6578 93.0575 88.1534C92.7659 88.649 92.0507 88.8968 90.912 88.8968V90.6529C91.755 90.6178 92.6999 90.6002 93.7467 90.6002C94.7935 90.6002 95.7324 90.5846 96.5634 90.5534C97.3944 90.5846 98.3333 90.6002 99.3801 90.6002L102.149 90.6471V88.891C101.07 88.891 100.385 88.6432 100.093 88.1476C99.8016 87.652 99.6558 86.653 99.6558 85.1506V75.82C99.6282 75.3231 99.7108 74.8264 99.898 74.3637C100.085 73.9009 100.373 73.4832 100.74 73.139C101.555 72.4621 102.603 72.1146 103.671 72.1673C104.902 72.1673 105.733 72.5361 106.164 73.2736C106.648 74.2471 106.871 75.3247 106.811 76.4053V85.133C106.811 86.6354 106.666 87.6344 106.374 88.13C106.082 88.6256 105.367 88.8734 104.228 88.8734V90.6295C104.816 90.5983 105.755 90.5827 107.045 90.5827C108.336 90.5827 109.288 90.5671 109.904 90.5359C110.851 90.5827 111.907 90.6061 113.074 90.6061C114.241 90.6061 115.301 90.6217 116.256 90.6529V88.8968C114.81 88.8968 113.903 88.6705 113.535 88.2178C113.168 87.7652 112.984 86.7427 112.984 85.1506V75.6912C112.984 73.3146 112.499 71.5937 111.528 70.5283C110.557 69.463 108.857 68.9303 106.428 68.9303C105.169 68.9355 103.923 69.18 102.76 69.6503C101.616 70.0924 100.591 70.7853 99.7636 71.6756L99.3022 72.1263C98.8404 71.0772 98.0209 70.2168 96.9829 69.6913C95.8853 69.1656 94.6753 68.9028 93.4531 68.9244C92.1099 68.8995 90.7758 69.1445 89.5337 69.6444ZM139.221 80.4624C139.221 76.4078 138.398 73.4712 136.752 71.6527C135.106 69.8342 132.3 68.925 128.332 68.925C124.365 68.925 121.55 69.8342 119.888 71.6527C118.226 73.4712 117.395 76.4078 117.395 80.4624C117.399 84.2165 118.284 86.913 120.05 88.552C121.816 90.191 124.577 91.0105 128.332 91.0105C132.084 91.0066 134.837 90.1871 136.591 88.552C138.345 86.9169 139.221 84.2204 139.221 80.4624ZM124.82 73.1864C125.057 72.478 125.498 71.8518 126.091 71.3835C126.756 70.9567 127.534 70.7293 128.329 70.7293C129.125 70.7293 129.903 70.9567 130.568 71.3835C131.165 71.8581 131.606 72.493 131.838 73.2098C132.131 74.0707 132.316 74.963 132.39 75.8673C132.481 76.8585 132.527 78.0761 132.527 79.5199C132.527 81.0536 132.481 82.3765 132.39 83.4887C132.317 84.4966 132.132 85.4937 131.838 86.4623C131.615 87.2462 131.176 87.955 130.568 88.511C129.926 88.9938 129.139 89.2555 128.329 89.2555C127.519 89.2555 126.732 88.9938 126.091 88.511C125.483 87.9552 125.043 87.2463 124.82 86.4623C124.526 85.4937 124.341 84.4966 124.269 83.4887C124.177 82.3765 124.131 81.0536 124.131 79.5199C124.131 78.0761 124.177 76.8507 124.269 75.8439C124.339 74.9392 124.525 74.0465 124.82 73.1864ZM179.158 86.6844V85.1976L179.164 69.3812H169.701V71.1373C171.147 71.1373 172.054 71.3324 172.422 71.7227C172.789 72.1129 172.973 72.9539 172.973 74.2456V86.0113C173.021 86.3156 173.021 86.5264 173.021 86.6434C173.063 86.9613 173.03 87.2842 172.926 87.5882C172.823 87.8921 172.65 88.1694 172.422 88.3995C172.022 88.7156 171.115 88.8737 169.701 88.8737V90.6297C170.656 90.5985 171.717 90.5829 172.883 90.5829C174.05 90.5829 175.111 90.5673 176.066 90.5361C177.036 90.5946 178.105 90.6239 179.272 90.6239C180.438 90.6239 181.499 90.6395 182.454 90.6707V88.9146C181.056 88.9146 180.157 88.7566 179.757 88.4405C179.532 88.2085 179.361 87.931 179.258 87.6276C179.154 87.3241 179.12 87.0021 179.158 86.6844ZM173.015 61.713C172.972 62.6092 173.261 63.4906 173.83 64.195C174.472 64.7882 175.323 65.1187 176.206 65.1187C177.09 65.1187 177.941 64.7882 178.583 64.195C179.147 63.4887 179.432 62.6077 179.386 61.713C179.432 60.8048 179.145 59.9101 178.577 59.1901C177.942 58.5834 177.089 58.2437 176.2 58.2437C175.312 58.2437 174.459 58.5834 173.824 59.1901C173.255 59.9101 172.969 60.8048 173.015 61.713ZM187.603 71.4478H184.558V69.3756H187.603V63.3815L193.787 61.3972V69.3756H198.312V71.4478H193.787V82.6749C193.718 84.2121 193.904 85.7501 194.339 87.229C194.706 88.2202 195.521 88.7158 196.784 88.7158C197.445 88.7453 198.104 88.6375 198.72 88.3997V90.1148C196.994 90.6497 195.201 90.951 193.392 91.0104C191.33 91.0104 189.846 90.5831 188.939 89.7285C188.032 88.8739 187.579 87.4398 187.579 85.4261L187.603 71.4478ZM203.615 73.2498C203.643 73.3396 203.735 73.5503 203.891 73.882L210.261 90.5354H212.521L211.184 93.9539C210.794 95.0172 210.275 96.0311 209.638 96.9744C209.407 97.3571 209.091 97.6836 208.712 97.929C208.333 98.1744 207.901 98.3324 207.451 98.3909C207.11 98.4006 206.773 98.3153 206.48 98.1451C206.138 97.9309 205.828 97.673 205.557 97.3783C205.28 97.0964 204.97 96.8469 204.634 96.6349C204.341 96.4646 204.004 96.3793 203.663 96.389H203.34C202.768 96.4364 202.234 96.6887 201.841 97.0973C201.432 97.5496 201.217 98.1389 201.242 98.7421C201.235 99.1566 201.322 99.5673 201.497 99.9449C201.673 100.322 201.931 100.657 202.255 100.926C202.898 101.499 203.739 101.813 204.61 101.804C205.675 101.814 206.727 101.575 207.678 101.107C208.578 100.666 209.39 100.071 210.076 99.3509C210.723 98.6681 211.296 97.9206 211.784 97.1207C212.225 96.3969 212.596 95.6346 212.892 94.8437L220.767 74.7425C221.35 73.1035 221.874 72.0889 222.337 71.6986C222.808 71.2883 223.414 71.0558 224.045 71.043C224.327 71.0234 224.605 70.9784 224.878 70.9084V69.2869C224.203 69.3143 223.45 69.3299 222.619 69.3338C221.788 69.3377 221.035 69.3533 220.36 69.3806C219.716 69.3494 218.963 69.3338 218.1 69.3338C217.237 69.3338 216.468 69.3182 215.793 69.2869V70.9025L216.254 70.9494C216.834 70.9579 217.409 71.0486 217.962 71.2186C218.162 71.2826 218.333 71.4105 218.448 71.5816C218.564 71.7528 218.616 71.957 218.598 72.161C218.496 72.7297 218.342 73.2881 218.136 73.8293L214.72 85.2321L210.525 73.8761L210.435 73.6537C210.308 73.2127 210.231 72.7592 210.207 72.3015V72.0323C210.255 71.8687 210.343 71.7193 210.464 71.5977C210.586 71.476 210.736 71.386 210.903 71.3357C211.306 71.1929 211.724 71.0947 212.149 71.043L212.982 70.9084V69.2869C212.059 69.3143 211.012 69.3299 209.842 69.3338C208.671 69.3377 207.611 69.3533 206.66 69.3806C205.705 69.3494 204.644 69.3338 203.477 69.3338C202.311 69.3338 201.25 69.3182 200.295 69.2869V70.885C200.97 70.9747 201.47 71.0567 201.793 71.1308C202.073 71.1881 202.339 71.2953 202.578 71.4469C202.79 71.5971 202.957 71.799 203.064 72.0323C203.184 72.2742 203.367 72.6801 203.615 73.2498Z" fill="#0C141E"/>
</svg>
