<svg width="241" height="161" viewBox="0 0 241 161" fill="none" xmlns="http://www.w3.org/2000/svg">
<rect width="241" height="161" fill="white" fill-opacity="0.01"/>
<path d="M162.832 90.2227C156.917 90.2227 153.242 86.7967 153.242 81.2746C153.242 75.5434 156.634 71.9778 162.094 71.9778H162.552C163.237 71.9778 164.181 72.0001 165.469 72.161V65.2432H169.326V89.5992C169.326 89.5992 165.661 90.2227 162.832 90.2227ZM162.797 75.0149C159.061 75.0149 157.244 77.0318 157.244 81.1785C157.244 84.9016 159.436 87.2158 162.958 87.2158C163.635 87.2158 164.411 87.1711 165.468 87.0806V75.2629C164.412 75.0931 163.56 75.0149 162.797 75.0149ZM109.996 89.664L99.5763 71.4805L99.573 89.664H95.9414V66.6444H101.025L111.445 84.6659L111.44 66.6444H115.12V89.664H109.996ZM143.186 90.0182C141.431 90.0182 139.602 89.8215 137.424 89.4025L137.189 89.3578V86.1419L137.533 86.2157C139.454 86.6258 141.112 86.9755 142.771 86.9755C144.111 86.9755 147.232 86.7655 147.232 84.7932C147.232 83.1395 145.075 82.7238 143.343 82.392L143.234 82.3696C142.91 82.3093 142.605 82.2478 142.348 82.183C139.807 81.5237 137.096 80.5326 137.096 77.1279C137.096 73.807 139.724 71.904 144.308 71.904C146.508 71.904 148.104 72.1387 149.388 72.3309L150.012 72.4225V75.5434L149.68 75.4831C148.227 75.216 146.524 74.9411 144.888 74.9411C143.067 74.9411 140.907 75.2819 140.907 76.901C140.907 78.2453 142.675 78.6297 144.722 79.0755C147.585 79.6945 151.134 80.4723 151.134 84.3787C151.134 87.9622 148.24 90.0182 143.186 90.0182ZM180.155 90.0182C176.162 90.0182 172.465 89.3142 172.465 84.2167C172.465 78.6688 178.183 78.6688 181.601 78.6688C181.94 78.6688 183.547 78.7436 184.04 78.7649C184.036 75.6529 183.997 74.911 179.483 74.911C177.694 74.911 175.708 75.2641 173.953 75.5792L173.618 75.6395V72.5667L173.844 72.5186C175.877 72.1052 177.839 71.904 179.838 71.904C184.211 71.904 187.916 72.3443 187.916 77.7704V89.6037L187.65 89.6338C184.621 89.9735 182.216 90.0182 180.156 90.0182H180.155ZM181.505 81.4142C178.208 81.4142 176.166 81.8992 176.166 84.3128C176.166 87.1063 178.772 87.3376 181.216 87.3376C182.128 87.3376 183.77 87.2202 184.271 87.1845V81.5103C183.565 81.4802 181.727 81.4142 181.505 81.4142ZM126.031 90.0182C122.033 90.0182 118.337 89.3142 118.337 84.2167C118.337 78.6688 124.055 78.6688 127.472 78.6688C127.813 78.6688 129.423 78.7436 129.917 78.7649C129.912 75.6529 129.869 74.911 125.355 74.911C123.565 74.911 121.579 75.2641 119.824 75.5792L119.489 75.6395V72.5667L119.72 72.5186C121.691 72.1112 123.697 71.9053 125.71 71.904C130.082 71.904 133.788 72.3443 133.788 77.7704V89.6037L133.521 89.6338C130.493 89.9735 128.087 90.0182 126.031 90.0182ZM127.376 81.4142C124.08 81.4142 122.042 81.8992 122.042 84.3128C122.042 87.1063 124.644 87.3376 127.088 87.3376C128.005 87.3376 129.646 87.2202 130.148 87.1845V81.5103C129.436 81.4802 127.598 81.4142 127.376 81.4142Z" fill="white" fill-opacity="0.92"/>
<mask id="mask0_129_86889" style="mask-type:alpha" maskUnits="userSpaceOnUse" x="190" y="70" width="18" height="28">
<path d="M190.435 70.8608H207.226V97.6784H190.435V70.8608Z" fill="white"/>
</mask>
<g mask="url(#mask0_129_86889)">
<path d="M203.278 97.4867V89.9353C201.773 90.1453 200.974 90.1453 200.328 90.1453C198.799 90.1453 197.102 89.8135 195.788 89.2592C192.846 88.0357 191.092 84.9293 191.092 80.9435C191.092 78.9546 191.577 75.3174 194.819 73.3575C196.447 72.3854 198.368 71.9697 201.258 71.9697C202.291 71.9697 203.688 72.0479 205.037 72.1261L207.228 72.2401V95.7368L203.278 97.4867ZM200.969 75.0079C197.05 75.0068 195.063 77.0069 195.063 80.9435C195.063 86.0121 198.026 87.077 200.518 87.077C201.125 87.077 201.806 87.077 203.316 86.8848V75.1174C202.134 75.0392 201.587 75.0079 200.968 75.0079H200.969Z" fill="white" fill-opacity="0.92"/>
</g>
<mask id="mask1_129_86889" style="mask-type:alpha" maskUnits="userSpaceOnUse" x="63" y="53" width="31" height="37">
<path d="M63.0527 53H93.2225V89.8563H63.0527V53Z" fill="white"/>
</mask>
<g mask="url(#mask1_129_86889)">
<path d="M78.7104 53.0005L65.952 88.0533C65.7942 88.4849 65.5181 88.8634 65.1553 89.1454C64.7925 89.4274 64.3576 89.6015 63.9004 89.6478V89.6646H77.3874C78.4434 89.6646 79.3474 88.993 79.6837 88.0544L92.4466 53.0005H78.7104Z" fill="white" fill-opacity="0.8"/>
<path d="M62.7985 89.1324C63.5807 89.1324 64.2656 88.7436 64.6846 88.1547C64.7282 88.0932 64.8813 87.8787 64.9897 87.5871L69.6694 74.7236L66.9317 67.2113C66.7723 66.8309 66.514 66.5 66.1836 66.253C65.8533 66.006 65.4629 65.8518 65.0529 65.8065C64.6429 65.7611 64.2283 65.8262 63.8519 65.995C63.4756 66.1638 63.1512 66.4302 62.9124 66.7665C62.8678 66.828 62.6856 67.1018 62.6074 67.3342L57.9277 80.1932L60.6776 87.7357C60.856 88.1502 61.152 88.5035 61.5289 88.7517C61.9058 88.9999 62.3472 89.1323 62.7985 89.1324Z" fill="white" fill-opacity="0.8"/>
</g>
<mask id="mask2_129_86889" style="mask-type:alpha" maskUnits="userSpaceOnUse" x="34" y="64" width="31" height="38">
<path d="M34 64.1567H64.1698V101.922H34V64.1567Z" fill="white"/>
</mask>
<g mask="url(#mask2_129_86889)">
<path d="M63.7983 65.256H50.1627C49.1068 65.256 48.2028 65.9242 47.862 66.8673L35.1035 101.921H48.8397L61.5993 66.8684C61.7648 66.4124 62.0623 66.016 62.454 65.7296C62.8456 65.4432 63.3136 65.2799 63.7983 65.2605V65.256Z" fill="white" fill-opacity="0.8"/>
</g>
</svg>
