<svg width="240" height="160" viewBox="0 0 240 160" fill="none" xmlns="http://www.w3.org/2000/svg">
<path d="M161.973 93.1284C156.059 93.1284 152.383 89.7025 152.383 84.1803C152.383 78.4491 155.775 74.8835 161.236 74.8835H161.694C162.379 74.8835 163.322 74.9058 164.61 75.0668V68.1489H168.467V92.5049C168.467 92.5049 164.802 93.1284 161.973 93.1284ZM161.938 77.9206C158.202 77.9206 156.385 79.9375 156.385 84.0842C156.385 87.8073 158.577 90.1215 162.099 90.1215C162.776 90.1215 163.552 90.0768 164.609 89.9863V78.1687C163.553 77.9988 162.702 77.9206 161.938 77.9206ZM109.137 92.5697L98.717 74.3863L98.7136 92.5697H95.0821V69.5501H100.166L110.586 87.5716L110.582 69.5501H114.261V92.5697H109.137ZM142.327 92.9239C140.573 92.9239 138.743 92.7273 136.566 92.3082L136.33 92.2635V89.0477L136.674 89.1214C138.595 89.5315 140.253 89.8812 141.912 89.8812C143.252 89.8812 146.373 89.6712 146.373 87.699C146.373 86.0452 144.216 85.6295 142.484 85.2977L142.375 85.2753C142.051 85.215 141.746 85.1535 141.489 85.0887C138.948 84.4294 136.237 83.4383 136.237 80.0336C136.237 76.7127 138.865 74.8097 143.449 74.8097C145.649 74.8097 147.246 75.0444 148.53 75.2366L149.153 75.3282V78.4491L148.821 78.3888C147.369 78.1217 145.666 77.8468 144.029 77.8468C142.208 77.8468 140.049 78.1876 140.049 79.8068C140.049 81.151 141.816 81.5354 143.863 81.9812C146.726 82.6003 150.275 83.378 150.275 87.2844C150.275 90.8679 147.381 92.9239 142.327 92.9239ZM179.296 92.9239C175.304 92.9239 171.606 92.22 171.606 87.1224C171.606 81.5745 177.324 81.5745 180.742 81.5745C181.082 81.5745 182.688 81.6494 183.181 81.6706C183.177 78.5586 183.138 77.8167 178.625 77.8167C176.836 77.8167 174.849 78.1698 173.095 78.4849L172.759 78.5452V75.4724L172.985 75.4243C175.019 75.0109 176.98 74.8097 178.979 74.8097C183.352 74.8097 187.058 75.25 187.058 80.6761V92.5094L186.792 92.5395C183.762 92.8792 181.358 92.9239 179.297 92.9239H179.296ZM180.646 84.3199C177.35 84.3199 175.307 84.8049 175.307 87.2185C175.307 90.012 177.913 90.2433 180.358 90.2433C181.269 90.2433 182.911 90.126 183.413 90.0902V84.416C182.706 84.3859 180.868 84.3199 180.646 84.3199ZM125.173 92.9239C121.175 92.9239 117.478 92.22 117.478 87.1224C117.478 81.5745 123.196 81.5745 126.613 81.5745C126.954 81.5745 128.564 81.6494 129.058 81.6706C129.053 78.5586 129.01 77.8167 124.497 77.8167C122.706 77.8167 120.72 78.1698 118.965 78.4849L118.63 78.5452V75.4724L118.861 75.4243C120.832 75.0169 122.839 74.811 124.851 74.8097C129.223 74.8097 132.93 75.25 132.93 80.6761V92.5094L132.662 92.5395C129.634 92.8792 127.229 92.9239 125.173 92.9239ZM126.517 84.3199C123.222 84.3199 121.183 84.8049 121.183 87.2185C121.183 90.012 123.785 90.2433 126.23 90.2433C127.146 90.2433 128.787 90.126 129.289 90.0902V84.416C128.577 84.3859 126.74 84.3199 126.518 84.3199" fill="#231F20"/>
<mask id="mask0_72_1102" style="mask-type:alpha" maskUnits="userSpaceOnUse" x="189" y="73" width="18" height="28">
<path d="M189.576 73.7665H206.367V100.584H189.576V73.7665Z" fill="white"/>
</mask>
<g mask="url(#mask0_72_1102)">
<path d="M202.417 100.392V92.8407C200.912 93.0508 200.113 93.0508 199.467 93.0508C197.939 93.0508 196.241 92.7189 194.927 92.1647C191.985 90.9411 190.231 87.8347 190.231 83.849C190.231 81.86 190.716 78.2229 193.958 76.2629C195.586 75.2908 197.507 74.8751 200.397 74.8751C201.43 74.8751 202.827 74.9533 204.176 75.0316L206.367 75.1455V98.6422L202.417 100.392ZM200.109 77.9133C196.189 77.9122 194.202 79.9124 194.202 83.849C194.202 88.9175 197.165 89.9824 199.657 89.9824C200.264 89.9824 200.946 89.9824 202.455 89.7902V78.0228C201.273 77.9446 200.727 77.9133 200.107 77.9133H200.109Z" fill="#231F20"/>
</g>
<mask id="mask1_72_1102" style="mask-type:alpha" maskUnits="userSpaceOnUse" x="62" y="55" width="31" height="38">
<path d="M62.1924 55.9055H92.3622V92.7618H62.1924V55.9055Z" fill="white"/>
</mask>
<g mask="url(#mask1_72_1102)">
<path d="M77.8494 55.9059L65.091 90.9587C64.9332 91.3903 64.6571 91.7688 64.2943 92.0508C63.9315 92.3328 63.4966 92.5069 63.0394 92.5533V92.57H76.5264C77.5824 92.57 78.4864 91.8985 78.8227 90.9598L91.5856 55.9059H77.8494Z" fill="#0996C7"/>
</g>
<path d="M61.9389 92.0377C62.721 92.0377 63.406 91.6489 63.825 91.06C63.8686 90.9986 64.0217 90.784 64.1301 90.4924L68.8098 77.6289L66.0721 70.1166C65.9127 69.7362 65.6544 69.4053 65.324 69.1583C64.9937 68.9113 64.6033 68.7571 64.1933 68.7118C63.7833 68.6664 63.3687 68.7315 62.9923 68.9003C62.616 69.0691 62.2916 69.3355 62.0528 69.6719C62.0081 69.7333 61.826 70.0071 61.7478 70.2395L57.0681 83.0985L59.818 90.641C59.9964 91.0556 60.2924 91.4088 60.6693 91.657C61.0462 91.9052 61.4876 92.0376 61.9389 92.0377Z" fill="#0996C7"/>
<mask id="mask2_72_1102" style="mask-type:alpha" maskUnits="userSpaceOnUse" x="33" y="67" width="31" height="38">
<path d="M33.14 67.062H63.3098V104.827H33.14V67.062Z" fill="white"/>
</mask>
<g mask="url(#mask2_72_1102)">
<path d="M62.9389 68.1616H49.3033C48.2473 68.1616 47.3434 68.8298 47.0026 69.7729L34.2441 104.826H47.9803L60.7399 69.774C60.9054 69.318 61.2029 68.9216 61.5946 68.6352C61.9862 68.3489 62.4542 68.1856 62.9389 68.1661V68.1616Z" fill="#0996C7"/>
</g>
</svg>
