<svg width="240" height="160" viewBox="0 0 240 160" fill="none" xmlns="http://www.w3.org/2000/svg">
<path d="M191.566 69.8013C184.533 70.3128 178.906 76.0672 178.395 83.1004C177.883 91.4123 184.405 98.3176 192.589 98.3176C195.53 98.3176 199.494 96.783 201.284 93.714V97.9339H206.783V84.3791C207.039 75.4278 199.878 69.1619 191.566 69.8013ZM200.901 84.3791C200.645 89.1105 196.553 92.691 191.694 92.0517C187.985 91.5401 185.044 88.599 184.533 84.8906C184.021 79.9035 187.857 75.6836 192.717 75.6836C197.064 75.6836 200.645 79.1362 200.901 83.484V84.3791Z" fill="#0000A0"/>
<path d="M161.387 69.7998C153.843 70.0555 147.449 75.8099 147.449 84.2497C147.449 91.9223 153.715 98.4439 161.771 98.4439C167.397 98.4439 172.896 95.1191 175.07 89.6205L169.571 87.9581C168.548 90.2599 166.119 92.178 163.433 92.6895C159.597 93.4568 156.016 91.0271 154.61 88.4696L175.965 82.5873C175.326 76.9608 170.466 69.544 161.387 69.7998ZM153.459 83.3546C153.459 80.4134 155.249 76.9608 159.085 75.5542C163.433 73.8918 167.269 76.0657 168.932 79.1347L153.459 83.3546Z" fill="#0000A0"/>
<path d="M114.457 75.5551V69.6729C109.086 69.6729 107.296 72.3582 106.401 73.7649V70.568H100.263V83.6113V97.8055H106.529C106.529 89.3657 106.529 89.4936 106.529 84.3785C106.529 78.2405 110.109 75.8109 114.457 75.5551Z" fill="#0000A0"/>
<path d="M58.0636 86.9354L39.3938 64.9408H33V97.8048H39.6495V75.8102L58.5751 97.9327H64.3295V64.9408H58.0636V86.9354Z" fill="#0000A0"/>
<path d="M143.74 62H137.858V72.7415C136.452 70.9513 132.104 69.4168 128.395 69.8004C121.362 70.3119 115.736 76.0663 115.224 83.0995C114.713 91.4114 121.234 98.3167 129.418 98.3167C132.487 98.3167 136.707 96.91 138.114 94.2246V97.8052H143.613V84.2504C143.613 84.1225 143.613 84.1225 143.613 83.9946C143.613 83.8667 143.613 83.8667 143.613 83.7389L143.74 62ZM137.602 84.3782C137.347 89.1096 133.255 92.6901 128.395 92.0508C124.687 91.5393 121.746 88.5981 121.234 84.8897C120.723 79.9026 124.559 75.6827 129.418 75.6827C133.766 75.6827 137.347 79.1353 137.602 83.4831C137.602 83.4831 137.602 84.3782 137.602 84.3782Z" fill="#0000A0"/>
<path d="M82.3597 69.6729C74.4314 69.6729 68.0376 76.0666 68.0376 83.9949C68.0376 91.9232 74.4314 98.317 82.3597 98.317C90.2879 98.317 96.6817 91.9232 96.6817 83.9949C96.5539 76.0666 90.1601 69.6729 82.3597 69.6729ZM82.3597 92.179C77.884 92.179 74.1756 88.4706 74.1756 83.9949C74.1756 79.5193 77.884 75.8109 82.3597 75.8109C86.8353 75.8109 90.5437 79.5193 90.5437 83.9949C90.5437 88.5984 86.8353 92.179 82.3597 92.179Z" fill="#0000A0"/>
</svg>
