<svg width="241" height="161" viewBox="0 0 241 161" fill="none" xmlns="http://www.w3.org/2000/svg">
<path d="M191.566 69.8012C184.533 70.3127 178.906 76.0671 178.395 83.1002C177.883 91.4122 184.405 98.3174 192.589 98.3174C195.53 98.3174 199.494 96.7829 201.284 93.7139V97.9338H206.783V84.379C207.039 75.4277 199.878 69.1618 191.566 69.8012ZM200.901 84.379C200.645 89.1104 196.553 92.6909 191.694 92.0515C187.985 91.54 185.044 88.5989 184.533 84.8905C184.021 79.9033 187.857 75.6835 192.717 75.6835C197.064 75.6835 200.645 79.1361 200.901 83.4839V84.379Z" fill="white"/>
<path d="M161.387 69.7994C153.842 70.0551 147.448 75.8095 147.448 84.2493C147.448 91.9218 153.714 98.4435 161.771 98.4435C167.397 98.4435 172.896 95.1187 175.07 89.6201L169.571 87.9577C168.548 90.2594 166.118 92.1776 163.433 92.6891C159.597 93.4563 156.016 91.0267 154.609 88.4692L175.965 82.5869C175.325 76.9604 170.466 69.5436 161.387 69.7994ZM153.459 83.3542C153.459 80.413 155.249 76.9604 159.085 75.5538C163.433 73.8914 167.269 76.0653 168.932 79.1343L153.459 83.3542Z" fill="white"/>
<path d="M114.457 75.5547V69.6724C109.086 69.6724 107.296 72.3578 106.401 73.7644V70.5676H100.263V83.6109V97.8051H106.528C106.528 89.3653 106.528 89.4931 106.528 84.3781C106.528 78.2401 110.109 75.8105 114.457 75.5547Z" fill="white"/>
<path d="M58.0636 86.935L39.3937 64.9404H33V97.8044H39.6495V75.8098L58.5751 97.9323H64.3295V64.9404H58.0636V86.935Z" fill="white"/>
<path d="M143.74 62H137.858V72.7415C136.451 70.9513 132.104 69.4168 128.395 69.8004C121.362 70.3119 115.735 76.0663 115.224 83.0995C114.712 91.4114 121.234 98.3166 129.418 98.3166C132.487 98.3166 136.707 96.91 138.114 94.2246V97.8051H143.612V84.2503C143.612 84.1225 143.612 84.1225 143.612 83.9946C143.612 83.8667 143.612 83.8667 143.612 83.7388L143.74 62ZM137.602 84.3782C137.346 89.1096 133.254 92.6901 128.395 92.0507C124.687 91.5392 121.746 88.5981 121.234 84.8897C120.723 79.9026 124.559 75.6827 129.418 75.6827C133.766 75.6827 137.346 79.1353 137.602 83.4831V84.3782Z" fill="white"/>
<path d="M82.3601 69.6724C74.4318 69.6724 68.0381 76.0662 68.0381 83.9945C68.0381 91.9228 74.4318 98.3166 82.3601 98.3166C90.2884 98.3166 96.6823 91.9228 96.6823 83.9945C96.5544 76.0662 90.1605 69.6724 82.3601 69.6724ZM82.3601 92.1785C77.8845 92.1785 74.1762 88.4701 74.1762 83.9945C74.1762 79.5189 77.8845 75.8105 82.3601 75.8105C86.8358 75.8105 90.5443 79.5189 90.5443 83.9945C90.5443 88.598 86.8358 92.1785 82.3601 92.1785Z" fill="white"/>
</svg>
