<svg width="232" height="161" viewBox="0 0 232 161" fill="none" xmlns="http://www.w3.org/2000/svg">
<path d="M61.9544 64.4902L58.0021 85.6631L48.1211 95.6982L51.1952 75.4075L61.9544 64.4902Z" fill="white"/>
<path d="M39.0082 87.5378L61.954 64.4902C62.6127 60.8511 59.3191 58.425 57.4527 58.0942C56.5744 57.9839 55.9156 58.5353 55.9156 58.5353L33.0796 81.4727C33.0796 81.4727 31.9818 82.5754 34.946 85.5529C37.9103 88.6406 39.0082 87.5378 39.0082 87.5378Z" fill="white"/>
<path d="M65.3577 74.5254L67.2241 76.4001L48.1209 95.6983C47.4622 99.3374 50.7558 101.764 52.6222 102.094C53.5005 102.315 54.0495 101.764 54.0495 101.764L73.2624 82.4653L75.1288 84.3399V74.5254H65.3577Z" fill="white"/>
<path d="M95.44 84.5606V73.2022C95.44 70.6659 94.1226 69.5631 91.5974 69.5631C90.1702 69.5631 88.4136 70.2248 87.6451 71.5481V84.5606H84.9004V67.3576L86.8765 67.2473L87.3157 69.0117H87.4255C88.6332 67.6884 90.4996 66.9165 92.366 66.9165C95.989 66.9165 98.185 69.0117 98.185 73.0919V84.5606H95.44Z" fill="white"/>
<path d="M109.163 84.8911C104.003 84.8911 101.697 82.3548 101.697 75.9588C101.697 69.5628 104.003 67.0264 109.163 67.0264C114.323 67.0264 116.519 69.5628 116.519 75.9588C116.519 82.3548 114.323 84.8911 109.163 84.8911ZM109.163 82.5753C112.457 82.5753 113.774 80.9212 113.774 75.9588C113.774 70.9964 112.457 69.3422 109.163 69.3422C105.759 69.3422 104.552 70.9964 104.552 75.9588C104.442 80.9212 105.759 82.5753 109.163 82.5753Z" fill="white"/>
<path d="M131.668 67.3574L134.743 80.1494L135.292 82.4652H135.401L135.84 80.1494L138.585 67.3574H141.22L137.048 84.5605H133.645L130.79 72.4301L130.351 70.1143H130.241L129.692 72.4301L126.728 84.5605H123.434L119.043 67.3574H121.788L124.642 80.0391L125.081 82.3549H125.191L125.63 80.0391L128.704 67.3574H131.668Z" fill="white"/>
<path d="M154.067 82.465C152.969 83.8986 151.103 84.7808 148.907 84.7808C145.723 84.7808 143.637 83.1267 143.637 79.267C143.637 76.069 145.723 74.0841 149.786 74.0841C151.213 74.0841 152.64 74.4149 153.738 74.7457V73.0916C153.738 70.3347 152.53 69.4525 149.786 69.4525C148.029 69.4525 146.492 69.7833 144.955 70.445L144.735 68.1292C146.382 67.3573 148.249 67.0264 150.225 67.0264C154.726 67.0264 156.483 68.9011 156.483 73.4224V84.5603H154.397L154.067 82.465ZM153.738 76.7307C153.299 76.5101 152.091 76.069 150.335 76.069C147.48 76.069 146.272 77.1718 146.272 79.267C146.272 81.6931 147.7 82.5753 149.676 82.5753C151.762 82.5753 153.738 81.1417 153.738 79.7081V76.7307Z" fill="white"/>
<path d="M165.373 84.8911C163.288 84.8911 161.421 84.45 160.104 83.4575L160.433 81.1417C161.75 82.1342 163.727 82.6856 165.264 82.6856C167.789 82.6856 168.777 81.4725 168.777 79.8184C168.777 75.9587 159.994 77.7232 159.994 71.9888C159.994 69.1216 162.08 67.1367 165.922 67.1367C167.569 67.1367 169.216 67.4675 170.534 68.1292L170.314 70.445C168.887 69.8936 167.24 69.5627 165.813 69.5627C163.727 69.5627 162.519 70.445 162.519 71.8785C162.519 75.5176 171.192 73.643 171.192 79.5978C171.412 82.6856 169.655 84.8911 165.373 84.8911Z" fill="white"/>
<path d="M178.439 69.4524V80.0389C178.439 81.8033 179.427 82.5753 180.964 82.5753C181.404 82.5753 182.062 82.465 182.392 82.3547L182.611 84.4499C182.062 84.6705 181.184 84.891 180.196 84.891C177.232 84.891 175.695 83.2369 175.695 80.1492V69.4524H173.279V67.3572H175.804L176.353 63.0565L178.439 62.8359V67.3572H182.611V69.4524H178.439Z" fill="white"/>
<path d="M184.697 75.5176C184.697 70.1141 187.003 67.1367 191.724 67.1367C195.786 67.1367 198.421 69.5627 198.421 75.0765C198.421 75.5176 198.421 76.069 198.311 76.3998H187.332C187.442 80.9211 189.089 82.465 192.822 82.465C194.578 82.465 196.005 82.1342 197.433 81.3622L197.762 83.678C196.335 84.45 194.578 85.0013 192.492 85.0013C187.003 84.8911 184.697 81.9136 184.697 75.5176ZM196.005 74.4149C195.896 70.7758 194.249 69.3422 191.834 69.3422C188.979 69.3422 187.662 70.9963 187.442 74.4149H196.005Z" fill="white"/>
<path d="M88.961 96.6907V97.3524H84.7891V90.0742H85.4478V96.6907H88.961Z" fill="white"/>
<path d="M97.416 97.4627C95.33 97.4627 94.5605 96.3599 94.5605 93.7133C94.5605 91.0667 95.33 89.9639 97.416 89.9639C99.502 89.9639 100.27 90.9564 100.27 93.7133C100.27 96.3599 99.502 97.4627 97.416 97.4627ZM97.416 90.6256C95.878 90.6256 95.22 91.2872 95.22 93.7133C95.22 96.1394 95.878 96.801 97.416 96.801C98.953 96.801 99.611 96.1394 99.611 93.7133C99.611 91.2872 98.953 90.6256 97.416 90.6256Z" fill="white"/>
<path d="M111.578 97.0216C111.029 97.2421 110.261 97.4627 109.492 97.4627C107.296 97.4627 106.418 96.3599 106.418 93.7133C106.418 91.0667 107.406 89.9639 109.602 89.9639C110.261 89.9639 111.029 90.0742 111.468 90.2948L111.359 90.8461C110.919 90.6256 110.261 90.5153 109.602 90.5153C107.845 90.5153 107.077 91.2872 107.077 93.7133C107.077 96.0291 107.845 96.801 109.492 96.801C110.041 96.801 110.59 96.6908 111.029 96.5805V93.4928H111.578V97.0216Z" fill="white"/>
<path d="M118.166 90.0742H118.824V97.2421H118.166V90.0742Z" fill="white"/>
<path d="M127.389 97.4628C126.62 97.4628 125.852 97.2423 125.303 96.9114L125.413 96.3601C125.961 96.6909 126.62 96.9114 127.389 96.9114C128.487 96.9114 129.145 96.3601 129.145 95.4779C129.145 93.4929 125.413 94.3751 125.413 92.0593C125.413 90.9565 126.071 90.1846 127.608 90.1846C128.267 90.1846 128.926 90.2949 129.475 90.5154L129.365 91.0668C128.816 90.8463 128.267 90.736 127.718 90.736C126.51 90.736 126.071 91.2874 126.071 92.0593C126.071 93.934 129.804 93.0518 129.804 95.4779C129.694 96.5806 128.926 97.4628 127.389 97.4628Z" fill="white"/>
<path d="M137.926 90.7358V97.3524H137.268V90.7358H135.072V90.0742H140.232V90.7358H137.926Z" fill="white"/>
<path d="M146.271 90.0742H146.93V97.2421H146.271V90.0742Z" fill="white"/>
<path d="M158.13 90.9564C157.69 90.7358 157.141 90.6255 156.592 90.6255C154.946 90.6255 154.177 91.3975 154.177 93.7133C154.177 96.1393 154.946 96.9113 156.592 96.9113C157.141 96.9113 157.69 96.801 158.13 96.5804L158.239 97.1318C157.8 97.3524 157.141 97.5729 156.483 97.5729C154.397 97.5729 153.518 96.3599 153.518 93.7133C153.518 91.1769 154.506 90.0742 156.592 90.0742C157.141 90.0742 157.91 90.1844 158.239 90.405L158.13 90.9564Z" fill="white"/>
<path d="M166.143 97.4628C165.265 97.4628 164.606 97.2423 164.057 96.9114L164.167 96.3601C164.716 96.6909 165.375 96.9114 166.143 96.9114C167.241 96.9114 167.9 96.3601 167.9 95.4779C167.9 93.4929 164.167 94.3751 164.167 92.0593C164.167 90.9565 164.826 90.1846 166.363 90.1846C167.021 90.1846 167.68 90.2949 168.229 90.5154L168.119 91.0668C167.57 90.8463 167.021 90.736 166.472 90.736C165.265 90.736 164.826 91.2874 164.826 92.0593C164.826 93.934 168.558 93.0518 168.558 95.4779C168.449 96.5806 167.68 97.4628 166.143 97.4628Z" fill="white"/>
<path d="M186.565 95.3674H183.161L182.503 97.2421H181.844L184.588 90.0742H185.357L188.102 97.2421H187.443L186.565 95.3674ZM184.588 91.2872L183.271 94.816H186.345L185.137 91.2872L184.918 90.5153L184.588 91.2872Z" fill="white"/>
<path d="M196.664 97.2421H194.029V90.0742H196.554C197.872 90.0742 198.531 90.6255 198.531 91.8386C198.531 92.8311 198.091 93.2722 197.433 93.4927C198.311 93.7133 198.75 94.2646 198.75 95.2571C198.86 96.5804 198.201 97.2421 196.664 97.2421ZM196.664 93.8235H194.688V96.6907H196.774C197.762 96.6907 198.311 96.2496 198.311 95.1468C198.201 94.2646 197.652 93.8235 196.664 93.8235ZM196.445 90.6255H194.578V93.2722H196.554C197.433 93.2722 197.872 92.8311 197.872 91.9488C197.872 91.0666 197.433 90.6255 196.445 90.6255Z" fill="white"/>
</svg>
