<svg width="240" height="160" viewBox="0 0 240 160" fill="none" xmlns="http://www.w3.org/2000/svg">
<path fill-rule="evenodd" clip-rule="evenodd" d="M166.89 61.0982L158.561 74.5952H175.192L166.89 61.0982ZM189.238 61.0432L205.347 85.0684C205.704 85.5907 205.484 86.3328 204.715 86.3603H184.071C182.724 86.3603 182.284 86.1129 181.707 85.1783L178.133 79.3782H155.62L151.909 85.3982C151.469 86.1129 151.249 86.3603 150.369 86.3603H144.02C143.195 86.3603 143.057 85.7006 143.415 85.1508L159.908 60.466C159.967 60.3788 160.025 60.2911 160.085 60.2028C161.796 57.6471 163.774 54.6934 172.25 54.6934H175.686C184.208 54.6934 185.775 55.9853 189.238 61.0432ZM57.7875 73.4955C57.7875 73.4955 53.8292 73.468 53.7467 73.468V59.7512H57.815C62.818 59.7512 68.1783 61.1806 68.1783 66.7608C68.1783 72.341 62.8455 73.4955 57.7875 73.4955ZM59.9591 54.8582H47.7267C38.3255 54.8582 34.0923 58.0194 34.0923 66.211V85.3431C34.0923 85.8929 34.5871 86.3602 35.1918 86.3602H52.6746C53.2794 86.3602 53.7467 85.9204 53.7467 85.3431V78.3885H59.9317C78.1842 78.3885 88.7398 75.997 88.7398 66.6508C88.7398 57.2497 78.1842 54.8582 59.9591 54.8582ZM112.627 54.8582C103.419 54.8582 99.0754 58.1019 99.0754 66.156V85.3431C99.0754 85.8929 99.5702 86.3602 100.147 86.3602H117.96C118.592 86.3602 119.032 85.9204 119.032 85.3431V75.7496H140.034C140.638 75.7496 141.106 75.2823 141.106 74.7325V71.3239C141.106 70.7741 140.611 70.3068 140.034 70.3068H119.032V60.5483H143.525C144.129 60.5483 144.597 60.081 144.597 59.5313V55.8753C144.597 55.2705 144.157 54.8582 143.497 54.8582H112.627Z" fill="#A4293D"/>
<path fill-rule="evenodd" clip-rule="evenodd" d="M166.698 99.8569C166.698 102.688 169.034 103.101 170.436 103.101C171.811 103.101 174.147 102.688 174.147 99.8569C174.147 97.0256 171.838 96.6133 170.436 96.6133C169.062 96.6133 166.698 97.0256 166.698 99.8569ZM164.334 99.8295C164.334 96.9156 166.615 95.1564 170.436 95.1564C174.257 95.1564 176.539 96.9156 176.539 99.8295C176.539 102.743 174.257 104.503 170.436 104.503C166.615 104.503 164.334 102.743 164.334 99.8295ZM116.338 97.7952C116.338 99.7641 118.406 100.155 120.43 100.538L120.462 100.544L121.204 100.681C122.331 100.901 123.018 101.176 123.018 101.754C123.018 102.688 121.314 103.018 119.857 103.018C118.757 103.018 116.311 102.661 116.311 102.661V104.2C116.311 104.2 118.373 104.475 119.885 104.475C124.585 104.475 125.3 102.661 125.3 101.561C125.3 99.7469 123.156 99.3345 121.259 99.0047L120.352 98.8398C119.225 98.5924 118.51 98.3175 118.51 97.7127C118.51 96.943 119.994 96.6681 121.369 96.6681C122.166 96.6681 124.338 96.943 124.338 96.943V95.4861C124.338 95.4861 122.194 95.1838 121.149 95.1838C118.098 95.1838 116.338 96.1459 116.338 97.7952ZM60.9213 95.3488V104.338H69.2504V102.908H63.1754V100.434H67.7385V99.0323H63.1754V96.7508H69.1679V95.3488H60.9213ZM95.722 95.3488L95.8319 102.194L90.0593 95.3488H87.3104V104.338H89.3996L89.2896 97.438L95.0622 104.338H97.8111V95.3488H95.722ZM203.505 102.194L203.395 95.3488H205.512V104.338H202.735L196.963 97.438L197.073 104.338H194.984V95.3488H197.733L203.505 102.194ZM143.525 95.3212H145.834V104.31H143.525V95.3212ZM38.1056 99.747H36.3738V96.7508H38.1606C39.8099 96.7508 40.827 96.9982 40.827 98.1802C40.7995 99.2797 40.0024 99.747 38.1056 99.747ZM38.2431 95.3488H34.0923V104.338H36.3738V101.149H38.2431C42.5038 101.149 43.1361 99.2797 43.1361 98.1527C43.1361 96.256 41.5417 95.3488 38.2431 95.3488Z" fill="#000100"/>
</svg>
