<svg width="255" height="160" viewBox="0 0 255 160" fill="none" xmlns="http://www.w3.org/2000/svg">
<path fill-rule="evenodd" clip-rule="evenodd" d="M105.272 65.6154C107.872 65.5529 110.408 66.4356 112.409 68.0999H112.408C114.388 69.838 115.433 72.2946 115.433 75.212C115.433 78.1293 114.392 80.5872 112.422 82.3229C110.419 83.9911 107.878 84.8744 105.272 84.8086H100.749V94.3441H94.313V65.6154H105.272ZM104.698 71.2521H100.75V79.1719H104.698C107.405 79.1719 108.962 77.73 108.962 75.212C108.962 72.7342 107.369 71.2521 104.698 71.2521Z" fill="white"/>
<path d="M122.634 76.9874L122.355 74.348H116.792V94.3447H123.001V83.0735C124.309 81.4313 125.724 80.6968 127.563 80.6968H128.312V74.525H128.021C125.941 74.4781 123.953 75.3856 122.624 76.9885" fill="white"/>
<path d="M133.561 65.146C132.111 65.1441 130.803 66.0158 130.247 67.3545C129.689 68.6931 129.995 70.2351 131.019 71.2612C132.043 72.2874 133.583 72.5956 134.924 72.0422C136.264 71.4889 137.138 70.1828 137.14 68.7332C137.207 66.8221 135.713 65.2181 133.802 65.1493C133.722 65.1493 133.644 65.1493 133.565 65.1493" fill="white"/>
<path d="M136.641 74.3469H130.435V94.3446H136.641V74.3469Z" fill="white"/>
<path d="M155.209 88.0019C155.209 84.9788 153.146 83.0072 148.904 81.9747C146.116 81.3171 145.646 80.961 145.646 80.229C145.646 79.9219 145.646 78.9883 147.882 78.9883C149.501 78.9952 151.071 79.5536 152.332 80.5716L152.606 80.7942L154.983 76.2979L154.809 76.1466C153.269 74.8037 150.617 73.9692 147.884 73.9692C142.678 73.9692 139.445 76.516 139.445 80.6173C139.445 83.6726 141.314 85.3738 145.906 86.4909C148.514 87.1052 148.97 87.5936 148.97 88.3902C148.97 89.5118 147.635 89.7488 146.508 89.7488C144.627 89.7513 142.809 89.0834 141.377 87.8651L141.1 87.6215L138.677 92.1678L138.854 92.3191C140.576 93.8033 143.494 94.7257 146.468 94.7257C151.784 94.7257 155.216 92.0888 155.216 88.0042" fill="white"/>
<path d="M157.423 95.5458C157.423 97.0912 156.478 98.0503 154.959 98.0503C153.85 97.9829 152.826 97.4338 152.157 96.5472L151.95 96.3047L147.897 100.489L148.092 100.692C149.911 102.587 152.449 103.621 155.075 103.539C160.032 103.539 163.631 100.002 163.631 95.1297V74.3453H157.423V95.5458Z" fill="white"/>
<path d="M160.291 65.146C158.841 65.1446 157.533 66.0167 156.978 67.3555C156.422 68.6943 156.727 70.2362 157.752 71.2621C158.775 72.2878 160.317 72.5956 161.657 72.0419C162.996 71.488 163.87 70.1817 163.871 68.7321C163.938 66.821 162.444 65.217 160.533 65.1482C160.455 65.1482 160.374 65.1482 160.295 65.1482" fill="white"/>
<path fill-rule="evenodd" clip-rule="evenodd" d="M174.612 73.9628C177.529 73.9628 179.197 75.1423 180.081 76.1125L180.33 74.3456H185.922V94.3443H180.329L180.081 92.603C178.822 93.9605 176.869 94.7271 174.612 94.7271C169.345 94.7271 165.673 90.4656 165.673 84.3639C165.673 78.2398 169.348 73.9628 174.612 73.9628ZM171.915 84.3628C171.915 87.3279 173.516 89.2418 175.99 89.2418C177.561 89.2418 178.737 88.5419 179.675 87.0375V81.689C178.724 80.158 177.547 79.446 175.99 79.446C173.516 79.446 171.915 81.3753 171.915 84.3628Z" fill="white"/>
<path d="M207.818 74.3467H200.349L194.288 83.6529V65.3253H188.081V94.3433H192.957L197.565 88.0368L201.214 94.3433H208.271L201.651 82.6626L207.818 74.3467Z" fill="white"/>
<path d="M221.394 88.3761L221.082 88.553C220.36 88.931 219.553 89.1161 218.739 89.0903C217.243 89.0903 216.352 88.2102 216.352 86.7393V79.6774H221.899V74.3467H216.352V67.9133H210.144V74.3467H210.095L206.16 79.6774H210.143V86.8161C210.143 91.7697 213.156 94.7282 218.201 94.7282C219.814 94.7514 221.402 94.3278 222.789 93.5043L222.987 93.3852L221.394 88.3761Z" fill="white"/>
<path fill-rule="evenodd" clip-rule="evenodd" d="M87.5198 79.9786C87.5088 64.9234 75.2952 52.7287 60.2399 52.7399C45.1902 52.7465 32.9944 64.9502 33 79.9998V80.0209C33.0111 95.0763 45.228 107.271 60.2811 107.26C75.3341 107.249 87.531 95.034 87.5198 79.9786ZM80.7301 79.9992C80.7364 75.7386 79.4102 71.5827 76.937 68.1134L79.6285 65.4197C78.2518 63.589 76.6243 61.9612 74.794 60.584L72.0992 63.2767C65.0035 58.2405 55.5006 58.2355 48.3998 63.2645L45.6993 60.5662C43.8671 61.9431 42.2381 63.5714 40.8603 65.4029L43.553 68.0978C38.4924 75.2102 38.483 84.745 43.5296 91.8674L40.8481 94.5522C42.2252 96.3838 43.853 98.0127 45.6837 99.3911L48.3629 96.7097C55.4784 101.773 65.0218 101.769 72.1325 96.6985L74.8107 99.3788C76.641 97.9986 78.2677 96.3673 79.643 94.5333L76.9615 91.8496C79.4196 88.3875 80.7369 84.2451 80.7301 79.9992ZM71.1317 89.427C68.4917 92.4785 64.5909 94.409 60.2394 94.4086C56.6048 94.4073 53.1126 93.0315 50.4574 90.5694C47.6181 87.9407 45.8394 84.1822 45.8363 80.0076V79.9977C45.8348 76.1782 47.3506 72.5147 50.0503 69.8129C52.7499 67.1111 56.4123 65.5925 60.2318 65.591C68.1875 65.5855 74.6415 72.0304 74.6472 79.9861C74.6498 83.5963 73.3241 86.8975 71.1317 89.427ZM60.231 73.1638C64.0077 73.1601 67.0724 76.2187 67.076 79.9955C67.0797 83.7722 64.021 86.8368 60.2443 86.8405C56.4676 86.8441 53.403 83.7856 53.3993 80.0088V80.0021C53.3984 78.1894 54.1177 76.4506 55.3989 75.168C56.6801 73.8856 58.4182 73.1647 60.231 73.1638Z" fill="white" fill-opacity="0.64"/>
</svg>
