<svg width="240" height="160" viewBox="0 0 240 160" fill="none" xmlns="http://www.w3.org/2000/svg">
<path d="M79.9081 78.8152C79.9081 83.7551 75.8547 87.7491 70.8414 87.7491C65.8281 87.7491 61.7747 83.7551 61.7747 78.8152C61.7747 73.8753 65.8281 69.8814 70.8414 69.8814C75.8547 69.8814 79.9081 73.8753 79.9081 78.8152ZM87.7374 91.9743C87.7374 91.9743 88.3347 91.3016 87.6521 90.713L83.8761 87.4758C85.5827 84.9954 86.5641 82.0314 86.5641 78.8152C86.5641 70.2598 79.5241 63.3439 70.8627 63.3439C62.1801 63.3439 55.1401 70.2598 55.1401 78.8152C55.1401 87.3707 62.1801 94.2866 70.8414 94.2866C74.0201 94.2866 76.9641 93.3406 79.4387 91.7641L83.5774 95.3166C83.5774 95.3166 84.2601 95.9052 84.8574 95.2325L87.7374 91.9743ZM98.3187 93.2145V64.3949C98.3187 63.3439 97.2521 63.3439 97.2521 63.3439H92.5374C91.4707 63.3439 91.4707 64.3949 91.4707 64.3949V93.2145C91.4707 94.2655 92.5374 94.2655 92.5374 94.2655H97.2521C98.3187 94.2866 98.3187 93.2145 98.3187 93.2145ZM109.881 67.3168V64.3319C109.881 64.3319 109.881 63.3229 108.857 63.3229H104.335C104.335 63.3229 103.311 63.3229 103.311 64.3319V67.3168C103.311 67.3168 103.311 68.3258 104.335 68.3258H108.857C108.857 68.3469 109.881 68.3469 109.881 67.3168ZM110.073 93.2145V72.4039C110.073 71.3528 109.007 71.3528 109.007 71.3528H104.399C103.332 71.3528 103.332 72.4039 103.332 72.4039V93.2145C103.332 94.2655 104.399 94.2655 104.399 94.2655H109.007C110.073 94.2866 110.073 93.2145 110.073 93.2145ZM129.871 80.4549C129.316 79.551 130.063 78.7942 130.063 78.7942L136.569 72.1516C137.316 71.3949 136.249 71.3949 136.249 71.3949H130.169C129.103 71.3949 128.356 72.1516 128.356 72.1516L122.319 78.4579C121.593 79.2146 121.593 78.1636 121.593 78.1636V64.3739C121.593 63.3229 120.527 63.3229 120.527 63.3229H115.919C114.895 63.3229 114.895 64.3319 114.895 64.3319V93.1935C114.895 94.2445 115.961 94.2445 115.961 94.2445H120.527C121.551 94.2445 121.551 93.2355 121.551 93.2355V88.1695C121.551 87.1185 122.34 86.4038 122.34 86.4038L124.495 84.4068L129.913 93.3617C130.468 94.2656 131.535 94.2655 131.535 94.2655H137.273C138.34 94.2655 137.785 93.3617 137.785 93.3617L129.871 80.4549Z" fill="#54565B"/>
<path d="M173.049 78.6681C173.049 84.7011 168.1 89.5779 161.977 89.5779C155.855 89.5779 150.905 84.6801 150.905 78.6681C150.905 72.6351 155.855 67.7583 161.977 67.7583C168.079 67.7373 173.049 72.6351 173.049 78.6681ZM182.265 92.3106L177.209 88.1485C178.959 85.4158 179.983 82.1576 179.983 78.6681C179.983 68.8514 171.919 60.9055 161.956 60.9055C151.993 60.9055 143.929 68.8514 143.929 78.6681C143.929 88.4849 151.993 96.4307 161.956 96.4307C165.817 96.4307 169.401 95.2325 172.324 93.1935L177.7 97.6499C177.7 97.6499 178.511 98.3016 179.172 97.5238L182.372 93.7611C182.393 93.7611 183.055 92.9623 182.265 92.3106Z" fill="#009C4D"/>
<path d="M154.852 78.6681C154.852 74.8003 158.031 71.6682 161.956 71.6682C165.881 71.6682 169.06 74.8003 169.06 78.6681C169.06 82.536 165.881 85.6681 161.956 85.6681C158.052 85.6471 154.852 82.515 154.852 78.6681Z" fill="#54565B"/>
<path d="M180.729 66.0345H181.263C181.583 66.0345 181.796 65.9714 181.796 65.6141C181.796 65.2988 181.561 65.1937 181.263 65.1937H180.729V66.0345ZM180.729 67.3168H180.473V64.9414H181.348C181.753 64.9414 182.073 65.1516 182.073 65.5931C182.073 65.9714 181.86 66.2237 181.497 66.2447L182.159 67.2958H181.839L181.199 66.2447H180.708V67.3168H180.729ZM181.177 64.4579C180.239 64.4579 179.535 65.1937 179.535 66.1396C179.535 67.0855 180.239 67.8213 181.177 67.8213C182.116 67.8213 182.82 67.0855 182.82 66.1396C182.82 65.2147 182.116 64.4579 181.177 64.4579ZM179.215 66.1396C179.215 65.0675 180.111 64.2057 181.177 64.2057C182.265 64.2057 183.14 65.0886 183.14 66.1396C183.14 67.1906 182.265 68.0735 181.177 68.0735C180.111 68.0735 179.215 67.1906 179.215 66.1396Z" fill="#4A4D4D"/>
</svg>
