<svg width="240" height="160" viewBox="0 0 240 160" fill="none" xmlns="http://www.w3.org/2000/svg">
<path d="M75.4663 79.3299C75.4663 84.9374 70.8653 89.4711 65.1745 89.4711C59.4836 89.4711 54.8826 84.9374 54.8826 79.3299C54.8826 73.7225 59.4836 69.1888 65.1745 69.1888C70.8653 69.1888 75.4663 73.7225 75.4663 79.3299ZM84.3537 94.2672C84.3537 94.2672 85.0317 93.5037 84.2568 92.8355L79.9706 89.1609C81.9079 86.3452 83.0218 82.9807 83.0218 79.3299C83.0218 69.6183 75.0305 61.7679 65.1987 61.7679C55.3427 61.7679 47.3513 69.6183 47.3513 79.3299C47.3513 89.0416 55.3427 96.892 65.1745 96.892C68.7827 96.892 72.1245 95.8182 74.9336 94.0286L79.6315 98.0612C79.6315 98.0612 80.4065 98.7293 81.0845 97.9658L84.3537 94.2672ZM96.3649 95.6751V62.961C96.3649 61.7679 95.1541 61.7679 95.1541 61.7679H89.8023C88.5915 61.7679 88.5915 62.961 88.5915 62.961V95.6751C88.5915 96.8681 89.8023 96.8681 89.8023 96.8681H95.1541C96.3649 96.892 96.3649 95.6751 96.3649 95.6751ZM109.49 66.2777V62.8894C109.49 62.8894 109.49 61.744 108.328 61.744H103.194C103.194 61.744 102.032 61.744 102.032 62.8894V66.2777C102.032 66.2777 102.032 67.4231 103.194 67.4231H108.328C108.328 67.4469 109.49 67.4469 109.49 66.2777ZM109.708 95.6751V72.0522C109.708 70.8591 108.497 70.8591 108.497 70.8591H103.267C102.056 70.8591 102.056 72.0522 102.056 72.0522V95.6751C102.056 96.8681 103.267 96.8681 103.267 96.8681H108.497C109.708 96.892 109.708 95.6751 109.708 95.6751ZM132.181 81.1911C131.551 80.1651 132.399 79.3061 132.399 79.3061L139.785 71.7658C140.632 70.9068 139.421 70.9068 139.421 70.9068H132.52C131.309 70.9068 130.461 71.7658 130.461 71.7658L123.608 78.9243C122.785 79.7833 122.785 78.5902 122.785 78.5902V62.9371C122.785 61.744 121.574 61.744 121.574 61.744H116.343C115.181 61.744 115.181 62.8894 115.181 62.8894V95.6512C115.181 96.8443 116.392 96.8443 116.392 96.8443H121.574C122.736 96.8443 122.736 95.6989 122.736 95.6989V89.9483C122.736 88.7552 123.632 87.9439 123.632 87.9439L126.078 85.6771L132.229 95.8421C132.859 96.8681 134.07 96.8681 134.07 96.8681H140.584C141.795 96.8681 141.165 95.8421 141.165 95.8421L132.181 81.1911Z" fill="#54565B"/>
<path d="M181.194 79.163C181.194 86.0112 175.576 91.5471 168.626 91.5471C161.676 91.5471 156.058 85.9873 156.058 79.163C156.058 72.3147 161.676 66.7788 168.626 66.7788C175.552 66.755 181.194 72.3147 181.194 79.163ZM191.656 94.6491L185.916 89.9245C187.902 86.8225 189.065 83.124 189.065 79.163C189.065 68.0196 179.911 59 168.602 59C157.293 59 148.139 68.0196 148.139 79.163C148.139 90.3063 157.293 99.3259 168.602 99.3259C172.985 99.3259 177.053 97.9658 180.371 95.6512L186.473 100.71C186.473 100.71 187.394 101.45 188.144 100.567L191.777 96.2955C191.801 96.2955 192.552 95.3888 191.656 94.6491Z" fill="#009C4D"/>
<path d="M160.538 79.1629C160.538 74.7724 164.146 71.217 168.602 71.217C173.058 71.217 176.666 74.7724 176.666 79.1629C176.666 83.5534 173.058 87.1088 168.602 87.1088C164.17 87.0849 160.538 83.5296 160.538 79.1629Z" fill="#54565B"/>
<path d="M189.912 64.822H190.518C190.881 64.822 191.123 64.7505 191.123 64.3448C191.123 63.9869 190.857 63.8676 190.518 63.8676H189.912V64.822ZM189.912 66.2776H189.622V63.5812H190.614C191.075 63.5812 191.438 63.8199 191.438 64.321C191.438 64.7505 191.196 65.0368 190.784 65.0607L191.535 66.2537H191.171L190.445 65.0607H189.888V66.2776H189.912ZM190.421 63.0324C189.355 63.0324 188.556 63.8676 188.556 64.9414C188.556 66.0151 189.355 66.8503 190.421 66.8503C191.486 66.8503 192.285 66.0151 192.285 64.9414C192.285 63.8914 191.486 63.0324 190.421 63.0324ZM188.193 64.9414C188.193 63.7244 189.21 62.7461 190.421 62.7461C191.656 62.7461 192.649 63.7483 192.649 64.9414C192.649 66.1344 191.656 67.1366 190.421 67.1366C189.21 67.1366 188.193 66.1344 188.193 64.9414Z" fill="#4A4D4D"/>
</svg>
