<svg width="218" height="161" viewBox="0 0 218 161" fill="none" xmlns="http://www.w3.org/2000/svg">
<path d="M61.8457 76.7981C61.8457 82.6726 57.0256 87.4221 51.0638 87.4221C45.102 87.4221 40.2818 82.6726 40.2818 76.7981C40.2818 70.9236 45.102 66.1741 51.0638 66.1741C57.0256 66.1741 61.8457 70.9236 61.8457 76.7981ZM71.1563 92.4467C71.1563 92.4467 71.8666 91.6468 71.0548 90.9468L66.5644 87.0972C68.594 84.1474 69.761 80.6228 69.761 76.7981C69.761 66.624 61.3891 58.3998 51.0891 58.3998C40.7638 58.3998 32.3919 66.624 32.3919 76.7981C32.3919 86.9722 40.7638 95.1964 51.0638 95.1964C54.8438 95.1964 58.3448 94.0715 61.2876 92.1967L66.2093 96.4213C66.2093 96.4213 67.0211 97.1213 67.7314 96.3213L71.1563 92.4467ZM83.7395 93.9216V59.6496C83.7395 58.3998 82.471 58.3998 82.471 58.3998H76.8644C75.5959 58.3998 75.5959 59.6496 75.5959 59.6496V93.9216C75.5959 95.1714 76.8644 95.1714 76.8644 95.1714H82.471C83.7395 95.1964 83.7395 93.9216 83.7395 93.9216ZM97.4897 63.1243V59.5746C97.4897 59.5746 97.4897 58.3748 96.272 58.3748H90.8937C90.8937 58.3748 89.6759 58.3748 89.6759 59.5746V63.1243C89.6759 63.1243 89.6759 64.3242 90.8937 64.3242H96.272C96.272 64.3492 97.4897 64.3492 97.4897 63.1243ZM97.718 93.9216V69.1738C97.718 67.9239 96.4496 67.9239 96.4496 67.9239H90.9698C89.7013 67.9239 89.7013 69.1738 89.7013 69.1738V93.9216C89.7013 95.1714 90.9698 95.1714 90.9698 95.1714H96.4496C97.718 95.1964 97.718 93.9216 97.718 93.9216ZM121.261 78.7479C120.601 77.673 121.489 76.7731 121.489 76.7731L129.227 68.8738C130.115 67.9739 128.846 67.9739 128.846 67.9739H121.616C120.348 67.9739 119.46 68.8738 119.46 68.8738L112.28 76.3731C111.417 77.2731 111.417 76.0232 111.417 76.0232V59.6246C111.417 58.3748 110.149 58.3748 110.149 58.3748H104.669C103.452 58.3748 103.452 59.5746 103.452 59.5746V93.8966C103.452 95.1464 104.72 95.1464 104.72 95.1464H110.149C111.367 95.1464 111.367 93.9466 111.367 93.9466V87.9221C111.367 86.6722 112.305 85.8223 112.305 85.8223L114.868 83.4475L121.312 94.0965C121.971 95.1714 123.24 95.1714 123.24 95.1714H130.064C131.332 95.1714 130.673 94.0965 130.673 94.0965L121.261 78.7479Z" fill="white"/>
<path d="M172.608 76.6231C172.608 83.7974 166.723 89.5969 159.442 89.5969C152.161 89.5969 146.275 83.7725 146.275 76.6231C146.275 69.4487 152.161 63.6493 159.442 63.6493C166.697 63.6243 172.608 69.4487 172.608 76.6231ZM183.568 92.8466L177.555 87.8971C179.636 84.6474 180.853 80.7727 180.853 76.6231C180.853 64.9491 171.264 55.5 159.416 55.5C147.569 55.5 137.979 64.9491 137.979 76.6231C137.979 88.297 147.569 97.7462 159.416 97.7462C164.008 97.7462 168.27 96.3213 171.746 93.8965L178.139 99.1961C178.139 99.1961 179.103 99.971 179.889 99.0461L183.695 94.5715C183.72 94.5715 184.507 93.6216 183.568 92.8466Z" fill="white" fill-opacity="0.64"/>
<path d="M150.968 76.6232C150.968 72.0236 154.748 68.299 159.416 68.299C164.084 68.299 167.864 72.0236 167.864 76.6232C167.864 81.2228 164.084 84.9475 159.416 84.9475C154.774 84.9225 150.968 81.1978 150.968 76.6232Z" fill="white"/>
<path d="M181.741 61.5994H182.376C182.756 61.5994 183.01 61.5244 183.01 61.0994C183.01 60.7244 182.731 60.5995 182.376 60.5995H181.741V61.5994ZM181.741 63.1242H181.437V60.2995H182.477C182.959 60.2995 183.34 60.5495 183.34 61.0744C183.34 61.5244 183.086 61.8243 182.655 61.8493L183.441 63.0992H183.061L182.3 61.8493H181.716V63.1242H181.741ZM182.274 59.7245C181.158 59.7245 180.321 60.5995 180.321 61.7244C180.321 62.8493 181.158 63.7242 182.274 63.7242C183.39 63.7242 184.228 62.8493 184.228 61.7244C184.228 60.6245 183.39 59.7245 182.274 59.7245ZM179.94 61.7244C179.94 60.4495 181.006 59.4246 182.274 59.4246C183.568 59.4246 184.608 60.4745 184.608 61.7244C184.608 62.9742 183.568 64.0241 182.274 64.0241C181.006 64.0241 179.94 62.9742 179.94 61.7244Z" fill="white"/>
</svg>
