<svg width="205" height="161" viewBox="0 0 205 161" fill="none" xmlns="http://www.w3.org/2000/svg">
<rect width="205" height="161" fill="white" fill-opacity="0.01"/>
<path d="M60.087 77.8619C60.087 83.2023 55.705 87.5201 50.2852 87.5201C44.8654 87.5201 40.4834 83.2023 40.4834 77.8619C40.4834 72.5215 44.8654 68.2037 50.2852 68.2037C55.705 68.2037 60.087 72.5215 60.087 77.8619ZM68.5511 92.0879C68.5511 92.0879 69.1969 91.3607 68.4589 90.7244L64.3767 87.2247C66.2218 84.5431 67.2827 81.3389 67.2827 77.8619C67.2827 68.6127 59.6719 61.1361 50.3083 61.1361C40.9216 61.1361 33.3108 68.6127 33.3108 77.8619C33.3108 87.1111 40.9216 94.5877 50.2852 94.5877C53.7216 94.5877 56.9043 93.565 59.5796 91.8606L64.0539 95.7012C64.0539 95.7012 64.7919 96.3375 65.4376 95.6103L68.5511 92.0879ZM79.9904 93.4287V62.2724C79.9904 61.1361 78.8373 61.1361 78.8373 61.1361H73.7403C72.5872 61.1361 72.5872 62.2724 72.5872 62.2724V93.4287C72.5872 94.5649 73.7403 94.5649 73.7403 94.5649H78.8373C79.9904 94.5877 79.9904 93.4287 79.9904 93.4287ZM92.4906 65.4312V62.2042C92.4906 62.2042 92.4906 61.1134 91.3836 61.1134H86.4942C86.4942 61.1134 85.3872 61.1134 85.3872 62.2042V65.4312C85.3872 65.4312 85.3872 66.522 86.4942 66.522H91.3836C91.3836 66.5447 92.4906 66.5447 92.4906 65.4312ZM92.6982 93.4287V70.9307C92.6982 69.7944 91.545 69.7944 91.545 69.7944H86.5634C85.4102 69.7944 85.4102 70.9307 85.4102 70.9307V93.4287C85.4102 94.5649 86.5634 94.5649 86.5634 94.5649H91.545C92.6982 94.5877 92.6982 93.4287 92.6982 93.4287ZM114.101 79.6345C113.501 78.6573 114.308 77.8392 114.308 77.8392L121.342 70.658C122.15 69.8399 120.997 69.8399 120.997 69.8399H114.424C113.27 69.8399 112.463 70.658 112.463 70.658L105.936 77.4756C105.152 78.2937 105.152 77.1574 105.152 77.1574V62.2497C105.152 61.1134 103.999 61.1134 103.999 61.1134H99.0174C97.9104 61.1134 97.9104 62.2042 97.9104 62.2042V93.406C97.9104 94.5422 99.0636 94.5422 99.0636 94.5422H103.999C105.106 94.5422 105.106 93.4514 105.106 93.4514V87.9746C105.106 86.8384 105.959 86.0657 105.959 86.0657L108.289 83.9068L114.147 93.5878C114.746 94.5649 115.9 94.5649 115.9 94.5649H122.104C123.257 94.5649 122.657 93.5878 122.657 93.5878L114.101 79.6345Z" fill="white"/>
<path d="M160.78 77.7028C160.78 84.225 155.43 89.4972 148.811 89.4972C142.191 89.4972 136.841 84.2022 136.841 77.7028C136.841 71.1807 142.191 65.9084 148.811 65.9084C155.407 65.8857 160.78 71.1807 160.78 77.7028ZM170.744 92.4515L165.278 87.9519C167.169 84.9976 168.276 81.4752 168.276 77.7028C168.276 67.0901 159.558 58.5 148.788 58.5C138.017 58.5 129.299 67.0901 129.299 77.7028C129.299 88.3155 138.017 96.9056 148.788 96.9056C152.962 96.9056 156.837 95.6103 159.996 93.4059L165.808 98.2237C165.808 98.2237 166.684 98.9282 167.399 98.0873L170.859 94.0195C170.882 94.0195 171.597 93.156 170.744 92.4515Z" fill="white" fill-opacity="0.64"/>
<path d="M141.108 77.7029C141.108 73.5214 144.544 70.1354 148.788 70.1354C153.031 70.1354 156.468 73.5214 156.468 77.7029C156.468 81.8843 153.031 85.2704 148.788 85.2704C144.567 85.2477 141.108 81.8616 141.108 77.7029Z" fill="white"/>
<path d="M169.083 64.0448H169.66C170.006 64.0448 170.236 63.9767 170.236 63.5903C170.236 63.2495 169.983 63.1358 169.66 63.1358H169.083V64.0448ZM169.083 65.4311H168.806V62.8631H169.752C170.19 62.8631 170.536 63.0904 170.536 63.5676C170.536 63.9767 170.305 64.2494 169.913 64.2721L170.628 65.4084H170.282L169.59 64.2721H169.06V65.4311H169.083ZM169.567 62.3405C168.553 62.3405 167.792 63.1358 167.792 64.1585C167.792 65.1811 168.553 65.9765 169.567 65.9765C170.582 65.9765 171.343 65.1811 171.343 64.1585C171.343 63.1586 170.582 62.3405 169.567 62.3405ZM167.446 64.1585C167.446 62.9995 168.414 62.0677 169.567 62.0677C170.744 62.0677 171.689 63.0222 171.689 64.1585C171.689 65.2947 170.744 66.2492 169.567 66.2492C168.414 66.2492 167.446 65.2947 167.446 64.1585Z" fill="white"/>
</svg>
