<svg width="195" height="161" viewBox="0 0 195 161" fill="none" xmlns="http://www.w3.org/2000/svg">
<path d="M57.9081 78.8152C57.9081 83.7551 53.8547 87.7491 48.8414 87.7491C43.8281 87.7491 39.7747 83.7551 39.7747 78.8152C39.7747 73.8753 43.8281 69.8814 48.8414 69.8814C53.8547 69.8814 57.9081 73.8753 57.9081 78.8152ZM65.7374 91.9743C65.7374 91.9743 66.3347 91.3016 65.6521 90.713L61.8761 87.4758C63.5827 84.9954 64.5641 82.0314 64.5641 78.8152C64.5641 70.2598 57.5241 63.3439 48.8627 63.3439C40.1801 63.3439 33.1401 70.2598 33.1401 78.8152C33.1401 87.3707 40.1801 94.2866 48.8414 94.2866C52.0201 94.2866 54.9641 93.3406 57.4387 91.7641L61.5774 95.3166C61.5774 95.3166 62.2601 95.9052 62.8574 95.2325L65.7374 91.9743ZM76.3187 93.2145V64.3949C76.3187 63.3439 75.2521 63.3439 75.2521 63.3439H70.5374C69.4707 63.3439 69.4707 64.3949 69.4707 64.3949V93.2145C69.4707 94.2655 70.5374 94.2655 70.5374 94.2655H75.2521C76.3187 94.2866 76.3187 93.2145 76.3187 93.2145ZM87.8814 67.3168V64.3319C87.8814 64.3319 87.8814 63.3229 86.8574 63.3229H82.3347C82.3347 63.3229 81.3107 63.3229 81.3107 64.3319V67.3168C81.3107 67.3168 81.3107 68.3258 82.3347 68.3258H86.8574C86.8574 68.3469 87.8814 68.3469 87.8814 67.3168ZM88.0734 93.2145V72.4039C88.0734 71.3528 87.0067 71.3528 87.0067 71.3528H82.3987C81.3321 71.3528 81.3321 72.4039 81.3321 72.4039V93.2145C81.3321 94.2655 82.3987 94.2655 82.3987 94.2655H87.0067C88.0734 94.2866 88.0734 93.2145 88.0734 93.2145ZM107.871 80.4549C107.316 79.551 108.063 78.7942 108.063 78.7942L114.569 72.1516C115.316 71.3949 114.249 71.3949 114.249 71.3949H108.169C107.103 71.3949 106.356 72.1516 106.356 72.1516L100.319 78.4579C99.5934 79.2146 99.5934 78.1636 99.5934 78.1636V64.3739C99.5934 63.3229 98.5267 63.3229 98.5267 63.3229H93.9187C92.8947 63.3229 92.8947 64.3319 92.8947 64.3319V93.1935C92.8947 94.2445 93.9614 94.2445 93.9614 94.2445H98.5267C99.5507 94.2445 99.5507 93.2355 99.5507 93.2355V88.1695C99.5507 87.1185 100.34 86.4038 100.34 86.4038L102.495 84.4068L107.913 93.3617C108.468 94.2656 109.535 94.2655 109.535 94.2655H115.273C116.34 94.2655 115.785 93.3617 115.785 93.3617L107.871 80.4549Z" fill="white"/>
<path d="M151.049 78.6681C151.049 84.7011 146.1 89.5779 139.977 89.5779C133.855 89.5779 128.905 84.6801 128.905 78.6681C128.905 72.6351 133.855 67.7583 139.977 67.7583C146.079 67.7373 151.049 72.6351 151.049 78.6681ZM160.265 92.3106L155.209 88.1485C156.959 85.4158 157.983 82.1576 157.983 78.6681C157.983 68.8514 149.919 60.9055 139.956 60.9055C129.993 60.9055 121.929 68.8514 121.929 78.6681C121.929 88.4849 129.993 96.4307 139.956 96.4307C143.817 96.4307 147.401 95.2325 150.324 93.1935L155.7 97.6499C155.7 97.6499 156.511 98.3016 157.172 97.5238L160.372 93.7611C160.393 93.7611 161.055 92.9623 160.265 92.3106Z" fill="white" fill-opacity="0.64"/>
<path d="M132.852 78.6681C132.852 74.8003 136.031 71.6682 139.956 71.6682C143.881 71.6682 147.06 74.8003 147.06 78.6681C147.06 82.536 143.881 85.6681 139.956 85.6681C136.052 85.6471 132.852 82.515 132.852 78.6681Z" fill="white"/>
<path d="M158.729 66.0345H159.263C159.583 66.0345 159.796 65.9714 159.796 65.6141C159.796 65.2988 159.561 65.1937 159.263 65.1937H158.729V66.0345ZM158.729 67.3168H158.473V64.9414H159.348C159.753 64.9414 160.073 65.1516 160.073 65.5931C160.073 65.9714 159.86 66.2237 159.497 66.2447L160.159 67.2958H159.839L159.199 66.2447H158.708V67.3168H158.729ZM159.177 64.4579C158.239 64.4579 157.535 65.1937 157.535 66.1396C157.535 67.0855 158.239 67.8213 159.177 67.8213C160.116 67.8213 160.82 67.0855 160.82 66.1396C160.82 65.2147 160.116 64.4579 159.177 64.4579ZM157.215 66.1396C157.215 65.0675 158.111 64.2057 159.177 64.2057C160.265 64.2057 161.14 65.0886 161.14 66.1396C161.14 67.1906 160.265 68.0735 159.177 68.0735C158.111 68.0735 157.215 67.1906 157.215 66.1396Z" fill="white"/>
</svg>
