<svg width="224" height="160" viewBox="0 0 224 160" fill="none" xmlns="http://www.w3.org/2000/svg">
<g clip-path="url(#clip0_129_87056)">
<path d="M49.3375 100.931C58.7438 100.931 64.3823 96.354 64.3823 88.982C64.3823 83.5285 60.3667 79.774 52.6105 77.6912L48.8424 76.6772C43.259 75.1974 41.5262 73.3064 41.5262 70.6755C41.5262 67.2773 44.6617 65.4686 48.7323 65.4686C53.1879 65.4686 55.8008 67.7158 55.9934 71.3606H63.3096C63.2271 64.0435 57.2311 59.3024 48.7323 59.3024C40.6185 59.3024 34.2101 63.6872 34.2101 70.9768C34.2101 76.4304 37.6206 80.4316 44.4417 82.2128L48.2372 83.1994C54.6732 84.8711 57.0385 86.7347 57.0385 89.5026C57.0385 93.0652 53.6005 94.7643 49.3373 94.7643C44.3041 94.7643 40.5911 92.1609 40.316 87.7762H33C33.3025 95.9429 39.766 100.931 49.3375 100.931Z" fill="white"/>
<path d="M184.344 87.9407L191 56.699L182.859 55L176.203 86.2142L184.344 87.9407Z" fill="white" fill-opacity="0.64"/>
<path d="M183.601 104C186.599 104 189.074 101.725 189.074 98.656C189.074 95.5866 186.626 93.2847 183.601 93.2847C180.576 93.2847 178.155 95.5867 178.155 98.656C178.155 101.725 180.603 104 183.601 104Z" fill="white" fill-opacity="0.64"/>
<path d="M162.368 79.7467V78.8149C167.126 77.6912 169.409 74.5124 169.409 70.2919C169.409 64.537 165.311 60.0699 155.107 60.0699H140.337V100.163H156.51C167.347 100.163 171.28 95.2578 171.28 89.2836C171.28 84.1314 168.282 80.8429 162.368 79.7467ZM147.406 66.236H155.575C159.92 66.236 162.286 67.8804 162.286 71.3333C162.286 74.7862 159.92 76.5951 155.575 76.5951H147.406V66.236ZM156.812 93.9973H147.406V82.7064H156.812C161.708 82.7064 164.156 84.8441 164.156 88.297C164.156 91.7499 161.708 93.9973 156.812 93.9973Z" fill="white"/>
<path d="M90.5768 79.7467V78.8149C95.335 77.6912 97.6179 74.5124 97.6179 70.2919C97.6179 64.537 93.5198 60.0699 83.3157 60.0699H68.5459V100.163H84.7184C95.555 100.163 99.4881 95.2578 99.4881 89.2836C99.4881 84.1314 96.4902 80.8429 90.5768 79.7467ZM75.7796 66.236H83.9482C88.2939 66.236 90.6592 67.8804 90.6592 71.3333C90.6592 74.7862 88.2938 76.5951 83.9482 76.5951H75.7796V66.236ZM85.1859 93.9973H75.7796V82.7064H85.1859C90.0816 82.7064 92.5295 84.8441 92.5295 88.297C92.5295 91.7499 90.0817 93.9973 85.1859 93.9973Z" fill="white"/>
<path d="M129.991 100.163H137.912L123.362 60.0699H114.286L99.626 100.163H107.162L110.78 89.9139H126.419L129.991 100.163ZM112.84 84.0767L118.054 69.3055H119.236L124.384 84.0767H112.84Z" fill="white"/>
</g>
<defs>
<clipPath id="clip0_129_87056">
<rect width="158" height="49" fill="white" transform="translate(33 55)"/>
</clipPath>
</defs>
</svg>
