<svg width="194" height="161" viewBox="0 0 194 161" fill="none" xmlns="http://www.w3.org/2000/svg">
<path d="M67.8998 66.2655L60.9775 71.3917C57.703 68.5926 53.4953 68.053 51.171 68.053C48.8127 68.053 46.3695 68.7275 45.9962 70.3969C45.6229 72.0157 47.1499 73.2803 49.7628 73.9885C52.7489 74.781 55.4464 75.4893 59.6371 76.6697C65.8468 78.4402 70.1054 81.1045 70.1054 87.2929C70.1054 95.8252 62.4874 100.26 52.2568 100.26C42.0431 100.26 35.0699 94.9653 33 92.5035L40.3125 87.0737C45.4533 91.5254 49.0162 92.1493 52.0023 92.1493C55.4294 92.1493 58.6361 91.4242 59.0434 89.5019C59.3826 87.9506 58.0933 86.7197 55.175 86.0452C51.8666 85.2864 49.084 84.6793 45.9793 83.8698C37.547 81.6778 35.1718 76.8046 35.1718 72.4372C35.1718 66.4173 40.8214 60.2288 51.137 60.2288C61.707 60.2458 67.8998 66.2655 67.8998 66.2655ZM111.995 60.8528H81.1507V99.1477H112.555V90.3114H91.9925V84.1397H106.159V75.6916H91.9925V69.5875H111.995V60.8528ZM73.1763 108H75.5682V52H73.1763V108ZM116.61 108H119.003V52H116.61V108ZM124.567 99.1477H149.339C155.955 99.1477 161.333 95.1845 161.333 88.8275C161.333 83.8698 158.076 80.5817 153.495 79.1315C153.495 79.1315 153.309 79.081 153.053 79.081C153.309 79.0641 153.495 78.9967 153.495 78.9967C156.108 77.968 159.026 75.2196 159.026 70.5486C159.026 64.6131 153.749 60.8359 147.234 60.8359H124.567V99.1477ZM135.459 68.8119H144.113C146.098 68.8119 147.709 70.3799 147.709 72.1675C147.709 73.9717 146.098 75.54 144.113 75.54H135.459V68.8119ZM146.03 90.6486H135.443V83.6675H146.03C147.896 83.6675 149.423 85.1683 149.423 87.1581C149.423 89.1309 147.913 90.6486 146.03 90.6486Z" fill="white"/>
</svg>
