<svg width="240" height="160" viewBox="0 0 240 160" fill="none" xmlns="http://www.w3.org/2000/svg">
<path d="M90.8997 66.2656L83.9775 71.3917C80.703 68.5926 76.4953 68.053 74.1709 68.053C71.8126 68.053 69.3695 68.7275 68.9962 70.3969C68.623 72.0157 70.1499 73.2803 72.7627 73.9886C75.7488 74.7811 78.4465 75.4893 82.6371 76.6697C88.8468 78.4402 93.1054 81.1045 93.1054 87.293C93.1054 95.8254 85.4875 100.26 75.2568 100.26C65.0431 100.26 58.0699 94.9654 56 92.5035L63.3125 87.0738C68.4533 91.5254 72.0162 92.1494 75.0023 92.1494C78.4295 92.1494 81.6361 91.4243 82.0433 89.502C82.3826 87.9506 81.0932 86.7197 78.175 86.0452C74.8666 85.2864 72.0841 84.6793 68.9792 83.8699C60.547 81.6778 58.1717 76.8046 58.1717 72.4372C58.1717 66.4173 63.8215 60.2288 74.137 60.2288C84.707 60.2457 90.8997 66.2656 90.8997 66.2656ZM134.995 60.8528H104.15V99.1472H135.555V90.3114H114.992V84.1397H129.159V75.6917H114.992V69.5875H134.995V60.8528ZM96.1763 108H98.5685V52H96.1763V108ZM139.61 108H142.002V52H139.61V108ZM147.567 99.1472H172.338C178.955 99.1472 184.333 95.1846 184.333 88.8275C184.333 83.8699 181.076 80.5818 176.495 79.1316C176.495 79.1316 176.308 79.081 176.054 79.081C176.308 79.0641 176.495 78.9967 176.495 78.9967C179.108 77.9681 182.026 75.2195 182.026 70.5486C182.026 64.6131 176.749 60.8359 170.234 60.8359H147.567V99.1472ZM158.46 68.8118H167.113C169.098 68.8118 170.709 70.38 170.709 72.1674C170.709 73.9717 169.098 75.5399 167.113 75.5399H158.46V68.8118ZM169.03 90.6486H158.443V83.6676H169.03C170.896 83.6676 172.423 85.1683 172.423 87.1581C172.423 89.131 170.913 90.6486 169.03 90.6486Z" fill="black"/>
</svg>
