<svg width="2842" height="1896" viewBox="0 0 2842 1896" fill="none" xmlns="http://www.w3.org/2000/svg">
<g clip-path="url(#clip0)">
<rect x="-1" width="474" height="474" fill="white"/>
<path d="M280.425 287.135C271.238 277.392 261.214 268.485 251.47 259.577C233.651 243.154 216.389 226.731 200.241 208.638C195.508 213.37 191.331 218.38 186.877 223.391C179.359 232.577 171.285 240.927 162.932 249.556C159.035 253.732 164.881 259.299 169.336 256.794C169.615 256.515 169.893 256.515 170.171 256.237C181.587 267.371 192.723 279.341 205.252 289.64C218.895 300.774 232.537 311.352 243.674 325.269C246.458 328.61 250.356 328.888 253.419 325.826C260.379 318.867 265.391 310.517 272.351 303.558C276.249 299.661 280.704 296.042 284.602 292.145C283.488 290.196 282.096 288.526 280.425 287.135Z" fill="#F8C62A"/>
<path d="M319.126 192.771C315.785 178.297 313.279 162.709 309.102 148.234C308.824 147.678 308.824 147.121 308.546 146.564C270.959 156.028 232.259 164.379 194.115 171.338C194.951 172.173 195.786 172.451 196.9 172.73C196.9 172.73 197.178 173.008 197.456 173.008C198.292 171.616 199.962 170.781 202.19 171.616C222.514 179.132 243.952 181.916 264.834 187.204C283.209 191.658 301.028 197.782 319.126 202.792C318.847 201.122 318.569 199.73 317.733 198.339C319.126 196.947 319.682 194.998 319.126 192.771Z" fill="#F8C62A"/>
<path d="M266.504 205.019C255.924 202.236 245.345 199.452 234.765 196.112C224.185 193.05 213.883 188.039 203.303 185.812C203.303 187.204 203.86 188.596 204.695 189.709C205.531 190.823 206.366 191.38 207.48 191.658C207.48 192.493 207.758 193.328 208.036 193.885C208.872 195.555 209.985 196.947 211.099 198.617C217.781 205.019 225.855 209.473 233.094 215.318C242.003 222.834 249.799 231.463 257.873 239.814C270.124 252.618 284.323 264.309 295.738 277.949C295.738 276.835 295.46 275.722 294.903 274.887C292.397 271.546 289.613 268.206 286.551 264.866C296.017 271.268 305.761 274.052 308.546 258.464C311.051 245.381 313.557 232.576 316.62 219.772C299.358 216.71 282.096 208.916 266.504 205.019Z" fill="#F8C62A"/>
<path d="M299.636 276.835C280.147 255.123 257.873 236.195 236.992 215.597C219.173 198.06 201.354 180.245 181.587 164.936C175.74 160.482 168.501 154.08 160.705 154.08C153.745 154.08 148.176 159.369 143.165 163.822C137.875 168.833 133.42 174.4 128.687 180.245C124.511 185.534 120.613 191.658 119.221 198.617C117.272 210.308 128.687 220.607 135.647 228.679C154.858 250.948 177.41 269.041 198.57 289.361C215.554 305.784 232.259 322.764 250.913 337.239C257.038 341.971 265.112 348.93 273.186 348.095C280.704 347.26 286.272 341.692 291.562 336.96C300.193 328.888 311.33 320.259 314.671 308.29C318.569 295.763 307.154 285.186 299.636 276.835ZM303.534 316.919C298.801 323.878 292.676 329.166 285.994 334.455C278.476 340.579 270.124 342.527 261.214 337.795C253.976 333.62 247.293 326.383 240.89 320.816C227.247 308.29 214.162 295.207 200.797 282.402C186.041 268.206 170.171 255.68 155.972 241.206C146.784 231.741 132.028 219.772 127.016 207.246C123.397 198.339 129.244 189.431 134.255 182.472C138.988 176.07 144.557 170.503 150.96 166.049C157.921 161.039 165.16 160.482 172.399 165.492C179.359 170.503 186.041 176.348 192.445 182.194C206.366 194.998 220.008 208.081 233.651 221.442C247.572 235.082 262.05 248.164 276.249 261.804C285.715 270.99 295.182 280.454 303.256 290.753C308.824 297.712 310.773 306.063 306.04 314.135C304.926 314.97 304.091 315.805 303.534 316.919Z" fill="#877F79"/>
<path d="M167.666 190.266C165.438 189.431 162.932 189.153 160.984 189.988C158.478 190.823 157.086 192.771 156.25 195.277C155.694 197.225 155.694 199.452 156.807 201.4C159.313 205.576 165.438 206.133 169.058 202.792C172.12 199.452 172.956 192.215 167.666 190.266ZM166.273 200.844C164.603 201.957 162.654 202.236 160.984 201.4C159.313 200.565 158.199 198.895 158.478 196.947C158.478 195.833 159.035 194.163 160.148 193.606C161.819 192.493 163.489 192.215 165.438 192.771C167.387 193.328 168.501 194.163 168.501 196.39C168.501 198.06 167.666 199.73 166.273 200.844Z" fill="#877F79"/>
<path d="M163.768 250.391C172.677 241.762 181.308 233.133 189.939 224.226C194.115 220.05 198.292 215.597 202.468 211.421C206.644 206.968 211.656 202.792 214.997 197.782C216.667 195.277 213.048 193.05 211.099 194.72C208.872 196.669 206.923 198.895 204.974 201.122C203.025 203.349 200.797 205.576 198.849 207.803C194.672 212.256 190.496 216.989 186.598 221.442C178.524 230.628 170.45 239.535 162.654 249C161.262 249.835 162.654 251.226 163.768 250.391Z" fill="#877F79"/>
<path d="M184.371 271.268C193.28 262.639 201.911 254.01 210.542 245.103C214.718 240.927 218.895 236.473 223.071 232.298C227.247 227.844 232.259 223.669 235.6 218.659C237.27 216.153 233.651 213.927 231.702 215.597C229.475 217.545 227.526 219.772 225.577 221.999C223.628 224.226 221.4 226.453 219.452 228.679C215.275 233.133 211.099 237.865 207.201 242.319C199.127 251.505 191.053 260.412 183.257 269.876C181.587 270.99 183.257 272.382 184.371 271.268Z" fill="#877F79"/>
<path d="M206.644 291.588C215.554 282.959 224.185 274.33 232.816 265.423C236.992 261.247 241.168 256.794 245.345 252.618C249.521 248.164 254.532 243.989 257.873 238.979C259.544 236.473 255.924 234.247 253.975 235.917C251.748 237.865 249.799 240.092 247.85 242.319C245.901 244.546 243.674 246.773 241.725 249C237.549 253.453 233.372 258.185 229.475 262.639C221.4 271.825 213.326 280.732 205.531 290.196C204.138 291.031 205.809 292.702 206.644 291.588Z" fill="#877F79"/>
<path d="M225.855 310.238C234.765 301.609 243.396 292.98 252.027 284.073C256.203 279.897 260.379 275.443 264.555 271.268C268.732 266.814 273.743 262.639 277.084 257.629C278.755 255.123 275.135 252.897 273.186 254.567C270.959 256.515 269.01 258.742 267.061 260.969C265.112 263.196 262.885 265.423 260.936 267.649C256.76 272.103 252.583 276.835 248.685 281.289C240.611 290.475 232.537 299.382 224.741 308.846C223.349 309.681 224.741 311.073 225.855 310.238Z" fill="#877F79"/>
<path d="M247.293 331.115C256.203 322.486 264.834 313.857 273.465 304.949C277.641 300.774 281.817 296.32 285.994 292.145C290.17 287.691 295.182 283.516 298.523 278.505C300.193 276 296.574 273.773 294.625 275.443C292.397 277.392 290.448 279.619 288.499 281.846C286.551 284.072 284.323 286.299 282.374 288.526C278.198 292.98 274.022 297.712 270.124 302.166C262.05 311.351 253.976 320.259 246.18 329.723C244.788 330.836 246.18 332.228 247.293 331.115Z" fill="#877F79"/>
<path d="M350.865 216.153C347.524 203.906 332.211 200.565 321.631 197.225C293.789 188.318 264.834 183.307 236.713 176.348C217.224 171.338 197.456 166.328 177.689 162.987C180.751 165.214 183.814 167.998 186.041 171.06C202.746 174.678 219.451 178.854 236.157 183.029C255.089 187.761 274.3 191.658 293.233 196.39C306.04 199.452 318.847 202.792 331.098 207.524C339.45 210.865 345.297 216.989 345.297 226.453C345.297 227.844 345.297 228.958 345.019 230.071C344.462 238.422 341.677 246.216 338.893 254.01C335.552 263.196 329.427 269.041 319.126 269.32C310.773 269.598 301.307 266.814 292.954 264.866C289.892 264.309 286.829 263.474 283.766 262.917C285.994 265.701 288.499 268.206 290.727 270.711C297.13 272.103 303.812 273.217 310.495 274.052C318.012 275.165 328.592 277.114 335.274 272.103C341.399 267.371 343.348 260.134 345.297 253.175C348.916 241.206 354.206 227.844 350.865 216.153Z" fill="#877F79"/>
<path d="M204.695 189.153C205.809 183.586 207.201 178.019 208.315 172.451C208.872 169.111 204.138 167.719 203.303 171.06C202.19 175.235 201.354 179.41 200.241 183.586C201.911 185.256 203.303 187.204 204.695 189.153Z" fill="#877F79"/>
<path d="M226.969 206.968C227.804 208.081 228.918 209.473 230.031 210.586C232.537 200.565 234.765 190.266 236.714 179.967C237.27 176.627 232.537 175.235 231.702 178.575C229.475 187.761 227.247 196.947 225.298 206.133C225.855 206.411 226.412 206.411 226.969 206.968Z" fill="#877F79"/>
<path d="M254.811 235.36C258.987 218.937 262.885 202.514 266.226 186.091C266.783 182.751 262.05 181.359 261.214 184.699C257.316 200.287 253.975 215.875 250.913 231.741C252.583 232.855 253.697 233.968 254.811 235.36Z" fill="#877F79"/>
<path d="M277.084 255.402C282.931 234.803 287.943 213.648 292.119 192.493C292.676 189.153 287.943 187.761 287.107 191.101C282.096 211.421 277.919 232.298 274.3 252.897C275.135 253.732 276.249 254.567 277.084 255.402Z" fill="#877F79"/>
<path d="M304.091 270.433C310.773 247.051 316.62 223.391 321.353 199.73C321.91 196.39 317.177 194.998 316.341 198.339C310.495 221.999 305.761 245.938 301.864 269.876C301.585 271.268 303.813 271.825 304.091 270.433Z" fill="#877F79"/>
<path d="M351.422 167.441C349.473 155.75 348.36 141.554 340.285 132.368C331.933 122.626 316.62 126.523 305.761 128.193C276.806 132.09 248.686 140.44 220.008 146.286C200.241 150.461 180.473 154.358 160.984 160.204C164.881 160.76 168.779 162.152 172.12 163.544C188.825 159.369 205.531 155.75 222.514 152.131C241.725 148.234 260.658 143.224 279.59 139.049C292.397 136.265 305.483 133.76 318.569 132.646C327.478 131.811 335.552 134.873 339.729 143.502C340.285 144.616 340.842 145.729 341.121 146.843C344.183 154.637 345.297 162.709 345.854 171.06C346.689 180.802 343.905 188.596 334.995 193.328C329.706 196.112 323.023 197.782 316.898 199.174C319.961 200.009 323.023 201.122 325.808 202.514C326.921 202.236 328.313 201.679 329.427 201.401C336.666 198.895 346.967 196.112 350.865 188.874C353.928 181.916 352.536 174.4 351.422 167.441Z" fill="#877F79"/>
<path d="M196.9 171.895C195.507 166.328 194.115 160.76 192.723 155.193C191.888 152.131 186.876 152.966 187.712 156.028C188.547 160.204 189.661 164.379 190.496 168.833C192.723 169.668 194.951 170.781 196.9 171.895Z" fill="#877F79"/>
<path d="M222.793 177.74C224.742 178.019 226.69 178.297 228.639 178.575C226.412 169.111 224.185 159.369 221.679 149.904C220.844 146.843 215.832 147.678 216.667 150.74C218.616 159.925 220.565 168.833 222.793 177.74Z" fill="#877F79"/>
<path d="M260.936 185.256C257.873 170.781 254.811 156.585 250.913 142.389C250.078 139.327 245.066 140.162 245.901 143.224C248.686 156.863 252.027 170.503 255.924 184.142C257.595 184.421 259.266 184.699 260.936 185.256Z" fill="#877F79"/>
<path d="M289.335 192.215C285.715 173.565 281.817 155.193 276.806 136.822C275.971 133.76 270.959 134.595 271.794 137.657C275.692 155.472 280.147 173.565 285.158 191.101C286.551 191.38 287.943 191.658 289.335 192.215Z" fill="#877F79"/>
<path d="M321.91 200.844C317.734 177.184 312.722 153.523 306.597 130.42C305.762 127.358 300.75 128.193 301.585 131.255C306.318 154.358 312.444 177.184 319.404 199.73C319.961 200.287 321.075 200.566 321.91 200.844Z" fill="#877F79"/>
<rect x="473" width="474" height="474" fill="#F6F6F6"/>
<path d="M722.466 231.842L722.744 231.564C726.364 228.224 721.631 222.1 717.454 223.77C706.039 228.224 694.624 240.193 696.295 252.997C696.573 256.338 699.079 258.008 702.141 258.286C709.937 258.843 718.568 263.018 724.137 254.946C728.313 248.265 726.085 238.801 722.466 231.842Z" fill="#F8C62A"/>
<path d="M771.468 187.027C761.445 161.418 732.211 146.944 706.039 153.624C679.59 160.583 662.049 189.254 665.947 216.533C670.68 249.936 706.318 267.194 737.222 259.4C768.405 251.606 782.605 215.976 771.468 187.027ZM735.552 252.997C707.988 260.235 677.084 245.203 671.794 215.976C667.896 193.707 679.033 170.604 698.801 162.253C723.301 152.232 752.814 161.418 764.229 187.584C775.366 213.192 763.672 245.76 735.552 252.997Z" fill="#877F79"/>
<path d="M703.812 202.337C681.26 186.47 648.685 190.924 630.866 210.966C612.769 231.564 614.161 264.967 632.537 285.565C655.089 310.617 694.346 305.05 715.506 281.39C737.222 257.451 729.148 220.151 703.812 202.337ZM710.494 277.215C691.562 298.37 657.594 303.38 636.991 281.947C621.4 265.802 617.502 240.193 629.474 222.378C644.23 200.388 674.021 191.759 697.965 207.069C721.631 221.821 729.983 255.224 710.494 277.215Z" fill="#877F79"/>
<path d="M785.11 229.615C765.621 209.852 733.046 208.46 711.886 224.883C690.448 241.863 685.436 274.988 699.914 298.648C717.733 327.319 756.99 328.989 782.326 309.504C808.219 289.74 806.827 251.606 785.11 229.615ZM778.428 304.215C756.155 321.752 721.631 320.36 705.204 295.586C692.675 276.658 693.789 251.049 708.545 235.739C726.921 216.811 757.825 213.749 778.707 232.956C799.31 251.884 801.259 286.4 778.428 304.215Z" fill="#877F79"/>
<rect x="947" width="474" height="474" fill="#333333"/>
<rect x="1421" width="474" height="474" fill="#F6F6F6"/>
<rect x="1895" width="474" height="474" fill="#F8C62A"/>
<path d="M2065.57 229.378C2071.42 247.471 2078.93 266.956 2088.12 283.658C2090.35 287.833 2098.42 285.328 2097.31 280.596C2094.53 265.565 2086.73 251.647 2081.16 237.451C2079.21 232.44 2076.99 227.43 2075.59 222.141C2073.37 213.234 2071.7 207.945 2081.16 204.326C2105.38 195.419 2130.44 182.614 2156.61 183.449C2162.46 183.728 2161.9 175.377 2157.17 173.985C2142.41 169.253 2124.59 175.934 2110.4 180.387C2101.76 183.171 2093.69 187.346 2085.06 190.13C2079.21 192.078 2072.25 192.914 2067.24 197.089C2058.33 205.161 2062.23 219.357 2065.57 229.378Z" fill="#DBD9D7"/>
<path d="M2034.11 184.006C2040.51 212.398 2051.65 240.512 2060.28 268.348C2065.29 284.214 2070.3 299.802 2075.59 315.39C2080.05 328.473 2081.44 344.618 2089.24 356.031C2089.51 356.309 2089.79 356.309 2090.07 356.309C2090.35 356.309 2090.63 356.309 2090.91 355.752C2120.42 317.339 2142.97 272.245 2167.47 230.492C2179.44 210.172 2191.42 189.852 2203.39 169.253C2212.3 153.944 2219.81 138.077 2229 123.046C2229.28 122.489 2229.84 121.654 2229.84 121.097C2230.12 119.149 2227.89 117.757 2226.22 118.035C2208.4 122.768 2190.86 127.778 2173.32 133.067C2155.78 138.356 2138.24 143.923 2120.98 149.768C2103.44 155.614 2085.62 161.459 2068.35 168.418C2061.95 170.923 2055.83 173.428 2049.42 175.934C2046.08 177.047 2043.02 178.161 2039.68 179.274C2037.45 180.666 2033.27 180.666 2034.11 184.006ZM2047.19 181.222C2047.47 183.449 2047.75 185.398 2048.31 187.625C2048.86 189.573 2049.14 192.078 2051.09 193.192C2051.37 193.47 2051.65 193.192 2051.93 192.913C2052.48 190.965 2051.37 188.181 2050.81 186.233C2050.26 184.563 2049.7 182.614 2049.14 180.944C2053.32 180.109 2057.5 178.717 2061.39 177.325C2061.67 178.996 2061.95 180.387 2062.23 182.058C2062.79 184.006 2063.06 186.511 2065.01 187.625C2065.29 187.903 2065.57 187.625 2065.85 187.346C2066.41 185.398 2065.29 182.614 2064.73 180.666C2064.46 179.274 2063.9 177.882 2063.62 176.769C2068.35 175.099 2073.09 173.15 2077.54 171.48C2077.82 173.428 2078.1 175.099 2078.66 177.047C2079.21 178.996 2079.49 181.501 2081.44 182.614C2081.72 182.893 2082 182.614 2082.28 182.336C2082.83 180.387 2081.72 177.604 2081.16 175.655C2080.6 173.985 2080.05 172.315 2079.49 170.923C2082.55 169.81 2085.89 168.696 2088.96 167.583C2089.79 167.305 2090.91 167.026 2092.02 166.748C2092.3 168.696 2092.58 170.645 2093.13 172.593C2093.69 174.542 2093.97 177.047 2095.92 178.161C2096.2 178.439 2096.47 178.161 2096.75 177.882C2097.31 175.934 2096.2 173.15 2095.64 171.202C2095.08 169.531 2094.53 167.861 2093.97 166.191C2098.7 164.799 2103.44 163.129 2108.45 161.737C2108.73 163.686 2109 165.913 2109.56 167.861C2110.12 169.81 2110.4 172.315 2112.34 173.428C2112.62 173.707 2112.9 173.428 2113.18 173.15C2113.74 171.202 2112.62 168.418 2112.07 166.47C2111.51 164.799 2110.95 162.851 2110.4 161.181C2114.85 159.789 2119.31 158.397 2123.76 157.284C2124.04 158.954 2124.32 160.902 2124.87 162.573C2125.43 164.521 2125.71 167.026 2127.66 168.14C2127.94 168.418 2128.21 168.14 2128.49 167.861C2129.05 165.913 2127.94 163.129 2127.38 161.181C2126.82 159.511 2126.54 158.119 2125.99 156.449C2129.33 155.335 2132.67 154.5 2136.01 153.387C2137.12 153.108 2137.96 152.83 2139.07 152.552C2139.35 154.222 2139.63 155.614 2139.91 157.284C2140.47 159.232 2140.74 161.737 2142.69 162.851C2142.97 163.129 2143.25 162.851 2143.53 162.573C2144.08 160.624 2142.97 157.84 2142.41 155.892C2142.14 154.5 2141.58 153.387 2141.3 151.995C2146.03 150.603 2150.49 149.211 2155.22 147.82C2155.5 149.49 2155.78 150.882 2156.06 152.552C2156.61 154.5 2156.89 157.005 2158.84 158.119C2159.12 158.397 2159.4 158.119 2159.68 157.84C2160.23 155.892 2159.12 153.108 2158.56 151.16C2158.28 149.768 2157.73 148.655 2157.45 147.263C2161.62 146.15 2165.52 145.036 2169.7 143.923C2169.98 145.593 2170.26 146.985 2170.53 148.655C2171.09 150.603 2171.37 153.108 2173.32 154.222C2173.6 154.5 2173.88 154.222 2174.15 153.944C2174.71 151.995 2173.6 149.211 2173.04 147.263C2172.76 145.871 2172.2 144.758 2171.93 143.366C2176.1 142.253 2180.28 140.861 2184.73 139.747C2185.01 141.417 2185.29 143.088 2185.57 144.758C2186.13 146.706 2186.4 149.211 2188.35 150.325C2188.63 150.603 2188.91 150.325 2189.19 150.047C2189.75 148.098 2188.63 145.314 2188.07 143.366C2187.8 141.974 2187.24 140.582 2186.68 139.191C2191.14 137.799 2195.59 136.407 2200.05 135.015C2200.33 136.407 2200.6 137.799 2200.88 139.191C2201.44 141.139 2201.72 143.644 2203.67 144.758C2203.94 145.036 2204.22 144.758 2204.5 144.479C2205.06 142.531 2203.94 139.747 2203.39 137.799C2203.11 136.685 2202.55 135.572 2202.27 134.18C2209.79 131.675 2217.31 129.17 2224.83 126.386C2217.03 138.634 2208.4 150.882 2201.16 163.408C2188.63 184.563 2176.1 205.718 2163.85 226.873C2139.63 268.07 2112.07 307.04 2092.58 351.02C2079.49 293.4 2062.79 238.286 2042.74 182.614C2042.74 182.058 2044.97 181.779 2047.19 181.222Z" fill="#877F79"/>
<path d="M2083.39 247.75C2085.62 254.152 2087.57 260.832 2090.07 267.235C2092.02 272.523 2093.69 279.204 2097.31 283.379C2097.59 283.936 2121.53 246.358 2131.83 228.543C2137.12 219.636 2142.14 211.007 2147.43 202.099C2148.82 199.316 2150.49 196.81 2152.16 194.305C2153.55 191.8 2154.66 188.738 2155.78 186.233C2156.06 185.398 2156.33 184.284 2156.06 183.171C2155.5 181.501 2153.55 180.944 2152.16 181.222C2146.03 182.057 2139.63 184.563 2133.5 186.511C2127.1 188.738 2120.98 190.965 2114.57 193.192C2113.18 193.748 2111.79 194.027 2110.4 194.584C2102.32 197.367 2094.53 199.872 2086.45 203.213C2083.39 204.326 2077.26 206.275 2076.71 206.553C2074.2 207.388 2071.14 207.945 2071.7 210.728C2073.92 222.976 2079.49 235.78 2083.39 247.75ZM2086.73 208.223C2095.64 206.275 2104.55 203.491 2113.46 200.707C2124.04 197.367 2135.45 194.862 2146.03 190.687C2144.92 192.635 2143.81 194.305 2142.69 196.254C2137.12 205.718 2131.28 215.182 2125.71 224.924C2115.96 241.626 2103.99 258.606 2097.31 276.977C2096.47 265.565 2092.58 254.43 2089.24 243.574C2085.89 232.44 2083.11 220.471 2078.38 209.893C2081.44 209.615 2084.5 208.78 2086.73 208.223Z" fill="#877F79"/>
<rect x="2369" y="474" width="474" height="474" transform="rotate(-90 2369 474)" fill="white"/>
<path d="M2842 2.63716e-05C2842 62.8563 2817.03 123.138 2772.58 167.584C2728.14 212.03 2667.86 237 2605 237C2542.14 237 2481.86 212.03 2437.42 167.584C2392.97 123.138 2368 62.8563 2368 3.07773e-05L2605 1.31858e-05L2842 2.63716e-05Z" fill="#877F79"/>
<path d="M2368 474C2368 411.144 2392.97 350.862 2437.42 306.416C2481.86 261.97 2542.14 237 2605 237C2667.86 237 2728.14 261.97 2772.58 306.416C2817.03 350.862 2842 411.144 2842 474L2605 474L2368 474Z" fill="#877F79"/>
<rect x="-1" y="474" width="474" height="474" fill="#F6F6F6"/>
<rect x="473" y="474" width="474" height="474" fill="#333333"/>
<path d="M781.033 662.623C781.312 662.623 781.59 662.623 781.869 662.345C793.841 676.819 816.114 670.974 829.478 660.396C843.121 649.54 850.081 624.766 838.666 610.292C820.847 629.498 800.801 646.756 781.033 662.623Z" fill="#F8C62A"/>
<path d="M843.399 574.941C826.137 589.972 811.381 607.508 795.233 623.653C776.857 642.303 757.646 660.118 739.549 679.046C735.373 683.5 742.333 689.345 746.788 685.17C755.141 677.376 763.493 669.304 771.567 661.231C789.943 633.395 819.177 612.519 842.564 588.858C843.121 588.302 843.399 588.302 843.956 588.302C845.905 586.353 847.854 584.126 850.081 582.178C854.258 578.559 847.854 571.044 843.399 574.941Z" fill="#DBD9D7"/>
<path d="M689.712 598.601C673.842 611.405 662.149 629.777 647.392 643.973C631.801 659.004 615.653 673.757 601.453 690.18C597.555 694.634 604.516 700.758 608.692 696.304C636.812 664.85 669.387 638.406 695.837 605.281C698.9 601.663 693.888 595.26 689.712 598.601Z" fill="#DBD9D7"/>
<path d="M712.264 581.621C710.593 579.951 708.366 579.673 706.139 580.786C703.355 582.456 701.127 585.24 699.457 588.023C698.065 590.25 699.457 593.869 701.962 594.704C704.468 595.817 707.531 594.982 708.644 592.199C708.923 591.642 709.201 591.364 709.48 590.807L710.037 589.972C710.872 589.137 711.429 588.302 712.264 587.466C713.934 586.075 713.934 583.57 712.264 581.621Z" fill="#DBD9D7"/>
<path d="M681.916 787.327C676.626 774.801 661.592 770.904 651.29 763.666C637.648 754.202 627.346 740.841 612.033 734.161C606.186 731.655 602.01 740.285 607.857 743.068C622.335 749.749 632.079 762.553 644.608 771.739C654.631 778.976 665.768 783.43 674.677 792.337C677.462 795.677 683.587 791.502 681.916 787.327Z" fill="#DBD9D7"/>
<path d="M696.116 803.193C694.167 800.966 691.939 798.739 689.99 796.512C688.32 794.564 684.7 795.121 683.308 797.069C681.638 799.296 681.916 802.08 683.865 803.75C685.814 805.42 687.485 807.368 689.712 809.039C691.382 810.43 693.888 810.43 695.559 809.039C696.672 807.647 697.508 804.863 696.116 803.193Z" fill="#DBD9D7"/>
<path d="M786.323 878.628C760.987 883.917 733.702 879.185 708.088 879.741C694.724 880.02 681.081 881.133 667.717 880.855C656.023 880.576 644.608 879.741 633.193 882.803C626.789 884.473 630.13 893.659 636.255 892.267C648.784 889.484 662.148 891.989 674.677 892.267C690.269 892.546 705.86 891.432 721.73 891.711C735.094 891.989 748.458 892.546 761.823 892.546C771.567 892.546 781.869 892.824 790.778 888.37C796.347 884.752 791.335 877.514 786.323 878.628Z" fill="#DBD9D7"/>
<path d="M776.857 561.022C765.72 557.125 751.243 569.652 743.725 576.889C736.208 584.126 724.514 597.766 730.918 608.9C733.424 613.075 740.106 610.57 739.549 605.838C738.435 596.652 745.953 588.858 752.356 583.013C759.874 576.332 767.112 573.27 776.3 569.652C779.92 568.538 781.033 562.414 776.857 561.022Z" fill="#DBD9D7"/>
<path d="M746.788 876.679C752.078 876.679 769.34 877.793 769.618 869.164C769.618 861.091 758.203 860.535 750.964 862.205C739.827 861.091 713.378 859.978 718.389 870.834C721.73 877.793 740.941 876.679 746.788 876.679ZM725.35 866.937C725.906 866.38 733.702 865.823 734.816 865.545C738.435 865.267 742.333 864.988 745.953 864.988C745.953 865.267 746.231 865.545 746.788 865.545C749.85 865.545 768.505 866.38 763.493 870.555C759.595 873.896 747.902 872.226 743.168 872.226C738.435 872.226 731.753 872.782 727.577 870.834C725.906 869.999 723.122 869.442 725.35 866.937Z" fill="#877F79"/>
<path d="M596.442 709.944C594.493 705.49 588.367 704.098 584.748 707.438C583.077 709.108 582.242 711.892 582.242 714.119C582.799 718.851 587.811 721.356 591.987 719.964C596.163 718.851 598.112 713.841 596.442 709.944ZM591.43 717.459C588.646 718.573 585.583 717.181 584.748 714.397C584.191 712.727 584.748 710.779 585.862 709.665C586.14 709.387 586.418 709.108 586.975 708.83C588.089 708.273 589.759 708.273 591.152 708.552C591.987 708.83 592.822 709.387 593.379 710.222C595.328 712.449 594.493 716.346 591.43 717.459Z" fill="#877F79"/>
<path d="M853.422 580.508C855.093 579.951 856.207 578.281 855.371 575.776C851.474 564.085 825.024 559.909 815.279 559.074C804.421 558.239 793.841 559.909 783.818 563.25C777.692 559.074 770.732 555.734 764.885 550.723C758.203 544.6 752.356 536.806 744.839 531.795C731.475 522.888 722.287 527.341 711.15 537.362C701.962 545.713 693.61 557.961 699.178 570.487C681.916 588.302 665.768 607.787 649.063 626.158C630.409 646.757 611.198 667.355 594.214 689.345C586.697 687.675 578.344 689.345 572.219 695.191C566.094 700.758 563.31 710.222 564.145 718.294C565.816 733.326 581.129 741.955 595.328 738.893C610.363 755.037 628.181 768.955 645.165 783.151C656.58 792.616 667.439 804.028 679.689 812.936C669.666 816.554 659.921 821.565 651.569 828.524C631.244 845.225 624.84 867.494 626.789 893.102C626.789 894.494 628.46 894.494 628.738 893.381C655.466 896.721 683.587 894.773 710.593 895.051C738.157 895.051 765.442 895.051 793.006 895.051C794.119 895.051 794.954 894.494 795.511 893.937C796.068 893.659 796.347 892.824 796.625 891.989C802.193 871.391 791.335 844.39 777.136 829.637C762.101 813.771 739.549 806.812 718.389 806.812C714.77 806.812 711.15 806.812 707.531 807.09C704.747 801.801 698.065 797.904 693.888 794.007C684.144 785.935 674.121 778.141 664.376 770.069C646.835 756.151 629.017 741.676 610.084 729.429C615.374 722.191 616.488 712.449 612.311 703.82C611.476 702.15 610.363 700.479 609.249 698.809C630.13 679.881 649.341 659.004 668.831 638.406C679.689 626.715 690.547 615.302 701.127 603.611C705.025 599.158 710.872 594.147 714.77 588.58C722.844 594.982 730.361 601.384 731.196 614.746C728.691 621.148 726.742 627.55 725.907 634.231C723.958 650.654 727.02 675.984 740.941 687.675C740.384 688.51 741.22 689.345 742.055 688.788C742.055 688.788 742.055 688.788 742.333 688.788L742.612 689.067C743.447 689.623 744.282 688.788 744.004 687.953C754.027 682.108 762.101 672.922 770.175 664.85C771.846 663.18 773.238 661.788 774.908 660.118C790.778 687.953 830.871 678.211 845.627 653.716C852.587 642.025 854.258 629.498 848.411 616.972C846.462 612.797 841.45 602.776 835.604 600.828C841.729 594.147 849.525 588.58 853.422 580.508ZM569.435 719.408C567.764 712.727 569.157 704.933 573.611 699.644C575.003 698.253 576.395 696.861 578.066 696.026C583.077 693.242 589.481 693.242 595.049 695.191C598.669 696.582 602.01 698.809 604.516 701.593C613.147 711.614 608.97 728.037 596.72 732.49C585.862 736.666 572.776 731.099 569.435 719.408ZM769.061 832.421C784.931 847.73 787.159 866.937 789.665 887.535C763.493 887.535 737.043 888.092 710.872 888.649C683.865 889.205 656.023 887.814 629.295 891.154C631.801 866.658 637.648 846.06 658.808 831.029C675.513 819.059 696.394 813.492 716.997 813.492C735.651 813.771 754.862 819.059 769.061 832.421ZM660.478 775.914C673.285 786.213 685.536 797.904 698.9 807.647C695.28 808.204 691.661 809.039 688.042 809.874C684.979 805.977 680.246 802.636 676.626 799.853C667.438 792.059 658.251 784.265 648.784 776.749C632.358 763.388 615.931 749.47 598.112 737.779C602.01 736.387 605.629 733.882 608.135 731.099C624.284 747.8 642.938 761.718 660.478 775.914ZM661.592 635.066C643.216 655.107 624.005 674.871 607.578 696.304C604.794 693.521 601.453 691.294 597.834 690.18C618.437 670.974 637.648 649.819 656.859 628.942C668.274 616.694 679.689 604.168 690.547 591.642C694.445 587.188 699.735 582.456 703.633 577.167C705.303 579.394 707.252 581.343 709.201 583.013C692.496 599.993 677.183 618.086 661.592 635.066ZM727.299 589.693C717.276 576.054 694.445 569.652 709.758 548.775C716.162 540.146 726.463 530.125 738.157 534.857C746.231 538.197 752.635 547.94 758.76 553.785C763.493 558.239 769.061 563.806 775.187 566.868C768.783 569.93 762.658 573.827 757.089 578.559C748.18 586.075 740.106 596.096 734.259 606.952C733.702 600.828 730.918 594.704 727.299 589.693ZM837.553 651.21C830.592 661.788 819.734 669.303 806.926 670.139C794.676 670.695 786.045 664.85 777.136 657.612C785.488 649.262 793.841 641.189 802.472 632.839C811.938 623.931 821.404 614.746 830.871 605.281C842.564 618.921 849.246 633.117 837.553 651.21ZM827.808 598.601C817.228 609.178 806.648 619.478 795.79 630.055C777.414 647.87 760.709 667.633 742.333 685.727C731.196 672.644 730.083 645.921 733.424 630.89C737.043 614.189 747.066 597.766 759.595 586.353C772.681 574.105 789.664 567.425 807.483 567.147C815.836 566.868 824.188 567.982 831.984 570.765C834.768 571.6 846.462 575.497 847.297 578.002C847.576 578.559 847.854 579.116 848.411 579.394C842.007 586.631 834.49 592.199 827.808 598.601Z" fill="#877F79"/>
<path d="M830.035 636.736C828.922 643.416 824.189 651.767 817.506 654.551C815.836 655.107 816.393 657.891 818.342 657.334C824.467 655.664 829.2 652.88 833.098 647.87C835.882 644.251 839.502 636.736 835.604 632.56C831.984 628.385 830.592 633.952 830.035 636.736Z" fill="#877F79"/>
<path d="M830.314 615.302C830.314 616.694 830.592 618.364 831.149 619.756C831.706 621.426 832.263 622.818 833.098 624.21C833.655 625.323 835.604 624.766 835.325 623.653C835.047 621.704 835.604 620.034 835.047 618.086C834.49 616.416 833.376 615.024 831.427 614.745C830.871 614.467 830.314 614.745 830.314 615.302Z" fill="#877F79"/>
<rect x="947" y="474" width="474" height="474" fill="#F8C62A"/>
<path d="M1421 474V948H947L1421 474Z" fill="#FFEAAA"/>
<rect x="1421" y="474" width="474" height="474" fill="white"/>
<path d="M1706.9 714.447C1703.28 720.571 1697.71 726.973 1689.64 725.303C1687.97 725.025 1686.57 724.468 1685.46 723.633C1685.74 720.014 1685.74 716.674 1685.74 713.055C1686.85 706.653 1686.3 698.859 1679.06 699.138C1670.7 699.416 1669.59 712.22 1670.7 718.066C1670.7 718.901 1670.98 719.458 1671.26 720.293C1667.64 724.468 1663.46 728.087 1656.78 726.973C1656.5 726.973 1656.23 726.973 1655.95 726.695C1660.96 718.623 1662.63 704.148 1651.77 699.694C1642.3 696.076 1637.29 707.21 1637.57 715.004C1637.85 718.901 1638.96 722.52 1640.91 725.86C1640.08 726.417 1638.69 726.695 1637.01 726.695C1631.72 726.695 1626.99 724.468 1627.27 718.344C1627.55 713.055 1618.64 712.777 1618.08 717.787C1616.41 733.097 1631.45 739.221 1643.7 735.602C1647.04 757.036 1654 778.191 1655.67 799.903C1656.23 806.583 1666.53 805.748 1665.97 799.068C1664.3 778.191 1657.62 757.592 1654 736.994C1654.83 737.272 1655.67 737.551 1656.78 737.829C1662.91 738.943 1668.48 737.272 1672.93 733.932C1670.7 755.922 1669.59 778.191 1667.92 799.903C1667.64 805.748 1676.55 807.697 1677.11 801.573C1679.61 779.583 1682.95 757.036 1684.62 734.489C1696.6 738.107 1712.19 731.705 1715.25 717.509C1716.64 711.942 1709.4 710.272 1706.9 714.447Z" fill="#F8C62A"/>
<path d="M1539.85 672.972C1538.73 672.694 1537.9 672.415 1536.78 672.137C1535.95 671.859 1535.39 671.302 1534.56 671.58C1534.28 671.58 1534 671.859 1534 672.137C1534.28 674.085 1537.34 674.642 1539.01 674.921C1540.4 674.921 1540.96 672.972 1539.85 672.972Z" fill="#877F79"/>
<path d="M1664.86 642.631C1631.17 640.404 1600.26 665.456 1593.58 697.746C1590.24 713.612 1592.47 731.705 1601.66 745.345C1614.18 763.716 1634.79 770.954 1640.36 792.944C1637.29 793.501 1633.67 794.892 1632.56 797.119C1627.83 800.459 1627.83 808.532 1632 812.707C1632.28 812.986 1632.56 813.264 1632.84 813.542C1628.66 817.718 1628.94 825.512 1632.28 829.965C1638.96 838.316 1654.28 836.646 1663.46 836.646C1674.6 836.646 1690.19 836.368 1697.71 826.347C1701.61 821.336 1700.49 815.491 1695.76 812.429C1697.15 811.594 1698.27 810.48 1699.38 809.089C1703.56 803.8 1702.44 796.562 1696.32 794.336C1694.65 792.109 1691.03 790.995 1687.97 791.552C1690.75 782.088 1694.93 773.737 1702.44 766.222C1708.85 759.819 1716.09 754.531 1721.65 747.293C1731.68 733.932 1734.18 715.839 1731.12 699.694C1725 667.127 1697.15 644.858 1664.86 642.631ZM1666.81 831.357C1659.01 831.357 1628.38 830.244 1635.34 814.656C1644.25 819.666 1658.17 817.996 1667.08 817.996C1674.88 817.996 1685.18 817.718 1692.98 814.099C1700.22 828.852 1675.72 831.357 1666.81 831.357ZM1696.88 799.346C1701.61 813.264 1672.65 814.377 1665.14 814.377C1660.96 814.377 1657.06 814.656 1652.88 814.377C1649.54 814.377 1646.48 814.099 1643.14 813.542C1637.57 812.986 1634.51 809.367 1634.23 802.686C1639.52 808.253 1656.23 806.027 1662.35 805.748C1668.48 805.47 1692.98 806.583 1696.88 799.346ZM1653.72 757.036C1652.61 748.963 1651.49 740.613 1650.1 732.262C1658.17 736.716 1669.59 734.211 1677.11 727.808C1675.72 752.304 1676.27 777.077 1672.37 801.295C1668.75 801.573 1665.14 801.573 1662.07 801.573C1660.68 801.573 1659.01 801.573 1657.62 801.573C1658.45 787.098 1655.67 771.789 1653.72 757.036ZM1676.27 713.055C1677.39 708.602 1681.01 709.158 1681.56 710.55C1682.4 712.22 1682.12 714.726 1681.01 716.952C1680.73 715.839 1680.45 714.447 1679.89 713.334C1679.61 712.499 1678.22 712.499 1678.22 713.612C1677.94 716.396 1677.94 718.901 1677.66 721.685C1676.83 719.458 1675.72 715.004 1676.27 713.055ZM1686.3 799.068C1686.85 797.119 1687.13 795.171 1687.69 793.501C1692.98 796.284 1690.47 797.676 1686.3 799.068ZM1725.83 718.066C1723.88 740.056 1709.13 749.52 1695.76 764.273C1686.3 774.572 1681.56 785.985 1684.07 799.903V800.181C1681.01 801.016 1677.66 801.573 1674.32 801.573C1678.5 787.098 1678.5 772.345 1679.89 757.314C1680.73 749.242 1682.4 740.613 1682.68 731.984C1695.48 737.829 1714.42 722.52 1703 709.437C1702.44 708.88 1701.61 709.437 1701.89 710.272C1706.9 723.355 1693.81 734.767 1682.68 727.53C1682.68 725.86 1682.4 723.911 1682.4 722.241C1683.51 720.293 1684.62 718.066 1684.9 715.839C1685.74 711.107 1684.62 703.87 1677.94 706.097C1670.98 708.323 1673.21 719.736 1675.44 724.746C1675.44 725.025 1675.72 725.025 1675.72 725.025C1674.6 725.86 1673.21 726.973 1672.1 727.53C1665.14 731.705 1660.68 731.984 1653.72 728.365C1652.05 727.53 1650.66 726.695 1649.54 725.581C1651.21 722.798 1652.61 719.736 1653.16 716.674C1654.28 712.499 1655.39 705.261 1649.54 704.705C1639.8 703.87 1641.75 720.014 1643.98 724.746C1644.25 725.025 1644.25 725.303 1644.53 725.581C1644.53 725.86 1644.53 726.417 1644.53 726.695C1639.52 732.262 1627.55 731.705 1624.49 717.509C1624.21 716.117 1622.82 715.839 1622.54 716.952C1619.47 726.695 1625.6 735.602 1636.46 734.489C1639.8 734.211 1642.58 732.54 1645.09 730.314C1646.2 736.716 1647.87 743.118 1648.99 749.52C1652.33 766.5 1654 784.036 1656.5 801.016C1653.44 801.016 1650.66 801.016 1647.59 801.016C1641.47 800.738 1635.62 798.511 1641.19 794.057C1641.47 795.727 1641.75 797.119 1642.03 798.789C1642.03 799.903 1643.7 799.903 1643.7 798.789C1643.42 783.758 1639.24 771.789 1628.11 761.49C1614.18 748.128 1601.1 737.829 1599.15 716.952C1595.81 680.488 1627.55 645.136 1665.41 648.477C1700.22 652.374 1729.17 681.323 1725.83 718.066ZM1648.99 718.901C1648.71 719.458 1648.43 720.293 1648.15 720.849C1647.59 718.066 1647.04 715.004 1646.2 712.22C1646.2 711.942 1645.92 711.942 1645.92 711.942L1646.2 711.664C1652.33 704.426 1650.66 715.282 1648.99 718.901Z" fill="#877F79"/>
<path d="M1649.82 626.487C1648.15 628.157 1648.99 631.219 1649.27 633.446C1649.54 634.837 1651.49 634.837 1651.77 633.446C1652.05 631.219 1652.89 628.157 1650.94 626.487C1650.66 626.208 1650.1 626.208 1649.82 626.487Z" fill="#877F79"/>
<path d="M1648.43 619.249C1648.71 620.641 1650.38 620.641 1650.66 619.249C1651.77 609.785 1657.06 592.805 1648.99 585.29C1648.43 584.733 1647.6 585.011 1647.32 585.846C1646.48 590.857 1647.32 596.424 1647.6 601.434C1647.6 607.28 1647.87 613.404 1648.43 619.249Z" fill="#877F79"/>
<path d="M1690.75 638.456C1695.2 635.672 1697.43 630.105 1699.66 625.651C1701.89 621.198 1705.23 615.352 1704.67 610.063C1704.67 609.228 1703.84 608.672 1703 609.228C1699.1 611.455 1697.71 617.022 1696.32 620.919C1694.37 626.486 1691.86 631.775 1689.36 637.064C1689.08 638.177 1689.91 639.012 1690.75 638.456Z" fill="#877F79"/>
<path d="M1706.62 601.991C1707.46 600.878 1707.73 599.486 1708.29 598.372C1708.85 596.981 1709.13 595.589 1708.85 594.197C1708.85 593.362 1708.01 593.084 1707.18 593.64C1705.23 595.31 1703.84 598.929 1704.39 601.434C1704.95 602.269 1706.06 602.826 1706.62 601.991Z" fill="#877F79"/>
<path d="M1722.21 658.497C1724.16 657.662 1725.83 656.549 1727.22 654.879C1728.34 653.487 1730.56 651.538 1730.84 649.59C1730.84 649.033 1730.56 648.477 1730.01 648.477C1728.06 648.477 1726.67 650.425 1725.55 651.817C1724.16 653.487 1723.05 655.435 1721.38 656.549C1720.54 657.384 1721.1 659.054 1722.21 658.497Z" fill="#877F79"/>
<path d="M1738.92 643.745C1743.09 641.239 1746.71 637.899 1750.33 634.837C1752.56 632.889 1758.13 628.992 1757.01 625.651C1757.01 625.095 1756.46 624.816 1755.9 624.816C1753.95 624.816 1753.39 625.93 1752.28 627.322C1750.61 629.27 1748.94 630.94 1747.27 632.61C1743.93 635.672 1740.03 638.456 1737.52 642.353C1736.69 643.188 1738.08 644.301 1738.92 643.745Z" fill="#877F79"/>
<path d="M1739.2 684.941C1745.04 684.663 1750.05 681.601 1755.62 679.653C1760.08 677.982 1765.37 677.426 1767.87 672.972C1768.15 672.415 1767.87 671.859 1767.32 671.859C1757.57 671.58 1747.55 679.096 1738.92 682.715C1737.8 683.55 1737.8 685.22 1739.2 684.941Z" fill="#877F79"/>
<path d="M1780.68 667.405C1779.84 667.127 1779.29 667.683 1778.45 667.962C1777.62 668.518 1776.5 668.797 1775.39 669.075C1774 669.353 1774.83 671.302 1775.95 671.024C1777.62 670.745 1780.68 670.189 1780.96 668.24C1781.24 667.683 1780.96 667.405 1780.68 667.405Z" fill="#877F79"/>
<path d="M1745.6 716.396C1744.49 716.674 1744.49 718.066 1745.6 718.344C1754.23 718.901 1764.25 718.901 1772.88 717.231C1774.28 716.952 1774.28 714.726 1772.88 714.726C1764.25 713.334 1754.23 715.282 1745.6 716.396Z" fill="#877F79"/>
<path d="M1744.21 748.407C1741.42 747.572 1738.64 747.293 1736.13 746.458C1735.02 746.18 1734.18 747.85 1735.3 748.407C1737.52 749.52 1739.75 750.355 1741.98 751.19C1743.93 752.025 1746.16 752.86 1748.38 752.025C1748.66 752.025 1748.94 751.469 1748.94 751.19C1748.1 749.52 1746.16 748.963 1744.21 748.407Z" fill="#877F79"/>
<path d="M1780.12 759.541C1772.05 756.201 1763.14 755.366 1755.06 752.86C1753.95 752.582 1753.67 753.974 1754.51 754.53C1761.19 759.263 1771.21 761.489 1779.29 763.16C1781.79 763.716 1782.35 760.376 1780.12 759.541Z" fill="#877F79"/>
<path d="M1623.65 639.569C1624.49 640.126 1625.32 639.013 1624.76 638.178C1621.98 632.889 1619.47 627.878 1617.25 622.311C1615.86 618.414 1614.46 612.847 1610.29 610.62C1609.45 610.342 1608.89 610.899 1608.62 611.455C1608.34 616.466 1611.96 622.311 1614.18 626.765C1616.69 631.497 1619.2 637.064 1623.65 639.569Z" fill="#877F79"/>
<path d="M1606.67 603.661C1607.22 604.218 1608.34 603.939 1608.62 603.104C1609.17 600.599 1607.78 596.981 1605.55 595.31C1605 594.754 1604.16 595.032 1604.16 595.867C1604.16 597.259 1604.44 598.651 1605 600.042C1605.28 601.434 1605.55 602.826 1606.67 603.661Z" fill="#877F79"/>
<path d="M1593.58 658.776C1591.91 657.662 1590.8 655.714 1589.41 654.044C1588.29 652.652 1586.9 650.982 1584.95 650.982C1584.39 650.982 1584.12 651.539 1584.12 652.095C1584.39 654.044 1586.62 655.992 1588.01 657.106C1589.41 658.776 1591.08 659.889 1593.03 660.446C1593.86 661.281 1594.42 659.333 1593.58 658.776Z" fill="#877F79"/>
<path d="M1564.07 637.621C1567.69 640.683 1571.59 644.023 1575.76 646.25C1576.6 646.806 1577.71 645.693 1577.15 644.858C1574.65 640.961 1570.47 638.456 1567.13 635.394C1565.46 634.002 1563.79 632.332 1562.4 630.662C1561.01 629.27 1560.45 627.878 1558.22 627.878C1557.67 627.878 1557.39 628.157 1557.11 628.713C1556.27 632.332 1561.84 635.951 1564.07 637.621Z" fill="#877F79"/>
<path d="M1560.17 682.993C1565.74 684.663 1570.75 687.446 1576.88 687.725C1577.99 687.725 1577.99 686.055 1577.16 685.776C1568.25 682.436 1558.22 675.199 1548.48 675.755C1547.92 675.755 1547.36 676.312 1547.92 676.869C1550.43 681.044 1555.72 681.601 1560.17 682.993Z" fill="#877F79"/>
<path d="M1544.02 721.128C1552.65 722.519 1562.68 722.241 1571.31 721.128C1572.42 721.128 1572.42 719.458 1571.31 719.179C1562.68 718.344 1552.65 716.952 1544.02 718.344C1542.63 718.622 1542.63 720.849 1544.02 721.128Z" fill="#877F79"/>
<path d="M1581.61 748.963C1579.1 749.799 1576.32 750.355 1573.54 751.19C1571.59 751.747 1569.92 752.582 1569.08 754.531C1569.08 754.809 1569.36 755.087 1569.64 755.366C1571.87 755.922 1574.09 755.087 1576.04 754.252C1578.27 753.417 1580.5 752.304 1582.72 751.19C1583.84 750.355 1583 748.407 1581.61 748.963Z" fill="#877F79"/>
<path d="M1562.96 755.922C1554.88 758.706 1545.97 760.098 1538.18 763.438C1535.95 764.273 1536.78 767.613 1539.29 767.057C1544.02 765.943 1548.76 763.995 1553.49 762.603C1557.11 761.211 1560.73 760.098 1564.07 757.593C1564.35 757.036 1564.07 755.366 1562.96 755.922Z" fill="#877F79"/>
<path d="M1656.78 658.498C1648.15 657.384 1639.8 660.168 1632.56 664.9C1626.71 668.797 1617.8 675.477 1618.36 682.993C1618.36 683.55 1619.2 684.106 1619.75 683.828C1625.04 679.931 1628.11 673.807 1633.4 669.632C1639.8 664.343 1648.15 660.168 1656.5 660.446C1657.62 660.724 1657.9 658.776 1656.78 658.498Z" fill="#877F79"/>
<path d="M1612.79 692.735C1609.73 696.632 1606.95 702.756 1609.73 707.488C1610.01 708.045 1611.12 708.045 1611.4 707.488C1612.24 705.54 1612.51 703.313 1612.79 701.364C1613.07 698.859 1613.91 696.632 1615.3 694.684C1616.13 693.014 1613.91 691.343 1612.79 692.735Z" fill="#877F79"/>
<rect x="1895" y="474" width="474" height="474" fill="#F6F6F6"/>
<path d="M2085.73 644.759C2086.68 646.715 2087.75 648.416 2089.07 650.232C2094.71 657.355 2101.95 657.563 2108.94 654.914C2114.06 648.977 2117.12 641.503 2114.79 633.124C2111.32 621.179 2100.16 613.405 2093.17 603.843C2092.78 603.361 2092.13 602.764 2091.62 602.535C2091.45 613.755 2089.42 625.05 2087.38 636.345C2086.75 639.112 2086.11 641.878 2085.73 644.759Z" fill="#F8C62A"/>
<path d="M2204.01 722.48C2207.97 700.143 2224.56 682.282 2227.02 659.881C2227 659.259 2226.86 658.891 2226.83 658.269C2220.27 659.281 2213.75 658.173 2207.43 655.935C2205.58 674.947 2197.41 691.722 2192.28 709.869C2191.85 711.507 2191.42 713.144 2190.99 714.781C2192.12 714.984 2193.11 714.82 2194.21 714.402C2192.99 715.074 2191.77 715.746 2190.53 715.796C2189.55 719.324 2188.83 722.966 2188.1 726.608C2190.47 726.762 2192.82 726.294 2194.92 725.711C2197.76 728.213 2203.08 727.252 2204.01 722.48Z" fill="#F8C62A"/>
<path d="M2214.41 643.818C2215.54 644.022 2216.65 643.603 2217.61 642.817C2217.98 642.678 2218.21 642.17 2218.58 642.031C2219.2 642.006 2220.07 642.095 2220.7 642.07C2222.54 641.373 2223.48 639.965 2224.02 638.074C2224.34 636.69 2223.92 635.586 2223.62 634.228C2223.48 633.859 2223.45 633.237 2223.32 632.869C2223.18 632.501 2223.29 632.247 2223.15 631.879C2223.01 631.511 2223.13 631.257 2223.1 630.635C2220.53 634.975 2217.6 639.453 2214.41 643.818Z" fill="#F8C62A"/>
<path d="M2206.87 750.024C2207.6 749.745 2208.59 749.581 2209.35 749.924C2219.13 745.17 2225.95 738.168 2215.6 728.617C2215.2 728.134 2214.7 727.906 2214.19 727.677C2210.59 746.511 2184.73 751.04 2168.64 750.815C2140.72 750.443 2111.1 742.29 2084.14 735.027C2083.69 736.043 2083.23 737.058 2083.28 738.302C2083.22 739.799 2083.41 741.411 2084.84 742.973C2094.79 754.783 2121.15 756.588 2135.42 758.132C2154.32 760.237 2169.86 762.353 2188.86 760.841C2185.7 771.932 2183.05 780.511 2178.64 791.652C2173.89 803.555 2169.53 815.94 2161.73 826.47C2152.17 839.563 2132.65 846.952 2115.16 845.787C2128.29 849.869 2141.39 853.329 2154.98 853.654C2158.41 852.145 2161.33 850.408 2164.22 848.049C2171.32 841.783 2177.05 832.457 2181.4 822.813C2185.17 808.334 2189.06 793.6 2192.33 778.891C2194.56 769.208 2196.16 753.445 2206.87 750.024Z" fill="#DBD9D7"/>
<path d="M2201.05 754.12C2206.14 753.666 2211.07 752.222 2215.04 748.823C2215.16 748.569 2215.16 748.569 2215.27 748.315C2223.66 743.243 2226.35 726.44 2215.17 724.149C2214.91 724.035 2214.8 724.288 2214.43 724.428L2214.18 724.313C2211.94 724.528 2209.45 724.628 2207.22 724.842C2217.19 703.385 2227.18 679.186 2230.86 656.114C2231.86 653.208 2229.85 649.551 2228.5 647.113C2225.37 640.512 2222.83 633.263 2221.54 625.964C2221.38 624.974 2220.34 623.894 2219.35 624.059C2214.65 624.995 2211.74 630.096 2209.15 633.813C2205.62 638.939 2198.77 645.319 2195.24 650.445C2191.6 655.825 2189.68 660.761 2187.3 666.712C2182.07 679.008 2178.93 690.722 2175.33 703.45C2173.34 709.884 2171.87 716.547 2170.51 722.956C2168.76 722.777 2167 722.598 2165.25 722.42C2171.36 700.744 2171.23 675.956 2173.57 653.809C2174.55 644.176 2175.42 634.797 2176.29 625.417C2176.8 619.541 2177.17 613.297 2177.68 607.42C2178.07 601.798 2178.47 596.175 2178.61 590.438C2178.76 588.065 2179.64 582.049 2176.85 580.791C2172.53 578.847 2167.9 578.285 2163.15 577.978C2157.02 577.353 2150.02 576.638 2144.07 577.624C2140.11 578.282 2140.61 581.253 2139.74 584.527C2139.34 586.786 2138.93 589.045 2138.52 591.304C2137.71 595.822 2137.15 600.454 2136.95 604.947C2136.09 614.326 2135.33 623.452 2134.84 632.692C2134.44 638.314 2134.04 643.937 2133.65 649.559C2132.41 665.183 2131.29 680.553 2130.05 696.177C2129.59 703.297 2129.92 711.382 2128.83 718.527C2125.08 718.056 2120.95 717.723 2117.19 717.251C2118.34 714.714 2117.43 710.639 2117.21 708.405C2116.59 702.325 2115.26 697.146 2112.8 691.763C2114.02 691.091 2114.62 690.444 2115.33 689.543C2117.07 686.358 2114.63 681.597 2113.74 678.144C2112.6 674.577 2110.5 665.691 2106.25 662.249C2116.43 655.236 2121.81 643.308 2118.05 630.626C2113.33 615.367 2098.01 603.275 2084.28 596.477C2081.74 595.333 2080.11 598.264 2081.43 600.08C2081.57 600.448 2081.96 600.93 2082.36 601.413C2084.14 611.682 2076.6 622.327 2073.61 631.667C2071.29 638.862 2069.26 647.415 2071.32 655.058C2073.37 662.7 2079.37 666.32 2086.01 667.175C2083.04 673.773 2081.92 683.038 2083.81 689.69C2084.53 692.152 2085.96 693.714 2087.99 694.629C2087.27 698.272 2087.67 702.118 2088.08 705.964C2088.41 707.944 2088.74 709.924 2089.18 711.651C2085.91 710.786 2082.88 710.035 2079.72 708.916C2079.22 708.688 2078.73 709.081 2078.51 709.588C2073.74 712.023 2071.2 716.984 2071.54 722.328C2071.67 725.437 2071.64 730.921 2080.53 734.924C2083.14 737.933 2083.4 741.411 2083.07 745.536C2082.51 750.169 2081.95 754.801 2081.39 759.433C2080.61 767.937 2079.95 776.187 2080.05 784.779C2080.22 801.343 2081.52 818.111 2085.28 834.156C2087.83 844.768 2098.23 846.094 2107.68 848.829C2114.88 851.156 2123.44 853.179 2131.8 853.59C2136.8 854.011 2141.92 854.179 2146.78 854.233C2157.61 853.922 2167.64 855.387 2172.95 844.957C2180.8 829.565 2187.04 814.364 2191.98 797.968C2196.01 783.602 2197.78 768.829 2201.05 754.12ZM2217.93 629.224C2218.71 632.93 2219.99 636.866 2221.13 640.433C2219.29 641.13 2217.68 641.319 2215.16 640.798C2213.52 640.365 2211.63 639.818 2210.11 639.132C2212.02 636.937 2214.9 631.215 2217.93 629.224ZM2208.57 641.187C2210.63 642.724 2213.17 643.868 2215.82 644.758C2217.71 645.305 2220.45 645.319 2222.41 644.368C2223.66 647.682 2224.55 651.135 2225.81 654.448C2222.33 654.713 2218.79 656.475 2215.17 656.371C2211.55 656.268 2207.79 655.796 2204.75 654.423C2202.72 653.508 2201.05 652.454 2199.02 651.539C2202.63 648.279 2205.73 644.79 2208.57 641.187ZM2197.99 653.823C2203.86 657.076 2207.83 659.781 2215.32 660.103C2218.06 660.117 2221.43 660.106 2224.62 659.106C2216.66 680.856 2211.71 703.357 2204.11 724.968C2194.89 725.089 2185.65 724.589 2176.27 723.72C2184.56 700.587 2189.57 676.588 2197.99 653.823ZM2135.54 711.779C2137.55 712.072 2139.18 712.504 2141.3 712.544C2143.42 712.583 2145.68 712.99 2147.41 712.547C2148.15 712.268 2148.6 711.253 2147.96 710.656C2146.38 708.726 2144.03 709.194 2141.55 709.295C2139.68 709.37 2137.81 709.445 2135.95 709.52C2136.65 705.256 2137.23 701.245 2137.68 696.866C2139.43 697.045 2141.32 697.592 2143.07 697.771C2145.19 697.81 2147.45 698.218 2149.18 697.774C2149.92 697.495 2150.37 696.48 2149.73 695.883C2148.15 693.953 2145.8 694.421 2143.32 694.522C2141.45 694.597 2139.33 694.557 2137.46 694.632C2137.91 690.254 2138.22 685.507 2138.41 681.014C2139.79 681.332 2141.18 681.65 2142.67 681.715C2144.79 681.754 2147.05 682.161 2148.78 681.718C2149.52 681.439 2149.97 680.424 2149.33 679.827C2147.75 677.897 2145.4 678.365 2142.92 678.465C2141.3 678.655 2139.81 678.591 2138.31 678.526C2138.53 674.655 2138.74 670.784 2138.71 666.799C2140.46 666.977 2141.84 667.295 2143.59 667.474C2145.71 667.513 2147.97 667.921 2149.7 667.478C2150.44 667.199 2150.89 666.184 2150.25 665.587C2148.67 663.657 2146.32 664.125 2143.84 664.225C2141.97 664.3 2140.47 664.236 2138.61 664.311C2138.94 660.186 2138.9 656.201 2139.12 652.329C2140.87 652.508 2142.25 652.826 2144.01 653.005C2146.13 653.044 2148.38 653.452 2150.11 653.008C2150.85 652.73 2151.31 651.715 2150.66 651.118C2149.08 649.187 2146.74 649.656 2144.25 649.756C2142.64 649.945 2140.88 649.767 2139.02 649.842C2139.11 648.966 2139.08 648.344 2139.17 647.468C2139.41 644.219 2139.54 641.224 2139.78 637.975C2141.17 638.293 2142.55 638.611 2144.05 638.675C2146.17 638.714 2148.43 639.122 2150.16 638.679C2150.89 638.4 2151.35 637.385 2150.7 636.788C2149.13 634.858 2146.78 635.326 2144.29 635.426C2142.79 635.362 2141.18 635.551 2139.94 635.601C2140.38 631.223 2140.46 626.983 2140.65 622.49C2142.66 622.783 2144.55 623.33 2146.42 623.255C2148.54 623.295 2150.8 623.702 2152.52 623.259C2153.26 622.98 2153.72 621.965 2153.07 621.368C2151.5 619.438 2149.15 619.906 2146.66 620.006C2144.54 619.967 2142.67 620.042 2140.44 620.256C2140.77 616.131 2140.73 612.146 2140.95 608.275C2142.34 608.593 2143.72 608.911 2145.22 608.976C2147.34 609.015 2149.6 609.422 2151.32 608.979C2152.06 608.7 2152.52 607.685 2151.87 607.088C2150.3 605.158 2147.95 605.626 2145.46 605.726C2143.96 605.662 2142.35 605.852 2140.85 605.787C2141.03 604.036 2140.95 602.17 2141.13 600.418C2141.17 598.299 2141.32 595.925 2141.48 593.552C2142.86 593.87 2144.5 594.303 2146.11 594.113C2148.23 594.152 2150.49 594.56 2152.22 594.117C2152.95 593.838 2153.41 592.823 2152.76 592.226C2151.19 590.296 2148.84 590.764 2146.35 590.864C2144.74 591.053 2143.24 590.989 2141.38 591.064C2141.48 587.447 2141.47 584.083 2140.72 580.999C2140.86 581.367 2147.73 581.714 2148.6 581.803C2151.23 582.071 2154.23 582.2 2156.86 582.468C2161.23 582.914 2165.75 583.729 2170.16 584.798C2170.92 585.141 2172.42 585.205 2172.81 585.688C2173.09 586.424 2172.18 588.455 2172.2 589.077C2171.79 591.336 2171.39 593.595 2170.98 595.854C2169.35 604.89 2168.23 614.155 2167.36 623.534C2166.41 633.789 2165.7 644.158 2164.49 654.299C2163 669.808 2161.26 685.203 2159.77 700.712C2159.17 707.464 2159.47 714.928 2158.25 721.705C2155.11 721.208 2151.86 720.965 2148.98 720.582C2143.22 719.818 2137.59 719.421 2131.83 718.656C2134.36 716.436 2135.02 714.292 2135.54 711.779ZM2082.45 622.216C2083.89 617.673 2086.73 607.965 2086.44 603.865C2092.66 609.72 2102.87 615.539 2108.12 622.18C2115.08 631.119 2114.32 642.986 2109.05 651.297C2109.66 647.908 2109.51 644.177 2109.38 641.067C2108.88 634.733 2106.41 629.35 2101.88 625.172C2100.98 624.46 2100.04 625.869 2100.69 626.466C2105.36 631.012 2106.97 636.928 2106.85 643.287C2106.89 647.272 2105.57 651.561 2105.35 655.432C2103.9 656.612 2102.46 657.792 2100.61 658.489C2100.44 654.135 2099.53 650.06 2098.61 645.985C2097.35 639.308 2095.71 632.771 2094.08 626.233C2093.66 625.129 2091.93 625.572 2092.1 626.562C2094.28 637.314 2094.98 648.623 2097.41 659.489C2095.94 660.047 2094.22 660.49 2092.6 660.68C2091.61 660.844 2090.37 660.894 2089.49 660.805C2088.19 656.248 2086.03 652.223 2084.98 647.78C2083.62 641.979 2084.64 636.331 2085.66 630.684C2085.86 629.554 2084.11 629.375 2083.91 630.505C2081.71 640.81 2081.4 651.662 2087 660.905C2069.83 658.357 2079.35 631.81 2082.45 622.216ZM2088.58 684.514C2088.24 679.17 2087.62 673.09 2088.78 667.811C2093.02 667.889 2097.72 666.953 2101.63 665.051C2103.87 668.2 2105.98 670.981 2107.63 674.777C2108.49 677.608 2109.86 680.668 2110.1 683.524C2110.36 687.001 2107.25 687.127 2104.05 688.127C2101.22 688.989 2098.02 689.99 2095.03 689.861C2090.79 689.783 2088.99 688.36 2088.58 684.514ZM2091.87 704.316C2091.38 701.346 2090.77 698.629 2090.28 695.659C2094.8 696.474 2100.48 695.373 2104.31 694.347C2106.03 693.904 2108.13 693.321 2110.22 692.738C2111.05 697.689 2111.61 702.525 2111.93 707.247C2112.03 709.735 2111.93 713.352 2112.54 716.068C2106.77 715.304 2100.76 714.424 2094.97 713.038C2092.63 710.764 2092.51 707.654 2091.87 704.316ZM2075.67 722.66C2074.87 718.331 2076.13 715.54 2079.25 712.673C2090.56 718.074 2099.94 718.942 2110.85 720.497C2125.76 722.638 2140.42 724.665 2155.45 726.552C2169.1 728.121 2182.74 729.69 2196.5 731.005C2202.63 731.63 2209.36 731.609 2216.05 727.602C2218.19 731.005 2219.19 734.204 2217.5 738.632C2216.01 741.932 2213.48 744.151 2210.7 746.257C2188.75 748.884 2167.05 748.262 2145.01 745.66C2133.11 744.27 2122.19 742.093 2110.84 738.812C2104.66 736.943 2097.9 736.343 2091.61 734.727C2085.17 732.743 2076.85 730.213 2075.67 722.66ZM2168.68 838.151C2165.37 845.511 2160.86 848.06 2152.52 848.271C2138.21 848.846 2125.16 846.63 2111.35 844.071C2110.85 843.842 2110.22 843.867 2109.72 843.639C2099.75 840.676 2094.54 838.02 2091 827.572C2089.28 821.91 2088.26 815.348 2087.53 809.521C2085.68 794.645 2085.28 778.589 2085.67 763.497C2085.91 754.143 2087.4 744.739 2085.67 735.714C2088.32 736.604 2090.83 737.125 2093.49 738.015C2108.87 742.505 2123.54 747.895 2139.59 750.239C2153.63 752.291 2167.5 753.352 2181.72 753.652C2186.83 753.82 2192.71 754.331 2198.31 754.106C2194.88 761.72 2193.85 770.109 2191.8 778.04C2187.93 793.396 2182.85 809.424 2176.45 823.636C2173.79 828.851 2170.86 833.329 2168.68 838.151Z" fill="#877F79"/>
<rect x="2369" y="474" width="474" height="474" fill="black"/>
<rect x="473" y="1422" width="474" height="474" transform="rotate(-180 473 1422)" fill="white"/>
<path d="M-0.999938 948L473 948L473 1422L-0.999938 948Z" fill="#FFEAAA"/>
<rect x="-1" y="1896" width="474" height="474" transform="rotate(-90 -1 1896)" fill="#F8C62A"/>
<rect x="947" y="1896" width="474" height="474" transform="rotate(-180 947 1896)" fill="black"/>
<rect x="473" y="948" width="474" height="474" fill="#F6F6F6"/>
<path d="M753.418 1151.63C750.634 1145.23 747.015 1139.66 745.344 1132.7C744.231 1127.14 743.395 1121.85 741.725 1116.56C740.611 1113.22 737.827 1110.71 734.208 1111.55C723.906 1113.78 713.605 1112.94 703.025 1111.83C702.189 1111.83 701.354 1111.55 700.797 1111.55C696.064 1124.91 687.712 1137.16 679.359 1148.85C704.695 1170.56 710.82 1213.71 710.264 1246.27C710.264 1246.27 710.542 1246.27 710.542 1246C710.82 1246 711.377 1246.27 711.934 1246.27C715.553 1246.83 718.338 1245.72 720.287 1244.05C720.008 1243.21 720.008 1242.38 720.008 1241.54C721.679 1231.24 724.741 1220.94 728.918 1211.48C728.918 1209.53 728.918 1207.58 728.918 1205.63C730.031 1203.41 731.423 1201.46 732.537 1199.23C738.941 1188.65 744.231 1177.52 751.191 1167.5C755.646 1161.38 756.481 1158.87 753.418 1151.63ZM718.894 1144.12C720.287 1147.46 719.73 1151.35 716.667 1153.86C713.048 1156.64 706.923 1156.09 703.86 1152.75C701.633 1150.24 701.076 1146.9 701.911 1143.84C701.354 1141.33 703.025 1139.39 705.252 1138.55C705.53 1138.55 705.531 1138.55 705.809 1138.27C709.15 1136.04 713.605 1135.77 717.224 1137.99C718.895 1138.83 719.73 1141.89 718.894 1144.12Z" fill="#DBD9D7"/>
<path d="M761.214 1166.66C762.606 1164.99 764.277 1163.05 764.834 1160.82C765.112 1159.71 765.112 1158.31 764.834 1157.2C764.555 1156.37 763.72 1155.81 763.163 1154.97C762.328 1154.14 761.771 1153.02 761.214 1151.91C760.1 1149.96 758.987 1147.74 757.873 1145.79C755.646 1141.61 753.697 1137.16 751.748 1132.7C749.521 1127.42 747.572 1120.74 744.787 1114.33C746.458 1114.05 748.407 1113.5 750.077 1113.22C751.191 1112.94 751.191 1110.99 751.469 1109.88C751.748 1108.49 752.026 1106.82 752.305 1105.43C752.583 1102.36 752.862 1099.58 752.305 1096.52C752.026 1093.73 751.47 1090.95 750.356 1088.17C749.799 1087.05 749.242 1085.11 747.85 1084.27C746.18 1083.44 744.231 1083.44 742.282 1082.88C740.054 1082.32 737.827 1082.04 735.6 1081.77C731.145 1081.21 726.69 1081.21 722.235 1081.21C714.44 1080.93 706.644 1080.93 698.848 1081.21C694.394 1081.21 689.939 1081.49 685.484 1082.04C683.257 1082.32 681.029 1082.6 678.802 1083.16C677.132 1083.44 675.183 1083.44 673.791 1084.55C672.677 1085.38 671.563 1086.5 671.006 1087.89C669.614 1090.67 669.336 1093.73 669.057 1096.52C668.501 1101.81 668.779 1106.82 671.006 1111.55C671.006 1111.83 671.285 1112.11 671.563 1112.38C672.955 1112.66 674.347 1112.94 675.461 1112.94C672.12 1117.95 669.893 1126.58 667.387 1132.43C664.046 1140.22 660.148 1148.01 655.415 1155.25C654.301 1157.2 653.466 1158.59 654.301 1160.82C654.858 1163.05 656.807 1164.99 657.921 1166.66C663.211 1173.9 668.501 1180.3 673.234 1188.1C676.853 1193.94 679.916 1200.07 682.978 1206.19C686.041 1212.59 688.547 1219 691.052 1225.4C692.723 1229.57 694.394 1233.75 695.786 1238.2C696.621 1240.99 696.899 1245.16 699.405 1247.11C701.911 1248.78 705.53 1247.94 708.314 1247.94C710.82 1247.94 713.048 1248.22 715.553 1247.67C716.946 1247.39 718.616 1247.94 720.008 1247.39C721.122 1246.83 721.122 1245.44 721.4 1244.33C722.514 1237.37 725.577 1230.69 728.082 1224.28C732.815 1211.76 738.384 1199.79 745.344 1188.38C750.077 1180.58 755.924 1173.9 761.214 1166.66ZM705.809 1152.75C703.303 1151.35 701.911 1148.01 701.354 1145.51C700.519 1140.5 704.138 1136.32 709.15 1136.88C713.048 1137.16 716.946 1140.22 717.781 1144.12C718.894 1149.41 714.997 1152.47 710.542 1153.58C708.871 1153.86 707.201 1153.58 705.809 1152.75ZM748.685 1110.16C736.992 1106.82 722.792 1109.04 710.542 1109.04C697.735 1109.04 684.927 1109.04 672.399 1110.99C671.563 1106.54 672.398 1101.53 673.234 1097.35C674.069 1094.01 675.739 1090.67 676.018 1087.05C677.132 1087.05 678.524 1087.05 679.637 1087.05C693.837 1086.78 708.036 1087.33 722.235 1086.78C729.753 1086.5 737.549 1087.05 745.066 1087.05C746.18 1090.39 747.293 1093.73 747.85 1097.35C748.685 1101.25 749.242 1105.98 748.685 1110.16ZM759.822 1156.92C749.521 1164.44 740.89 1181.14 735.321 1191.44C726.412 1208.14 721.4 1225.12 718.059 1243.77C715.553 1243.21 713.048 1242.93 710.263 1242.93C712.491 1228.46 711.656 1213.43 711.656 1198.68C711.656 1185.04 712.769 1171.12 710.82 1157.48C716.946 1157.76 722.514 1150.8 721.957 1144.4C721.4 1137.72 715.275 1132.43 708.593 1132.15C700.519 1131.59 695.229 1138.83 696.621 1146.62C697.456 1150.52 699.684 1154.69 703.303 1156.64C704.695 1157.48 706.366 1157.76 707.758 1157.48C705.809 1170.84 706.644 1185.04 706.922 1198.4C707.201 1213.15 706.087 1228.18 708.314 1242.66C706.087 1242.66 702.746 1242.38 700.519 1243.21C697.456 1224.84 692.166 1207.86 683.535 1191.16C677.967 1180.58 669.336 1164.16 659.034 1156.64C665.159 1149.68 668.779 1143 672.677 1134.65C675.183 1129.09 677.967 1121.29 679.637 1113.5C690.496 1114.89 699.405 1114.33 710.542 1114.61C720.008 1114.61 730.588 1116 740.333 1115.17C740.054 1121.29 742.56 1128.53 744.787 1133.54C748.685 1142.17 753.697 1149.96 759.822 1156.92Z" fill="#877F79"/>
<path d="M793.511 1208.97C792.397 1212.04 789.613 1214.54 786.272 1214.82C785.993 1214.82 785.715 1214.82 785.437 1214.82C785.437 1214.82 785.437 1214.82 785.158 1214.82C781.539 1232.91 773.465 1251.56 759.265 1263.25C751.469 1269.66 738.941 1276.34 726.412 1279.4C734.486 1279.12 742.56 1279.4 750.634 1279.4C759.265 1279.4 767.896 1278.84 776.806 1279.68C777.084 1278.01 777.919 1276.62 779.59 1275.78C780.982 1275.22 782.374 1275.22 783.766 1275.5C785.715 1276.06 787.664 1276.62 788.778 1278.29C789.891 1279.96 789.613 1282.18 789.056 1283.85C788.221 1286.08 786.272 1288.03 783.766 1288.03C783.488 1288.03 783.488 1288.03 783.209 1288.03C780.425 1288.03 778.198 1285.52 777.362 1282.74C768.731 1283.3 759.822 1283.02 750.913 1283.02C739.776 1283.02 728.361 1283.57 717.224 1282.46C715.832 1286.08 712.491 1289.14 708.314 1289.42C708.036 1289.42 707.758 1289.42 707.479 1289.42C703.303 1289.14 700.24 1286.36 698.291 1282.74C687.99 1283.57 677.41 1283.02 666.83 1283.02C658.199 1283.02 649.29 1283.57 640.38 1282.74C639.545 1285.52 637.318 1287.75 634.533 1288.03C634.255 1288.03 634.255 1288.03 633.977 1288.03C631.471 1288.03 629.522 1286.08 628.687 1283.85C627.851 1282.18 627.851 1279.96 628.965 1278.29C630.079 1276.62 632.028 1275.78 633.977 1275.5C635.369 1275.22 636.761 1275.22 638.153 1275.78C639.823 1276.62 640.937 1278.01 640.937 1279.68C649.568 1279.12 658.199 1279.4 667.108 1279.4C676.018 1279.4 684.927 1279.12 693.558 1279.4C681.029 1276.34 668.222 1269.66 660.426 1263.25C646.227 1251.28 638.153 1232.63 634.533 1214.54C632.028 1214.54 629.243 1214.54 627.295 1212.59C625.346 1210.64 624.789 1207.86 625.067 1205.36C625.346 1202.02 627.295 1198.95 630.636 1197.84C630.914 1197.84 631.192 1197.56 631.471 1197.56C639.267 1195.89 646.784 1207.58 640.38 1212.87C639.545 1213.43 638.71 1213.98 637.874 1214.26C644.557 1232.08 649.847 1249.89 666.83 1261.86C676.018 1268.26 686.876 1272.44 697.735 1274.39C698.291 1272.16 699.684 1270.21 702.468 1269.1C704.695 1268.26 707.201 1268.26 709.428 1268.82C712.769 1269.66 715.832 1270.49 717.502 1273.55C717.781 1274.11 718.059 1274.67 718.338 1275.22C731.145 1273.55 743.395 1269.38 753.975 1262.14C770.959 1250.17 776.249 1232.36 782.931 1214.54C777.084 1211.48 774.857 1201.18 781.539 1198.4C783.209 1197.56 785.437 1197.56 787.107 1198.12C789.891 1198.68 792.397 1199.51 793.789 1202.02C794.624 1203.69 794.346 1206.47 793.511 1208.97Z" fill="#877F79"/>
<rect x="947" y="948" width="474" height="474" fill="white"/>
<path d="M1164.76 1145.12C1163.93 1144.57 1163.09 1144.01 1161.98 1143.73C1156.97 1142.9 1151.68 1148.19 1151.68 1152.92C1151.4 1157.93 1155.3 1161.55 1160.03 1162.94C1161.15 1163.22 1162.54 1163.22 1163.65 1162.94C1164.21 1162.94 1164.49 1162.66 1165.04 1162.38C1165.32 1162.38 1165.32 1162.1 1165.6 1162.1C1168.38 1161.83 1170.89 1160.43 1172.28 1157.93C1175.34 1152.08 1170.33 1146.24 1164.76 1145.12Z" fill="#F8C62A"/>
<path d="M1253.86 1090.01C1232.98 1095.3 1213.21 1098.64 1192.61 1104.48C1174.51 1109.77 1156.41 1113.95 1138.31 1118.96C1117.15 1124.8 1100.45 1130.09 1075.95 1136.5C1075.39 1136.77 1074 1137.33 1074 1137.89C1077.06 1160.71 1084.58 1182.7 1089.87 1204.97C1095.72 1229.19 1102.96 1252.85 1109.64 1277.07C1109.92 1277.9 1110.19 1278.46 1110.75 1278.74C1111.31 1279.57 1113.26 1279.29 1114.65 1279.01C1140.26 1272.61 1165.04 1267.05 1190.66 1260.64C1204.86 1257.02 1219.33 1253.41 1233.53 1249.51C1253.3 1243.94 1274.74 1238.93 1294.51 1233.92C1295.06 1234.2 1294.51 1231.14 1294.51 1230.3C1291.45 1207.48 1281.98 1185.76 1276.69 1163.5C1270.84 1139.84 1256.92 1089.18 1253.86 1090.01ZM1291.45 1230.3C1271.96 1233.36 1253.58 1239.77 1234.65 1244.5C1219.89 1248.12 1205.14 1251.74 1190.38 1255.35C1165.04 1261.48 1139.99 1267.88 1114.65 1274C1102.12 1228.91 1087.64 1185.49 1076.51 1140.11C1096.55 1137.05 1115.21 1129.82 1134.97 1124.8C1154.74 1120.07 1174.51 1115.62 1194 1110.05C1213.49 1104.48 1233.26 1099.47 1253.02 1094.46C1265 1139.56 1280.03 1184.93 1291.45 1230.3Z" fill="#877F79"/>
<path d="M1248.29 1100.59C1229.36 1105.32 1210.98 1108.66 1192.33 1114.23C1157.25 1124.25 1122.17 1135.38 1086.81 1144.01C1086.53 1144.01 1086.25 1144.29 1086.25 1144.57C1086.25 1144.85 1085.97 1144.85 1085.97 1145.12C1091.26 1187.16 1105.46 1226.96 1116.6 1267.6C1117.16 1269.83 1119.66 1269.83 1121.05 1268.72H1121.33C1139.71 1264.26 1158.64 1259.81 1177.02 1254.8C1211.82 1245.05 1282.81 1228.35 1282.81 1227.8C1277.25 1186.6 1263.6 1147.35 1252.75 1107.55C1251.63 1104.21 1251.35 1099.75 1248.29 1100.59ZM1280.59 1224.73C1263.32 1227.24 1246.62 1232.53 1229.64 1236.7C1211.54 1241.16 1193.16 1245.33 1175.07 1250.07C1157.25 1255.08 1138.87 1258.69 1120.77 1263.15C1109.92 1223.62 1097.67 1184.65 1087.64 1145.12C1105.74 1142.34 1123 1136.77 1140.54 1132.6C1158.08 1128.42 1175.62 1124.53 1193.16 1119.52C1210.7 1114.51 1229.91 1109.77 1247.46 1105.32C1258.87 1145.4 1270.29 1184.93 1280.59 1224.73Z" fill="#877F79"/>
<path d="M1261.93 1201.63C1243.84 1186.6 1226.02 1164.05 1202.91 1156.54C1197.62 1154.87 1197.06 1154.87 1193.44 1158.49C1185.65 1166.28 1181.47 1178.81 1175.34 1188.27C1173.95 1187.44 1172.84 1186.6 1171.45 1185.76C1168.38 1183.82 1163.09 1179.36 1159.47 1178.81C1154.46 1177.97 1151.68 1181.03 1149.45 1184.93C1143.05 1194.95 1139.99 1208.31 1135.53 1219.17C1131.08 1230.3 1124.67 1240.88 1123.56 1252.85C1123.28 1254.24 1125.23 1254.52 1125.51 1253.13C1128.29 1243.38 1133.86 1234.76 1138.04 1225.57C1142.77 1215.55 1146.39 1205.25 1150.57 1195.23C1156.13 1181.59 1163.37 1187.44 1173.12 1193.56C1178.96 1197.46 1183.98 1201.07 1191.21 1200.52C1192.88 1200.52 1193.44 1198.01 1191.77 1197.46C1186.48 1195.23 1182.03 1192.45 1177.29 1189.66C1182.3 1184.65 1186.2 1178.53 1190.1 1172.4C1192.33 1169.06 1194.83 1162.38 1198.73 1161.55C1202.91 1160.71 1214.32 1169.9 1216.83 1171.85C1226.3 1178.25 1235.2 1185.49 1243.84 1193C1249.13 1197.73 1253.3 1202.47 1260.26 1204.14C1262.21 1204.97 1263.32 1202.47 1261.93 1201.63Z" fill="#877F79"/>
<path d="M1160.87 1168.51C1170.05 1169.62 1177.57 1161.27 1177.02 1152.36C1177.02 1152.08 1177.02 1151.53 1177.02 1151.25C1176.18 1144.57 1170.61 1138.72 1163.65 1139C1157.8 1139 1152.51 1143.18 1150.01 1148.47C1146.67 1156.82 1151.68 1167.39 1160.87 1168.51ZM1153.63 1149.86C1155.58 1144.85 1160.31 1141.78 1165.32 1144.01C1167.55 1144.85 1170.05 1146.79 1171.45 1148.74C1172.84 1150.69 1173.67 1152.92 1173.4 1155.15C1172.56 1159.88 1166.44 1164.61 1161.7 1164.33C1154.46 1163.5 1151.12 1156.26 1153.63 1149.86Z" fill="#877F79"/>
<path d="M1160.31 1135.66C1160.03 1134.55 1159.75 1133.43 1159.47 1132.04C1159.2 1131.21 1159.2 1130.37 1158.36 1130.37C1158.08 1130.37 1157.8 1130.65 1157.53 1130.93C1156.69 1132.6 1157.8 1133.99 1158.08 1135.66C1158.08 1137.33 1160.59 1137.05 1160.31 1135.66Z" fill="#877F79"/>
<path d="M1166.16 1171.57C1166.16 1172.96 1166.44 1175.19 1167.83 1175.74C1168.11 1175.74 1168.38 1175.74 1168.66 1175.47C1169.5 1174.35 1168.66 1172.68 1168.38 1171.29C1168.38 1169.62 1166.16 1169.9 1166.16 1171.57Z" fill="#877F79"/>
<path d="M1150.01 1140.95C1149.17 1140.11 1148.06 1139.56 1147.22 1138.72C1146.67 1138.17 1146.11 1137.61 1145.55 1138.17C1143.88 1139.84 1147.78 1142.06 1148.62 1142.62C1149.73 1144.01 1151.12 1142.06 1150.01 1140.95Z" fill="#877F79"/>
<path d="M1177.02 1165.72C1177.85 1166.84 1179.52 1168.23 1180.91 1167.67C1181.19 1167.67 1181.47 1167.39 1181.47 1167.12C1181.47 1165.72 1179.8 1165.17 1178.96 1164.05C1177.57 1162.94 1175.9 1164.61 1177.02 1165.72Z" fill="#877F79"/>
<path d="M1145.28 1151.53C1146.95 1151.81 1147.22 1149.58 1145.83 1149.02C1144.72 1148.74 1143.6 1148.74 1142.49 1148.46C1141.93 1148.46 1140.82 1147.91 1140.54 1148.74C1140.26 1149.3 1140.54 1149.58 1140.82 1149.86C1141.93 1151.53 1143.88 1151.25 1145.28 1151.53Z" fill="#877F79"/>
<path d="M1182.3 1155.15C1180.63 1154.59 1179.8 1156.82 1181.47 1157.37C1182.86 1157.65 1184.81 1158.21 1185.92 1157.09C1186.2 1156.82 1186.2 1156.54 1185.92 1156.26C1185.37 1155.15 1183.42 1155.42 1182.3 1155.15Z" fill="#877F79"/>
<path d="M1146.95 1160.16C1148.34 1159.88 1147.78 1157.37 1146.11 1157.93C1145 1158.21 1143.88 1158.76 1142.77 1159.04C1142.21 1159.32 1141.1 1159.6 1141.38 1160.43C1141.66 1162.66 1145.83 1160.43 1146.95 1160.16Z" fill="#877F79"/>
<path d="M1181.19 1148.19C1182.58 1147.91 1184.81 1147.63 1185.37 1145.96C1185.37 1145.68 1185.37 1145.4 1185.09 1145.12C1183.98 1144.57 1182.31 1145.4 1181.19 1145.68C1179.52 1146.24 1179.8 1148.74 1181.19 1148.19Z" fill="#877F79"/>
<path d="M1150.84 1167.11C1151.96 1166 1150.57 1164.05 1149.45 1165.17C1148.62 1166 1147.78 1166.84 1146.95 1167.67C1146.39 1168.23 1145.55 1168.79 1146.11 1169.34C1146.95 1171.57 1150.01 1167.95 1150.84 1167.11Z" fill="#877F79"/>
<path d="M1177.57 1142.06C1178.69 1141.23 1180.36 1140.11 1180.36 1138.44C1180.36 1138.17 1180.08 1137.89 1179.52 1137.89C1178.13 1137.89 1177.29 1139.56 1176.18 1140.11C1174.79 1140.95 1176.18 1142.9 1177.57 1142.06Z" fill="#877F79"/>
<path d="M1156.13 1170.18C1155.58 1171.29 1155.3 1172.4 1155.02 1173.52C1154.74 1174.35 1154.46 1174.91 1155.3 1175.47C1155.58 1175.74 1156.13 1175.47 1156.41 1175.47C1158.08 1174.63 1157.8 1172.68 1158.64 1171.29C1158.92 1169.9 1156.69 1168.79 1156.13 1170.18Z" fill="#877F79"/>
<path d="M1170.61 1136.77C1171.17 1135.66 1172.28 1133.71 1171.45 1132.32C1171.17 1132.04 1170.89 1132.04 1170.61 1132.04C1169.22 1132.6 1169.22 1134.55 1168.38 1135.66C1167.55 1137.05 1169.78 1138.17 1170.61 1136.77Z" fill="#877F79"/>
<rect x="1421" y="948" width="474" height="474" fill="#F8C62A"/>
<rect x="1895" y="948" width="474" height="474" fill="#333333"/>
<path d="M2173.96 1248.29C2176.74 1245.79 2180.08 1243.28 2183.7 1242.45C2180.64 1237.44 2177.58 1232.43 2174.23 1227.97C2162.26 1210.99 2150.85 1193.46 2139.15 1176.2C2128.3 1159.77 2116.88 1144.47 2104.63 1129.16C2099.62 1122.75 2094.89 1116.35 2090.99 1109.67C2084.03 1112.45 2077.9 1117.46 2074.28 1123.31C2067.88 1134.17 2082.08 1144.74 2087.65 1153.09C2099.34 1170.63 2111.87 1187.05 2124.68 1203.76C2136.09 1218.79 2145.84 1235.21 2157.53 1249.96C2156.97 1251.08 2156.42 1252.19 2156.42 1253.3C2156.14 1256.09 2158.37 1259.71 2161.71 1258.87C2167 1258.03 2170.06 1251.91 2173.96 1248.29Z" fill="#F8C62A"/>
<path d="M2192.61 1266.39C2190.94 1267.22 2189.27 1268.33 2187.88 1269.73C2185.09 1272.79 2182.87 1278.91 2187.32 1281.7C2189.55 1283.09 2191.78 1283.09 2193.72 1281.14C2194 1282.25 2194.28 1283.09 2195.12 1283.92C2195.95 1285.04 2197.34 1285.59 2198.46 1285.59C2196.23 1279.47 2194.28 1272.79 2192.61 1266.39Z" fill="#F8C62A"/>
<path d="M2201.24 1288.65C2195.12 1288.38 2190.94 1283.92 2185.65 1281.42C2178.97 1278.08 2172.01 1275.29 2165.88 1271.12C2162.82 1269.17 2161.15 1268.06 2159.48 1264.72C2157.53 1260.82 2155.02 1256.92 2152.52 1253.3C2147.79 1245.79 2142.77 1238.83 2138.04 1231.59C2130.24 1219.9 2122.45 1208.49 2114.37 1197.07C2099.06 1175.64 2079.85 1154.76 2068.16 1130.83C2064.26 1127.76 2061.48 1123.59 2062.03 1118.3C2062.03 1117.19 2062.31 1116.07 2062.87 1114.96C2059.8 1112.45 2058.41 1105.77 2058.13 1102.43C2057.58 1096.59 2058.69 1089.91 2062.59 1085.73C2065.37 1082.67 2068.99 1081 2072.89 1081C2080.13 1081 2088.2 1086.29 2092.94 1091.58C2093.22 1092.13 2093.77 1092.41 2094.05 1092.97C2094.33 1093.25 2094.61 1094.08 2094.89 1094.08C2095.16 1094.36 2096 1094.36 2096.28 1094.36C2096.83 1094.64 2097.11 1094.64 2097.67 1094.92C2098.51 1095.2 2099.34 1095.75 2100.18 1096.31C2101.85 1097.42 2103.52 1099.09 2104.63 1100.76C2105.19 1101.6 2106.02 1102.43 2106.58 1103.27C2106.86 1103.83 2107.41 1105.22 2107.97 1105.77C2117.72 1111.34 2123.28 1122.2 2129.41 1131.38C2138.04 1144.19 2147.23 1156.71 2155.86 1169.8C2164.77 1182.88 2173.4 1196.52 2181.75 1209.88C2188.99 1221.57 2198.46 1232.98 2201.52 1246.62C2202.63 1251.35 2202.36 1255.81 2202.91 1260.54C2203.75 1269.17 2205.42 1277.52 2205.42 1286.15C2205.42 1288.38 2203.47 1288.93 2201.8 1288.93C2201.8 1288.65 2201.52 1288.65 2201.24 1288.65ZM2200.68 1283.64C2200.41 1278.08 2200.13 1272.79 2199.85 1267.22C2196.79 1267.78 2193.72 1269.73 2191.5 1271.67C2189.83 1273.34 2188.99 1275.29 2187.88 1277.24C2191.78 1279.47 2196.23 1281.7 2200.68 1283.64ZM2197.9 1245.79C2192.89 1241.33 2181.75 1246.9 2177.02 1249.68C2170.89 1253.58 2164.77 1259.15 2163.38 1266.39C2170.62 1268.89 2177.3 1271.95 2183.98 1275.29C2185.09 1272.51 2187.32 1269.73 2189.27 1268.33C2191.78 1266.39 2195.95 1263.88 2199.29 1264.72C2199.01 1258.03 2198.18 1252.47 2197.9 1245.79ZM2065.09 1110.78C2067.6 1107.44 2071.22 1104.94 2074.28 1102.43C2078.74 1098.81 2084.58 1094.36 2090.71 1093.8C2084.03 1088.24 2072.89 1082.95 2066.49 1090.46C2060.64 1097.14 2062.31 1103.83 2065.09 1110.78ZM2067.88 1125.26C2069.55 1119.69 2078.18 1113.57 2081.8 1111.62C2086.25 1109.11 2091.27 1106.89 2096.28 1105.77C2098.78 1105.22 2101.29 1105.22 2103.8 1105.22C2100.18 1102.16 2097.11 1099.93 2092.66 1099.65C2087.93 1099.37 2080.96 1102.99 2077.07 1105.77C2072.06 1109.67 2068.16 1112.18 2067.32 1118.3C2066.77 1121.64 2067.04 1123.31 2067.88 1125.26ZM2160.59 1260.26C2166.16 1248.85 2187.88 1236.32 2197.07 1241.06C2182.87 1218.51 2167.83 1196.52 2152.24 1174.81C2136.93 1153.09 2120.22 1132.22 2106.02 1109.11C2102.12 1110.78 2097.67 1111.06 2093.77 1112.45C2089.6 1114.12 2085.42 1116.63 2081.8 1119.41C2080.96 1120.25 2071.78 1128.6 2072.33 1129.43C2079.57 1137.78 2084.58 1145.86 2090.15 1153.93C2098.78 1166.73 2108.81 1178.7 2117.44 1191.51C2126.35 1204.59 2134.98 1218.23 2143.33 1231.59C2149.18 1240.22 2156.42 1250.24 2160.59 1260.26Z" fill="#877F79"/>
<rect x="2369" y="948" width="474" height="474" fill="white"/>
<path d="M2571.45 1203.55C2577.57 1186.29 2592.33 1174.88 2602.35 1159.85C2605.42 1162.35 2608.76 1164.86 2611.54 1167.36C2615.44 1170.7 2612.38 1176.83 2607.92 1175.99C2608.2 1179.33 2604.58 1181.84 2601.52 1181.56C2601.24 1183.79 2599.57 1185.46 2597.34 1186.01C2597.34 1186.29 2597.62 1186.29 2597.62 1186.57C2598.73 1190.19 2595.12 1193.25 2591.77 1193.25H2591.5C2593.44 1196.59 2592.61 1201.88 2588.15 1202.16C2587.6 1202.16 2587.04 1202.16 2586.76 1202.16C2584.26 1202.16 2581.47 1204.94 2578.41 1204.94C2577.57 1204.94 2576.46 1204.66 2575.63 1204.39C2573.4 1208 2569.78 1211.07 2566.16 1214.68C2568.11 1211.62 2570.06 1207.73 2571.45 1203.55Z" fill="#F8C62A"/>
<path d="M2562.82 1235.56C2566.16 1240.29 2569.78 1244.75 2572.84 1249.48C2573.4 1250.59 2574.51 1251.15 2575.35 1251.43C2576.74 1254.77 2578.13 1258.11 2579.25 1261.73C2581.47 1268.96 2584.26 1279.26 2576.74 1284.27C2573.68 1286.22 2570.61 1286.5 2567.83 1285.67C2566.99 1283.72 2566.16 1281.77 2565.6 1280.1C2564.21 1265.07 2563.65 1250.31 2562.82 1235.56Z" fill="#F8C62A"/>
<path d="M2601.52 1111.14C2600.68 1113.08 2600.13 1115.59 2600.96 1117.54C2601.8 1119.49 2602.91 1121.44 2604.3 1122.83C2605.42 1123.94 2606.53 1125.05 2607.64 1126.17C2597.34 1135.08 2590.1 1145.37 2581.75 1156.23C2578.97 1159.85 2562.26 1181.84 2560.87 1187.68C2560.31 1189.91 2561.43 1192.42 2561.98 1194.92C2563.65 1202.44 2556.97 1206.61 2556.14 1210.51C2555.58 1212.46 2555.58 1214.41 2556.97 1216.08C2558.92 1218.3 2561.7 1218.03 2564.21 1216.91C2567.83 1214.96 2570.34 1207.45 2577.85 1207.45C2580.36 1207.45 2583.14 1207.73 2585.09 1206.61C2595.95 1201.32 2603.19 1187.96 2610.43 1178.5C2619.06 1167.36 2626.85 1157.62 2632.7 1145.1C2633.26 1145.37 2633.82 1145.65 2634.37 1146.21C2635.49 1147.04 2638.27 1148.16 2639.66 1148.99C2640.78 1149.55 2645.51 1150.11 2648.01 1147.04C2648.85 1146.21 2648.85 1144.82 2649.13 1143.7C2649.13 1141.48 2646.9 1138.42 2645.79 1136.75C2645.23 1135.91 2640.22 1129.79 2649.69 1118.65C2652.19 1115.87 2654.98 1113.08 2657.2 1110.02C2661.66 1103.06 2665.83 1084.14 2652.75 1083.02C2645.23 1082.47 2637.43 1092.49 2633.54 1097.22C2631.03 1100.28 2628.8 1103.9 2626.3 1106.96C2622.96 1110.86 2621.29 1114.75 2615.16 1113.08C2613.21 1112.53 2609.87 1110.3 2607.92 1109.74C2607.64 1109.74 2607.64 1109.47 2607.37 1109.47C2605.14 1108.91 2602.35 1108.91 2601.52 1111.14ZM2590.38 1154C2592.89 1157.07 2595.39 1159.57 2598.73 1162.08C2602.63 1165.14 2605.42 1166.81 2609.87 1169.03C2604.58 1176.27 2599.85 1182.4 2594.28 1189.35C2591.22 1192.97 2587.32 1198.82 2582.86 1201.05C2578.69 1203.27 2577.3 1202.16 2573.96 1203.83C2571.45 1204.94 2569.78 1207.45 2567.83 1209.12C2566.72 1210.23 2561.43 1216.63 2560.03 1213.01C2559.76 1212.46 2560.87 1211.62 2561.15 1211.07C2561.7 1208.84 2562.82 1207.17 2563.93 1205.22C2565.32 1202.99 2567.27 1200.77 2567.55 1197.98C2568.11 1194.37 2565.6 1192.14 2566.72 1187.68C2567.83 1182.95 2572.28 1177.39 2575.07 1173.49C2580.64 1166.81 2585.09 1160.96 2590.38 1154ZM2612.1 1128.39C2615.44 1130.9 2617.67 1133.4 2620.73 1135.63C2622.68 1137.02 2624.91 1138.42 2626.85 1140.09C2628.25 1141.2 2628.53 1140.92 2629.92 1141.76C2624.07 1150.11 2618.22 1158.18 2612.38 1166.53C2604.58 1161.8 2600.68 1156.51 2593.17 1151.22C2599.29 1143.43 2605.7 1135.63 2612.1 1128.39ZM2605.14 1114.48C2605.97 1113.36 2608.76 1114.48 2609.59 1114.75C2613.49 1116.15 2616.83 1119.21 2621.29 1118.1C2622.68 1117.82 2624.07 1116.98 2625.18 1115.87C2628.8 1112.81 2638.55 1098.61 2640.78 1096.38C2645.51 1091.65 2649.13 1087.2 2654.14 1091.93C2659.99 1097.22 2654.14 1106.13 2648.57 1112.53C2646.9 1114.48 2645.23 1115.87 2643.56 1117.82C2641.33 1120.32 2639.11 1122.55 2637.99 1125.89C2635.76 1132.57 2649.41 1143.15 2644.12 1144.26C2636.32 1145.93 2630.2 1135.35 2623.79 1130.06C2618.22 1125.61 2609.31 1122.83 2605.42 1116.7C2605.14 1116.43 2604.58 1115.31 2605.14 1114.48Z" fill="#877F79"/>
<path d="M2570.34 1287.06C2580.92 1286.22 2582.59 1274.81 2581.75 1266.18C2580.92 1258.67 2577.85 1251.71 2573.96 1245.3C2570.06 1238.62 2563.93 1233.33 2560.03 1226.65C2560.03 1226.38 2559.76 1226.38 2559.48 1226.38C2558.64 1225.26 2556.97 1225.54 2556.42 1226.65C2548.34 1239.74 2543.33 1289.01 2570.34 1287.06ZM2556.14 1250.87C2556.97 1244.75 2559.2 1238.62 2559.76 1232.5C2561.98 1236.68 2565.88 1240.85 2568.11 1244.47C2570.89 1249.48 2573.96 1254.77 2575.63 1260.34C2576.46 1263.68 2577.3 1267.02 2577.02 1270.36C2577.02 1274.25 2575.35 1280.66 2571.17 1282.05C2556.69 1286.22 2555.02 1258.94 2556.14 1250.87Z" fill="#877F79"/>
<rect x="1421" y="1422" width="474" height="474" fill="#333333"/>
<path d="M1425 1896C1425 1834.28 1437.16 1773.16 1460.78 1716.14C1484.4 1659.12 1519.02 1607.3 1562.66 1563.66C1606.3 1520.02 1658.12 1485.4 1715.14 1461.78C1772.16 1438.16 1833.28 1426 1895 1426L1895 1896L1425 1896Z" fill="#877F79"/>
<rect x="947" y="1422" width="474" height="474" fill="#F6F6F6"/>
<path d="M1241.11 1619.25C1242.29 1612.16 1239.73 1605.67 1236.39 1599.57C1232.06 1598.38 1226.94 1598.78 1222.21 1600.35C1213.35 1603.7 1203.12 1616.3 1210 1625.55C1209.41 1626.54 1209.22 1627.91 1209.61 1629.49C1211.38 1634.02 1213.94 1637.36 1217.09 1639.33C1227.13 1641.5 1239.53 1627.52 1241.11 1619.25Z" fill="#DBD9D7"/>
<path d="M1176.54 1618.08C1185.79 1614.33 1186.58 1604.49 1182.65 1593.86C1179.89 1586.38 1175.36 1579.89 1169.66 1574.57C1162.18 1575.75 1155.68 1580.68 1153.51 1588.35C1151.54 1596.23 1153.71 1605.09 1158.83 1611.39C1163.16 1616.5 1170.24 1619.65 1176.54 1618.08Z" fill="#F8C62A"/>
<path d="M1119.06 1655.48C1123.98 1658.04 1129.69 1658.63 1134.8 1656.66C1137.56 1656.66 1139.92 1656.27 1142.09 1655.28C1145.63 1640.32 1134.61 1625.76 1122.01 1617.1C1114.93 1619.85 1108.43 1626.35 1107.25 1634.23C1105.67 1642.89 1111.38 1651.35 1119.06 1655.48Z" fill="#DBD9D7"/>
<path d="M1141.29 1716.31C1141.88 1716.51 1142.28 1716.5 1143.07 1716.5C1148.97 1711.39 1151.33 1702.33 1150.94 1694.46C1150.35 1683.63 1145.04 1675.56 1134.21 1673.79C1133.82 1673.79 1133.23 1673.99 1133.03 1674.18C1124.76 1676.94 1118.66 1683.44 1118.07 1692.3C1117.67 1700.96 1122.4 1710.4 1130.07 1714.54C1133.42 1716.31 1137.36 1716.7 1141.29 1716.31Z" fill="#F8C62A"/>
<path d="M1116.68 1745.25C1132.04 1755.88 1155.26 1766.11 1171.01 1750.75C1181.84 1740.32 1184.4 1723.98 1195.23 1713.15C1210 1698.78 1224.76 1713.94 1238.14 1721.81C1246.21 1726.73 1256.06 1729.48 1265.31 1726.14C1276.33 1722.2 1282.83 1710.98 1287.16 1700.74C1291.69 1689.52 1295.04 1678.69 1296.02 1666.68C1297.6 1645.03 1292.09 1623.38 1281.07 1604.88C1276.54 1597.2 1271.03 1590.11 1264.93 1583.62C1248.59 1566.89 1231.08 1555.27 1207.65 1551.93C1182.26 1548.59 1156.27 1553.31 1133.44 1565.13C1112.96 1575.76 1094.06 1593.09 1084.22 1614.35C1074.96 1634.62 1075.95 1660.8 1079.68 1682.26C1084.01 1707.06 1095.43 1730.29 1116.68 1745.25ZM1094.84 1711.2C1083.82 1690.33 1081.46 1665.13 1083.43 1641.91C1085.2 1618.09 1097.21 1598.99 1115.52 1583.83C1152.14 1553.51 1210.01 1544.84 1248.4 1575.75C1267.49 1591.29 1283.43 1611.17 1289.33 1635.58C1295.04 1658.61 1290.51 1685.19 1279.68 1706.25C1279.48 1706.45 1279.29 1707.04 1279.09 1707.24C1274.36 1715.9 1265.11 1722.79 1254.68 1722.2C1245.43 1721.61 1236.96 1713.94 1229.29 1709.01C1219.25 1702.52 1207.83 1697.4 1196.61 1704.69C1180.07 1715.32 1179.28 1740.52 1162.75 1749.97C1138.34 1763.75 1104.88 1730.29 1094.84 1711.2Z" fill="#877F79"/>
<path d="M1236.77 1646.02C1243.47 1642.87 1249.57 1637.56 1253.11 1631.26C1257.25 1623.58 1256.07 1616.1 1252.13 1608.23C1248.98 1601.93 1243.67 1597.01 1236.78 1595.23C1221.03 1591.3 1205.87 1604.1 1205.67 1620.04C1205.48 1635.2 1220.43 1653.31 1236.77 1646.02ZM1210.99 1617.88C1211.78 1609.61 1217.49 1602.72 1225.36 1599.96C1232.25 1597.4 1240.52 1599.37 1246.03 1605.27C1249.38 1609.01 1252.33 1615.51 1251.34 1620.43C1250.16 1628.7 1245.44 1634.6 1237.96 1639.33C1230.48 1644.05 1224.37 1644.25 1218.07 1637.56C1213.15 1632.25 1210 1625.16 1210.99 1617.88Z" fill="#877F79"/>
<path d="M1178.32 1570.24C1171.03 1570.83 1163.55 1573.59 1157.84 1578.51C1151.15 1584.42 1149.97 1591.9 1150.95 1600.36C1151.74 1607.45 1155.28 1613.75 1160.99 1617.88C1174.37 1626.93 1193.27 1620.24 1198.79 1605.28C1203.91 1591.1 1195.84 1568.86 1178.32 1570.24ZM1193.08 1605.48C1189.53 1612.96 1181.86 1617.48 1173.59 1617.49C1166.11 1617.49 1159.22 1612.96 1155.87 1605.68C1153.91 1600.95 1153.51 1593.87 1155.88 1589.54C1160.01 1582.25 1166.51 1578.12 1174.77 1576.15C1183.24 1574.37 1189.34 1576.15 1192.88 1584.41C1195.64 1591.11 1196.23 1599.18 1193.08 1605.48Z" fill="#877F79"/>
<path d="M1108.62 1650.96C1113.94 1656.27 1120.83 1660.01 1128.31 1661.19C1136.97 1662.37 1143.66 1658.43 1149.37 1652.33C1154.1 1647.21 1156.85 1640.52 1156.07 1633.43C1154.49 1617.29 1136.78 1607.45 1122.01 1612.77C1107.64 1618.08 1096.03 1638.36 1108.62 1650.96ZM1125.75 1616.9C1133.83 1614.73 1142.29 1617.69 1147.6 1623.79C1152.52 1629.5 1153.7 1637.76 1149.96 1645.05C1147.8 1649.58 1142.68 1654.3 1137.76 1655.29C1129.49 1656.86 1122.21 1654.7 1115.51 1649.58C1108.43 1644.46 1106.07 1638.56 1110 1630.29C1113.15 1624.38 1118.86 1618.67 1125.75 1616.9Z" fill="#877F79"/>
<path d="M1150.94 1720.05C1156.85 1715.72 1161.96 1709.42 1163.93 1702.33C1166.49 1693.86 1163.74 1686.78 1158.62 1680.09C1154.29 1674.57 1148.19 1670.84 1141.1 1670.44C1124.96 1669.66 1112.36 1685.41 1115.51 1700.76C1118.07 1715.92 1136.57 1730.48 1150.94 1720.05ZM1120.04 1697.81C1119.25 1689.54 1123.38 1681.86 1130.47 1677.53C1136.77 1673.59 1145.24 1673.79 1151.93 1678.51C1156.06 1681.46 1160 1687.37 1160.19 1692.29C1160.59 1700.56 1157.24 1707.45 1150.94 1713.35C1144.84 1719.46 1138.54 1721.03 1131.25 1715.72C1125.15 1711.59 1120.82 1704.89 1120.04 1697.81Z" fill="#877F79"/>
<rect x="1895" y="1422" width="474" height="474" fill="white"/>
<path d="M2226.42 1630.46C2228.16 1619.18 2232.19 1599.82 2217.52 1598.04C2193.75 1594.92 2167.66 1598.46 2143.81 1599C2141.84 1598.93 2140.72 1600.43 2140.15 1602.02C2133.48 1601.39 2126.38 1601.54 2119.09 1602.78C2118.06 1600.62 2116.07 1599.13 2113.73 1599.56C2092.57 1603.97 2070.5 1600.87 2049.11 1601.86C2048.4 1596.36 2039.33 1596.43 2039.18 1602.06C2039.18 1613.09 2036.95 1624 2038.37 1635C2038.88 1638.48 2043.2 1641.24 2046.38 1639.26C2057.72 1632.8 2071.95 1637.05 2084.3 1637.56C2086.54 1637.68 2089.03 1636.43 2090.02 1634.06C2093.62 1623.39 2103.67 1617.84 2114.09 1614.89C2113.77 1615.12 2113.72 1615.39 2113.45 1615.34C2102.5 1619.61 2094.33 1625.78 2088.83 1637.52C2083.66 1649.04 2080.05 1664.51 2084.07 1676.82C2091.88 1701.13 2122.89 1711.2 2145.91 1704.28C2170.99 1696.89 2186.21 1667.1 2175.01 1642.75C2167.64 1627.02 2147.76 1613.28 2129.28 1612.24C2134.73 1611.8 2140.03 1612.18 2145.24 1613.11C2156.7 1615.44 2160.85 1620.71 2167.2 1629.48C2174.41 1639.82 2182.57 1638.45 2194.33 1639.14C2204.39 1639.81 2215.63 1641.82 2224.3 1636.02C2225.91 1634.89 2226.48 1633.3 2226.18 1631.83C2225.91 1631.78 2226.28 1631.28 2226.42 1630.46ZM2161.64 1643.19C2175.24 1662.02 2162.62 1688.33 2141.77 1694.21C2125.1 1698.87 2101.1 1692.31 2094.94 1674.53C2091.58 1664.88 2095.22 1650.82 2099.31 1642.22C2103.81 1632.85 2110.37 1627.8 2118.93 1624.24C2134.06 1621.86 2152.59 1630.54 2161.64 1643.19ZM2193.05 1627.32C2189.39 1627.23 2186.67 1628.16 2183.11 1627.52C2180.64 1627.08 2178.95 1627.06 2177.73 1625.99C2178.39 1623.85 2178.51 1621.61 2178.08 1619.27C2178.13 1618.99 2177.91 1618.67 2177.95 1618.4C2183.78 1617.46 2189.41 1617.62 2195.04 1617.78C2198.42 1617.82 2200.76 1617.39 2201.82 1620.97C2202.7 1623.95 2200.68 1624.16 2201.29 1627.09C2198.82 1626.65 2195.56 1627.48 2193.05 1627.32Z" fill="#F8C62A"/>
<path d="M2229.07 1727.92C2229.22 1727.1 2229.09 1726.23 2229.24 1725.41C2229.85 1720.43 2230.78 1715.22 2231.11 1710.19C2232.5 1697.71 2233.66 1684.91 2233.35 1672.42C2232.85 1648.29 2232.18 1623.57 2230.27 1599.48C2230.06 1597.46 2227.92 1596.79 2226.28 1596.5C2213.94 1594.29 2201.67 1594.93 2189.27 1594.69C2181.4 1594.41 2173.75 1594.46 2165.83 1594.46C2164.35 1591.65 2161.58 1589.74 2158.17 1588.28C2158.28 1582.92 2158.39 1577.57 2157.62 1572.34C2157.55 1571.2 2156.55 1570.46 2155.4 1570.53C2138.42 1570.61 2121.08 1569.49 2104.08 1571.25C2102.94 1571.33 2102.19 1572.33 2102.27 1573.47C2102.81 1578.38 2102.8 1583.18 2102.46 1588.21C2098.83 1589.54 2095.7 1591.24 2093.46 1594.24C2090.08 1594.2 2086.97 1594.21 2083.53 1594.44C2084.22 1590.6 2082.81 1585.83 2081.7 1582.52C2079.67 1576.5 2074.26 1576.66 2068.59 1576.78C2063.78 1576.77 2058.83 1577.58 2054.15 1578.44C2052.08 1578.92 2049.52 1579.02 2047.8 1580.7C2044.7 1583.82 2045.99 1590.84 2046.8 1595.79C2042.82 1595.92 2039.11 1596.11 2035.08 1596.52C2034.35 1595.82 2033.38 1596.5 2033.23 1597.32C2031.89 1598.49 2031.78 1600.74 2032.95 1602.08C2032.18 1620.6 2028.03 1639.09 2028.36 1657.81C2028.85 1681.93 2029.52 1706.65 2031.43 1730.75C2031.67 1734.19 2037.84 1734.44 2040.36 1734.61C2051.19 1735.7 2061.73 1735.32 2072.43 1735.54C2086.8 1735.85 2101.32 1735.33 2115.96 1735.69C2134.59 1735.91 2153.49 1736.18 2172.17 1736.13C2180.09 1736.13 2188.06 1735.86 2196.03 1735.59C2203.99 1735.32 2212.09 1735.92 2220.06 1735.64C2221.75 1735.66 2223.77 1735.46 2225.61 1734.66C2229.01 1733 2229.18 1730.49 2229.07 1727.92ZM2223.8 1600.86C2222.56 1612.52 2222.75 1624.15 2223.25 1635.55C2212.76 1632.54 2199.19 1634.07 2189.03 1633.95C2183.4 1633.79 2178 1633.96 2172.37 1633.8C2171.82 1633.7 2167.82 1627.61 2167.1 1626.92C2164.97 1624.56 2162.8 1622.47 2160.58 1620.66C2155.86 1616.99 2150.45 1614.04 2144.57 1612.14C2123.18 1605.21 2099.77 1614.31 2087.88 1633.39C2070.89 1633.46 2054.09 1634.13 2037.18 1635.35C2037.31 1628.31 2037.71 1621.31 2038.12 1614.31C2038.25 1610.38 2038.94 1606.54 2038.21 1602.73C2073.45 1606.49 2109.9 1601.98 2145.19 1602.36C2157.91 1602.37 2170.69 1602.11 2183.46 1601.85C2197.11 1601.46 2210.78 1602.49 2223.8 1600.86ZM2112.01 1617.06C2116.56 1615.33 2121.29 1614.2 2126.37 1614.26C2133.74 1614.17 2140.96 1614.89 2147.42 1618.31C2156.53 1622.76 2163.85 1630.86 2168.83 1639.39C2184.99 1666.03 2167.64 1701.38 2137.42 1705.88C2110.68 1709.86 2084.13 1690.69 2083.45 1662.86C2083 1643.26 2094.3 1624.36 2112.01 1617.06ZM2107.37 1579.76C2108.62 1574.33 2107.23 1575.77 2112.23 1574.69C2116.32 1574.01 2121.07 1574.29 2125.01 1574.43C2132.38 1574.33 2139.75 1574.24 2147.07 1574.42C2151.28 1574.6 2152.85 1573.75 2154.4 1577.71C2155.38 1580.14 2154.97 1584.03 2154.7 1587.09C2144.71 1584.46 2131.47 1585.76 2124.97 1585.73C2119.29 1585.85 2112.24 1585.72 2105.77 1587.11C2106.44 1584.96 2106.51 1583 2107.37 1579.76ZM2122.04 1589.45C2131.1 1589.37 2152.24 1586.65 2160.48 1594.35C2155.67 1594.33 2150.87 1594.32 2146.33 1594.36C2130.27 1594.03 2113.88 1593.93 2097.45 1594.1C2103.73 1589 2114.39 1589.5 2122.04 1589.45ZM2050.61 1587.14C2051.44 1582.48 2053.14 1582.5 2057.54 1581.59C2060.43 1581.26 2063.09 1580.6 2065.93 1580.55C2072.26 1579.98 2077.93 1579.87 2079.18 1587.16C2079.61 1589.5 2079.49 1591.74 2079.37 1593.98C2069.43 1594.18 2059.77 1594.43 2050.06 1594.96C2050.5 1592.49 2050.07 1590.15 2050.61 1587.14ZM2116.94 1727.1C2104.21 1727.08 2091.44 1727.34 2078.66 1727.6C2065.61 1727.81 2051.89 1727.06 2038.87 1728.69C2041.64 1703.73 2037.86 1679.02 2037.23 1654.02C2037.1 1650.04 2037.24 1646.11 2037.37 1642.17C2052.37 1643.72 2067.61 1643.91 2082.95 1643.54C2080.4 1649.87 2078.9 1656.67 2078.97 1662.62C2078.61 1693.1 2107.51 1714.95 2136.39 1711.63C2167.28 1708.11 2187.74 1677.55 2178.71 1647.38C2177.96 1645.26 2177.48 1643.2 2176.4 1641.31C2178.69 1641.15 2181.21 1641.32 2183.5 1641.16C2196.55 1640.95 2210.27 1641.71 2223.56 1640.13C2224.3 1651.85 2225.3 1663.63 2225.48 1675.25C2225.65 1688.57 2224.99 1701.74 2224.33 1714.92C2224.19 1718.85 2223.51 1722.69 2224.24 1726.49C2188.67 1722.96 2152.22 1727.47 2116.94 1727.1Z" fill="#877F79"/>
<path d="M2135.58 1698.76C2158.18 1695.73 2172.64 1673.44 2166.4 1651.39C2159.95 1627.34 2130.8 1614.77 2109.35 1628.75C2099.11 1635.4 2091.95 1648.54 2091.22 1660.57C2090.02 1684.67 2112.98 1701.79 2135.58 1698.76ZM2117.22 1629.03C2126.23 1626.11 2136.64 1627.97 2144.6 1632.51C2150.29 1635.51 2154.81 1640.27 2158.09 1645.67C2169.17 1664.33 2157.62 1689.41 2136.56 1693.28C2117.52 1696.94 2098.31 1684.18 2096.48 1664.34C2095.65 1653.16 2100.37 1641 2109.02 1633.78C2111.43 1631.38 2114.24 1629.91 2117.22 1629.03Z" fill="#877F79"/>
<path d="M2109.62 1652.55C2113.32 1649.25 2114.48 1644.37 2118.68 1641.45C2123.53 1638.07 2128.04 1639.73 2133.31 1638.69C2134.18 1638.56 2134.38 1637.47 2133.61 1637.05C2128.52 1633.87 2121.72 1632.37 2116.1 1635.33C2111.12 1637.83 2104.87 1644.35 2104.39 1650.2C2104.17 1652.99 2107.59 1654.45 2109.62 1652.55Z" fill="#877F79"/>
<path d="M2129.04 1686.28C2136.04 1686.68 2142.26 1683.55 2147.35 1678.81C2151.47 1674.74 2156.6 1666.61 2152.18 1661.29C2151.73 1660.65 2150.86 1660.77 2150.44 1661.55C2148.19 1666.23 2147.63 1670.94 2144 1675.38C2140.38 1679.83 2134.89 1683.65 2129.11 1684.31C2127.74 1684.07 2127.67 1686.04 2129.04 1686.28Z" fill="#877F79"/>
<path d="M2175.57 1619.1C2175.45 1621.34 2175.01 1623.81 2174.89 1626.05C2174.64 1627.42 2175.64 1628.16 2176.46 1628.31L2176.74 1628.36C2180.53 1629.32 2184.83 1628.96 2188.77 1629.1C2193.3 1629.06 2197.83 1629.02 2202.19 1628.39C2203.06 1628.26 2203.48 1627.49 2203.63 1626.66C2203.95 1626.44 2204.37 1625.67 2204.47 1625.12C2204.41 1622.28 2204.63 1619.49 2203.38 1617.01C2203.2 1616.41 2202.65 1616.31 2202.05 1616.49C2201.78 1616.44 2201.51 1616.39 2201.23 1616.34C2196.88 1616.97 2192.34 1617.01 2187.81 1617.05C2184.15 1616.96 2180.26 1616.55 2176.91 1617.93C2176.63 1617.88 2176.31 1618.1 2175.99 1618.33C2175.21 1617.91 2175.07 1618.73 2175.57 1619.1ZM2188.14 1619.94C2192.35 1620.12 2196.61 1620.04 2201.02 1619.13C2200.95 1621.1 2200.65 1622.74 2200.58 1624.71C2200.54 1624.98 2200.54 1624.98 2200.49 1625.25C2196.45 1625.66 2192.47 1625.8 2188.53 1625.66C2185.42 1625.67 2182.08 1625.36 2178.87 1625.91C2178.99 1623.67 2178.79 1621.66 2178.31 1619.59C2181.6 1620.18 2185.03 1619.95 2188.14 1619.94Z" fill="#877F79"/>
<rect x="2369" y="1422" width="474" height="474" fill="#F8C62A"/>
<circle cx="474" cy="1896" r="474" fill="#877F79"/>
</g>
<defs>
<clipPath id="clip0">
<rect width="2842" height="1896" fill="white"/>
</clipPath>
</defs>
</svg>
