<svg width="2842" height="1896" viewBox="0 0 2842 1896" fill="none" xmlns="http://www.w3.org/2000/svg">
<g clip-path="url(#clip0)">
<path d="M1671.18 1593.65C1671.18 1593.37 1671.18 1593.37 1671.18 1593.09C1671.18 1588.36 1663.66 1587.52 1661.99 1591.7C1657.53 1603.11 1658.93 1619.53 1669.51 1627.05C1672.29 1629 1675.07 1628.44 1677.3 1626.21C1682.87 1620.65 1691.78 1617.31 1689.55 1607.56C1687.33 1600.33 1678.69 1595.6 1671.18 1593.65Z" fill="#FCE4EC"/>
<path d="M1670.62 1527.4C1644.73 1517.66 1614.38 1529.62 1602.13 1553.56C1589.6 1578.06 1599.07 1610.07 1621.9 1625.66C1650.02 1644.59 1686.49 1629.55 1701.52 1601.44C1716.56 1572.49 1699.58 1538.25 1670.62 1527.4ZM1695.68 1598.1C1682.59 1623.15 1650.57 1636.24 1625.52 1620.37C1606.31 1608.4 1596.56 1584.74 1603.8 1564.42C1612.71 1539.37 1639.44 1523.78 1666.44 1532.97C1692.89 1541.87 1709.04 1572.21 1695.68 1598.1Z" fill="#C4C4C4"/>
<path d="M1636.65 1587.8C1609.65 1593.93 1591.27 1620.93 1594.33 1647.65C1597.4 1674.93 1623.29 1696.36 1650.85 1696.36C1684.54 1696.36 1706.81 1663.79 1703.47 1631.78C1700.13 1599.77 1667 1580.84 1636.65 1587.8ZM1696.79 1632.62C1699.85 1660.73 1680.64 1689.4 1650.85 1690.24C1628.3 1690.79 1606.86 1676.6 1601.57 1655.72C1595.17 1630.11 1608.53 1602.28 1636.1 1594.76C1663.1 1587.52 1693.45 1603.67 1696.79 1632.62Z" fill="#C4C4C4"/>
<path d="M1711.55 1545.49C1683.98 1546.6 1660.88 1569.99 1659.21 1596.71C1657.26 1623.99 1678.69 1649.87 1705.98 1654.89C1739.11 1661.01 1766.95 1632.9 1769.46 1600.88C1771.69 1568.87 1742.45 1544.1 1711.55 1545.49ZM1762.5 1600.61C1760.55 1629 1736.33 1653.49 1707.09 1649.04C1684.82 1645.7 1666.44 1627.61 1665.05 1606.45C1663.38 1580.01 1681.76 1554.96 1709.88 1552.73C1737.44 1549.94 1764.45 1571.66 1762.5 1600.61Z" fill="#C4C4C4"/>
<path d="M1004.35 1927.22C972.329 1921.1 940.032 1916.09 907.736 1911.91C849.546 1904.12 791.078 1898.83 733.167 1889.36C731.775 1896.88 730.383 1904.4 731.496 1911.91C732.053 1916.92 737.9 1917.2 740.127 1913.86C747.366 1917.2 754.884 1918.04 762.679 1919.43C776.044 1921.65 789.129 1924.44 802.493 1926.11C829.222 1929.17 855.115 1933.9 881.286 1939.47C907.179 1945.04 933.629 1947.82 959.8 1951.72C974 1953.94 988.199 1957.01 1002.4 1959.23C1011.31 1960.62 1023.56 1958.68 1031.63 1963.13C1032.75 1963.69 1033.58 1963.96 1034.69 1963.96C1037.48 1965.36 1041.38 1964.52 1041.93 1960.9C1042.77 1954.5 1043.05 1947.82 1043.6 1941.14C1043.88 1938.91 1043.88 1936.69 1044.16 1934.46C1030.52 1932.23 1017.43 1929.73 1004.35 1927.22Z" fill="#FCE4EC"/>
<path d="M1048.06 1915.53C1038.04 1909.68 1022.72 1909.96 1011.59 1908.01C986.528 1903.84 961.748 1899.66 936.691 1895.77C882.121 1886.86 827.55 1877.95 772.98 1870.16C760.173 1868.21 746.252 1865.15 733.166 1865.15C732.331 1865.15 732.053 1865.7 732.053 1866.26V1866.54C731.217 1874.61 728.99 1882.68 727.876 1890.76C727.041 1897.99 726.763 1904.95 724.814 1911.91C724.814 1912.19 724.814 1912.19 724.814 1912.47C723.979 1913.3 724.257 1914.97 725.371 1915.53C735.394 1921.38 750.707 1921.1 761.844 1923.05C786.901 1927.22 811.681 1931.4 836.738 1935.29C891.308 1944.2 945.879 1953.11 1000.45 1960.9C1013.26 1962.85 1027.18 1965.91 1040.26 1965.91C1041.1 1965.91 1041.38 1965.36 1041.38 1964.8V1964.52C1042.21 1956.45 1044.44 1948.38 1045.55 1940.3C1046.39 1933.07 1046.67 1926.11 1048.62 1919.15C1048.62 1918.87 1048.62 1918.87 1048.62 1918.59C1049.45 1917.76 1049.17 1916.09 1048.06 1915.53ZM992.096 1955.06C992.375 1954.22 992.375 1953.11 992.375 1952.27C992.653 1949.77 992.931 1947.26 992.931 1944.76C992.931 1943.64 991.539 1943.64 991.261 1944.48C990.426 1946.98 989.869 1949.49 989.312 1951.99C989.312 1952.83 989.034 1953.39 988.755 1954.22C983.465 1953.39 978.175 1952.55 972.607 1951.44C972.885 1950.6 972.885 1949.49 972.885 1948.65C973.164 1946.15 973.442 1943.64 973.442 1941.14C973.442 1940.03 972.05 1940.03 971.772 1940.86C970.936 1943.37 970.379 1945.87 969.823 1948.38C969.823 1949.21 969.544 1949.77 969.266 1950.6C963.976 1949.77 958.686 1948.93 953.117 1947.82C953.396 1946.98 953.396 1945.87 953.396 1945.04C953.674 1942.53 953.953 1940.03 953.953 1937.52C953.953 1936.41 952.561 1936.41 952.282 1937.24C951.447 1939.75 950.89 1942.25 950.333 1944.76C950.333 1945.59 950.055 1946.15 949.776 1946.98C944.486 1946.15 939.196 1945.31 933.628 1944.2C933.907 1943.37 933.907 1942.25 933.907 1941.42C934.185 1938.91 934.463 1936.41 934.463 1933.9C934.463 1932.79 933.071 1932.79 932.793 1933.62C931.958 1936.13 931.401 1938.63 930.844 1941.14C930.844 1941.97 930.566 1942.53 930.287 1943.37C924.997 1942.53 919.707 1941.7 914.139 1940.58C914.417 1939.75 914.417 1938.63 914.417 1937.8C914.696 1935.29 914.974 1932.79 914.974 1930.28C914.974 1929.17 913.582 1929.17 913.304 1930C912.468 1932.51 911.911 1935.02 911.355 1937.52C911.355 1938.36 911.076 1938.91 910.798 1939.75C905.508 1938.91 900.218 1938.08 894.649 1936.96C894.928 1936.13 894.928 1935.02 894.928 1934.18C895.206 1931.67 895.485 1929.17 895.485 1926.66C895.485 1925.55 894.093 1925.55 893.814 1926.39C892.979 1928.89 892.422 1931.4 891.865 1933.9C891.587 1934.74 891.587 1935.57 891.308 1936.13C886.018 1935.29 880.728 1934.46 875.16 1933.34C875.439 1932.51 875.439 1931.4 875.439 1930.56C875.717 1928.06 875.995 1925.55 875.995 1923.05C875.995 1921.93 874.603 1921.93 874.325 1922.77C873.49 1925.27 872.933 1927.78 872.376 1930.28C872.097 1931.12 872.098 1931.95 871.819 1932.79C866.529 1931.95 861.239 1931.12 855.671 1930C855.949 1928.89 855.949 1928.06 855.949 1927.22C856.228 1924.72 856.506 1922.21 856.506 1919.71C856.506 1918.59 855.114 1918.59 854.836 1919.43C854 1921.93 853.443 1924.44 852.887 1926.94C852.608 1927.78 852.608 1928.61 852.33 1929.45C847.04 1928.61 841.75 1927.78 836.181 1926.66C836.46 1925.55 836.46 1924.44 836.46 1923.6C836.738 1921.1 837.017 1918.59 837.017 1916.09C837.017 1914.97 835.625 1914.97 835.346 1915.81C834.511 1918.31 833.954 1920.82 833.397 1923.32C833.119 1924.16 833.119 1924.99 832.84 1925.83C827.55 1924.99 822.26 1924.16 816.692 1923.05C816.971 1921.93 816.971 1920.82 816.971 1919.98C817.249 1917.48 817.527 1914.97 817.527 1912.47C817.527 1911.35 816.135 1911.35 815.857 1912.19C815.022 1914.7 814.465 1917.2 813.908 1919.71C813.629 1920.54 813.629 1921.38 813.351 1922.21C808.061 1921.38 802.771 1920.54 797.203 1919.43C797.481 1918.31 797.481 1917.2 797.481 1916.37C797.76 1913.86 798.038 1911.35 798.038 1908.85C798.038 1907.74 796.646 1907.74 796.367 1908.57C795.532 1911.08 794.975 1913.58 794.419 1916.09C794.14 1916.92 793.862 1917.76 793.862 1918.59C788.572 1917.76 783.282 1916.92 777.713 1915.81C777.992 1914.7 777.992 1913.58 777.992 1912.75C778.27 1910.24 778.549 1907.74 778.549 1905.23C778.549 1904.12 777.157 1904.12 776.878 1904.95C776.043 1907.46 775.486 1909.96 774.929 1912.47C774.651 1913.3 774.372 1914.14 774.372 1914.97C771.031 1914.42 767.69 1913.86 764.349 1913.3C762.4 1913.02 760.451 1912.47 758.224 1912.19C758.502 1911.08 758.503 1909.96 758.503 1909.13C758.781 1906.62 759.059 1904.12 759.059 1901.61C759.059 1900.5 757.667 1900.5 757.389 1901.33C756.554 1903.84 755.997 1906.34 755.44 1908.85C755.161 1909.68 755.161 1910.52 754.883 1911.08C749.593 1909.96 744.303 1908.57 739.013 1907.74C739.013 1906.9 739.013 1906.07 739.292 1905.51C739.57 1903 739.848 1900.5 739.848 1897.99C739.848 1896.88 738.456 1896.88 738.178 1897.72C737.343 1900.22 736.786 1902.73 736.229 1905.23C736.229 1905.79 735.951 1906.34 735.951 1906.9C732.888 1906.34 729.825 1906.07 727.041 1906.07C730.661 1892.43 730.104 1876.28 729.268 1862.36C740.405 1863.2 751.542 1866.26 762.679 1867.93C786.901 1872.11 811.124 1876 835.346 1880.18C889.916 1889.36 944.486 1898.27 998.778 1907.46C1009.91 1909.41 1023.56 1913.86 1035.81 1913.86C1032.19 1927.5 1032.75 1943.64 1033.58 1957.56C1030.8 1957.28 1028.01 1957.01 1024.95 1956.45C1025.23 1955.34 1025.23 1954.22 1025.23 1953.39C1025.51 1950.88 1025.78 1948.38 1025.78 1945.87C1025.78 1944.76 1024.39 1944.76 1024.11 1945.59C1023.28 1948.1 1022.72 1950.6 1022.17 1953.11C1021.89 1953.94 1021.61 1954.78 1021.61 1955.61C1016.32 1954.78 1011.03 1953.67 1005.74 1952.55C1006.02 1951.72 1006.02 1950.6 1006.02 1949.77C1006.3 1947.26 1006.57 1944.76 1006.57 1942.25C1006.57 1941.14 1005.18 1941.14 1004.9 1941.97C1004.07 1944.48 1003.51 1946.98 1002.95 1949.49C1002.95 1950.32 1002.68 1950.88 1002.4 1951.72C1001.56 1951.44 1000.45 1951.44 999.613 1951.16C1001.01 1956.73 996.551 1955.89 992.096 1955.06Z" fill="#C4C4C4"/>
<path d="M1373.04 1495.62C1372.77 1494.78 1372.49 1493.67 1371.65 1492.84C1368.03 1489.22 1360.79 1490.61 1357.73 1494.51C1354.67 1498.68 1355.78 1503.69 1358.84 1507.59C1359.68 1508.7 1360.79 1509.26 1361.91 1509.54C1362.46 1509.82 1362.74 1509.82 1363.3 1509.82C1363.58 1509.82 1363.86 1509.82 1363.86 1509.82C1366.36 1511.21 1369.15 1511.49 1371.65 1510.09C1377.78 1507.31 1376.94 1499.52 1373.04 1495.62Z" fill="#FCE4EC"/>
<path d="M1477.73 1500.91C1457.68 1493.39 1439.31 1485.04 1418.98 1478.08C1401.16 1471.96 1383.62 1465.28 1366.08 1459.16C1345.48 1451.92 1328.77 1446.63 1304.55 1438.28C1303.99 1438 1302.6 1437.72 1302.05 1438.56C1291.74 1459.16 1285.34 1481.42 1276.99 1502.58C1267.8 1525.96 1260.56 1549.62 1252.21 1573C1251.93 1573.84 1251.93 1574.39 1252.21 1574.95C1252.21 1576.07 1253.88 1576.9 1255.27 1577.46C1280.05 1586.92 1303.44 1596.39 1328.22 1605.57C1342.14 1610.58 1355.78 1615.87 1369.98 1620.6C1389.19 1627.28 1410.07 1635.36 1429 1642.59C1429.28 1643.15 1430.68 1640.37 1430.95 1639.53C1441.26 1618.93 1445.99 1595.83 1454.34 1574.39C1463.25 1551.57 1480.51 1502.02 1477.73 1500.91ZM1428.73 1637.58C1410.91 1629.23 1392.25 1623.94 1373.88 1616.98C1359.68 1611.42 1345.48 1606.13 1331.28 1600.56C1307.06 1591.37 1282.56 1582.19 1258.33 1572.72C1273.65 1528.74 1286.45 1484.76 1302.88 1441.06C1320.98 1449.97 1340.75 1454.42 1359.68 1461.66C1378.61 1468.9 1397.54 1476.41 1416.75 1483.09C1435.97 1489.77 1455.18 1496.73 1474.11 1503.69C1458.52 1547.95 1445.15 1593.88 1428.73 1637.58Z" fill="#C4C4C4"/>
<path d="M1466.87 1506.48C1448.77 1499.52 1431.51 1492 1413.14 1485.88C1378.61 1474.19 1343.25 1463.33 1309.29 1450.25C1309.01 1450.25 1308.73 1450.25 1308.73 1450.25C1308.45 1450.25 1308.45 1450.53 1308.17 1450.53C1288.68 1488.1 1277.82 1528.74 1263.62 1568.55C1262.79 1570.78 1264.74 1572.17 1266.69 1572.17H1266.97C1284.51 1578.85 1302.88 1586.09 1320.7 1592.21C1354.95 1604.18 1422.88 1630.62 1423.16 1630.07C1442.09 1593.04 1453.23 1553.24 1466.59 1513.99C1467.71 1511.49 1469.93 1507.59 1466.87 1506.48ZM1422.88 1627C1407.29 1619.21 1390.58 1614.2 1374.16 1608.08C1356.62 1601.4 1339.35 1594.44 1321.81 1588.31C1304.27 1582.19 1287.01 1574.95 1269.75 1568.27C1283.11 1529.58 1295.36 1490.61 1309.56 1452.2C1325.99 1460.27 1343.25 1465.28 1360.24 1471.96C1377.22 1478.36 1393.65 1485.32 1410.91 1491.17C1428.17 1497.01 1446.55 1503.97 1463.81 1510.37C1450.17 1549.06 1437.08 1588.31 1422.88 1627Z" fill="#C4C4C4"/>
<path d="M1420.93 1597.22C1414.81 1574.67 1412.86 1546 1398.1 1526.52C1394.76 1522.34 1394.48 1521.79 1389.19 1522.9C1378.33 1524.85 1367.75 1532.64 1357.17 1537.09C1356.62 1535.7 1356.06 1534.31 1355.5 1532.92C1354.11 1529.58 1352.44 1522.9 1349.66 1520.39C1346.04 1516.77 1342.14 1517.89 1337.68 1519.84C1326.82 1524.57 1316.52 1533.48 1306.78 1540.16C1296.76 1546.84 1285.62 1551.85 1277.54 1561.03C1276.71 1562.15 1278.1 1563.26 1278.94 1562.43C1286.73 1555.74 1296.2 1552.13 1304.83 1546.84C1314.3 1541.27 1323.21 1534.87 1332.39 1529.02C1344.64 1520.95 1347.43 1529.86 1351.88 1540.44C1354.67 1546.84 1356.62 1552.68 1363.02 1556.3C1364.41 1557.14 1366.08 1555.47 1365.25 1554.07C1362.18 1549.34 1359.96 1544.33 1357.73 1539.32C1364.69 1537.93 1371.37 1535.15 1378.05 1532.36C1381.67 1530.97 1387.8 1526.8 1391.42 1528.47C1395.32 1530.14 1399.49 1544.33 1400.61 1547.39C1404.5 1557.97 1408.12 1569.11 1410.63 1580.24C1412.3 1586.92 1413.13 1593.32 1417.87 1598.89C1419.26 1600.28 1421.21 1598.89 1420.93 1597.22Z" fill="#C4C4C4"/>
<path d="M1356.34 1512.6C1363.3 1518.72 1374.16 1516.22 1378.89 1508.7C1379.17 1508.42 1379.17 1508.15 1379.45 1507.87C1382.51 1501.74 1381.39 1493.95 1375.55 1490.05C1370.81 1486.71 1363.85 1486.99 1359.12 1490.05C1351.33 1494.78 1349.38 1506.48 1356.34 1512.6ZM1361.07 1493.39C1365.52 1490.33 1371.09 1490.61 1374.16 1495.06C1375.55 1497.01 1376.38 1500.07 1376.66 1502.58C1376.66 1504.81 1376.1 1507.31 1374.43 1508.98C1371.09 1512.6 1363.3 1512.88 1359.68 1509.82C1354.11 1505.08 1355.5 1497.01 1361.07 1493.39Z" fill="#C4C4C4"/>
<path d="M1374.71 1485.04C1375.27 1483.93 1375.55 1482.82 1376.11 1481.7C1376.38 1480.87 1376.94 1480.31 1376.11 1479.75C1375.83 1479.48 1375.27 1479.48 1374.99 1479.75C1373.32 1480.59 1373.32 1482.54 1372.76 1483.93C1371.93 1485.32 1373.88 1486.71 1374.71 1485.04Z" fill="#C4C4C4"/>
<path d="M1359.12 1518.17C1358.57 1519.28 1357.45 1521.23 1358.29 1522.62C1358.57 1522.9 1358.84 1522.9 1359.12 1522.9C1360.51 1522.34 1360.79 1520.67 1361.35 1519.28C1361.91 1517.89 1359.96 1516.77 1359.12 1518.17Z" fill="#C4C4C4"/>
<path d="M1363.02 1483.93C1362.74 1482.82 1362.19 1481.7 1361.91 1480.31C1361.63 1479.75 1361.63 1478.92 1360.79 1478.92C1358.57 1479.2 1360.51 1483.37 1360.79 1484.49C1361.07 1486.16 1363.3 1485.32 1363.02 1483.93Z" fill="#C4C4C4"/>
<path d="M1371.37 1519.56C1371.65 1520.95 1371.93 1522.9 1373.32 1523.46C1373.6 1523.46 1373.88 1523.46 1374.16 1523.18C1374.71 1522.06 1373.88 1520.39 1373.6 1519.28C1373.32 1517.61 1371.09 1517.89 1371.37 1519.56Z" fill="#C4C4C4"/>
<path d="M1353.27 1489.77C1354.39 1490.89 1356.06 1489.22 1354.95 1488.1C1354.11 1487.27 1353.27 1486.43 1352.44 1485.6C1351.88 1485.04 1351.33 1484.21 1350.49 1484.76C1350.21 1485.04 1349.93 1485.32 1349.93 1485.88C1350.49 1487.83 1352.16 1488.66 1353.27 1489.77Z" fill="#C4C4C4"/>
<path d="M1381.67 1513.71C1380.56 1512.32 1378.61 1513.71 1379.73 1515.1C1380.56 1516.22 1381.95 1517.89 1383.34 1517.61C1383.62 1517.61 1383.9 1517.33 1383.9 1517.05C1384.18 1515.66 1382.51 1514.83 1381.67 1513.71Z" fill="#C4C4C4"/>
<path d="M1349.66 1497.85C1351.05 1498.4 1351.88 1496.18 1350.21 1495.62C1349.1 1495.06 1347.98 1495.06 1346.87 1494.78C1346.31 1494.51 1345.48 1494.23 1344.92 1495.06C1344.09 1496.73 1348.54 1497.29 1349.66 1497.85Z" fill="#C4C4C4"/>
<path d="M1384.74 1507.59C1385.85 1508.15 1388.08 1508.98 1389.19 1508.15C1389.47 1507.87 1389.47 1507.59 1389.47 1507.31C1388.91 1506.2 1386.96 1506.2 1385.85 1505.64C1384.46 1504.81 1383.34 1507.03 1384.74 1507.59Z" fill="#C4C4C4"/>
<path d="M1348.82 1505.92C1350.49 1505.92 1350.49 1503.41 1348.82 1503.41C1347.71 1503.41 1346.32 1503.97 1345.2 1503.97C1344.64 1503.97 1343.53 1503.97 1343.53 1504.81C1343.25 1507.31 1347.99 1505.92 1348.82 1505.92Z" fill="#C4C4C4"/>
<path d="M1385.02 1500.35C1386.41 1500.35 1388.63 1500.35 1389.19 1498.96C1389.47 1498.68 1389.19 1498.4 1388.91 1498.13C1387.8 1497.29 1386.13 1498.13 1384.74 1498.13C1383.62 1497.85 1383.62 1500.35 1385.02 1500.35Z" fill="#C4C4C4"/>
<path d="M1351.6 1511.21C1350.49 1511.76 1349.66 1512.6 1348.54 1513.43C1347.99 1513.99 1347.15 1514.27 1347.71 1515.1C1347.99 1515.38 1348.26 1515.66 1348.54 1515.66C1350.49 1515.66 1351.33 1514.27 1352.72 1513.43C1354.11 1512.6 1352.72 1510.37 1351.6 1511.21Z" fill="#C4C4C4"/>
<path d="M1382.51 1492C1383.62 1491.44 1385.57 1490.33 1385.57 1488.66C1385.57 1488.38 1385.29 1488.1 1385.01 1488.1C1383.62 1487.83 1382.51 1489.22 1381.12 1489.77C1380 1490.61 1381.12 1492.56 1382.51 1492Z" fill="#C4C4C4"/>
<ellipse cx="2298" cy="1732.5" rx="506" ry="506.5" fill="#FCE4EC"/>
<circle cx="1543" cy="1632" r="631" fill="#F6F6F6"/>
</g>
<defs>
<clipPath id="clip0">
<rect width="2842" height="1896" fill="white"/>
</clipPath>
</defs>
</svg>
