<svg width="260" height="260" viewBox="0 0 260 260" fill="none" xmlns="http://www.w3.org/2000/svg">
<g clip-path="url(#clip0_143_91328)">
<rect width="260" height="260" fill="#E91D63"/>
<path fill-rule="evenodd" clip-rule="evenodd" d="M-17.7474 142.139C-24.4851 116.994 -9.96253 91.2548 14.6895 84.6493L14.81 84.6172L97.2014 62.5405C100.936 61.5399 104.774 63.756 105.775 67.4902L114.637 100.567L69.6553 112.62L69.6558 112.621L27.2966 123.971C26.2296 124.257 25.5965 125.354 25.8824 126.421L27.897 133.939C28.1828 135.006 29.2795 135.639 30.3465 135.353L72.7053 124.003L78.6304 122.416L78.6304 122.416L78.6306 122.416C103.283 115.81 128.729 130.84 135.467 155.985C142.204 181.13 127.682 206.869 103.03 213.474L103.029 213.474L102.95 213.495L55.6031 226.182L55.6031 226.182L29.2115 233.254C20.676 235.541 11.9026 230.475 9.61557 221.94L3.08209 197.557L44.9285 186.344L44.9281 186.342L90.4228 174.152C91.4898 173.866 92.1229 172.77 91.8371 171.703L89.8225 164.184C89.5366 163.117 88.4399 162.484 87.373 162.77L41.8783 174.96L41.8549 174.873C40.9788 175.168 40.0885 175.438 39.1846 175.682L38.9925 175.733C14.3704 182.274 -11.0186 167.251 -17.7474 142.139ZM251.551 86.8336C252.006 81.4592 251.552 75.904 250.071 70.3775C243.334 45.2324 217.888 30.2031 193.236 36.8085L193.236 36.8084L117.912 56.9914L126.774 90.068C127.771 93.7859 131.58 95.9989 135.299 95.0307L207.558 75.6689C208.625 75.383 209.721 76.0162 210.007 77.0831L212.022 84.6017C212.308 85.6686 211.675 86.7653 210.608 87.0512L162.669 99.8964L162.669 99.8977L138.398 106.401C134.664 107.402 132.447 111.24 133.448 114.974L140.499 141.29C141.486 144.973 145.234 147.179 148.919 146.278L229.652 124.646C230.719 124.36 231.815 124.994 232.101 126.061L234.116 133.579C234.402 134.646 233.768 135.743 232.701 136.029L190.342 147.379C190.342 147.379 190.343 147.38 190.343 147.38L152.122 157.621C148.388 158.622 146.172 162.46 147.172 166.195L154.224 192.51C155.224 196.244 159.062 198.46 162.797 197.459L245.183 175.384L245.309 175.351C269.961 168.745 284.483 143.006 277.746 117.861C273.9 103.509 263.96 92.4528 251.551 86.8336Z" fill="white"/>
</g>
<defs>
<clipPath id="clip0_143_91328">
<rect width="260" height="260" fill="white"/>
</clipPath>
</defs>
</svg>
