<svg width="260" height="260" viewBox="0 0 260 260" fill="none" xmlns="http://www.w3.org/2000/svg">
<rect width="260" height="260" fill="white"/>
<path fill-rule="evenodd" clip-rule="evenodd" d="M29 111.64C29 93.6133 43.3267 79 60.9997 79L61.0938 79.0001L117.999 79.0001C121.865 79.0001 124.999 82.1341 124.999 86.0001V107.56L92.7518 107.56L92.7519 107.561L62.9999 107.561C61.8953 107.561 60.9999 108.456 60.9999 109.561V113.721C60.9999 114.825 61.8953 115.721 62.9999 115.721L92.7516 115.721H96.9992H96.9994H97.0099C114.678 115.726 128.999 130.338 128.999 148.36C128.999 166.387 114.672 181 96.9994 181H96.9992H62.9996V181H49.0001C40.1636 181 33.0001 173.836 33.0001 165V152.44H62.9996V152.439H94.9995C96.104 152.439 96.9995 151.544 96.9995 150.439V146.279C96.9995 145.175 96.104 144.279 94.9994 144.279H62.9996V144.217C62.3382 144.258 61.6713 144.279 60.9997 144.279C43.3267 144.279 29 129.666 29 111.64ZM219.038 122.912C220.306 119.399 220.998 115.602 220.998 111.64C220.998 93.6136 206.671 79.0003 188.998 79.0002H188.998H134.999V100.56C134.999 104.413 138.112 107.539 141.959 107.56H190.998C192.103 107.56 192.998 108.455 192.998 109.56V113.72C192.998 114.824 192.103 115.72 190.998 115.72H157.246L157.246 115.721H141.999C138.133 115.721 134.999 118.855 134.999 122.721V137.28C134.999 141.105 138.067 144.214 141.876 144.279H196.998C198.103 144.279 198.998 145.175 198.998 146.279V150.439C198.998 151.544 198.103 152.439 196.998 152.439H167.246C167.246 152.44 167.246 152.44 167.246 152.44H141.999C138.133 152.44 134.999 155.574 134.999 159.44V174C134.999 177.866 138.133 181 141.999 181H198.905L198.998 181C216.671 181 230.998 166.387 230.998 148.36C230.998 138.072 226.331 128.895 219.038 122.912Z" fill="#E91D63"/>
</svg>
