<svg width="240" height="160" viewBox="0 0 240 160" fill="none" xmlns="http://www.w3.org/2000/svg">
<path d="M104.06 74.4899L93.9799 76.6199C85.8099 78.3699 77.4899 82.3199 77.2599 95.3399H120.45V90.2099H144.1V95.3399H156.38V90.2099H162.72V82.0099H156.38V61.4999H138.71L119.01 81.6599V86.8299H91.8699C92.7099 85.5899 94.2699 84.8099 97.2299 84.2499L109.57 82.0099C114.47 81.0699 121.18 78.4999 121.18 72.0699C121.18 62.5899 110.64 60.6499 99.4299 60.6499C90.7399 60.6499 79.4599 62.2099 78.4199 73.8699H93.1999C93.5799 69.4699 97.3599 69.1299 101.11 69.1299C104.3 69.1299 106.71 69.9199 106.71 71.8599C106.72 73.2699 105.79 74.1299 104.06 74.4899ZM144.1 69.7299V82.0199H131.63L144.1 69.7299Z" fill="#002C4D"/>
<path d="M133.79 110.27H143.11V105.61H133.79V103.18H144.13V98.1799H122.06L118.88 110.07H118.82L115.59 98.1799H94.4399V109.48C93.5999 107.36 91.3999 106.43 89.1999 105.82C86.4199 105.08 83.5799 104.77 83.4699 103.36C83.4699 102.28 84.8499 102.05 85.6799 102.05C86.2599 102.05 86.9699 102.17 87.4699 102.51C87.9599 102.87 88.2699 103.36 88.1899 104.11H93.9499C93.7599 99.3299 89.9799 97.7299 85.6999 97.7299C81.6199 97.7299 77.7399 99.6699 77.7399 104.19C77.7399 108.14 81.2999 108.99 84.4199 109.83C87.8199 110.82 88.6899 111.09 88.6899 112.1C88.6899 113.59 87.1899 113.9 86.1799 113.9C85.0399 113.9 83.7099 113.63 83.2699 112.45C83.1299 112.1 83.0399 111.67 83.0399 111.16H76.9399C77.0199 117.44 83.3999 118.22 85.6399 118.22C89.3199 118.22 93.2599 117.06 94.4299 113.69V117.77H111.1V112.74H100.55V110.29H109.85V105.63H100.55V103.18H110.81V102.68L115.35 117.75H122.14L127.7 100.1V117.76H144.13V112.73H133.79V110.27ZM157.1 98.1799V108.68H157.05L151.28 98.1799H145.06V117.76H150.82V107.06H150.88L156.94 117.75H162.85V98.1799H157.1Z" fill="#002C4D"/>
<path d="M95.69 46.8799H99.86V58.1699H104.59V46.8799H108.91V42.9599H95.69V46.8799ZM77.45 58.1599H82.19V52.3599H88.34V48.7699H82.19V46.8799H89.33V42.9599H77.45V58.1599ZM158.73 48.9299C156.52 48.2999 154.37 48.0699 154.27 46.9899C154.27 46.1399 155.34 45.9299 155.97 45.9299C156.46 45.9299 156.97 46.0699 157.39 46.3299C157.77 46.5899 158.01 46.9899 157.95 47.5299H162.4C162.28 43.8599 159.32 42.5699 156.01 42.5699C153.07 42.5699 150.25 43.9099 149.86 46.8899C149.41 43.7099 146.62 42.5699 143.49 42.5699C140.33 42.5699 137.3 44.1199 137.3 47.5999C137.3 50.6899 140.09 51.3599 142.53 52.0099C145.15 52.7899 145.82 52.9699 145.82 53.7999C145.82 54.9099 144.62 55.1499 143.87 55.1499C143.01 55.1499 141.94 54.9399 141.59 54.0599C141.49 53.7999 141.41 53.4499 141.41 53.0599H136.68C136.69 53.4999 136.73 53.8999 136.81 54.2699H129.14V52.3599H136.4V48.7699H129.14V46.8799H136.93V42.9599H124.41V58.1599H137.36V55.7099C138.79 58.1499 142.09 58.5499 143.45 58.5499C146.01 58.5499 148.72 57.8199 149.91 55.7699C151.35 58.1499 154.6 58.5499 155.94 58.5499C159.38 58.5499 163.05 57.2599 163.05 53.2799C163.05 50.5099 160.91 49.4999 158.73 48.9299ZM156.38 55.1499C155.49 55.1499 154.44 54.9399 154.09 54.0599C153.97 53.7999 153.93 53.4499 153.93 53.0599H150.51C150.4 50.4599 148.32 49.4899 146.22 48.9299C144.06 48.2999 141.84 48.0699 141.77 46.9899C141.77 46.1399 142.84 45.9299 143.44 45.9299C143.94 45.9299 144.47 46.0699 144.85 46.3299C145.23 46.5899 145.52 46.9899 145.43 47.5299H149.8V47.5999C149.8 50.6899 152.55 51.3599 155.01 52.0099C157.65 52.7899 158.29 52.9699 158.29 53.7999C158.3 54.8999 157.13 55.1499 156.38 55.1499ZM119.13 51.0899H119.07L114.6 42.9699H109.76V58.1699H114.22V49.8499H114.27L118.98 58.1699H123.58V42.9699H119.13V51.0899ZM90.17 42.9599H94.89V58.1599H90.17V42.9599Z" fill="#002C4D"/>
</svg>
