<svg width="1000" height="1000" viewBox="0 0 1000 1000" fill="none" xmlns="http://www.w3.org/2000/svg">
<path d="M675.2 218.9C619.5 135.1 409.7 154.7 391.7 209.5C383.8 233.7 418.6 248.9 409.4 277.5C398.6 311.1 345.8 305.1 254.5 373.7C239 385.4 144.5 456.3 145.5 551.6C146.4 640.5 220 727.5 299.8 744.4C381.5 761.7 413.3 694.2 496.2 710.5C599.3 730.9 611.5 844 673.9 844C794.8 844.1 920.6 417 834.8 361.5C800.9 339.6 746.9 384.1 709 352.1C672.4 321.3 706.7 266.2 675.2 218.9Z" fill="#E4EFEF"/>
<path d="M431.4 763.7C417.8 778.6 426.4 803.6 444.1 817.6C458.7 829.2 483.3 836.3 500.7 827.8C522.4 817.3 524.6 786.7 505 768C485 748.8 446.8 746.7 431.4 763.7Z" fill="#E4EFEF"/>
<path d="M293 229.7C275.9 234.4 271.4 282.3 283 291.7C314.5 317.1 336.6 292.4 323 257.7C316.8 241.8 303.7 226.7 293 229.7Z" fill="#E4EFEF"/>
<path d="M734.2 265.8C717.1 267.7 712.6 286.8 724.2 290.6C755.7 300.7 777.8 290.9 764.2 277C758 270.7 744.9 264.7 734.2 265.8Z" fill="#E4EFEF"/>
<path d="M367.9 670.1C367.9 670.1 359.8 679.3 402.6 722C402.6 705.5 397.6 686.8 420.4 679.6C393 675.9 367.9 670.1 367.9 670.1Z" stroke="#272130" stroke-width="6" stroke-miterlimit="10" stroke-linecap="round" stroke-linejoin="round"/>
<path d="M367.9 670.1C367.9 670.1 359.8 679.3 402.6 722C402.6 705.5 397.6 686.8 420.4 679.6C393 675.9 367.9 670.1 367.9 670.1Z" fill="#372E42"/>
<path d="M567.4 657.6C567.4 657.6 600 669 615 669C630 669 642 663.3 642 663.3L627 657.6C649 657.6 665.5 641 665.5 641L648 637C669.5 633.3 679 611 679 611C675 611 646.4 606.4 646.4 599.7C620.6 625.5 580.5 652.3 567.4 657.6Z" fill="#372E42"/>
<path opacity="0.83" d="M646.4 599.7C620.6 625.5 580.5 652.3 567.4 657.6C567.4 657.6 590.3 665.6 606.5 668.2C609.4 664.6 612.1 661.4 613.8 659.7C619 654.5 640.7 651.4 640.7 645.2C640.7 639 635.4 635.9 648.1 628.8C660.8 621.7 659.5 615.9 659.5 615.9L660.9 607.9C653.5 605.8 646.4 603 646.4 599.7Z" fill="#2D2638"/>
<path d="M591.9 645.2C591.9 645.2 601.6 656.1 608.6 656.1" stroke="#272130" stroke-width="4" stroke-miterlimit="10" stroke-linecap="round" stroke-linejoin="round"/>
<path d="M632.9 645.2C620.2 645.2 613.8 630.8 613.8 630.8" stroke="#272130" stroke-width="4" stroke-miterlimit="10" stroke-linecap="round" stroke-linejoin="round"/>
<path d="M632.9 620C632.9 620 636.6 620 648.6 620" stroke="#272130" stroke-width="4" stroke-miterlimit="10" stroke-linecap="round" stroke-linejoin="round"/>
<path d="M567.4 657.6C567.4 657.6 600 669 615 669C630 669 642 663.3 642 663.3L627 657.6C649 657.6 665.5 641 665.5 641L648 637C669.5 633.3 679 611 679 611C675 611 646.4 606.4 646.4 599.7C620.6 625.5 580.5 652.3 567.4 657.6Z" stroke="#272130" stroke-width="6" stroke-miterlimit="10" stroke-linecap="round" stroke-linejoin="round"/>
<path d="M301.1 439.5C319.325 439.5 334.1 423.382 334.1 403.5C334.1 383.618 319.325 367.5 301.1 367.5C282.874 367.5 268.1 383.618 268.1 403.5C268.1 423.382 282.874 439.5 301.1 439.5Z" fill="white"/>
<path d="M290.4 418.6C296.752 418.6 301.9 413.317 301.9 406.8C301.9 400.283 296.752 395 290.4 395C284.049 395 278.9 400.283 278.9 406.8C278.9 413.317 284.049 418.6 290.4 418.6Z" fill="#1E1826"/>
<path d="M287.6 408C290.417 408 292.7 405.672 292.7 402.8C292.7 399.928 290.417 397.6 287.6 397.6C284.783 397.6 282.5 399.928 282.5 402.8C282.5 405.672 284.783 408 287.6 408Z" fill="white"/>
<path d="M293.3 414.9C294.35 414.9 295.2 414.049 295.2 413C295.2 411.951 294.35 411.1 293.3 411.1C292.251 411.1 291.4 411.951 291.4 413C291.4 414.049 292.251 414.9 293.3 414.9Z" fill="white"/>
<path d="M301.1 439.5C319.325 439.5 334.1 423.382 334.1 403.5C334.1 383.618 319.325 367.5 301.1 367.5C282.874 367.5 268.1 383.618 268.1 403.5C268.1 423.382 282.874 439.5 301.1 439.5Z" stroke="#204751" stroke-width="6" stroke-miterlimit="10" stroke-linecap="round" stroke-linejoin="round"/>
<path d="M471.6 357.7C471.6 357.7 501.6 302.1 578.1 302.1C567.6 312.6 567.6 323.1 567.6 323.1C567.6 323.1 595.7 312.3 620.1 320.1C603.6 336.6 603.6 345.6 603.6 345.6C620.1 329.1 655.4 350.3 661.5 356.5C628.7 368.5 638.2 370.4 638.2 370.4C638.2 370.4 658 370.3 676.9 389.2C657.7 395.1 635.7 403.6 639.1 428.1C618.7 409.2 617 392.3 471.6 357.7Z" fill="#372E42"/>
<path opacity="0.83" d="M648.2 402.6L640.8 389.9C640.8 389.9 622.8 382.9 613.9 374C605 365.1 600.6 363.7 592 355.1C583.4 346.5 574.1 344.7 562.6 344.7C551.1 344.7 540.6 333.6 535 328C532.2 325.2 516.5 325.2 501.5 325.9C480.7 341 471.7 357.7 471.7 357.7C617 392.3 618.7 409.2 639 428C637.4 416.5 641.5 408.5 648.2 402.6Z" fill="#2D2638"/>
<path d="M512.6 361.4C512.6 361.4 531.2 337.1 549.7 328" stroke="#272130" stroke-width="4" stroke-miterlimit="10" stroke-linecap="round" stroke-linejoin="round"/>
<path d="M542.5 367.5C542.5 367.5 558.4 348.9 592 337" stroke="#272130" stroke-width="4" stroke-miterlimit="10" stroke-linecap="round" stroke-linejoin="round"/>
<path d="M574.2 381.7C574.2 381.7 593.8 359 627.6 357.7" stroke="#272130" stroke-width="4" stroke-miterlimit="10" stroke-linecap="round" stroke-linejoin="round"/>
<path d="M600.9 398.1C600.9 398.1 629.1 381.7 648.6 381.7" stroke="#272130" stroke-width="4" stroke-miterlimit="10" stroke-linecap="round" stroke-linejoin="round"/>
<path d="M471.6 357.7C471.6 357.7 501.6 302.1 578.1 302.1C567.6 312.6 567.6 323.1 567.6 323.1C567.6 323.1 595.7 312.3 620.1 320.1C603.6 336.6 603.6 345.6 603.6 345.6C620.1 329.1 655.4 350.3 661.5 356.5C628.7 368.5 638.2 370.4 638.2 370.4C638.2 370.4 658 370.3 676.9 389.2C657.7 395.1 635.7 403.6 639.1 428.1C618.7 409.2 617 392.3 471.6 357.7Z" stroke="#272130" stroke-width="6" stroke-miterlimit="10" stroke-linecap="round" stroke-linejoin="round"/>
<path d="M659.7 479.7C659.7 479.7 675 493.1 699 484.7C723 476.3 783.7 412.3 828.3 423.7C828.3 423.7 805 444.4 810.3 473C815.6 501.7 796.3 524.3 796.3 524.3C796.3 524.3 812.3 535 796.3 551C780.3 567 754 562.7 757 584C760 605.3 775.7 606.3 779 625C782.3 643.7 775 685.7 795 695C795 695 773.7 734.3 713 620.3C685 567.2 677.7 559 659.7 559C653.7 543 659.7 479.7 659.7 479.7Z" fill="#372E42"/>
<path opacity="0.83" d="M659.7 479.7C659.7 479.7 653.7 543 659.7 559C677.7 559 685 567.2 713 620.3C713.1 620.5 713.2 620.7 713.3 620.9C720.1 603.7 720.6 568.9 720.6 557.3C720.6 541.6 738.8 533.5 742.6 511.3C744.8 498.5 737.2 479 730.3 464.7C717.4 474.1 706.4 482.1 698.9 484.7C675 493.1 659.7 479.7 659.7 479.7Z" fill="#2D2638"/>
<path d="M676.8 513.4C676.8 513.4 701.1 519 734.1 503.1C767.1 487.2 773.1 469.7 788.1 469.7" stroke="#272130" stroke-width="4" stroke-miterlimit="10" stroke-linecap="round" stroke-linejoin="round"/>
<path d="M675.8 533.7C675.8 533.7 702.3 533.7 732.5 533.7C762.7 533.7 781.6 524.5 781.6 524.5" stroke="#272130" stroke-width="4" stroke-miterlimit="10" stroke-linecap="round" stroke-linejoin="round"/>
<path d="M675.8 546.6C675.8 546.6 714.7 546 742.7 568" stroke="#272130" stroke-width="4" stroke-miterlimit="10" stroke-linecap="round" stroke-linejoin="round"/>
<path d="M671.3 554C671.3 554 726.7 569.1 758.2 656.1" stroke="#272130" stroke-width="4" stroke-miterlimit="10" stroke-linecap="round" stroke-linejoin="round"/>
<path d="M659.7 479.7C659.7 479.7 675 493.1 699 484.7C723 476.3 783.7 412.3 828.3 423.7C828.3 423.7 805 444.4 810.3 473C815.6 501.7 796.3 524.3 796.3 524.3C796.3 524.3 812.3 535 796.3 551C780.3 567 754 562.7 757 584C760 605.3 775.7 606.3 779 625C782.3 643.7 775 685.7 795 695C795 695 773.7 734.3 713 620.3C685 567.2 677.7 559 659.7 559C653.7 543 659.7 479.7 659.7 479.7Z" stroke="#272130" stroke-width="6" stroke-miterlimit="10" stroke-linecap="round" stroke-linejoin="round"/>
<path d="M449.8 355.1C440.5 355.1 431.3 355.5 422.3 356.3L423.5 356.5C422.3 356.5 421.1 356.5 419.9 356.5C410.7 357.4 401.7 358.6 393 360.3V676C411.2 679.4 430.2 681.2 449.8 681.2C575.2 681.2 676.8 608.2 676.8 518.2C676.8 428.2 575.2 355.1 449.8 355.1Z" fill="#4DC1C4"/>
<path d="M524.8 364.2C597 391.5 646.3 445.9 646.3 508.5C646.3 598.5 537.3 675.7 411.9 675.7C403 675.7 408.3 677.8 399.7 677.1L393 675.9C411.2 679.3 430.2 681.1 449.8 681.1C575.2 681.1 676.8 608.1 676.8 518.1C676.8 446.9 613.3 386.4 524.8 364.2Z" fill="#23AFAB"/>
<path d="M449.8 355.1C440.5 355.1 431.3 355.5 422.3 356.3L423.5 356.5C422.3 356.5 421.1 356.5 419.9 356.5C410.7 357.4 401.7 358.6 393 360.3V676C411.2 679.4 430.2 681.2 449.8 681.2C575.2 681.2 676.8 608.2 676.8 518.2C676.8 428.2 575.2 355.1 449.8 355.1Z" stroke="#204751" stroke-width="6" stroke-miterlimit="10" stroke-linecap="round" stroke-linejoin="round"/>
<path d="M420.4 356.5C406.3 357.8 392.8 360 379.7 363C321.9 380.8 274.8 438.3 274.8 500L246.4 497C233.9 495.7 222.9 505.3 222.9 517.9C222.9 518 222.9 518.1 222.9 518.1C222.9 600.9 309 669.4 420.4 679.7C452.4 635.6 471.6 579.3 471.6 518.1C471.6 456.8 452.4 400.6 420.4 356.5Z" fill="#4DC1C4"/>
<path d="M293.3 476.9C293.3 476.9 334.2 494.1 370.2 494.1C406.2 494.1 417.6 491.4 421.9 477.5C421.9 477.5 424 486.8 420.3 494.1C416.6 501.4 402 523.8 326.5 508.4C251.1 497.5 278.9 500.4 278.9 500.4C278.9 500.4 277.2 471 293.3 476.9Z" fill="#23AFAB"/>
<path d="M313.6 508.5C313.6 508.5 347.6 525 382.2 525C402.4 525 418.9 517.8 425.7 513.4C446.2 500 432.3 469.3 425.7 479.7C422 485.5 416.4 501.1 412.7 504.9C409 508.7 356.8 513.4 350.2 513.4C343.6 513.4 313.6 508.5 313.6 508.5Z" fill="#23AFAB"/>
<path d="M294.8 500C294.8 438.4 341.9 380.9 399.7 363C407 361.3 414.4 359.9 421.9 358.7C421.4 357.9 420.8 357.2 420.3 356.4C420.3 356.4 420.3 356.4 420.2 356.4C406.2 357.7 392.6 359.9 379.5 363C322.4 380.6 275.6 437 274.6 497.8L294.8 500Z" fill="#23AFAB"/>
<path d="M242.9 518.1C242.9 518 242.9 517.9 242.9 517.9C242.9 508.7 248.9 501.1 256.9 498.2L246.3 497.1C233.8 495.8 222.8 505.4 222.8 518C222.8 518.1 222.8 518.2 222.8 518.2C222.8 601 308.9 669.5 420.3 679.8C420.8 679 421.4 678.3 421.9 677.5C319.7 661.6 242.9 596.3 242.9 518.1Z" fill="#23AFAB"/>
<path d="M420.4 356.5C406.3 357.8 392.8 360 379.7 363C321.9 380.8 274.8 438.3 274.8 500L246.4 497C233.9 495.7 222.9 505.3 222.9 517.9C222.9 518 222.9 518.1 222.9 518.1C222.9 600.9 309 669.4 420.4 679.7C452.4 635.6 471.6 579.3 471.6 518.1C471.6 456.8 452.4 400.6 420.4 356.5Z" stroke="#204751" stroke-width="6" stroke-miterlimit="10" stroke-linecap="round" stroke-linejoin="round"/>
<path d="M353.7 511.3C347.4 510.7 341.6 510 336.4 509.3C336.1 507.6 336 505.9 336 504.2C336 491.5 343.3 480.7 353.3 477C350.3 481.7 348.5 487.6 348.5 493.9C348.5 500.4 350.4 506.5 353.7 511.3Z" fill="white" stroke="white" stroke-width="4" stroke-miterlimit="10" stroke-linecap="round" stroke-linejoin="round"/>
<path d="M288.5 503.1C280 502 272.1 500.9 265.1 499.8C264.8 497.5 264.7 495.2 264.7 492.8C265.2 475.5 275.4 461.1 289.2 456.3C284.9 462.6 282.2 470.5 282 479.2C281.8 488.1 284.2 496.4 288.5 503.1Z" fill="white" stroke="white" stroke-width="4" stroke-miterlimit="10" stroke-linecap="round" stroke-linejoin="round"/>
<path d="M436 489.7C436 480.4 410 469.7 410 469.7" stroke="#204751" stroke-width="6" stroke-miterlimit="10" stroke-linecap="round" stroke-linejoin="round"/>
<path d="M350.2 441.7C372.292 441.7 390.2 422.896 390.2 399.7C390.2 376.504 372.292 357.7 350.2 357.7C328.109 357.7 310.2 376.504 310.2 399.7C310.2 422.896 328.109 441.7 350.2 441.7Z" fill="white"/>
<path d="M350.2 441.7C372.292 441.7 390.2 422.896 390.2 399.7C390.2 376.504 372.292 357.7 350.2 357.7C328.109 357.7 310.2 376.504 310.2 399.7C310.2 422.896 328.109 441.7 350.2 441.7Z" stroke="#204751" stroke-width="6" stroke-miterlimit="10" stroke-linecap="round" stroke-linejoin="round"/>
<path d="M347 428C355.837 428 363 420.613 363 411.5C363 402.387 355.837 395 347 395C338.163 395 331 402.387 331 411.5C331 420.613 338.163 428 347 428Z" fill="#1E1826"/>
<path d="M343.1 413.3C347.021 413.3 350.2 410.032 350.2 406C350.2 401.969 347.021 398.7 343.1 398.7C339.179 398.7 336 401.969 336 406C336 410.032 339.179 413.3 343.1 413.3Z" fill="white"/>
<path d="M351.1 423C352.536 423 353.7 421.791 353.7 420.3C353.7 418.809 352.536 417.6 351.1 417.6C349.664 417.6 348.5 418.809 348.5 420.3C348.5 421.791 349.664 423 351.1 423Z" fill="white"/>
<path d="M325.6 456.5C325.9 456.2 326.2 455.9 326.5 455.6C322.3 457.6 318.2 460.3 314.7 463.5C301.4 475.6 297.5 492.5 303.5 506.1L321.1 508.5C310.3 492.3 311.5 471.2 325.6 456.5Z" fill="white" stroke="white" stroke-width="4" stroke-miterlimit="10" stroke-linecap="round" stroke-linejoin="round"/>
<path d="M378.7 490.2C378.8 490.1 378.9 489.9 379.1 489.8C377.3 490.9 375.6 492.2 374.2 493.8C369.1 499.6 369.1 506.9 373.4 512.4L382.2 512.5C375.3 506.1 373.5 497.2 378.7 490.2Z" fill="white" stroke="white" stroke-width="4" stroke-miterlimit="10" stroke-linecap="round" stroke-linejoin="round"/>
<path d="M523 532.3C523 532.3 477.8 572 490.3 611.6C490.3 611.6 497 630.9 519 634.3C540.3 637.5 544.7 627.3 549.7 622.3C529.5 614.2 538.5 588 543 583.4C533.7 583.4 523 575.5 519.2 567C515.5 558.5 517.6 550.4 523 532.3Z" fill="#372E42"/>
<path opacity="0.83" d="M490.3 611.7C490.3 611.7 496.7 630.2 517.7 634.1C507.5 609.8 503.2 579.3 501.4 558C491.9 572.8 484.2 592.2 490.3 611.7Z" fill="#2D2638"/>
<path d="M523 532.3C523 532.3 477.8 572 490.3 611.6C490.3 611.6 497 630.9 519 634.3C540.3 637.5 544.7 627.3 549.7 622.3C529.5 614.2 538.5 588 543 583.4C533.7 583.4 523 575.5 519.2 567C515.5 558.5 517.6 550.4 523 532.3Z" stroke="#272130" stroke-width="6" stroke-miterlimit="10" stroke-linecap="round" stroke-linejoin="round"/>
<path d="M425.7 479.7C425.7 479.7 426.9 517.3 373 513.1C312.1 508.3 255.8 498 255.8 498" stroke="#204751" stroke-width="6" stroke-miterlimit="10" stroke-linecap="round" stroke-linejoin="round"/>
<path opacity="0.78" d="M343.8 630.8C356.834 630.8 367.4 620.234 367.4 607.2C367.4 594.166 356.834 583.6 343.8 583.6C330.766 583.6 320.2 594.166 320.2 607.2C320.2 620.234 330.766 630.8 343.8 630.8Z" fill="#6D87AC"/>
<path opacity="0.78" d="M402.6 426.6C406.687 426.6 410 423.287 410 419.2C410 415.113 406.687 411.8 402.6 411.8C398.513 411.8 395.2 415.113 395.2 419.2C395.2 423.287 398.513 426.6 402.6 426.6Z" fill="#6D87AC"/>
<path opacity="0.78" d="M421.2 402.4C427.33 402.4 432.3 397.431 432.3 391.3C432.3 385.17 427.33 380.2 421.2 380.2C415.069 380.2 410.1 385.17 410.1 391.3C410.1 397.431 415.069 402.4 421.2 402.4Z" fill="#6D87AC"/>
<path opacity="0.78" d="M412.7 536.2C415.792 536.2 418.3 533.693 418.3 530.6C418.3 527.507 415.792 525 412.7 525C409.607 525 407.1 527.507 407.1 530.6C407.1 533.693 409.607 536.2 412.7 536.2Z" fill="#6D87AC"/>
<path opacity="0.39" d="M422 439.5C424.043 439.5 425.7 437.844 425.7 435.8C425.7 433.757 424.043 432.1 422 432.1C419.956 432.1 418.3 433.757 418.3 435.8C418.3 437.844 419.956 439.5 422 439.5Z" fill="#6D87AC"/>
<path opacity="0.78" d="M518.9 446.6C531.934 446.6 542.5 436.034 542.5 423C542.5 409.966 531.934 399.4 518.9 399.4C505.866 399.4 495.3 409.966 495.3 423C495.3 436.034 505.866 446.6 518.9 446.6Z" fill="#6D87AC"/>
<path opacity="0.39" d="M591.9 490.8C608.137 490.8 621.3 477.637 621.3 461.4C621.3 445.163 608.137 432 591.9 432C575.663 432 562.5 445.163 562.5 461.4C562.5 477.637 575.663 490.8 591.9 490.8Z" fill="#6D87AC"/>
<path opacity="0.78" d="M645 524.4C651.627 524.4 657 519.027 657 512.4C657 505.773 651.627 500.4 645 500.4C638.373 500.4 633 505.773 633 512.4C633 519.027 638.373 524.4 645 524.4Z" fill="#6D87AC"/>
<path opacity="0.78" d="M395.3 637.6C400.16 637.6 404.1 633.66 404.1 628.8C404.1 623.94 400.16 620 395.3 620C390.44 620 386.5 623.94 386.5 628.8C386.5 633.66 390.44 637.6 395.3 637.6Z" fill="#6D87AC"/>
<path d="M500 589.7C500 589.7 510 583.4 514.3 579" stroke="#272130" stroke-width="4" stroke-miterlimit="10" stroke-linecap="round" stroke-linejoin="round"/>
<path d="M500 602.3C500 602.3 520 598 525 593" stroke="#272130" stroke-width="4" stroke-miterlimit="10" stroke-linecap="round" stroke-linejoin="round"/>
<path d="M504.3 611.7C504.3 611.7 517.6 617 527.6 620" stroke="#272130" stroke-width="4" stroke-miterlimit="10" stroke-linecap="round" stroke-linejoin="round"/>
<path d="M382.2 679.7C382.2 679.7 388.1 695 395.2 698.3" stroke="#272130" stroke-width="4" stroke-miterlimit="10" stroke-linecap="round" stroke-linejoin="round"/>
</svg>
