<svg width="1000" height="1000" viewBox="0 0 1000 1000" fill="none" xmlns="http://www.w3.org/2000/svg">
<path opacity="0.69" d="M747.4 300.7H577.6C563.241 300.7 551.6 289.059 551.6 274.7C551.6 260.341 563.241 248.7 577.6 248.7H635C649.4 248.7 661 237.1 661 222.7C661 208.3 649.4 196.7 635 196.7H379.6C365.2 196.7 353.6 208.3 353.6 222.7C353.6 237.1 365.2 248.7 379.6 248.7H435C449.4 248.7 461 260.3 461 274.7C461 289.1 449.4 300.7 435 300.7H257C242.6 300.7 231 312.3 231 326.7C231 341.1 242.6 352.7 257 352.7H327.8C342.2 352.7 353.8 364.3 353.8 378.7C353.8 393.1 342.2 404.7 327.8 404.7H297.9C283.5 404.7 271.9 416.3 271.9 430.7C271.9 445.1 283.5 456.7 297.9 456.7H396.5V508.7H320.5C306.1 508.7 294.5 520.3 294.5 534.7C294.5 549.1 306.1 560.7 320.5 560.7H459.1C473.5 560.7 485.1 572.3 485.1 586.7C485.1 601.1 473.5 612.7 459.1 612.7H381.6C367.2 612.7 355.6 624.3 355.6 638.7C355.6 653.1 367.2 664.7 381.6 664.7H678.2C692.6 664.7 704.2 653.1 704.2 638.7C704.2 624.3 692.6 612.7 678.2 612.7H603.7V560.7H627.3C641.7 560.7 653.3 549.1 653.3 534.7C653.3 520.3 641.7 508.7 627.3 508.7H603.7V456.7H702.3C716.7 456.7 728.3 445.1 728.3 430.7C728.3 416.3 716.7 404.7 702.3 404.7H661C646.641 404.7 635 393.059 635 378.7C635 364.341 646.641 352.7 661 352.7H747.6C762 352.7 773.6 341.1 773.6 326.7C773.4 312.4 761.8 300.7 747.4 300.7Z" fill="#395D77"/>
<path d="M515.8 404.7H463.1C448.7 404.7 437.1 393.1 437.1 378.7C437.1 364.3 448.7 352.7 463.1 352.7H515.8C530.2 352.7 541.8 364.3 541.8 378.7C541.8 393.1 530.2 404.7 515.8 404.7Z" fill="#4A6D8B"/>
<path opacity="0.69" d="M705.2 560.7H741.4C755.8 560.7 767.4 549.1 767.4 534.7C767.4 520.3 755.8 508.7 741.4 508.7H705.2C690.8 508.7 679.2 520.3 679.2 534.7C679.2 549.1 690.8 560.7 705.2 560.7Z" fill="#395D77"/>
<path opacity="0.69" d="M793.4 456.7H781C766.6 456.7 755 445.1 755 430.7C755 416.3 766.6 404.7 781 404.7H793.4C807.8 404.7 819.4 416.3 819.4 430.7C819.4 445.1 807.8 456.7 793.4 456.7Z" fill="#395D77"/>
<path opacity="0.69" d="M272.5 664.7H321.1C335.5 664.7 347.1 653.1 347.1 638.7C347.1 624.3 335.5 612.7 321.1 612.7H272.5C258.1 612.7 246.5 624.3 246.5 638.7C246.5 653.1 258.1 664.7 272.5 664.7Z" fill="#395D77"/>
<path opacity="0.69" d="M195.3 352.7C209.7 352.7 221.3 341.1 221.3 326.7C221.3 312.3 209.7 300.7 195.3 300.7C180.9 300.7 169.3 312.3 169.3 326.7C169.3 341.1 180.9 352.7 195.3 352.7Z" fill="#395D77"/>
<path opacity="0.5" d="M265.8 506.3H238.6C224.2 506.3 212.6 494.7 212.6 480.3C212.6 465.9 224.2 454.3 238.6 454.3H265.8C280.2 454.3 291.8 465.9 291.8 480.3C291.8 494.6 280.2 506.3 265.8 506.3Z" fill="#825D7E"/>
<path d="M653.2 508.7H541.5C527.1 508.7 515.5 497.1 515.5 482.7C515.5 468.3 527.1 456.7 541.5 456.7H653.2C667.6 456.7 679.2 468.3 679.2 482.7C679.2 497.1 667.6 508.7 653.2 508.7Z" fill="#4A6D8B"/>
<path d="M384.2 451.7H272.5C258.1 451.7 246.5 440.1 246.5 425.7C246.5 411.3 258.1 399.7 272.5 399.7H384.2C398.6 399.7 410.2 411.3 410.2 425.7C410.2 440.1 398.6 451.7 384.2 451.7Z" fill="#684463"/>
<path d="M719.4 612.7H607.7C593.3 612.7 581.7 601.1 581.7 586.7C581.7 572.3 593.3 560.7 607.7 560.7H719.4C733.8 560.7 745.4 572.3 745.4 586.7C745.4 601.1 733.8 612.7 719.4 612.7Z" fill="#4A6D8B"/>
<path opacity="0.56" d="M888.2 713.5H111.8C104.6 713.5 98.8 707.7 98.8 700.5C98.8 693.3 104.6 687.5 111.8 687.5H888.1C895.3 687.5 901.1 693.3 901.1 700.5C901.2 707.7 895.3 713.5 888.2 713.5Z" fill="#2D4659"/>
<path d="M455.7 599.5H435.7V699.5H455.7V599.5Z" fill="#8BBF98"/>
<path d="M467.7 599.5H455.7V699.5H467.7V599.5Z" fill="#63916E"/>
<path d="M567.7 599.5H547.7V699.5H567.7V599.5Z" fill="#8BBF98"/>
<path d="M579.7 599.5H567.7V699.5H579.7V599.5Z" fill="#63916E"/>
<path d="M651.7 599.5H631.7V699.5H651.7V599.5Z" fill="#8BBF98"/>
<path d="M663.7 599.5H651.7V699.5H663.7V599.5Z" fill="#63916E"/>
<path d="M728.1 619.5H716.1V699.5H728.1V619.5Z" fill="#8BBF98"/>
<path d="M736.1 619.5H728.1V699.5H736.1V619.5Z" fill="#63916E"/>
<path d="M804 619.5H792V699.5H804V619.5Z" fill="#8BBF98"/>
<path d="M812 619.5H804V699.5H812V619.5Z" fill="#63916E"/>
<path d="M812 619.5H804V623.5H812V619.5Z" fill="#55845F"/>
<path d="M804 619.5H792V623.5H804V619.5Z" fill="#63916E"/>
<path d="M773.4 507.5H761.4V699.5H773.4V507.5Z" fill="#8BBF98"/>
<path d="M781.4 507.5H773.4V699.5H781.4V507.5Z" fill="#63916E"/>
<path d="M849.4 507.5H837.4V699.5H849.4V507.5Z" fill="#8BBF98"/>
<path d="M857.4 507.5H849.4V699.5H857.4V507.5Z" fill="#63916E"/>
<path d="M431.1 547.5H407.5V375.5H431.1C434.4 375.5 437.1 378.2 437.1 381.5V541.5C437.1 544.8 434.5 547.5 431.1 547.5Z" fill="#EF6562"/>
<path d="M423.6 547.5H179.6C176.3 547.5 173.6 544.8 173.6 541.5V381.5C173.6 378.2 176.3 375.5 179.6 375.5H423.6C426.9 375.5 429.6 378.2 429.6 381.5V541.5C429.6 544.8 426.9 547.5 423.6 547.5Z" fill="#EC958B"/>
<path d="M417.539 535.438V387.438L185.539 387.437L185.539 535.438H417.539Z" fill="#34515B"/>
<path d="M188.539 535.438L188.539 387.438H185.539L185.539 535.438H188.539Z" fill="#D84E4E"/>
<path d="M417.6 387.4H413.8V535.4H417.6V387.4Z" fill="#284249"/>
<path d="M322.4 547.5H304.2V699.5H322.4V547.5Z" fill="#D84E4E"/>
<path d="M314.8 547.5H296.6V699.5H314.8V547.5Z" fill="#EF6562"/>
<path d="M314.8 547.5H296.6V554.9H314.8V547.5Z" fill="#D84E4E"/>
<path d="M376.6 699.5H253.9V687.5C253.9 680.9 259.3 675.5 265.9 675.5H364.6C371.2 675.5 376.6 680.9 376.6 687.5V699.5Z" fill="#EF6562"/>
<path d="M365.5 699.5H242.8V687.5C242.8 680.9 248.2 675.5 254.8 675.5H353.5C360.1 675.5 365.5 680.9 365.5 687.5V699.5Z" fill="#EC958B"/>
<path d="M567.7 580.4H435.7V599.5H567.7V580.4Z" fill="#8BBF98"/>
<path d="M663.7 580.4H567.7V599.5H663.7V580.4Z" fill="#63916E"/>
<path d="M557.7 567.1H428.7V580.4H557.7V567.1Z" fill="#9FD6A3"/>
<path d="M567.7 580.4H435.7V584.4H567.7V580.4Z" fill="#63916E"/>
<path d="M673.3 567.1H557.7V580.4H673.3V567.1Z" fill="#83B78D"/>
<path d="M806.4 603.5H710.4V619.5H806.4V603.5Z" fill="#81B58C"/>
<path d="M862.4 603.5H806.4V619.5H862.4V603.5Z" fill="#63916E"/>
<path d="M837.4 517.3H773.4V553.3H837.4V517.3Z" fill="#81B58C"/>
<path d="M857.4 619.5H849.4V623.5H857.4V619.5Z" fill="#55845F"/>
<path d="M849.4 619.5H837.4V623.5H849.4V619.5Z" fill="#63916E"/>
<path d="M773.4 619.5H761.4V623.5H773.4V619.5Z" fill="#63916E"/>
<path d="M728.1 619.5H716.1V623.5H728.1V619.5Z" fill="#63916E"/>
<path d="M736.1 619.5H728.1V623.5H736.1V619.5Z" fill="#55845F"/>
<path d="M781.4 619.5H773.4V623.5H781.4V619.5Z" fill="#55845F"/>
<path d="M663.7 580.4H567.7V584.4H663.7V580.4Z" fill="#577F5D"/>
<path d="M604.719 453.37L595.403 454.624L606.715 538.669L616.031 537.415L604.719 453.37Z" fill="#DD5858"/>
<path d="M605.596 455.613L595.091 457.027L598.066 479.129L608.571 477.715L605.596 455.613Z" fill="#EF6562"/>
<path d="M595.315 458.895L593.333 459.162L593.52 460.549L595.502 460.282L595.315 458.895Z" fill="#E8E8E8"/>
<path d="M596.2 476.3L595.6 476.4L593.5 460.7L594.9 460.5L596.9 475.4C597 475.7 596.7 476.2 596.2 476.3Z" fill="#E8E8E8"/>
<path d="M608.005 477.695L598.689 478.949L598.835 480.039L608.152 478.785L608.005 477.695Z" fill="#D35050"/>
<path d="M583.7 479.6L575.6 482.1L571.9 470.2C571.4 468.6 572.3 466.9 573.9 466.4L576.3 465.7C577.9 465.2 579.6 466.1 580.1 467.7L583.7 479.6Z" fill="#E8E8E8"/>
<path d="M585.704 478.983L573.679 482.745L580.188 503.551L592.214 499.789L585.704 478.983Z" fill="#35393D"/>
<path d="M579 500.7L588.8 488.4L586.7 481.8L576.9 494.1L579 500.7Z" fill="#808284"/>
<path d="M591.608 499.87L580.728 503.274L593.836 545.173L604.717 541.769L591.608 499.87Z" fill="#3B4044"/>
<path opacity="0.66" d="M586.191 501.601L582.564 502.736L595.673 544.634L599.299 543.499L586.191 501.601Z" fill="#6D6F70"/>
<path d="M633.9 463.9L630 463.3L625.1 472.1L636.1 473.7L633.9 463.9Z" fill="#C5E1DF"/>
<path d="M621.4 545.3L618.5 544.9C616.3 544.6 614.8 542.5 615.1 540.3L625.2 472.1L636.1 473.7L626 541.9C625.7 544.1 623.6 545.7 621.4 545.3Z" fill="#B3DBAD"/>
<path d="M617.3 544.7L616.5 544.6C615.4 544.4 614.6 543.4 614.7 542.2L625.1 472L627.9 472.4L617.3 544.7Z" fill="#68A575"/>
<path d="M623.3 545.6L622.5 545.5L633.2 473.3L636 473.7L625.6 543.9C625.5 545 624.5 545.8 623.3 545.6Z" fill="#68A575"/>
<path d="M633.9 463.9L633 459.9C632.9 459.3 632.2 459.2 631.9 459.7L629.9 463.3L633.9 463.9Z" fill="#6F5A66"/>
<path d="M633.9 463.9L632 463.6L633.2 473.3L636.1 473.7L633.9 463.9Z" fill="#A5CECA"/>
<path d="M633.9 567.1H577.9V509.5C577.9 508.4 578.8 507.5 579.9 507.5H631.9C633 507.5 633.9 508.4 633.9 509.5V567.1Z" fill="#F2E07C"/>
<path d="M625.9 507.5V567.1H633.9V509.5C633.9 508.4 633 507.5 631.9 507.5H625.9Z" fill="#DFBB4D"/>
<path d="M595.4 537.3H564.3V567.1H595.4V537.3Z" fill="#6E7EE0"/>
<path d="M567.7 537.3H564.3V567.1H567.7V537.3Z" fill="#7A8CE2"/>
<path d="M590.855 567.022H595.355V537.222H590.855V567.022Z" fill="#6373C1"/>
<path d="M595.381 567.022H598.181V537.222H595.381V567.022Z" fill="#DFBB4D"/>
<path d="M494.9 543.6H471.5V567H494.9V543.6Z" fill="#EC958B"/>
<path d="M494.9 543.6H471.5V544.7H494.9V543.6Z" fill="#EF6562"/>
<path d="M507.3 543.6H494.9V567H507.3V543.6Z" fill="#EF6562"/>
<path d="M485.7 558.7H481.8L481.2 560.6H479.1L482.6 550.8H484.9L488.4 560.6H486.3L485.7 558.7ZM483.7 553.1L482.3 557.2H485.1L483.7 553.1Z" fill="white"/>
<path d="M528.1 543.6H504.7V567H528.1V543.6Z" fill="#E8B58B"/>
<path d="M540.5 543.6H528.1V567H540.5V543.6Z" fill="#E09D6C"/>
<path d="M516.5 550.8C518.9 550.8 520 552.2 520 553.8C520 555 519.3 556.2 517.8 556.6L520.1 560.6H517.8L515.6 556.8H514.7V560.6H512.7V550.8H516.5ZM516.5 552.4H514.9V555.3H516.5C517.6 555.3 518.1 554.7 518.1 553.8C518 553 517.5 552.4 516.5 552.4Z" fill="white"/>
<path d="M488.7 520.2H465.3V543.6H488.7V520.2Z" fill="#1BB1B2"/>
<path d="M501.1 520.2H488.7V543.6H501.1V520.2Z" fill="#19A5A1"/>
<path d="M480.2 527.4H482.3L478.7 537.2H476.3L472.7 527.4H474.8L477.5 535.2L480.2 527.4Z" fill="white"/>
<path d="M187.2 693.3C174.7 702.4 157.2 699.7 148.1 687.2C139 674.7 141.7 657.2 154.2 648.1L187.2 693.3Z" fill="#EF6562"/>
<path d="M154.2 648.1C166.7 639 184.2 641.7 193.3 654.2C202.4 666.7 199.7 684.2 187.2 693.3L154.2 648.1Z" fill="#F2E07C"/>
<path opacity="0.25" d="M174.9 643C185.5 647 193 657.2 193 669.2C193 684.7 180.5 697.2 165 697.2C163.6 697.2 162.2 697.1 160.8 696.9C163.9 698.1 167.2 698.7 170.7 698.7C186.2 698.7 198.7 686.2 198.7 670.7C198.7 656.6 188.4 645 174.9 643Z" fill="#A59A63"/>
<path d="M278.9 472.4C279.5 471.3 280 470.2 280.5 469.1C281 468 281.5 466.8 281.9 465.6C282.8 463.3 283.6 460.9 284.3 458.5C284.5 457.9 284.7 457.3 284.8 456.7L285.3 454.9C285.6 453.7 285.9 452.5 286.1 451.2C286.4 450 286.6 448.7 286.8 447.5C287 446.3 287.1 445 287.3 443.8L287.4 443L287.9 442.6C288.4 442.1 289.2 441.6 290.1 441.6C291 441.5 291.7 441.8 292.2 442.1C293.2 442.7 293.9 443.3 294.4 444C295.5 445.3 296.3 446.6 297.1 448C298.6 450.7 299.8 453.4 301 456.2C302.1 459 303.2 461.8 304.1 464.6C305 467.4 305.9 470.3 306.5 473.3C306.6 473.8 306.3 474.3 305.8 474.4C305.3 474.5 304.8 474.2 304.7 473.7C303.9 470.9 302.9 468.2 301.8 465.4C300.7 462.7 299.5 460 298.3 457.4C297 454.8 295.7 452.2 294.1 449.8C293.3 448.6 292.5 447.5 291.6 446.6C291.2 446.2 290.7 445.8 290.4 445.7C290.3 445.6 290.2 445.7 290.4 445.7C290.5 445.7 290.7 445.6 290.6 445.6L291.2 444.4C291 445.7 290.9 447 290.7 448.3C290.5 449.6 290.3 450.9 290 452.2C289.8 453.5 289.4 454.8 289.1 456L288.6 457.9C288.4 458.5 288.3 459.2 288.1 459.8C287.4 462.3 286.5 464.8 285.6 467.2C285.1 468.4 284.6 469.6 284.1 470.8C283.6 472 283 473.2 282.4 474.4C281.9 475.4 280.7 475.8 279.7 475.2C278.7 474.6 278.4 473.4 278.9 472.4Z" fill="#D1D1D1"/>
<path d="M280.4 459.4L305.4 456.8C306.3 456.7 307.1 457.4 307.2 458.3C307.3 459.2 306.7 460 305.8 460.1L280.8 463.4C279.7 463.5 278.7 462.8 278.6 461.7C278.5 460.6 279.3 459.6 280.4 459.4Z" fill="#D1D1D1"/>
<path d="M833.8 528.2H822.8C821.1 528.2 819.8 526.9 819.8 525.2C819.8 523.5 821.1 522.2 822.8 522.2H833.8C835.5 522.2 836.8 523.5 836.8 525.2C836.8 526.8 835.5 528.2 833.8 528.2Z" fill="#8BBF98"/>
<path d="M825.9 537.5H813.9C812.2 537.5 810.9 536.2 810.9 534.5C810.9 532.8 812.2 531.5 813.9 531.5H825.9C827.6 531.5 828.9 532.8 828.9 534.5C828.9 536.1 827.6 537.5 825.9 537.5Z" fill="#8BBF98"/>
<path opacity="0.74" d="M816.4 548.5H780.4C778.7 548.5 777.4 547.2 777.4 545.5C777.4 543.8 778.7 542.5 780.4 542.5H816.4C818.1 542.5 819.4 543.8 819.4 545.5C819.4 547.2 818.1 548.5 816.4 548.5Z" fill="#8BBF98"/>
<path opacity="0.23" d="M281.5 687.5H258.5C256.8 687.5 255.5 686.2 255.5 684.5C255.5 682.8 256.8 681.5 258.5 681.5H281.5C283.2 681.5 284.5 682.8 284.5 684.5C284.5 686.1 283.2 687.5 281.5 687.5Z" fill="#EF6562"/>
<path opacity="0.23" d="M304.2 687.5H297.5C295.8 687.5 294.5 686.2 294.5 684.5C294.5 682.8 295.8 681.5 297.5 681.5H304.2C305.9 681.5 307.2 682.8 307.2 684.5C307.2 686.1 305.9 687.5 304.2 687.5Z" fill="#EF6562"/>
<path opacity="0.23" d="M354 695H327.2C325.5 695 324.2 693.7 324.2 692C324.2 690.3 325.5 689 327.2 689H354C355.7 689 357 690.3 357 692C357 693.6 355.7 695 354 695Z" fill="#EF6562"/>
<path opacity="0.23" d="M343.2 695H338C336.3 695 335 693.7 335 692C335 690.3 336.3 689 338 689H343.2C344.9 689 346.2 690.3 346.2 692C346.2 693.6 344.9 695 343.2 695Z" fill="#EF6562"/>
<path d="M797.4 537.5H792.2C790.5 537.5 789.2 536.2 789.2 534.5C789.2 532.8 790.5 531.5 792.2 531.5H797.4C799.1 531.5 800.4 532.8 800.4 534.5C800.4 536.1 799.1 537.5 797.4 537.5Z" fill="#8BBF98"/>
<path d="M806.5 528.2H781.5C779.8 528.2 778.5 526.9 778.5 525.2C778.5 523.5 779.8 522.2 781.5 522.2H806.5C808.2 522.2 809.5 523.5 809.5 525.2C809.5 526.8 808.2 528.2 806.5 528.2Z" fill="#8BBF98"/>
<path opacity="0.18" d="M472.1 589.9H451.3C450.4 589.9 449.6 589.2 449.6 588.2C449.6 587.3 450.3 586.5 451.3 586.5H472.1C473 586.5 473.8 587.2 473.8 588.2C473.7 589.2 473 589.9 472.1 589.9Z" fill="#63916E"/>
<path opacity="0.18" d="M488 589.9H478.5C477.6 589.9 476.8 589.2 476.8 588.2C476.8 587.3 477.5 586.5 478.5 586.5H488C488.9 586.5 489.7 587.2 489.7 588.2C489.6 589.2 488.9 589.9 488 589.9Z" fill="#63916E"/>
<path opacity="0.18" d="M500.9 595.7H480.4C479.5 595.7 478.7 595 478.7 594C478.7 593.1 479.4 592.3 480.4 592.3H500.9C501.8 592.3 502.6 593 502.6 594C502.5 594.9 501.8 595.7 500.9 595.7Z" fill="#63916E"/>
<path opacity="0.18" d="M537.4 595.7H531.3C530.4 595.7 529.6 595 529.6 594C529.6 593.1 530.3 592.3 531.3 592.3H537.4C538.3 592.3 539.1 593 539.1 594C539 594.9 538.3 595.7 537.4 595.7Z" fill="#63916E"/>
<path opacity="0.18" d="M543.5 590.9H537.4C536.5 590.9 535.7 590.2 535.7 589.2C535.7 588.3 536.4 587.5 537.4 587.5H543.5C544.4 587.5 545.2 588.2 545.2 589.2C545.2 590.1 544.5 590.9 543.5 590.9Z" fill="#63916E"/>
<path opacity="0.26" d="M607.6 595.7H584.1C583.2 595.7 582.4 595 582.4 594C582.4 593.1 583.1 592.3 584.1 592.3H607.6C608.5 592.3 609.3 593 609.3 594C609.2 594.9 608.5 595.7 607.6 595.7Z" fill="#8BBF98"/>
<path opacity="0.26" d="M641.1 595.7H635C634.1 595.7 633.3 595 633.3 594C633.3 593.1 634 592.3 635 592.3H641.1C642 592.3 642.8 593 642.8 594C642.7 594.9 642 595.7 641.1 595.7Z" fill="#8BBF98"/>
<path opacity="0.26" d="M614 590H600.8C599.9 590 599.1 589.3 599.1 588.3C599.1 587.4 599.8 586.6 600.8 586.6H614C614.9 586.6 615.7 587.3 615.7 588.3C615.7 589.3 615 590 614 590Z" fill="#8BBF98"/>
</svg>
