<svg width="56" height="48" viewBox="0 0 56 48" fill="none" xmlns="http://www.w3.org/2000/svg">
<g clip-path="url(#clip0)">
<path fill-rule="evenodd" clip-rule="evenodd" d="M0 19.4024C0 14.7619 3.68811 11 8.23762 11L8.26184 11L17.7129 11C21.5789 11 24.7129 14.134 24.7129 18V18.3521L16.4115 18.3521L16.4115 18.3523L9.28794 18.3523C8.70788 18.3523 8.23764 18.8225 8.23764 19.4026C8.23764 19.9826 8.70788 20.4529 9.28794 20.4529H16.4115L16.4115 20.4529H17.5049C22.0544 20.4529 25.7425 24.2148 25.7425 28.8553C25.7425 33.4958 22.0544 37.2577 17.5049 37.2577H8.75245V37.2577H8.3818C4.32136 37.2577 1.02972 33.966 1.02972 29.9056H8.75245V29.9053H16.4547C17.0347 29.9053 17.505 29.435 17.505 28.855C17.505 28.2749 17.0347 27.8047 16.4547 27.8047H8.75245V27.7886C8.59293 27.7986 8.43219 27.804 8.27034 27.8047H8.20491C3.67044 27.7867 0 24.0318 0 19.4024ZM48.9212 22.3043C49.2475 21.3999 49.4257 20.4224 49.4257 19.4024C49.4257 14.7619 45.7376 11.0001 41.1881 11.0001H27.2871V11.3521C27.2871 14.7885 29.7633 17.6466 33.0287 18.2393C33.0237 18.2768 33.0188 18.3144 33.0142 18.3521H41.1675C41.7476 18.3521 42.2178 18.8223 42.2178 19.4023C42.2178 19.9824 41.7476 20.4526 41.1675 20.4526H33.0142L33.0142 20.4529H30.9631C28.9329 20.4529 27.2871 22.0988 27.2871 24.129C27.2871 26.1424 28.9058 27.7778 30.9128 27.8047H42.712C43.2921 27.8047 43.7623 28.2749 43.7623 28.855C43.7623 29.435 43.2921 29.9053 42.712 29.9053H35.5885C35.5885 29.9054 35.5885 29.9055 35.5885 29.9056H30.9631C28.9329 29.9056 27.2871 31.5514 27.2871 33.5816C27.2871 35.6118 28.9329 37.2577 30.9631 37.2577H43.7379L43.7624 37.2577C48.3119 37.2577 52 33.4958 52 28.8553C52 26.2067 50.7986 23.8444 48.9212 22.3043Z" fill="#F8C62A"/>
</g>
<defs>
<clipPath id="clip0">
<rect width="56" height="48" fill="white"/>
</clipPath>
</defs>
</svg>
